# Blender 4.1.0
# www.blender.org
o B__Button
v 0.351072 0.270656 -0.178765
v 0.351072 0.312633 -0.178765
v 0.376887 0.270656 -0.173630
v 0.376887 0.312633 -0.173630
v 0.398772 0.270656 -0.159007
v 0.398772 0.312633 -0.159007
v 0.413395 0.270656 -0.137122
v 0.413395 0.312633 -0.137122
v 0.418530 0.270656 -0.111307
v 0.418530 0.312633 -0.111307
v 0.413395 0.270656 -0.085492
v 0.413395 0.312633 -0.085492
v 0.398772 0.270656 -0.063607
v 0.398772 0.312633 -0.063607
v 0.376887 0.270656 -0.048984
v 0.376887 0.312633 -0.048984
v 0.351072 0.270656 -0.043849
v 0.351072 0.312633 -0.043849
v 0.325257 0.270656 -0.048984
v 0.325257 0.312633 -0.048984
v 0.303372 0.270656 -0.063607
v 0.303372 0.312633 -0.063607
v 0.288749 0.270656 -0.085492
v 0.288749 0.312633 -0.085492
v 0.283614 0.270656 -0.111307
v 0.283614 0.312633 -0.111307
v 0.288749 0.270656 -0.137122
v 0.288749 0.312633 -0.137122
v 0.303372 0.270656 -0.159007
v 0.303372 0.312633 -0.159007
v 0.325257 0.270656 -0.173630
v 0.325257 0.312633 -0.173630
v 0.375135 0.318391 -0.169400
v 0.351072 0.318391 -0.174187
v 0.395535 0.318391 -0.155770
v 0.409165 0.318391 -0.135370
v 0.413952 0.318391 -0.111307
v 0.409165 0.318391 -0.087244
v 0.395535 0.318391 -0.066844
v 0.375135 0.318391 -0.053213
v 0.351072 0.318391 -0.048427
v 0.327009 0.318391 -0.053213
v 0.306609 0.318391 -0.066844
v 0.292978 0.318391 -0.087244
v 0.288192 0.318391 -0.111307
v 0.292978 0.318391 -0.135370
v 0.306609 0.318391 -0.155770
v 0.327009 0.318391 -0.169400
v 0.371482 0.322709 -0.160582
v 0.351072 0.322709 -0.164642
v 0.388785 0.322709 -0.149020
v 0.400347 0.322709 -0.131717
v 0.404407 0.322709 -0.111307
v 0.400347 0.322709 -0.090896
v 0.388785 0.322709 -0.073593
v 0.371482 0.322709 -0.062032
v 0.351072 0.322709 -0.057972
v 0.330661 0.322709 -0.062032
v 0.313358 0.322709 -0.073593
v 0.301797 0.322709 -0.090896
v 0.297737 0.322709 -0.111307
v 0.301797 0.322709 -0.131717
v 0.313358 0.322709 -0.149020
v 0.330661 0.322709 -0.160582
v 0.351072 0.324901 -0.111307
vn -0.0000 -0.0000 -1.0000
vn -0.0000 0.3175 -0.9483
vn 0.3827 -0.0000 -0.9239
vn 0.3629 0.3175 -0.8761
vn 0.7071 -0.0000 -0.7071
vn 0.6705 0.3175 -0.6705
vn 0.9239 -0.0000 -0.3827
vn 0.8761 0.3175 -0.3629
vn 1.0000 -0.0000 -0.0000
vn 0.9483 0.3175 -0.0000
vn 0.9239 -0.0000 0.3827
vn 0.8761 0.3175 0.3629
vn 0.7071 -0.0000 0.7071
vn 0.6705 0.3175 0.6705
vn 0.3827 -0.0000 0.9239
vn 0.3629 0.3175 0.8761
vn -0.0000 -0.0000 1.0000
vn -0.0000 0.3175 0.9483
vn -0.3827 -0.0000 0.9239
vn -0.3629 0.3175 0.8761
vn -0.7071 -0.0000 0.7071
vn -0.6705 0.3175 0.6705
vn -0.9239 -0.0000 0.3827
vn -0.8761 0.3175 0.3629
vn -1.0000 -0.0000 -0.0000
vn -0.9483 0.3175 -0.0000
vn -0.9239 -0.0000 -0.3827
vn -0.8761 0.3175 -0.3629
vn -0.7071 -0.0000 -0.7071
vn -0.6705 0.3175 -0.6705
vn -0.3827 -0.0000 -0.9239
vn -0.3629 0.3175 -0.8761
vn 0.2420 0.7748 -0.5841
vn -0.0000 0.7748 -0.6323
vn 0.4471 0.7748 -0.4471
vn 0.5841 0.7748 -0.2420
vn 0.6323 0.7748 -0.0000
vn 0.5841 0.7748 0.2420
vn 0.4471 0.7748 0.4471
vn 0.2420 0.7748 0.5841
vn -0.0000 0.7748 0.6323
vn -0.2420 0.7748 0.5841
vn -0.4471 0.7748 0.4471
vn -0.5841 0.7748 0.2420
vn -0.6323 0.7748 -0.0000
vn -0.5841 0.7748 -0.2420
vn -0.4471 0.7748 -0.4471
vn -0.2420 0.7748 -0.5841
vn 0.0969 0.9674 -0.2339
vn -0.0000 0.9674 -0.2532
vn 0.1790 0.9674 -0.1790
vn 0.2339 0.9674 -0.0969
vn 0.2532 0.9674 -0.0000
vn 0.2339 0.9674 0.0969
vn 0.1790 0.9674 0.1790
vn 0.0969 0.9674 0.2339
vn -0.0000 0.9674 0.2532
vn -0.0969 0.9674 0.2339
vn -0.1790 0.9674 0.1790
vn -0.2339 0.9674 0.0969
vn -0.2532 0.9674 -0.0000
vn -0.2339 0.9674 -0.0969
vn -0.1790 0.9674 -0.1790
vn -0.0969 0.9674 -0.2339
vn -0.0000 1.0000 -0.0000
vt 0.216284 0.923317
vt 0.356288 0.723184
vt 0.452747 0.761119
vt 0.400059 0.999741
vt 0.556396 0.759292
vt 0.599116 0.999900
vt 0.651445 0.717997
vt 0.783022 0.923769
vt 0.723210 0.643198
vt 0.923607 0.782951
vt 0.761133 0.546743
vt 0.999552 0.599247
vt 0.759619 0.443145
vt 0.999552 0.400560
vt 0.717769 0.348370
vt 0.923409 0.217029
vt 0.643426 0.276211
vt 0.783089 0.076562
vt 0.546963 0.238525
vt 0.599678 0.000425
vt 0.443346 0.240307
vt 0.401117 0.000100
vt 0.348125 0.281264
vt 0.217333 0.075627
vt 0.276303 0.355864
vt 0.076351 0.216004
vt 0.238605 0.452356
vt 0.000100 0.399795
vt 0.240833 0.556012
vt 0.000119 0.598636
vt 0.698755 0.627162
vt 0.732415 0.541518
vt 0.281604 0.651356
vt 0.075846 0.782377
vt 0.364803 0.305365
vt 0.449810 0.268853
vt 0.458085 0.307298
vt 0.387478 0.337702
vt 0.541793 0.267248
vt 0.269411 0.549831
vt 0.305710 0.634693
vt 0.550505 0.730659
vt 0.635032 0.693846
vt 0.693795 0.365053
vt 0.627579 0.300858
vt 0.372342 0.698745
vt 0.458250 0.732407
vt 0.300718 0.371883
vt 0.267312 0.457772
vt 0.731016 0.449400
vt 0.464957 0.693579
vt 0.393386 0.665437
vt 0.499896 0.499651
vt 0.612452 0.661492
vt 0.665582 0.605943
vt 0.333977 0.393152
vt 0.693736 0.534502
vt 0.306042 0.464863
vt 0.692404 0.457597
vt 0.307713 0.541526
vt 0.661471 0.387258
vt 0.338019 0.612047
vt 0.606258 0.334019
vt 0.534836 0.305899
vt 0.541856 0.692200
s 1
f 1/1/1 2/2/2 4/3/4 3/4/3
f 3/4/3 4/3/4 6/5/6 5/6/5
f 5/6/5 6/5/6 8/7/8 7/8/7
f 7/8/7 8/7/8 10/9/10 9/10/9
f 9/10/9 10/9/10 12/11/12 11/12/11
f 11/12/11 12/11/12 14/13/14 13/14/13
f 13/14/13 14/13/14 16/15/16 15/16/15
f 15/16/15 16/15/16 18/17/18 17/18/17
f 17/18/17 18/17/18 20/19/20 19/20/19
f 19/20/19 20/19/20 22/21/22 21/22/21
f 21/22/21 22/21/22 24/23/24 23/24/23
f 23/24/23 24/23/24 26/25/26 25/26/25
f 25/26/25 26/25/26 28/27/28 27/28/27
f 27/28/27 28/27/28 30/29/30 29/30/29
f 12/11/12 10/9/10 37/31/37 38/32/38
f 29/30/29 30/29/30 32/33/32 31/34/31
f 31/34/31 32/33/32 2/2/2 1/1/1
f 44/35/44 43/36/43 59/37/59 60/38/60
f 22/21/22 20/19/20 42/39/42 43/36/43
f 32/33/32 30/29/30 47/40/47 48/41/48
f 8/7/8 6/5/6 35/42/35 36/43/36
f 18/17/18 16/15/16 40/44/40 41/45/41
f 4/3/4 2/2/2 34/46/34 33/47/33
f 28/27/28 26/25/26 45/48/45 46/49/46
f 14/13/14 12/11/12 38/32/38 39/50/39
f 24/23/24 22/21/22 43/36/43 44/35/44
f 2/2/2 32/33/32 48/41/48 34/46/34
f 10/9/10 8/7/8 36/43/36 37/31/37
f 20/19/20 18/17/18 41/45/41 42/39/42
f 30/29/30 28/27/28 46/49/46 47/40/47
f 6/5/6 4/3/4 33/47/33 35/42/35
f 16/15/16 14/13/14 39/50/39 40/44/40
f 26/25/26 24/23/24 44/35/44 45/48/45
f 49/51/49 50/52/50 65/53/65
f 37/31/37 36/43/36 52/54/52 53/55/53
f 45/48/45 44/35/44 60/38/60 61/56/61
f 38/32/38 37/31/37 53/55/53 54/57/54
f 46/49/46 45/48/45 61/56/61 62/58/62
f 39/50/39 38/32/38 54/57/54 55/59/55
f 47/40/47 46/49/46 62/58/62 63/60/63
f 40/44/40 39/50/39 55/59/55 56/61/56
f 48/41/48 47/40/47 63/60/63 64/62/64
f 41/45/41 40/44/40 56/61/56 57/63/57
f 33/47/33 34/46/34 50/52/50 49/51/49
f 34/46/34 48/41/48 64/62/64 50/52/50
f 42/39/42 41/45/41 57/63/57 58/64/58
f 35/42/35 33/47/33 49/51/49 51/65/51
f 43/36/43 42/39/42 58/64/58 59/37/59
f 36/43/36 35/42/35 51/65/51 52/54/52
f 50/52/50 64/62/64 65/53/65
f 58/64/58 57/63/57 65/53/65
f 51/65/51 49/51/49 65/53/65
f 59/37/59 58/64/58 65/53/65
f 52/54/52 51/65/51 65/53/65
f 60/38/60 59/37/59 65/53/65
f 53/55/53 52/54/52 65/53/65
f 61/56/61 60/38/60 65/53/65
f 54/57/54 53/55/53 65/53/65
f 62/58/62 61/56/61 65/53/65
f 55/59/55 54/57/54 65/53/65
f 63/60/63 62/58/62 65/53/65
f 56/61/56 55/59/55 65/53/65
f 64/62/64 63/60/63 65/53/65
f 57/63/57 56/61/56 65/53/65
