# Blender 4.1.0
# www.blender.org
o D-Pad_Up
v -0.338882 0.247240 0.152035
v -0.337832 0.283460 0.153085
v -0.336703 0.287860 0.154214
v -0.326259 0.298154 0.164658
v -0.299913 0.298450 0.191004
v -0.334664 0.293173 0.156253
v -0.333145 0.295859 0.157772
v -0.260944 0.247240 0.152035
v -0.261994 0.283460 0.153085
v -0.263122 0.287860 0.154214
v -0.273567 0.298154 0.164658
v -0.265162 0.293173 0.156253
v -0.266681 0.295859 0.157772
v -0.274416 0.258230 0.071965
v -0.276259 0.294451 0.073291
v -0.269262 0.258230 0.072990
v -0.271105 0.294451 0.074317
v -0.264893 0.258230 0.075910
v -0.266736 0.294451 0.077236
v -0.261974 0.258230 0.080279
v -0.263817 0.294451 0.081605
v -0.260948 0.258230 0.085433
v -0.262791 0.294451 0.086759
v -0.276980 0.299518 0.075111
v -0.271992 0.299518 0.076136
v -0.267763 0.299518 0.079056
v -0.264938 0.299518 0.083425
v -0.263945 0.298925 0.087605
v -0.278042 0.303385 0.077208
v -0.273299 0.303385 0.078233
v -0.269278 0.303385 0.081153
v -0.266591 0.303385 0.085522
v -0.265648 0.302994 0.090676
v -0.279942 0.307093 0.081910
v -0.275637 0.306772 0.083134
v -0.271988 0.306743 0.085916
v -0.269549 0.306381 0.090371
v -0.268693 0.305245 0.095480
v -0.265705 0.293144 0.154391
v -0.268654 0.295887 0.154551
v -0.279942 0.307868 0.086966
v -0.279942 0.306286 0.096668
v -0.278383 0.298737 0.151675
v -0.325409 0.258230 0.071965
v -0.323566 0.294451 0.073291
v -0.330563 0.258230 0.072990
v -0.328720 0.294451 0.074317
v -0.334932 0.258230 0.075910
v -0.333089 0.294451 0.077236
v -0.337852 0.258230 0.080279
v -0.336009 0.294451 0.081605
v -0.338877 0.258230 0.085433
v -0.337034 0.294451 0.086759
v -0.322846 0.299518 0.075111
v -0.327834 0.299518 0.076136
v -0.332062 0.299518 0.079056
v -0.334888 0.299518 0.083425
v -0.335880 0.298925 0.087605
v -0.321783 0.303385 0.077208
v -0.326527 0.303385 0.078233
v -0.330547 0.303385 0.081153
v -0.333234 0.303385 0.085522
v -0.334178 0.302994 0.090676
v -0.319883 0.307093 0.081910
v -0.324188 0.306772 0.083134
v -0.327838 0.306743 0.085916
v -0.330277 0.306381 0.090371
v -0.331133 0.305245 0.095480
v -0.334120 0.293144 0.154391
v -0.331172 0.295887 0.154551
v -0.319883 0.307868 0.086966
v -0.319883 0.306286 0.096668
v -0.321442 0.298737 0.151675
vn 0.1035 0.0417 -0.9938
vn 0.0981 0.1839 -0.9780
vn 0.3743 0.1960 -0.9064
vn 0.3893 0.0535 -0.9196
vn 0.6882 0.1996 -0.6975
vn 0.7074 0.0618 -0.7041
vn 0.9027 0.1824 -0.3897
vn 0.9209 0.0610 -0.3851
vn 0.9835 0.1535 -0.0958
vn 0.9939 0.0487 -0.0986
vn 0.3529 0.4444 -0.8234
vn 0.6466 0.4463 -0.6186
vn 0.8557 0.4018 -0.3260
vn 0.0929 0.4174 -0.9040
vn 0.9361 0.3441 -0.0730
vn 0.7376 0.6344 -0.2313
vn 0.8248 0.5653 0.0144
vn 0.2994 0.6676 -0.6816
vn 0.5424 0.6787 -0.4951
vn 0.0840 0.6376 -0.7658
vn 0.4218 0.9065 0.0171
vn 0.4730 0.8718 0.1274
vn 0.1941 0.9160 -0.3511
vn 0.3071 0.9341 -0.1820
vn 0.0644 0.9082 -0.4134
vn 0.9889 0.1475 0.0153
vn 0.9992 0.0399 0.0006
vn 0.9389 0.3442 0.0008
vn 0.8202 0.5610 -0.1120
vn 0.4698 0.8816 -0.0454
vn 0.0694 0.9869 0.1457
vn 0.0555 0.9985 0.0002
vn 0.0975 0.9920 0.0801
vn 0.7636 0.5689 -0.3055
vn 0.1360 0.9905 -0.0181
vn 0.4589 0.8567 -0.2354
vn -0.1035 0.0417 -0.9938
vn -0.3893 0.0535 -0.9196
vn -0.3743 0.1960 -0.9064
vn -0.0981 0.1839 -0.9780
vn -0.7074 0.0618 -0.7041
vn -0.6882 0.1996 -0.6975
vn -0.9209 0.0610 -0.3851
vn -0.9027 0.1824 -0.3897
vn -0.9939 0.0487 -0.0986
vn -0.9835 0.1535 -0.0958
vn -0.6466 0.4463 -0.6186
vn -0.3529 0.4444 -0.8234
vn -0.8557 0.4018 -0.3260
vn -0.0929 0.4174 -0.9040
vn -0.9361 0.3441 -0.0730
vn -0.8248 0.5653 0.0144
vn -0.7376 0.6344 -0.2313
vn -0.5424 0.6787 -0.4951
vn -0.2994 0.6676 -0.6816
vn -0.0840 0.6376 -0.7658
vn -0.4730 0.8718 0.1274
vn -0.4218 0.9065 0.0171
vn -0.3071 0.9341 -0.1820
vn -0.1941 0.9160 -0.3511
vn -0.0644 0.9082 -0.4134
vn -0.9992 0.0399 0.0006
vn -0.9889 0.1475 0.0153
vn -0.9389 0.3442 0.0008
vn -0.8202 0.5610 -0.1120
vn -0.4698 0.8816 -0.0454
vn -0.0694 0.9869 0.1457
vn -0.0555 0.9985 0.0002
vn -0.0975 0.9920 0.0801
vn -0.7636 0.5689 -0.3055
vn -0.1360 0.9905 -0.0181
vn -0.4589 0.8567 -0.2355
vn -0.0000 0.9999 -0.0112
vt 0.392309 -0.002817
vt 0.432420 0.064852
vt 0.414857 0.070116
vt 0.370780 0.009471
vt 0.400850 0.079228
vt 0.351352 0.024409
vt 0.389764 0.092012
vt 0.333527 0.041399
vt 0.381521 0.108996
vt 0.318015 0.061042
vt 0.419504 0.079472
vt 0.406289 0.088143
vt 0.396253 0.100761
vt 0.435358 0.075579
vt 0.390332 0.113706
vt 0.402758 0.108857
vt 0.398386 0.124585
vt 0.424280 0.087896
vt 0.411891 0.096296
vt 0.438755 0.084846
vt 0.411651 0.124653
vt 0.407350 0.140363
vt 0.431181 0.103652
vt 0.419824 0.111550
vt 0.444313 0.100468
vt 0.338664 0.339329
vt 0.263901 0.326299
vt 0.347255 0.344391
vt 0.361013 0.347205
vt 0.373228 0.349156
vt 0.442658 0.146489
vt 0.443771 0.116004
vt 0.412541 0.340539
vt 0.358344 0.354082
vt 0.391203 0.390567
vt 0.365019 0.361054
vt 0.615806 -0.003698
vt 0.638058 0.009324
vt 0.592614 0.071756
vt 0.575150 0.066441
vt 0.657958 0.025081
vt 0.606639 0.081064
vt 0.676028 0.042850
vt 0.617639 0.094160
vt 0.691624 0.063332
vt 0.625570 0.111532
vt 0.601038 0.089990
vt 0.587869 0.081112
vt 0.610941 0.102873
vt 0.572068 0.077066
vt 0.616641 0.116018
vt 0.608379 0.126744
vt 0.604262 0.110895
vt 0.595287 0.098116
vt 0.582970 0.089503
vt 0.568509 0.086233
vt 0.599144 0.142385
vt 0.595076 0.126583
vt 0.587078 0.113303
vt 0.575801 0.105187
vt 0.562676 0.101775
vt 0.738637 0.329667
vt 0.663630 0.340699
vt 0.655022 0.345601
vt 0.641326 0.348136
vt 0.629170 0.349828
vt 0.563550 0.148022
vt 0.562954 0.117366
vt 0.590301 0.340260
vt 0.643843 0.355014
vt 0.610370 0.390598
vt 0.637071 0.361819
vt 0.500765 0.500193
s 1
f 14/1/1 15/2/2 17/3/3 16/4/4
f 16/4/4 17/3/3 19/5/5 18/6/6
f 18/6/6 19/5/5 21/7/7 20/8/8
f 20/8/8 21/7/7 23/9/9 22/10/10
f 19/5/5 17/3/3 25/11/11 26/12/12
f 21/7/7 19/5/5 26/12/12 27/13/13
f 17/3/3 15/2/2 24/14/14 25/11/11
f 23/9/9 21/7/7 27/13/13 28/15/15
f 28/15/15 27/13/13 32/16/16 33/17/17
f 26/12/12 25/11/11 30/18/18 31/19/19
f 27/13/13 26/12/12 31/19/19 32/16/16
f 25/11/11 24/14/14 29/20/20 30/18/18
f 33/17/17 32/16/16 37/21/21 38/22/22
f 31/19/19 30/18/18 35/23/23 36/24/24
f 32/16/16 31/19/19 36/24/24 37/21/21
f 30/18/18 29/20/20 34/25/25 35/23/23
f 22/10/10 23/9/9 9/26/26 8/27/27
f 9/26/26 23/9/9 28/15/15 10/28/28
f 10/28/28 28/15/15 33/17/17 39/29/29
f 39/29/29 33/17/17 38/22/22 40/30/30
f 37/21/21 42/31/31 38/22/22
f 36/24/24 41/32/32 42/31/31 37/21/21
f 34/25/25 41/32/32 36/24/24 35/23/23
f 38/22/22 42/31/31 43/33/33 40/30/30
f 10/28/28 39/29/29 12/34/34
f 11/35/35 40/30/30 43/33/33
f 40/30/30 11/35/35 13/36/36
f 13/36/36 12/34/34 39/29/29 40/30/30
f 44/37/37 46/38/38 47/39/39 45/40/40
f 46/38/38 48/41/41 49/42/42 47/39/39
f 48/41/41 50/43/43 51/44/44 49/42/42
f 50/43/43 52/45/45 53/46/46 51/44/44
f 49/42/42 56/47/47 55/48/48 47/39/39
f 51/44/44 57/49/49 56/47/47 49/42/42
f 47/39/39 55/48/48 54/50/50 45/40/40
f 53/46/46 58/51/51 57/49/49 51/44/44
f 58/51/51 63/52/52 62/53/53 57/49/49
f 56/47/47 61/54/54 60/55/55 55/48/48
f 57/49/49 62/53/53 61/54/54 56/47/47
f 55/48/48 60/55/55 59/56/56 54/50/50
f 63/52/52 68/57/57 67/58/58 62/53/53
f 61/54/54 66/59/59 65/60/60 60/55/55
f 62/53/53 67/58/58 66/59/59 61/54/54
f 60/55/55 65/60/60 64/61/61 59/56/56
f 52/45/45 1/62/62 2/63/63 53/46/46
f 2/63/63 3/64/64 58/51/51 53/46/46
f 3/64/64 69/65/65 63/52/52 58/51/51
f 69/65/65 70/66/66 68/57/57 63/52/52
f 67/58/58 68/57/57 72/67/67
f 66/59/59 67/58/58 72/67/67 71/68/68
f 64/61/61 65/60/60 66/59/59 71/68/68
f 68/57/57 70/66/66 73/69/69 72/67/67
f 3/64/64 6/70/70 69/65/65
f 4/71/71 73/69/69 70/66/66
f 70/66/66 7/72/72 4/71/71
f 7/72/72 70/66/66 69/65/65 6/70/70
s 0
f 11/35/73 4/71/73 5/73/73
s 1
f 43/33/33 73/69/69 4/71/71 11/35/35
f 42/31/31 72/67/67 73/69/69 43/33/33
f 41/32/32 71/68/68 72/67/67 42/31/31
f 34/25/25 64/61/61 71/68/68 41/32/32
f 34/25/25 29/20/20 59/56/56 64/61/61
f 29/20/20 24/14/14 54/50/50 59/56/56
f 24/14/14 15/2/2 45/40/40 54/50/50
f 14/1/1 44/37/37 45/40/40 15/2/2
