# Blender 4.1.0
# www.blender.org
o Left_Stick
v 0.056981 0.092209 0.175393
v -0.149210 0.092209 0.108396
v -0.149210 0.092209 -0.108404
v 0.056981 0.092209 -0.175401
v 0.184415 0.092208 -0.000004
v -0.000008 0.206187 -0.000004
v 0.197240 0.051781 0.030434
v 0.196092 -0.000004 0.063712
v 0.196092 -0.000004 -0.063720
v 0.197240 0.051781 -0.030442
v 0.031996 0.051781 0.196996
v -0.000008 -0.000004 0.206188
v 0.121188 -0.000004 0.166808
v 0.089893 0.051781 0.178184
v -0.177477 0.051781 0.091309
v -0.196108 -0.000004 0.063712
v -0.121205 -0.000004 0.166808
v -0.141694 0.051781 0.140560
v -0.141694 0.051781 -0.140568
v -0.121205 -0.000004 -0.166817
v -0.196108 -0.000004 -0.063720
v -0.177477 0.051781 -0.091318
v 0.089893 0.051781 -0.178192
v 0.121188 -0.000004 -0.166817
v -0.000008 -0.000004 -0.206196
v 0.031996 0.051781 -0.197004
v 0.171347 0.103566 0.049245
v 0.141891 0.108398 0.103091
v 0.099783 0.103566 0.147746
v 0.006103 0.103566 0.178183
v -0.054210 0.108398 0.166807
v -0.109690 0.103566 0.140559
v -0.167586 0.103566 0.060871
v -0.175405 0.108398 -0.000004
v -0.167586 0.103566 -0.060880
v -0.109690 0.103566 -0.140567
v -0.054210 0.108398 -0.166815
v 0.006103 0.103566 -0.178192
v 0.099783 0.103566 -0.147754
v 0.141891 0.108398 -0.103099
v 0.171347 0.103566 -0.049254
v 0.015994 0.199579 0.049245
v 0.033489 0.175394 0.103091
v 0.047998 0.135571 0.147745
v 0.155345 0.135570 -0.000004
v 0.108393 0.175393 -0.000004
v 0.051776 0.199579 -0.000004
v -0.041902 0.199579 0.030433
v -0.087706 0.175394 0.063711
v -0.125692 0.135571 0.091309
v -0.041902 0.199579 -0.030442
v -0.087706 0.175394 -0.063720
v -0.125692 0.135571 -0.091317
v 0.015994 0.199579 -0.049254
v 0.033489 0.175394 -0.103099
v 0.047998 0.135571 -0.147753
v 0.074592 0.184420 -0.054204
v 0.131582 0.149198 -0.054204
v 0.092203 0.149198 -0.108405
v -0.028503 0.184420 -0.087701
v -0.010893 0.149199 -0.141902
v -0.074609 0.149199 -0.121199
v -0.092219 0.184420 -0.000004
v -0.138325 0.149198 -0.033501
v -0.138325 0.149198 0.033493
v -0.028503 0.184420 0.087693
v -0.074609 0.149199 0.121191
v -0.010893 0.149199 0.141894
v 0.074592 0.184420 0.054196
v 0.092203 0.149198 0.108397
v 0.131582 0.149198 0.054196
v 0.177689 0.056986 -0.087702
v 0.166805 -0.000004 -0.121200
v 0.138309 0.056987 -0.141903
v -0.028504 0.056987 -0.196104
v -0.063725 -0.000004 -0.196104
v -0.092220 0.056987 -0.175401
v -0.195316 0.056986 -0.033501
v -0.206200 -0.000004 -0.000004
v -0.195316 0.056986 0.033493
v -0.092220 0.056986 0.175392
v -0.063725 -0.000004 0.196096
v -0.028504 0.056986 0.196095
v 0.138309 0.056986 0.141895
v 0.166805 -0.000005 0.121192
v 0.177689 0.056986 0.087694
v 0.063709 -0.000004 -0.196104
v -0.166821 -0.000004 -0.121200
v -0.166821 -0.000004 0.121192
v 0.063709 -0.000004 0.196096
v 0.206183 -0.000004 -0.000004
v 0.000108 0.183716 -0.069391
v 0.000108 0.234774 -0.069391
v 0.026829 0.183716 -0.064076
v 0.026829 0.234774 -0.064076
v 0.049483 0.183716 -0.048940
v 0.049483 0.234774 -0.048940
v 0.064619 0.183716 -0.026286
v 0.064619 0.234774 -0.026286
v 0.069934 0.183716 0.000435
v 0.069934 0.234774 0.000435
v 0.064619 0.183716 0.027156
v 0.064619 0.234774 0.027156
v 0.049483 0.183716 0.049810
v 0.049483 0.234774 0.049810
v 0.026829 0.183716 0.064946
v 0.026829 0.234774 0.064946
v 0.000108 0.183716 0.070261
v 0.000108 0.234774 0.070261
v -0.026614 0.183716 0.064946
v -0.026614 0.234774 0.064946
v -0.049267 0.183716 0.049810
v -0.049267 0.234774 0.049810
v -0.064403 0.183716 0.027156
v -0.064403 0.234774 0.027156
v -0.069719 0.183716 0.000435
v -0.069719 0.234774 0.000435
v -0.064403 0.183716 -0.026286
v -0.064403 0.234774 -0.026286
v -0.049267 0.183716 -0.048940
v -0.049267 0.234774 -0.048940
v -0.026614 0.183716 -0.064076
v -0.026614 0.234774 -0.064076
v 0.039662 0.238389 -0.095057
v 0.000108 0.238389 -0.102925
v 0.073195 0.238389 -0.072652
v 0.095600 0.238389 -0.039119
v 0.103468 0.238389 0.000435
v 0.095600 0.238389 0.039989
v 0.073195 0.238389 0.073522
v 0.039662 0.238389 0.095927
v 0.000108 0.238389 0.103795
v -0.039446 0.238389 0.095927
v -0.072979 0.238389 0.073522
v -0.095385 0.238389 0.039989
v -0.103252 0.238389 0.000435
v -0.095385 0.238389 -0.039119
v -0.072979 0.238389 -0.072652
v -0.039446 0.238389 -0.095057
vn 0.2764 0.4472 0.8506
vn 0.4915 0.5038 0.7103
vn 0.2308 0.6650 0.7103
vn -0.7236 0.4472 0.5257
vn -0.5237 0.5038 0.6870
vn -0.6042 0.6650 0.4390
vn -0.7236 0.4472 -0.5257
vn -0.8152 0.5038 -0.2857
vn -0.6042 0.6650 -0.4390
vn 0.2764 0.4472 -0.8506
vn 0.0198 0.5038 -0.8636
vn 0.2308 0.6650 -0.7103
vn 0.8944 0.4472 -0.0000
vn 0.8274 0.5038 -0.2480
vn 0.7469 0.6650 -0.0000
vn 0.2608 0.9654 -0.0000
vn 0.0806 0.9654 -0.2480
vn -0.0000 1.0000 -0.0000
vn 0.5257 0.8507 -0.0000
vn 0.3682 0.8904 -0.2675
vn 0.6317 0.7275 -0.2675
vn 0.1625 0.8507 -0.5000
vn 0.4496 0.7276 -0.5182
vn 0.6882 0.5257 -0.5000
vn 0.4915 0.5038 -0.7103
vn -0.2110 0.9654 -0.1533
vn -0.1406 0.8904 -0.4329
vn -0.0592 0.7276 -0.6835
vn -0.4253 0.8507 -0.3090
vn -0.3539 0.7276 -0.5878
vn -0.2629 0.5257 -0.8090
vn -0.5237 0.5038 -0.6870
vn -0.2110 0.9654 0.1533
vn -0.4551 0.8904 -0.0000
vn -0.6683 0.7276 -0.1549
vn -0.4253 0.8507 0.3090
vn -0.6683 0.7276 0.1549
vn -0.8506 0.5257 -0.0000
vn -0.8152 0.5038 0.2857
vn 0.0806 0.9654 0.2480
vn -0.1406 0.8904 0.4329
vn -0.3539 0.7276 0.5878
vn 0.1625 0.8507 0.5000
vn -0.0592 0.7276 0.6835
vn -0.2629 0.5257 0.8090
vn 0.0198 0.5038 0.8636
vn 0.3682 0.8904 0.2675
vn 0.4496 0.7276 0.5182
vn 0.6317 0.7275 0.2675
vn 0.6882 0.5257 0.5000
vn 0.8274 0.5038 0.2480
vn 0.9578 0.2431 -0.1533
vn 0.9432 0.1169 -0.3109
vn 0.8593 0.2724 -0.4329
vn 0.8023 0.1283 -0.5829
vn 0.6772 0.2724 -0.6835
vn 0.5872 0.1169 -0.8010
vn 0.4417 0.2431 -0.8636
vn 0.1502 0.2431 -0.9583
vn -0.0042 0.1169 -0.9931
vn -0.1461 0.2724 -0.9510
vn -0.3065 0.1283 -0.9432
vn -0.4408 0.2724 -0.8553
vn -0.5803 0.1169 -0.8060
vn -0.6848 0.2431 -0.6870
vn -0.8650 0.2431 -0.4390
vn -0.9458 0.1169 -0.3029
vn -0.9496 0.2724 -0.1549
vn -0.9917 0.1283 -0.0000
vn -0.9496 0.2724 0.1549
vn -0.9458 0.1169 0.3029
vn -0.8650 0.2431 0.4390
vn -0.6848 0.2431 0.6870
vn -0.5803 0.1169 0.8060
vn -0.4408 0.2724 0.8553
vn -0.3065 0.1283 0.9432
vn -0.1461 0.2724 0.9510
vn -0.0042 0.1169 0.9931
vn 0.1502 0.2431 0.9583
vn 0.4417 0.2431 0.8636
vn 0.5872 0.1169 0.8010
vn 0.6772 0.2724 0.6835
vn 0.8023 0.1283 0.5829
vn 0.8593 0.2724 0.4329
vn 0.9432 0.1169 0.3109
vn 0.9578 0.2431 0.1533
vn 0.3071 0.1105 -0.9452
vn -0.8041 0.1105 -0.5842
vn -0.8041 0.1105 0.5842
vn 0.3071 0.1105 0.9452
vn 0.9939 0.1105 -0.0000
vn -0.0000 -0.0000 -1.0000
vn 0.3827 -0.0000 -0.9239
vn 0.7071 -0.0000 -0.7071
vn 0.9239 -0.0000 -0.3827
vn 1.0000 -0.0000 -0.0000
vn 0.9239 -0.0000 0.3827
vn 0.7071 -0.0000 0.7071
vn 0.3827 -0.0000 0.9239
vn -0.0000 -0.0000 1.0000
vn -0.3827 -0.0000 0.9239
vn -0.7071 -0.0000 0.7071
vn -0.9239 -0.0000 0.3827
vn -1.0000 -0.0000 -0.0000
vn -0.9239 -0.0000 -0.3827
vn -0.7071 -0.0000 -0.7071
vn 0.0990 -0.9942 -0.0410
vn 0.0758 -0.9942 -0.0758
vn -0.3827 -0.0000 -0.9239
vn -0.0000 -0.9942 0.1072
vn 0.0410 -0.9942 0.0990
vn 0.0410 -0.9942 -0.0990
vn -0.0000 -0.9942 -0.1072
vn -0.0990 -0.9942 -0.0410
vn -0.1072 -0.9942 -0.0000
vn 0.0758 -0.9942 0.0758
vn 0.0990 -0.9942 0.0410
vn -0.0990 -0.9942 0.0410
vn -0.0758 -0.9942 0.0758
vn -0.0410 -0.9942 -0.0990
vn 0.1072 -0.9942 -0.0000
vn -0.0410 -0.9942 0.0990
vn -0.0758 -0.9942 -0.0758
vt 0.806923 0.450871
vt 0.787587 0.535028
vt 0.725710 0.463819
vt 0.548344 0.192817
vt 0.622406 0.237213
vt 0.535562 0.274057
vt 0.223016 0.358995
vt 0.288125 0.302277
vt 0.296329 0.396257
vt 0.280527 0.719755
vt 0.246706 0.640305
vt 0.338621 0.661544
vt 0.641404 0.776540
vt 0.555392 0.784155
vt 0.603994 0.703302
vt 0.529180 0.556838
vt 0.454797 0.545134
vt 0.500043 0.499796
vt 0.564958 0.626880
vt 0.481610 0.616947
vt 0.516407 0.700420
vt 0.399239 0.600803
vt 0.422860 0.685700
vt 0.456427 0.777000
vt 0.360046 0.753417
vt 0.442943 0.470775
vt 0.382931 0.518466
vt 0.314296 0.577354
vt 0.372829 0.435139
vt 0.299388 0.483837
vt 0.222928 0.543973
vt 0.215574 0.445023
vt 0.509999 0.436522
vt 0.446097 0.394185
vt 0.368881 0.347106
vt 0.522223 0.358828
vt 0.453213 0.304030
vt 0.372394 0.249896
vt 0.464228 0.212324
vt 0.563297 0.489712
vt 0.583815 0.415854
vt 0.604727 0.327870
vt 0.640966 0.477329
vt 0.671756 0.394763
vt 0.698265 0.301170
vt 0.762377 0.376899
vt 0.605764 0.553529
vt 0.695904 0.546229
vt 0.652998 0.630649
vt 0.750201 0.626940
vt 0.697990 0.711316
vt 0.622451 0.870095
vt 0.579775 0.999470
vt 0.505220 0.879466
vt 0.421355 0.999900
vt 0.378525 0.859530
vt 0.270720 0.950842
vt 0.269835 0.814611
vt 0.185694 0.730639
vt 0.049463 0.730032
vt 0.140556 0.622042
vt 0.000100 0.579498
vt 0.120365 0.495388
vt 0.000209 0.421077
vt 0.129498 0.378138
vt 0.183359 0.272165
vt 0.141841 0.142414
vt 0.272693 0.195679
vt 0.269752 0.048951
vt 0.386907 0.137338
vt 0.420450 0.000100
vt 0.501239 0.109792
vt 0.618669 0.128269
vt 0.729241 0.048687
vt 0.719019 0.189595
vt 0.857658 0.141456
vt 0.809800 0.280191
vt 0.950688 0.269685
vt 0.871329 0.380417
vt 0.890044 0.497808
vt 0.999900 0.578377
vt 0.862730 0.612198
vt 0.951354 0.729177
vt 0.804620 0.726533
vt 0.858147 0.857278
vt 0.728313 0.816021
vt 0.142720 0.857844
vt 0.049101 0.270603
vt 0.578668 0.000100
vt 0.999579 0.420159
vt 0.730148 0.950274
vt 1.000000 0.687816
vt 1.000000 0.812184
vt 0.937500 0.812184
vt 0.937500 0.687816
vt 0.875000 0.812184
vt 0.875000 0.687816
vt 0.812500 0.812184
vt 0.812500 0.687816
vt 0.750000 0.812184
vt 0.750000 0.687816
vt 0.687500 0.812184
vt 0.687500 0.687816
vt 0.625000 0.812184
vt 0.625000 0.687816
vt 0.562500 0.812184
vt 0.562500 0.687816
vt 0.500000 0.812184
vt 0.500000 0.687816
vt 0.437500 0.812184
vt 0.437500 0.687816
vt 0.375000 0.812184
vt 0.375000 0.687816
vt 0.312500 0.812184
vt 0.312500 0.687816
vt 0.250000 0.812184
vt 0.250000 0.687816
vt 0.187500 0.812184
vt 0.187500 0.687816
vt 0.125000 0.812184
vt 0.125000 0.687816
vt 0.389019 0.574173
vt 0.425835 0.611003
vt 0.390001 0.664678
vt 0.335344 0.610047
vt 0.062500 0.812184
vt 0.062500 0.687816
vt 0.000000 0.812184
vt 0.000000 0.687816
vt 0.473913 0.369068
vt 0.425797 0.388996
vt 0.389949 0.335350
vt 0.461317 0.305778
vt 0.473947 0.630935
vt 0.526017 0.630921
vt 0.538622 0.694221
vt 0.461370 0.694221
vt 0.630863 0.526028
vt 0.630833 0.473941
vt 0.694159 0.461332
vt 0.694168 0.538620
vt 0.388986 0.425834
vt 0.369079 0.473960
vt 0.305755 0.461370
vt 0.335328 0.389971
vt 0.610909 0.425815
vt 0.574092 0.388986
vt 0.609917 0.335317
vt 0.664564 0.389932
vt 0.574130 0.610990
vt 0.610009 0.664632
vt 0.369066 0.526053
vt 0.305763 0.538651
vt 0.525981 0.369056
vt 0.538557 0.305778
vt 0.610957 0.574158
vt 0.664614 0.609993
s 1
f 1/1/1 29/2/2 44/3/3
f 2/4/4 32/5/5 50/6/6
f 3/7/7 35/8/8 53/9/9
f 4/10/10 38/11/11 56/12/12
f 5/13/13 41/14/14 45/15/15
f 47/16/16 54/17/17 6/18/18
f 46/19/19 57/20/20 47/16/16
f 45/15/15 58/21/21 46/19/19
f 47/16/16 57/20/20 54/17/17
f 57/20/20 55/22/22 54/17/17
f 46/19/19 58/21/21 57/20/20
f 58/21/21 59/23/23 57/20/20
f 57/20/20 59/23/23 55/22/22
f 59/23/23 56/12/12 55/22/22
f 45/15/15 41/14/14 58/21/21
f 41/14/14 40/24/24 58/21/21
f 58/21/21 40/24/24 59/23/23
f 40/24/24 39/25/25 59/23/23
f 59/23/23 39/25/25 56/12/12
f 39/25/25 4/10/10 56/12/12
f 54/17/17 51/26/26 6/18/18
f 55/22/22 60/27/27 54/17/17
f 56/12/12 61/28/28 55/22/22
f 54/17/17 60/27/27 51/26/26
f 60/27/27 52/29/29 51/26/26
f 55/22/22 61/28/28 60/27/27
f 61/28/28 62/30/30 60/27/27
f 60/27/27 62/30/30 52/29/29
f 62/30/30 53/9/9 52/29/29
f 56/12/12 38/11/11 61/28/28
f 38/11/11 37/31/31 61/28/28
f 61/28/28 37/31/31 62/30/30
f 37/31/31 36/32/32 62/30/30
f 62/30/30 36/32/32 53/9/9
f 36/32/32 3/7/7 53/9/9
f 51/26/26 48/33/33 6/18/18
f 52/29/29 63/34/34 51/26/26
f 53/9/9 64/35/35 52/29/29
f 51/26/26 63/34/34 48/33/33
f 63/34/34 49/36/36 48/33/33
f 52/29/29 64/35/35 63/34/34
f 64/35/35 65/37/37 63/34/34
f 63/34/34 65/37/37 49/36/36
f 65/37/37 50/6/6 49/36/36
f 53/9/9 35/8/8 64/35/35
f 35/8/8 34/38/38 64/35/35
f 64/35/35 34/38/38 65/37/37
f 34/38/38 33/39/39 65/37/37
f 65/37/37 33/39/39 50/6/6
f 33/39/39 2/4/4 50/6/6
f 48/33/33 42/40/40 6/18/18
f 49/36/36 66/41/41 48/33/33
f 50/6/6 67/42/42 49/36/36
f 48/33/33 66/41/41 42/40/40
f 66/41/41 43/43/43 42/40/40
f 49/36/36 67/42/42 66/41/41
f 67/42/42 68/44/44 66/41/41
f 66/41/41 68/44/44 43/43/43
f 68/44/44 44/3/3 43/43/43
f 50/6/6 32/5/5 67/42/42
f 32/5/5 31/45/45 67/42/42
f 67/42/42 31/45/45 68/44/44
f 31/45/45 30/46/46 68/44/44
f 68/44/44 30/46/46 44/3/3
f 30/46/46 1/1/1 44/3/3
f 42/40/40 47/16/16 6/18/18
f 43/43/43 69/47/47 42/40/40
f 44/3/3 70/48/48 43/43/43
f 42/40/40 69/47/47 47/16/16
f 69/47/47 46/19/19 47/16/16
f 43/43/43 70/48/48 69/47/47
f 70/48/48 71/49/49 69/47/47
f 69/47/47 71/49/49 46/19/19
f 71/49/49 45/15/15 46/19/19
f 44/3/3 29/2/2 70/48/48
f 29/2/2 28/50/50 70/48/48
f 70/48/48 28/50/50 71/49/49
f 28/50/50 27/51/51 71/49/49
f 71/49/49 27/51/51 45/15/15
f 27/51/51 5/13/13 45/15/15
f 10/52/52 41/14/14 5/13/13
f 9/53/53 72/54/54 10/52/52
f 10/52/52 72/54/54 41/14/14
f 72/54/54 40/24/24 41/14/14
f 9/53/53 73/55/55 72/54/54
f 73/55/55 74/56/56 72/54/54
f 72/54/54 74/56/56 40/24/24
f 74/56/56 39/25/25 40/24/24
f 73/55/55 24/57/57 74/56/56
f 24/57/57 23/58/58 74/56/56
f 74/56/56 23/58/58 39/25/25
f 23/58/58 4/10/10 39/25/25
f 26/59/59 38/11/11 4/10/10
f 25/60/60 75/61/61 26/59/59
f 26/59/59 75/61/61 38/11/11
f 75/61/61 37/31/31 38/11/11
f 25/60/60 76/62/62 75/61/61
f 76/62/62 77/63/63 75/61/61
f 75/61/61 77/63/63 37/31/31
f 77/63/63 36/32/32 37/31/31
f 76/62/62 20/64/64 77/63/63
f 20/64/64 19/65/65 77/63/63
f 77/63/63 19/65/65 36/32/32
f 19/65/65 3/7/7 36/32/32
f 22/66/66 35/8/8 3/7/7
f 21/67/67 78/68/68 22/66/66
f 22/66/66 78/68/68 35/8/8
f 78/68/68 34/38/38 35/8/8
f 21/67/67 79/69/69 78/68/68
f 79/69/69 80/70/70 78/68/68
f 78/68/68 80/70/70 34/38/38
f 80/70/70 33/39/39 34/38/38
f 79/69/69 16/71/71 80/70/70
f 16/71/71 15/72/72 80/70/70
f 80/70/70 15/72/72 33/39/39
f 15/72/72 2/4/4 33/39/39
f 18/73/73 32/5/5 2/4/4
f 17/74/74 81/75/75 18/73/73
f 18/73/73 81/75/75 32/5/5
f 81/75/75 31/45/45 32/5/5
f 17/74/74 82/76/76 81/75/75
f 82/76/76 83/77/77 81/75/75
f 81/75/75 83/77/77 31/45/45
f 83/77/77 30/46/46 31/45/45
f 82/76/76 12/78/78 83/77/77
f 12/78/78 11/79/79 83/77/77
f 83/77/77 11/79/79 30/46/46
f 11/79/79 1/1/1 30/46/46
f 14/80/80 29/2/2 1/1/1
f 13/81/81 84/82/82 14/80/80
f 14/80/80 84/82/82 29/2/2
f 84/82/82 28/50/50 29/2/2
f 13/81/81 85/83/83 84/82/82
f 85/83/83 86/84/84 84/82/82
f 84/82/82 86/84/84 28/50/50
f 86/84/84 27/51/51 28/50/50
f 85/83/83 8/85/85 86/84/84
f 8/85/85 7/86/86 86/84/84
f 86/84/84 7/86/86 27/51/51
f 7/86/86 5/13/13 27/51/51
f 23/58/58 26/59/59 4/10/10
f 24/57/57 87/87/87 23/58/58
f 23/58/58 87/87/87 26/59/59
f 87/87/87 25/60/60 26/59/59
f 19/65/65 22/66/66 3/7/7
f 20/64/64 88/88/88 19/65/65
f 19/65/65 88/88/88 22/66/66
f 88/88/88 21/67/67 22/66/66
f 15/72/72 18/73/73 2/4/4
f 16/71/71 89/89/89 15/72/72
f 15/72/72 89/89/89 18/73/73
f 89/89/89 17/74/74 18/73/73
f 11/79/79 14/80/80 1/1/1
f 12/78/78 90/90/90 11/79/79
f 11/79/79 90/90/90 14/80/80
f 90/90/90 13/81/81 14/80/80
f 7/86/86 10/52/52 5/13/13
f 8/85/85 91/91/91 7/86/86
f 7/86/86 91/91/91 10/52/52
f 91/91/91 9/53/53 10/52/52
f 92/92/92 93/93/92 95/94/93 94/95/93
f 94/95/93 95/94/93 97/96/94 96/97/94
f 96/97/94 97/96/94 99/98/95 98/99/95
f 98/99/95 99/98/95 101/100/96 100/101/96
f 100/101/96 101/100/96 103/102/97 102/103/97
f 102/103/97 103/102/97 105/104/98 104/105/98
f 104/105/98 105/104/98 107/106/99 106/107/99
f 106/107/99 107/106/99 109/108/100 108/109/100
f 108/109/100 109/108/100 111/110/101 110/111/101
f 110/111/101 111/110/101 113/112/102 112/113/102
f 112/113/102 113/112/102 115/114/103 114/115/103
f 114/115/103 115/114/103 117/116/104 116/117/104
f 116/117/104 117/116/104 119/118/105 118/119/105
f 118/119/105 119/118/105 121/120/106 120/121/106
f 99/122/107 97/123/108 126/124/108 127/125/107
f 120/121/106 121/120/106 123/126/109 122/127/109
f 122/127/109 123/126/109 93/128/92 92/129/92
f 109/130/110 107/131/111 131/132/111 132/133/110
f 95/134/112 93/135/113 125/136/113 124/137/112
f 119/138/114 117/139/115 136/140/115 137/141/114
f 105/142/116 103/143/117 129/144/117 130/145/116
f 115/146/118 113/147/119 134/148/119 135/149/118
f 93/135/113 123/150/120 139/151/120 125/136/113
f 101/152/121 99/122/107 127/125/107 128/153/121
f 111/154/122 109/130/110 132/133/110 133/155/122
f 121/156/123 119/138/114 137/141/114 138/157/123
f 97/123/108 95/134/112 124/137/112 126/124/108
f 107/131/111 105/142/116 130/145/116 131/132/111
f 117/139/115 115/146/118 135/149/118 136/140/115
f 103/143/117 101/152/121 128/153/121 129/144/117
f 113/147/119 111/154/122 133/155/122 134/148/119
f 123/150/120 121/156/123 138/157/123 139/151/120
