# Blender 4.1.0
# www.blender.org
o Right_Trigger
v 0.160223 0.131801 0.126159
v 0.132872 0.137340 0.120595
v -0.032299 0.135425 0.086139
v -0.125846 0.121488 0.066545
v 0.020119 0.138171 0.097087
v 0.077800 0.139641 0.109125
v 0.177179 0.072700 0.132738
v -0.145564 0.107936 0.062349
v 0.173554 0.120423 0.129160
v 0.175802 0.094650 0.131167
v 0.175407 0.036231 0.134304
v 0.170304 -0.007968 0.135441
v 0.159022 -0.041521 0.134398
v 0.143496 -0.062814 0.131583
v 0.108562 -0.088053 0.123993
v 0.073043 -0.101433 0.115596
v 0.018932 -0.115074 0.102428
v -0.068706 -0.122786 0.080306
v -0.145655 -0.116480 0.060157
v -0.157378 0.080979 0.059719
v -0.159133 -0.101437 0.058225
v -0.158722 -0.035744 0.058717
v -0.157871 0.052216 0.059438
v 0.153810 0.131648 0.003341
v 0.123662 0.136591 -0.055616
v -0.031223 0.131166 -0.141633
v -0.114593 0.118299 -0.104931
v 0.019631 0.135598 -0.137738
v 0.076681 0.136835 -0.109346
v 0.167342 0.071251 0.052991
v -0.132072 0.106659 -0.075350
v 0.164607 0.118019 0.021453
v 0.166034 0.093132 0.042745
v 0.169670 0.036896 0.065019
v 0.166297 -0.004565 0.057468
v 0.157918 -0.038037 0.030372
v 0.142778 -0.059570 0.000383
v 0.108253 -0.084214 -0.045032
v 0.072286 -0.098266 -0.069688
v 0.018619 -0.112060 -0.087653
v -0.068502 -0.120476 -0.082852
v -0.136924 -0.117949 -0.025621
v -0.142861 0.082655 -0.064255
v -0.147543 -0.105094 -0.020818
v -0.147769 -0.032977 -0.028119
v -0.146855 0.051768 -0.049259
v -0.101798 -0.121881 -0.062937
v -0.103380 -0.122678 0.071378
v -0.026645 -0.118070 -0.090849
v -0.027591 -0.121001 0.090786
v -0.148154 -0.070567 -0.023051
v -0.159195 -0.073018 0.058388
v -0.147174 0.015364 -0.038298
v -0.158911 0.014836 0.058990
v -0.077767 0.125558 -0.128367
v -0.080444 0.128512 0.076056
v 0.154088 0.129504 -0.007121
v 0.122854 0.132863 -0.066329
v -0.034610 0.125351 -0.145754
v -0.114045 0.114393 -0.110481
v 0.021276 0.130221 -0.142618
v 0.076480 0.132250 -0.115529
v -0.076241 0.120337 -0.134340
v 0.154605 0.123722 -0.011782
v 0.122396 0.127169 -0.071023
v -0.035039 0.119517 -0.144881
v -0.113090 0.107637 -0.111261
v 0.021585 0.124232 -0.142795
v 0.076119 0.126630 -0.116992
v -0.075118 0.114931 -0.134196
v 0.154292 0.118281 -0.011976
v 0.121573 0.119235 -0.068922
v -0.034488 0.112652 -0.140531
v -0.113137 0.101308 -0.108853
v 0.021418 0.116688 -0.137566
v 0.076447 0.120221 -0.113877
v -0.074115 0.109047 -0.131765
v 0.155377 0.090941 0.009734
v 0.121754 0.090688 -0.043504
v -0.033693 0.084419 -0.113392
v -0.112823 0.078450 -0.096882
v 0.019764 0.086099 -0.104444
v 0.076369 0.089159 -0.082946
v -0.074577 0.081509 -0.111659
v 0.155735 0.069074 0.018444
v 0.122264 0.066721 -0.031469
v -0.033693 0.056613 -0.095491
v -0.112313 0.051422 -0.083757
v 0.020274 0.059071 -0.087306
v 0.076369 0.063661 -0.067917
v -0.073557 0.054482 -0.095351
v 0.156976 0.037432 0.024745
v 0.122774 0.034594 -0.024830
v -0.033693 0.024834 -0.085777
v -0.113173 0.018446 -0.074069
v 0.019764 0.026945 -0.077442
v 0.075349 0.030004 -0.060007
v -0.073302 0.020682 -0.085952
v 0.157404 -0.002936 0.025091
v 0.122930 -0.006625 -0.023433
v -0.031990 -0.018862 -0.079956
v -0.112784 -0.026232 -0.067415
v 0.020527 -0.014298 -0.072700
v 0.074532 -0.010756 -0.057512
v -0.072739 -0.021884 -0.080108
v 0.156475 -0.036760 0.020038
v 0.123470 -0.041960 -0.028502
v -0.030288 -0.053478 -0.081339
v -0.112382 -0.061508 -0.064422
v 0.020205 -0.050034 -0.076494
v 0.075025 -0.045784 -0.061822
v -0.073711 -0.057258 -0.078424
v 0.142376 -0.057647 -0.007930
v 0.107199 -0.081593 -0.052159
v 0.071940 -0.095703 -0.074958
v 0.018758 -0.109113 -0.092840
v -0.068156 -0.117642 -0.086774
v -0.136657 -0.115279 -0.034060
v -0.101405 -0.119074 -0.069694
v -0.026169 -0.115400 -0.095244
v 0.141741 -0.055519 -0.010141
v 0.106114 -0.078819 -0.054170
v 0.071164 -0.092343 -0.076989
v 0.018450 -0.104332 -0.094918
v -0.067736 -0.113787 -0.089358
v -0.136759 -0.112357 -0.037251
v -0.101643 -0.114552 -0.073255
v -0.025938 -0.110068 -0.097602
v 0.140656 -0.052270 -0.011432
v 0.104704 -0.075204 -0.054558
v 0.070721 -0.088112 -0.077236
v 0.017993 -0.099343 -0.094370
v -0.067332 -0.109418 -0.090535
v -0.136963 -0.108172 -0.039412
v -0.101779 -0.110029 -0.074449
v -0.025988 -0.105112 -0.097676
vn -0.9325 -0.3428 -0.1141
vn -0.9090 -0.2963 -0.2930
vn -0.5051 -0.8544 -0.1220
vn -0.4591 -0.8875 -0.0390
vn 0.9372 0.3387 -0.0830
vn 0.9526 0.2472 -0.1773
vn 0.5561 0.8281 -0.0701
vn 0.5350 0.8439 -0.0402
vn -0.0953 0.9953 -0.0161
vn -0.1092 0.8839 -0.4548
vn -0.3090 0.8746 -0.3737
vn -0.1506 0.9884 -0.0198
vn -0.9690 0.2237 -0.1046
vn -0.9205 0.0482 -0.3876
vn -0.9109 -0.0967 -0.4011
vn -0.9937 0.0255 -0.1093
vn 0.9069 -0.4203 -0.0306
vn 0.9372 -0.3278 -0.1191
vn 0.9821 -0.1224 -0.1431
vn 0.9818 -0.1824 -0.0526
vn -0.0402 0.9991 -0.0131
vn 0.0612 0.9018 -0.4278
vn 0.9939 0.0081 -0.1099
vn 0.9780 -0.0216 -0.2076
vn 0.9798 -0.0438 -0.1952
vn 0.9939 0.0289 -0.1063
vn -0.2143 -0.9542 -0.2088
vn -0.0453 -0.9989 -0.0073
vn 0.7264 -0.6869 -0.0222
vn 0.7749 -0.6232 -0.1057
vn 0.1258 0.9920 -0.0117
vn 0.3259 0.9322 -0.1576
vn 0.2306 0.9284 -0.2913
vn 0.0093 0.9999 -0.0107
vn 0.4978 -0.8670 -0.0205
vn 0.5827 -0.7949 -0.1691
vn -0.9059 -0.0794 -0.4160
vn -0.9932 -0.0028 -0.1161
vn 0.3174 -0.9481 -0.0183
vn 0.3988 -0.8878 -0.2299
vn -0.7710 0.6317 -0.0800
vn -0.8243 0.5032 -0.2596
vn 0.2007 -0.9795 -0.0162
vn 0.2295 -0.9367 -0.2643
vn -0.9920 -0.0024 -0.1260
vn -0.9094 -0.0499 -0.4129
vn -0.9193 -0.0101 -0.3933
vn -0.9909 -0.0061 -0.1346
vn 0.0368 -0.9992 -0.0130
vn -0.0744 -0.9531 -0.2932
vn 0.0618 -0.9513 -0.3019
vn 0.0974 -0.9951 -0.0154
vn 0.9949 -0.0537 -0.0857
vn 0.9839 -0.0386 -0.1748
vn -0.3726 0.9271 -0.0401
vn -0.5719 0.7708 -0.2807
vn 0.4897 0.5091 -0.7078
vn 0.2105 0.3772 -0.9019
vn -0.1424 0.3121 -0.9393
vn 0.7847 0.5609 -0.2640
vn 0.6655 0.5829 -0.4662
vn -0.4067 0.3141 -0.8578
vn -0.7139 0.2652 -0.6480
vn 0.9136 0.1232 -0.3876
vn 0.7812 0.0614 -0.6213
vn -0.0797 -0.3021 -0.9499
vn -0.3425 -0.2498 -0.9057
vn 0.5561 -0.0919 -0.8260
vn -0.6759 -0.1832 -0.7139
vn 0.2458 -0.2416 -0.9387
vn -0.0054 -0.6000 -0.8000
vn -0.2361 -0.5077 -0.8286
vn 0.7273 -0.3602 -0.5842
vn 0.4975 -0.5031 -0.7067
vn -0.6260 -0.3305 -0.7063
vn 0.2254 -0.6079 -0.7613
vn 0.8846 -0.2140 -0.4144
vn 0.7109 -0.3917 -0.5841
vn 0.4606 -0.5451 -0.7005
vn -0.1578 -0.5441 -0.8240
vn -0.5135 -0.4099 -0.7538
vn 0.2274 -0.6168 -0.7535
vn 0.0582 -0.6135 -0.7875
vn 0.8912 -0.2160 -0.3990
vn 0.2445 -0.3978 -0.8843
vn 0.0881 -0.4151 -0.9055
vn 0.8989 -0.1077 -0.4246
vn 0.7324 -0.2166 -0.6455
vn -0.1212 -0.3959 -0.9102
vn 0.4809 -0.3332 -0.8110
vn -0.4997 -0.3083 -0.8095
vn 0.0870 -0.2088 -0.9741
vn -0.1279 -0.2064 -0.9701
vn 0.7257 -0.0796 -0.6834
vn 0.4621 -0.1418 -0.8754
vn -0.5142 -0.1851 -0.8375
vn 0.2311 -0.1883 -0.9545
vn 0.9027 -0.0345 -0.4288
vn 0.2051 -0.0044 -0.9787
vn 0.0619 -0.0450 -0.9971
vn 0.9094 0.0077 -0.4159
vn 0.7124 0.0365 -0.7009
vn -0.1535 -0.0854 -0.9845
vn 0.4334 0.0258 -0.9008
vn -0.5358 -0.1021 -0.8381
vn 0.3979 0.2152 -0.8918
vn 0.1646 0.2094 -0.9639
vn -0.0031 0.1623 -0.9867
vn 0.9308 -0.1224 -0.3444
vn 0.6877 0.1517 -0.7099
vn -0.2299 0.0791 -0.9700
vn -0.5852 -0.0022 -0.8109
vn -0.4192 -0.7156 -0.5587
vn -0.2069 -0.6894 -0.6942
vn -0.6610 -0.6525 -0.3706
vn 0.2578 -0.6437 -0.7206
vn 0.4922 -0.5909 -0.6392
vn 0.7044 -0.4912 -0.5124
vn 0.8637 -0.3680 -0.3443
vn 0.0124 -0.6644 -0.7473
vn 0.4570 -0.1506 -0.8766
vn 0.6804 -0.0941 -0.7268
vn -0.0342 -0.2409 -0.9700
vn 0.2167 -0.1758 -0.9603
vn -0.7517 -0.4008 -0.5237
vn -0.5264 -0.4078 -0.7460
vn 0.8444 -0.0341 -0.5347
vn -0.2742 -0.3448 -0.8977
vn -0.0464 0.1263 -0.9909
vn 0.1597 0.1858 -0.9695
vn -0.7754 -0.1360 -0.6167
vn -0.5453 -0.0908 -0.8333
vn 0.3823 0.1828 -0.9058
vn 0.5938 0.1750 -0.7854
vn 0.7855 0.1949 -0.5873
vn -0.2697 0.0105 -0.9629
vt 0.372037 0.005342
vt 0.405810 0.182023
vt 0.431426 0.187717
vt 0.429665 0.000100
vt 0.567806 0.999900
vt 0.504871 0.743892
vt 0.472288 0.723811
vt 0.516614 0.999641
vt 0.067046 0.764879
vt 0.338427 0.534875
vt 0.312250 0.511433
vt 0.023424 0.656366
vt 0.002896 0.403227
vt 0.250020 0.436850
vt 0.246764 0.389176
vt 0.016276 0.323847
vt 0.987954 0.633455
vt 0.717659 0.558287
vt 0.735508 0.645725
vt 0.937677 0.753711
vt 0.150048 0.862063
vt 0.363201 0.561572
vt 0.715986 0.953029
vt 0.612643 0.756475
vt 0.562091 0.760957
vt 0.648985 0.979286
vt 0.463933 0.244530
vt 0.571340 0.000100
vt 0.999554 0.547718
vt 0.684499 0.501118
vt 0.434709 0.990576
vt 0.430687 0.653712
vt 0.394776 0.597971
vt 0.278261 0.945356
vt 0.986498 0.403905
vt 0.630233 0.436787
vt 0.262189 0.329881
vt 0.058133 0.214093
vt 0.948013 0.300421
vt 0.594407 0.396320
vt 0.000100 0.480801
vt 0.257903 0.470383
vt 0.858064 0.160532
vt 0.552973 0.349476
vt 0.173908 0.078968
vt 0.305609 0.254679
vt 0.354973 0.208092
vt 0.285113 0.021453
vt 0.664527 0.023760
vt 0.488236 0.281409
vt 0.519707 0.314777
vt 0.760615 0.076405
vt 0.825438 0.877590
vt 0.689557 0.730383
vt 0.001553 0.538057
vt 0.285423 0.490500
vt 0.397136 0.592068
vt 0.367194 0.557906
vt 0.340249 0.529525
vt 0.472207 0.709541
vt 0.431572 0.641728
vt 0.317722 0.508480
vt 0.290477 0.488028
vt 0.477187 0.701253
vt 0.434740 0.634958
vt 0.342663 0.525984
vt 0.320582 0.505464
vt 0.400177 0.588342
vt 0.293639 0.483269
vt 0.370356 0.554838
vt 0.346471 0.521476
vt 0.323359 0.501354
vt 0.442365 0.631289
vt 0.405582 0.585918
vt 0.294684 0.477475
vt 0.375639 0.550508
vt 0.483331 0.697687
vt 0.485852 0.628031
vt 0.443603 0.573012
vt 0.334083 0.474289
vt 0.298698 0.453006
vt 0.404490 0.527549
vt 0.365893 0.495775
vt 0.535664 0.703627
vt 0.428854 0.507266
vt 0.384896 0.469242
vt 0.574862 0.694697
vt 0.519782 0.617192
vt 0.348491 0.445079
vt 0.472412 0.557822
vt 0.307216 0.419352
vt 0.405963 0.439837
vt 0.368820 0.409261
vt 0.559101 0.591175
vt 0.504827 0.530243
vt 0.323718 0.376871
vt 0.454261 0.480251
vt 0.626810 0.666413
vt 0.485864 0.443805
vt 0.438514 0.399862
vt 0.676769 0.608940
vt 0.600590 0.545781
vt 0.400282 0.365184
vt 0.538499 0.490773
vt 0.359134 0.323360
vt 0.563109 0.454076
vt 0.510478 0.409612
vt 0.465818 0.369090
vt 0.699802 0.551997
vt 0.626023 0.501315
vt 0.428798 0.329856
vt 0.393972 0.286194
vt 0.460871 0.252699
vt 0.485634 0.286077
vt 0.428439 0.199527
vt 0.548048 0.353539
vt 0.588321 0.398935
vt 0.620724 0.437815
vt 0.672081 0.500239
vt 0.516542 0.319217
vt 0.584546 0.401323
vt 0.616672 0.439561
vt 0.512744 0.324024
vt 0.544127 0.357355
vt 0.425455 0.204526
vt 0.456764 0.258010
vt 0.667760 0.501547
vt 0.482887 0.290399
vt 0.509270 0.327910
vt 0.540641 0.361311
vt 0.420942 0.208943
vt 0.452625 0.261655
vt 0.581480 0.404901
vt 0.613007 0.442585
vt 0.663454 0.504493
vt 0.479881 0.294357
s 1
f 21/1/1 44/2/2 42/3/3 19/4/4
f 9/5/5 32/6/6 24/7/7 1/8/8
f 3/9/9 26/10/10 55/11/11 56/12/12
f 20/13/13 43/14/14 46/15/15 23/16/16
f 13/17/17 36/18/18 35/19/19 12/20/20
f 5/21/21 28/22/22 26/10/10 3/9/9
f 7/23/23 30/24/24 33/25/25 10/26/26
f 19/4/4 42/3/3 47/27/27 48/28/28
f 14/29/29 37/30/30 36/18/18 13/17/17
f 2/31/31 25/32/32 29/33/33 6/34/34
f 15/35/35 38/36/36 37/30/30 14/29/29
f 6/34/34 29/33/33 28/22/22 5/21/21
f 23/16/16 46/15/15 53/37/37 54/38/38
f 1/8/8 24/7/7 25/32/32 2/31/31
f 16/39/39 39/40/40 38/36/36 15/35/35
f 8/41/41 31/42/42 43/14/14 20/13/13
f 17/43/43 40/44/44 39/40/40 16/39/39
f 10/26/26 33/25/25 32/6/6 9/5/5
f 22/45/45 45/46/46 51/47/47 52/48/48
f 18/49/49 41/50/50 49/51/51 50/52/52
f 11/53/53 34/54/54 30/24/24 7/23/23
f 12/20/20 35/19/19 34/54/54 11/53/53
f 4/55/55 27/56/56 31/42/42 8/41/41
f 47/27/27 41/50/50 18/49/49 48/28/28
f 49/51/51 40/44/44 17/43/43 50/52/52
f 51/47/47 44/2/2 21/1/1 52/48/48
f 53/37/37 45/46/46 22/45/45 54/38/38
f 55/11/11 27/56/56 4/55/55 56/12/12
f 29/33/33 62/57/57 61/58/58 28/22/22
f 28/22/22 61/58/58 59/59/59 26/10/10
f 24/7/7 57/60/60 58/61/61 25/32/32
f 26/10/10 59/59/59 63/62/62 55/11/11
f 25/32/32 58/61/61 62/57/57 29/33/33
f 55/11/11 63/62/62 60/63/63 27/56/56
f 57/60/60 64/64/64 65/65/65 58/61/61
f 59/59/59 66/66/66 70/67/67 63/62/62
f 58/61/61 65/65/65 69/68/68 62/57/57
f 63/62/62 70/67/67 67/69/69 60/63/63
f 62/57/57 69/68/68 68/70/70 61/58/58
f 61/58/58 68/70/70 66/66/66 59/59/59
f 66/66/66 73/71/71 77/72/72 70/67/67
f 65/65/65 72/73/73 76/74/74 69/68/68
f 70/67/67 77/72/72 74/75/75 67/69/69
f 69/68/68 76/74/74 75/76/76 68/70/70
f 68/70/70 75/76/76 73/71/71 66/66/66
f 64/64/64 71/77/77 72/73/73 65/65/65
f 72/73/73 79/78/78 83/79/79 76/74/74
f 77/72/72 84/80/80 81/81/81 74/75/75
f 76/74/74 83/79/79 82/82/82 75/76/76
f 75/76/76 82/82/82 80/83/83 73/71/71
f 71/77/77 78/84/84 79/78/78 72/73/73
f 73/71/71 80/83/83 84/80/80 77/72/72
f 43/14/14 74/75/75 81/81/81
f 74/75/75 31/42/42 67/69/69
f 67/69/69 31/42/42 60/63/63
f 31/42/42 27/56/56 60/63/63
f 32/6/6 33/25/25 78/84/84 71/77/77
f 24/7/7 32/6/6 57/60/60
f 57/60/60 32/6/6 64/64/64
f 71/77/77 64/64/64 32/6/6
f 82/82/82 89/85/85 87/86/86 80/83/83
f 78/84/84 85/87/87 86/88/88 79/78/78
f 80/83/83 87/86/86 91/89/89 84/80/80
f 79/78/78 86/88/88 90/90/90 83/79/79
f 84/80/80 91/89/89 88/91/91 81/81/81
f 83/79/79 90/90/90 89/85/85 82/82/82
f 33/25/25 30/24/24 85/87/87 78/84/84
f 46/15/15 43/14/14 81/81/81 88/91/91
f 87/86/86 94/92/92 98/93/93 91/89/89
f 86/88/88 93/94/94 97/95/95 90/90/90
f 91/89/89 98/93/93 95/96/96 88/91/91
f 90/90/90 97/95/95 96/97/97 89/85/85
f 89/85/85 96/97/97 94/92/92 87/86/86
f 85/87/87 92/98/98 93/94/94 86/88/88
f 53/37/37 46/15/15 88/91/91 95/96/96
f 30/24/24 34/54/54 92/98/98 85/87/87
f 96/97/97 103/99/99 101/100/100 94/92/92
f 92/98/98 99/101/101 100/102/102 93/94/94
f 94/92/92 101/100/100 105/103/103 98/93/93
f 93/94/94 100/102/102 104/104/104 97/95/95
f 98/93/93 105/103/103 102/105/105 95/96/96
f 97/95/95 104/104/104 103/99/99 96/97/97
f 34/54/54 35/19/19 99/101/101 92/98/98
f 45/46/46 53/37/37 95/96/96 102/105/105
f 104/104/104 111/106/106 110/107/107 103/99/99
f 103/99/99 110/107/107 108/108/108 101/100/100
f 99/101/101 106/109/109 107/110/110 100/102/102
f 101/100/100 108/108/108 112/111/111 105/103/103
f 100/102/102 107/110/110 111/106/106 104/104/104
f 105/103/103 112/111/111 109/112/112 102/105/105
f 51/47/47 45/46/46 102/105/105 109/112/112
f 35/19/19 36/18/18 106/109/109 99/101/101
f 47/27/27 119/113/113 117/114/114 41/50/50
f 42/3/3 118/115/115 119/113/113 47/27/27
f 40/44/44 116/116/116 115/117/117 39/40/40
f 38/36/36 114/118/118 113/119/119 37/30/30
f 49/51/51 120/120/120 116/116/116 40/44/44
f 41/50/50 117/114/114 120/120/120 49/51/51
f 39/40/40 115/117/117 114/118/118 38/36/36
f 115/117/117 123/121/121 122/122/122 114/118/118
f 120/120/120 128/123/123 124/124/124 116/116/116
f 118/115/115 126/125/125 127/126/126 119/113/113
f 116/116/116 124/124/124 123/121/121 115/117/117
f 114/118/118 122/122/122 121/127/127 113/119/119
f 119/113/113 127/126/126 125/128/128 117/114/114
f 117/114/114 125/128/128 128/123/123 120/120/120
f 37/30/30 113/119/119 106/109/109 36/18/18
f 113/119/119 121/127/127 106/109/109
f 42/3/3 44/2/2 118/115/115
f 118/115/115 44/2/2 126/125/125
f 128/123/123 136/129/129 132/130/130 124/124/124
f 126/125/125 134/131/131 135/132/132 127/126/126
f 124/124/124 132/130/130 131/133/133 123/121/121
f 122/122/122 130/134/134 129/135/135 121/127/127
f 127/126/126 135/132/132 133/136/136 125/128/128
f 125/128/128 133/136/136 136/129/129 128/123/123
f 123/121/121 131/133/133 130/134/134 122/122/122
f 126/125/125 44/2/2 134/131/131
f 106/109/109 121/127/127 129/135/135
f 106/109/109 129/135/135 107/110/110
f 129/135/135 130/134/134 107/110/110
f 111/106/106 107/110/110 130/134/134 131/133/133
f 110/107/107 111/106/106 131/133/133 132/130/130
f 108/108/108 110/107/107 132/130/130 136/129/129
f 112/111/111 108/108/108 136/129/129 133/136/136
f 109/112/112 112/111/111 133/136/136 135/132/132
f 135/132/132 134/131/131 109/112/112
f 51/47/47 109/112/112 134/131/131 44/2/2
f 43/14/14 31/42/42 74/75/75
