# Blender 4.1.0
# www.blender.org
o Start_Button
v 0.000000 0.209143 -0.258877
v 0.000000 0.233335 -0.258877
v 0.014877 0.209143 -0.255917
v 0.014877 0.233335 -0.255917
v 0.027490 0.209143 -0.247490
v 0.027490 0.233335 -0.247490
v 0.035917 0.209143 -0.234877
v 0.035917 0.233335 -0.234877
v 0.038877 0.209143 -0.220000
v 0.038877 0.233335 -0.220000
v 0.035917 0.209143 -0.205123
v 0.035917 0.233335 -0.205123
v 0.027490 0.209143 -0.192510
v 0.027490 0.233335 -0.192510
v 0.014877 0.209143 -0.184083
v 0.014877 0.233335 -0.184083
v -0.000000 0.209143 -0.181124
v -0.000000 0.233335 -0.181124
v -0.014877 0.209143 -0.184083
v -0.014877 0.233335 -0.184083
v -0.027490 0.209143 -0.192510
v -0.027490 0.233335 -0.192510
v -0.035917 0.209143 -0.205123
v -0.035917 0.233335 -0.205123
v -0.038877 0.209143 -0.220000
v -0.038877 0.233335 -0.220000
v -0.035917 0.209143 -0.234877
v -0.035917 0.233335 -0.234877
v -0.027490 0.209143 -0.247490
v -0.027490 0.233335 -0.247490
v -0.014877 0.209143 -0.255917
v -0.014877 0.233335 -0.255917
v 0.013868 0.236653 -0.253480
v 0.000000 0.236653 -0.256238
v 0.025624 0.236653 -0.245624
v 0.033480 0.236653 -0.233868
v 0.036238 0.236653 -0.220000
v 0.033480 0.236653 -0.206132
v 0.025624 0.236653 -0.194376
v 0.013868 0.236653 -0.186520
v -0.000000 0.236653 -0.183762
v -0.013868 0.236653 -0.186520
v -0.025624 0.236653 -0.194376
v -0.033480 0.236653 -0.206132
v -0.036238 0.236653 -0.220000
v -0.033480 0.236653 -0.233868
v -0.025624 0.236653 -0.245624
v -0.013868 0.236653 -0.253480
v 0.011763 0.239142 -0.248398
v 0.000000 0.239142 -0.250737
v 0.021735 0.239142 -0.241735
v 0.028398 0.239142 -0.231763
v 0.030737 0.239142 -0.220000
v 0.028398 0.239142 -0.208237
v 0.021735 0.239142 -0.198265
v 0.011763 0.239142 -0.191602
v -0.000000 0.239142 -0.189263
v -0.011763 0.239142 -0.191602
v -0.021735 0.239142 -0.198265
v -0.028398 0.239142 -0.208237
v -0.030737 0.239142 -0.220000
v -0.028398 0.239142 -0.231763
v -0.021735 0.239142 -0.241735
v -0.011763 0.239142 -0.248398
v 0.000000 0.240405 -0.220000
vn -0.0000 -0.0000 -1.0000
vn -0.0000 0.3175 -0.9483
vn 0.3827 -0.0000 -0.9239
vn 0.3629 0.3175 -0.8761
vn 0.7071 -0.0000 -0.7071
vn 0.6705 0.3175 -0.6705
vn 0.9239 -0.0000 -0.3827
vn 0.8761 0.3175 -0.3629
vn 1.0000 -0.0000 -0.0000
vn 0.9483 0.3175 -0.0000
vn 0.9239 -0.0000 0.3827
vn 0.8761 0.3175 0.3629
vn 0.7071 -0.0000 0.7071
vn 0.6705 0.3175 0.6705
vn 0.3827 -0.0000 0.9239
vn 0.3629 0.3175 0.8761
vn -0.0000 -0.0000 1.0000
vn -0.0000 0.3175 0.9483
vn -0.3827 -0.0000 0.9239
vn -0.3629 0.3175 0.8761
vn -0.7071 -0.0000 0.7071
vn -0.6705 0.3175 0.6705
vn -0.9239 -0.0000 0.3827
vn -0.8761 0.3175 0.3629
vn -1.0000 -0.0000 -0.0000
vn -0.9483 0.3175 -0.0000
vn -0.9239 -0.0000 -0.3827
vn -0.8761 0.3175 -0.3629
vn -0.7071 -0.0000 -0.7071
vn -0.6705 0.3175 -0.6705
vn -0.3827 -0.0000 -0.9239
vn -0.3629 0.3175 -0.8761
vn 0.2420 0.7748 -0.5841
vn -0.0000 0.7748 -0.6323
vn 0.4471 0.7748 -0.4471
vn 0.5841 0.7748 -0.2420
vn 0.6323 0.7748 -0.0000
vn 0.5841 0.7748 0.2420
vn 0.4471 0.7748 0.4471
vn 0.2420 0.7748 0.5841
vn -0.0000 0.7748 0.6323
vn -0.2420 0.7748 0.5841
vn -0.4471 0.7748 0.4471
vn -0.5841 0.7748 0.2420
vn -0.6323 0.7748 -0.0000
vn -0.5841 0.7748 -0.2420
vn -0.4471 0.7748 -0.4471
vn -0.2420 0.7748 -0.5841
vn 0.0969 0.9674 -0.2339
vn -0.0000 0.9674 -0.2532
vn 0.1790 0.9674 -0.1790
vn 0.2339 0.9674 -0.0969
vn 0.2532 0.9674 -0.0000
vn 0.2339 0.9674 0.0969
vn 0.1790 0.9674 0.1790
vn 0.0969 0.9674 0.2339
vn -0.0000 0.9674 0.2532
vn -0.0969 0.9674 0.2339
vn -0.1790 0.9674 0.1790
vn -0.2339 0.9674 0.0969
vn -0.2532 0.9674 -0.0000
vn -0.2339 0.9674 -0.0969
vn -0.1790 0.9674 -0.1790
vn -0.0969 0.9674 -0.2339
vn -0.0000 1.0000 -0.0000
vt 0.075838 0.217531
vt 0.276058 0.357000
vt 0.238685 0.453749
vt 0.000100 0.401521
vt 0.240464 0.557461
vt 0.000379 0.600275
vt 0.281783 0.652506
vt 0.076610 0.783819
vt 0.356828 0.723923
vt 0.217384 0.924109
vt 0.453272 0.761865
vt 0.400888 0.999900
vt 0.556843 0.760358
vt 0.599446 0.999900
vt 0.651436 0.718328
vt 0.782872 0.923664
vt 0.723338 0.643741
vt 0.923068 0.783245
vt 0.761353 0.547330
vt 0.999097 0.599973
vt 0.759477 0.443714
vt 0.999401 0.401428
vt 0.718053 0.348661
vt 0.923715 0.217703
vt 0.643376 0.276640
vt 0.783382 0.076768
vt 0.546896 0.238472
vt 0.599598 0.000190
vt 0.443216 0.240623
vt 0.400302 0.000100
vt 0.372546 0.699309
vt 0.458201 0.733029
vt 0.348294 0.282527
vt 0.216354 0.076607
vt 0.694197 0.365614
vt 0.730970 0.450244
vt 0.692561 0.458804
vt 0.661959 0.388240
vt 0.732533 0.542440
vt 0.449224 0.269241
vt 0.365004 0.306527
vt 0.268979 0.550946
vt 0.305790 0.635727
vt 0.634708 0.694413
vt 0.698575 0.628190
vt 0.300749 0.372801
vt 0.267465 0.458879
vt 0.627793 0.301441
vt 0.541701 0.267358
vt 0.550566 0.731796
vt 0.306082 0.466004
vt 0.333889 0.394299
vt 0.499983 0.500633
vt 0.338285 0.613329
vt 0.393852 0.666391
vt 0.606634 0.334707
vt 0.465236 0.694361
vt 0.534933 0.306351
vt 0.542108 0.693218
vt 0.457787 0.307840
vt 0.612434 0.662149
vt 0.387291 0.338917
vt 0.665562 0.606935
vt 0.693820 0.535636
vt 0.307489 0.542834
s 1
f 1/1/1 2/2/2 4/3/4 3/4/3
f 3/4/3 4/3/4 6/5/6 5/6/5
f 5/6/5 6/5/6 8/7/8 7/8/7
f 7/8/7 8/7/8 10/9/10 9/10/9
f 9/10/9 10/9/10 12/11/12 11/12/11
f 11/12/11 12/11/12 14/13/14 13/14/13
f 13/14/13 14/13/14 16/15/16 15/16/15
f 15/16/15 16/15/16 18/17/18 17/18/17
f 17/18/17 18/17/18 20/19/20 19/20/19
f 19/20/19 20/19/20 22/21/22 21/22/21
f 21/22/21 22/21/22 24/23/24 23/24/23
f 23/24/23 24/23/24 26/25/26 25/26/25
f 25/26/25 26/25/26 28/27/28 27/28/27
f 27/28/27 28/27/28 30/29/30 29/30/29
f 12/11/12 10/9/10 37/31/37 38/32/38
f 29/30/29 30/29/30 32/33/32 31/34/31
f 31/34/31 32/33/32 2/2/2 1/1/1
f 44/35/44 43/36/43 59/37/59 60/38/60
f 22/21/22 20/19/20 42/39/42 43/36/43
f 32/33/32 30/29/30 47/40/47 48/41/48
f 8/7/8 6/5/6 35/42/35 36/43/36
f 18/17/18 16/15/16 40/44/40 41/45/41
f 4/3/4 2/2/2 34/46/34 33/47/33
f 28/27/28 26/25/26 45/48/45 46/49/46
f 14/13/14 12/11/12 38/32/38 39/50/39
f 24/23/24 22/21/22 43/36/43 44/35/44
f 2/2/2 32/33/32 48/41/48 34/46/34
f 10/9/10 8/7/8 36/43/36 37/31/37
f 20/19/20 18/17/18 41/45/41 42/39/42
f 30/29/30 28/27/28 46/49/46 47/40/47
f 6/5/6 4/3/4 33/47/33 35/42/35
f 16/15/16 14/13/14 39/50/39 40/44/40
f 26/25/26 24/23/24 44/35/44 45/48/45
f 49/51/49 50/52/50 65/53/65
f 37/31/37 36/43/36 52/54/52 53/55/53
f 45/48/45 44/35/44 60/38/60 61/56/61
f 38/32/38 37/31/37 53/55/53 54/57/54
f 46/49/46 45/48/45 61/56/61 62/58/62
f 39/50/39 38/32/38 54/57/54 55/59/55
f 47/40/47 46/49/46 62/58/62 63/60/63
f 40/44/40 39/50/39 55/59/55 56/61/56
f 48/41/48 47/40/47 63/60/63 64/62/64
f 41/45/41 40/44/40 56/61/56 57/63/57
f 33/47/33 34/46/34 50/52/50 49/51/49
f 34/46/34 48/41/48 64/62/64 50/52/50
f 42/39/42 41/45/41 57/63/57 58/64/58
f 35/42/35 33/47/33 49/51/49 51/65/51
f 43/36/43 42/39/42 58/64/58 59/37/59
f 36/43/36 35/42/35 51/65/51 52/54/52
f 50/52/50 64/62/64 65/53/65
f 58/64/58 57/63/57 65/53/65
f 51/65/51 49/51/49 65/53/65
f 59/37/59 58/64/58 65/53/65
f 52/54/52 51/65/51 65/53/65
f 60/38/60 59/37/59 65/53/65
f 53/55/53 52/54/52 65/53/65
f 61/56/61 60/38/60 65/53/65
f 54/57/54 53/55/53 65/53/65
f 62/58/62 61/56/61 65/53/65
f 55/59/55 54/57/54 65/53/65
f 63/60/63 62/58/62 65/53/65
f 56/61/56 55/59/55 65/53/65
f 64/62/64 63/60/63 65/53/65
f 57/63/57 56/61/56 65/53/65
