# Blender 4.1.0
# www.blender.org
o X_Button
v 0.700054 0.234609 -0.282560
v 0.700054 0.315504 -0.282560
v 0.692928 0.234609 -0.296878
v 0.692928 0.315504 -0.296878
v 0.690297 0.234609 -0.313537
v 0.690297 0.315504 -0.313537
v 0.694242 0.234609 -0.329934
v 0.694242 0.315504 -0.329934
v 0.704162 0.234609 -0.343574
v 0.704162 0.315504 -0.343574
v 0.718546 0.234609 -0.352379
v 0.718546 0.315504 -0.352379
v 0.735205 0.234609 -0.355010
v 0.735205 0.315504 -0.355010
v 0.751603 0.234609 -0.351065
v 0.751603 0.315504 -0.351065
v 0.765242 0.234609 -0.341145
v 0.765242 0.315504 -0.341145
v 0.796172 0.234828 -0.176468
v 0.796172 0.315723 -0.176468
v 0.783224 0.234828 -0.165661
v 0.783224 0.315723 -0.165661
v 0.767126 0.234828 -0.160632
v 0.767126 0.315723 -0.160632
v 0.750329 0.234828 -0.162146
v 0.750329 0.315723 -0.162146
v 0.735390 0.234828 -0.169973
v 0.735390 0.315723 -0.169973
v 0.724583 0.234828 -0.182921
v 0.724583 0.315723 -0.182921
v 0.719554 0.234828 -0.199019
v 0.719554 0.315723 -0.199019
v 0.808592 0.234828 -0.208082
v 0.808592 0.315723 -0.208082
v 0.803999 0.234828 -0.191407
v 0.803999 0.315723 -0.191407
v 0.716832 0.234828 -0.226459
v 0.716832 0.315723 -0.226459
v 0.710956 0.234828 -0.256491
v 0.710956 0.315723 -0.256491
v 0.811978 0.234828 -0.235405
v 0.811978 0.315723 -0.235405
v 0.809077 0.234828 -0.266340
v 0.809077 0.315723 -0.266340
v 0.799036 0.234828 -0.295771
v 0.799036 0.315723 -0.295771
v 0.783733 0.234828 -0.321953
v 0.783733 0.315723 -0.321953
v 0.706359 0.323226 -0.280619
v 0.699758 0.323226 -0.293881
v 0.697322 0.323226 -0.309312
v 0.700976 0.323226 -0.324500
v 0.710164 0.323226 -0.337134
v 0.723487 0.323226 -0.345290
v 0.738918 0.323226 -0.347726
v 0.754106 0.323226 -0.344072
v 0.766740 0.323226 -0.334884
v 0.795389 0.323429 -0.182351
v 0.783396 0.323429 -0.172341
v 0.768485 0.323429 -0.167683
v 0.752926 0.323429 -0.169085
v 0.739089 0.323429 -0.176335
v 0.729079 0.323429 -0.188328
v 0.724421 0.323429 -0.203239
v 0.806893 0.323429 -0.211633
v 0.802639 0.323429 -0.196188
v 0.721900 0.323429 -0.228656
v 0.716457 0.323429 -0.256473
v 0.810029 0.323429 -0.236942
v 0.807342 0.323429 -0.265595
v 0.798042 0.323429 -0.292855
v 0.783867 0.323429 -0.317107
v 0.713405 0.326892 -0.278053
v 0.707515 0.326892 -0.289887
v 0.705341 0.326892 -0.303656
v 0.708601 0.326892 -0.317209
v 0.716800 0.326892 -0.328482
v 0.728689 0.326892 -0.335760
v 0.742458 0.326892 -0.337934
v 0.756011 0.326892 -0.334674
v 0.767285 0.326892 -0.326475
v 0.792849 0.327073 -0.190366
v 0.782147 0.327073 -0.181434
v 0.768841 0.327073 -0.177277
v 0.754958 0.327073 -0.178529
v 0.742611 0.327073 -0.184998
v 0.733679 0.327073 -0.195700
v 0.729522 0.327073 -0.209005
v 0.803114 0.327073 -0.216495
v 0.799318 0.327073 -0.202713
v 0.727272 0.327073 -0.231685
v 0.722416 0.327073 -0.256507
v 0.805912 0.327073 -0.239079
v 0.803515 0.327073 -0.264647
v 0.795216 0.327073 -0.288972
v 0.782568 0.327073 -0.310612
v 0.724873 0.329146 -0.272213
v 0.720657 0.329146 -0.280683
v 0.719101 0.329146 -0.290539
v 0.721435 0.329146 -0.300239
v 0.727303 0.329146 -0.308308
v 0.735813 0.329146 -0.313518
v 0.745668 0.329146 -0.315074
v 0.755369 0.329146 -0.312740
v 0.763438 0.329146 -0.306872
v 0.781736 0.329275 -0.209450
v 0.774076 0.329275 -0.203056
v 0.764552 0.329275 -0.200081
v 0.754615 0.329275 -0.200977
v 0.745777 0.329275 -0.205607
v 0.739384 0.329275 -0.213268
v 0.736409 0.329275 -0.222791
v 0.789084 0.329275 -0.228152
v 0.786366 0.329275 -0.218287
v 0.734799 0.329275 -0.239024
v 0.731323 0.329275 -0.256791
v 0.791086 0.329275 -0.244317
v 0.789370 0.329275 -0.262617
v 0.783430 0.329275 -0.280028
v 0.774377 0.329275 -0.295518
vn -0.9094 -0.0000 0.4160
vn -0.8717 0.2796 0.4024
vn -0.9526 -0.0000 0.3043
vn -0.9115 0.3078 0.2728
vn -0.9992 -0.0000 -0.0397
vn -0.9331 0.3560 -0.0519
vn -0.9079 -0.0000 -0.4191
vn -0.8348 0.3855 -0.3931
vn -0.6785 -0.0000 -0.7346
vn -0.6235 0.3945 -0.6750
vn -0.3457 -0.0000 -0.9384
vn -0.3259 0.3848 -0.8635
vn 0.0397 -0.0000 -0.9992
vn 0.0220 0.3544 -0.9348
vn 0.4191 -0.0000 -0.9079
vn 0.3786 0.2976 -0.8764
vn 0.6565 -0.0000 -0.7543
vn 0.6288 0.2283 -0.7433
vn 0.7782 -0.0000 0.6280
vn 0.7391 0.2535 0.6240
vn 0.4787 -0.0000 0.8780
vn 0.4418 0.3097 0.8420
vn 0.1062 -0.0000 0.9943
vn 0.0913 0.3435 0.9347
vn -0.2824 -0.0000 0.9593
vn -0.2656 0.3580 0.8952
vn -0.6280 -0.0000 0.7782
vn -0.5837 0.3548 0.7303
vn -0.8780 -0.0000 0.4787
vn -0.8224 0.3337 0.4608
vn -0.9799 -0.0000 0.1995
vn -0.9312 0.3062 0.1979
vn 0.9808 -0.0000 0.1948
vn 0.9681 0.1500 0.2005
vn 0.9303 -0.0000 0.3669
vn 0.9083 0.1896 0.3729
vn -0.9894 -0.0000 0.1455
vn -0.9440 0.3004 0.1368
vn -0.9568 -0.0000 0.2907
vn -0.9116 0.3005 0.2807
vn 0.9999 -0.0000 0.0149
vn 0.9919 0.1250 0.0209
vn 0.9778 -0.0000 -0.2096
vn 0.9708 0.1167 -0.2097
vn 0.9094 -0.0000 -0.4158
vn 0.8977 0.1347 -0.4194
vn 0.7972 -0.0000 -0.6037
vn 0.7744 0.1801 -0.6065
vn -0.6531 0.6968 0.2966
vn -0.6491 0.7293 0.2161
vn -0.5983 0.8012 -0.0131
vn -0.4908 0.8427 -0.2212
vn -0.3497 0.8559 -0.3809
vn -0.1761 0.8469 -0.5018
vn 0.0385 0.8121 -0.5822
vn 0.3015 0.7386 -0.6029
vn 0.4945 0.6633 -0.5618
vn 0.5696 0.6959 0.4374
vn 0.3190 0.7687 0.5543
vn 0.0722 0.8079 0.5849
vn -0.1570 0.8217 0.5479
vn -0.3662 0.8133 0.4521
vn -0.5525 0.7795 0.2952
vn -0.6649 0.7347 0.1342
vn 0.8119 0.5613 0.1603
vn 0.7329 0.6184 0.2836
vn -0.6825 0.7241 0.0995
vn -0.6599 0.7249 0.1979
vn 0.8569 0.5153 0.0135
vn 0.8491 0.4965 -0.1807
vn 0.7748 0.5247 -0.3527
vn 0.6443 0.5920 -0.4842
vn -0.3829 0.9079 0.1704
vn -0.3711 0.9187 0.1351
vn -0.3053 0.9522 0.0019
vn -0.2285 0.9686 -0.0983
vn -0.1537 0.9743 -0.1649
vn -0.0741 0.9743 -0.2128
vn 0.0202 0.9686 -0.2478
vn 0.1460 0.9522 -0.2685
vn 0.2340 0.9371 -0.2591
vn 0.2617 0.9470 0.1860
vn 0.1374 0.9635 0.2298
vn 0.0304 0.9695 0.2430
vn -0.0698 0.9696 0.2347
vn -0.1725 0.9636 0.2044
vn -0.2874 0.9471 0.1427
vn -0.3748 0.9245 0.0703
vn 0.3990 0.9142 0.0706
vn 0.3487 0.9290 0.1238
vn -0.3902 0.9189 0.0573
vn -0.3727 0.9217 0.1078
vn 0.4389 0.8985 -0.0019
vn 0.4423 0.8920 -0.0937
vn 0.4023 0.8988 -0.1740
vn 0.3271 0.9159 -0.2327
vn -0.1194 0.9917 0.0482
vn -0.1325 0.9896 0.0562
vn -0.0980 0.9952 0.0053
vn -0.0656 0.9975 -0.0246
vn -0.0412 0.9983 -0.0411
vn -0.0190 0.9985 -0.0507
vn 0.0037 0.9984 -0.0558
vn 0.0304 0.9979 -0.0566
vn 0.0431 0.9977 -0.0531
vn 0.0496 0.9981 0.0357
vn 0.0270 0.9985 0.0470
vn 0.0050 0.9986 0.0532
vn -0.0190 0.9983 0.0552
vn -0.0493 0.9974 0.0521
vn -0.0949 0.9947 0.0387
vn -0.1301 0.9913 0.0180
vn 0.0713 0.9974 0.0123
vn 0.0634 0.9977 0.0223
vn -0.1194 0.9926 0.0197
vn -0.1125 0.9932 0.0296
vn 0.0790 0.9969 -0.0008
vn 0.0801 0.9966 -0.0184
vn 0.0731 0.9968 -0.0332
vn 0.0600 0.9972 -0.0452
vt 0.963437 0.543015
vt 0.648157 0.488921
vt 0.662588 0.452471
vt 0.968754 0.459533
vt 0.665884 0.418050
vt 0.960081 0.369113
vt 0.660079 0.388004
vt 0.934817 0.280858
vt 0.647260 0.362359
vt 0.892271 0.198651
vt 0.627994 0.342111
vt 0.833061 0.126339
vt 0.603561 0.327333
vt 0.759249 0.067578
vt 0.574108 0.319218
vt 0.674041 0.025053
vt 0.539443 0.320015
vt 0.581353 0.000098
vt 0.101147 0.809941
vt 0.359172 0.632259
vt 0.377570 0.656146
vt 0.165666 0.881751
vt 0.400644 0.673153
vt 0.243863 0.939312
vt 0.427106 0.683152
vt 0.332994 0.979452
vt 0.456199 0.685030
vt 0.429335 0.999902
vt 0.486943 0.678317
vt 0.528497 0.999729
vt 0.518672 0.660283
vt 0.626256 0.979701
vt 0.017202 0.634854
vt 0.342691 0.563466
vt 0.347195 0.601307
vt 0.051926 0.727884
vt 0.562326 0.611498
vt 0.793606 0.895535
vt 0.607144 0.548161
vt 0.933009 0.732523
vt 0.000098 0.452179
vt 0.351229 0.501469
vt 0.066151 0.244703
vt 0.379443 0.434837
vt 0.213391 0.082506
vt 0.426294 0.378272
vt 0.407017 0.000098
vt 0.483950 0.338738
vt 0.532854 0.340449
vt 0.484841 0.359279
vt 0.405721 0.656274
vt 0.429968 0.665252
vt 0.642324 0.397812
vt 0.631016 0.373617
vt 0.370130 0.618168
vt 0.385278 0.640393
vt 0.585245 0.537809
vt 0.622560 0.486317
vt 0.362266 0.590030
vt 0.484028 0.658281
vt 0.509703 0.639485
vt 0.639463 0.456851
vt 0.645915 0.425913
vt 0.590223 0.341538
vt 0.562948 0.335991
vt 0.435329 0.395585
vt 0.395089 0.445291
vt 0.456621 0.666193
vt 0.613182 0.354547
vt 0.369613 0.503125
vt 0.360851 0.557214
vt 0.545885 0.594426
vt 0.483874 0.640047
vt 0.505626 0.621495
vt 0.577517 0.356123
vt 0.552176 0.351952
vt 0.440261 0.408182
vt 0.405178 0.451766
vt 0.374152 0.549779
vt 0.373968 0.578870
vt 0.525406 0.357744
vt 0.483297 0.375512
vt 0.602525 0.487682
vt 0.619852 0.463114
vt 0.379672 0.604694
vt 0.393071 0.625483
vt 0.627919 0.435199
vt 0.535814 0.580649
vt 0.411898 0.640302
vt 0.625776 0.408793
vt 0.569320 0.531451
vt 0.434470 0.648252
vt 0.615626 0.385997
vt 0.459080 0.648557
vt 0.599159 0.367992
vt 0.382575 0.502360
vt 0.594724 0.457328
vt 0.594367 0.436039
vt 0.526561 0.557458
vt 0.549015 0.523197
vt 0.434719 0.605965
vt 0.452756 0.611593
vt 0.587520 0.417141
vt 0.573316 0.493811
vt 0.472594 0.610777
vt 0.574782 0.402794
vt 0.416958 0.501940
vt 0.410017 0.535712
vt 0.491868 0.602754
vt 0.557543 0.394357
vt 0.433124 0.466484
vt 0.507237 0.587963
vt 0.537677 0.392611
vt 0.457688 0.436020
vt 0.408591 0.556984
vt 0.517869 0.398409
vt 0.487598 0.412319
vt 0.586934 0.477952
vt 0.411075 0.577056
vt 0.420309 0.594030
s 1
f 1/1/1 2/2/2 4/3/4 3/4/3
f 3/4/3 4/3/4 6/5/6 5/6/5
f 5/6/5 6/5/6 8/7/8 7/8/7
f 7/8/7 8/7/8 10/9/10 9/10/9
f 9/10/9 10/9/10 12/11/12 11/12/11
f 11/12/11 12/11/12 14/13/14 13/14/13
f 13/14/13 14/13/14 16/15/16 15/16/15
f 15/16/15 16/15/16 18/17/18 17/18/17
f 19/19/19 20/20/20 22/21/22 21/22/21
f 21/22/21 22/21/22 24/23/24 23/24/23
f 23/24/23 24/23/24 26/25/26 25/26/25
f 25/26/25 26/25/26 28/27/28 27/28/27
f 27/28/27 28/27/28 30/29/30 29/30/29
f 29/30/29 30/29/30 32/31/32 31/32/31
f 33/33/33 34/34/34 36/35/36 35/36/35
f 35/36/35 36/35/36 20/20/20 19/19/19
f 31/32/31 32/31/32 38/37/38 37/38/37
f 37/38/37 38/37/38 40/39/40 39/40/39
f 1/1/1 39/40/39 40/39/40 2/2/2
f 34/34/34 33/33/33 41/41/41 42/42/42
f 42/42/42 41/41/41 43/43/43 44/44/44
f 44/44/44 43/43/43 45/45/45 46/46/46
f 46/46/46 45/45/45 47/47/47 48/48/48
f 17/18/17 18/17/18 48/48/48 47/47/47
f 48/48/48 18/17/18 57/49/57 72/50/72
f 26/25/26 24/23/24 60/51/60 61/52/61
f 10/9/10 8/7/8 52/53/52 53/54/53
f 22/21/22 20/20/20 58/55/58 59/56/59
f 2/2/2 40/39/40 68/57/68 49/58/49
f 20/20/20 36/35/36 66/59/66 58/55/58
f 32/31/32 30/29/30 63/60/63 64/61/64
f 6/5/6 4/3/4 50/62/50 51/63/51
f 16/15/16 14/13/14 55/64/55 56/65/56
f 44/44/44 46/46/46 71/66/71 70/67/70
f 28/27/28 26/25/26 61/52/61 62/68/62
f 12/11/12 10/9/10 53/54/53 54/69/54
f 34/34/34 42/42/42 69/70/69 65/71/65
f 38/37/38 32/31/32 64/61/64 67/72/67
f 24/23/24 22/21/22 59/56/59 60/51/60
f 8/7/8 6/5/6 51/63/51 52/53/52
f 18/17/18 16/15/16 56/65/56 57/49/57
f 46/46/46 48/48/48 72/50/72 71/66/71
f 36/35/36 34/34/34 65/71/65 66/59/66
f 4/3/4 2/2/2 49/58/49 50/62/50
f 30/29/30 28/27/28 62/68/62 63/60/63
f 14/13/14 12/11/12 54/69/54 55/64/55
f 42/42/42 44/44/44 70/67/70 69/70/69
f 40/39/40 38/37/38 67/72/67 68/57/68
f 64/61/64 63/60/63 87/73/87 88/74/88
f 56/65/56 55/64/55 79/75/79 80/76/80
f 70/67/70 71/66/71 95/77/95 94/78/94
f 66/59/66 65/71/65 89/79/89 90/80/90
f 57/49/57 56/65/56 80/76/80 81/81/81
f 71/66/71 72/50/72 96/82/96 95/77/95
f 50/62/50 49/58/49 73/83/73 74/84/74
f 58/55/58 66/59/66 90/80/90 82/85/82
f 59/56/59 58/55/58 82/85/82 83/86/83
f 72/50/72 57/49/57 81/81/81 96/82/96
f 51/63/51 50/62/50 74/84/74 75/87/75
f 67/72/67 64/61/64 88/74/88 91/88/91
f 60/51/60 59/56/59 83/86/83 84/89/84
f 52/53/52 51/63/51 75/87/75 76/90/76
f 68/57/68 67/72/67 91/88/91 92/91/92
f 61/52/61 60/51/60 84/89/84 85/92/85
f 53/54/53 52/53/52 76/90/76 77/93/77
f 49/58/49 68/57/68 92/91/92 73/83/73
f 62/68/62 61/52/61 85/92/85 86/94/86
f 54/69/54 53/54/53 77/93/77 78/95/78
f 65/71/65 69/70/69 93/96/93 89/79/89
f 63/60/63 62/68/62 86/94/86 87/73/87
f 55/64/55 54/69/54 78/95/78 79/75/79
f 69/70/69 70/67/70 94/78/94 93/96/93
f 76/90/76 75/87/75 99/97/99 100/98/100
f 92/91/92 91/88/91 115/99/115 116/100/116
f 85/92/85 84/89/84 108/101/108 109/102/109
f 77/93/77 76/90/76 100/98/100 101/103/101
f 73/83/73 92/91/92 116/100/116 97/104/97
f 86/94/86 85/92/85 109/102/109 110/105/110
f 78/95/78 77/93/77 101/103/101 102/106/102
f 89/79/89 93/96/93 117/107/117 113/108/113
f 87/73/87 86/94/86 110/105/110 111/109/111
f 79/75/79 78/95/78 102/106/102 103/110/103
f 93/96/93 94/78/94 118/111/118 117/107/117
f 88/74/88 87/73/87 111/109/111 112/112/112
f 80/76/80 79/75/79 103/110/103 104/113/104
f 94/78/94 95/77/95 119/114/119 118/111/118
f 90/80/90 89/79/89 113/108/113 114/115/114
f 81/81/81 80/76/80 104/113/104 105/116/105
f 95/77/95 96/82/96 120/117/120 119/114/119
f 74/84/74 73/83/73 97/104/97 98/118/98
f 82/85/82 90/80/90 114/115/114 106/119/106
f 83/86/83 82/85/82 106/119/106 107/120/107
f 96/82/96 81/81/81 105/116/105 120/117/120
f 75/87/75 74/84/74 98/118/98 99/97/99
f 91/88/91 88/74/88 112/112/112 115/99/115
f 84/89/84 83/86/83 107/120/107 108/101/108
f 97/104/97 119/114/119 120/117/120 98/118/98
f 98/118/98 120/117/120 105/116/105 99/97/99
f 100/98/100 99/97/99 105/116/105 104/113/104
f 101/103/101 100/98/100 104/113/104 103/110/103
f 102/106/102 101/103/101 103/110/103
f 116/100/116 118/111/118 119/114/119 97/104/97
f 116/100/116 115/99/115 118/111/118
f 112/112/112 117/107/117 118/111/118 115/99/115
f 111/109/111 113/108/113 117/107/117 112/112/112
f 111/109/111 110/105/110 114/115/114 113/108/113
f 110/105/110 109/102/109 106/119/106 114/115/114
f 107/120/107 106/119/106 109/102/109 108/101/108
