# Blender 4.1.0
# www.blender.org
o minus_button
v 0.042575 0.100216 -0.545933
v 0.042575 0.097503 -0.544320
v 0.042575 0.097463 -0.567791
v 0.039955 0.097500 -0.545743
v 0.039904 0.083879 -0.545705
v 0.038645 0.097470 -0.563969
v 0.042575 0.101302 -0.563976
v 0.038645 0.097495 -0.548849
v 0.042575 0.101327 -0.548855
v 0.039937 0.097466 -0.566418
v 0.039889 0.083845 -0.566371
v 0.039985 0.099813 -0.563973
v 0.040052 0.099904 -0.548853
v 0.042454 0.083882 -0.544297
v 0.038645 0.083849 -0.564035
v 0.038645 0.083874 -0.548820
v 0.042637 0.083842 -0.567768
v 0.042575 0.099982 -0.566654
v 0.040969 0.099810 -0.565463
v 0.040946 0.100214 -0.546922
v 0.107774 0.100216 -0.545933
v 0.110394 0.097500 -0.545743
v 0.110444 0.083879 -0.545705
v 0.107774 0.097463 -0.567791
v 0.107774 0.097503 -0.544320
v 0.111703 0.097470 -0.563969
v 0.107774 0.101302 -0.563976
v 0.111703 0.097495 -0.548849
v 0.107774 0.101327 -0.548855
v 0.110412 0.097466 -0.566418
v 0.110460 0.083845 -0.566371
v 0.110364 0.099813 -0.563973
v 0.110297 0.099904 -0.548853
v 0.107894 0.083882 -0.544297
v 0.111703 0.083849 -0.564035
v 0.111703 0.083874 -0.548820
v 0.107711 0.083842 -0.567768
v 0.107774 0.099982 -0.566654
v 0.109379 0.099810 -0.565463
v 0.109403 0.100214 -0.546922
vn -0.1825 0.7323 0.6561
vn -0.2343 0.2543 0.9383
vn -0.2398 0.2142 -0.9469
vn -0.7217 0.2427 0.6482
vn -0.7449 0.0040 0.6671
vn -0.9397 0.2506 -0.2328
vn -0.2361 0.9494 -0.2072
vn -0.9520 0.2460 0.1820
vn -0.2204 0.9648 0.1437
vn -0.6912 0.2292 -0.6854
vn -0.7032 -0.0003 -0.7110
vn -0.7052 0.6799 -0.2009
vn -0.7223 0.6805 0.1233
vn -0.2491 0.0034 0.9685
vn -0.9702 0.0010 -0.2422
vn -0.9809 0.0013 0.1946
vn -0.2346 -0.0021 -0.9721
vn -0.2265 0.6694 -0.7076
vn -0.5578 0.6489 -0.5175
vn -0.5439 0.7149 0.4395
vn 0.1825 0.7323 0.6561
vn 0.7217 0.2427 0.6482
vn 0.7449 0.0040 0.6671
vn 0.2398 0.2142 -0.9469
vn 0.2343 0.2543 0.9383
vn 0.9397 0.2506 -0.2328
vn 0.2361 0.9494 -0.2072
vn 0.9520 0.2460 0.1820
vn 0.2204 0.9648 0.1437
vn 0.6912 0.2292 -0.6854
vn 0.7032 -0.0003 -0.7110
vn 0.7052 0.6799 -0.2009
vn 0.7223 0.6805 0.1233
vn 0.2491 0.0034 0.9685
vn 0.9702 0.0010 -0.2422
vn 0.9809 0.0013 0.1946
vn 0.2346 -0.0021 -0.9721
vn 0.2265 0.6694 -0.7076
vn 0.5578 0.6488 -0.5175
vn 0.5439 0.7149 0.4395
vt 0.172162 0.219121
vt 0.293981 0.219839
vt 0.293083 0.244011
vt 0.173705 0.243344
vt 0.037217 0.068708
vt 0.144288 0.209174
vt 0.124339 0.232420
vt 0.000071 0.101117
vt 0.326716 0.209685
vt 0.347172 0.232586
vt 0.318969 0.241668
vt 0.309047 0.229283
vt 0.442918 0.031004
vt 0.490528 0.064553
vt 0.297517 0.195006
vt 0.167799 0.195445
vt 0.159625 0.227397
vt 0.149042 0.240805
vt 0.071440 0.043763
vt 0.383966 0.000070
vt 0.182692 0.785387
vt 0.184150 0.761039
vt 0.303640 0.760787
vt 0.304625 0.784988
vt 0.040241 0.939089
vt 0.001648 0.904810
vt 0.134912 0.772048
vt 0.154676 0.795310
vt 0.358847 0.772271
vt 0.329845 0.762921
vt 0.337573 0.795372
vt 0.319784 0.775506
vt 0.490528 0.939405
vt 0.444676 0.970678
vt 0.159640 0.763685
vt 0.308064 0.809814
vt 0.178262 0.809239
vt 0.170131 0.777067
vt 0.075744 0.965341
vt 0.387879 0.999930
s 1
f 12/1/12 13/2/13 9/3/9 7/4/7
f 11/5/11 10/6/10 3/7/3 17/8/17
f 4/9/4 2/10/2 1/11/1 20/12/20
f 4/9/4 5/13/5 14/14/14 2/10/2
f 8/15/8 13/2/13 12/1/12 6/16/6
f 6/16/6 12/1/12 19/17/19 10/6/10
f 10/6/10 19/17/19 18/18/18 3/7/3
f 9/3/9 13/2/13 20/12/20
f 6/16/6 10/6/10 11/5/11 15/19/15
f 16/20/16 5/13/5 4/9/4 8/15/8
f 15/19/15 16/20/16 8/15/8 6/16/6
f 19/17/19 12/1/12 7/4/7
f 18/18/18 19/17/19 7/4/7
f 20/12/20 13/2/13 8/15/8 4/9/4
f 20/12/20 1/11/1 9/3/9
f 32/21/32 27/22/27 29/23/29 33/24/33
f 31/25/31 37/26/37 24/27/24 30/28/30
f 2/10/2 25/29/25 21/30/21 1/11/1
f 22/31/22 40/32/40 21/30/21 25/29/25
f 22/31/22 25/29/25 34/33/34 23/34/23
f 27/22/27 38/35/38 18/18/18 7/4/7
f 29/23/29 27/22/27 7/4/7 9/3/9
f 28/36/28 26/37/26 32/21/32 33/24/33
f 26/37/26 30/28/30 39/38/39 32/21/32
f 30/28/30 24/27/24 38/35/38 39/38/39
f 29/23/29 40/32/40 33/24/33
f 26/37/26 35/39/35 31/25/31 30/28/30
f 21/30/21 29/23/29 9/3/9 1/11/1
f 36/40/36 28/36/28 22/31/22 23/34/23
f 35/39/35 26/37/26 28/36/28 36/40/36
f 17/8/17 3/7/3 24/27/24 37/26/37
f 34/33/34 25/29/25 2/10/2 14/14/14
f 38/35/38 24/27/24 3/7/3 18/18/18
f 39/38/39 27/22/27 32/21/32
f 38/35/38 27/22/27 39/38/39
f 40/32/40 22/31/22 28/36/28 33/24/33
f 40/32/40 29/23/29 21/30/21
