# Blender 4.1.0
# www.blender.org
o left_button
v -0.175420 0.081860 -0.003714
v -0.175420 0.107483 -0.003757
v -0.156171 0.081867 0.000115
v -0.156171 0.107489 0.000072
v -0.139852 0.081885 0.011019
v -0.139852 0.107507 0.010976
v -0.128948 0.081912 0.027338
v -0.128948 0.107535 0.027295
v -0.125119 0.081945 0.046588
v -0.125119 0.107567 0.046545
v -0.128948 0.081977 0.065837
v -0.128948 0.107599 0.065794
v -0.139852 0.082004 0.082156
v -0.139852 0.107626 0.082113
v -0.156171 0.082022 0.093060
v -0.156171 0.107645 0.093017
v -0.175420 0.082029 0.096889
v -0.175420 0.107651 0.096846
v -0.194670 0.082022 0.093060
v -0.194670 0.107645 0.093017
v -0.210989 0.082004 0.082156
v -0.210989 0.107626 0.082113
v -0.221893 0.081977 0.065837
v -0.221893 0.107599 0.065794
v -0.225722 0.081945 0.046588
v -0.225722 0.107567 0.046545
v -0.221893 0.081912 0.027338
v -0.221893 0.107535 0.027295
v -0.210989 0.081885 0.011019
v -0.210989 0.107507 0.010976
v -0.194670 0.081867 0.000115
v -0.194670 0.107489 0.000072
v -0.157439 0.111278 0.003128
v -0.175420 0.111272 -0.000449
v -0.142195 0.111295 0.013313
v -0.132010 0.111321 0.028557
v -0.128433 0.111351 0.046538
v -0.132010 0.111381 0.064520
v -0.142195 0.111407 0.079763
v -0.157439 0.111424 0.089949
v -0.175420 0.111430 0.093526
v -0.193402 0.111424 0.089949
v -0.208646 0.111407 0.079763
v -0.218831 0.111381 0.064520
v -0.222408 0.111351 0.046538
v -0.218831 0.111321 0.028557
v -0.208646 0.111295 0.013313
v -0.193402 0.111278 0.003128
v -0.160674 0.114361 0.010931
v -0.175420 0.114356 0.007998
v -0.148172 0.114375 0.019285
v -0.139819 0.114396 0.031786
v -0.136885 0.114421 0.046533
v -0.139819 0.114446 0.061280
v -0.148172 0.114466 0.073782
v -0.160674 0.114480 0.082135
v -0.175420 0.114485 0.085068
v -0.190167 0.114480 0.082135
v -0.202669 0.114466 0.073782
v -0.211022 0.114446 0.061280
v -0.213955 0.114421 0.046533
v -0.211022 0.114396 0.031786
v -0.202669 0.114375 0.019285
v -0.190167 0.114361 0.010931
v -0.175420 0.116433 0.046530
vn -0.0000 -0.0017 -1.0000
vn -0.0000 0.3367 -0.9416
vn 0.3827 -0.0015 -0.9239
vn 0.3601 0.3369 -0.8700
vn 0.7071 -0.0012 -0.7071
vn 0.6654 0.3372 -0.6660
vn 0.9239 -0.0006 -0.3827
vn 0.8694 0.3377 -0.3607
vn 1.0000 -0.0000 -0.0000
vn 0.9410 0.3383 -0.0006
vn 0.9239 0.0006 0.3827
vn 0.8694 0.3389 0.3595
vn 0.7071 0.0012 0.7071
vn 0.6654 0.3394 0.6648
vn 0.3827 0.0015 0.9239
vn 0.3601 0.3398 0.8688
vn -0.0000 0.0017 1.0000
vn -0.0000 0.3399 0.9405
vn -0.3827 0.0015 0.9239
vn -0.3601 0.3398 0.8688
vn -0.7071 0.0012 0.7071
vn -0.6654 0.3394 0.6648
vn -0.9239 0.0006 0.3827
vn -0.8694 0.3389 0.3595
vn -1.0000 -0.0000 -0.0000
vn -0.9410 0.3383 -0.0006
vn -0.9239 -0.0006 -0.3827
vn -0.8694 0.3377 -0.3607
vn -0.7071 -0.0012 -0.7071
vn -0.6654 0.3372 -0.6660
vn -0.3827 -0.0015 -0.9239
vn -0.3601 0.3369 -0.8700
vn 0.2239 0.8101 -0.5418
vn -0.0000 0.8100 -0.5864
vn 0.4137 0.8103 -0.4150
vn 0.5405 0.8106 -0.2252
vn 0.5850 0.8110 -0.0014
vn 0.5405 0.8114 0.2225
vn 0.4137 0.8117 0.4123
vn 0.2239 0.8119 0.5391
vn -0.0000 0.8120 0.5837
vn -0.2239 0.8119 0.5391
vn -0.4137 0.8117 0.4123
vn -0.5405 0.8114 0.2225
vn -0.5850 0.8110 -0.0014
vn -0.5405 0.8106 -0.2252
vn -0.4137 0.8103 -0.4150
vn -0.2239 0.8101 -0.5418
vn 0.0829 0.9759 -0.2017
vn -0.0000 0.9759 -0.2182
vn 0.1531 0.9760 -0.1547
vn 0.2000 0.9761 -0.0845
vn 0.2165 0.9763 -0.0016
vn 0.2000 0.9764 0.0812
vn 0.1531 0.9765 0.1515
vn 0.0829 0.9766 0.1984
vn -0.0000 0.9766 0.2149
vn -0.0829 0.9766 0.1984
vn -0.1531 0.9765 0.1515
vn -0.2000 0.9764 0.0812
vn -0.2165 0.9763 -0.0016
vn -0.2000 0.9761 -0.0845
vn -0.1531 0.9760 -0.1547
vn -0.0829 0.9759 -0.2017
vn -0.0000 1.0000 -0.0017
vt 0.395294 0.999901
vt 0.437045 0.800491
vt 0.552096 0.798050
vt 0.589202 0.999578
vt 0.658084 0.751875
vt 0.769768 0.924792
vt 0.737910 0.667720
vt 0.908480 0.785450
vt 0.779655 0.559112
vt 0.983506 0.603098
vt 0.777800 0.442276
vt 0.983829 0.405114
vt 0.731023 0.334590
vt 0.908086 0.220477
vt 0.645189 0.253699
vt 0.765795 0.077926
vt 0.534255 0.212275
vt 0.577795 0.000099
vt 0.415721 0.217120
vt 0.370596 0.000099
vt 0.310381 0.268373
vt 0.172907 0.083777
vt 0.230302 0.352896
vt 0.046791 0.252898
vt 0.190210 0.463008
vt 0.000099 0.438347
vt 0.196688 0.578920
vt 0.006027 0.621569
vt 0.246073 0.682203
vt 0.080914 0.793934
vt 0.640733 0.727148
vt 0.712543 0.651362
vt 0.329842 0.760032
vt 0.217054 0.927331
vt 0.748118 0.449043
vt 0.749903 0.553855
vt 0.699582 0.545039
vt 0.697851 0.460367
vt 0.628704 0.279615
vt 0.529391 0.242622
vt 0.442050 0.771187
vt 0.545345 0.768840
vt 0.220380 0.467508
vt 0.225736 0.571544
vt 0.705919 0.352250
vt 0.328389 0.292472
vt 0.256258 0.368854
vt 0.345742 0.734921
vt 0.423448 0.246897
vt 0.270211 0.664835
vt 0.669399 0.623837
vt 0.611243 0.685211
vt 0.485695 0.508928
vt 0.271231 0.475221
vt 0.275115 0.559210
vt 0.663426 0.382227
vt 0.310881 0.635042
vt 0.601014 0.323618
vt 0.372052 0.691861
vt 0.520885 0.293802
vt 0.450229 0.721357
vt 0.534040 0.719251
vt 0.435514 0.297329
vt 0.358432 0.333688
vt 0.300271 0.395779
s 1
f 1/1/1 2/2/2 4/3/4 3/4/3
f 3/4/3 4/3/4 6/5/6 5/6/5
f 5/6/5 6/5/6 8/7/8 7/8/7
f 7/8/7 8/7/8 10/9/10 9/10/9
f 9/10/9 10/9/10 12/11/12 11/12/11
f 11/12/11 12/11/12 14/13/14 13/14/13
f 13/14/13 14/13/14 16/15/16 15/16/15
f 15/16/15 16/15/16 18/17/18 17/18/17
f 17/18/17 18/17/18 20/19/20 19/20/19
f 19/20/19 20/19/20 22/21/22 21/22/21
f 21/22/21 22/21/22 24/23/24 23/24/23
f 23/24/23 24/23/24 26/25/26 25/26/25
f 25/26/25 26/25/26 28/27/28 27/28/27
f 27/28/27 28/27/28 30/29/30 29/30/29
f 8/7/8 6/5/6 35/31/35 36/32/36
f 29/30/29 30/29/30 32/33/32 31/34/31
f 31/34/31 32/33/32 2/2/2 1/1/1
f 38/35/38 37/36/37 53/37/53 54/38/54
f 18/17/18 16/15/16 40/39/40 41/40/41
f 4/3/4 2/2/2 34/41/34 33/42/33
f 28/27/28 26/25/26 45/43/45 46/44/46
f 14/13/14 12/11/12 38/35/38 39/45/39
f 24/23/24 22/21/22 43/46/43 44/47/44
f 2/2/2 32/33/32 48/48/48 34/41/34
f 10/9/10 8/7/8 36/32/36 37/36/37
f 20/19/20 18/17/18 41/40/41 42/49/42
f 30/29/30 28/27/28 46/44/46 47/50/47
f 6/5/6 4/3/4 33/42/33 35/31/35
f 16/15/16 14/13/14 39/45/39 40/39/40
f 26/25/26 24/23/24 44/47/44 45/43/45
f 12/11/12 10/9/10 37/36/37 38/35/38
f 22/21/22 20/19/20 42/49/42 43/46/43
f 32/33/32 30/29/30 47/50/47 48/48/48
f 52/51/52 51/52/51 65/53/65
f 46/44/46 45/43/45 61/54/61 62/55/62
f 39/45/39 38/35/38 54/38/54 55/56/55
f 47/50/47 46/44/46 62/55/62 63/57/63
f 40/39/40 39/45/39 55/56/55 56/58/56
f 48/48/48 47/50/47 63/57/63 64/59/64
f 41/40/41 40/39/40 56/58/56 57/60/57
f 33/42/33 34/41/34 50/61/50 49/62/49
f 34/41/34 48/48/48 64/59/64 50/61/50
f 42/49/42 41/40/41 57/60/57 58/63/58
f 35/31/35 33/42/33 49/62/49 51/52/51
f 43/46/43 42/49/42 58/63/58 59/64/59
f 36/32/36 35/31/35 51/52/51 52/51/52
f 44/47/44 43/46/43 59/64/59 60/65/60
f 37/36/37 36/32/36 52/51/52 53/37/53
f 45/43/45 44/47/44 60/65/60 61/54/61
f 60/65/60 59/64/59 65/53/65
f 53/37/53 52/51/52 65/53/65
f 61/54/61 60/65/60 65/53/65
f 54/38/54 53/37/53 65/53/65
f 62/55/62 61/54/61 65/53/65
f 55/56/55 54/38/54 65/53/65
f 63/57/63 62/55/62 65/53/65
f 56/58/56 55/56/55 65/53/65
f 64/59/64 63/57/63 65/53/65
f 57/60/57 56/58/56 65/53/65
f 49/62/49 50/61/50 65/53/65
f 50/61/50 64/59/64 65/53/65
f 58/63/58 57/60/57 65/53/65
f 51/52/51 49/62/49 65/53/65
f 59/64/59 58/63/58 65/53/65
