# Blender 4.1.0
# www.blender.org
o cap
v -0.000000 0.109047 -0.079864
v -0.073786 0.109047 -0.030562
v -0.056474 0.109047 -0.056472
v -0.030563 0.109047 -0.073784
v -0.000000 0.116766 -0.066618
v -0.061549 0.116766 -0.025492
v -0.047107 0.116766 -0.047105
v -0.025494 0.116766 -0.061547
v -0.000000 0.124650 -0.036197
v -0.033443 0.124650 -0.013851
v -0.025597 0.124650 -0.025595
v -0.013853 0.124650 -0.033441
v -0.000000 0.128209 0.000002
v -0.004014 0.109047 -0.079066
v -0.000000 0.109047 0.079867
v -0.073786 0.109047 0.030565
v -0.056474 0.109047 0.056475
v -0.030563 0.109047 0.073788
v -0.000000 0.116766 0.066621
v -0.061549 0.116766 0.025496
v -0.047107 0.116766 0.047109
v -0.025494 0.116766 0.061550
v -0.000000 0.124650 0.036200
v -0.033443 0.124650 0.013854
v -0.025597 0.124650 0.025598
v -0.013853 0.124650 0.033445
v -0.004014 0.109047 0.079069
v -0.079866 0.109047 0.000002
v -0.066620 0.116766 0.000002
v -0.036199 0.124650 0.000002
v -0.079067 0.109047 -0.004012
v -0.079067 0.109047 0.004015
v 0.073786 0.109047 -0.030562
v 0.056473 0.109047 -0.056472
v 0.030563 0.109047 -0.073784
v 0.061548 0.116766 -0.025492
v 0.047107 0.116766 -0.047105
v 0.025494 0.116766 -0.061547
v 0.033443 0.124650 -0.013851
v 0.025596 0.124650 -0.025595
v 0.013852 0.124650 -0.033441
v 0.004013 0.109047 -0.079066
v 0.073786 0.109047 0.030565
v 0.056473 0.109047 0.056475
v 0.030563 0.109047 0.073788
v 0.061548 0.116766 0.025496
v 0.047107 0.116766 0.047109
v 0.025494 0.116766 0.061550
v 0.033443 0.124650 0.013854
v 0.025596 0.124650 0.025598
v 0.013852 0.124650 0.033445
v 0.004013 0.109047 0.079069
v 0.079865 0.109047 0.000002
v 0.066619 0.116766 0.000002
v 0.036198 0.124650 0.000002
v 0.079067 0.109047 -0.004012
v 0.079067 0.109047 0.004015
vn -0.0000 0.8640 -0.5035
vn -0.4652 0.8640 -0.1927
vn -0.3560 0.8640 -0.3560
vn -0.1927 0.8640 -0.4652
vn -0.0000 0.9186 -0.3952
vn -0.3651 0.9186 -0.1512
vn -0.2794 0.9186 -0.2794
vn -0.1512 0.9186 -0.3651
vn -0.0000 0.9829 -0.1843
vn -0.1702 0.9829 -0.0705
vn -0.1303 0.9829 -0.1303
vn -0.0705 0.9829 -0.1702
vn -0.0000 1.0000 -0.0000
vn -0.0997 0.8597 -0.5010
vn -0.0000 0.8640 0.5035
vn -0.4652 0.8640 0.1927
vn -0.3560 0.8640 0.3560
vn -0.1927 0.8640 0.4652
vn -0.0000 0.9186 0.3952
vn -0.3651 0.9186 0.1512
vn -0.2794 0.9186 0.2794
vn -0.1512 0.9186 0.3651
vn -0.0000 0.9829 0.1843
vn -0.1702 0.9829 0.0705
vn -0.1303 0.9829 0.1303
vn -0.0705 0.9829 0.1702
vn -0.0997 0.8597 0.5010
vn -0.5035 0.8640 -0.0000
vn -0.3952 0.9186 -0.0000
vn -0.1843 0.9829 -0.0000
vn -0.5010 0.8597 -0.0997
vn -0.5010 0.8597 0.0997
vn 0.4652 0.8640 -0.1927
vn 0.3560 0.8640 -0.3560
vn 0.1927 0.8640 -0.4652
vn 0.3651 0.9186 -0.1512
vn 0.2794 0.9186 -0.2794
vn 0.1512 0.9186 -0.3651
vn 0.1702 0.9829 -0.0705
vn 0.1303 0.9829 -0.1303
vn 0.0705 0.9829 -0.1702
vn 0.0997 0.8597 -0.5010
vn 0.4652 0.8640 0.1927
vn 0.3560 0.8640 0.3560
vn 0.1927 0.8640 0.4652
vn 0.3651 0.9186 0.1512
vn 0.2794 0.9186 0.2794
vn 0.1512 0.9186 0.3651
vn 0.1702 0.9829 0.0705
vn 0.1303 0.9829 0.1303
vn 0.0705 0.9829 0.1702
vn 0.0997 0.8597 0.5010
vn 0.5035 0.8640 -0.0000
vn 0.3952 0.9186 -0.0000
vn 0.1843 0.9829 -0.0000
vn 0.5010 0.8597 -0.0997
vn 0.5010 0.8597 0.0997
vt 0.443714 0.788010
vt 0.338065 0.744981
vt 0.368570 0.698264
vt 0.454357 0.733719
vt 0.557692 0.788010
vt 0.547033 0.733321
vt 0.664041 0.743924
vt 0.650194 0.750139
vt 0.632689 0.697405
vt 0.475481 0.624906
vt 0.525095 0.624851
vt 0.570809 0.605549
vt 0.429730 0.605975
vt 0.499853 0.500165
vt 0.211862 0.443680
vt 0.266170 0.454274
vt 0.266648 0.547039
vt 0.211914 0.557710
vt 0.254770 0.338041
vt 0.301479 0.368487
vt 0.335537 0.255961
vt 0.366861 0.302515
vt 0.324566 0.266463
vt 0.393784 0.429888
vt 0.375012 0.475862
vt 0.428761 0.394520
vt 0.375261 0.525462
vt 0.255956 0.664155
vt 0.302501 0.632792
vt 0.266465 0.675121
vt 0.394482 0.571172
vt 0.249738 0.650298
vt 0.787536 0.556317
vt 0.733269 0.545811
vt 0.732636 0.453082
vt 0.787303 0.442381
vt 0.744797 0.661901
vt 0.698126 0.631506
vt 0.674998 0.733422
vt 0.605873 0.570445
vt 0.624569 0.524507
vt 0.624240 0.475020
vt 0.556426 0.212184
vt 0.661794 0.255553
vt 0.631219 0.301752
vt 0.545381 0.266692
vt 0.442071 0.211990
vt 0.452632 0.266834
vt 0.349397 0.249751
vt 0.524355 0.375401
vt 0.474706 0.375460
vt 0.570205 0.394307
vt 0.743354 0.336161
vt 0.749532 0.349981
vt 0.696896 0.367349
vt 0.605277 0.429301
vt 0.732896 0.325216
s 1
f 3/1/3 2/2/2 6/3/6 7/4/7
f 4/5/4 3/1/3 7/4/7 8/6/8
f 1/7/1 14/8/14 5/9/5
f 8/6/8 7/4/7 11/10/11 12/11/12
f 5/9/5 8/6/8 12/11/12 9/12/9
f 7/4/7 6/3/6 10/13/10 11/10/11
f 11/10/11 10/13/10 13/14/13
f 12/11/12 11/10/11 13/14/13
f 9/12/9 12/11/12 13/14/13
f 5/9/5 14/8/14 4/5/4 8/6/8
f 17/15/17 21/16/21 20/17/20 16/18/16
f 18/19/18 22/20/22 21/16/21 17/15/17
f 15/21/15 19/22/19 27/23/27
f 22/20/22 26/24/26 25/25/25 21/16/21
f 19/22/19 23/26/23 26/24/26 22/20/22
f 21/16/21 25/25/25 24/27/24 20/17/20
f 25/25/25 13/14/13 24/27/24
f 26/24/26 13/14/13 25/25/25
f 23/26/23 13/14/13 26/24/26
f 19/22/19 22/20/22 18/19/18 27/23/27
f 28/28/28 29/29/29 31/30/31
f 29/29/29 30/31/30 10/13/10 6/3/6
f 30/31/30 13/14/13 10/13/10
f 29/29/29 6/3/6 2/2/2 31/30/31
f 28/28/28 32/32/32 29/29/29
f 29/29/29 20/17/20 24/27/24 30/31/30
f 30/31/30 24/27/24 13/14/13
f 29/29/29 32/32/32 16/18/16 20/17/20
f 34/33/34 37/34/37 36/35/36 33/36/33
f 35/37/35 38/38/38 37/34/37 34/33/34
f 1/7/1 5/9/5 42/39/42
f 38/38/38 41/40/41 40/41/40 37/34/37
f 5/9/5 9/12/9 41/40/41 38/38/38
f 37/34/37 40/41/40 39/42/39 36/35/36
f 40/41/40 13/14/13 39/42/39
f 41/40/41 13/14/13 40/41/40
f 9/12/9 13/14/13 41/40/41
f 5/9/5 38/38/38 35/37/35 42/39/42
f 44/43/44 43/44/43 46/45/46 47/46/47
f 45/47/45 44/43/44 47/46/47 48/48/48
f 15/21/15 52/49/52 19/22/19
f 48/48/48 47/46/47 50/50/50 51/51/51
f 19/22/19 48/48/48 51/51/51 23/26/23
f 47/46/47 46/45/46 49/52/49 50/50/50
f 50/50/50 49/52/49 13/14/13
f 51/51/51 50/50/50 13/14/13
f 23/26/23 51/51/51 13/14/13
f 19/22/19 52/49/52 45/47/45 48/48/48
f 53/53/53 56/54/56 54/55/54
f 54/55/54 36/35/36 39/42/39 55/56/55
f 55/56/55 39/42/39 13/14/13
f 54/55/54 56/54/56 33/36/33 36/35/36
f 53/53/53 54/55/54 57/57/57
f 54/55/54 55/56/55 49/52/49 46/45/46
f 55/56/55 13/14/13 49/52/49
f 54/55/54 46/45/46 43/44/43 57/57/57
