# Blender 4.1.0
# www.blender.org
o SL
v 0.014397 -0.062852 0.055161
v 0.014396 -0.063035 -0.054067
v 0.019606 -0.058034 0.068543
v 0.019606 -0.058262 -0.067465
v 0.024021 -0.044355 0.082632
v 0.024021 -0.044630 -0.081600
v 0.026971 -0.023902 0.092091
v 0.026971 -0.024209 -0.091127
v 0.028008 0.000210 0.095194
v 0.028008 -0.000107 -0.094310
v 0.026971 0.024312 0.092010
v 0.026971 0.024005 -0.091208
v 0.024021 0.044733 0.082483
v 0.024021 0.044458 -0.081749
v 0.019606 0.058365 0.068348
v 0.019606 0.058137 -0.067660
v 0.014397 0.063138 0.054950
v 0.014397 0.062955 -0.054278
v -0.017439 -0.063055 -0.054056
v -0.017439 0.062791 -0.054267
v -0.017439 0.057977 -0.068855
v 0.016796 0.057977 -0.068855
v -0.017439 0.044310 -0.085164
v 0.019496 0.044310 -0.085164
v -0.017439 0.023878 -0.095987
v 0.021608 0.023878 -0.095987
v -0.017439 -0.000207 -0.099075
v 0.022658 -0.000207 -0.099075
v -0.017439 -0.024281 -0.095906
v 0.021608 -0.024281 -0.095906
v -0.017439 -0.044677 -0.085015
v 0.019496 -0.044677 -0.085015
v -0.017439 -0.058289 -0.068660
v 0.016796 -0.058289 -0.068660
v -0.017439 -0.062872 0.055150
v -0.017439 0.062974 0.054939
v -0.017439 0.058209 0.069543
v 0.016796 0.058209 0.069543
v -0.017439 0.044596 0.085898
v 0.019496 0.044596 0.085898
v -0.017439 0.024201 0.096789
v 0.021608 0.024201 0.096789
v -0.017439 0.000126 0.099958
v 0.022658 0.000126 0.099959
v -0.017439 -0.023958 0.096870
v 0.021608 -0.023958 0.096870
v -0.017439 -0.044390 0.086047
v 0.019496 -0.044390 0.086047
v -0.017439 -0.058058 0.069738
v 0.016796 -0.058058 0.069738
vn 0.3011 -0.9455 0.1236
vn 0.3011 -0.9460 -0.1205
vn 0.7993 -0.5765 0.1694
vn 0.7993 -0.5771 -0.1674
vn 0.9378 -0.2993 0.1759
vn 0.9378 -0.2999 -0.1749
vn 0.9761 -0.1292 0.1749
vn 0.9761 -0.1297 -0.1745
vn 0.9849 0.0004 0.1733
vn 0.9849 -0.0002 -0.1733
vn 0.9760 0.1301 0.1749
vn 0.9760 0.1295 -0.1753
vn 0.9372 0.3011 0.1761
vn 0.9372 0.3005 -0.1771
vn 0.7953 0.5816 0.1711
vn 0.7953 0.5810 -0.1730
vn 0.2963 0.9471 0.1236
vn 0.2963 0.9466 -0.1268
vn 0.0004 -0.9883 -0.1525
vn -0.0038 0.9873 -0.1586
vn -0.0013 0.8778 -0.4791
vn 0.0922 0.8752 -0.4749
vn -0.0000 0.6374 -0.7705
vn 0.2533 0.6268 -0.7369
vn -0.0000 0.3071 -0.9517
vn 0.3807 0.3025 -0.8738
vn -0.0000 -0.0017 -1.0000
vn 0.4317 -0.0018 -0.9020
vn -0.0000 -0.3103 -0.9507
vn 0.3858 -0.3058 -0.8704
vn -0.0000 -0.6400 -0.7684
vn 0.2670 -0.6291 -0.7300
vn 0.0001 -0.8809 -0.4732
vn 0.1178 -0.8791 -0.4619
vn 0.0004 -0.9878 0.1558
vn -0.0038 0.9879 0.1552
vn -0.0013 0.8794 0.4761
vn 0.0922 0.8768 0.4720
vn -0.0000 0.6400 0.7684
vn 0.2533 0.6292 0.7348
vn -0.0000 0.3103 0.9507
vn 0.3807 0.3054 0.8728
vn -0.0000 0.0017 1.0000
vn 0.4317 0.0012 0.9020
vn -0.0000 -0.3071 0.9517
vn 0.3858 -0.3029 0.8714
vn -0.0000 -0.6374 0.7705
vn 0.2670 -0.6267 0.7321
vn 0.0001 -0.8793 0.4762
vn 0.1178 -0.8775 0.4648
vt 0.291458 0.259721
vt 0.708598 0.259022
vt 0.759764 0.277249
vt 0.240353 0.278119
vt 0.813745 0.329309
vt 0.186547 0.330360
vt 0.850128 0.407296
vt 0.150426 0.408468
vt 0.862286 0.499340
vt 0.138576 0.500552
vt 0.850436 0.591425
vt 0.150735 0.592596
vt 0.814315 0.669533
vt 0.187117 0.670584
vt 0.760509 0.721773
vt 0.241098 0.722644
vt 0.709404 0.740172
vt 0.292264 0.740871
vt 0.774203 0.814019
vt 0.227713 0.814934
vt 0.765072 0.721163
vt 0.847205 0.789927
vt 0.827356 0.668967
vt 0.928820 0.721533
vt 0.868688 0.590939
vt 0.982979 0.619287
vt 0.880482 0.498959
vt 0.998435 0.498762
vt 0.868379 0.407021
vt 0.982575 0.378289
vt 0.826787 0.329131
vt 0.928074 0.276225
vt 0.764328 0.277144
vt 0.846230 0.208105
vt 0.773148 0.184259
vt 0.226658 0.185174
vt 0.154631 0.791087
vt 0.236533 0.722048
vt 0.072787 0.722967
vt 0.174074 0.670062
vt 0.018286 0.620904
vt 0.132482 0.592172
vt 0.002427 0.500430
vt 0.120378 0.500233
vt 0.017882 0.379905
vt 0.132173 0.408254
vt 0.072041 0.277660
vt 0.173505 0.330225
vt 0.153656 0.209265
vt 0.235789 0.278030
s 1
f 1/1/1 2/2/2 4/3/4 3/4/3
f 3/4/3 4/3/4 6/5/6 5/6/5
f 5/6/5 6/5/6 8/7/8 7/8/7
f 7/8/7 8/7/8 10/9/10 9/10/9
f 9/10/9 10/9/10 12/11/12 11/12/11
f 11/12/11 12/11/12 14/13/14 13/14/13
f 13/14/13 14/13/14 16/15/16 15/16/15
f 15/16/15 16/15/16 18/17/18 17/18/17
f 18/17/18 20/19/20 36/20/36 17/18/17
f 20/19/20 18/17/18 22/21/22 21/22/21
f 21/22/21 22/21/22 24/23/24 23/24/23
f 23/24/23 24/23/24 26/25/26 25/26/25
f 25/26/25 26/25/26 28/27/28 27/28/27
f 27/28/27 28/27/28 30/29/30 29/30/29
f 29/30/29 30/29/30 32/31/32 31/32/31
f 31/32/31 32/31/32 34/33/34 33/34/33
f 33/34/33 34/33/34 2/2/2 19/35/19
f 18/17/18 16/15/16 22/21/22
f 16/15/16 14/13/14 24/23/24 22/21/22
f 14/13/14 12/11/12 26/25/26 24/23/24
f 12/11/12 10/9/10 28/27/28 26/25/26
f 10/9/10 8/7/8 30/29/30 28/27/28
f 8/7/8 6/5/6 32/31/32 30/29/30
f 6/5/6 4/3/4 34/33/34 32/31/32
f 2/2/2 34/33/34 4/3/4
f 19/35/19 2/2/2 1/1/1 35/36/35
f 36/20/36 37/37/37 38/38/38 17/18/17
f 37/37/37 39/39/39 40/40/40 38/38/38
f 39/39/39 41/41/41 42/42/42 40/40/40
f 41/41/41 43/43/43 44/44/44 42/42/42
f 43/43/43 45/45/45 46/46/46 44/44/44
f 45/45/45 47/47/47 48/48/48 46/46/46
f 47/47/47 49/49/49 50/50/50 48/48/48
f 49/49/49 35/36/35 1/1/1 50/50/50
f 17/18/17 38/38/38 15/16/15
f 15/16/15 38/38/38 40/40/40 13/14/13
f 13/14/13 40/40/40 42/42/42 11/12/11
f 11/12/11 42/42/42 44/44/44 9/10/9
f 9/10/9 44/44/44 46/46/46 7/8/7
f 7/8/7 46/46/46 48/48/48 5/6/5
f 5/6/5 48/48/48 50/50/50 3/4/3
f 1/1/1 3/4/3 50/50/50
