# Blender 4.1.0
# www.blender.org
o a_button
v 0.622071 0.189710 -0.377851
v 0.622071 0.215598 -0.377851
v 0.641521 0.189710 -0.373982
v 0.641521 0.215598 -0.373982
v 0.658009 0.189710 -0.362965
v 0.658009 0.215598 -0.362965
v 0.669026 0.189710 -0.346477
v 0.669026 0.215598 -0.346477
v 0.672894 0.189710 -0.327028
v 0.672894 0.215598 -0.327028
v 0.669026 0.189710 -0.307579
v 0.669026 0.215598 -0.307579
v 0.658009 0.189710 -0.291091
v 0.658009 0.215598 -0.291091
v 0.641521 0.189710 -0.280074
v 0.641521 0.215598 -0.280074
v 0.622071 0.189710 -0.276205
v 0.622071 0.215598 -0.276205
v 0.602622 0.189710 -0.280074
v 0.602622 0.215598 -0.280074
v 0.586134 0.189710 -0.291091
v 0.586134 0.215598 -0.291091
v 0.575117 0.189710 -0.307579
v 0.575117 0.215598 -0.307579
v 0.571249 0.189710 -0.327028
v 0.571249 0.215598 -0.327028
v 0.575117 0.189710 -0.346477
v 0.575117 0.215598 -0.346477
v 0.586134 0.189710 -0.362965
v 0.586134 0.215598 -0.362965
v 0.602622 0.189710 -0.373982
v 0.602622 0.215598 -0.373982
v 0.640239 0.219421 -0.370889
v 0.622071 0.219421 -0.374502
v 0.655641 0.219421 -0.360597
v 0.665932 0.219421 -0.345196
v 0.669546 0.219421 -0.327028
v 0.665932 0.219421 -0.308861
v 0.655641 0.219421 -0.293459
v 0.640239 0.219421 -0.283168
v 0.622071 0.219421 -0.279554
v 0.603904 0.219421 -0.283168
v 0.588502 0.219421 -0.293459
v 0.578211 0.219421 -0.308861
v 0.574597 0.219421 -0.327028
v 0.578211 0.219421 -0.345196
v 0.588502 0.219421 -0.360597
v 0.603904 0.219421 -0.370889
v 0.636971 0.222523 -0.362999
v 0.622071 0.222523 -0.365962
v 0.649602 0.222523 -0.354559
v 0.658042 0.222523 -0.341928
v 0.661006 0.222523 -0.327028
v 0.658042 0.222523 -0.312129
v 0.649602 0.222523 -0.299497
v 0.636971 0.222523 -0.291058
v 0.622071 0.222523 -0.288094
v 0.607172 0.222523 -0.291058
v 0.594541 0.222523 -0.299497
v 0.586101 0.222523 -0.312129
v 0.583137 0.222523 -0.327028
v 0.586101 0.222523 -0.341928
v 0.594541 0.222523 -0.354559
v 0.607172 0.222523 -0.362999
v 0.622072 0.224556 -0.327028
vn -0.0000 -0.0000 -1.0000
vn -0.0000 0.3383 -0.9410
vn 0.3827 -0.0000 -0.9239
vn 0.3601 0.3383 -0.8694
vn 0.7071 -0.0000 -0.7071
vn 0.6654 0.3383 -0.6654
vn 0.9239 -0.0000 -0.3827
vn 0.8694 0.3383 -0.3601
vn 1.0000 -0.0000 -0.0000
vn 0.9410 0.3383 -0.0000
vn 0.9239 -0.0000 0.3827
vn 0.8694 0.3383 0.3601
vn 0.7071 -0.0000 0.7071
vn 0.6654 0.3383 0.6654
vn 0.3827 -0.0000 0.9239
vn 0.3601 0.3383 0.8694
vn -0.0000 -0.0000 1.0000
vn -0.0000 0.3383 0.9410
vn -0.3827 -0.0000 0.9239
vn -0.3601 0.3383 0.8694
vn -0.7071 -0.0000 0.7071
vn -0.6654 0.3383 0.6654
vn -0.9239 -0.0000 0.3827
vn -0.8694 0.3383 0.3601
vn -1.0000 -0.0000 -0.0000
vn -0.9410 0.3383 -0.0000
vn -0.9239 -0.0000 -0.3827
vn -0.8694 0.3383 -0.3601
vn -0.7071 -0.0000 -0.7071
vn -0.6654 0.3383 -0.6654
vn -0.3827 -0.0000 -0.9239
vn -0.3601 0.3383 -0.8694
vn 0.2239 0.8110 -0.5405
vn -0.0000 0.8110 -0.5850
vn 0.4137 0.8110 -0.4137
vn 0.5405 0.8110 -0.2239
vn 0.5850 0.8110 -0.0000
vn 0.5405 0.8110 0.2239
vn 0.4137 0.8110 0.4137
vn 0.2239 0.8110 0.5405
vn -0.0000 0.8110 0.5850
vn -0.2239 0.8110 0.5405
vn -0.4137 0.8110 0.4137
vn -0.5405 0.8110 0.2239
vn -0.5850 0.8110 -0.0000
vn -0.5405 0.8110 -0.2239
vn -0.4137 0.8110 -0.4137
vn -0.2239 0.8110 -0.5405
vn 0.0829 0.9763 -0.2000
vn -0.0000 0.9763 -0.2165
vn 0.1531 0.9763 -0.1531
vn 0.2000 0.9763 -0.0829
vn 0.2165 0.9763 -0.0000
vn 0.2000 0.9763 0.0829
vn 0.1531 0.9763 0.1531
vn 0.0829 0.9763 0.2000
vn -0.0000 0.9763 0.2165
vn -0.0829 0.9763 0.2000
vn -0.1531 0.9763 0.1531
vn -0.2000 0.9763 0.0829
vn -0.2165 0.9763 -0.0000
vn -0.2000 0.9763 -0.0829
vn -0.1531 0.9763 -0.1531
vn -0.0829 0.9763 -0.2000
vn -0.0000 1.0000 -0.0000
vt 0.000101 0.401397
vt 0.204793 0.446219
vt 0.205891 0.563486
vt 0.000101 0.600284
vt 0.253052 0.670923
vt 0.076770 0.784112
vt 0.337211 0.752546
vt 0.217821 0.924409
vt 0.446391 0.795114
vt 0.401733 0.999900
vt 0.563672 0.794037
vt 0.600446 0.999793
vt 0.671205 0.747339
vt 0.784193 0.923319
vt 0.752482 0.662948
vt 0.924312 0.782158
vt 0.795153 0.553913
vt 0.999513 0.598423
vt 0.793576 0.436836
vt 0.999164 0.400150
vt 0.747047 0.329296
vt 0.923194 0.216811
vt 0.663264 0.247279
vt 0.782847 0.076125
vt 0.554024 0.204872
vt 0.598960 0.000179
vt 0.436774 0.205882
vt 0.400097 0.000100
vt 0.329360 0.252989
vt 0.216267 0.076655
vt 0.278277 0.653762
vt 0.353914 0.727124
vt 0.247742 0.337182
vt 0.075889 0.217588
vt 0.557291 0.764103
vt 0.451855 0.765224
vt 0.461075 0.714651
vt 0.546189 0.713571
vt 0.727035 0.646278
vt 0.765327 0.548479
vt 0.234660 0.451731
vt 0.235792 0.557051
vt 0.548554 0.234775
vt 0.443188 0.235776
vt 0.654099 0.722161
vt 0.722086 0.346812
vt 0.646701 0.272964
vt 0.273169 0.353934
vt 0.763888 0.443501
vt 0.346518 0.278209
vt 0.381835 0.683634
vt 0.320687 0.624312
vt 0.500163 0.500023
vt 0.539301 0.285390
vt 0.454066 0.286415
vt 0.624559 0.679634
vt 0.375936 0.320575
vt 0.683731 0.618173
vt 0.316689 0.381617
vt 0.714810 0.538999
vt 0.285380 0.460767
vt 0.286484 0.546128
vt 0.713490 0.454009
vt 0.679656 0.376006
vt 0.618635 0.316474
s 1
f 1/1/1 2/2/2 4/3/4 3/4/3
f 3/4/3 4/3/4 6/5/6 5/6/5
f 5/6/5 6/5/6 8/7/8 7/8/7
f 7/8/7 8/7/8 10/9/10 9/10/9
f 9/10/9 10/9/10 12/11/12 11/12/11
f 11/12/11 12/11/12 14/13/14 13/14/13
f 13/14/13 14/13/14 16/15/16 15/16/15
f 15/16/15 16/15/16 18/17/18 17/18/17
f 17/18/17 18/17/18 20/19/20 19/20/19
f 19/20/19 20/19/20 22/21/22 21/22/21
f 21/22/21 22/21/22 24/23/24 23/24/23
f 23/24/23 24/23/24 26/25/26 25/26/25
f 25/26/25 26/25/26 28/27/28 27/28/27
f 27/28/27 28/27/28 30/29/30 29/30/29
f 8/7/8 6/5/6 35/31/35 36/32/36
f 29/30/29 30/29/30 32/33/32 31/34/31
f 31/34/31 32/33/32 2/2/2 1/1/1
f 38/35/38 37/36/37 53/37/53 54/38/54
f 18/17/18 16/15/16 40/39/40 41/40/41
f 4/3/4 2/2/2 34/41/34 33/42/33
f 28/27/28 26/25/26 45/43/45 46/44/46
f 14/13/14 12/11/12 38/35/38 39/45/39
f 24/23/24 22/21/22 43/46/43 44/47/44
f 2/2/2 32/33/32 48/48/48 34/41/34
f 10/9/10 8/7/8 36/32/36 37/36/37
f 20/19/20 18/17/18 41/40/41 42/49/42
f 30/29/30 28/27/28 46/44/46 47/50/47
f 6/5/6 4/3/4 33/42/33 35/31/35
f 16/15/16 14/13/14 39/45/39 40/39/40
f 26/25/26 24/23/24 44/47/44 45/43/45
f 12/11/12 10/9/10 37/36/37 38/35/38
f 22/21/22 20/19/20 42/49/42 43/46/43
f 32/33/32 30/29/30 47/50/47 48/48/48
f 52/51/52 51/52/51 65/53/65
f 46/44/46 45/43/45 61/54/61 62/55/62
f 39/45/39 38/35/38 54/38/54 55/56/55
f 47/50/47 46/44/46 62/55/62 63/57/63
f 40/39/40 39/45/39 55/56/55 56/58/56
f 48/48/48 47/50/47 63/57/63 64/59/64
f 41/40/41 40/39/40 56/58/56 57/60/57
f 33/42/33 34/41/34 50/61/50 49/62/49
f 34/41/34 48/48/48 64/59/64 50/61/50
f 42/49/42 41/40/41 57/60/57 58/63/58
f 35/31/35 33/42/33 49/62/49 51/52/51
f 43/46/43 42/49/42 58/63/58 59/64/59
f 36/32/36 35/31/35 51/52/51 52/51/52
f 44/47/44 43/46/43 59/64/59 60/65/60
f 37/36/37 36/32/36 52/51/52 53/37/53
f 45/43/45 44/47/44 60/65/60 61/54/61
f 60/65/60 59/64/59 65/53/65
f 53/37/53 52/51/52 65/53/65
f 61/54/61 60/65/60 65/53/65
f 54/38/54 53/37/53 65/53/65
f 62/55/62 61/54/61 65/53/65
f 55/56/55 54/38/54 65/53/65
f 63/57/63 62/55/62 65/53/65
f 56/58/56 55/56/55 65/53/65
f 64/59/64 63/57/63 65/53/65
f 57/60/57 56/58/56 65/53/65
f 49/62/49 50/61/50 65/53/65
f 50/61/50 64/59/64 65/53/65
f 58/63/58 57/60/57 65/53/65
f 51/52/51 49/62/49 65/53/65
f 59/64/59 58/63/58 65/53/65
