# Blender 4.1.0
# www.blender.org
o minus_button
v -0.403662 0.207334 -0.543909
v -0.403662 0.204591 -0.542279
v -0.403662 0.204552 -0.566002
v -0.406311 0.204589 -0.543717
v -0.406362 0.190822 -0.543679
v -0.407634 0.204558 -0.562139
v -0.403662 0.208431 -0.562146
v -0.407634 0.204584 -0.546856
v -0.403662 0.208457 -0.546862
v -0.406329 0.204554 -0.564614
v -0.406377 0.190787 -0.564567
v -0.406280 0.206927 -0.562143
v -0.406212 0.207018 -0.546860
v -0.403784 0.190824 -0.542256
v -0.407634 0.190791 -0.562206
v -0.407634 0.190817 -0.546827
v -0.403599 0.190784 -0.565979
v -0.403662 0.207098 -0.564852
v -0.405285 0.206924 -0.563649
v -0.405309 0.207332 -0.544909
v -0.337762 0.207334 -0.543909
v -0.335114 0.204589 -0.543717
v -0.335063 0.190822 -0.543679
v -0.337762 0.204552 -0.566002
v -0.337762 0.204591 -0.542279
v -0.333790 0.204558 -0.562139
v -0.337762 0.208431 -0.562146
v -0.333790 0.204584 -0.546856
v -0.337762 0.208457 -0.546862
v -0.335096 0.204554 -0.564614
v -0.335048 0.190787 -0.564567
v -0.335144 0.206927 -0.562143
v -0.335212 0.207018 -0.546860
v -0.337640 0.190824 -0.542256
v -0.333790 0.190791 -0.562206
v -0.333790 0.190817 -0.546827
v -0.337825 0.190784 -0.565979
v -0.337762 0.207098 -0.564852
v -0.336139 0.206924 -0.563649
v -0.336116 0.207332 -0.544909
vn -0.1825 0.7323 0.6561
vn -0.2343 0.2543 0.9383
vn -0.2398 0.2142 -0.9469
vn -0.7217 0.2427 0.6482
vn -0.7449 0.0040 0.6671
vn -0.9397 0.2506 -0.2327
vn -0.2361 0.9494 -0.2072
vn -0.9520 0.2460 0.1820
vn -0.2204 0.9648 0.1437
vn -0.6912 0.2292 -0.6854
vn -0.7032 -0.0003 -0.7110
vn -0.7052 0.6799 -0.2009
vn -0.7223 0.6805 0.1233
vn -0.2491 0.0034 0.9685
vn -0.9702 0.0010 -0.2422
vn -0.9809 0.0013 0.1946
vn -0.2346 -0.0021 -0.9721
vn -0.2265 0.6694 -0.7076
vn -0.5578 0.6488 -0.5175
vn -0.5439 0.7149 0.4395
vn 0.1825 0.7323 0.6561
vn 0.7217 0.2427 0.6482
vn 0.7449 0.0040 0.6671
vn 0.2398 0.2142 -0.9469
vn 0.2343 0.2543 0.9383
vn 0.9397 0.2506 -0.2327
vn 0.2361 0.9494 -0.2072
vn 0.9520 0.2460 0.1820
vn 0.2204 0.9648 0.1437
vn 0.6912 0.2292 -0.6854
vn 0.7032 -0.0003 -0.7110
vn 0.7052 0.6799 -0.2009
vn 0.7223 0.6805 0.1233
vn 0.2491 0.0034 0.9685
vn 0.9702 0.0010 -0.2422
vn 0.9809 0.0013 0.1946
vn 0.2346 -0.0021 -0.9721
vn 0.2265 0.6694 -0.7076
vn 0.5578 0.6488 -0.5175
vn 0.5439 0.7149 0.4395
vt 0.172162 0.219122
vt 0.293982 0.219839
vt 0.293083 0.244012
vt 0.173706 0.243345
vt 0.037218 0.068709
vt 0.144288 0.209175
vt 0.124340 0.232421
vt 0.000071 0.101118
vt 0.326716 0.209686
vt 0.347172 0.232586
vt 0.318970 0.241669
vt 0.309047 0.229284
vt 0.442919 0.031005
vt 0.490528 0.064554
vt 0.297517 0.195007
vt 0.167799 0.195446
vt 0.159626 0.227398
vt 0.149043 0.240806
vt 0.071441 0.043764
vt 0.383966 0.000071
vt 0.182692 0.785388
vt 0.184150 0.761040
vt 0.303641 0.760788
vt 0.304625 0.784989
vt 0.040242 0.939090
vt 0.001649 0.904811
vt 0.134912 0.772049
vt 0.154677 0.795312
vt 0.358848 0.772272
vt 0.329845 0.762921
vt 0.337574 0.795373
vt 0.319784 0.775507
vt 0.490528 0.939406
vt 0.444678 0.970679
vt 0.159641 0.763686
vt 0.308065 0.809815
vt 0.178263 0.809241
vt 0.170132 0.777068
vt 0.075745 0.965342
vt 0.387880 0.999930
s 1
f 12/1/12 13/2/13 9/3/9 7/4/7
f 11/5/11 10/6/10 3/7/3 17/8/17
f 4/9/4 2/10/2 1/11/1 20/12/20
f 4/9/4 5/13/5 14/14/14 2/10/2
f 8/15/8 13/2/13 12/1/12 6/16/6
f 6/16/6 12/1/12 19/17/19 10/6/10
f 10/6/10 19/17/19 18/18/18 3/7/3
f 9/3/9 13/2/13 20/12/20
f 6/16/6 10/6/10 11/5/11 15/19/15
f 16/20/16 5/13/5 4/9/4 8/15/8
f 15/19/15 16/20/16 8/15/8 6/16/6
f 19/17/19 12/1/12 7/4/7
f 18/18/18 19/17/19 7/4/7
f 20/12/20 13/2/13 8/15/8 4/9/4
f 20/12/20 1/11/1 9/3/9
f 32/21/32 27/22/27 29/23/29 33/24/33
f 31/25/31 37/26/37 24/27/24 30/28/30
f 2/10/2 25/29/25 21/30/21 1/11/1
f 22/31/22 40/32/40 21/30/21 25/29/25
f 22/31/22 25/29/25 34/33/34 23/34/23
f 27/22/27 38/35/38 18/18/18 7/4/7
f 29/23/29 27/22/27 7/4/7 9/3/9
f 28/36/28 26/37/26 32/21/32 33/24/33
f 26/37/26 30/28/30 39/38/39 32/21/32
f 30/28/30 24/27/24 38/35/38 39/38/39
f 29/23/29 40/32/40 33/24/33
f 26/37/26 35/39/35 31/25/31 30/28/30
f 21/30/21 29/23/29 9/3/9 1/11/1
f 36/40/36 28/36/28 22/31/22 23/34/23
f 35/39/35 26/37/26 28/36/28 36/40/36
f 17/8/17 3/7/3 24/27/24 37/26/37
f 34/33/34 25/29/25 2/10/2 14/14/14
f 38/35/38 24/27/24 3/7/3 18/18/18
f 39/38/39 27/22/27 32/21/32
f 38/35/38 27/22/27 39/38/39
f 40/32/40 22/31/22 28/36/28 33/24/33
f 40/32/40 29/23/29 21/30/21
