# Blender 4.1.0
# www.blender.org
o left_button
v -0.624003 0.188780 0.004141
v -0.624003 0.214678 0.004097
v -0.604546 0.188787 0.008011
v -0.604546 0.214685 0.007967
v -0.588051 0.188805 0.019032
v -0.588051 0.214703 0.018989
v -0.577030 0.188833 0.035526
v -0.577030 0.214731 0.035483
v -0.573160 0.188866 0.054983
v -0.573160 0.214763 0.054940
v -0.577030 0.188898 0.074440
v -0.577030 0.214796 0.074396
v -0.588051 0.188926 0.090934
v -0.588051 0.214823 0.090891
v -0.604546 0.188944 0.101955
v -0.604546 0.214842 0.101912
v -0.624003 0.188951 0.105826
v -0.624003 0.214848 0.105782
v -0.643459 0.188944 0.101955
v -0.643459 0.214842 0.101912
v -0.659954 0.188926 0.090934
v -0.659954 0.214823 0.090891
v -0.670975 0.188898 0.074440
v -0.670975 0.214796 0.074396
v -0.674845 0.188866 0.054983
v -0.674845 0.214763 0.054940
v -0.670975 0.188833 0.035526
v -0.670975 0.214731 0.035483
v -0.659954 0.188805 0.019032
v -0.659954 0.214703 0.018989
v -0.643459 0.188787 0.008011
v -0.643459 0.214685 0.007967
v -0.605828 0.218515 0.011056
v -0.624003 0.218509 0.007441
v -0.590420 0.218532 0.021351
v -0.580125 0.218558 0.036759
v -0.576510 0.218588 0.054933
v -0.580125 0.218619 0.073108
v -0.590420 0.218644 0.088516
v -0.605828 0.218662 0.098811
v -0.624003 0.218668 0.102426
v -0.642177 0.218662 0.098811
v -0.657585 0.218644 0.088516
v -0.667880 0.218619 0.073108
v -0.671495 0.218588 0.054933
v -0.667880 0.218558 0.036759
v -0.657585 0.218532 0.021351
v -0.642177 0.218515 0.011056
v -0.609097 0.221631 0.018944
v -0.624003 0.221626 0.015979
v -0.596461 0.221645 0.027387
v -0.588018 0.221666 0.040023
v -0.585053 0.221691 0.054928
v -0.588018 0.221716 0.069833
v -0.596461 0.221737 0.082469
v -0.609097 0.221751 0.090913
v -0.624003 0.221756 0.093877
v -0.638908 0.221751 0.090913
v -0.651544 0.221737 0.082469
v -0.659987 0.221716 0.069833
v -0.662952 0.221691 0.054928
v -0.659987 0.221666 0.040023
v -0.651544 0.221645 0.027387
v -0.638908 0.221631 0.018944
v -0.624002 0.223725 0.054925
vn -0.0000 -0.0017 -1.0000
vn -0.0000 0.3367 -0.9416
vn 0.3827 -0.0015 -0.9239
vn 0.3601 0.3369 -0.8700
vn 0.7071 -0.0012 -0.7071
vn 0.6654 0.3372 -0.6660
vn 0.9239 -0.0006 -0.3827
vn 0.8694 0.3377 -0.3607
vn 1.0000 -0.0000 -0.0000
vn 0.9410 0.3383 -0.0006
vn 0.9239 0.0006 0.3827
vn 0.8694 0.3389 0.3595
vn 0.7071 0.0012 0.7071
vn 0.6654 0.3394 0.6648
vn 0.3827 0.0015 0.9239
vn 0.3601 0.3398 0.8688
vn -0.0000 0.0017 1.0000
vn -0.0000 0.3399 0.9405
vn -0.3827 0.0015 0.9239
vn -0.3601 0.3398 0.8688
vn -0.7071 0.0012 0.7071
vn -0.6654 0.3394 0.6648
vn -0.9239 0.0006 0.3827
vn -0.8694 0.3389 0.3595
vn -1.0000 -0.0000 -0.0000
vn -0.9410 0.3383 -0.0006
vn -0.9239 -0.0006 -0.3827
vn -0.8694 0.3377 -0.3607
vn -0.7071 -0.0012 -0.7071
vn -0.6654 0.3372 -0.6660
vn -0.3827 -0.0015 -0.9239
vn -0.3601 0.3369 -0.8700
vn 0.2239 0.8101 -0.5418
vn -0.0000 0.8100 -0.5864
vn 0.4137 0.8103 -0.4150
vn 0.5405 0.8106 -0.2252
vn 0.5850 0.8110 -0.0014
vn 0.5405 0.8114 0.2225
vn 0.4137 0.8117 0.4123
vn 0.2239 0.8119 0.5391
vn -0.0000 0.8120 0.5837
vn -0.2239 0.8119 0.5391
vn -0.4137 0.8117 0.4123
vn -0.5405 0.8114 0.2225
vn -0.5850 0.8110 -0.0014
vn -0.5405 0.8106 -0.2252
vn -0.4137 0.8103 -0.4150
vn -0.2239 0.8101 -0.5418
vn 0.0829 0.9759 -0.2017
vn -0.0000 0.9759 -0.2182
vn 0.1531 0.9760 -0.1547
vn 0.2000 0.9761 -0.0845
vn 0.2165 0.9763 -0.0016
vn 0.2000 0.9764 0.0812
vn 0.1531 0.9765 0.1515
vn 0.0829 0.9766 0.1984
vn -0.0000 0.9766 0.2149
vn -0.0829 0.9766 0.1984
vn -0.1531 0.9765 0.1515
vn -0.2000 0.9764 0.0812
vn -0.2165 0.9763 -0.0016
vn -0.2000 0.9761 -0.0845
vn -0.1531 0.9760 -0.1547
vn -0.0829 0.9759 -0.2017
vn -0.0000 1.0000 -0.0017
vt 0.782082 0.924419
vt 0.669895 0.747927
vt 0.751977 0.664032
vt 0.923257 0.784085
vt 0.794905 0.554856
vt 0.999635 0.600030
vt 0.793515 0.437502
vt 0.999671 0.400822
vt 0.746312 0.329991
vt 0.923123 0.216849
vt 0.662650 0.247616
vt 0.782363 0.075988
vt 0.553371 0.204804
vt 0.597988 0.000100
vt 0.436114 0.206864
vt 0.398910 0.000854
vt 0.328753 0.253734
vt 0.215639 0.077638
vt 0.246881 0.337493
vt 0.075592 0.218263
vt 0.204392 0.446610
vt 0.000100 0.401851
vt 0.205369 0.563686
vt 0.000100 0.600196
vt 0.252494 0.670810
vt 0.076348 0.783490
vt 0.335955 0.752912
vt 0.216536 0.923806
vt 0.445033 0.795337
vt 0.399996 0.999578
vt 0.765006 0.549367
vt 0.763577 0.443969
vt 0.562151 0.794129
vt 0.598309 0.999900
vt 0.646002 0.273303
vt 0.721239 0.347266
vt 0.678832 0.376500
vt 0.617787 0.316856
vt 0.442294 0.236673
vt 0.345992 0.278699
vt 0.652402 0.722945
vt 0.726263 0.647378
vt 0.277474 0.653576
vt 0.352518 0.727296
vt 0.547674 0.234760
vt 0.234250 0.452093
vt 0.235195 0.557281
vt 0.555574 0.764405
vt 0.272556 0.354043
vt 0.450491 0.765487
vt 0.712888 0.454614
vt 0.714136 0.540030
vt 0.499149 0.500574
vt 0.319753 0.624405
vt 0.380588 0.683892
vt 0.538222 0.285603
vt 0.459745 0.715000
vt 0.452991 0.287172
vt 0.544668 0.714060
vt 0.374990 0.321164
vt 0.622973 0.680528
vt 0.682613 0.619442
vt 0.315771 0.382250
vt 0.284746 0.461357
vt 0.285736 0.546428
s 1
f 1/1/1 2/2/2 4/3/4 3/4/3
f 3/4/3 4/3/4 6/5/6 5/6/5
f 5/6/5 6/5/6 8/7/8 7/8/7
f 7/8/7 8/7/8 10/9/10 9/10/9
f 9/10/9 10/9/10 12/11/12 11/12/11
f 11/12/11 12/11/12 14/13/14 13/14/13
f 13/14/13 14/13/14 16/15/16 15/16/15
f 15/16/15 16/15/16 18/17/18 17/18/17
f 17/18/17 18/17/18 20/19/20 19/20/19
f 19/20/19 20/19/20 22/21/22 21/22/21
f 21/22/21 22/21/22 24/23/24 23/24/23
f 23/24/23 24/23/24 26/25/26 25/26/25
f 25/26/25 26/25/26 28/27/28 27/28/27
f 27/28/27 28/27/28 30/29/30 29/30/29
f 8/7/8 6/5/6 35/31/35 36/32/36
f 29/30/29 30/29/30 32/33/32 31/34/31
f 31/34/31 32/33/32 2/2/2 1/1/1
f 38/35/38 37/36/37 53/37/53 54/38/54
f 18/17/18 16/15/16 40/39/40 41/40/41
f 4/3/4 2/2/2 34/41/34 33/42/33
f 28/27/28 26/25/26 45/43/45 46/44/46
f 14/13/14 12/11/12 38/35/38 39/45/39
f 24/23/24 22/21/22 43/46/43 44/47/44
f 2/2/2 32/33/32 48/48/48 34/41/34
f 10/9/10 8/7/8 36/32/36 37/36/37
f 20/19/20 18/17/18 41/40/41 42/49/42
f 30/29/30 28/27/28 46/44/46 47/50/47
f 6/5/6 4/3/4 33/42/33 35/31/35
f 16/15/16 14/13/14 39/45/39 40/39/40
f 26/25/26 24/23/24 44/47/44 45/43/45
f 12/11/12 10/9/10 37/36/37 38/35/38
f 22/21/22 20/19/20 42/49/42 43/46/43
f 32/33/32 30/29/30 47/50/47 48/48/48
f 52/51/52 51/52/51 65/53/65
f 46/44/46 45/43/45 61/54/61 62/55/62
f 39/45/39 38/35/38 54/38/54 55/56/55
f 47/50/47 46/44/46 62/55/62 63/57/63
f 40/39/40 39/45/39 55/56/55 56/58/56
f 48/48/48 47/50/47 63/57/63 64/59/64
f 41/40/41 40/39/40 56/58/56 57/60/57
f 33/42/33 34/41/34 50/61/50 49/62/49
f 34/41/34 48/48/48 64/59/64 50/61/50
f 42/49/42 41/40/41 57/60/57 58/63/58
f 35/31/35 33/42/33 49/62/49 51/52/51
f 43/46/43 42/49/42 58/63/58 59/64/59
f 36/32/36 35/31/35 51/52/51 52/51/52
f 44/47/44 43/46/43 59/64/59 60/65/60
f 37/36/37 36/32/36 52/51/52 53/37/53
f 45/43/45 44/47/44 60/65/60 61/54/61
f 60/65/60 59/64/59 65/53/65
f 53/37/53 52/51/52 65/53/65
f 61/54/61 60/65/60 65/53/65
f 54/38/54 53/37/53 65/53/65
f 62/55/62 61/54/61 65/53/65
f 55/56/55 54/38/54 65/53/65
f 63/57/63 62/55/62 65/53/65
f 56/58/56 55/56/55 65/53/65
f 64/59/64 63/57/63 65/53/65
f 57/60/57 56/58/56 65/53/65
f 49/62/49 50/61/50 65/53/65
f 50/61/50 64/59/64 65/53/65
f 58/63/58 57/60/57 65/53/65
f 51/52/51 49/62/49 65/53/65
f 59/64/59 58/63/58 65/53/65
