# Blender 4.1.0
# www.blender.org
o home_button
v 0.433846 0.190755 0.276027
v 0.433846 0.202232 0.276027
v 0.454868 0.190755 0.280209
v 0.454868 0.202232 0.280209
v 0.472689 0.190755 0.292117
v 0.472689 0.202232 0.292117
v 0.484597 0.190755 0.309938
v 0.484597 0.202232 0.309938
v 0.488779 0.190755 0.330960
v 0.488779 0.202232 0.330960
v 0.484597 0.190755 0.351982
v 0.484597 0.202232 0.351982
v 0.472689 0.190755 0.369803
v 0.472689 0.202232 0.369803
v 0.454868 0.190755 0.381711
v 0.454868 0.202232 0.381711
v 0.433846 0.190755 0.385892
v 0.433846 0.202232 0.385892
v 0.412825 0.190755 0.381711
v 0.412825 0.202232 0.381711
v 0.395003 0.190755 0.369803
v 0.395003 0.202232 0.369803
v 0.383095 0.190755 0.351982
v 0.383095 0.202232 0.351982
v 0.378914 0.190755 0.330960
v 0.378914 0.202232 0.330960
v 0.383095 0.190755 0.309938
v 0.383095 0.202232 0.309938
v 0.395003 0.190755 0.292117
v 0.395003 0.202232 0.292117
v 0.412825 0.190755 0.280209
v 0.412825 0.202232 0.280209
v 0.454183 0.204612 0.281864
v 0.433847 0.204612 0.277819
v 0.471423 0.204612 0.293384
v 0.482942 0.204612 0.310624
v 0.486988 0.204611 0.330960
v 0.482942 0.204611 0.351296
v 0.471423 0.204611 0.368536
v 0.454183 0.204611 0.380056
v 0.433847 0.204611 0.384101
v 0.413511 0.204611 0.380056
v 0.396270 0.204611 0.368536
v 0.384751 0.204611 0.351296
v 0.380706 0.204611 0.330960
v 0.384751 0.204612 0.310624
v 0.396270 0.204612 0.293384
v 0.413511 0.204612 0.281864
v 0.448881 0.207469 0.294662
v 0.433847 0.207469 0.291672
v 0.461627 0.207469 0.303179
v 0.470144 0.207469 0.315925
v 0.473135 0.207469 0.330960
v 0.470144 0.207469 0.345995
v 0.461627 0.207469 0.358741
v 0.448881 0.207469 0.367257
v 0.433847 0.207469 0.370248
v 0.418812 0.207469 0.367257
v 0.406066 0.207469 0.358741
v 0.397549 0.207469 0.345995
v 0.394559 0.207469 0.330960
v 0.397549 0.207469 0.315925
v 0.406066 0.207469 0.303179
v 0.418812 0.207469 0.294662
v 0.433847 0.207469 0.330960
vn -0.0000 -0.0000 -1.0000
vn -0.0000 0.3059 -0.9521
vn 0.3827 -0.0000 -0.9239
vn 0.3643 0.3059 -0.8796
vn 0.7071 -0.0000 -0.7071
vn 0.6732 0.3059 -0.6732
vn 0.9239 -0.0000 -0.3827
vn 0.8796 0.3059 -0.3643
vn 1.0000 -0.0000 -0.0000
vn 0.9521 0.3058 -0.0000
vn 0.9239 -0.0000 0.3827
vn 0.8796 0.3059 0.3643
vn 0.7071 -0.0000 0.7071
vn 0.6732 0.3059 0.6732
vn 0.3827 -0.0000 0.9239
vn 0.3643 0.3059 0.8796
vn -0.0000 -0.0000 1.0000
vn -0.0000 0.3059 0.9521
vn -0.3827 -0.0000 0.9239
vn -0.3643 0.3059 0.8796
vn -0.7071 -0.0000 0.7071
vn -0.6732 0.3059 0.6732
vn -0.9239 -0.0000 0.3827
vn -0.8796 0.3059 0.3643
vn -1.0000 -0.0000 -0.0000
vn -0.9521 0.3059 -0.0000
vn -0.9239 -0.0000 -0.3827
vn -0.8796 0.3059 -0.3643
vn -0.7071 -0.0000 -0.7071
vn -0.6732 0.3059 -0.6732
vn -0.3827 -0.0000 -0.9239
vn -0.3643 0.3059 -0.8796
vn 0.2162 0.8251 -0.5219
vn -0.0000 0.8251 -0.5649
vn 0.3995 0.8251 -0.3995
vn 0.5219 0.8251 -0.2162
vn 0.5650 0.8251 -0.0000
vn 0.5219 0.8251 0.2162
vn 0.3995 0.8251 0.3995
vn 0.2162 0.8251 0.5219
vn -0.0000 0.8251 0.5649
vn -0.2162 0.8252 0.5219
vn -0.3994 0.8252 0.3995
vn -0.5219 0.8252 0.2162
vn -0.5649 0.8252 -0.0000
vn -0.5219 0.8252 -0.2162
vn -0.3994 0.8252 -0.3995
vn -0.2162 0.8252 -0.5219
vn 0.0436 0.9935 -0.1054
vn -0.0000 0.9935 -0.1141
vn 0.0806 0.9935 -0.0806
vn 0.1054 0.9935 -0.0436
vn 0.1141 0.9935 -0.0000
vn 0.1054 0.9935 0.0436
vn 0.0806 0.9935 0.0806
vn 0.0436 0.9935 0.1054
vn -0.0000 0.9935 0.1141
vn -0.0436 0.9935 0.1054
vn -0.0806 0.9935 0.0806
vn -0.1054 0.9935 0.0436
vn -0.1140 0.9935 -0.0000
vn -0.1054 0.9935 -0.0436
vn -0.0806 0.9935 -0.0806
vn -0.0436 0.9935 -0.1054
vn -0.0000 1.0000 -0.0000
vt 0.215718 0.924958
vt 0.270047 0.844925
vt 0.415419 0.904665
vt 0.395708 0.999901
vt 0.573444 0.903532
vt 0.591726 0.999618
vt 0.720017 0.842796
vt 0.773631 0.924954
vt 0.832378 0.730215
vt 0.913739 0.785690
vt 0.892793 0.582332
vt 0.989612 0.602517
vt 0.892767 0.422178
vt 0.990178 0.403685
vt 0.830126 0.274068
vt 0.913466 0.219236
vt 0.715468 0.160267
vt 0.771703 0.077092
vt 0.564015 0.100393
vt 0.584034 0.000100
vt 0.400743 0.104895
vt 0.376506 0.000100
vt 0.252906 0.171541
vt 0.191597 0.091881
vt 0.145703 0.289720
vt 0.062012 0.241363
vt 0.090024 0.436646
vt 0.000100 0.422321
vt 0.096050 0.592177
vt 0.003335 0.611589
vt 0.569077 0.881351
vt 0.707503 0.823888
vt 0.158614 0.734926
vt 0.078714 0.788278
vt 0.811152 0.287089
vt 0.702963 0.179714
vt 0.282489 0.826304
vt 0.419827 0.882624
vt 0.164976 0.301509
vt 0.112207 0.440266
vt 0.870359 0.578079
vt 0.870363 0.426877
vt 0.406054 0.127457
vt 0.266389 0.190154
vt 0.177046 0.722363
vt 0.813480 0.717668
vt 0.560213 0.123395
vt 0.117707 0.587283
vt 0.429635 0.228424
vt 0.327215 0.273997
vt 0.650014 0.739496
vt 0.727866 0.661037
vt 0.251514 0.354969
vt 0.769583 0.558506
vt 0.212638 0.457043
vt 0.769165 0.447540
vt 0.215690 0.565912
vt 0.725646 0.345192
vt 0.259414 0.665456
vt 0.646049 0.266930
vt 0.337366 0.741600
vt 0.438947 0.782758
vt 0.541845 0.226051
vt 0.548683 0.781889
vt 0.490696 0.506030
s 1
f 1/1/1 2/2/2 4/3/4 3/4/3
f 3/4/3 4/3/4 6/5/6 5/6/5
f 5/6/5 6/5/6 8/7/8 7/8/7
f 7/8/7 8/7/8 10/9/10 9/10/9
f 9/10/9 10/9/10 12/11/12 11/12/11
f 11/12/11 12/11/12 14/13/14 13/14/13
f 13/14/13 14/13/14 16/15/16 15/16/15
f 15/16/15 16/15/16 18/17/18 17/18/17
f 17/18/17 18/17/18 20/19/20 19/20/19
f 19/20/19 20/19/20 22/21/22 21/22/21
f 21/22/21 22/21/22 24/23/24 23/24/23
f 23/24/23 24/23/24 26/25/26 25/26/25
f 25/26/25 26/25/26 28/27/28 27/28/27
f 27/28/27 28/27/28 30/29/30 29/30/29
f 8/7/8 6/5/6 35/31/35 36/32/36
f 29/30/29 30/29/30 32/33/32 31/34/31
f 31/34/31 32/33/32 2/2/2 1/1/1
f 18/17/18 16/15/16 40/35/40 41/36/41
f 4/3/4 2/2/2 34/37/34 33/38/33
f 28/27/28 26/25/26 45/39/45 46/40/46
f 14/13/14 12/11/12 38/41/38 39/42/39
f 24/23/24 22/21/22 43/43/43 44/44/44
f 2/2/2 32/33/32 48/45/48 34/37/34
f 10/9/10 8/7/8 36/32/36 37/46/37
f 20/19/20 18/17/18 41/36/41 42/47/42
f 30/29/30 28/27/28 46/40/46 47/48/47
f 6/5/6 4/3/4 33/38/33 35/31/35
f 16/15/16 14/13/14 39/42/39 40/35/40
f 26/25/26 24/23/24 44/44/44 45/39/45
f 12/11/12 10/9/10 37/46/37 38/41/38
f 22/21/22 20/19/20 42/47/42 43/43/43
f 32/33/32 30/29/30 47/48/47 48/45/48
f 44/44/44 43/43/43 59/49/59 60/50/60
f 37/46/37 36/32/36 52/51/52 53/52/53
f 45/39/45 44/44/44 60/50/60 61/53/61
f 38/41/38 37/46/37 53/52/53 54/54/54
f 46/40/46 45/39/45 61/53/61 62/55/62
f 39/42/39 38/41/38 54/54/54 55/56/55
f 47/48/47 46/40/46 62/55/62 63/57/63
f 40/35/40 39/42/39 55/56/55 56/58/56
f 48/45/48 47/48/47 63/57/63 64/59/64
f 41/36/41 40/35/40 56/58/56 57/60/57
f 33/38/33 34/37/34 50/61/50 49/62/49
f 34/37/34 48/45/48 64/59/64 50/61/50
f 42/47/42 41/36/41 57/60/57 58/63/58
f 35/31/35 33/38/33 49/62/49 51/64/51
f 43/43/43 42/47/42 58/63/58 59/49/59
f 36/32/36 35/31/35 51/64/51 52/51/52
f 49/62/49 50/61/50 65/65/65
f 50/61/50 64/59/64 65/65/65
f 58/63/58 57/60/57 65/65/65
f 51/64/51 49/62/49 65/65/65
f 59/49/59 58/63/58 65/65/65
f 52/51/52 51/64/51 65/65/65
f 60/50/60 59/49/59 65/65/65
f 53/52/53 52/51/52 65/65/65
f 61/53/61 60/50/60 65/65/65
f 54/54/54 53/52/53 65/65/65
f 62/55/62 61/53/61 65/65/65
f 55/56/55 54/54/54 65/65/65
f 63/57/63 62/55/62 65/65/65
f 56/58/56 55/56/55 65/65/65
f 64/59/64 63/57/63 65/65/65
f 57/60/57 56/58/56 65/65/65
