# Blender 4.1.0
# www.blender.org
o stick
v -0.072085 0.082876 -0.072084
v -0.094184 0.082876 -0.039011
v -0.101944 0.082876 0.000002
v -0.000000 0.082876 -0.101942
v -0.039013 0.082876 -0.094182
v -0.026720 0.070006 -0.026718
v -0.034911 0.070006 -0.014459
v -0.037787 0.070006 0.000002
v -0.000000 0.070006 -0.037785
v -0.014461 0.070006 -0.034909
v -0.026720 0.050328 -0.026718
v -0.034911 0.050328 -0.014459
v -0.037787 0.050328 0.000002
v -0.000000 0.050328 -0.037785
v -0.014461 0.050328 -0.034909
v -0.033073 0.042894 -0.033071
v -0.043212 0.042894 -0.017897
v -0.046772 0.042894 0.000002
v -0.000000 0.042894 -0.046770
v -0.017899 0.042894 -0.043210
v -0.040723 0.030111 -0.040721
v -0.053207 0.030111 -0.022037
v -0.057590 0.030111 0.000002
v -0.000000 0.030111 -0.057588
v -0.022039 0.030111 -0.053205
v -0.072085 0.082876 0.072087
v -0.094184 0.082876 0.039014
v -0.000000 0.082876 0.101946
v -0.039013 0.082876 0.094186
v -0.026720 0.070006 0.026721
v -0.034911 0.070006 0.014462
v -0.000000 0.070006 0.037789
v -0.014461 0.070006 0.034912
v -0.026720 0.050328 0.026721
v -0.034911 0.050328 0.014462
v -0.000000 0.050328 0.037789
v -0.014461 0.050328 0.034912
v -0.033073 0.042894 0.033074
v -0.043212 0.042894 0.017900
v -0.000000 0.042894 0.046773
v -0.017899 0.042894 0.043213
v -0.040723 0.030111 0.040724
v -0.053207 0.030111 0.022040
v -0.000000 0.030111 0.057592
v -0.022039 0.030111 0.053208
v 0.072085 0.082876 -0.072084
v 0.094184 0.082876 -0.039011
v 0.101944 0.082876 0.000002
v 0.039012 0.082876 -0.094182
v 0.026719 0.070006 -0.026718
v 0.034911 0.070006 -0.014459
v 0.037787 0.070006 0.000002
v 0.014460 0.070006 -0.034909
v 0.026719 0.050328 -0.026718
v 0.034911 0.050328 -0.014459
v 0.037787 0.050328 0.000002
v 0.014460 0.050328 -0.034909
v 0.033072 0.042894 -0.033071
v 0.043211 0.042894 -0.017897
v 0.046771 0.042894 0.000002
v 0.017899 0.042894 -0.043210
v 0.040722 0.030111 -0.040721
v 0.053206 0.030111 -0.022037
v 0.057590 0.030111 0.000002
v 0.022038 0.030111 -0.053205
v 0.072085 0.082876 0.072087
v 0.094184 0.082876 0.039014
v 0.039012 0.082876 0.094186
v 0.026719 0.070006 0.026721
v 0.034911 0.070006 0.014462
v 0.014460 0.070006 0.034912
v 0.026719 0.050328 0.026721
v 0.034911 0.050328 0.014462
v 0.014460 0.050328 0.034912
v 0.033072 0.042894 0.033074
v 0.043211 0.042894 0.017900
v 0.017899 0.042894 0.043213
v 0.040722 0.030111 0.040724
v 0.053206 0.030111 0.022040
v 0.022038 0.030111 0.053208
vn -0.1391 -0.9805 -0.1391
vn -0.0753 -0.9805 -0.1817
vn -0.1817 -0.9805 -0.0753
vn -0.1967 -0.9805 -0.0000
vn -0.0000 -0.9805 -0.1967
vn -0.3827 -0.0000 -0.9239
vn -0.0000 -0.0000 -1.0000
vn -0.7071 -0.0000 -0.7071
vn -0.9239 -0.0000 -0.3827
vn -1.0000 -0.0000 -0.0000
vn -0.6375 0.7705 -0.0000
vn -0.5890 0.7705 -0.2440
vn -0.6547 0.7056 -0.2712
vn -0.7087 0.7056 -0.0000
vn -0.2440 0.7705 -0.5890
vn -0.0000 0.7705 -0.6375
vn -0.0000 0.7056 -0.7087
vn -0.2712 0.7056 -0.6547
vn -0.4508 0.7705 -0.4508
vn -0.5011 0.7056 -0.5011
vn -0.2921 0.6460 -0.7052
vn -0.5398 0.6460 -0.5398
vn -0.7052 0.6460 -0.2921
vn -0.7633 0.6460 -0.0000
vn -0.0000 0.6460 -0.7633
vn -0.1391 -0.9805 0.1391
vn -0.0753 -0.9805 0.1817
vn -0.1817 -0.9805 0.0753
vn -0.0000 -0.9805 0.1967
vn -0.3827 -0.0000 0.9239
vn -0.0000 -0.0000 1.0000
vn -0.7071 -0.0000 0.7071
vn -0.9239 -0.0000 0.3827
vn -0.6547 0.7056 0.2712
vn -0.5890 0.7705 0.2440
vn -0.2440 0.7705 0.5890
vn -0.2712 0.7056 0.6547
vn -0.0000 0.7056 0.7087
vn -0.0000 0.7705 0.6375
vn -0.4508 0.7705 0.4508
vn -0.5011 0.7056 0.5011
vn -0.5398 0.6460 0.5398
vn -0.2921 0.6460 0.7052
vn -0.7052 0.6460 0.2921
vn -0.0000 0.6460 0.7633
vn 0.1391 -0.9805 -0.1391
vn 0.0753 -0.9805 -0.1817
vn 0.1817 -0.9805 -0.0753
vn 0.1967 -0.9805 -0.0000
vn 0.3827 -0.0000 -0.9239
vn 0.7071 -0.0000 -0.7071
vn 0.9239 -0.0000 -0.3827
vn 1.0000 -0.0000 -0.0000
vn 0.6375 0.7705 -0.0000
vn 0.7087 0.7056 -0.0000
vn 0.6547 0.7056 -0.2712
vn 0.5890 0.7705 -0.2440
vn 0.2440 0.7705 -0.5890
vn 0.2712 0.7056 -0.6547
vn 0.4508 0.7705 -0.4508
vn 0.5011 0.7056 -0.5011
vn 0.5398 0.6460 -0.5398
vn 0.2921 0.6460 -0.7052
vn 0.7052 0.6460 -0.2921
vn 0.7633 0.6460 -0.0000
vn 0.1391 -0.9805 0.1391
vn 0.0753 -0.9805 0.1817
vn 0.1817 -0.9805 0.0753
vn 0.3827 -0.0000 0.9239
vn 0.7071 -0.0000 0.7071
vn 0.9239 -0.0000 0.3827
vn 0.5890 0.7705 0.2440
vn 0.6547 0.7056 0.2712
vn 0.2440 0.7705 0.5890
vn 0.2712 0.7056 0.6547
vn 0.4508 0.7705 0.4508
vn 0.5011 0.7056 0.5011
vn 0.2921 0.6460 0.7052
vn 0.5398 0.6460 0.5398
vn 0.7052 0.6460 0.2921
vt 0.185709 0.101016
vt 0.362622 0.012325
vt 0.438034 0.324199
vt 0.375155 0.357098
vt 0.061696 0.245171
vt 0.330733 0.410002
vt 0.000103 0.417542
vt 0.309584 0.474337
vt 0.565474 0.000099
vt 0.512023 0.317607
vt 0.498032 0.400413
vt 0.456262 0.398801
vt 0.419977 0.418474
vt 0.394538 0.449216
vt 0.382134 0.486930
vt 0.417050 0.463295
vt 0.405904 0.490768
vt 0.493679 0.424567
vt 0.462897 0.427065
vt 0.435825 0.440552
vt 0.468350 0.449621
vt 0.449399 0.458257
vt 0.435703 0.473999
vt 0.430024 0.494690
vt 0.489164 0.449443
vt 0.068130 0.778329
vt 0.332912 0.606115
vt 0.381021 0.658567
vt 0.199680 0.919818
vt 0.000099 0.601181
vt 0.308423 0.541938
vt 0.447942 0.688027
vt 0.384242 0.999901
vt 0.423527 0.593696
vt 0.463134 0.605971
vt 0.396014 0.563457
vt 0.382016 0.526412
vt 0.407966 0.520358
vt 0.439231 0.569380
vt 0.467135 0.581882
vt 0.418296 0.547854
vt 0.437046 0.535590
vt 0.451938 0.549919
vt 0.429205 0.516132
vt 0.471373 0.557134
vt 0.898069 0.215547
vt 0.631243 0.397385
vt 0.579903 0.346172
vt 0.754850 0.073696
vt 0.973951 0.400606
vt 0.659148 0.463661
vt 0.973951 0.594030
vt 0.657161 0.533936
vt 0.537162 0.414067
vt 0.567616 0.442448
vt 0.585730 0.480025
vt 0.583567 0.521208
vt 0.557211 0.516698
vt 0.556857 0.486440
vt 0.522174 0.436567
vt 0.544487 0.458023
vt 0.525140 0.471612
vt 0.509266 0.456841
vt 0.534404 0.491481
vt 0.535857 0.513059
vt 0.767525 0.917565
vt 0.585072 0.998104
vt 0.521151 0.684400
vt 0.586784 0.653920
vt 0.902903 0.774028
vt 0.635025 0.600718
vt 0.504279 0.606339
vt 0.542297 0.589976
vt 0.571829 0.560780
vt 0.546835 0.545074
vt 0.497775 0.580185
vt 0.525789 0.567591
vt 0.492582 0.556969
vt 0.512282 0.548445
vt 0.527465 0.532889
s 1
f 1/1/1 5/2/2 10/3/2 6/4/1
f 2/5/3 1/1/1 6/4/1 7/6/3
f 3/7/4 2/5/3 7/6/3 8/8/4
f 5/2/2 4/9/5 9/10/5 10/3/2
f 10/3/6 9/10/7 14/11/7 15/12/6
f 6/4/8 10/3/6 15/12/6 11/13/8
f 7/6/9 6/4/8 11/13/8 12/14/9
f 8/8/10 7/6/9 12/14/9 13/15/10
f 13/15/11 12/14/12 17/16/13 18/17/14
f 15/12/15 14/11/16 19/18/17 20/19/18
f 11/13/19 15/12/15 20/19/18 16/20/20
f 12/14/12 11/13/19 16/20/20 17/16/13
f 16/20/20 20/19/18 25/21/21 21/22/22
f 17/16/13 16/20/20 21/22/22 22/23/23
f 18/17/14 17/16/13 22/23/23 23/24/24
f 20/19/18 19/18/17 24/25/25 25/21/21
f 26/26/26 30/27/26 33/28/27 29/29/27
f 27/30/28 31/31/28 30/27/26 26/26/26
f 3/7/4 8/8/4 31/31/28 27/30/28
f 29/29/27 33/28/27 32/32/29 28/33/29
f 33/28/30 37/34/30 36/35/31 32/32/31
f 30/27/32 34/36/32 37/34/30 33/28/30
f 31/31/33 35/37/33 34/36/32 30/27/32
f 8/8/10 13/15/10 35/37/33 31/31/33
f 13/15/11 18/17/14 39/38/34 35/37/35
f 37/34/36 41/39/37 40/40/38 36/35/39
f 34/36/40 38/41/41 41/39/37 37/34/36
f 35/37/35 39/38/34 38/41/41 34/36/40
f 38/41/41 42/42/42 45/43/43 41/39/37
f 39/38/34 43/44/44 42/42/42 38/41/41
f 18/17/14 23/24/24 43/44/44 39/38/34
f 41/39/37 45/43/43 44/45/45 40/40/38
f 46/46/46 50/47/46 53/48/47 49/49/47
f 47/50/48 51/51/48 50/47/46 46/46/46
f 48/52/49 52/53/49 51/51/48 47/50/48
f 49/49/47 53/48/47 9/10/5 4/9/5
f 53/48/50 57/54/50 14/11/7 9/10/7
f 50/47/51 54/55/51 57/54/50 53/48/50
f 51/51/52 55/56/52 54/55/51 50/47/51
f 52/53/53 56/57/53 55/56/52 51/51/52
f 56/57/54 60/58/55 59/59/56 55/56/57
f 57/54/58 61/60/59 19/18/17 14/11/16
f 54/55/60 58/61/61 61/60/59 57/54/58
f 55/56/57 59/59/56 58/61/61 54/55/60
f 58/61/61 62/62/62 65/63/63 61/60/59
f 59/59/56 63/64/64 62/62/62 58/61/61
f 60/58/55 64/65/65 63/64/64 59/59/56
f 61/60/59 65/63/63 24/25/25 19/18/17
f 66/66/66 68/67/67 71/68/67 69/69/66
f 67/70/68 66/66/66 69/69/66 70/71/68
f 48/52/49 67/70/68 70/71/68 52/53/49
f 68/67/67 28/33/29 32/32/29 71/68/67
f 71/68/69 32/32/31 36/35/31 74/72/69
f 69/69/70 71/68/69 74/72/69 72/73/70
f 70/71/71 69/69/70 72/73/70 73/74/71
f 52/53/53 70/71/71 73/74/71 56/57/53
f 56/57/54 73/74/72 76/75/73 60/58/55
f 74/72/74 36/35/39 40/40/38 77/76/75
f 72/73/76 74/72/74 77/76/75 75/77/77
f 73/74/72 72/73/76 75/77/77 76/75/73
f 75/77/77 77/76/75 80/78/78 78/79/79
f 76/75/73 75/77/77 78/79/79 79/80/80
f 60/58/55 76/75/73 79/80/80 64/65/65
f 77/76/75 40/40/38 44/45/45 80/78/78
