# Blender 4.1.0
# www.blender.org
o trigger
v -0.151268 0.020339 0.077028
v -0.163791 0.018163 0.055577
v -0.136399 -0.008411 0.077331
v -0.152344 -0.013002 0.054565
v -0.122508 -0.036572 0.068682
v -0.143176 -0.037542 0.047864
v -0.111805 -0.062444 0.056713
v -0.124685 -0.060487 0.034303
v -0.077096 -0.094599 0.031553
v -0.090879 -0.093403 0.008363
v -0.041142 -0.113204 0.008433
v -0.050981 -0.109783 -0.019755
v -0.003300 -0.119732 -0.004959
v -0.008911 -0.114050 -0.039529
v 0.045034 -0.120652 -0.012254
v 0.044250 -0.115230 -0.046924
v 0.091568 -0.113743 -0.009842
v 0.096604 -0.109433 -0.041372
v 0.130249 -0.089659 -0.008856
v 0.131783 -0.087592 -0.038918
v 0.149219 -0.060792 -0.017352
v 0.148147 -0.062233 -0.039783
v 0.094160 -0.116500 -0.022294
v 0.133382 -0.093922 -0.019165
v 0.151071 -0.065061 -0.026247
v -0.124487 -0.058220 0.049396
v -0.088516 -0.095478 0.019774
v -0.047666 -0.114792 -0.006287
v -0.007978 -0.121254 -0.022106
v 0.045784 -0.121224 -0.030033
v 0.158980 -0.024399 -0.056713
v 0.161157 -0.025640 -0.044335
v 0.155493 -0.022050 -0.036517
v -0.130983 0.015627 0.074149
v -0.119637 -0.013185 0.069985
v -0.108322 -0.038959 0.063272
v -0.090658 -0.063711 0.049164
v -0.062923 -0.085952 0.028971
v -0.034160 -0.100836 0.010474
v -0.003887 -0.106058 -0.000239
v 0.041244 -0.104106 -0.005963
v 0.078446 -0.095870 -0.004083
v 0.102953 -0.081999 -0.003357
v 0.127313 -0.059193 -0.010020
v 0.138984 -0.023100 -0.027122
v -0.115747 0.018505 0.100040
v -0.105131 0.000677 0.096381
v -0.094483 -0.024144 0.089558
v -0.076331 -0.046063 0.079508
v -0.051338 -0.068172 0.062356
v -0.024954 -0.083052 0.045275
v 0.002828 -0.088299 0.034500
v 0.038292 -0.089066 0.028585
v 0.072414 -0.083570 0.030438
v 0.100767 -0.064328 0.031162
v 0.123063 -0.038058 0.024384
v 0.128792 -0.010563 0.007291
v 0.158778 0.025995 -0.063192
v 0.129221 0.007468 -0.002936
v 0.142366 0.015210 -0.042191
v 0.113921 -0.058152 -0.057124
v 0.119587 -0.031007 -0.067880
v 0.061206 -0.061529 -0.062454
v 0.063620 -0.033270 -0.071185
v -0.016567 -0.059240 -0.047492
v -0.019073 -0.028791 -0.054155
v -0.053759 -0.059366 -0.029381
v -0.060079 -0.028476 -0.033124
v -0.091192 -0.056479 -0.004221
v -0.096643 -0.025755 -0.007441
v -0.128610 -0.024132 0.023441
v -0.135596 0.017752 0.012293
v -0.102735 0.017466 -0.019714
v -0.065818 0.016505 -0.046625
v -0.026746 0.016828 -0.066613
v 0.063356 0.016040 -0.087363
v 0.125818 0.017732 -0.085378
v 0.157168 0.017638 -0.081834
v -0.072870 0.023139 0.067461
v -0.136198 0.025299 0.033607
v -0.103337 0.025012 0.001599
v -0.066419 0.024051 -0.025312
v -0.027348 0.024374 -0.045299
v 0.062754 0.023587 -0.066050
v 0.125212 0.025765 -0.064073
v -0.094580 0.012742 0.038213
v -0.057661 0.011781 0.011302
v -0.018590 0.012103 -0.008685
v 0.070649 0.010432 -0.034020
v -0.041978 0.018125 0.044734
v -0.004354 0.015392 0.026445
vn -0.7652 -0.3426 0.5451
vn -0.7078 -0.4055 0.5783
vn -0.7101 -0.4032 0.5772
vn -0.6617 -0.5151 0.5448
vn -0.6178 -0.4853 0.6187
vn -0.6376 -0.6649 0.3890
vn -0.4916 -0.7020 0.5152
vn -0.5009 -0.8484 0.1711
vn -0.3589 -0.8666 0.3466
vn -0.2991 -0.9540 -0.0218
vn -0.2004 -0.9572 0.2090
vn -0.1208 -0.9830 -0.1380
vn -0.0564 -0.9936 0.0978
vn 0.0510 -0.9873 -0.1504
vn 0.0514 -0.9947 0.0888
vn 0.3192 -0.9474 -0.0237
vn 0.2855 -0.9268 0.2441
vn 0.6958 -0.7127 0.0887
vn 0.6613 -0.6378 0.3948
vn 0.9266 -0.3608 0.1060
vn 0.8866 -0.2099 0.4121
vn 0.8678 -0.4324 -0.2450
vn 0.9788 -0.1282 -0.1599
vn 0.9845 -0.0516 0.1677
vn 0.6808 -0.6812 -0.2692
vn -0.1480 -0.9276 -0.3430
vn 0.0368 -0.9372 -0.3468
vn -0.6998 -0.7095 0.0833
vn -0.5674 -0.8217 -0.0525
vn 0.3474 -0.8864 -0.3059
vn -0.3591 -0.9006 -0.2448
vn 0.6815 0.2338 0.6934
vn 0.1935 -0.3149 0.9292
vn 0.0653 -0.3248 0.9435
vn 0.0762 -0.3245 0.9428
vn 0.2099 -0.3127 0.9264
vn 0.2806 0.0635 0.9577
vn 0.3024 0.0219 0.9529
vn 0.3386 -0.0505 0.9396
vn 0.3256 -0.3301 0.8860
vn 0.3182 -0.3265 0.8900
vn 0.3417 -0.3547 0.8703
vn 0.3548 -0.3532 0.8657
vn 0.3072 -0.3115 0.8992
vn 0.3199 -0.3422 0.8835
vn 0.3419 0.2337 0.9102
vn 0.4110 0.3136 0.8560
vn 0.3069 0.1553 0.9390
vn 0.3445 -0.1560 0.9257
vn 0.3195 -0.2418 0.9162
vn 0.2206 -0.0312 0.9749
vn 0.1632 -0.1500 0.9751
vn 0.0743 -0.2749 0.9586
vn 0.0564 -0.2894 0.9555
vn 0.0424 -0.8979 0.4382
vn 0.1168 -0.9083 0.4017
vn 0.1127 -0.9078 0.4039
vn 0.0387 -0.8972 0.4399
vn -0.3384 -0.7474 0.5716
vn -0.1923 -0.8358 0.5143
vn -0.2278 -0.8166 0.5304
vn -0.3875 -0.7115 0.5861
vn 0.8617 -0.3751 0.3418
vn 0.9594 -0.0200 0.2815
vn 0.9598 -0.0388 0.2779
vn 0.8746 -0.3508 0.3348
vn -0.7186 -0.4301 0.5465
vn -0.6846 -0.4415 0.5800
vn -0.6975 -0.4374 0.5677
vn 0.3222 -0.8603 0.3950
vn 0.3231 -0.8600 0.3950
vn -0.0536 -0.8808 0.4704
vn -0.0837 -0.8744 0.4780
vn -0.5329 -0.5888 0.6077
vn -0.5889 -0.5332 0.6074
vn 0.5956 -0.6971 0.3992
vn 0.6207 -0.6752 0.3986
vn 0.6733 0.2995 0.6760
vn 0.9523 0.0690 0.2972
vn 0.9929 -0.0113 -0.1186
vn 0.2751 -0.4318 -0.8590
vn 0.3680 -0.3762 -0.8503
vn 0.2313 -0.3645 -0.9020
vn 0.1825 -0.3879 -0.9034
vn -0.0285 -0.2850 -0.9581
vn -0.0634 -0.3088 -0.9490
vn -0.3160 -0.2137 -0.9244
vn -0.3217 -0.2696 -0.9077
vn -0.5047 -0.2056 -0.8384
vn -0.5057 -0.2547 -0.8242
vn -0.6415 -0.2212 -0.7345
vn -0.6312 -0.2597 -0.7308
vn -0.7254 -0.2429 -0.6440
vn -0.7429 -0.2540 -0.6194
vn -0.7894 -0.1997 -0.5805
vn -0.8103 -0.2385 -0.5352
vn -0.6455 -0.2234 -0.7304
vn -0.5046 -0.2038 -0.8390
vn -0.2913 -0.1944 -0.9367
vn -0.0555 -0.2468 -0.9675
vn 0.1723 -0.3354 -0.9262
vn 0.3403 -0.3365 -0.8780
vn -0.8077 -0.2761 -0.5209
vn -0.7394 -0.2855 -0.6097
vn -0.6173 -0.2965 -0.7288
vn -0.4993 -0.3046 -0.8111
vn -0.3300 -0.3050 -0.8934
vn -0.0775 -0.3160 -0.9456
vn 0.1439 -0.3806 -0.9135
vn 0.2216 -0.4232 -0.8785
vn -0.2427 0.9123 -0.3299
vn -0.3160 0.9059 -0.2820
vn -0.0779 0.9970 -0.0003
vn -0.0392 0.9977 -0.0558
vn -0.3361 0.9343 -0.1187
vn -0.0076 0.9981 0.0611
vn 0.0023 0.9324 -0.3615
vn -0.0084 0.9992 0.0392
vn 0.0240 0.9247 -0.3800
vn -0.0415 0.9396 -0.3397
vn -0.0101 0.9997 -0.0200
vn -0.1103 0.9359 -0.3345
vn -0.0202 0.9990 -0.0397
vn -0.1905 0.9237 -0.3324
vn -0.0281 0.9986 -0.0450
vn -0.0178 0.8950 0.4457
vn -0.0244 0.9328 0.3595
vn 0.0884 0.9942 0.0609
vn 0.0553 0.9920 0.1131
vn 0.0288 0.9790 0.2020
vn 0.0796 0.9961 0.0387
vn 0.0749 0.9951 0.0649
vn -0.0111 0.9932 0.1157
vn -0.0102 0.9952 -0.0968
vn -0.1081 0.9780 -0.1784
vn -0.0537 0.9832 -0.1746
vn -0.1428 0.9798 -0.1402
vn 0.7202 0.2985 0.6262
vt 0.313205 0.156416
vt 0.318239 0.177092
vt 0.284943 0.194453
vt 0.266600 0.150853
vt 0.258212 0.224588
vt 0.210257 0.191068
vt 0.217315 0.253705
vt 0.184693 0.256831
vt 0.196826 0.374189
vt 0.160566 0.378576
vt 0.212208 0.479508
vt 0.176983 0.485677
vt 0.240814 0.562195
vt 0.204256 0.577835
vt 0.291876 0.658497
vt 0.258148 0.678489
vt 0.346245 0.733847
vt 0.328947 0.753305
vt 0.413141 0.769168
vt 0.407952 0.790004
vt 0.467878 0.769283
vt 0.472802 0.786260
vt 0.470982 0.746661
vt 0.523671 0.718580
vt 0.528001 0.736006
vt 0.427549 0.740931
vt 0.276700 0.553400
vt 0.320834 0.638278
vt 0.237441 0.276830
vt 0.220372 0.380366
vt 0.372514 0.710414
vt 0.241478 0.475760
vt 0.539163 0.747968
vt 0.216383 0.698774
vt 0.167554 0.583946
vt 0.225630 0.133232
vt 0.315355 0.108013
vt 0.144282 0.498132
vt 0.123322 0.398141
vt 0.138685 0.286811
vt 0.555846 0.786150
vt 0.460502 0.842126
vt 0.169502 0.194261
vt 0.355383 0.835735
vt 0.283798 0.786465
vt 0.084906 0.764324
vt 0.028759 0.613665
vt 0.000086 0.339726
vt 0.039905 0.191432
vt 0.667420 0.919356
vt 0.514795 0.999914
vt 0.213139 0.014962
vt 0.294874 0.000086
vt 0.177604 0.904012
vt 0.004893 0.485362
vt 0.114607 0.087107
vt 0.331402 0.999075
vt 0.599480 0.710324
vt 0.743368 0.820352
vt 0.552626 0.685227
vt 0.563036 0.691789
vt 0.454699 0.692034
vt 0.493235 0.678484
vt 0.416765 0.621368
vt 0.460876 0.606624
vt 0.363008 0.498190
vt 0.413200 0.473484
vt 0.327278 0.431638
vt 0.375900 0.398117
vt 0.291300 0.356324
vt 0.339325 0.324094
vt 0.300790 0.255314
vt 0.365975 0.222247
vt 0.414370 0.284745
vt 0.457684 0.359395
vt 0.490199 0.432983
vt 0.534095 0.582246
vt 0.548162 0.660872
vt 0.362379 0.185588
vt 0.424867 0.241986
vt 0.576808 0.663462
vt 0.570388 0.569529
vt 0.523677 0.403321
vt 0.480741 0.319045
vt 0.609076 0.352788
vt 0.646308 0.572616
vt 0.451333 0.150933
vt 0.544437 0.240478
vt 0.743368 0.297291
vt 0.511621 0.035479
vt 0.641034 0.140587
s 1
f 1/1/1 2/2/1 4/3/2 3/4/3
f 3/4/3 4/3/2 6/5/4 5/6/5
f 5/6/5 26/7/6 7/8/7
f 7/8/7 26/7/6 27/9/8 9/10/9
f 9/10/9 27/9/8 28/11/10 11/12/11
f 11/12/11 28/11/10 29/13/12 13/14/13
f 13/14/13 29/13/12 30/15/14 15/16/15
f 15/16/15 30/15/14 23/17/16 17/18/17
f 17/18/17 23/17/16 24/19/18 19/20/19
f 19/20/19 24/19/18 25/21/20 21/22/21
f 25/21/20 22/23/22 31/24/23 32/25/24
f 26/7/6 5/6/5 6/5/4
f 25/21/20 24/19/18 20/26/25 22/23/22
f 30/15/14 29/13/12 14/27/26 16/28/27
f 27/9/8 26/7/6 8/29/28 10/30/29
f 23/17/16 30/15/14 16/28/27 18/31/30
f 28/11/10 27/9/8 10/30/29 12/32/31
f 24/19/18 23/17/16 18/31/30 20/26/25
f 29/13/12 28/11/10 12/32/31 14/27/26
f 6/5/4 8/29/28 26/7/6
f 21/22/21 25/21/20 32/25/24 33/33/32
f 13/14/33 15/16/34 41/34/35 40/35/36
f 1/1/37 3/4/38 35/36/39 34/37/37
f 11/12/40 13/14/33 40/35/36 39/38/41
f 9/10/42 11/12/40 39/38/41 38/39/43
f 7/8/44 9/10/42 38/39/43 37/40/45
f 21/22/46 33/33/32 45/41/47 44/42/48
f 5/6/49 7/8/44 37/40/45 36/43/50
f 3/4/38 5/6/49 36/43/50 35/36/39
f 19/20/51 21/22/46 44/42/48 43/44/52
f 17/18/53 19/20/51 43/44/52 42/45/54
f 15/16/34 17/18/53 42/45/54 41/34/35
f 40/35/55 41/34/56 53/46/57 52/47/58
f 37/40/59 38/39/60 50/48/61 49/49/62
f 44/42/63 45/41/64 57/50/65 56/51/66
f 34/37/67 35/36/68 47/52/69 46/53/67
f 41/34/56 42/45/70 54/54/71 53/46/57
f 38/39/60 39/38/72 51/55/73 50/48/61
f 35/36/68 36/43/74 48/56/75 47/52/69
f 42/45/70 43/44/76 55/57/77 54/54/71
f 39/38/72 40/35/55 52/47/58 51/55/73
f 36/43/74 37/40/59 49/49/62 48/56/75
f 43/44/76 44/42/63 56/51/66 55/57/77
f 45/41/47 33/33/32 60/58/78
f 57/50/65 45/41/64 60/58/79 59/59/79
f 32/25/24 31/24/23 78/60/80 58/61/80
f 31/24/81 22/23/82 61/62/83 62/63/84
f 62/63/84 61/62/83 63/64/85 64/65/86
f 64/65/86 63/64/85 65/66/87 66/67/88
f 66/67/88 65/66/87 67/68/89 68/69/90
f 68/69/90 67/68/89 69/70/91 70/71/92
f 70/71/92 69/70/91 8/29/93 71/72/94
f 8/29/93 6/5/95 71/72/94
f 6/5/95 4/3/96 71/72/94
f 8/29/93 69/70/91 10/30/97
f 10/30/97 69/70/91 67/68/89 12/32/98
f 12/32/98 67/68/89 65/66/87 14/27/99
f 14/27/99 65/66/87 63/64/85 16/28/100
f 16/28/100 63/64/85 61/62/83 18/31/101
f 18/31/101 61/62/83 20/26/102
f 20/26/102 61/62/83 22/23/82
f 4/3/96 2/2/103 72/73/104 71/72/94
f 71/72/94 72/73/104 73/74/105 70/71/92
f 70/71/92 73/74/105 74/75/106 68/69/90
f 68/69/90 74/75/106 75/76/107 66/67/88
f 66/67/88 75/76/107 76/77/108 64/65/86
f 64/65/86 76/77/108 77/78/109 62/63/84
f 62/63/84 77/78/109 78/60/110 31/24/81
f 73/74/111 72/73/112 80/79/113 81/80/114
f 72/73/112 2/2/115 1/1/116 80/79/113
f 77/78/117 85/81/118 58/61/119 78/60/119
f 77/78/117 76/77/120 84/82/121 85/81/118
f 76/77/120 75/76/122 83/83/123 84/82/121
f 75/76/122 74/75/124 82/84/125 83/83/123
f 74/75/124 73/74/111 81/80/114 82/84/125
f 58/61/126 85/81/118 60/58/127
f 1/1/116 34/37/128 80/79/113
f 84/82/121 83/83/123 88/85/129 89/86/130
f 82/84/125 81/80/114 86/87/131 87/88/132
f 85/81/118 84/82/121 89/86/130
f 83/83/123 82/84/125 87/88/132 88/85/129
f 81/80/114 80/79/113 34/37/128 86/87/131
f 60/58/127 89/86/130 59/59/133
f 89/86/130 91/89/134 59/59/133
f 87/88/132 86/87/131 79/90/135 90/91/136
f 88/85/129 87/88/132 90/91/136 91/89/134
f 86/87/131 34/37/128 46/53/137 79/90/135
f 91/89/134 89/86/130 88/85/129
f 89/86/130 60/58/127 85/81/118
f 32/25/24 58/61/138 60/58/78 33/33/32
