# Blender 4.1.0
# www.blender.org
o bumper
v 0.179965 -0.035573 -0.047867
v 0.179965 -0.035608 -0.068736
v 0.185244 -0.032860 -0.047872
v 0.185244 -0.032895 -0.068741
v 0.190826 -0.025134 -0.047885
v 0.190826 -0.025169 -0.068754
v 0.192585 -0.013571 -0.047904
v 0.192585 -0.013605 -0.068773
v 0.192536 0.000069 -0.047927
v 0.192536 0.000034 -0.068796
v 0.187846 0.013709 -0.047950
v 0.187846 0.013674 -0.068819
v 0.179555 0.025273 -0.047969
v 0.179555 0.025238 -0.068838
v 0.167991 0.032999 -0.047982
v 0.167991 0.032964 -0.068851
v 0.150706 0.035712 -0.047987
v 0.150706 0.035677 -0.068856
v 0.179019 -0.032991 -0.072926
v 0.183653 -0.030517 -0.072930
v 0.188553 -0.023471 -0.072942
v 0.190098 -0.012927 -0.072960
v 0.190055 -0.000489 -0.072981
v 0.185938 0.011948 -0.073001
v 0.178659 0.022492 -0.073019
v 0.168508 0.029538 -0.073031
v 0.152888 0.032012 -0.073035
v 0.176316 -0.025594 -0.075299
v 0.179294 -0.023204 -0.075303
v 0.182634 -0.018352 -0.075311
v 0.184146 -0.011405 -0.075323
v 0.183957 -0.001740 -0.075339
v 0.181380 0.008393 -0.075356
v 0.176347 0.017054 -0.075370
v 0.168770 0.022841 -0.075380
v 0.155664 0.026165 -0.075386
v 0.074092 0.035712 -0.047987
v 0.074092 0.035677 -0.068856
v 0.074092 -0.035573 -0.047867
v 0.074092 0.032110 -0.072985
v 0.074092 0.026200 -0.075433
v 0.074092 -0.035608 -0.068736
v 0.074092 -0.033070 -0.072813
v 0.074092 -0.025565 -0.075243
v -0.050390 -0.025432 -0.037590
v -0.050390 0.026246 -0.037677
v 0.019215 -0.025479 -0.065348
v 0.019215 0.026200 -0.065434
v -0.180549 -0.025208 0.096463
v -0.177253 0.026606 0.092202
v -0.156019 -0.025276 0.055583
v -0.156019 0.026402 0.055497
v -0.111523 -0.025361 0.004804
v -0.111523 0.026317 0.004717
v -0.048566 -0.032144 -0.034353
v 0.020014 -0.031600 -0.062678
v -0.178630 -0.030782 0.097397
v -0.153896 -0.030850 0.056792
v -0.109879 -0.031666 0.007107
v -0.046627 -0.034437 -0.030751
v 0.021155 -0.035136 -0.059756
v -0.174938 -0.032010 0.099532
v -0.150682 -0.032077 0.059338
v -0.107418 -0.033535 0.009928
v -0.036183 -0.034404 -0.011089
v 0.027499 -0.035102 -0.039448
v -0.152614 -0.030492 0.103095
v -0.130203 -0.032054 0.073340
v -0.091674 -0.033504 0.028251
v -0.048416 0.033436 -0.034786
v 0.020202 0.032937 -0.062696
v -0.173023 0.031130 0.093333
v -0.153831 0.033639 0.056716
v -0.109628 0.033727 0.007073
v -0.036233 0.035840 -0.011129
v -0.046442 0.035806 -0.031264
v 0.021189 0.035758 -0.059679
v -0.166146 0.033554 0.094102
v -0.150685 0.035958 0.059229
v -0.107260 0.035875 0.009801
v 0.027428 0.035793 -0.038977
v -0.156327 0.034156 0.097960
v -0.130266 0.035981 0.073126
v -0.091662 0.035905 0.027951
v -0.182201 -0.027001 0.109156
v -0.179527 -0.028228 0.111763
v -0.184451 -0.013678 0.115502
v -0.179618 -0.012870 0.118385
v -0.183824 0.006773 0.115313
v -0.179201 0.007251 0.118561
v -0.178817 0.021578 0.107770
v -0.173612 0.022692 0.109781
v -0.183684 -0.023623 0.104948
v -0.178887 0.000919 0.094314
v -0.185730 -0.012939 0.111289
v -0.185175 0.005926 0.111038
v -0.181572 0.019040 0.103906
v -0.163739 0.023903 0.112209
v -0.168700 0.006711 0.120490
v -0.168910 -0.012520 0.120100
v -0.166237 -0.027291 0.111494
v -0.149126 0.023895 0.107482
v -0.155466 0.006703 0.115763
v -0.155675 -0.012528 0.115373
vn 0.2352 -0.9720 0.0016
vn 0.2304 -0.9327 -0.2774
vn 0.6242 -0.7284 -0.2827
vn 0.6518 -0.7584 0.0013
vn 0.8878 -0.3703 -0.2732
vn 0.9255 -0.3786 0.0006
vn 0.9618 -0.0731 -0.2639
vn 0.9973 -0.0737 0.0001
vn 0.9525 0.1604 -0.2588
vn 0.9860 0.1666 -0.0003
vn 0.8576 0.4453 -0.2572
vn 0.8885 0.4588 -0.0008
vn 0.6640 0.6982 -0.2676
vn 0.6953 0.7187 -0.0012
vn 0.3328 0.8930 -0.3030
vn 0.3638 0.9315 -0.0016
vn 0.0653 0.9388 -0.3383
vn 0.0778 0.9970 -0.0017
vn 0.6061 0.2960 -0.7382
vn 0.4809 0.4691 -0.7407
vn 0.6478 -0.0489 -0.7602
vn 0.6578 0.1055 -0.7458
vn 0.2551 0.5896 -0.7663
vn 0.4133 -0.4609 -0.7854
vn 0.5931 -0.2340 -0.7704
vn 0.0541 0.5979 -0.7998
vn 0.1507 -0.6073 -0.7800
vn 0.1927 -0.0153 -0.9811
vn 0.1982 0.0276 -0.9798
vn 0.1114 -0.1092 -0.9878
vn 0.1694 -0.0606 -0.9837
vn 0.1713 0.1456 -0.9744
vn 0.0992 0.1916 -0.9764
vn 0.1957 0.0841 -0.9771
vn 0.0457 -0.1678 -0.9848
vn 0.0267 0.2016 -0.9791
vn -0.0325 0.9293 -0.3678
vn 0.0007 1.0000 -0.0018
vn -0.0720 0.5761 -0.8142
vn -0.0873 0.1918 -0.9776
vn -0.0047 -1.0000 0.0024
vn -0.0389 -0.9456 -0.3231
vn -0.0788 -0.5910 -0.8028
vn -0.0891 -0.1680 -0.9817
vn -0.4610 -0.2287 -0.8574
vn -0.4638 0.2071 -0.8614
vn -0.2714 0.2014 -0.9412
vn -0.2718 -0.2048 -0.9403
vn -0.8977 -0.2105 -0.3870
vn -0.9016 0.0219 -0.4320
vn -0.7936 -0.1959 -0.5760
vn -0.7962 0.2175 -0.5646
vn -0.6523 0.1905 -0.7336
vn -0.6490 -0.2158 -0.7296
vn -0.3557 -0.6570 -0.6647
vn -0.4791 -0.6971 -0.5334
vn -0.2296 -0.5952 -0.7701
vn -0.5619 -0.7184 -0.4101
vn -0.6462 -0.7381 -0.1941
vn -0.1466 -0.9534 -0.2637
vn -0.1599 -0.9732 -0.1649
vn -0.1403 -0.9862 -0.0874
vn -0.1733 -0.9791 0.1064
vn -0.1083 -0.9331 -0.3430
vn -0.0122 -0.9998 0.0133
vn 0.0022 -0.9996 0.0271
vn -0.0087 -1.0000 0.0041
vn -0.0091 -0.9999 0.0068
vn 0.1173 -0.9365 0.3304
vn -0.5070 0.6442 -0.5727
vn -0.3590 0.6415 -0.6779
vn -0.2184 0.6028 -0.7674
vn -0.8903 0.3731 -0.2611
vn -0.6075 0.7941 0.0188
vn -0.6018 0.6880 -0.4057
vn -0.1855 0.9594 -0.2125
vn -0.1398 0.9532 -0.2682
vn -0.2659 0.9461 0.1850
vn -0.2255 0.9671 -0.1177
vn -0.0935 0.9362 -0.3388
vn 0.0313 0.9968 0.0736
vn -0.0000 1.0000 -0.0017
vn 0.0006 1.0000 -0.0018
vn 0.0840 0.9174 0.3890
vn -0.2910 -0.7239 0.6256
vn -0.7520 -0.5941 0.2855
vn -0.3349 -0.2087 0.9189
vn -0.7995 -0.1768 0.5740
vn -0.3657 0.2779 0.8883
vn -0.7593 0.2670 0.5935
vn -0.3112 0.7033 0.6391
vn -0.6280 0.6475 0.4316
vn -0.9637 -0.2229 -0.1470
vn -0.9980 -0.0630 -0.0096
vn -0.9879 0.1550 0.0085
vn -0.9378 0.3455 -0.0355
vn 0.0177 0.6336 0.7735
vn 0.0497 0.2097 0.9765
vn 0.1111 -0.2379 0.9649
vn 0.1371 -0.7088 0.6919
vn 0.3499 -0.2694 0.8972
vn 0.3230 0.1791 0.9293
vn 0.3144 0.6365 0.7043
vt 0.020045 0.945049
vt 0.059238 0.918527
vt 0.065129 0.927944
vt 0.029584 0.957687
vt 0.077422 0.938577
vt 0.049066 0.976404
vt 0.096386 0.946198
vt 0.079307 0.992631
vt 0.120815 0.949894
vt 0.118749 0.999949
vt 0.146784 0.945649
vt 0.160900 0.993958
vt 0.170146 0.933859
vt 0.198286 0.975495
vt 0.188379 0.915241
vt 0.227682 0.947444
vt 0.202133 0.882556
vt 0.251409 0.902197
vt 0.142893 0.937542
vt 0.162957 0.927883
vt 0.099533 0.937930
vt 0.120608 0.941012
vt 0.178438 0.912519
vt 0.072345 0.923093
vt 0.082876 0.932043
vt 0.189631 0.884640
vt 0.068073 0.915224
vt 0.103989 0.927537
vt 0.120139 0.929694
vt 0.085596 0.916442
vt 0.092897 0.923259
vt 0.153796 0.921663
vt 0.165930 0.910240
vt 0.137806 0.927966
vt 0.082028 0.910722
vt 0.176212 0.887988
vt 0.214885 0.716424
vt 0.264874 0.713466
vt 0.202823 0.716794
vt 0.188909 0.716774
vt 0.003449 0.710994
vt 0.049637 0.714267
vt 0.059612 0.714865
vt 0.075721 0.715057
vt 0.076310 0.438870
vt 0.187259 0.437975
vt 0.189582 0.597116
vt 0.076364 0.598096
vt 0.098734 0.083787
vt 0.130727 0.091522
vt 0.080592 0.154869
vt 0.176053 0.156094
vt 0.183749 0.284251
vt 0.075932 0.285115
vt 0.059872 0.439062
vt 0.061864 0.284203
vt 0.061910 0.598222
vt 0.069470 0.153782
vt 0.090924 0.081342
vt 0.049840 0.439068
vt 0.053203 0.283908
vt 0.061645 0.152179
vt 0.085124 0.077818
vt 0.051701 0.598875
vt 0.000052 0.281364
vt 0.007625 0.143659
vt 0.004141 0.600034
vt 0.000052 0.438515
vt 0.038895 0.049962
vt 0.200107 0.283202
vt 0.204388 0.438417
vt 0.205528 0.597445
vt 0.164070 0.091523
vt 0.172909 0.090422
vt 0.189882 0.154832
vt 0.208797 0.282680
vt 0.214434 0.438369
vt 0.184073 0.089308
vt 0.198101 0.152933
vt 0.214779 0.597646
vt 0.251180 0.139926
vt 0.261903 0.279137
vt 0.264178 0.598018
vt 0.265035 0.436115
vt 0.201038 0.081907
vt 0.097558 0.064438
vt 0.099763 0.068537
vt 0.115163 0.056133
vt 0.115026 0.063131
vt 0.140299 0.056659
vt 0.138136 0.063561
vt 0.163818 0.066021
vt 0.157743 0.071522
vt 0.103157 0.073842
vt 0.115695 0.068094
vt 0.136833 0.068843
vt 0.153184 0.076891
vt 0.177292 0.054818
vt 0.144980 0.040566
vt 0.111740 0.039204
vt 0.082972 0.051039
vt 0.097682 0.000052
vt 0.161309 0.007800
vt 0.215139 0.043555
s 1
f 1/1/1 2/2/2 4/3/3 3/4/4
f 3/4/4 4/3/3 6/5/5 5/6/6
f 5/6/6 6/5/5 8/7/7 7/8/8
f 7/8/8 8/7/7 10/9/9 9/10/10
f 9/10/10 10/9/9 12/11/11 11/12/12
f 11/12/12 12/11/11 14/13/13 13/14/14
f 13/14/14 14/13/13 16/15/15 15/16/16
f 15/16/16 16/15/15 18/17/17 17/18/18
f 14/13/13 12/11/11 24/19/19 25/20/20
f 10/9/9 8/7/7 22/21/21 23/22/22
f 16/15/15 14/13/13 25/20/20 26/23/23
f 6/5/5 4/3/3 20/24/24 21/25/25
f 12/11/11 10/9/9 23/22/22 24/19/19
f 18/17/17 16/15/15 26/23/23 27/26/26
f 4/3/3 2/2/2 19/27/27 20/24/24
f 8/7/7 6/5/5 21/25/25 22/21/21
f 23/22/22 22/21/21 31/28/28 32/29/29
f 21/25/25 20/24/24 29/30/30 30/31/31
f 26/23/23 25/20/20 34/32/32 35/33/33
f 24/19/19 23/22/22 32/29/29 33/34/34
f 22/21/21 21/25/25 30/31/31 31/28/28
f 20/24/24 19/27/27 28/35/35 29/30/30
f 27/26/26 26/23/23 35/33/33 36/36/36
f 25/20/20 24/19/19 33/34/34 34/32/32
f 17/18/18 18/17/17 38/37/37 37/38/38
f 38/37/37 18/17/17 27/26/26 40/39/39
f 40/39/39 27/26/26 36/36/36 41/40/40
f 2/2/2 1/1/1 39/41/41 42/42/42
f 2/2/2 42/42/42 43/43/43 19/27/27
f 19/27/27 43/43/43 44/44/44 28/35/35
f 45/45/45 46/46/46 48/47/47 47/48/48
f 47/48/48 48/47/47 41/40/40 44/44/44
f 49/49/49 94/50/50 51/51/51
f 51/51/51 52/52/52 54/53/53 53/54/54
f 53/54/54 54/53/53 46/46/46 45/45/45
f 53/54/54 45/45/45 55/55/55 59/56/56
f 45/45/45 47/48/48 56/57/57 55/55/55
f 49/49/49 51/51/51 58/58/58 57/59/59
f 47/48/48 44/44/44 43/43/43 56/57/57
f 51/51/51 53/54/54 59/56/56 58/58/58
f 59/56/56 55/55/55 60/60/60 64/61/61
f 57/59/59 58/58/58 63/62/62 62/63/63
f 55/55/55 56/57/57 61/64/64 60/60/60
f 58/58/58 59/56/56 64/61/61 63/62/62
f 56/57/57 43/43/43 42/42/42 61/64/64
f 63/62/62 64/61/61 69/65/65 68/66/66
f 60/60/60 61/64/64 66/67/67 65/68/68
f 61/64/64 42/42/42 39/41/41 66/67/67
f 64/61/61 60/60/60 65/68/68 69/65/65
f 62/63/63 63/62/62 68/66/66 67/69/69
f 46/46/46 54/53/53 74/70/70 70/71/71
f 48/47/47 46/46/46 70/71/71 71/72/72
f 52/52/52 50/73/73 72/74/74 73/75/75
f 41/40/40 48/47/47 71/72/72 40/39/39
f 54/53/53 52/52/52 73/75/75 74/70/70
f 70/71/71 74/70/70 80/76/76 76/77/77
f 73/75/75 72/74/74 78/78/78 79/79/79
f 40/39/39 71/72/72 77/80/80 38/37/37
f 74/70/70 73/75/75 79/79/79 80/76/76
f 71/72/72 70/71/71 76/77/77 77/80/80
f 80/76/76 79/79/79 83/81/81 84/82/82
f 38/37/37 77/80/80 81/83/83 37/38/38
f 77/80/80 76/77/77 75/84/82 81/83/83
f 76/77/77 80/76/76 84/82/82 75/84/82
f 79/79/79 78/78/78 82/85/84 83/81/81
f 57/59/59 62/63/63 86/86/85 85/87/86
f 85/87/86 86/86/85 88/88/87 87/89/88
f 87/89/88 88/88/87 90/90/89 89/91/90
f 89/91/90 90/90/89 92/92/91 91/93/92
f 72/74/74 91/93/92 92/92/91 78/78/78
f 49/49/49 57/59/59 85/87/86 93/94/93
f 93/94/93 85/87/86 87/89/88 95/95/94
f 95/95/94 87/89/88 89/91/90 96/96/95
f 96/96/95 89/91/90 91/93/92 97/97/96
f 50/73/73 97/97/96 91/93/92 72/74/74
f 94/50/50 97/97/96 50/73/73
f 52/52/52 94/50/50 50/73/73
f 51/51/51 94/50/50 52/52/52
f 97/97/96 94/50/50 96/96/95
f 95/95/94 96/96/95 94/50/50
f 93/94/93 95/95/94 94/50/50
f 94/50/50 49/49/49 93/94/93
f 82/85/84 78/78/78 92/92/91 98/98/97
f 98/98/97 92/92/91 90/90/89 99/99/98
f 99/99/98 90/90/89 88/88/87 100/100/99
f 100/100/99 88/88/87 86/86/85 101/101/100
f 67/69/69 101/101/100 86/86/85 62/63/63
f 100/100/99 101/101/100 67/69/69 104/102/101
f 99/99/98 100/100/99 104/102/101 103/103/102
f 98/98/97 99/99/98 103/103/102 102/104/103
f 98/98/97 102/104/103 82/85/84
f 82/85/84 102/104/103 83/81/81
f 36/36/36 28/35/35 44/44/44 41/40/40
f 35/33/33 28/35/35 36/36/36
f 29/30/30 28/35/35 35/33/33 34/32/32
f 30/31/31 29/30/30 34/32/32 33/34/34
f 31/28/28 30/31/31 33/34/34 32/29/29
