# Blender 4.1.0
# www.blender.org
o capture_button
v -0.475969 0.201752 0.364816
v -0.475969 0.198560 0.366713
v -0.475969 0.198416 0.280769
v -0.479052 0.198557 0.365040
v -0.479111 0.192813 0.365067
v -0.480592 0.198424 0.285265
v -0.475969 0.202931 0.285257
v -0.480592 0.198551 0.361386
v -0.475969 0.203059 0.361378
v -0.479073 0.198419 0.282384
v -0.479129 0.192675 0.282422
v -0.479016 0.201180 0.285260
v -0.478937 0.201385 0.361381
v -0.476111 0.192816 0.366723
v -0.480592 0.192679 0.285170
v -0.480592 0.192807 0.361402
v -0.475896 0.192672 0.280779
v -0.475969 0.201379 0.282107
v -0.477858 0.201177 0.283507
v -0.477886 0.201750 0.363652
v -0.399271 0.201752 0.364816
v -0.396189 0.198557 0.365040
v -0.396129 0.192813 0.365067
v -0.399271 0.198416 0.280769
v -0.399271 0.198560 0.366713
v -0.394648 0.198424 0.285265
v -0.399271 0.202931 0.285257
v -0.394648 0.198551 0.361386
v -0.399271 0.203059 0.361378
v -0.396168 0.198419 0.282384
v -0.396111 0.192675 0.282422
v -0.396224 0.201180 0.285260
v -0.396303 0.201385 0.361381
v -0.399129 0.192816 0.366723
v -0.394648 0.192679 0.285170
v -0.394648 0.192807 0.361402
v -0.399344 0.192672 0.280779
v -0.399271 0.201379 0.282107
v -0.397382 0.201177 0.283507
v -0.397355 0.201750 0.363652
vn -0.1825 0.7323 0.6561
vn -0.2329 0.2558 0.9383
vn -0.2404 0.2138 -0.9468
vn -0.7211 0.2452 0.6480
vn -0.7453 0.0092 0.6666
vn -0.9396 0.2518 -0.2319
vn -0.2361 0.9494 -0.2071
vn -0.9518 0.2469 0.1817
vn -0.2204 0.9647 0.1439
vn -0.6906 0.2299 -0.6858
vn -0.7041 0.0012 -0.7101
vn -0.7050 0.6802 -0.2009
vn -0.7226 0.6802 0.1233
vn -0.2515 0.0067 0.9678
vn -0.9698 0.0035 -0.2438
vn -0.9809 0.0032 0.1946
vn -0.2334 -0.0031 -0.9724
vn -0.2265 0.6694 -0.7076
vn -0.5578 0.6489 -0.5175
vn -0.5439 0.7148 0.4395
vn 0.1825 0.7323 0.6561
vn 0.7211 0.2452 0.6480
vn 0.7453 0.0092 0.6667
vn 0.2404 0.2138 -0.9468
vn 0.2329 0.2558 0.9383
vn 0.9396 0.2518 -0.2319
vn 0.2361 0.9494 -0.2071
vn 0.9518 0.2469 0.1818
vn 0.2204 0.9647 0.1439
vn 0.6906 0.2299 -0.6858
vn 0.7041 0.0012 -0.7101
vn 0.7050 0.6802 -0.2009
vn 0.7226 0.6802 0.1233
vn 0.2515 0.0067 0.9678
vn 0.9698 0.0035 -0.2438
vn 0.9809 0.0032 0.1947
vn 0.2334 -0.0031 -0.9724
vn 0.2265 0.6694 -0.7076
vn 0.5578 0.6488 -0.5175
vn 0.5439 0.7148 0.4395
vt 0.120564 0.112614
vt 0.860229 0.099857
vt 0.856882 0.133359
vt 0.124505 0.145400
vt 0.030991 0.052135
vt 0.082920 0.102220
vt 0.060528 0.132830
vt 0.000100 0.098410
vt 0.905577 0.090047
vt 0.928378 0.121444
vt 0.891780 0.131503
vt 0.879774 0.114291
vt 0.956427 0.033291
vt 0.994409 0.076322
vt 0.868804 0.066025
vt 0.111536 0.081424
vt 0.104617 0.124674
vt 0.091875 0.142676
vt 0.067925 0.019794
vt 0.902323 0.000100
vt 0.124742 0.887800
vt 0.128660 0.854907
vt 0.859085 0.867607
vt 0.862518 0.901023
vt 0.034131 0.949241
vt 0.001992 0.902696
vt 0.064184 0.867260
vt 0.086791 0.898242
vt 0.930713 0.879679
vt 0.894019 0.869487
vt 0.907695 0.910800
vt 0.882005 0.886645
vt 0.994409 0.924100
vt 0.957709 0.966540
vt 0.096095 0.857497
vt 0.871096 0.934664
vt 0.115643 0.919192
vt 0.108756 0.875641
vt 0.071719 0.981438
vt 0.904521 0.999900
s 1
f 12/1/12 13/2/13 9/3/9 7/4/7
f 11/5/11 10/6/10 3/7/3 17/8/17
f 4/9/4 2/10/2 1/11/1 20/12/20
f 4/9/4 5/13/5 14/14/14 2/10/2
f 8/15/8 13/2/13 12/1/12 6/16/6
f 6/16/6 12/1/12 19/17/19 10/6/10
f 10/6/10 19/17/19 18/18/18 3/7/3
f 9/3/9 13/2/13 20/12/20
f 6/16/6 10/6/10 11/5/11 15/19/15
f 16/20/16 5/13/5 4/9/4 8/15/8
f 15/19/15 16/20/16 8/15/8 6/16/6
f 19/17/19 12/1/12 7/4/7
f 18/18/18 19/17/19 7/4/7
f 20/12/20 13/2/13 8/15/8 4/9/4
f 20/12/20 1/11/1 9/3/9
f 32/21/32 27/22/27 29/23/29 33/24/33
f 31/25/31 37/26/37 24/27/24 30/28/30
f 2/10/2 25/29/25 21/30/21 1/11/1
f 22/31/22 40/32/40 21/30/21 25/29/25
f 22/31/22 25/29/25 34/33/34 23/34/23
f 27/22/27 38/35/38 18/18/18 7/4/7
f 29/23/29 27/22/27 7/4/7 9/3/9
f 28/36/28 26/37/26 32/21/32 33/24/33
f 26/37/26 30/28/30 39/38/39 32/21/32
f 30/28/30 24/27/24 38/35/38 39/38/39
f 29/23/29 40/32/40 33/24/33
f 26/37/26 35/39/35 31/25/31 30/28/30
f 21/30/21 29/23/29 9/3/9 1/11/1
f 36/40/36 28/36/28 22/31/22 23/34/23
f 35/39/35 26/37/26 28/36/28 36/40/36
f 17/8/17 3/7/3 24/27/24 37/26/37
f 34/33/34 25/29/25 2/10/2 14/14/14
f 38/35/38 24/27/24 3/7/3 18/18/18
f 39/38/39 27/22/27 32/21/32
f 38/35/38 27/22/27 39/38/39
f 40/32/40 22/31/22 28/36/28 33/24/33
f 40/32/40 29/23/29 21/30/21
