# Blender 4.1.0
# www.blender.org
o right_bumper
v -0.179895 -0.035479 -0.047908
v -0.179895 -0.035479 -0.068769
v -0.185172 -0.032767 -0.047908
v -0.185172 -0.032767 -0.068769
v -0.190751 -0.025044 -0.047908
v -0.190751 -0.025044 -0.068769
v -0.192511 -0.013485 -0.047908
v -0.192511 -0.013485 -0.068769
v -0.192461 0.000150 -0.047908
v -0.192461 0.000150 -0.068769
v -0.187773 0.013784 -0.047908
v -0.187773 0.013784 -0.068769
v -0.179485 0.025343 -0.047908
v -0.179485 0.025343 -0.068769
v -0.167926 0.033066 -0.047908
v -0.167926 0.033066 -0.068769
v -0.150647 0.035779 -0.047908
v -0.150647 0.035779 -0.068769
v -0.178950 -0.032856 -0.072953
v -0.183582 -0.030383 -0.072953
v -0.188480 -0.023340 -0.072953
v -0.190024 -0.012800 -0.072953
v -0.189981 -0.000367 -0.072953
v -0.185865 0.012066 -0.072953
v -0.178589 0.022606 -0.072953
v -0.168442 0.029649 -0.072953
v -0.152829 0.032122 -0.072953
v -0.176247 -0.025458 -0.075312
v -0.179224 -0.023069 -0.075312
v -0.182563 -0.018219 -0.075312
v -0.184075 -0.011274 -0.075312
v -0.183885 -0.001613 -0.075312
v -0.181310 0.008516 -0.075312
v -0.176278 0.017174 -0.075312
v -0.168705 0.022958 -0.075312
v -0.155604 0.026281 -0.075312
v -0.074064 0.035779 -0.047908
v -0.074063 0.035779 -0.068769
v -0.074064 -0.035479 -0.047908
v -0.074063 0.032219 -0.072903
v -0.074063 0.026316 -0.075359
v -0.074064 -0.035479 -0.068769
v -0.074064 -0.032935 -0.072840
v -0.074064 -0.025429 -0.075257
v 0.050370 -0.025359 -0.037618
v 0.050370 0.026299 -0.037618
v -0.019207 -0.025359 -0.065365
v -0.019207 0.026299 -0.065365
v 0.180479 -0.025359 0.096383
v 0.177184 0.026441 0.092210
v 0.155958 -0.025359 0.055519
v 0.155958 0.026299 0.055519
v 0.111480 -0.025359 0.004759
v 0.111480 0.026299 0.004759
v 0.048547 -0.032074 -0.034394
v -0.020007 -0.031482 -0.062706
v 0.178560 -0.030933 0.097308
v 0.153836 -0.030933 0.056718
v 0.109836 -0.031666 0.007051
v 0.046609 -0.034372 -0.030797
v -0.021147 -0.035022 -0.059791
v 0.174870 -0.032164 0.099440
v 0.150624 -0.032164 0.059261
v 0.107376 -0.033539 0.009868
v 0.036169 -0.034372 -0.011143
v -0.027489 -0.035022 -0.039491
v 0.152555 -0.030653 0.103003
v 0.130152 -0.032164 0.073258
v 0.091638 -0.033539 0.028183
v 0.048397 0.033481 -0.034716
v -0.020194 0.033029 -0.062617
v 0.172956 0.030962 0.093349
v 0.153771 0.033531 0.056750
v 0.109586 0.033702 0.007127
v 0.036219 0.035844 -0.011064
v 0.046424 0.035844 -0.031192
v -0.021180 0.035844 -0.059596
v 0.166081 0.033384 0.094121
v 0.150626 0.035844 0.059266
v 0.107218 0.035844 0.009857
v -0.027417 0.035844 -0.038902
v 0.156266 0.033978 0.097979
v 0.130215 0.035844 0.073157
v 0.091626 0.035844 0.028000
v 0.182130 -0.027173 0.109068
v 0.179457 -0.028404 0.111672
v 0.184379 -0.013866 0.115434
v 0.179548 -0.013063 0.118317
v 0.183752 0.006577 0.115279
v 0.179131 0.007049 0.118527
v 0.178748 0.021389 0.107764
v 0.173545 0.022499 0.109776
v 0.183613 -0.023789 0.104868
v 0.178817 0.000761 0.094279
v 0.185658 -0.013120 0.111224
v 0.185103 0.005738 0.111005
v 0.181501 0.018859 0.103897
v 0.163675 0.023705 0.112205
v 0.168635 0.006507 0.120454
v 0.168844 -0.012717 0.120032
v 0.166172 -0.027467 0.111405
v 0.149068 0.023705 0.107480
v 0.155405 0.006507 0.115729
v 0.155615 -0.012717 0.115307
vn -0.2352 -0.9720 -0.0000
vn -0.6518 -0.7584 -0.0000
vn -0.6242 -0.7279 -0.2839
vn -0.2304 -0.9323 -0.2789
vn -0.9255 -0.3786 -0.0000
vn -0.8878 -0.3698 -0.2738
vn -0.9973 -0.0737 -0.0000
vn -0.9618 -0.0726 -0.2640
vn -0.9860 0.1666 -0.0000
vn -0.9525 0.1608 -0.2585
vn -0.8885 0.4588 -0.0000
vn -0.8576 0.4457 -0.2565
vn -0.6953 0.7187 -0.0000
vn -0.6640 0.6986 -0.2665
vn -0.3638 0.9315 -0.0000
vn -0.3328 0.8935 -0.3015
vn -0.0778 0.9970 -0.0000
vn -0.0653 0.9393 -0.3368
vn -0.4809 0.4704 -0.7399
vn -0.6061 0.2973 -0.7377
vn -0.6578 0.1067 -0.7456
vn -0.6478 -0.0476 -0.7603
vn -0.2551 0.5909 -0.7653
vn -0.5931 -0.2327 -0.7707
vn -0.4133 -0.4596 -0.7861
vn -0.0541 0.5992 -0.7988
vn -0.1507 -0.6060 -0.7811
vn -0.1982 0.0293 -0.9797
vn -0.1927 -0.0137 -0.9812
vn -0.1694 -0.0590 -0.9838
vn -0.1114 -0.1076 -0.9879
vn -0.0992 0.1932 -0.9761
vn -0.1713 0.1473 -0.9742
vn -0.1957 0.0858 -0.9769
vn -0.0457 -0.1662 -0.9850
vn -0.0267 0.2033 -0.9788
vn -0.0007 1.0000 -0.0001
vn 0.0325 0.9299 -0.3663
vn 0.0720 0.5775 -0.8132
vn 0.0873 0.1934 -0.9772
vn 0.0389 -0.9450 -0.3247
vn 0.0047 -1.0000 0.0007
vn 0.0788 -0.5897 -0.8038
vn 0.0891 -0.1664 -0.9820
vn 0.4610 -0.2273 -0.8578
vn 0.2718 -0.2032 -0.9407
vn 0.2714 0.2030 -0.9408
vn 0.4638 0.2085 -0.8611
vn 0.8977 -0.2099 -0.3873
vn 0.7936 -0.1949 -0.5763
vn 0.9016 0.0226 -0.4320
vn 0.6490 -0.2146 -0.7299
vn 0.6523 0.1917 -0.7333
vn 0.7962 0.2184 -0.5642
vn 0.4791 -0.6962 -0.5345
vn 0.3557 -0.6559 -0.6658
vn 0.2296 -0.5939 -0.7711
vn 0.6462 -0.7377 -0.1954
vn 0.5619 -0.7177 -0.4113
vn 0.1599 -0.9730 -0.1666
vn 0.1466 -0.9530 -0.2653
vn 0.1733 -0.9793 0.1048
vn 0.1403 -0.9861 -0.0891
vn 0.1083 -0.9325 -0.3446
vn -0.0022 -0.9997 0.0255
vn 0.0122 -0.9999 0.0116
vn 0.0091 -0.9999 0.0051
vn 0.0087 -1.0000 0.0024
vn -0.1173 -0.9371 0.3289
vn 0.3590 0.6426 -0.6769
vn 0.5070 0.6452 -0.5716
vn 0.2184 0.6041 -0.7664
vn 0.6018 0.6887 -0.4045
vn 0.6075 0.7941 0.0201
vn 0.8903 0.3735 -0.2604
vn 0.1398 0.9536 -0.2666
vn 0.1855 0.9597 -0.2109
vn 0.2255 0.9673 -0.1161
vn 0.2659 0.9458 0.1866
vn 0.0935 0.9368 -0.3372
vn -0.0000 1.0000 -0.0000
vn -0.0313 0.9967 0.0753
vn -0.0006 1.0000 -0.0001
vn -0.0840 0.9168 0.3905
vn 0.7520 -0.5945 0.2845
vn 0.2910 -0.7249 0.6244
vn 0.7995 -0.1778 0.5738
vn 0.3349 -0.2102 0.9185
vn 0.7593 0.2661 0.5939
vn 0.3657 0.2764 0.8887
vn 0.6280 0.6468 0.4327
vn 0.3112 0.7022 0.6403
vn 0.9637 -0.2226 -0.1474
vn 0.9980 -0.0630 -0.0097
vn 0.9879 0.1550 0.0087
vn 0.9378 0.3455 -0.0349
vn -0.0177 0.6323 0.7745
vn -0.0497 0.2081 0.9769
vn -0.1111 -0.2395 0.9645
vn -0.1371 -0.7100 0.6907
vn -0.3499 -0.2709 0.8968
vn -0.3230 0.1776 0.9296
vn -0.3144 0.6353 0.7054
vt 0.020044 0.054952
vt 0.029583 0.042313
vt 0.065128 0.072056
vt 0.059237 0.081473
vt 0.049065 0.023596
vt 0.077421 0.061423
vt 0.079306 0.007369
vt 0.096385 0.053802
vt 0.118748 0.000051
vt 0.120815 0.050106
vt 0.160899 0.006042
vt 0.146783 0.054351
vt 0.198286 0.024505
vt 0.170145 0.066141
vt 0.227681 0.052556
vt 0.188378 0.084759
vt 0.251408 0.097803
vt 0.202132 0.117444
vt 0.162956 0.072117
vt 0.142892 0.062458
vt 0.120607 0.058987
vt 0.099532 0.062070
vt 0.178438 0.087481
vt 0.082875 0.067957
vt 0.072344 0.076907
vt 0.189630 0.115359
vt 0.068072 0.084776
vt 0.120138 0.070306
vt 0.103988 0.072463
vt 0.092897 0.076741
vt 0.085595 0.083558
vt 0.165930 0.089760
vt 0.153795 0.078337
vt 0.137805 0.072034
vt 0.082027 0.089278
vt 0.176212 0.112012
vt 0.264873 0.286534
vt 0.214885 0.283575
vt 0.202822 0.283206
vt 0.188908 0.283226
vt 0.049637 0.285733
vt 0.003449 0.289006
vt 0.059612 0.285135
vt 0.075721 0.284943
vt 0.076310 0.561130
vt 0.076363 0.401903
vt 0.189582 0.402884
vt 0.187259 0.562024
vt 0.098734 0.916213
vt 0.080593 0.845131
vt 0.130727 0.908478
vt 0.075932 0.714884
vt 0.183749 0.715749
vt 0.176054 0.843906
vt 0.061864 0.715797
vt 0.059872 0.560938
vt 0.061910 0.401778
vt 0.090924 0.918659
vt 0.069471 0.846218
vt 0.053203 0.716092
vt 0.049840 0.560931
vt 0.085125 0.922182
vt 0.061645 0.847821
vt 0.051700 0.401125
vt 0.007625 0.856341
vt 0.000051 0.718636
vt 0.000051 0.561485
vt 0.004140 0.399966
vt 0.038895 0.950038
vt 0.204388 0.561583
vt 0.200108 0.716797
vt 0.205528 0.402555
vt 0.189883 0.845168
vt 0.172909 0.909578
vt 0.164070 0.908476
vt 0.214434 0.561631
vt 0.208797 0.717319
vt 0.198101 0.847067
vt 0.184073 0.910691
vt 0.214778 0.402353
vt 0.261903 0.720862
vt 0.251180 0.860074
vt 0.264178 0.401982
vt 0.265035 0.563884
vt 0.201039 0.918093
vt 0.099763 0.931462
vt 0.097559 0.935562
vt 0.115026 0.936869
vt 0.115163 0.943867
vt 0.138136 0.936439
vt 0.140299 0.943341
vt 0.157744 0.928477
vt 0.163819 0.933980
vt 0.103158 0.926157
vt 0.115696 0.931906
vt 0.136834 0.931157
vt 0.153184 0.923109
vt 0.177293 0.945182
vt 0.144981 0.959434
vt 0.111740 0.960796
vt 0.082973 0.948961
vt 0.097682 0.999949
vt 0.161309 0.992200
vt 0.215139 0.956445
s 1
f 1/1/1 3/2/2 4/3/3 2/4/4
f 3/2/2 5/5/5 6/6/6 4/3/3
f 5/5/5 7/7/7 8/8/8 6/6/6
f 7/7/7 9/9/9 10/10/10 8/8/8
f 9/9/9 11/11/11 12/12/12 10/10/10
f 11/11/11 13/13/13 14/14/14 12/12/12
f 13/13/13 15/15/15 16/16/16 14/14/14
f 15/15/15 17/17/17 18/18/18 16/16/16
f 14/14/14 25/19/19 24/20/20 12/12/12
f 10/10/10 23/21/21 22/22/22 8/8/8
f 16/16/16 26/23/23 25/19/19 14/14/14
f 6/6/6 21/24/24 20/25/25 4/3/3
f 12/12/12 24/20/20 23/21/21 10/10/10
f 18/18/18 27/26/26 26/23/23 16/16/16
f 4/3/3 20/25/25 19/27/27 2/4/4
f 8/8/8 22/22/22 21/24/24 6/6/6
f 23/21/21 32/28/28 31/29/29 22/22/22
f 21/24/24 30/30/30 29/31/31 20/25/25
f 26/23/23 35/32/32 34/33/33 25/19/19
f 24/20/20 33/34/34 32/28/28 23/21/21
f 22/22/22 31/29/29 30/30/30 21/24/24
f 20/25/25 29/31/31 28/35/35 19/27/27
f 27/26/26 36/36/36 35/32/32 26/23/23
f 25/19/19 34/33/33 33/34/34 24/20/20
f 17/17/17 37/37/37 38/38/38 18/18/18
f 38/38/38 40/39/39 27/26/26 18/18/18
f 40/39/39 41/40/40 36/36/36 27/26/26
f 2/4/4 42/41/41 39/42/42 1/1/1
f 2/4/4 19/27/27 43/43/43 42/41/41
f 19/27/27 28/35/35 44/44/44 43/43/43
f 45/45/45 47/46/46 48/47/47 46/48/48
f 47/46/46 44/44/44 41/40/40 48/47/47
f 49/49/49 51/50/50 94/51/51
f 51/50/50 53/52/52 54/53/53 52/54/54
f 53/52/52 45/45/45 46/48/48 54/53/53
f 53/52/52 59/55/55 55/56/56 45/45/45
f 45/45/45 55/56/56 56/57/57 47/46/46
f 49/49/49 57/58/58 58/59/59 51/50/50
f 47/46/46 56/57/57 43/43/43 44/44/44
f 51/50/50 58/59/59 59/55/55 53/52/52
f 59/55/55 64/60/60 60/61/61 55/56/56
f 57/58/58 62/62/62 63/63/63 58/59/59
f 55/56/56 60/61/61 61/64/64 56/57/57
f 58/59/59 63/63/63 64/60/60 59/55/55
f 56/57/57 61/64/64 42/41/41 43/43/43
f 63/63/63 68/65/65 69/66/66 64/60/60
f 60/61/61 65/67/67 66/68/68 61/64/64
f 61/64/64 66/68/68 39/42/42 42/41/41
f 64/60/60 69/66/66 65/67/67 60/61/61
f 62/62/62 67/69/69 68/65/65 63/63/63
f 46/48/48 70/70/70 74/71/71 54/53/53
f 48/47/47 71/72/72 70/70/70 46/48/48
f 52/54/54 73/73/73 72/74/74 50/75/75
f 41/40/40 40/39/39 71/72/72 48/47/47
f 54/53/53 74/71/71 73/73/73 52/54/54
f 70/70/70 76/76/76 80/77/77 74/71/71
f 73/73/73 79/78/78 78/79/79 72/74/74
f 40/39/39 38/38/38 77/80/80 71/72/72
f 74/71/71 80/77/77 79/78/78 73/73/73
f 71/72/72 77/80/80 76/76/76 70/70/70
f 80/77/77 84/81/81 83/82/82 79/78/78
f 38/38/38 37/37/37 81/83/83 77/80/80
f 77/80/80 81/83/83 75/84/81 76/76/76
f 76/76/76 75/84/81 84/81/81 80/77/77
f 79/78/78 83/82/82 82/85/84 78/79/79
f 57/58/58 85/86/85 86/87/86 62/62/62
f 85/86/85 87/88/87 88/89/88 86/87/86
f 87/88/87 89/90/89 90/91/90 88/89/88
f 89/90/89 91/92/91 92/93/92 90/91/90
f 72/74/74 78/79/79 92/93/92 91/92/91
f 49/49/49 93/94/93 85/86/85 57/58/58
f 93/94/93 95/95/94 87/88/87 85/86/85
f 95/95/94 96/96/95 89/90/89 87/88/87
f 96/96/95 97/97/96 91/92/91 89/90/89
f 50/75/75 72/74/74 91/92/91 97/97/96
f 94/51/51 50/75/75 97/97/96
f 52/54/54 50/75/75 94/51/51
f 51/50/50 52/54/54 94/51/51
f 97/97/96 96/96/95 94/51/51
f 95/95/94 94/51/51 96/96/95
f 93/94/93 94/51/51 95/95/94
f 94/51/51 93/94/93 49/49/49
f 82/85/84 98/98/97 92/93/92 78/79/79
f 98/98/97 99/99/98 90/91/90 92/93/92
f 99/99/98 100/100/99 88/89/88 90/91/90
f 100/100/99 101/101/100 86/87/86 88/89/88
f 67/69/69 62/62/62 86/87/86 101/101/100
f 100/100/99 104/102/101 67/69/69 101/101/100
f 99/99/98 103/103/102 104/102/101 100/100/99
f 98/98/97 102/104/103 103/103/102 99/99/98
f 98/98/97 82/85/84 102/104/103
f 82/85/84 83/82/82 102/104/103
f 36/36/36 41/40/40 44/44/44 28/35/35
f 35/32/32 36/36/36 28/35/35
f 29/31/31 34/33/33 35/32/32 28/35/35
f 30/30/30 33/34/34 34/33/33 29/31/31
f 31/29/29 32/28/28 33/34/34 30/30/30
