# Blender 4.1.0
# www.blender.org
o right_trigger
v 0.149282 0.020086 0.080968
v 0.162231 0.018407 0.059738
v 0.134653 -0.008770 0.080453
v 0.151067 -0.012811 0.057932
v 0.121169 -0.036863 0.071024
v 0.142237 -0.037285 0.050608
v 0.110918 -0.062583 0.058381
v 0.124209 -0.060112 0.036275
v 0.076983 -0.094527 0.031971
v 0.091198 -0.092795 0.009090
v 0.041652 -0.112977 0.007824
v 0.052004 -0.108959 -0.020087
v 0.004147 -0.119551 -0.006417
v 0.010379 -0.113189 -0.040747
v -0.044009 -0.120715 -0.014669
v -0.042597 -0.114649 -0.049198
v -0.090617 -0.114221 -0.013042
v -0.095074 -0.109371 -0.044568
v -0.129492 -0.090474 -0.012372
v -0.130459 -0.087865 -0.042404
v -0.148523 -0.061616 -0.020704
v -0.147004 -0.062634 -0.043123
v -0.092943 -0.116767 -0.025586
v -0.132388 -0.094568 -0.022813
v -0.150166 -0.065733 -0.029706
v 0.123699 -0.058126 0.051394
v 0.088632 -0.095098 0.020409
v 0.048471 -0.114240 -0.006786
v 0.009167 -0.120718 -0.023488
v -0.044408 -0.120965 -0.032460
v -0.157813 -0.024594 -0.059559
v -0.160219 -0.026080 -0.047256
v -0.154740 -0.022592 -0.039267
v 0.129103 0.015271 0.077609
v 0.118082 -0.013537 0.072698
v 0.107116 -0.039260 0.065297
v 0.089940 -0.063876 0.050400
v 0.062797 -0.085948 0.029272
v 0.034533 -0.100708 0.009954
v 0.004529 -0.105968 -0.001439
v -0.040479 -0.104266 -0.008005
v -0.077762 -0.096362 -0.006703
v -0.102382 -0.082706 -0.006203
v -0.126786 -0.059982 -0.012920
v -0.138415 -0.023685 -0.029576
v 0.113351 0.017549 0.103235
v 0.102959 -0.000285 0.099045
v 0.092654 -0.025048 0.091563
v 0.074888 -0.046911 0.080764
v 0.050425 -0.068887 0.062732
v 0.024511 -0.083650 0.044875
v -0.003001 -0.088914 0.033468
v -0.038322 -0.089850 0.026850
v -0.072505 -0.084659 0.028135
v -0.101013 -0.065665 0.028657
v -0.123380 -0.039461 0.021929
v -0.128999 -0.011712 0.005241
v -0.157900 0.025891 -0.065106
v -0.129378 0.006494 -0.004657
v -0.141817 0.014854 -0.043998
v -0.112497 -0.057965 -0.059708
v -0.118173 -0.030682 -0.070068
v -0.059682 -0.060827 -0.064064
v -0.062158 -0.032443 -0.072318
v 0.017735 -0.058205 -0.047551
v 0.020117 -0.027630 -0.053602
v 0.054553 -0.058372 -0.028728
v 0.060688 -0.027382 -0.031779
v 0.091451 -0.055657 -0.002802
v 0.096708 -0.024849 -0.005350
v 0.128043 -0.023546 0.026164
v 0.134897 0.018574 0.015928
v 0.102680 0.018621 -0.016703
v 0.066315 0.017867 -0.044334
v 0.027652 0.018252 -0.065064
v -0.061985 0.017140 -0.087576
v -0.124462 0.018302 -0.086782
v -0.155861 0.017897 -0.083856
v 0.071094 0.022445 0.069926
v 0.135023 0.025727 0.037376
v 0.102805 0.025773 0.004744
v 0.066440 0.025020 -0.022886
v 0.027778 0.025405 -0.043617
v -0.061860 0.024293 -0.066128
v -0.124336 0.025942 -0.065334
v 0.093443 0.012765 0.040935
v 0.057078 0.012012 0.013305
v 0.018416 0.012396 -0.007426
v -0.070263 0.010492 -0.034518
v 0.040703 0.017610 0.046521
v 0.003479 0.014921 0.027460
vn 0.7573 -0.3465 0.5536
vn 0.7021 -0.4082 0.5835
vn 0.6998 -0.4106 0.5846
vn 0.6097 -0.4918 0.6216
vn 0.6552 -0.5199 0.5481
vn 0.4873 -0.7075 0.5118
vn 0.6354 -0.6669 0.3892
vn 0.3592 -0.8701 0.3376
vn 0.5044 -0.8475 0.1652
vn 0.2041 -0.9593 0.1953
vn 0.3073 -0.9510 -0.0334
vn 0.0626 -0.9948 0.0807
vn 0.1315 -0.9793 -0.1536
vn -0.0449 -0.9966 0.0695
vn -0.0400 -0.9847 -0.1695
vn -0.2825 -0.9334 0.2214
vn -0.3109 -0.9493 -0.0473
vn -0.6636 -0.6501 0.3701
vn -0.6915 -0.7197 0.0620
vn -0.8927 -0.2245 0.3908
vn -0.9255 -0.3700 0.0812
vn -0.9871 -0.0624 0.1475
vn -0.9744 -0.1329 -0.1814
vn -0.8592 -0.4346 -0.2698
vn -0.6698 -0.6815 -0.2949
vn -0.0223 -0.9309 -0.3646
vn 0.1623 -0.9199 -0.3570
vn 0.5751 -0.8161 -0.0564
vn 0.7038 -0.7054 0.0840
vn -0.3341 -0.8833 -0.3288
vn 0.3712 -0.8931 -0.2542
vn -0.6968 0.2156 0.6841
vn -0.2089 -0.3335 0.9193
vn -0.2252 -0.3314 0.9162
vn -0.0918 -0.3424 0.9351
vn -0.0809 -0.3427 0.9360
vn -0.2996 0.0436 0.9531
vn -0.3563 -0.0705 0.9317
vn -0.3210 0.0019 0.9471
vn -0.3400 -0.3490 0.8733
vn -0.3327 -0.3454 0.8775
vn -0.3556 -0.3734 0.8568
vn -0.3686 -0.3720 0.8519
vn -0.3221 -0.3305 0.8871
vn -0.3342 -0.3610 0.8707
vn -0.3614 0.2141 0.9075
vn -0.3263 0.1355 0.9355
vn -0.4301 0.2945 0.8534
vn -0.3612 -0.1758 0.9158
vn -0.3352 -0.2612 0.9052
vn -0.2392 -0.0509 0.9696
vn -0.1809 -0.1693 0.9688
vn -0.0906 -0.2931 0.9518
vn -0.0725 -0.3075 0.9488
vn -0.0435 -0.9061 0.4208
vn -0.0398 -0.9055 0.4225
vn -0.1130 -0.9160 0.3849
vn -0.1171 -0.9164 0.3827
vn 0.3334 -0.7552 0.5644
vn 0.3819 -0.7192 0.5804
vn 0.2242 -0.8244 0.5197
vn 0.1891 -0.8436 0.5025
vn -0.8650 -0.3881 0.3179
vn -0.8780 -0.3637 0.3111
vn -0.9647 -0.0515 0.2583
vn -0.9644 -0.0327 0.2623
vn 0.7114 -0.4344 0.5524
vn 0.6899 -0.4423 0.5731
vn 0.6768 -0.4468 0.5851
vn -0.3236 -0.8696 0.3728
vn -0.3227 -0.8700 0.3728
vn 0.0816 -0.8824 0.4634
vn 0.0517 -0.8889 0.4552
vn 0.5814 -0.5397 0.6089
vn 0.5259 -0.5957 0.6071
vn -0.6227 -0.6873 0.3739
vn -0.5974 -0.7090 0.3747
vn -0.6887 0.2816 0.6681
vn -0.9584 0.0560 0.2797
vn -0.9903 -0.0169 -0.1382
vn -0.2548 -0.4180 -0.8720
vn -0.1617 -0.3726 -0.9138
vn -0.2107 -0.3495 -0.9129
vn -0.3483 -0.3633 -0.8641
vn 0.0843 -0.2907 -0.9531
vn 0.0494 -0.2670 -0.9624
vn 0.3415 -0.2502 -0.9060
vn 0.3356 -0.1941 -0.9218
vn 0.5237 -0.2355 -0.8187
vn 0.5226 -0.1861 -0.8320
vn 0.6474 -0.2412 -0.7230
vn 0.6574 -0.2026 -0.7258
vn 0.7568 -0.2366 -0.6093
vn 0.7398 -0.2252 -0.6340
vn 0.8021 -0.1828 -0.5685
vn 0.8225 -0.2222 -0.5236
vn 0.6614 -0.2047 -0.7216
vn 0.5224 -0.1843 -0.8325
vn 0.3111 -0.1748 -0.9342
vn 0.0763 -0.2285 -0.9706
vn -0.1515 -0.3196 -0.9354
vn -0.3204 -0.3229 -0.8905
vn 0.7534 -0.2684 -0.6003
vn 0.8199 -0.2601 -0.5100
vn 0.6337 -0.2781 -0.7219
vn 0.5174 -0.2856 -0.8067
vn 0.3498 -0.2858 -0.8922
vn 0.0985 -0.2979 -0.9495
vn -0.1230 -0.3647 -0.9230
vn -0.2011 -0.4087 -0.8903
vn 0.2416 0.9201 -0.3083
vn 0.0320 0.9988 -0.0367
vn 0.0697 0.9974 0.0195
vn 0.3139 0.9134 -0.2591
vn -0.0018 0.9968 0.0795
vn 0.3307 0.9390 -0.0950
vn -0.0029 0.9389 -0.3443
vn -0.0242 0.9313 -0.3634
vn -0.0006 0.9983 0.0576
vn 0.0023 1.0000 -0.0015
vn 0.0404 0.9460 -0.3215
vn 0.0127 0.9997 -0.0210
vn 0.1091 0.9428 -0.3151
vn 0.0207 0.9994 -0.0261
vn 0.1894 0.9311 -0.3116
vn 0.0018 0.8867 0.4623
vn 0.0097 0.9262 0.3769
vn -0.0977 0.9922 0.0774
vn -0.0407 0.9748 0.2194
vn -0.0657 0.9893 0.1302
vn -0.0843 0.9931 0.0816
vn -0.0885 0.9945 0.0554
vn 0.0007 0.9910 0.1341
vn 0.0039 0.9969 -0.0784
vn 0.0490 0.9866 -0.1554
vn 0.1035 0.9819 -0.1583
vn 0.1374 0.9833 -0.1194
vn -0.7347 0.2812 0.6174
vt 0.430250 0.156416
vt 0.476855 0.150853
vt 0.458512 0.194453
vt 0.425216 0.177093
vt 0.533198 0.191068
vt 0.485243 0.224588
vt 0.558762 0.256831
vt 0.526140 0.253705
vt 0.582888 0.378576
vt 0.546630 0.374189
vt 0.566471 0.485677
vt 0.531247 0.479508
vt 0.539199 0.577835
vt 0.502640 0.562195
vt 0.485307 0.678489
vt 0.451579 0.658497
vt 0.414507 0.753305
vt 0.397210 0.733847
vt 0.335503 0.790004
vt 0.330314 0.769168
vt 0.270652 0.786260
vt 0.275576 0.769284
vt 0.215453 0.736006
vt 0.219783 0.718580
vt 0.272472 0.746662
vt 0.315905 0.740932
vt 0.422620 0.638278
vt 0.466754 0.553400
vt 0.523083 0.380366
vt 0.506014 0.276831
vt 0.370940 0.710415
vt 0.501977 0.475761
vt 0.204291 0.747968
vt 0.575901 0.583946
vt 0.527072 0.698774
vt 0.428100 0.108013
vt 0.517825 0.133232
vt 0.599173 0.498132
vt 0.620133 0.398141
vt 0.604770 0.286811
vt 0.282953 0.842126
vt 0.187609 0.786150
vt 0.573953 0.194261
vt 0.388072 0.835736
vt 0.459657 0.786466
vt 0.714696 0.613665
vt 0.658549 0.764324
vt 0.703550 0.191432
vt 0.743369 0.339727
vt 0.228660 0.999914
vt 0.076035 0.919355
vt 0.448581 0.000086
vt 0.530316 0.014962
vt 0.565851 0.904013
vt 0.738562 0.485363
vt 0.628849 0.087108
vt 0.412053 0.999075
vt 0.143974 0.710324
vt 0.000086 0.820352
vt 0.180419 0.691789
vt 0.190828 0.685227
vt 0.250219 0.678484
vt 0.288755 0.692035
vt 0.282579 0.606624
vt 0.326690 0.621368
vt 0.330255 0.473484
vt 0.380446 0.498190
vt 0.367555 0.398117
vt 0.416177 0.431639
vt 0.404130 0.324094
vt 0.452154 0.356324
vt 0.442665 0.255313
vt 0.377480 0.222247
vt 0.329085 0.284745
vt 0.285771 0.359395
vt 0.253255 0.432984
vt 0.209360 0.582246
vt 0.195293 0.660872
vt 0.318588 0.241986
vt 0.381076 0.185588
vt 0.166647 0.663462
vt 0.173066 0.569529
vt 0.219778 0.403321
vt 0.262714 0.319044
vt 0.097146 0.572615
vt 0.134379 0.352788
vt 0.199017 0.240478
vt 0.292122 0.150933
vt 0.000086 0.297290
vt 0.102421 0.140587
vt 0.231834 0.035479
s 1
f 1/1/1 3/2/2 4/3/3 2/4/1
f 3/2/2 5/5/4 6/6/5 4/3/3
f 5/5/4 7/7/6 26/8/7
f 7/7/6 9/9/8 27/10/9 26/8/7
f 9/9/8 11/11/10 28/12/11 27/10/9
f 11/11/10 13/13/12 29/14/13 28/12/11
f 13/13/12 15/15/14 30/16/15 29/14/13
f 15/15/14 17/17/16 23/18/17 30/16/15
f 17/17/16 19/19/18 24/20/19 23/18/17
f 19/19/18 21/21/20 25/22/21 24/20/19
f 25/22/21 32/23/22 31/24/23 22/25/24
f 26/8/7 6/6/5 5/5/4
f 25/22/21 22/25/24 20/26/25 24/20/19
f 30/16/15 16/27/26 14/28/27 29/14/13
f 27/10/9 10/29/28 8/30/29 26/8/7
f 23/18/17 18/31/30 16/27/26 30/16/15
f 28/12/11 12/32/31 10/29/28 27/10/9
f 24/20/19 20/26/25 18/31/30 23/18/17
f 29/14/13 14/28/27 12/32/31 28/12/11
f 6/6/5 26/8/7 8/30/29
f 21/21/20 33/33/32 32/23/22 25/22/21
f 13/13/33 40/34/34 41/35/35 15/15/36
f 1/1/37 34/36/37 35/37/38 3/2/39
f 11/11/40 39/38/41 40/34/34 13/13/33
f 9/9/42 38/39/43 39/38/41 11/11/40
f 7/7/44 37/40/45 38/39/43 9/9/42
f 21/21/46 44/41/47 45/42/48 33/33/32
f 5/5/49 36/43/50 37/40/45 7/7/44
f 3/2/39 35/37/38 36/43/50 5/5/49
f 19/19/51 43/44/52 44/41/47 21/21/46
f 17/17/53 42/45/54 43/44/52 19/19/51
f 15/15/36 41/35/35 42/45/54 17/17/53
f 40/34/55 52/46/56 53/47/57 41/35/58
f 37/40/59 49/48/60 50/49/61 38/39/62
f 44/41/63 56/50/64 57/51/65 45/42/66
f 34/36/67 46/52/67 47/53/68 35/37/69
f 41/35/58 53/47/57 54/54/70 42/45/71
f 38/39/62 50/49/61 51/55/72 39/38/73
f 35/37/69 47/53/68 48/56/74 36/43/75
f 42/45/71 54/54/70 55/57/76 43/44/77
f 39/38/73 51/55/72 52/46/56 40/34/55
f 36/43/75 48/56/74 49/48/60 37/40/59
f 43/44/77 55/57/76 56/50/64 44/41/63
f 45/42/48 60/58/78 33/33/32
f 57/51/65 59/59/79 60/58/79 45/42/66
f 32/23/22 58/60/80 78/61/80 31/24/23
f 31/24/81 62/62/82 61/63/83 22/25/84
f 62/62/82 64/64/85 63/65/86 61/63/83
f 64/64/85 66/66/87 65/67/88 63/65/86
f 66/66/87 68/68/89 67/69/90 65/67/88
f 68/68/89 70/70/91 69/71/92 67/69/90
f 70/70/91 71/72/93 8/30/94 69/71/92
f 8/30/94 71/72/93 6/6/95
f 6/6/95 71/72/93 4/3/96
f 8/30/94 10/29/97 69/71/92
f 10/29/97 12/32/98 67/69/90 69/71/92
f 12/32/98 14/28/99 65/67/88 67/69/90
f 14/28/99 16/27/100 63/65/86 65/67/88
f 16/27/100 18/31/101 61/63/83 63/65/86
f 18/31/101 20/26/102 61/63/83
f 20/26/102 22/25/84 61/63/83
f 4/3/96 71/72/93 72/73/103 2/4/104
f 71/72/93 70/70/91 73/74/105 72/73/103
f 70/70/91 68/68/89 74/75/106 73/74/105
f 68/68/89 66/66/87 75/76/107 74/75/106
f 66/66/87 64/64/85 76/77/108 75/76/107
f 64/64/85 62/62/82 77/78/109 76/77/108
f 62/62/82 31/24/81 78/61/110 77/78/109
f 73/74/111 81/79/112 80/80/113 72/73/114
f 72/73/114 80/80/113 1/1/115 2/4/116
f 77/78/117 78/61/118 58/60/118 85/81/119
f 77/78/117 85/81/119 84/82/120 76/77/121
f 76/77/121 84/82/120 83/83/122 75/76/123
f 75/76/123 83/83/122 82/84/124 74/75/125
f 74/75/125 82/84/124 81/79/112 73/74/111
f 58/60/126 60/58/127 85/81/119
f 1/1/115 80/80/113 34/36/128
f 84/82/120 89/85/129 88/86/130 83/83/122
f 82/84/124 87/87/131 86/88/132 81/79/112
f 85/81/119 89/85/129 84/82/120
f 83/83/122 88/86/130 87/87/131 82/84/124
f 81/79/112 86/88/132 34/36/128 80/80/113
f 60/58/127 59/59/133 89/85/129
f 89/85/129 59/59/133 91/89/134
f 87/87/131 90/90/135 79/91/136 86/88/132
f 88/86/130 91/89/134 90/90/135 87/87/131
f 86/88/132 79/91/136 46/52/137 34/36/128
f 91/89/134 88/86/130 89/85/129
f 89/85/129 85/81/119 60/58/127
f 32/23/22 33/33/32 60/58/78 58/60/138
