# Blender 4.1.0
# www.blender.org
o x_button
v 0.513016 0.189711 -0.482901
v 0.513016 0.215598 -0.482901
v 0.532465 0.189711 -0.479033
v 0.532465 0.215598 -0.479033
v 0.548953 0.189711 -0.468016
v 0.548953 0.215598 -0.468016
v 0.559970 0.189711 -0.451528
v 0.559970 0.215598 -0.451528
v 0.563839 0.189711 -0.432079
v 0.563839 0.215598 -0.432079
v 0.559970 0.189711 -0.412630
v 0.559970 0.215598 -0.412630
v 0.548953 0.189711 -0.396141
v 0.548953 0.215598 -0.396141
v 0.532465 0.189711 -0.385124
v 0.532465 0.215598 -0.385124
v 0.513016 0.189711 -0.381256
v 0.513016 0.215598 -0.381256
v 0.493567 0.189711 -0.385124
v 0.493567 0.215598 -0.385124
v 0.477079 0.189711 -0.396141
v 0.477079 0.215598 -0.396141
v 0.466062 0.189711 -0.412630
v 0.466062 0.215598 -0.412630
v 0.462193 0.189711 -0.432079
v 0.462193 0.215598 -0.432079
v 0.466062 0.189711 -0.451528
v 0.466062 0.215598 -0.451528
v 0.477079 0.189711 -0.468016
v 0.477079 0.215598 -0.468016
v 0.493567 0.189711 -0.479033
v 0.493567 0.215598 -0.479033
v 0.531184 0.219422 -0.475939
v 0.513016 0.219422 -0.479553
v 0.546586 0.219422 -0.465648
v 0.556877 0.219422 -0.450246
v 0.560490 0.219422 -0.432079
v 0.556877 0.219422 -0.413911
v 0.546586 0.219422 -0.398509
v 0.531184 0.219422 -0.388218
v 0.513016 0.219422 -0.384604
v 0.494849 0.219422 -0.388218
v 0.479447 0.219422 -0.398509
v 0.469156 0.219422 -0.413911
v 0.465542 0.219422 -0.432079
v 0.469156 0.219422 -0.450246
v 0.479447 0.219422 -0.465648
v 0.494849 0.219422 -0.475939
v 0.527916 0.222523 -0.468049
v 0.513016 0.222523 -0.471013
v 0.540547 0.222523 -0.459609
v 0.548987 0.222523 -0.446978
v 0.551951 0.222523 -0.432079
v 0.548987 0.222523 -0.417179
v 0.540547 0.222523 -0.404548
v 0.527916 0.222523 -0.396108
v 0.513016 0.222523 -0.393144
v 0.498117 0.222523 -0.396108
v 0.485486 0.222523 -0.404548
v 0.477045 0.222523 -0.417179
v 0.474082 0.222523 -0.432079
v 0.477045 0.222523 -0.446978
v 0.485486 0.222523 -0.459609
v 0.498117 0.222523 -0.468049
v 0.513016 0.224557 -0.432079
vn -0.0000 -0.0000 -1.0000
vn -0.0000 0.3383 -0.9410
vn 0.3827 -0.0000 -0.9239
vn 0.3601 0.3383 -0.8694
vn 0.7071 -0.0000 -0.7071
vn 0.6654 0.3383 -0.6654
vn 0.9239 -0.0000 -0.3827
vn 0.8694 0.3383 -0.3601
vn 1.0000 -0.0000 -0.0000
vn 0.9410 0.3383 -0.0000
vn 0.9239 -0.0000 0.3827
vn 0.8694 0.3383 0.3601
vn 0.7071 -0.0000 0.7071
vn 0.6654 0.3383 0.6654
vn 0.3827 -0.0000 0.9239
vn 0.3601 0.3383 0.8694
vn -0.0000 -0.0000 1.0000
vn -0.0000 0.3383 0.9410
vn -0.3827 -0.0000 0.9239
vn -0.3601 0.3383 0.8694
vn -0.7071 -0.0000 0.7071
vn -0.6654 0.3383 0.6654
vn -0.9239 -0.0000 0.3827
vn -0.8694 0.3383 0.3601
vn -1.0000 -0.0000 -0.0000
vn -0.9410 0.3383 -0.0000
vn -0.9239 -0.0000 -0.3827
vn -0.8694 0.3383 -0.3601
vn -0.7071 -0.0000 -0.7071
vn -0.6654 0.3383 -0.6654
vn -0.3827 -0.0000 -0.9239
vn -0.3601 0.3383 -0.8694
vn 0.2239 0.8110 -0.5405
vn -0.0000 0.8110 -0.5850
vn 0.4137 0.8110 -0.4137
vn 0.5405 0.8110 -0.2239
vn 0.5850 0.8110 -0.0000
vn 0.5405 0.8110 0.2239
vn 0.4137 0.8110 0.4137
vn 0.2239 0.8110 0.5405
vn -0.0000 0.8110 0.5850
vn -0.2239 0.8110 0.5405
vn -0.4137 0.8110 0.4137
vn -0.5405 0.8110 0.2239
vn -0.5850 0.8110 -0.0000
vn -0.5405 0.8110 -0.2239
vn -0.4137 0.8110 -0.4137
vn -0.2239 0.8110 -0.5405
vn 0.0829 0.9763 -0.2000
vn -0.0000 0.9763 -0.2165
vn 0.1531 0.9763 -0.1531
vn 0.2000 0.9763 -0.0829
vn 0.2165 0.9763 -0.0000
vn 0.2000 0.9763 0.0829
vn 0.1531 0.9763 0.1531
vn 0.0829 0.9763 0.2000
vn -0.0000 0.9763 0.2165
vn -0.0829 0.9763 0.2000
vn -0.1531 0.9763 0.1531
vn -0.2000 0.9763 0.0829
vn -0.2165 0.9763 -0.0000
vn -0.2000 0.9763 -0.0829
vn -0.1531 0.9763 -0.1531
vn -0.0829 0.9763 -0.2000
vn -0.0000 1.0000 -0.0000
vt 0.400640 0.999617
vt 0.445760 0.795573
vt 0.562995 0.794009
vt 0.599318 0.999900
vt 0.670769 0.747707
vt 0.783239 0.924034
vt 0.752507 0.663524
vt 0.924052 0.783190
vt 0.794959 0.554153
vt 0.999804 0.599073
vt 0.793649 0.436818
vt 0.999804 0.400236
vt 0.747455 0.328871
vt 0.923718 0.216202
vt 0.663026 0.247376
vt 0.782534 0.075526
vt 0.553825 0.204784
vt 0.598394 0.000100
vt 0.436613 0.206426
vt 0.399775 0.000603
vt 0.329004 0.253043
vt 0.216326 0.076866
vt 0.246993 0.336901
vt 0.075772 0.217447
vt 0.204651 0.446154
vt 0.000100 0.401351
vt 0.205900 0.563337
vt 0.000211 0.599946
vt 0.252313 0.670966
vt 0.076452 0.783531
vt 0.653233 0.722773
vt 0.726742 0.646974
vt 0.337002 0.751938
vt 0.217329 0.923668
vt 0.763864 0.443427
vt 0.765036 0.548702
vt 0.714456 0.539462
vt 0.713428 0.454395
vt 0.646324 0.272843
vt 0.548407 0.234651
vt 0.451035 0.765582
vt 0.556372 0.764256
vt 0.234536 0.451600
vt 0.235607 0.556713
vt 0.722223 0.346274
vt 0.346540 0.278013
vt 0.272687 0.353454
vt 0.353467 0.726418
vt 0.443296 0.236143
vt 0.277431 0.653521
vt 0.683363 0.618726
vt 0.623876 0.680101
vt 0.499759 0.500124
vt 0.285132 0.460834
vt 0.286165 0.545981
vt 0.679730 0.375948
vt 0.320067 0.624299
vt 0.618340 0.316460
vt 0.381323 0.683290
vt 0.538936 0.285283
vt 0.460188 0.714873
vt 0.545380 0.713793
vt 0.453827 0.286599
vt 0.375759 0.320463
vt 0.316208 0.381510
s 1
f 1/1/1 2/2/2 4/3/4 3/4/3
f 3/4/3 4/3/4 6/5/6 5/6/5
f 5/6/5 6/5/6 8/7/8 7/8/7
f 7/8/7 8/7/8 10/9/10 9/10/9
f 9/10/9 10/9/10 12/11/12 11/12/11
f 11/12/11 12/11/12 14/13/14 13/14/13
f 13/14/13 14/13/14 16/15/16 15/16/15
f 15/16/15 16/15/16 18/17/18 17/18/17
f 17/18/17 18/17/18 20/19/20 19/20/19
f 19/20/19 20/19/20 22/21/22 21/22/21
f 21/22/21 22/21/22 24/23/24 23/24/23
f 23/24/23 24/23/24 26/25/26 25/26/25
f 25/26/25 26/25/26 28/27/28 27/28/27
f 27/28/27 28/27/28 30/29/30 29/30/29
f 8/7/8 6/5/6 35/31/35 36/32/36
f 29/30/29 30/29/30 32/33/32 31/34/31
f 31/34/31 32/33/32 2/2/2 1/1/1
f 38/35/38 37/36/37 53/37/53 54/38/54
f 18/17/18 16/15/16 40/39/40 41/40/41
f 4/3/4 2/2/2 34/41/34 33/42/33
f 28/27/28 26/25/26 45/43/45 46/44/46
f 14/13/14 12/11/12 38/35/38 39/45/39
f 24/23/24 22/21/22 43/46/43 44/47/44
f 2/2/2 32/33/32 48/48/48 34/41/34
f 10/9/10 8/7/8 36/32/36 37/36/37
f 20/19/20 18/17/18 41/40/41 42/49/42
f 30/29/30 28/27/28 46/44/46 47/50/47
f 6/5/6 4/3/4 33/42/33 35/31/35
f 16/15/16 14/13/14 39/45/39 40/39/40
f 26/25/26 24/23/24 44/47/44 45/43/45
f 12/11/12 10/9/10 37/36/37 38/35/38
f 22/21/22 20/19/20 42/49/42 43/46/43
f 32/33/32 30/29/30 47/50/47 48/48/48
f 52/51/52 51/52/51 65/53/65
f 46/44/46 45/43/45 61/54/61 62/55/62
f 39/45/39 38/35/38 54/38/54 55/56/55
f 47/50/47 46/44/46 62/55/62 63/57/63
f 40/39/40 39/45/39 55/56/55 56/58/56
f 48/48/48 47/50/47 63/57/63 64/59/64
f 41/40/41 40/39/40 56/58/56 57/60/57
f 33/42/33 34/41/34 50/61/50 49/62/49
f 34/41/34 48/48/48 64/59/64 50/61/50
f 42/49/42 41/40/41 57/60/57 58/63/58
f 35/31/35 33/42/33 49/62/49 51/52/51
f 43/46/43 42/49/42 58/63/58 59/64/59
f 36/32/36 35/31/35 51/52/51 52/51/52
f 44/47/44 43/46/43 59/64/59 60/65/60
f 37/36/37 36/32/36 52/51/52 53/37/53
f 45/43/45 44/47/44 60/65/60 61/54/61
f 60/65/60 59/64/59 65/53/65
f 53/37/53 52/51/52 65/53/65
f 61/54/61 60/65/60 65/53/65
f 54/38/54 53/37/53 65/53/65
f 62/55/62 61/54/61 65/53/65
f 55/56/55 54/38/54 65/53/65
f 63/57/63 62/55/62 65/53/65
f 56/58/56 55/56/55 65/53/65
f 64/59/64 63/57/63 65/53/65
f 57/60/57 56/58/56 65/53/65
f 49/62/49 50/61/50 65/53/65
f 50/61/50 64/59/64 65/53/65
f 58/63/58 57/60/57 65/53/65
f 51/52/51 49/62/49 65/53/65
f 59/64/59 58/63/58 65/53/65
