# Blender 4.1.0
# www.blender.org
o y_button
v 0.402077 0.189710 -0.377851
v 0.402077 0.215598 -0.377851
v 0.421526 0.189710 -0.373982
v 0.421526 0.215598 -0.373982
v 0.438015 0.189710 -0.362965
v 0.438015 0.215598 -0.362965
v 0.449032 0.189710 -0.346477
v 0.449032 0.215598 -0.346477
v 0.452900 0.189710 -0.327028
v 0.452900 0.215598 -0.327028
v 0.449032 0.189710 -0.307579
v 0.449032 0.215598 -0.307579
v 0.438015 0.189710 -0.291091
v 0.438015 0.215598 -0.291091
v 0.421526 0.189710 -0.280074
v 0.421526 0.215598 -0.280074
v 0.402077 0.189710 -0.276205
v 0.402077 0.215598 -0.276205
v 0.382628 0.189710 -0.280074
v 0.382628 0.215598 -0.280074
v 0.366140 0.189710 -0.291091
v 0.366140 0.215598 -0.291091
v 0.355123 0.189710 -0.307579
v 0.355123 0.215598 -0.307579
v 0.351255 0.189710 -0.327028
v 0.351255 0.215598 -0.327028
v 0.355123 0.189710 -0.346477
v 0.355123 0.215598 -0.346477
v 0.366140 0.189710 -0.362965
v 0.366140 0.215598 -0.362965
v 0.382628 0.189710 -0.373982
v 0.382628 0.215598 -0.373982
v 0.420245 0.219421 -0.370889
v 0.402077 0.219421 -0.374502
v 0.435647 0.219421 -0.360597
v 0.445938 0.219421 -0.345196
v 0.449552 0.219421 -0.327028
v 0.445938 0.219421 -0.308861
v 0.435647 0.219421 -0.293459
v 0.420245 0.219421 -0.283168
v 0.402077 0.219421 -0.279554
v 0.383910 0.219421 -0.283168
v 0.368508 0.219421 -0.293459
v 0.358217 0.219421 -0.308861
v 0.354603 0.219421 -0.327028
v 0.358217 0.219421 -0.345196
v 0.368508 0.219421 -0.360597
v 0.383910 0.219421 -0.370889
v 0.416977 0.222523 -0.362999
v 0.402077 0.222523 -0.365962
v 0.429608 0.222523 -0.354559
v 0.438048 0.222523 -0.341928
v 0.441012 0.222523 -0.327028
v 0.438048 0.222523 -0.312129
v 0.429608 0.222523 -0.299497
v 0.416977 0.222523 -0.291058
v 0.402077 0.222523 -0.288094
v 0.387178 0.222523 -0.291058
v 0.374547 0.222523 -0.299497
v 0.366107 0.222523 -0.312129
v 0.363143 0.222523 -0.327028
v 0.366107 0.222523 -0.341928
v 0.374547 0.222523 -0.354559
v 0.387178 0.222523 -0.362999
v 0.402077 0.224556 -0.327028
vn -0.0000 -0.0000 -1.0000
vn -0.0000 0.3383 -0.9410
vn 0.3827 -0.0000 -0.9239
vn 0.3601 0.3383 -0.8694
vn 0.7071 -0.0000 -0.7071
vn 0.6654 0.3383 -0.6654
vn 0.9239 -0.0000 -0.3827
vn 0.8694 0.3383 -0.3601
vn 1.0000 -0.0000 -0.0000
vn 0.9410 0.3383 -0.0000
vn 0.9239 -0.0000 0.3827
vn 0.8694 0.3383 0.3601
vn 0.7071 -0.0000 0.7071
vn 0.6654 0.3383 0.6654
vn 0.3827 -0.0000 0.9239
vn 0.3601 0.3383 0.8694
vn -0.0000 -0.0000 1.0000
vn -0.0000 0.3383 0.9410
vn -0.3827 -0.0000 0.9239
vn -0.3601 0.3383 0.8694
vn -0.7071 -0.0000 0.7071
vn -0.6654 0.3383 0.6654
vn -0.9239 -0.0000 0.3827
vn -0.8694 0.3383 0.3601
vn -1.0000 -0.0000 -0.0000
vn -0.9410 0.3383 -0.0000
vn -0.9239 -0.0000 -0.3827
vn -0.8694 0.3383 -0.3601
vn -0.7071 -0.0000 -0.7071
vn -0.6654 0.3383 -0.6654
vn -0.3827 -0.0000 -0.9239
vn -0.3601 0.3383 -0.8694
vn 0.2239 0.8110 -0.5405
vn -0.0000 0.8110 -0.5850
vn 0.4137 0.8110 -0.4137
vn 0.5405 0.8110 -0.2239
vn 0.5850 0.8110 -0.0000
vn 0.5405 0.8110 0.2239
vn 0.4137 0.8110 0.4137
vn 0.2239 0.8110 0.5405
vn -0.0000 0.8110 0.5850
vn -0.2239 0.8110 0.5405
vn -0.4137 0.8110 0.4137
vn -0.5405 0.8110 0.2239
vn -0.5850 0.8110 -0.0000
vn -0.5405 0.8110 -0.2239
vn -0.4137 0.8110 -0.4137
vn -0.2239 0.8110 -0.5405
vn 0.0829 0.9763 -0.2000
vn -0.0000 0.9763 -0.2165
vn 0.1531 0.9763 -0.1531
vn 0.2000 0.9763 -0.0829
vn 0.2165 0.9763 -0.0000
vn 0.2000 0.9763 0.0829
vn 0.1531 0.9763 0.1531
vn 0.0829 0.9763 0.2000
vn -0.0000 0.9763 0.2165
vn -0.0829 0.9763 0.2000
vn -0.1531 0.9763 0.1531
vn -0.2000 0.9763 0.0829
vn -0.2165 0.9763 -0.0000
vn -0.2000 0.9763 -0.0829
vn -0.1531 0.9763 -0.1531
vn -0.0829 0.9763 -0.2000
vn -0.0000 1.0000 -0.0000
vt 0.399937 0.999380
vt 0.445390 0.795241
vt 0.562714 0.793798
vt 0.598962 0.999900
vt 0.670540 0.747353
vt 0.783163 0.923851
vt 0.752203 0.663041
vt 0.923959 0.782806
vt 0.794898 0.553838
vt 0.999687 0.598777
vt 0.793798 0.436559
vt 0.999687 0.400049
vt 0.747473 0.328788
vt 0.923521 0.216254
vt 0.662881 0.247633
vt 0.782574 0.075926
vt 0.554064 0.204168
vt 0.599064 0.000100
vt 0.436869 0.205873
vt 0.400460 0.000107
vt 0.329256 0.252362
vt 0.216855 0.076027
vt 0.247161 0.336100
vt 0.076079 0.216422
vt 0.204683 0.445289
vt 0.000167 0.400268
vt 0.205624 0.562481
vt 0.000100 0.598907
vt 0.252786 0.669702
vt 0.076386 0.782379
vt 0.653115 0.722095
vt 0.726753 0.646302
vt 0.336501 0.751714
vt 0.216538 0.922869
vt 0.764060 0.443157
vt 0.765014 0.548338
vt 0.714406 0.539036
vt 0.713448 0.453845
vt 0.646413 0.273141
vt 0.548821 0.234158
vt 0.450684 0.765215
vt 0.556069 0.764033
vt 0.234567 0.450778
vt 0.235480 0.556078
vt 0.722311 0.346212
vt 0.346759 0.277346
vt 0.272833 0.352684
vt 0.352877 0.726035
vt 0.443532 0.235597
vt 0.277771 0.652444
vt 0.683237 0.618301
vt 0.623711 0.679470
vt 0.499708 0.499545
vt 0.285148 0.460074
vt 0.286069 0.545237
vt 0.679571 0.375433
vt 0.320049 0.623275
vt 0.618247 0.316232
vt 0.380784 0.682706
vt 0.539165 0.284794
vt 0.459886 0.714389
vt 0.545304 0.713378
vt 0.454023 0.286051
vt 0.375926 0.319822
vt 0.316315 0.380789
s 1
f 1/1/1 2/2/2 4/3/4 3/4/3
f 3/4/3 4/3/4 6/5/6 5/6/5
f 5/6/5 6/5/6 8/7/8 7/8/7
f 7/8/7 8/7/8 10/9/10 9/10/9
f 9/10/9 10/9/10 12/11/12 11/12/11
f 11/12/11 12/11/12 14/13/14 13/14/13
f 13/14/13 14/13/14 16/15/16 15/16/15
f 15/16/15 16/15/16 18/17/18 17/18/17
f 17/18/17 18/17/18 20/19/20 19/20/19
f 19/20/19 20/19/20 22/21/22 21/22/21
f 21/22/21 22/21/22 24/23/24 23/24/23
f 23/24/23 24/23/24 26/25/26 25/26/25
f 25/26/25 26/25/26 28/27/28 27/28/27
f 27/28/27 28/27/28 30/29/30 29/30/29
f 8/7/8 6/5/6 35/31/35 36/32/36
f 29/30/29 30/29/30 32/33/32 31/34/31
f 31/34/31 32/33/32 2/2/2 1/1/1
f 38/35/38 37/36/37 53/37/53 54/38/54
f 18/17/18 16/15/16 40/39/40 41/40/41
f 4/3/4 2/2/2 34/41/34 33/42/33
f 28/27/28 26/25/26 45/43/45 46/44/46
f 14/13/14 12/11/12 38/35/38 39/45/39
f 24/23/24 22/21/22 43/46/43 44/47/44
f 2/2/2 32/33/32 48/48/48 34/41/34
f 10/9/10 8/7/8 36/32/36 37/36/37
f 20/19/20 18/17/18 41/40/41 42/49/42
f 30/29/30 28/27/28 46/44/46 47/50/47
f 6/5/6 4/3/4 33/42/33 35/31/35
f 16/15/16 14/13/14 39/45/39 40/39/40
f 26/25/26 24/23/24 44/47/44 45/43/45
f 12/11/12 10/9/10 37/36/37 38/35/38
f 22/21/22 20/19/20 42/49/42 43/46/43
f 32/33/32 30/29/30 47/50/47 48/48/48
f 52/51/52 51/52/51 65/53/65
f 46/44/46 45/43/45 61/54/61 62/55/62
f 39/45/39 38/35/38 54/38/54 55/56/55
f 47/50/47 46/44/46 62/55/62 63/57/63
f 40/39/40 39/45/39 55/56/55 56/58/56
f 48/48/48 47/50/47 63/57/63 64/59/64
f 41/40/41 40/39/40 56/58/56 57/60/57
f 33/42/33 34/41/34 50/61/50 49/62/49
f 34/41/34 48/48/48 64/59/64 50/61/50
f 42/49/42 41/40/41 57/60/57 58/63/58
f 35/31/35 33/42/33 49/62/49 51/52/51
f 43/46/43 42/49/42 58/63/58 59/64/59
f 36/32/36 35/31/35 51/52/51 52/51/52
f 44/47/44 43/46/43 59/64/59 60/65/60
f 37/36/37 36/32/36 52/51/52 53/37/53
f 45/43/45 44/47/44 60/65/60 61/54/61
f 60/65/60 59/64/59 65/53/65
f 53/37/53 52/51/52 65/53/65
f 61/54/61 60/65/60 65/53/65
f 54/38/54 53/37/53 65/53/65
f 62/55/62 61/54/61 65/53/65
f 55/56/55 54/38/54 65/53/65
f 63/57/63 62/55/62 65/53/65
f 56/58/56 55/56/55 65/53/65
f 64/59/64 63/57/63 65/53/65
f 57/60/57 56/58/56 65/53/65
f 49/62/49 50/61/50 65/53/65
f 50/61/50 64/59/64 65/53/65
f 58/63/58 57/60/57 65/53/65
f 51/52/51 49/62/49 65/53/65
f 59/64/59 58/63/58 65/53/65
