# Blender 4.1.0
# www.blender.org
o B_Button
v 0.554667 0.312008 -0.210957
v 0.554667 0.305328 -0.214143
v 0.581031 0.312008 -0.205713
v 0.582250 0.305328 -0.208656
v 0.603381 0.312008 -0.190779
v 0.605633 0.305328 -0.193032
v 0.618314 0.312008 -0.168430
v 0.621257 0.305328 -0.169649
v 0.623558 0.312008 -0.142066
v 0.626744 0.305328 -0.142066
v 0.618314 0.312008 -0.115703
v 0.621257 0.305328 -0.114484
v 0.603381 0.312008 -0.093353
v 0.605633 0.305328 -0.091100
v 0.581031 0.312008 -0.078419
v 0.582250 0.305328 -0.075476
v 0.554667 0.312008 -0.073175
v 0.554667 0.305328 -0.069990
v 0.528304 0.312008 -0.078419
v 0.527085 0.305328 -0.075476
v 0.505954 0.312008 -0.093353
v 0.503701 0.305328 -0.091100
v 0.491020 0.312008 -0.115703
v 0.488077 0.305328 -0.114484
v 0.485776 0.312008 -0.142066
v 0.482591 0.305328 -0.142066
v 0.491020 0.312008 -0.168430
v 0.488077 0.305328 -0.169649
v 0.505954 0.312008 -0.190779
v 0.503701 0.305328 -0.193032
v 0.528304 0.312008 -0.205713
v 0.527085 0.305328 -0.208656
v 0.554667 0.315057 -0.193283
v 0.574267 0.315057 -0.189385
v 0.590883 0.315057 -0.178282
v 0.601986 0.315057 -0.161666
v 0.605885 0.315057 -0.142066
v 0.601986 0.315057 -0.122466
v 0.590883 0.315057 -0.105850
v 0.574267 0.315057 -0.094747
v 0.554667 0.315057 -0.090849
v 0.535067 0.315057 -0.094747
v 0.518451 0.315057 -0.105850
v 0.507349 0.315057 -0.122466
v 0.503450 0.315057 -0.142066
v 0.507349 0.315057 -0.161666
v 0.518451 0.315057 -0.178282
v 0.535067 0.315057 -0.189385
v 0.554667 0.317169 -0.142066
v 0.554667 0.250336 -0.214143
v 0.582250 0.250336 -0.208656
v 0.605633 0.250336 -0.193032
v 0.621257 0.250336 -0.169649
v 0.626744 0.250336 -0.142066
v 0.621257 0.250336 -0.114484
v 0.605633 0.250336 -0.091100
v 0.582250 0.250336 -0.075476
v 0.554667 0.250336 -0.069990
v 0.527085 0.250336 -0.075476
v 0.503701 0.250336 -0.091100
v 0.488077 0.250336 -0.114484
v 0.482591 0.250336 -0.142066
v 0.488077 0.250336 -0.169649
v 0.503701 0.250336 -0.193032
v 0.527085 0.250336 -0.208656
vn -0.0000 0.9425 -0.3343
vn -0.0000 0.2311 -0.9729
vn 0.1279 0.9425 -0.3088
vn 0.3723 0.2311 -0.8989
vn 0.2364 0.9425 -0.2364
vn 0.6880 0.2311 -0.6880
vn 0.3088 0.9425 -0.1279
vn 0.8989 0.2311 -0.3723
vn 0.3343 0.9425 -0.0000
vn 0.9729 0.2311 -0.0000
vn 0.3088 0.9425 0.1279
vn 0.8989 0.2311 0.3723
vn 0.2364 0.9425 0.2364
vn 0.6880 0.2311 0.6880
vn 0.1279 0.9425 0.3088
vn 0.3723 0.2311 0.8989
vn -0.0000 0.9425 0.3343
vn -0.0000 0.2311 0.9729
vn -0.1279 0.9425 0.3088
vn -0.3723 0.2311 0.8989
vn -0.2364 0.9425 0.2364
vn -0.6880 0.2311 0.6880
vn -0.3088 0.9425 0.1279
vn -0.8989 0.2311 0.3723
vn -0.3343 0.9425 -0.0000
vn -0.9729 0.2311 -0.0000
vn -0.3088 0.9425 -0.1279
vn -0.8989 0.2311 -0.3723
vn -0.2364 0.9425 -0.2364
vn -0.6880 0.2311 -0.6880
vn -0.1279 0.9425 -0.3088
vn -0.3723 0.2311 -0.8989
vn -0.0000 0.9956 -0.0942
vn 0.0361 0.9956 -0.0871
vn 0.0666 0.9956 -0.0666
vn 0.0871 0.9956 -0.0361
vn 0.0942 0.9956 -0.0000
vn 0.0871 0.9956 0.0361
vn 0.0666 0.9956 0.0666
vn 0.0361 0.9956 0.0871
vn -0.0000 0.9956 0.0942
vn -0.0361 0.9956 0.0871
vn -0.0666 0.9956 0.0666
vn -0.0871 0.9956 0.0361
vn -0.0942 0.9956 -0.0000
vn -0.0871 0.9956 -0.0361
vn -0.0666 0.9956 -0.0666
vn -0.0361 0.9956 -0.0871
vn -0.0000 1.0000 -0.0000
vn -0.0000 -0.0000 -1.0000
vn 0.3827 -0.0000 -0.9239
vn 0.7071 -0.0000 -0.7071
vn 0.9239 -0.0000 -0.3827
vn 1.0000 -0.0000 -0.0000
vn 0.9239 -0.0000 0.3827
vn 0.7071 -0.0000 0.7071
vn 0.3827 -0.0000 0.9239
vn -0.0000 -0.0000 1.0000
vn -0.3827 -0.0000 0.9239
vn -0.7071 -0.0000 0.7071
vn -0.9239 -0.0000 0.3827
vn -1.0000 -0.0000 -0.0000
vn -0.9239 -0.0000 -0.3827
vn -0.7071 -0.0000 -0.7071
vn -0.3827 -0.0000 -0.9239
vt 0.662103 0.727616
vt 0.725914 0.837667
vt 0.578613 0.897505
vt 0.561716 0.773668
vt 0.419523 0.895981
vt 0.450102 0.776388
vt 0.273432 0.833337
vt 0.347118 0.736195
vt 0.162915 0.719429
vt 0.267127 0.659239
vt 0.104988 0.572030
vt 0.221734 0.556100
vt 0.108491 0.414339
vt 0.218671 0.441969
vt 0.167812 0.267582
vt 0.266928 0.339734
vt 0.281745 0.158195
vt 0.343209 0.259550
vt 0.427903 0.100652
vt 0.444768 0.214849
vt 0.584349 0.103219
vt 0.556168 0.213130
vt 0.727525 0.165154
vt 0.660825 0.254544
vt 0.835896 0.276778
vt 0.741199 0.332564
vt 0.893269 0.421070
vt 0.785993 0.435188
vt 0.891127 0.576261
vt 0.788403 0.550195
vt 0.834168 0.722033
vt 0.741555 0.654029
vt 0.340553 0.382485
vt 0.309695 0.453998
vt 0.670638 0.378115
vt 0.613962 0.324462
vt 0.309067 0.532417
vt 0.338914 0.605413
vt 0.542016 0.297447
vt 0.464813 0.296077
vt 0.673201 0.603331
vt 0.701345 0.529378
vt 0.394260 0.662037
vt 0.468243 0.688865
vt 0.395547 0.328700
vt 0.545496 0.685150
vt 0.616786 0.656934
vt 0.703124 0.450386
vt 0.518919 0.478327
vt 0.599493 0.999900
vt 0.400491 0.999827
vt 0.000100 0.400524
vt 0.076117 0.216897
vt 0.782764 0.076084
vt 0.923417 0.216564
vt 0.076152 0.782980
vt 0.000100 0.599292
vt 0.400300 0.000170
vt 0.599079 0.000100
vt 0.999852 0.599020
vt 0.923981 0.782861
vt 0.216731 0.923637
vt 0.216665 0.076292
vt 0.783448 0.923775
vt 0.999647 0.400180
s 1
f 1/1/1 3/4/3 4/3/4 2/2/2
f 3/4/3 5/6/5 6/5/6 4/3/4
f 5/6/5 7/8/7 8/7/8 6/5/6
f 7/8/7 9/10/9 10/9/10 8/7/8
f 9/10/9 11/12/11 12/11/12 10/9/10
f 11/12/11 13/14/13 14/13/14 12/11/12
f 13/14/13 15/16/15 16/15/16 14/13/14
f 15/16/15 17/18/17 18/17/18 16/15/16
f 17/18/17 19/20/19 20/19/20 18/17/18
f 19/20/19 21/22/21 22/21/22 20/19/20
f 21/22/21 23/24/23 24/23/24 22/21/22
f 23/24/23 25/26/25 26/25/26 24/23/24
f 25/26/25 27/28/27 28/27/28 26/25/26
f 27/28/27 29/30/29 30/29/30 28/27/28
f 29/30/29 31/32/31 32/31/32 30/29/30
f 31/32/31 1/1/1 2/2/2 32/31/32
f 13/14/13 39/34/39 40/33/40 15/16/15
f 23/24/23 44/36/44 45/35/45 25/26/25
f 9/10/9 37/38/37 38/37/38 11/12/11
f 19/20/19 42/40/42 43/39/43 21/22/21
f 29/30/29 47/42/47 48/41/48 31/32/31
f 5/6/5 35/44/35 36/43/36 7/8/7
f 15/16/15 40/33/40 41/45/41 17/18/17
f 1/1/1 33/47/33 34/46/34 3/4/3
f 25/26/25 45/35/45 46/48/46 27/28/27
f 11/12/11 38/37/38 39/34/39 13/14/13
f 21/22/21 43/39/43 44/36/44 23/24/23
f 31/32/31 48/41/48 33/47/33 1/1/1
f 7/8/7 36/43/36 37/38/37 9/10/9
f 17/18/17 41/45/41 42/40/42 19/20/19
f 27/28/27 46/48/46 47/42/47 29/30/29
f 3/4/3 34/46/34 35/44/35 5/6/5
f 41/45/41 49/49/49 42/40/42
f 34/46/34 49/49/49 35/44/35
f 42/40/42 49/49/49 43/39/43
f 35/44/35 49/49/49 36/43/36
f 43/39/43 49/49/49 44/36/44
f 36/43/36 49/49/49 37/38/37
f 44/36/44 49/49/49 45/35/45
f 37/38/37 49/49/49 38/37/38
f 45/35/45 49/49/49 46/48/46
f 38/37/38 49/49/49 39/34/39
f 46/48/46 49/49/49 47/42/47
f 39/34/39 49/49/49 40/33/40
f 47/42/47 49/49/49 48/41/48
f 40/33/40 49/49/49 41/45/41
f 33/47/33 49/49/49 34/46/34
f 48/41/48 49/49/49 33/47/33
f 6/5/6 52/51/52 51/50/51 4/3/4
f 16/15/16 57/53/57 56/52/56 14/13/14
f 26/25/26 62/55/62 61/54/61 24/23/24
f 12/11/12 55/57/55 54/56/54 10/9/10
f 22/21/22 60/59/60 59/58/59 20/19/20
f 32/31/32 65/61/65 64/60/64 30/29/30
f 8/7/8 53/62/53 52/51/52 6/5/6
f 18/17/18 58/63/58 57/53/57 16/15/16
f 4/3/4 51/50/51 50/64/50 2/2/2
f 28/27/28 63/65/63 62/55/62 26/25/26
f 14/13/14 56/52/56 55/57/55 12/11/12
f 24/23/24 61/54/61 60/59/60 22/21/22
f 2/2/2 50/64/50 65/61/65 32/31/32
f 10/9/10 54/56/54 53/62/53 8/7/8
f 20/19/20 59/58/59 58/63/58 18/17/18
f 30/29/30 64/60/64 63/65/63 28/27/28
