# Blender 4.1.0
# www.blender.org
o Dpad_Up
v -0.371651 0.261476 -0.050176
v -0.367593 0.302250 -0.044201
v -0.371758 0.296531 -0.048639
v -0.369907 0.299990 -0.046623
v -0.365023 0.303529 -0.041728
v -0.322114 0.299474 0.001480
v -0.275221 0.265955 -0.145659
v -0.279618 0.312162 -0.141007
v -0.275783 0.261834 -0.057810
v -0.281017 0.302798 -0.055888
v -0.358130 0.266313 -0.153288
v -0.357709 0.312406 -0.146216
v -0.285994 0.266313 -0.153288
v -0.286416 0.312406 -0.146216
v -0.278478 0.311976 -0.137059
v -0.273244 0.265668 -0.139548
v -0.358137 0.306721 -0.151392
v -0.275184 0.306359 -0.143667
v -0.285987 0.306721 -0.151392
v -0.273244 0.306075 -0.137619
v -0.277206 0.309852 -0.142376
v -0.276000 0.309619 -0.137406
v -0.358138 0.310145 -0.148628
v -0.285986 0.310145 -0.148628
v -0.275783 0.296884 -0.056166
v -0.278539 0.300430 -0.055999
v -0.282258 0.313485 -0.139481
v -0.283972 0.304190 -0.055823
v -0.356964 0.313695 -0.143963
v -0.287160 0.313695 -0.143963
v -0.281301 0.313362 -0.136862
v -0.282412 0.312318 -0.144332
v -0.279266 0.306583 -0.148447
v -0.284621 0.313607 -0.142082
v -0.280742 0.310042 -0.146416
v -0.279319 0.266167 -0.150187
v -0.274859 0.261694 -0.054839
v -0.279951 0.302607 -0.051813
v -0.274859 0.296744 -0.053194
v -0.277276 0.300265 -0.052485
v -0.282757 0.303963 -0.050981
v -0.272707 0.261454 -0.049715
v -0.276268 0.302178 -0.044240
v -0.272701 0.296623 -0.048071
v -0.274493 0.299970 -0.046120
v -0.277981 0.303444 -0.042465
v -0.368903 0.265955 -0.145659
v -0.364506 0.312162 -0.141007
v -0.368341 0.261834 -0.057810
v -0.363107 0.302798 -0.055888
v -0.365647 0.311976 -0.137059
v -0.370880 0.265668 -0.139548
v -0.368940 0.306359 -0.143667
v -0.370880 0.306075 -0.137619
v -0.366918 0.309852 -0.142376
v -0.368125 0.309619 -0.137406
v -0.368341 0.296884 -0.056166
v -0.365585 0.300430 -0.055999
v -0.361866 0.313485 -0.139481
v -0.360152 0.304190 -0.055823
v -0.362823 0.313362 -0.136862
v -0.361712 0.312318 -0.144332
v -0.364858 0.306583 -0.148447
v -0.359503 0.313607 -0.142082
v -0.363382 0.310042 -0.146416
v -0.364805 0.266167 -0.150187
v -0.369265 0.261694 -0.054839
v -0.364173 0.302495 -0.049421
v -0.369265 0.296744 -0.053194
v -0.366689 0.300205 -0.051209
v -0.361208 0.303799 -0.047473
vn 0.8598 0.0232 -0.5101
vn 0.8132 0.3363 -0.4751
vn 0.9311 0.3511 -0.0984
vn 0.9897 0.0067 -0.1432
vn -0.0000 0.0469 -0.9989
vn -0.1555 0.3351 -0.9293
vn 0.1555 0.3351 -0.9293
vn 0.4117 0.0406 -0.9104
vn 0.5149 0.3423 -0.7859
vn 0.5618 0.0370 -0.8264
vn 0.9309 0.3487 -0.1091
vn 0.9904 0.0065 -0.1378
vn -0.1422 0.6718 -0.7269
vn 0.1422 0.6718 -0.7269
vn 0.6484 0.6828 -0.3369
vn 0.7375 0.6742 -0.0391
vn 0.4262 0.6760 -0.6011
vn 0.3408 0.8436 -0.4150
vn 0.4656 0.8567 -0.2221
vn -0.1247 0.8072 -0.5769
vn 0.1247 0.8072 -0.5769
vn 0.5434 0.8395 -0.0018
vn 0.7332 0.6780 -0.0524
vn 0.5425 0.8400 -0.0011
vn 0.1777 0.9833 -0.0394
vn 0.4292 0.9032 0.0117
vn -0.0862 0.9598 -0.2671
vn 0.0862 0.9598 -0.2671
vn 0.1407 0.9842 -0.1071
vn 0.4299 0.9025 0.0272
vn 0.4212 0.8979 -0.1277
vn 0.5184 0.8412 -0.1536
vn 0.6998 0.6741 -0.2364
vn 0.8859 0.3395 -0.3160
vn 0.9393 0.0160 -0.3428
vn 0.4203 0.8916 -0.1684
vn 0.4736 0.8600 -0.1899
vn 0.6649 0.6976 -0.2671
vn 0.8576 0.3753 -0.3516
vn 0.9219 0.0180 -0.3870
vn -0.0188 0.9973 0.0713
vn -0.0356 0.9976 0.0587
vn 0.0017 0.9971 0.0763
vn -0.0041 0.9955 0.0942
vn -0.8598 0.0232 -0.5101
vn -0.9897 0.0067 -0.1432
vn -0.9311 0.3511 -0.0984
vn -0.8132 0.3363 -0.4751
vn -0.0000 0.9967 0.0811
vn -0.1777 0.9833 -0.0394
vn -0.4117 0.0406 -0.9104
vn -0.5618 0.0370 -0.8264
vn -0.5149 0.3423 -0.7859
vn -0.9904 0.0065 -0.1378
vn -0.9281 0.3611 -0.0905
vn -0.1407 0.9842 -0.1071
vn -0.7375 0.6742 -0.0391
vn -0.6484 0.6828 -0.3369
vn -0.4262 0.6760 -0.6011
vn -0.4656 0.8567 -0.2221
vn -0.3408 0.8436 -0.4150
vn -0.5434 0.8395 -0.0018
vn -0.7295 0.6837 -0.0172
vn -0.5397 0.8414 0.0297
vn -0.4292 0.9032 0.0117
vn -0.4233 0.9046 0.0502
vn -0.4591 0.8772 -0.1407
vn -0.3345 0.9339 -0.1260
vn -0.6524 0.7192 -0.2389
vn -0.8630 0.3803 -0.3325
vn -0.9223 0.0170 -0.3861
vn -0.3576 0.9133 -0.1952
vn -0.3095 0.9373 -0.1602
vn -0.7906 0.4265 -0.4393
vn -0.5537 0.7653 -0.3283
vn -0.8841 0.0198 -0.4669
vn 0.0282 0.9974 0.0656
vn 0.0420 0.9976 0.0546
vn 0.0041 0.9955 0.0944
vt 0.165539 0.405732
vt 0.000045 0.405296
vt 0.000050 0.379569
vt 0.165543 0.379737
vt 0.165629 0.558962
vt 0.000136 0.559094
vt 0.000052 0.442998
vt 0.165546 0.442891
vt 0.000041 0.426517
vt 0.165535 0.425956
vt 0.022050 0.034561
vt 0.165598 0.034584
vt 0.526708 0.819695
vt 0.355072 0.819695
vt 0.355071 0.813121
vt 0.526710 0.813121
vt 0.557021 0.786932
vt 0.552406 0.801319
vt 0.547596 0.798247
vt 0.550466 0.786423
vt 0.542696 0.812689
vt 0.539185 0.807857
vt 0.535213 0.802899
vt 0.541858 0.794991
vt 0.356092 0.807383
vt 0.525688 0.807383
vt 0.544571 0.785599
vt 0.550981 0.593165
vt 0.544426 0.592769
vt 0.538531 0.592505
vt 0.535578 0.791360
vt 0.537855 0.785130
vt 0.357863 0.802022
vt 0.523917 0.802022
vt 0.529957 0.797547
vt 0.531500 0.592349
vt 0.534391 0.580831
vt 0.541067 0.582810
vt 0.547430 0.584410
vt 0.553180 0.586097
vt 0.022052 0.021928
vt 0.165600 0.021951
vt 0.545752 0.560573
vt 0.549828 0.564795
vt 0.554051 0.569269
vt 0.558312 0.573909
vt 0.021569 0.000041
vt 0.165604 0.000041
vt 0.440768 0.456035
vt 0.165676 0.596121
vt 0.165718 0.622116
vt 0.000225 0.622522
vt 0.000183 0.596796
vt 0.346202 0.791360
vt 0.343926 0.785130
vt 0.165643 0.575897
vt 0.000148 0.575574
vt 0.166271 0.967268
vt 0.022723 0.967498
vt 0.351824 0.797547
vt 0.324759 0.786932
vt 0.331314 0.786423
vt 0.334184 0.798247
vt 0.329375 0.801319
vt 0.342596 0.807857
vt 0.339084 0.812689
vt 0.339922 0.794991
vt 0.346568 0.802899
vt 0.337209 0.785599
vt 0.330800 0.593165
vt 0.337355 0.592769
vt 0.343250 0.592505
vt 0.350280 0.592349
vt 0.340714 0.577120
vt 0.347769 0.572486
vt 0.334730 0.581375
vt 0.328600 0.586097
vt 0.166291 0.979902
vt 0.022743 0.980132
vt 0.332580 0.564702
vt 0.338692 0.558821
vt 0.322671 0.575261
vt 0.327075 0.570465
vt 0.166324 0.999959
vt 0.022775 0.999779
s 1
f 7/1/1 18/2/2 20/3/3 16/4/4
f 11/5/5 17/6/6 19/7/7 13/8/5
f 13/8/8 19/7/7 33/9/9 36/10/10
f 16/4/4 20/3/3 25/11/11 9/12/12
f 19/13/7 17/14/6 23/15/13 24/16/14
f 20/17/3 18/18/2 21/19/15 22/20/16
f 18/18/2 33/21/9 35/22/17 21/19/15
f 21/19/15 35/22/17 32/23/18 8/24/19
f 24/16/14 23/15/13 12/25/20 14/26/21
f 22/20/16 21/19/15 8/24/19 15/27/22
f 25/28/11 20/17/3 22/20/16 26/29/23
f 26/29/23 22/20/16 15/27/22 10/30/24
f 15/27/22 8/24/19 27/31/25 31/32/26
f 14/26/21 12/25/20 29/33/27 30/34/28
f 8/24/19 32/23/18 34/35/29 27/31/25
f 10/30/24 15/27/22 31/32/26 28/36/30
f 35/22/17 33/21/9 19/13/7 24/16/14
f 32/23/18 35/22/17 24/16/14 14/26/21
f 34/35/29 32/23/18 14/26/21 30/34/28
f 36/10/10 33/9/9 18/2/2 7/1/1
f 10/30/24 28/36/30 41/37/31 38/38/32
f 26/29/23 10/30/24 38/38/32 40/39/33
f 25/28/11 26/29/23 40/39/33 39/40/34
f 9/12/12 25/11/11 39/41/34 37/42/35
f 38/38/32 41/37/31 46/43/36 43/44/37
f 39/40/34 40/39/33 45/45/38 44/46/39
f 40/39/33 38/38/32 43/44/37 45/45/38
f 37/42/35 39/41/34 44/47/39 42/48/40
f 46/43/41 41/37/42 6/49/43
f 41/37/42 28/36/44 6/49/43
f 47/50/45 52/51/46 54/52/47 53/53/48
f 31/32/49 27/31/25 59/54/50 61/55/49
f 11/5/51 66/56/52 63/57/53 17/6/6
f 52/51/46 49/58/54 57/59/55 54/52/47
f 27/31/25 34/35/29 64/60/56 59/54/50
f 54/61/47 56/62/57 55/63/58 53/64/48
f 53/64/48 55/63/58 65/65/59 63/66/53
f 55/63/58 48/67/60 62/68/61 65/65/59
f 29/33/27 64/60/56 34/35/29 30/34/28
f 56/62/57 51/69/62 48/67/60 55/63/58
f 57/70/55 58/71/63 56/62/57 54/61/47
f 58/71/63 50/72/64 51/69/62 56/62/57
f 51/69/62 61/55/65 59/54/50 48/67/60
f 48/67/60 59/54/50 64/60/56 62/68/61
f 50/72/64 60/73/66 61/55/65 51/69/62
f 65/65/59 23/15/13 17/14/6 63/66/53
f 62/68/61 12/25/20 23/15/13 65/65/59
f 64/60/56 29/33/27 12/25/20 62/68/61
f 66/56/52 47/50/45 53/53/48 63/57/53
f 50/72/64 68/74/67 71/75/68 60/73/66
f 58/71/63 70/76/69 68/74/67 50/72/64
f 57/70/55 69/77/70 70/76/69 58/71/63
f 49/58/54 67/78/71 69/79/70 57/59/55
f 68/74/67 2/80/72 5/81/73 71/75/68
f 69/77/70 3/82/74 4/83/75 70/76/69
f 70/76/69 4/83/75 2/80/72 68/74/67
f 67/78/71 1/84/76 3/85/74 69/79/70
f 5/81/77 6/49/43 71/75/78
f 71/75/78 6/49/43 60/73/79
f 6/49/43 28/36/44 60/73/79
f 28/36/44 31/32/49 61/55/49 60/73/79
