# Blender 4.1.0
# www.blender.org
o Dpad_Left
v -0.467520 0.261338 -0.047253
v -0.465039 0.307455 -0.040688
v -0.379574 0.261312 -0.046692
v -0.379574 0.302031 -0.039542
v -0.475157 0.257453 0.035564
v -0.470254 0.303796 0.037317
v -0.475157 0.260834 -0.036492
v -0.470254 0.307137 -0.033898
v -0.461086 0.307509 -0.041827
v -0.461403 0.261431 -0.049228
v -0.475157 0.297861 0.037467
v -0.467424 0.301749 -0.045395
v -0.475157 0.301242 -0.034604
v -0.461369 0.301840 -0.047333
v -0.466298 0.305200 -0.043209
v -0.461322 0.305257 -0.044414
v -0.472557 0.301408 0.037634
v -0.472557 0.304789 -0.034438
v -0.379574 0.296362 -0.045048
v -0.379574 0.299779 -0.042129
v -0.463576 0.308724 -0.037986
v -0.379574 0.303285 -0.036525
v -0.468063 0.305223 0.036638
v -0.468063 0.308494 -0.033089
v -0.460954 0.308769 -0.038942
v -0.468367 0.307325 -0.037898
v -0.472209 0.301557 -0.041317
v -0.466180 0.308613 -0.035625
v -0.470342 0.305034 -0.039677
v -0.472053 0.261146 -0.043160
v -0.375003 0.261355 -0.047615
v -0.372621 0.302066 -0.040288
v -0.375003 0.296405 -0.045971
v -0.373821 0.299816 -0.042912
v -0.370577 0.303312 -0.037101
v -0.371651 0.261476 -0.050176
v -0.367593 0.302250 -0.044201
v -0.371758 0.296531 -0.048639
v -0.369907 0.299990 -0.046623
v -0.365023 0.303529 -0.041728
v -0.322114 0.299474 0.001480
v -0.467520 0.256949 0.046325
v -0.465039 0.303478 0.044107
v -0.379574 0.256975 0.045764
v -0.379574 0.298185 0.042458
v -0.461086 0.303424 0.045246
v -0.461403 0.256856 0.048300
v -0.467424 0.297355 0.048258
v -0.461369 0.297264 0.050196
v -0.466298 0.300996 0.046405
v -0.461322 0.300940 0.047610
v -0.379574 0.292025 0.047408
v -0.379574 0.295700 0.044822
v -0.463576 0.304993 0.041535
v -0.379574 0.299715 0.039571
v -0.460954 0.304949 0.042491
v -0.468367 0.303609 0.041316
v -0.472209 0.297547 0.044181
v -0.466180 0.305104 0.039174
v -0.470342 0.301162 0.042873
v -0.472053 0.257141 0.042232
v -0.376600 0.256932 0.046688
v -0.375494 0.298135 0.043523
v -0.376600 0.291982 0.048332
v -0.376056 0.295641 0.046084
v -0.374727 0.299658 0.040785
v -0.371520 0.256828 0.048890
v -0.367959 0.297886 0.047251
v -0.371526 0.291997 0.050546
v -0.369735 0.295511 0.048917
v -0.366246 0.299313 0.045603
vn -0.4562 0.0412 -0.8889
vn -0.4077 0.3507 -0.8431
vn -0.0945 0.3591 -0.9285
vn -0.1213 0.0465 -0.9915
vn -0.9758 -0.0113 0.2185
vn -0.9237 0.3161 0.2164
vn -0.9237 0.3349 -0.1859
vn -0.9758 0.0092 -0.2186
vn -0.7365 0.3367 -0.5867
vn -0.7874 0.0272 -0.6159
vn -0.0597 0.3792 -0.9234
vn -0.0784 0.0467 -0.9958
vn -0.7410 0.6413 0.1992
vn -0.7410 0.6571 -0.1383
vn -0.3242 0.6882 -0.6490
vn -0.0636 0.6944 -0.7167
vn -0.5895 0.6799 -0.4361
vn -0.4274 0.8526 -0.3007
vn -0.2543 0.8528 -0.4561
vn -0.5654 0.8033 0.1872
vn -0.5654 0.8173 -0.1112
vn -0.0405 0.8399 -0.5413
vn -0.0165 0.7140 -0.7000
vn 0.0085 0.8586 -0.5125
vn -0.1228 0.9819 -0.1441
vn -0.0127 0.9741 -0.2260
vn -0.4848 0.8631 0.1414
vn -0.4848 0.8726 -0.0600
vn -0.1684 0.9830 -0.0732
vn 0.0315 0.9886 -0.1470
vn -0.0245 0.9979 -0.0597
vn -0.1606 0.8962 -0.4135
vn -0.2518 0.7495 -0.6123
vn -0.3738 0.4013 -0.8362
vn -0.3688 0.0427 -0.9285
vn -0.1583 0.9758 -0.1506
vn -0.3454 0.8624 -0.3701
vn -0.4826 0.7076 -0.5161
vn -0.6099 0.3351 -0.7181
vn -0.6215 0.0346 -0.7827
vn 0.0327 0.9983 0.0476
vn -0.4562 -0.0422 0.8889
vn -0.1213 -0.0465 0.9915
vn -0.0945 0.2706 0.9581
vn -0.4077 0.2702 0.8722
vn -0.1228 0.9641 0.2354
vn -0.0127 0.9486 0.3162
vn -0.7874 -0.0306 0.6157
vn -0.7365 0.2803 0.6156
vn -0.1177 -0.0465 0.9920
vn -0.1156 0.2799 0.9530
vn -0.1684 0.9718 0.1650
vn -0.0636 0.6243 0.7786
vn -0.3242 0.6245 0.7106
vn -0.5895 0.6361 0.4978
vn -0.2543 0.8064 0.5339
vn -0.4274 0.8207 0.3792
vn -0.0000 0.9989 0.0469
vn -0.0405 0.7855 0.6175
vn -0.0710 0.6464 0.7596
vn -0.0331 0.8132 0.5810
vn 0.0234 0.9765 0.2143
vn -0.2015 0.8015 0.5631
vn -0.0493 0.9751 0.2162
vn -0.2736 0.6276 0.7289
vn -0.3416 0.2647 0.9018
vn -0.3452 -0.0440 0.9375
vn -0.2617 0.7704 0.5814
vn -0.1367 0.9365 0.3229
vn -0.3869 0.2483 0.8881
vn -0.3196 0.6067 0.7278
vn -0.3988 -0.0431 0.9160
vt 0.227255 0.227644
vt 0.000059 0.227262
vt 0.000065 0.209796
vt 0.227261 0.209934
vt 0.227244 0.710334
vt 0.000048 0.710377
vt 0.000048 0.292608
vt 0.227244 0.292651
vt 0.000048 0.253151
vt 0.227244 0.253396
vt 0.030244 0.028522
vt 0.227312 0.028578
vt 0.076700 0.541873
vt 0.076700 0.370426
vt 0.082885 0.370029
vt 0.082885 0.541479
vt 0.109499 0.572153
vt 0.095096 0.567543
vt 0.097775 0.562342
vt 0.109612 0.565209
vt 0.083714 0.557844
vt 0.088154 0.553940
vt 0.092853 0.549708
vt 0.100770 0.556347
vt 0.088364 0.370784
vt 0.088364 0.540194
vt 0.110172 0.559056
vt 0.304077 0.566717
vt 0.304077 0.559773
vt 0.304077 0.553621
vt 0.104250 0.549918
vt 0.110486 0.552192
vt 0.093576 0.372398
vt 0.093576 0.538270
vt 0.098055 0.544303
vt 0.304078 0.546442
vt 0.325481 0.547813
vt 0.320618 0.555395
vt 0.317762 0.561637
vt 0.314951 0.568914
vt 0.030247 0.017094
vt 0.227316 0.017150
vt 0.338692 0.558821
vt 0.332580 0.564702
vt 0.327075 0.570465
vt 0.322671 0.575261
vt 0.030251 0.000048
vt 0.227320 0.000561
vt 0.440768 0.456035
vt 0.227255 0.775341
vt 0.227261 0.793052
vt 0.000065 0.793190
vt 0.000059 0.775723
vt 0.104250 0.360750
vt 0.110486 0.358476
vt 0.227244 0.749589
vt 0.000048 0.749834
vt 0.227312 0.974407
vt 0.030244 0.974463
vt 0.098055 0.366365
vt 0.109499 0.340146
vt 0.109612 0.346298
vt 0.097775 0.349165
vt 0.095096 0.344756
vt 0.088154 0.357567
vt 0.083714 0.354455
vt 0.100770 0.354632
vt 0.092853 0.361271
vt 0.110172 0.351923
vt 0.304077 0.346778
vt 0.304077 0.352930
vt 0.304077 0.358554
vt 0.304078 0.365422
vt 0.313783 0.356021
vt 0.315609 0.362534
vt 0.312446 0.349929
vt 0.311153 0.344581
vt 0.227315 0.982883
vt 0.030247 0.982939
vt 0.331708 0.347151
vt 0.335784 0.351072
vt 0.323223 0.339315
vt 0.327484 0.343188
vt 0.227319 0.999879
vt 0.029582 0.999952
s 1
f 1/1/1 12/2/2 14/3/3 10/4/4
f 5/5/5 11/6/6 13/7/7 7/8/8
f 7/8/8 13/7/7 27/9/9 30/10/10
f 10/4/4 14/3/3 19/11/11 3/12/12
f 13/13/7 11/14/6 17/15/13 18/16/14
f 14/17/3 12/18/2 15/19/15 16/20/16
f 12/18/2 27/21/9 29/22/17 15/19/15
f 15/19/15 29/22/17 26/23/18 2/24/19
f 18/16/14 17/15/13 6/25/20 8/26/21
f 16/20/16 15/19/15 2/24/19 9/27/22
f 19/28/11 14/17/3 16/20/16 20/29/23
f 20/29/23 16/20/16 9/27/22 4/30/24
f 9/27/22 2/24/19 21/31/25 25/32/26
f 8/26/21 6/25/20 23/33/27 24/34/28
f 2/24/19 26/23/18 28/35/29 21/31/25
f 4/30/24 9/27/22 25/32/26 22/36/30
f 29/22/17 27/21/9 13/13/7 18/16/14
f 26/23/18 29/22/17 18/16/14 8/26/21
f 28/35/29 26/23/18 8/26/21 24/34/28
f 30/10/10 27/9/9 12/2/2 1/1/1
f 4/30/24 22/36/30 35/37/31 32/38/32
f 20/29/23 4/30/24 32/38/32 34/39/33
f 19/28/11 20/29/23 34/39/33 33/40/34
f 3/12/12 19/11/11 33/41/34 31/42/35
f 32/38/32 35/37/31 40/43/36 37/44/37
f 33/40/34 34/39/33 39/45/38 38/46/39
f 34/39/33 32/38/32 37/44/37 39/45/38
f 31/42/35 33/41/34 38/47/39 36/48/40
f 40/43/36 35/37/31 41/49/41
f 35/37/31 22/36/30 41/49/41
f 42/50/42 47/51/43 49/52/44 48/53/45
f 25/32/26 21/31/25 54/54/46 56/55/47
f 5/5/5 61/56/48 58/57/49 11/6/6
f 47/51/43 44/58/50 52/59/51 49/52/44
f 21/31/25 28/35/29 59/60/52 54/54/46
f 49/61/44 51/62/53 50/63/54 48/64/45
f 48/64/45 50/63/54 60/65/55 58/66/49
f 50/63/54 43/67/56 57/68/57 60/65/55
f 23/33/58 59/60/52 28/35/29 24/34/58
f 51/62/53 46/69/59 43/67/56 50/63/54
f 52/70/51 53/71/60 51/62/53 49/61/44
f 53/71/60 45/72/61 46/69/59 51/62/53
f 46/69/59 56/55/47 54/54/46 43/67/56
f 43/67/56 54/54/46 59/60/52 57/68/57
f 45/72/61 55/73/62 56/55/47 46/69/59
f 60/65/55 17/15/13 11/14/6 58/66/49
f 57/68/57 6/25/20 17/15/13 60/65/55
f 59/60/52 23/33/27 6/25/20 57/68/57
f 61/56/48 42/50/42 48/53/45 58/57/49
f 45/72/61 63/74/63 66/75/64 55/73/62
f 53/71/60 65/76/65 63/74/63 45/72/61
f 52/70/51 64/77/66 65/76/65 53/71/60
f 44/58/50 62/78/67 64/79/66 52/59/51
f 63/74/63 68/80/68 71/81/69 66/75/64
f 64/77/66 69/82/70 70/83/71 65/76/65
f 65/76/65 70/83/71 68/80/68 63/74/63
f 62/78/67 67/84/72 69/85/70 64/79/66
f 71/81/69 41/49/41 66/75/64
f 66/75/64 41/49/41 55/73/62
f 41/49/41 22/36/30 55/73/62
f 22/36/30 25/32/26 56/55/47 55/73/62
