# Blender 4.1.0
# www.blender.org
o Left_Stick
v 0.000000 0.178867 -0.085892
v 0.032869 0.178867 -0.079354
v 0.060735 0.178867 -0.060735
v 0.079354 0.178867 -0.032869
v 0.085892 0.178867 0.000000
v 0.079354 0.178867 0.032869
v 0.060735 0.178867 0.060735
v 0.032869 0.178867 0.079354
v 0.000000 0.178867 0.085892
v -0.032869 0.178867 0.079354
v -0.060735 0.178867 0.060735
v -0.079354 0.178867 0.032869
v -0.085892 0.178867 -0.000000
v -0.079354 0.178867 -0.032869
v -0.060735 0.178867 -0.060735
v -0.032869 0.178867 -0.079354
v -0.046424 0.177419 -0.046424
v -0.060655 0.177419 -0.025124
v -0.065653 0.177419 -0.000000
v -0.060655 0.177419 0.025124
v -0.046424 0.177419 0.046424
v -0.025124 0.177419 0.060655
v 0.000000 0.177419 0.065653
v 0.025124 0.177419 0.060655
v 0.046424 0.177419 0.046424
v 0.060655 0.177419 0.025124
v 0.065653 0.177419 0.000000
v 0.060655 0.177419 -0.025124
v 0.046424 0.177419 -0.046424
v 0.025124 0.177419 -0.060655
v 0.000000 0.177419 -0.065653
v -0.025124 0.177419 -0.060655
v -0.046424 0.124102 -0.046424
v -0.060655 0.124102 -0.025124
v -0.065653 0.124102 -0.000000
v -0.060655 0.124102 0.025124
v -0.046424 0.124102 0.046424
v -0.025124 0.124102 0.060655
v 0.000000 0.124102 0.065653
v 0.025124 0.124102 0.060655
v 0.046424 0.124102 0.046424
v 0.060655 0.124102 0.025124
v 0.065653 0.124102 0.000000
v 0.060655 0.124102 -0.025124
v 0.046424 0.124102 -0.046424
v 0.025124 0.124102 -0.060655
v 0.000000 0.124102 -0.065653
v -0.025124 0.124102 -0.060655
v -0.066658 0.116363 -0.066658
v -0.087093 0.116363 -0.036075
v -0.094268 0.116363 0.000000
v -0.087093 0.116363 0.036075
v -0.066658 0.116363 0.066658
v -0.036075 0.116363 0.087093
v -0.000000 0.116363 0.094268
v 0.036075 0.116363 0.087093
v 0.066658 0.116363 0.066658
v 0.087093 0.116363 0.036075
v 0.094268 0.116363 0.000000
v 0.087093 0.116363 -0.036075
v 0.066658 0.116363 -0.066658
v 0.036075 0.116363 -0.087093
v 0.000000 0.116363 -0.094268
v -0.036075 0.116363 -0.087093
v -0.086300 0.095367 -0.086300
v -0.112757 0.095367 -0.046705
v -0.122047 0.095367 -0.000000
v -0.112757 0.095367 0.046705
v -0.086300 0.095367 0.086300
v -0.046705 0.095367 0.112757
v -0.000000 0.095367 0.122047
v 0.046705 0.095367 0.112757
v 0.086300 0.095367 0.086300
v 0.112757 0.095367 0.046705
v 0.122047 0.095367 0.000000
v 0.112757 0.095367 -0.046705
v 0.086300 0.095367 -0.086300
v 0.046705 0.095367 -0.112757
v -0.000000 0.095367 -0.122047
v -0.046705 0.095367 -0.112757
v -0.097398 0.069082 -0.097398
v -0.127257 0.069082 -0.052711
v -0.137741 0.069082 -0.000000
v -0.127257 0.069082 0.052711
v -0.097398 0.069082 0.097398
v -0.052711 0.069082 0.127257
v -0.000000 0.069082 0.137742
v 0.052711 0.069082 0.127257
v 0.097398 0.069082 0.097398
v 0.127257 0.069082 0.052711
v 0.137741 0.069082 0.000000
v 0.127257 0.069082 -0.052711
v 0.097398 0.069082 -0.097398
v 0.052711 0.069082 -0.127257
v -0.000000 0.069082 -0.137742
v -0.052711 0.069082 -0.127257
v -0.108850 0.030728 -0.108850
v -0.142219 0.030728 -0.058909
v -0.153937 0.030728 0.000000
v -0.142219 0.030728 0.058909
v -0.108850 0.030728 0.108850
v -0.058909 0.030728 0.142219
v -0.000000 0.030728 0.153937
v 0.058909 0.030728 0.142219
v 0.108850 0.030728 0.108850
v 0.142219 0.030728 0.058909
v 0.153937 0.030728 0.000000
v 0.142219 0.030728 -0.058909
v 0.108850 0.030728 -0.108850
v 0.058909 0.030728 -0.142219
v -0.000000 0.030728 -0.153937
v -0.058909 0.030728 -0.142219
vn -0.0504 -0.9975 0.0504
vn -0.0273 -0.9975 0.0659
vn 0.0659 -0.9975 -0.0273
vn 0.0504 -0.9975 -0.0504
vn -0.0659 -0.9975 0.0273
vn 0.0713 -0.9975 -0.0000
vn -0.0713 -0.9975 -0.0000
vn 0.0659 -0.9975 0.0273
vn -0.0659 -0.9975 -0.0273
vn 0.0504 -0.9975 0.0504
vn -0.0504 -0.9975 -0.0504
vn 0.0273 -0.9975 0.0659
vn -0.0273 -0.9975 -0.0659
vn -0.0000 -0.9975 0.0713
vn 0.0273 -0.9975 -0.0659
vn -0.0000 -0.9975 -0.0713
vn 0.9239 -0.0000 0.3827
vn 1.0000 -0.0000 -0.0000
vn -1.0000 -0.0000 -0.0000
vn -0.9239 -0.0000 0.3827
vn 0.9239 -0.0000 -0.3827
vn -0.7071 -0.0000 0.7071
vn 0.7071 -0.0000 -0.7071
vn -0.3827 -0.0000 0.9239
vn -0.0000 -0.0000 -1.0000
vn -0.3827 -0.0000 -0.9239
vn 0.3827 -0.0000 -0.9239
vn -0.0000 -0.0000 1.0000
vn -0.7071 -0.0000 -0.7071
vn 0.3827 -0.0000 0.9239
vn -0.9239 -0.0000 -0.3827
vn 0.7071 -0.0000 0.7071
vn -0.0999 0.9653 -0.2412
vn -0.1846 0.9653 -0.1846
vn -0.2817 0.9172 -0.2817
vn -0.1524 0.9172 -0.3680
vn 0.0999 0.9653 0.2412
vn 0.1846 0.9653 0.1846
vn 0.2817 0.9172 0.2817
vn 0.1524 0.9172 0.3680
vn -0.2412 0.9653 -0.0999
vn -0.3680 0.9172 -0.1524
vn 0.2412 0.9653 0.0999
vn 0.3680 0.9172 0.1524
vn -0.2611 0.9653 -0.0000
vn -0.3983 0.9172 -0.0000
vn 0.2611 0.9653 -0.0000
vn 0.3983 0.9172 -0.0000
vn -0.2412 0.9653 0.0999
vn -0.3680 0.9172 0.1524
vn 0.2412 0.9653 -0.0999
vn 0.3680 0.9172 -0.1524
vn -0.1846 0.9653 0.1846
vn -0.2817 0.9172 0.2817
vn 0.1846 0.9653 -0.1846
vn 0.2817 0.9172 -0.2817
vn -0.0999 0.9653 0.2412
vn -0.1524 0.9172 0.3680
vn 0.0999 0.9653 -0.2412
vn 0.1524 0.9172 -0.3680
vn -0.0000 0.9653 0.2611
vn -0.0000 0.9172 0.3983
vn -0.0000 0.9653 -0.2611
vn -0.0000 0.9172 -0.3983
vn -0.2783 0.6863 0.6720
vn -0.5143 0.6863 0.5143
vn 0.2783 0.6863 -0.6720
vn 0.5143 0.6863 -0.5143
vn -0.0000 0.6863 0.7273
vn -0.2783 0.6863 -0.6720
vn -0.0000 0.6863 -0.7273
vn 0.2783 0.6863 0.6720
vn -0.5143 0.6863 -0.5143
vn 0.5143 0.6863 0.5143
vn -0.6720 0.6863 -0.2783
vn 0.6720 0.6863 0.2783
vn -0.7273 0.6863 -0.0000
vn 0.7273 0.6863 -0.0000
vn -0.6720 0.6863 0.2783
vn 0.6720 0.6863 -0.2783
vn 0.8915 0.4530 -0.0000
vn 0.8236 0.4530 0.3412
vn -0.8236 0.4530 0.3412
vn -0.8915 0.4530 -0.0000
vn 0.8236 0.4530 -0.3412
vn -0.6304 0.4530 0.6304
vn 0.6304 0.4530 -0.6304
vn -0.3412 0.4530 0.8236
vn 0.3412 0.4530 -0.8236
vn -0.0000 0.4530 0.8915
vn -0.3412 0.4530 -0.8236
vn -0.0000 0.4530 -0.8915
vn 0.3412 0.4530 0.8236
vn -0.6304 0.4530 -0.6304
vn 0.6304 0.4530 0.6304
vn -0.8236 0.4530 -0.3412
vn 0.8511 0.3890 -0.3525
vn 0.9212 0.3890 -0.0000
vn -0.6514 0.3890 0.6514
vn -0.8511 0.3890 0.3525
vn 0.6514 0.3890 -0.6514
vn -0.3525 0.3890 0.8511
vn 0.3525 0.3890 -0.8511
vn -0.0000 0.3890 0.9212
vn -0.3525 0.3890 -0.8511
vn -0.0000 0.3890 -0.9212
vn 0.3525 0.3890 0.8511
vn -0.6514 0.3890 -0.6514
vn 0.6514 0.3890 0.6514
vn -0.8511 0.3890 -0.3525
vn 0.8511 0.3890 0.3525
vn -0.9212 0.3890 -0.0000
vt 0.999900 0.222557
vt 0.971291 0.290685
vt 0.933702 0.264618
vt 0.954961 0.213009
vt 0.630837 0.222558
vt 0.630698 0.149975
vt 0.674546 0.158612
vt 0.675309 0.214173
vt 0.999900 0.148218
vt 0.954480 0.157233
vt 0.658798 0.290137
vt 0.696878 0.265219
vt 0.971506 0.080207
vt 0.933675 0.105469
vt 0.710953 0.342052
vt 0.736422 0.303941
vt 0.918950 0.027992
vt 0.893439 0.066702
vt 0.778287 0.369745
vt 0.787293 0.325825
vt 0.850240 0.000100
vt 0.841961 0.045336
vt 0.851036 0.370007
vt 0.842895 0.325396
vt 0.776851 0.001032
vt 0.786111 0.045358
vt 0.918916 0.342387
vt 0.894285 0.304042
vt 0.657788 0.082709
vt 0.709071 0.030020
vt 0.735143 0.068014
vt 0.695988 0.107356
vt 0.438378 0.568271
vt 0.499308 0.567996
vt 0.500633 0.404078
vt 0.436169 0.404352
vt 0.000633 0.595922
vt 0.064948 0.594070
vt 0.060299 0.430152
vt -0.000692 0.432003
vt 0.560299 0.569848
vt 0.564948 0.405930
vt 0.128768 0.590375
vt 0.121517 0.426456
vt 0.621517 0.573544
vt 0.628768 0.409625
vt 0.191890 0.585398
vt 0.183145 0.421479
vt 0.745362 0.584021
vt 0.808295 0.589207
vt 0.816042 0.425289
vt 0.754280 0.420102
vt 0.683145 0.578521
vt 0.691890 0.414602
vt 0.254280 0.579898
vt 0.245362 0.415979
vt 0.871951 0.593290
vt 0.877346 0.429372
vt 0.316042 0.574711
vt 0.308295 0.410793
vt 0.936169 0.595648
vt 0.938378 0.431730
vt 0.377346 0.570628
vt 0.371951 0.406710
vt 1.000633 0.595922
vt 0.999308 0.432003
vt 0.092614 0.656141
vt 0.159305 0.618873
vt 0.143347 0.551524
vt 0.078184 0.587201
vt 0.539685 0.507127
vt 0.593008 0.536187
vt 0.605094 0.467627
vt 0.548250 0.436841
vt 0.218477 0.578738
vt 0.203517 0.511526
vt 0.647719 0.572793
vt 0.662388 0.505480
vt 0.273565 0.541324
vt 0.261023 0.473003
vt 0.706072 0.612836
vt 0.722005 0.545604
vt 0.326998 0.510899
vt 0.317849 0.440874
vt 0.771391 0.650964
vt 0.786280 0.582341
vt 0.380107 0.490744
vt 0.375114 0.419202
vt 0.846925 0.680106
vt 0.856857 0.609226
vt 0.433330 0.483070
vt 0.432972 0.410869
vt 0.931843 0.692310
vt 0.932621 0.620113
vt 0.486569 0.488746
vt 0.490883 0.417037
vt 0.015430 0.683216
vt 0.006655 0.612023
vt 1.017597 0.683216
vt 1.008821 0.612023
vt 0.432594 0.332476
vt 0.369904 0.341496
vt 0.933176 0.541721
vt 0.864190 0.531803
vt 0.495398 0.339158
vt 0.066860 0.511348
vt 0.000232 0.534364
vt 1.002399 0.534364
vt 0.556961 0.360394
vt 0.129803 0.477215
vt 0.616853 0.392766
vt 0.189895 0.437647
vt 0.675874 0.431555
vt 0.248916 0.398342
vt 0.735682 0.471441
vt 0.308597 0.364677
vt 0.798104 0.506768
vt 0.745881 0.408728
vt 0.686526 0.369219
vt 0.300585 0.300723
vt 0.238908 0.335568
vt 0.806427 0.442889
vt 0.365236 0.276254
vt 0.869111 0.466595
vt 0.432251 0.266618
vt 0.933540 0.475863
vt 0.499458 0.273763
vt 0.058954 0.447258
vt -0.004055 0.468995
vt 0.998112 0.468995
vt 0.564552 0.296232
vt 0.119791 0.414365
vt 0.626647 0.329850
vt 0.179227 0.375317
vt 0.815243 0.370325
vt 0.757208 0.337561
vt 0.358957 0.202427
vt 0.290242 0.228528
vt 0.874141 0.392601
vt 0.431780 0.191961
vt 0.933907 0.401206
vt 0.504945 0.199732
vt 0.050634 0.374459
vt -0.008420 0.394835
vt 0.993746 0.394835
vt 0.574421 0.223785
vt 0.108756 0.343021
vt 0.638747 0.258834
vt 0.166841 0.304759
vt 0.698993 0.298688
vt 0.226644 0.264698
s 1
f 11/1/1 21/4/1 22/3/2 10/2/2
f 4/5/3 28/8/3 29/7/4 3/6/4
f 12/9/5 20/10/5 21/4/1 11/1/1
f 5/11/6 27/12/6 28/8/3 4/5/3
f 13/13/7 19/14/7 20/10/5 12/9/5
f 6/15/8 26/16/8 27/12/6 5/11/6
f 14/17/9 18/18/9 19/14/7 13/13/7
f 7/19/10 25/20/10 26/16/8 6/15/8
f 15/21/11 17/22/11 18/18/9 14/17/9
f 8/23/12 24/24/12 25/20/10 7/19/10
f 16/25/13 32/26/13 17/22/11 15/21/11
f 9/27/14 23/28/14 24/24/12 8/23/12
f 2/29/15 30/32/15 31/31/16 1/30/16
f 1/30/16 31/31/16 32/26/13 16/25/13
f 10/2/2 22/3/2 23/28/14 9/27/14
f 3/6/4 29/7/4 30/32/15 2/29/15
f 26/33/17 42/36/17 43/35/18 27/34/18
f 19/37/19 35/40/19 36/39/20 20/38/20
f 27/34/18 43/35/18 44/42/21 28/41/21
f 20/38/20 36/39/20 37/44/22 21/43/22
f 28/41/21 44/42/21 45/46/23 29/45/23
f 21/43/22 37/44/22 38/48/24 22/47/24
f 31/49/25 47/52/25 48/51/26 32/50/26
f 29/45/23 45/46/23 46/54/27 30/53/27
f 22/47/24 38/48/24 39/56/28 23/55/28
f 32/50/26 48/51/26 33/58/29 17/57/29
f 30/53/27 46/54/27 47/52/25 31/49/25
f 23/55/28 39/56/28 40/60/30 24/59/30
f 17/57/29 33/58/29 34/62/31 18/61/31
f 24/59/30 40/60/30 41/64/32 25/63/32
f 25/63/32 41/64/32 42/36/17 26/33/17
f 18/61/31 34/62/31 35/66/19 19/65/19
f 48/67/33 64/70/36 49/69/35 33/68/34
f 40/71/37 56/74/40 57/73/39 41/72/38
f 33/68/34 49/69/35 50/76/42 34/75/41
f 41/72/38 57/73/39 58/78/44 42/77/43
f 34/75/41 50/76/42 51/80/46 35/79/45
f 42/77/43 58/78/44 59/82/48 43/81/47
f 35/79/45 51/80/46 52/84/50 36/83/49
f 43/81/47 59/82/48 60/86/52 44/85/51
f 36/83/49 52/84/50 53/88/54 37/87/53
f 44/85/51 60/86/52 61/90/56 45/89/55
f 37/87/53 53/88/54 54/92/58 38/91/57
f 45/89/55 61/90/56 62/94/60 46/93/59
f 38/91/57 54/92/58 55/96/62 39/95/61
f 47/97/63 63/98/64 64/70/36 48/67/33
f 46/93/59 62/94/60 63/100/64 47/99/63
f 39/95/61 55/96/62 56/74/40 40/71/37
f 53/88/54 69/102/66 70/101/65 54/92/58
f 61/90/56 77/104/68 78/103/67 62/94/60
f 54/92/58 70/101/65 71/105/69 55/96/62
f 63/98/64 79/107/71 80/106/70 64/70/36
f 62/94/60 78/103/67 79/108/71 63/100/64
f 55/96/62 71/105/69 72/109/72 56/74/40
f 64/70/36 80/106/70 65/110/73 49/69/35
f 56/74/40 72/109/72 73/111/74 57/73/39
f 49/69/35 65/110/73 66/112/75 50/76/42
f 57/73/39 73/111/74 74/113/76 58/78/44
f 50/76/42 66/112/75 67/114/77 51/80/46
f 58/78/44 74/113/76 75/115/78 59/82/48
f 51/80/46 67/114/77 68/116/79 52/84/50
f 59/82/48 75/115/78 76/117/80 60/86/52
f 52/84/50 68/116/79 69/102/66 53/88/54
f 60/86/52 76/117/80 77/104/68 61/90/56
f 74/113/76 90/119/82 91/118/81 75/115/78
f 67/114/77 83/121/84 84/120/83 68/116/79
f 75/115/78 91/118/81 92/122/85 76/117/80
f 68/116/79 84/120/83 85/123/86 69/102/66
f 76/117/80 92/122/85 93/124/87 77/104/68
f 69/102/66 85/123/86 86/125/88 70/101/65
f 77/104/68 93/124/87 94/126/89 78/103/67
f 70/101/65 86/125/88 87/127/90 71/105/69
f 79/107/71 95/129/92 96/128/91 80/106/70
f 78/103/67 94/126/89 95/130/92 79/108/71
f 71/105/69 87/127/90 88/131/93 72/109/72
f 80/106/70 96/128/91 81/132/94 65/110/73
f 72/109/72 88/131/93 89/133/95 73/111/74
f 65/110/73 81/132/94 82/134/96 66/112/75
f 73/111/74 89/133/95 90/119/82 74/113/76
f 66/112/75 82/134/96 83/121/84 67/114/77
f 91/118/81 107/136/98 108/135/97 92/122/85
f 84/120/83 100/138/100 101/137/99 85/123/86
f 92/122/85 108/135/97 109/139/101 93/124/87
f 85/123/86 101/137/99 102/140/102 86/125/88
f 93/124/87 109/139/101 110/141/103 94/126/89
f 86/125/88 102/140/102 103/142/104 87/127/90
f 95/129/92 111/144/106 112/143/105 96/128/91
f 94/126/89 110/141/103 111/145/106 95/130/92
f 87/127/90 103/142/104 104/146/107 88/131/93
f 96/128/91 112/143/105 97/147/108 81/132/94
f 88/131/93 104/146/107 105/148/109 89/133/95
f 81/132/94 97/147/108 98/149/110 82/134/96
f 89/133/95 105/148/109 106/150/111 90/119/82
f 82/134/96 98/149/110 99/151/112 83/121/84
f 90/119/82 106/150/111 107/136/98 91/118/81
f 83/121/84 99/151/112 100/138/100 84/120/83
