# Blender 4.1.0
# www.blender.org
o Misc_Button
v -0.176770 0.296739 -0.261740
v -0.122432 0.296739 -0.261740
v -0.176770 0.296739 -0.316078
v -0.122432 0.296739 -0.316078
v -0.180390 0.295087 -0.319698
v -0.180390 0.295087 -0.258120
v -0.118812 0.295087 -0.258120
v -0.118812 0.295087 -0.319698
v -0.182792 0.293522 -0.322100
v -0.182792 0.293522 -0.255717
v -0.116410 0.293522 -0.255717
v -0.116410 0.293522 -0.322100
v -0.184887 0.291214 -0.324195
v -0.184887 0.291214 -0.253623
v -0.114315 0.291214 -0.253623
v -0.114315 0.291214 -0.324195
v -0.119138 0.293563 -0.253703
v -0.120556 0.295161 -0.256949
v -0.117607 0.291114 -0.251154
v -0.117641 0.295161 -0.260603
v -0.111846 0.291114 -0.259229
v -0.114395 0.293563 -0.259834
v -0.117641 0.295161 -0.317752
v -0.111846 0.291114 -0.319647
v -0.114395 0.293563 -0.318997
v -0.121073 0.295161 -0.320869
v -0.119429 0.291114 -0.326664
v -0.120152 0.293563 -0.324115
v -0.178237 0.295161 -0.320869
v -0.180010 0.291114 -0.326664
v -0.179230 0.293563 -0.324115
v -0.187356 0.291114 -0.318009
v -0.184807 0.293563 -0.317544
v -0.181561 0.295161 -0.316952
v -0.179519 0.291114 -0.251154
v -0.178014 0.295161 -0.256949
v -0.178857 0.293563 -0.253703
v -0.187356 0.291114 -0.260048
v -0.184807 0.293563 -0.260455
v -0.181561 0.295161 -0.260974
v -0.185536 0.284342 -0.324844
v -0.185536 0.284342 -0.252974
v -0.113666 0.284342 -0.252974
v -0.113666 0.284342 -0.324844
v -0.117019 0.284241 -0.250460
v -0.111152 0.284241 -0.258684
v -0.111152 0.284241 -0.320212
v -0.118874 0.284241 -0.327358
v -0.180569 0.284241 -0.327358
v -0.188050 0.284241 -0.318544
v -0.180069 0.284241 -0.250460
v -0.188050 0.284241 -0.259517
vn -0.1305 0.9829 0.1299
vn 0.1289 0.9833 0.1281
vn 0.1283 0.9834 -0.1286
vn -0.1300 0.9831 -0.1293
vn 0.2536 0.9271 -0.2760
vn 0.3765 0.8335 -0.4044
vn 0.1328 0.8234 -0.5516
vn 0.0985 0.9277 -0.3602
vn 0.3649 0.9265 0.0922
vn 0.3513 0.9300 -0.1084
vn -0.3697 0.9252 -0.0859
vn -0.3714 0.9247 0.0835
vn -0.1018 0.9283 -0.3577
vn -0.0952 0.9271 0.3627
vn 0.1163 0.9315 0.3448
vn -0.4081 0.8312 0.3775
vn -0.4653 0.7681 0.4399
vn -0.1458 0.7437 0.6525
vn -0.1280 0.8225 0.5542
vn -0.2789 0.9257 0.2557
vn 0.2898 0.9268 0.2388
vn 0.4255 0.8375 0.3428
vn 0.5565 0.8216 0.1239
vn -0.2824 0.9259 -0.2509
vn -0.4125 0.8321 -0.3708
vn -0.5613 0.8196 -0.1147
vn 0.4870 0.7741 0.4045
vn 0.6557 0.7419 0.1401
vn -0.4703 0.7680 -0.4348
vn -0.6626 0.7381 -0.1274
vn 0.4439 0.7646 -0.4673
vn 0.1523 0.7456 -0.6488
vn 0.2119 0.7696 0.6024
vn 0.1599 0.8333 0.5292
vn 0.6433 0.7471 -0.1670
vn 0.5435 0.8252 -0.1540
vn -0.1376 0.8244 -0.5490
vn -0.1587 0.7475 -0.6450
vn -0.5631 0.8189 0.1113
vn -0.6651 0.7366 0.1226
vn -0.9225 0.1217 -0.3662
vn -0.9748 0.1134 -0.1923
vn -0.9771 0.1127 -0.1807
vn 0.9737 0.1140 0.1973
vn 0.9711 0.1147 0.2095
vn 0.9612 0.1176 -0.2497
vn 0.9646 0.1168 -0.2363
vn 0.5922 0.1310 0.7951
vn 0.7741 0.1315 0.6193
vn 0.7780 0.1314 0.6144
vn 0.8730 0.1269 -0.4710
vn -0.9761 0.1129 0.1859
vn -0.9782 0.1123 0.1746
vn 0.2138 0.1152 -0.9701
vn 0.2266 0.1159 -0.9671
vn -0.2358 0.1166 -0.9648
vn -0.2228 0.1159 -0.9680
vn -0.4460 0.1257 -0.8862
vn -0.4127 0.1241 0.9024
vn -0.2175 0.1153 0.9692
vn -0.2050 0.1145 0.9720
vn -0.0000 0.1005 0.9949
vn 0.4293 0.1250 -0.8945
vn -0.9272 0.1210 0.3544
vt 0.218204 0.785600
vt 0.780265 0.783790
vt 0.786201 0.215493
vt 0.221135 0.209661
vt 0.826361 0.175982
vt 0.854507 0.148163
vt 0.815030 0.125712
vt 0.802653 0.163352
vt 0.832621 0.797998
vt 0.838498 0.196743
vt 0.168788 0.197880
vt 0.165494 0.795675
vt 0.204920 0.157451
vt 0.203654 0.837862
vt 0.800953 0.835778
vt 0.151032 0.853857
vt 0.122782 0.882928
vt 0.181078 0.913627
vt 0.192877 0.875568
vt 0.178545 0.825607
vt 0.819585 0.823892
vt 0.846832 0.852724
vt 0.870748 0.809309
vt 0.182013 0.169313
vt 0.154768 0.140719
vt 0.130454 0.188391
vt 0.874873 0.882489
vt 0.909500 0.822101
vt 0.126821 0.111405
vt 0.091349 0.177115
vt 0.884170 0.120216
vt 0.828541 0.087790
vt 0.838115 0.910619
vt 0.816904 0.873272
vt 0.915336 0.169625
vt 0.876475 0.181481
vt 0.192915 0.119666
vt 0.179672 0.081387
vt 0.127006 0.803895
vt 0.087854 0.813790
vt 0.067197 0.049423
vt 0.008082 0.135820
vt 0.996968 0.867747
vt 0.996968 0.124468
vt 0.882036 0.987524
vt 0.936055 0.950143
vt 0.947385 0.057605
vt 0.000100 0.853840
vt 0.872879 0.002772
vt 0.137514 0.000100
vt 0.061245 0.946132
vt 0.140050 0.999900
s 1
f 1/1/1 2/2/2 4/3/3 3/4/4
f 8/5/5 12/6/6 28/7/7 26/8/8
f 2/2/2 20/9/9 23/10/10 4/3/3
f 3/4/4 34/11/11 40/12/12 1/1/1
f 4/3/3 26/8/8 29/13/13 3/4/4
f 1/1/1 36/14/14 18/15/15 2/2/2
f 10/16/16 14/17/17 35/18/18 37/19/19
f 6/20/20 10/16/16 37/19/19 36/14/14
f 7/21/21 11/22/22 22/23/23 20/9/9
f 5/24/24 9/25/25 33/26/26 34/11/11
f 11/22/22 15/27/27 21/28/28 22/23/23
f 9/25/25 13/29/29 32/30/30 33/26/26
f 12/6/6 16/31/31 27/32/32 28/7/7
f 19/33/33 15/27/27 11/22/22 17/34/34
f 17/34/34 11/22/22 7/21/21 18/15/15
f 18/15/15 7/21/21 2/2/2
f 21/28/28 24/35/35 25/36/36 22/23/23
f 22/23/23 25/36/36 23/10/10 20/9/9
f 20/9/9 2/2/2 7/21/21
f 24/35/35 16/31/31 12/6/6 25/36/36
f 25/36/36 12/6/6 8/5/5 23/10/10
f 23/10/10 8/5/5 4/3/3
f 26/8/8 4/3/3 8/5/5
f 28/7/7 31/37/37 29/13/13 26/8/8
f 27/32/32 30/38/38 31/37/37 28/7/7
f 31/37/37 9/25/25 5/24/24 29/13/13
f 29/13/13 5/24/24 3/4/4
f 30/38/38 13/29/29 9/25/25 31/37/37
f 33/26/26 39/39/39 40/12/12 34/11/11
f 34/11/11 3/4/4 5/24/24
f 32/30/30 38/40/40 39/39/39 33/26/26
f 35/18/18 19/33/33 17/34/34 37/19/19
f 37/19/19 17/34/34 18/15/15 36/14/14
f 36/14/14 1/1/1 6/20/20
f 40/12/12 6/20/20 1/1/1
f 38/40/40 14/17/17 10/16/16 39/39/39
f 39/39/39 10/16/16 6/20/20 40/12/12
f 13/29/41 41/41/41 50/42/42 32/30/43
f 21/28/44 46/43/45 47/44/46 24/35/47
f 19/33/48 45/45/48 43/46/49 15/27/50
f 15/27/50 43/46/49 46/43/45 21/28/44
f 24/35/47 47/44/46 44/47/51 16/31/51
f 32/30/43 50/42/42 52/48/52 38/40/53
f 27/32/54 48/49/55 49/50/56 30/38/57
f 30/38/57 49/50/56 41/41/58 13/29/58
f 14/17/59 42/51/59 51/52/60 35/18/61
f 35/18/61 51/52/60 45/45/62 19/33/62
f 16/31/63 44/47/63 48/49/55 27/32/54
f 38/40/53 52/48/52 42/51/64 14/17/64
