# Blender 4.1.0
# www.blender.org
o Left_Ring
v 0.000000 0.222503 -0.115648
v -0.000000 0.201390 -0.119776
v 0.044257 0.222503 -0.106845
v 0.045836 0.201390 -0.110659
v 0.081776 0.222503 -0.081776
v 0.084695 0.201390 -0.084695
v 0.106845 0.222503 -0.044257
v 0.110659 0.201390 -0.045836
v 0.115648 0.222503 0.000000
v 0.119776 0.201390 0.000000
v 0.106845 0.222503 0.044257
v 0.110659 0.201390 0.045836
v 0.081776 0.222503 0.081776
v 0.084695 0.201390 0.084695
v 0.044257 0.222503 0.106845
v 0.045836 0.201390 0.110659
v -0.000000 0.222503 0.115648
v -0.000000 0.201390 0.119776
v -0.044257 0.222503 0.106845
v -0.045836 0.201390 0.110659
v -0.081776 0.222503 0.081776
v -0.084695 0.201390 0.084695
v -0.106845 0.222503 0.044257
v -0.110659 0.201390 0.045836
v -0.115648 0.222503 -0.000000
v -0.119776 0.201390 -0.000000
v -0.106845 0.222503 -0.044257
v -0.110659 0.201390 -0.045836
v -0.081776 0.222503 -0.081776
v -0.084695 0.201390 -0.084695
v -0.044257 0.222503 -0.106845
v -0.045836 0.201390 -0.110659
v 0.000000 0.183122 -0.110857
v 0.042423 0.183122 -0.102419
v 0.078388 0.183122 -0.078388
v 0.102419 0.183122 -0.042423
v 0.110857 0.183122 0.000000
v 0.102419 0.183122 0.042423
v 0.078388 0.183122 0.078388
v 0.042423 0.183122 0.102419
v -0.000000 0.183122 0.110857
v -0.042423 0.183122 0.102419
v -0.078388 0.183122 0.078388
v -0.102419 0.183122 0.042423
v -0.110857 0.183122 -0.000000
v -0.102419 0.183122 -0.042423
v -0.078388 0.183122 -0.078388
v -0.042423 0.183122 -0.102419
v 0.000000 0.178867 -0.085892
v 0.032869 0.178867 -0.079354
v 0.060735 0.178867 -0.060735
v 0.079354 0.178867 -0.032869
v 0.085892 0.178867 0.000000
v 0.079354 0.178867 0.032869
v 0.060735 0.178867 0.060735
v 0.032869 0.178867 0.079354
v 0.000000 0.178867 0.085892
v -0.032869 0.178867 0.079354
v -0.060735 0.178867 0.060735
v -0.079354 0.178867 0.032869
v -0.085892 0.178867 -0.000000
v -0.079354 0.178867 -0.032869
v -0.060735 0.178867 -0.060735
v -0.032869 0.178867 -0.079354
v 0.000000 0.232969 -0.102938
v 0.039393 0.232969 -0.095102
v 0.072788 0.232969 -0.072788
v 0.095102 0.232969 -0.039393
v 0.102938 0.232969 0.000000
v 0.095102 0.232969 0.039393
v 0.072788 0.232969 0.072788
v 0.039393 0.232969 0.095102
v -0.000000 0.232969 0.102938
v -0.039393 0.232969 0.095102
v -0.072788 0.232969 0.072788
v -0.095102 0.232969 0.039393
v -0.102938 0.232969 0.000000
v -0.095102 0.232969 -0.039393
v -0.072788 0.232969 -0.072788
v -0.039393 0.232969 -0.095102
v 0.000000 0.232969 -0.087215
v 0.033376 0.232969 -0.080576
v 0.061670 0.232969 -0.061670
v 0.080576 0.232969 -0.033376
v 0.087215 0.232969 0.000000
v 0.080576 0.232969 0.033376
v 0.061670 0.232969 0.061670
v 0.033376 0.232969 0.080576
v -0.000000 0.232969 0.087215
v -0.033376 0.232969 0.080576
v -0.061670 0.232969 0.061670
v -0.080576 0.232969 0.033376
v -0.087215 0.232969 0.000000
v -0.080576 0.232969 -0.033376
v -0.061670 0.232969 -0.061670
v -0.033376 0.232969 -0.080576
v 0.000000 0.229859 -0.076972
v 0.029456 0.229859 -0.071112
v 0.054427 0.229859 -0.054427
v 0.071112 0.229859 -0.029456
v 0.076972 0.229859 0.000000
v 0.071112 0.229859 0.029456
v 0.054427 0.229859 0.054427
v 0.029456 0.229859 0.071112
v 0.000000 0.229859 0.076972
v -0.029456 0.229859 0.071112
v -0.054427 0.229859 0.054427
v -0.071112 0.229859 0.029456
v -0.076972 0.229859 0.000000
v -0.071112 0.229859 -0.029456
v -0.054427 0.229859 -0.054427
v -0.029456 0.229859 -0.071112
vn -0.0000 0.5652 -0.8250
vn -0.0000 -0.1425 -0.9898
vn 0.3788 -0.1425 -0.9145
vn 0.3157 0.5652 -0.7622
vn 0.6999 -0.1425 -0.6999
vn 0.5833 0.5652 -0.5833
vn 0.9145 -0.1425 -0.3788
vn 0.7622 0.5652 -0.3157
vn 0.9898 -0.1425 -0.0000
vn 0.8250 0.5652 -0.0000
vn 0.9145 -0.1425 0.3788
vn 0.7622 0.5652 0.3157
vn 0.6999 -0.1425 0.6999
vn 0.5833 0.5652 0.5833
vn 0.3788 -0.1425 0.9145
vn 0.3157 0.5652 0.7622
vn -0.0000 -0.1425 0.9898
vn -0.0000 0.5652 0.8250
vn -0.3788 -0.1425 0.9145
vn -0.3157 0.5652 0.7622
vn -0.6999 -0.1425 0.6999
vn -0.5833 0.5652 0.5833
vn -0.9145 -0.1425 0.3788
vn -0.7622 0.5652 0.3157
vn -0.9898 -0.1425 -0.0000
vn -0.8250 0.5652 -0.0000
vn -0.9145 -0.1425 -0.3788
vn -0.7622 0.5652 -0.3157
vn -0.6999 -0.1425 -0.6999
vn -0.5833 0.5652 -0.5833
vn -0.3788 -0.1425 -0.9145
vn -0.3157 0.5652 -0.7622
vn 0.6354 -0.4387 -0.6354
vn 0.8302 -0.4387 -0.3439
vn 0.3439 -0.4387 0.8302
vn -0.0000 -0.4387 0.8986
vn -0.0000 -0.4387 -0.8986
vn 0.3439 -0.4387 -0.8302
vn -0.8986 -0.4387 -0.0000
vn -0.8302 -0.4387 -0.3439
vn 0.8302 -0.4387 0.3439
vn 0.6354 -0.4387 0.6354
vn -0.6354 -0.4387 0.6354
vn -0.8302 -0.4387 0.3439
vn -0.3439 -0.4387 -0.8302
vn 0.8986 -0.4387 -0.0000
vn -0.3439 -0.4387 0.8302
vn -0.6354 -0.4387 -0.6354
vn 0.1552 -0.9858 0.0643
vn 0.1680 -0.9858 -0.0000
vn -0.1552 -0.9858 -0.0643
vn -0.1680 -0.9858 -0.0000
vn 0.1188 -0.9858 0.1188
vn -0.1188 -0.9858 -0.1188
vn 0.0643 -0.9858 0.1552
vn -0.0643 -0.9858 -0.1552
vn -0.0000 -0.9858 0.1680
vn 0.0643 -0.9858 -0.1552
vn -0.0000 -0.9858 -0.1680
vn -0.0643 -0.9858 0.1552
vn 0.1188 -0.9858 -0.1188
vn -0.1188 -0.9858 0.1188
vn 0.1552 -0.9858 -0.0643
vn -0.1552 -0.9858 0.0643
vn 0.4495 0.7720 0.4495
vn 0.5873 0.7720 0.2433
vn -0.5873 0.7720 0.2433
vn -0.4495 0.7720 0.4495
vn -0.0000 0.7720 -0.6357
vn -0.2433 0.7720 -0.5873
vn 0.6357 0.7720 -0.0000
vn 0.5873 0.7720 -0.2433
vn -0.2433 0.7720 0.5873
vn -0.0000 0.7720 0.6357
vn -0.4495 0.7720 -0.4495
vn -0.5873 0.7720 -0.2433
vn 0.4495 0.7720 -0.4495
vn 0.2433 0.7720 -0.5873
vn 0.2433 0.7720 0.5873
vn -0.6357 0.7720 -0.0000
vn -0.0000 1.0000 -0.0000
vn 0.2906 0.9569 -0.0000
vn 0.2685 0.9569 0.1112
vn -0.2685 0.9569 -0.1112
vn -0.2055 0.9569 -0.2055
vn 0.2055 0.9569 0.2055
vn -0.1112 0.9569 -0.2685
vn 0.1112 0.9569 0.2685
vn -0.0000 0.9569 -0.2906
vn -0.0000 0.9569 0.2906
vn -0.1112 0.9569 0.2685
vn 0.1112 0.9569 -0.2685
vn -0.2055 0.9569 0.2055
vn 0.2055 0.9569 -0.2055
vn -0.2685 0.9569 0.1112
vn 0.2685 0.9569 -0.1112
vn -0.2906 0.9569 -0.0000
vt 0.501967 0.838986
vt 0.501967 0.899183
vt 0.654204 0.868901
vt 0.631168 0.813287
vt 0.783264 0.782666
vt 0.740698 0.740101
vt 0.869499 0.653606
vt 0.813885 0.630570
vt 0.899781 0.501369
vt 0.839584 0.501369
vt 0.869499 0.349132
vt 0.813885 0.372168
vt 0.783264 0.220072
vt 0.740698 0.262638
vt 0.654204 0.133837
vt 0.631168 0.189451
vt 0.501967 0.103555
vt 0.501967 0.163752
vt 0.349730 0.133837
vt 0.372766 0.189451
vt 0.220670 0.220072
vt 0.263235 0.262638
vt 0.134435 0.349132
vt 0.190049 0.372168
vt 0.104153 0.501369
vt 0.164350 0.501369
vt 0.134435 0.653606
vt 0.190049 0.630570
vt 0.220670 0.782666
vt 0.263235 0.740101
vt 0.349730 0.868901
vt 0.372766 0.813287
vt 0.809134 0.808536
vt 0.903300 0.667607
vt 0.668205 0.100036
vt 0.501967 0.066969
vt 0.501967 0.935769
vt 0.668205 0.902702
vt 0.067567 0.501369
vt 0.100634 0.667607
vt 0.903300 0.335131
vt 0.809134 0.194202
vt 0.194800 0.194202
vt 0.100634 0.335131
vt 0.335730 0.902702
vt 0.936367 0.501369
vt 0.335730 0.100036
vt 0.194800 0.808536
vt 0.978360 0.501369
vt 0.942097 0.319062
vt 0.025574 0.501369
vt 0.061837 0.683677
vt 0.838828 0.164508
vt 0.165106 0.838230
vt 0.684275 0.061239
vt 0.319659 0.941499
vt 0.501967 0.024976
vt 0.501967 0.977762
vt 0.684275 0.941499
vt 0.319659 0.061239
vt 0.838828 0.838230
vt 0.165106 0.164508
vt 0.942097 0.683677
vt 0.061837 0.319062
vt 0.714460 0.288875
vt 0.779603 0.386368
vt 0.224331 0.386368
vt 0.289473 0.288875
vt 0.501967 0.801880
vt 0.386966 0.779006
vt 0.802479 0.501369
vt 0.779603 0.616370
vt 0.386966 0.223733
vt 0.501967 0.200857
vt 0.289473 0.713863
vt 0.224331 0.616370
vt 0.714460 0.713863
vt 0.616968 0.779006
vt 0.616968 0.223733
vt 0.201455 0.501369
vt 0.404532 0.736599
vt 0.321930 0.681406
vt 0.501967 0.246758
vt 0.599402 0.266139
vt 0.599402 0.736599
vt 0.501967 0.755980
vt 0.404532 0.266139
vt 0.682004 0.681406
vt 0.321930 0.321332
vt 0.737196 0.598804
vt 0.266737 0.403934
vt 0.756578 0.501369
vt 0.247356 0.501369
vt 0.737196 0.403934
vt 0.266737 0.598804
vt 0.682004 0.321332
vt 0.294365 0.587361
vt 0.277260 0.501369
vt 0.660859 0.342477
vt 0.709569 0.415377
vt 0.343075 0.660261
vt 0.587959 0.293767
vt 0.415975 0.708971
vt 0.501967 0.276662
vt 0.587959 0.708971
vt 0.501967 0.726076
vt 0.415975 0.293767
vt 0.660859 0.660261
vt 0.343075 0.342477
vt 0.709569 0.587361
vt 0.294365 0.415377
vt 0.726674 0.501369
s 1
f 1/1/1 3/4/4 4/3/3 2/2/2
f 3/4/4 5/6/6 6/5/5 4/3/3
f 5/6/6 7/8/8 8/7/7 6/5/5
f 7/8/8 9/10/10 10/9/9 8/7/7
f 9/10/10 11/12/12 12/11/11 10/9/9
f 11/12/12 13/14/14 14/13/13 12/11/11
f 13/14/14 15/16/16 16/15/15 14/13/13
f 15/16/16 17/18/18 18/17/17 16/15/15
f 17/18/18 19/20/20 20/19/19 18/17/17
f 19/20/20 21/22/22 22/21/21 20/19/19
f 21/22/22 23/24/24 24/23/23 22/21/21
f 23/24/24 25/26/26 26/25/25 24/23/23
f 25/26/26 27/28/28 28/27/27 26/25/25
f 27/28/28 29/30/30 30/29/29 28/27/27
f 29/30/30 31/32/32 32/31/31 30/29/29
f 31/32/32 1/1/1 2/2/2 32/31/31
f 8/7/7 36/34/34 35/33/33 6/5/5
f 18/17/17 41/36/36 40/35/35 16/15/15
f 4/3/3 34/38/38 33/37/37 2/2/2
f 28/27/27 46/40/40 45/39/39 26/25/25
f 14/13/13 39/42/42 38/41/41 12/11/11
f 24/23/23 44/44/44 43/43/43 22/21/21
f 2/2/2 33/37/37 48/45/45 32/31/31
f 10/9/9 37/46/46 36/34/34 8/7/7
f 20/19/19 42/47/47 41/36/36 18/17/17
f 30/29/29 47/48/48 46/40/40 28/27/27
f 6/5/5 35/33/33 34/38/38 4/3/3
f 16/15/15 40/35/35 39/42/42 14/13/13
f 26/25/25 45/39/39 44/44/44 24/23/23
f 12/11/11 38/41/41 37/46/46 10/9/9
f 22/21/21 43/43/43 42/47/47 20/19/19
f 32/31/31 48/45/45 47/48/48 30/29/29
f 38/41/49 54/50/49 53/49/50 37/46/50
f 46/40/51 62/52/51 61/51/52 45/39/52
f 39/42/53 55/53/53 54/50/49 38/41/49
f 47/48/54 63/54/54 62/52/51 46/40/51
f 40/35/55 56/55/55 55/53/53 39/42/53
f 48/45/56 64/56/56 63/54/54 47/48/54
f 41/36/57 57/57/57 56/55/55 40/35/55
f 34/38/58 50/59/58 49/58/59 33/37/59
f 33/37/59 49/58/59 64/56/56 48/45/56
f 42/47/60 58/60/60 57/57/57 41/36/57
f 35/33/61 51/61/61 50/59/58 34/38/58
f 43/43/62 59/62/62 58/60/60 42/47/60
f 36/34/63 52/63/63 51/61/61 35/33/61
f 44/44/64 60/64/64 59/62/62 43/43/62
f 37/46/50 53/49/50 52/63/63 36/34/63
f 45/39/52 61/51/52 60/64/64 44/44/64
f 11/12/12 70/66/66 71/65/65 13/14/14
f 21/22/22 75/68/68 76/67/67 23/24/24
f 31/32/32 80/70/70 65/69/69 1/1/1
f 7/8/8 68/72/72 69/71/71 9/10/10
f 17/18/18 73/74/74 74/73/73 19/20/20
f 27/28/28 78/76/76 79/75/75 29/30/30
f 3/4/4 66/78/78 67/77/77 5/6/6
f 13/14/14 71/65/65 72/79/79 15/16/16
f 23/24/24 76/67/67 77/80/80 25/26/26
f 9/10/10 69/71/71 70/66/66 11/12/12
f 19/20/20 74/73/73 75/68/68 21/22/22
f 29/30/30 79/75/75 80/70/70 31/32/32
f 5/6/6 67/77/77 68/72/72 7/8/8
f 15/16/16 72/79/79 73/74/74 17/18/18
f 1/1/1 65/69/69 66/78/78 3/4/4
f 25/26/26 77/80/80 78/76/76 27/28/28
f 79/75/81 95/82/81 96/81/81 80/70/81
f 72/79/81 88/84/81 89/83/81 73/74/81
f 65/69/81 81/86/81 82/85/81 66/78/81
f 80/70/81 96/81/81 81/86/81 65/69/81
f 73/74/81 89/83/81 90/87/81 74/73/81
f 66/78/81 82/85/81 83/88/81 67/77/81
f 74/73/81 90/87/81 91/89/81 75/68/81
f 67/77/81 83/88/81 84/90/81 68/72/81
f 75/68/81 91/89/81 92/91/81 76/67/81
f 68/72/81 84/90/81 85/92/81 69/71/81
f 76/67/81 92/91/81 93/93/81 77/80/81
f 69/71/81 85/92/81 86/94/81 70/66/81
f 77/80/81 93/93/81 94/95/81 78/76/81
f 70/66/81 86/94/81 87/96/81 71/65/81
f 78/76/81 94/95/81 95/82/81 79/75/81
f 71/65/81 87/96/81 88/84/81 72/79/81
f 93/93/82 109/98/82 110/97/83 94/95/83
f 86/94/84 102/100/84 103/99/85 87/96/85
f 94/95/83 110/97/83 111/101/86 95/82/86
f 87/96/85 103/99/85 104/102/87 88/84/87
f 95/82/86 111/101/86 112/103/88 96/81/88
f 88/84/87 104/102/87 105/104/89 89/83/89
f 81/86/90 97/106/90 98/105/91 82/85/91
f 96/81/88 112/103/88 97/106/90 81/86/90
f 89/83/89 105/104/89 106/107/92 90/87/92
f 82/85/91 98/105/91 99/108/93 83/88/93
f 90/87/92 106/107/92 107/109/94 91/89/94
f 83/88/93 99/108/93 100/110/95 84/90/95
f 91/89/94 107/109/94 108/111/96 92/91/96
f 84/90/95 100/110/95 101/112/97 85/92/97
f 92/91/96 108/111/96 109/98/82 93/93/82
f 85/92/97 101/112/97 102/100/84 86/94/84
