# Blender 4.1.0
# www.blender.org
o Right_Bumper
v -0.148314 0.045492 -0.092646
v -0.093818 0.044656 -0.090176
v -0.101085 -0.052175 -0.087596
v -0.069814 -0.049567 -0.086644
v -0.197086 0.055009 -0.077225
v -0.138658 -0.054779 -0.076729
v -0.247287 0.071177 -0.050907
v -0.181640 -0.059700 -0.053236
v -0.006780 0.038608 -0.080946
v 0.011936 -0.045075 -0.075230
v 0.090831 0.029730 -0.058577
v 0.098685 -0.036909 -0.052419
v 0.154462 0.017609 -0.027155
v 0.161715 -0.028769 -0.019292
v 0.213990 -0.005264 0.024400
v 0.214822 -0.021479 0.026654
v 0.242858 -0.019917 0.072793
v 0.218154 0.024292 0.053790
v 0.150138 0.049301 0.014208
v 0.078615 0.060817 -0.011696
v -0.012075 0.067902 -0.032712
v -0.099775 0.070390 -0.042957
v -0.152483 0.071622 -0.046014
v -0.198779 0.072230 -0.049427
v -0.141658 -0.065027 -0.048518
v -0.105624 -0.062837 -0.045193
v -0.075063 -0.061033 -0.041549
v 0.006991 -0.054849 -0.026764
v 0.091375 -0.045638 -0.004259
v 0.153671 -0.037034 0.020627
v 0.207782 -0.029430 0.049679
v -0.246449 0.067486 0.024743
v -0.181999 -0.061003 0.017308
v 0.234751 -0.021945 0.139454
v 0.210498 0.021456 0.126077
v 0.143724 0.046009 0.088669
v 0.073506 0.057315 0.063237
v -0.015529 0.064271 0.042605
v -0.101629 0.066714 0.032547
v -0.153374 0.067923 0.029546
v -0.198825 0.068520 0.026195
v -0.142747 -0.066232 0.024610
v -0.107371 -0.064082 0.030352
v -0.077368 -0.062311 0.033930
v 0.003189 -0.056240 0.048445
v 0.086033 -0.047197 0.070539
v 0.147192 -0.038750 0.094971
v 0.200315 -0.031284 0.122489
vn -0.1877 -0.1297 -0.9736
vn 0.0732 -0.0268 -0.9970
vn 0.0855 -0.0257 -0.9960
vn -0.0924 -0.0883 -0.9918
vn -0.3714 -0.2033 -0.9059
vn -0.4297 -0.2237 -0.8748
vn -0.4800 -0.2410 -0.8435
vn 0.1683 -0.0274 -0.9854
vn 0.1856 -0.0292 -0.9822
vn 0.3282 -0.0412 -0.9437
vn 0.3500 -0.0428 -0.9358
vn 0.5258 -0.0462 -0.8494
vn 0.5626 -0.0441 -0.8256
vn 0.7634 0.1879 -0.6180
vn 0.7668 -0.0335 -0.6410
vn 0.8662 0.2118 -0.4526
vn 0.7510 0.4420 -0.4906
vn 0.4534 0.7322 -0.5083
vn 0.4514 0.7456 -0.4903
vn 0.2679 0.8223 -0.5020
vn 0.2695 0.8218 -0.5020
vn 0.1429 0.8566 -0.4958
vn 0.1419 0.8569 -0.4956
vn 0.0685 0.8723 -0.4842
vn 0.0704 0.8719 -0.4845
vn 0.0351 0.8705 -0.4909
vn 0.0363 0.8717 -0.4888
vn 0.0131 0.8575 -0.5142
vn 0.0185 0.8601 -0.5098
vn -0.0024 0.8500 -0.5268
vn -0.1164 -0.9856 -0.1226
vn -0.0050 -0.9528 -0.3035
vn -0.0322 -0.9857 -0.1652
vn 0.0613 -0.9884 -0.1387
vn 0.0647 -0.9650 -0.2541
vn 0.0809 -0.9893 -0.1212
vn 0.0920 -0.9706 -0.2223
vn 0.1082 -0.9887 -0.1035
vn 0.1192 -0.9744 -0.1906
vn 0.1505 -0.9846 -0.0887
vn 0.1680 -0.9725 -0.1614
vn 0.1902 -0.9773 -0.0930
vn 0.2221 -0.9612 -0.1634
vn 0.2588 -0.9606 -0.1010
vn 0.2968 -0.9364 -0.1875
vn 0.2840 -0.9581 -0.0364
vn -0.0238 -0.9996 -0.0168
vn -0.1293 -0.9914 -0.0186
vn 0.0425 0.9978 0.0501
vn 0.0215 0.9986 0.0491
vn 0.0216 0.9986 0.0492
vn 0.0460 0.9977 0.0502
vn 0.1286 -0.9916 -0.0115
vn 0.0966 -0.9952 -0.0135
vn 0.3092 0.9485 0.0692
vn 0.2049 0.9769 0.0611
vn 0.2426 0.9680 0.0641
vn 0.0616 -0.9980 -0.0151
vn 0.0148 0.9987 0.0491
vn 0.0152 0.9987 0.0491
vn 0.1431 -0.9897 -0.0104
vn -0.8940 -0.4479 -0.0124
vn 0.8486 0.5165 0.1143
vn 0.0972 0.9938 0.0531
vn 0.1076 0.9927 0.0537
vn 0.0699 -0.9974 -0.0148
vn -0.0074 0.9988 0.0490
vn -0.0063 0.9988 0.0490
vn 0.2161 -0.9764 -0.0026
vn -0.0232 0.9985 0.0490
vn 0.2606 -0.9655 0.0022
vt 0.238038 0.766423
vt 0.244916 0.690836
vt 0.386293 0.683906
vt 0.376542 0.729075
vt 0.369304 0.783008
vt 0.222255 0.827848
vt 0.360888 0.848020
vt 0.210429 0.888447
vt 0.275010 0.558786
vt 0.414649 0.556772
vt 0.325648 0.408052
vt 0.430776 0.413461
vt 0.365262 0.304807
vt 0.439900 0.302989
vt 0.422981 0.196395
vt 0.448287 0.197403
vt 0.456849 0.120775
vt 0.380261 0.147771
vt 0.298600 0.251866
vt 0.232740 0.371757
vt 0.180004 0.533059
vt 0.156425 0.688353
vt 0.160694 0.776941
vt 0.181224 0.843181
vt 0.404852 0.810780
vt 0.438401 0.760241
vt 0.462272 0.709571
vt 0.502509 0.563857
vt 0.515025 0.402243
vt 0.505515 0.281090
vt 0.483601 0.179575
vt 0.531999 0.904888
vt 0.448427 0.976531
vt 0.000082 0.682526
vt 0.029433 0.476707
vt 0.667435 0.353111
vt 0.667435 0.563525
vt 0.214847 0.119056
vt 0.372762 0.002397
vt 0.585512 0.830393
vt 0.012730 0.806073
vt 0.634358 0.196189
vt 0.122408 0.999918
vt 0.501616 0.000082
vt 0.108555 0.270401
vt 0.618065 0.763257
vt 0.052384 0.907784
vt 0.572156 0.067856
s 1
f 1/1/1 2/2/2 4/3/3 3/4/4
f 1/1/1 3/4/4 6/5/5 5/6/6
f 5/6/6 6/5/5 8/7/7 7/8/7
f 4/3/3 2/2/2 9/9/8 10/10/9
f 10/10/9 9/9/8 11/11/10 12/12/11
f 12/12/11 11/11/10 13/13/12 14/14/13
f 14/14/13 13/13/12 15/15/14 16/16/15
f 16/16/15 15/15/14 17/17/16
f 18/18/17 17/17/16 15/15/14
f 15/15/14 13/13/18 18/18/17
f 18/18/17 13/13/18 19/19/19
f 20/20/20 19/19/19 13/13/18 11/11/21
f 21/21/22 20/20/20 11/11/21 9/9/23
f 22/22/24 21/21/22 9/9/23 2/2/25
f 23/23/26 22/22/24 2/2/25 1/1/27
f 24/24/28 23/23/26 1/1/27 5/6/29
f 5/6/29 7/8/30 24/24/28
f 8/7/31 6/5/32 25/25/33
f 26/26/34 25/25/33 6/5/32 3/4/35
f 27/27/36 26/26/34 3/4/35 4/3/37
f 28/28/38 27/27/36 4/3/37 10/10/39
f 29/29/40 28/28/38 10/10/39 12/12/41
f 30/30/42 29/29/40 12/12/41 14/14/43
f 31/31/44 30/30/42 14/14/43 16/16/45
f 16/16/45 17/17/46 31/31/44
f 8/7/31 25/25/33 42/32/47 33/33/48
f 21/21/49 22/22/50 39/34/51 38/35/52
f 28/28/38 29/29/40 46/36/53 45/37/54
f 18/18/55 19/19/56 36/38/57 35/39/55
f 25/25/33 26/26/34 43/40/58 42/32/47
f 22/22/50 23/23/59 40/41/60 39/34/51
f 29/29/40 30/30/42 47/42/61 46/36/53
f 7/8/62 8/7/62 33/33/62 32/43/62
f 17/17/63 18/18/63 35/39/63 34/44/63
f 19/19/56 20/20/64 37/45/65 36/38/57
f 26/26/34 27/27/36 44/46/66 43/40/58
f 23/23/59 24/24/67 41/47/68 40/41/60
f 30/30/42 31/31/44 48/48/69 47/42/61
f 24/24/67 7/8/70 32/43/70 41/47/68
f 31/31/44 17/17/46 34/44/71 48/48/69
f 20/20/64 21/21/49 38/35/52 37/45/65
f 27/27/36 28/28/38 45/37/54 44/46/66
