# Blender 4.1.0
# www.blender.org
o Start_Butto
v 0.260090 0.287343 -0.483867
v 0.260090 0.281377 -0.488056
v 0.274724 0.287517 -0.480961
v 0.276461 0.281572 -0.484805
v 0.287131 0.288014 -0.472686
v 0.290341 0.282128 -0.475548
v 0.295421 0.288758 -0.460302
v 0.299614 0.282960 -0.461694
v 0.298331 0.289635 -0.445694
v 0.302871 0.283941 -0.445352
v 0.295421 0.290512 -0.431086
v 0.299614 0.284923 -0.429010
v 0.287131 0.291256 -0.418702
v 0.290341 0.285755 -0.415156
v 0.274724 0.291753 -0.410427
v 0.276461 0.286311 -0.405899
v 0.260090 0.291927 -0.407521
v 0.260090 0.286506 -0.402648
v 0.245456 0.291753 -0.410427
v 0.243719 0.286311 -0.405899
v 0.233049 0.291256 -0.418702
v 0.229839 0.285755 -0.415156
v 0.224759 0.290512 -0.431086
v 0.220566 0.284923 -0.429010
v 0.221849 0.289635 -0.445694
v 0.217309 0.283941 -0.445352
v 0.224759 0.288758 -0.460302
v 0.220566 0.282960 -0.461694
v 0.233049 0.288014 -0.472686
v 0.229839 0.282128 -0.475548
v 0.245456 0.287517 -0.480961
v 0.243719 0.281572 -0.484805
v 0.260090 0.291305 -0.471983
v 0.270094 0.291424 -0.469997
v 0.278575 0.291764 -0.464340
v 0.284242 0.292272 -0.455875
v 0.286232 0.292872 -0.445888
v 0.284242 0.293472 -0.435902
v 0.278575 0.293980 -0.427436
v 0.270094 0.294320 -0.421780
v 0.260090 0.294439 -0.419793
v 0.250086 0.294320 -0.421780
v 0.241605 0.293980 -0.427436
v 0.235938 0.293472 -0.435902
v 0.233948 0.292872 -0.445888
v 0.235938 0.292272 -0.455875
v 0.241605 0.291764 -0.464340
v 0.250086 0.291424 -0.469997
v 0.260090 0.294640 -0.445994
v 0.260090 0.274961 -0.487671
v 0.276461 0.275156 -0.484420
v 0.290341 0.275712 -0.475163
v 0.299614 0.276544 -0.461309
v 0.302871 0.277525 -0.444967
v 0.299614 0.278506 -0.428625
v 0.290341 0.279338 -0.414771
v 0.276461 0.279894 -0.405514
v 0.260090 0.280089 -0.402263
v 0.243719 0.279894 -0.405514
v 0.229839 0.279338 -0.414771
v 0.220566 0.278506 -0.428625
v 0.217309 0.277525 -0.444967
v 0.220566 0.276544 -0.461309
v 0.229839 0.275712 -0.475163
v 0.243719 0.275156 -0.484420
vn -0.0000 0.8813 -0.4726
vn -0.0000 0.3110 -0.9504
vn 0.1603 0.8832 -0.4407
vn 0.3559 0.3152 -0.8797
vn 0.2962 0.8887 -0.3501
vn 0.6577 0.3273 -0.6785
vn 0.3870 0.8968 -0.2144
vn 0.8593 0.3454 -0.3773
vn 0.4189 0.9064 -0.0544
vn 0.9301 0.3667 -0.0220
vn 0.3870 0.9160 0.1056
vn 0.8593 0.3881 0.3333
vn 0.2962 0.9242 0.2412
vn 0.6577 0.4061 0.6345
vn 0.1603 0.9296 0.3319
vn 0.3559 0.4182 0.8357
vn -0.0000 0.9315 0.3637
vn -0.0000 0.4225 0.9064
vn -0.1603 0.9296 0.3319
vn -0.3559 0.4182 0.8357
vn -0.2962 0.9242 0.2412
vn -0.6577 0.4061 0.6345
vn -0.3870 0.9160 0.1056
vn -0.8593 0.3881 0.3333
vn -0.4189 0.9064 -0.0544
vn -0.9301 0.3667 -0.0220
vn -0.3870 0.8968 -0.2144
vn -0.8593 0.3454 -0.3773
vn -0.2962 0.8886 -0.3501
vn -0.6577 0.3273 -0.6785
vn -0.1603 0.8832 -0.4407
vn -0.3559 0.3152 -0.8797
vn -0.0000 0.9810 -0.1939
vn 0.0516 0.9816 -0.1837
vn 0.0953 0.9834 -0.1545
vn 0.1245 0.9860 -0.1109
vn 0.1348 0.9891 -0.0594
vn 0.1245 0.9922 -0.0079
vn 0.0953 0.9948 0.0357
vn 0.0516 0.9966 0.0649
vn -0.0000 0.9972 0.0751
vn -0.0516 0.9966 0.0649
vn -0.0953 0.9948 0.0357
vn -0.1245 0.9922 -0.0079
vn -0.1348 0.9891 -0.0594
vn -0.1245 0.9860 -0.1109
vn -0.0953 0.9834 -0.1545
vn -0.0516 0.9816 -0.1837
vn -0.0000 0.9982 -0.0599
vn -0.0000 -0.0599 -0.9982
vn 0.3827 -0.0554 -0.9222
vn 0.7071 -0.0424 -0.7058
vn 0.9239 -0.0229 -0.3820
vn 1.0000 -0.0000 -0.0000
vn 0.9239 0.0229 0.3820
vn 0.7071 0.0424 0.7058
vn 0.3827 0.0554 0.9222
vn -0.0000 0.0599 0.9982
vn -0.3827 0.0554 0.9222
vn -0.7071 0.0424 0.7058
vn -0.9239 0.0229 0.3820
vn -1.0000 -0.0000 -0.0000
vn -0.9239 -0.0229 -0.3820
vn -0.7071 -0.0424 -0.7058
vn -0.3827 -0.0554 -0.9222
vt 0.531918 0.728963
vt 0.531918 0.753846
vt 0.629159 0.734538
vt 0.618841 0.711704
vt 0.711597 0.679554
vt 0.692532 0.662554
vt 0.766681 0.597264
vt 0.741771 0.588996
vt 0.786023 0.500197
vt 0.759062 0.502228
vt 0.766681 0.403129
vt 0.741771 0.415460
vt 0.711597 0.320840
vt 0.692532 0.341901
vt 0.629159 0.265856
vt 0.618841 0.292752
vt 0.531918 0.246548
vt 0.531918 0.275492
vt 0.434675 0.265856
vt 0.444993 0.292752
vt 0.352237 0.320840
vt 0.371302 0.341901
vt 0.297154 0.403129
vt 0.322064 0.415460
vt 0.277811 0.500197
vt 0.304773 0.502228
vt 0.297154 0.597264
vt 0.322064 0.588996
vt 0.352237 0.679554
vt 0.371302 0.662554
vt 0.434675 0.734538
vt 0.444993 0.711704
vt 0.591340 0.360183
vt 0.641715 0.393783
vt 0.376641 0.503382
vt 0.388460 0.444067
vt 0.675374 0.444067
vt 0.687194 0.503382
vt 0.422120 0.393782
vt 0.472496 0.360183
vt 0.472496 0.646581
vt 0.422120 0.612982
vt 0.675374 0.562697
vt 0.641715 0.612982
vt 0.531918 0.348384
vt 0.591340 0.646581
vt 0.531918 0.658380
vt 0.388460 0.562697
vt 0.531918 0.504013
vt 0.651375 0.785788
vt 0.752648 0.718242
vt 0.752648 0.277574
vt 0.651375 0.210028
vt 0.243519 0.378664
vt 0.219757 0.497908
vt 0.844078 0.497908
vt 0.820316 0.378664
vt 0.412459 0.210028
vt 0.311187 0.277574
vt 0.311187 0.718242
vt 0.412459 0.785788
vt 0.820316 0.617152
vt 0.531918 0.186310
vt 0.531918 0.809507
vt 0.243519 0.617152
s 1
f 1/1/1 3/4/3 4/3/4 2/2/2
f 3/4/3 5/6/5 6/5/6 4/3/4
f 5/6/5 7/8/7 8/7/8 6/5/6
f 7/8/7 9/10/9 10/9/10 8/7/8
f 9/10/9 11/12/11 12/11/12 10/9/10
f 11/12/11 13/14/13 14/13/14 12/11/12
f 13/14/13 15/16/15 16/15/16 14/13/14
f 15/16/15 17/18/17 18/17/18 16/15/16
f 17/18/17 19/20/19 20/19/20 18/17/18
f 19/20/19 21/22/21 22/21/22 20/19/20
f 21/22/21 23/24/23 24/23/24 22/21/22
f 23/24/23 25/26/25 26/25/26 24/23/24
f 25/26/25 27/28/27 28/27/28 26/25/26
f 27/28/27 29/30/29 30/29/30 28/27/28
f 29/30/29 31/32/31 32/31/32 30/29/30
f 31/32/31 1/1/1 2/2/2 32/31/32
f 13/14/13 39/34/39 40/33/40 15/16/15
f 23/24/23 44/36/44 45/35/45 25/26/25
f 9/10/9 37/38/37 38/37/38 11/12/11
f 19/20/19 42/40/42 43/39/43 21/22/21
f 29/30/29 47/42/47 48/41/48 31/32/31
f 5/6/5 35/44/35 36/43/36 7/8/7
f 15/16/15 40/33/40 41/45/41 17/18/17
f 1/1/1 33/47/33 34/46/34 3/4/3
f 25/26/25 45/35/45 46/48/46 27/28/27
f 11/12/11 38/37/38 39/34/39 13/14/13
f 21/22/21 43/39/43 44/36/44 23/24/23
f 31/32/31 48/41/48 33/47/33 1/1/1
f 7/8/7 36/43/36 37/38/37 9/10/9
f 17/18/17 41/45/41 42/40/42 19/20/19
f 27/28/27 46/48/46 47/42/47 29/30/29
f 3/4/3 34/46/34 35/44/35 5/6/5
f 41/45/41 49/49/49 42/40/42
f 34/46/34 49/49/49 35/44/35
f 42/40/42 49/49/49 43/39/43
f 35/44/35 49/49/49 36/43/36
f 43/39/43 49/49/49 44/36/44
f 36/43/36 49/49/49 37/38/37
f 44/36/44 49/49/49 45/35/45
f 37/38/37 49/49/49 38/37/38
f 45/35/45 49/49/49 46/48/46
f 38/37/38 49/49/49 39/34/39
f 46/48/46 49/49/49 47/42/47
f 39/34/39 49/49/49 40/33/40
f 47/42/47 49/49/49 48/41/48
f 40/33/40 49/49/49 41/45/41
f 33/47/33 49/49/49 34/46/34
f 48/41/48 49/49/49 33/47/33
f 6/5/6 52/51/52 51/50/51 4/3/4
f 16/15/16 57/53/57 56/52/56 14/13/14
f 26/25/26 62/55/62 61/54/61 24/23/24
f 12/11/12 55/57/55 54/56/54 10/9/10
f 22/21/22 60/59/60 59/58/59 20/19/20
f 32/31/32 65/61/65 64/60/64 30/29/30
f 8/7/8 53/62/53 52/51/52 6/5/6
f 18/17/18 58/63/58 57/53/57 16/15/16
f 4/3/4 51/50/51 50/64/50 2/2/2
f 28/27/28 63/65/63 62/55/62 26/25/26
f 14/13/14 56/52/56 55/57/55 12/11/12
f 24/23/24 61/54/61 60/59/60 22/21/22
f 2/2/2 50/64/50 65/61/65 32/31/32
f 10/9/10 54/56/54 53/62/53 8/7/8
f 20/19/20 59/58/59 58/63/58 18/17/18
f 30/29/30 64/60/64 63/65/63 28/27/28
