# Blender 4.1.0
# www.blender.org
o Right_Ring
v 0.000001 0.192961 -0.082261
v 0.031481 0.192961 -0.075999
v 0.058168 0.192961 -0.058167
v 0.076000 0.192961 -0.031480
v 0.082262 0.192961 -0.000000
v 0.076000 0.192961 0.031480
v 0.058168 0.192961 0.058167
v 0.031481 0.192961 0.075999
v 0.000001 0.192961 0.082261
v -0.031479 0.192961 0.075999
v -0.058166 0.192961 0.058167
v -0.075998 0.192961 0.031480
v -0.082260 0.192961 -0.000000
v -0.075998 0.192961 -0.031480
v -0.058166 0.192961 -0.058167
v -0.031479 0.192961 -0.075999
v 0.029973 0.209220 -0.072360
v 0.000001 0.209220 -0.078322
v 0.055383 0.209220 -0.055382
v 0.072361 0.209220 -0.029973
v 0.078323 0.209220 -0.000000
v 0.072361 0.209220 0.029972
v 0.055383 0.209220 0.055382
v 0.029973 0.209220 0.072360
v 0.000001 0.209220 0.078322
v -0.029972 0.209220 0.072360
v -0.055381 0.209220 0.055382
v -0.072359 0.209220 0.029972
v -0.078321 0.209220 -0.000000
v -0.072359 0.209220 -0.029973
v -0.055381 0.209220 -0.055382
v -0.029972 0.209220 -0.072360
v 0.026367 0.225193 -0.063653
v 0.000001 0.225193 -0.068898
v 0.048719 0.225193 -0.048718
v 0.063654 0.225193 -0.026366
v 0.068898 0.225193 -0.000000
v 0.063654 0.225193 0.026366
v 0.048719 0.225193 0.048718
v 0.026367 0.225193 0.063653
v 0.000001 0.225193 0.068897
v -0.026365 0.225193 0.063653
v -0.048717 0.225193 0.048718
v -0.063652 0.225193 0.026366
v -0.068897 0.225193 -0.000000
v -0.063652 0.225193 -0.026366
v -0.048717 0.225193 -0.048718
v -0.026365 0.225193 -0.063653
v 0.020538 0.231541 -0.049580
v 0.000001 0.231541 -0.053665
v 0.037948 0.231541 -0.037947
v 0.049581 0.231541 -0.020537
v 0.053666 0.231541 -0.000000
v 0.049581 0.231541 0.020536
v 0.037948 0.231541 0.037947
v 0.020538 0.231541 0.049580
v 0.000001 0.231541 0.053665
v -0.020536 0.231541 0.049580
v -0.037946 0.231541 0.037947
v -0.049579 0.231541 0.020536
v -0.053664 0.231541 -0.000000
v -0.049579 0.231541 -0.020537
v -0.037946 0.231541 -0.037947
v -0.020536 0.231541 -0.049580
vn -0.0000 0.2354 -0.9719
vn 0.3719 0.2354 -0.8979
vn 0.6872 0.2354 -0.6872
vn 0.8979 0.2354 -0.3719
vn 0.9719 0.2354 -0.0000
vn 0.8979 0.2354 0.3719
vn 0.6872 0.2354 0.6872
vn 0.3719 0.2354 0.8979
vn -0.0000 0.2354 0.9719
vn -0.3719 0.2354 0.8979
vn -0.6872 0.2354 0.6872
vn -0.8979 0.2354 0.3719
vn -0.9719 0.2354 -0.0000
vn -0.8979 0.2354 -0.3719
vn -0.6872 0.2354 -0.6872
vn -0.3719 0.2354 -0.8979
vn 0.3556 0.3697 -0.8584
vn -0.0000 0.3697 -0.9292
vn 0.6570 0.3697 -0.6570
vn 0.8584 0.3697 -0.3556
vn 0.9292 0.3697 -0.0000
vn 0.8584 0.3697 0.3556
vn 0.6570 0.3697 0.6570
vn 0.3556 0.3697 0.8584
vn -0.0000 0.3697 0.9292
vn -0.3556 0.3697 0.8584
vn -0.6570 0.3697 0.6570
vn -0.8584 0.3697 0.3556
vn -0.9292 0.3697 -0.0000
vn -0.8584 0.3697 -0.3556
vn -0.6570 0.3697 -0.6570
vn -0.3556 0.3697 -0.8584
vn 0.2594 0.7352 -0.6263
vn -0.0000 0.7352 -0.6779
vn 0.4793 0.7352 -0.4793
vn 0.6263 0.7352 -0.2594
vn 0.6779 0.7352 -0.0000
vn 0.6263 0.7352 0.2594
vn 0.4793 0.7352 0.4793
vn 0.2594 0.7352 0.6263
vn -0.0000 0.7352 0.6779
vn -0.2594 0.7352 0.6263
vn -0.4793 0.7352 0.4793
vn -0.6263 0.7352 0.2594
vn -0.6779 0.7352 -0.0000
vn -0.6263 0.7352 -0.2594
vn -0.4793 0.7352 -0.4793
vn -0.2594 0.7352 -0.6263
vn 0.1472 0.9230 -0.3554
vn -0.0000 0.9230 -0.3847
vn 0.2720 0.9230 -0.2720
vn 0.3554 0.9230 -0.1472
vn 0.3847 0.9230 -0.0000
vn 0.3554 0.9230 0.1472
vn 0.2720 0.9230 0.2720
vn 0.1472 0.9230 0.3554
vn -0.0000 0.9230 0.3847
vn -0.1472 0.9230 0.3554
vn -0.2720 0.9230 0.2720
vn -0.3554 0.9230 0.1472
vn -0.3847 0.9230 -0.0000
vn -0.3554 0.9230 -0.1472
vn -0.2720 0.9230 -0.2720
vn -0.1472 0.9230 -0.3554
vt 0.248810 0.448985
vt 0.286940 0.356088
vt 0.328333 0.383290
vt 0.296979 0.458175
vt 0.296547 0.538332
vt 0.342887 0.466982
vt 0.341624 0.529705
vt 0.548587 0.750701
vt 0.448188 0.750195
vt 0.457583 0.701861
vt 0.538569 0.702485
vt 0.714926 0.359073
vt 0.749229 0.452304
vt 0.702762 0.460658
vt 0.672433 0.386622
vt 0.358847 0.284395
vt 0.452221 0.249376
vt 0.460835 0.296089
vt 0.386602 0.326948
vt 0.355881 0.711290
vt 0.285962 0.639798
vt 0.326514 0.612555
vt 0.383087 0.670411
vt 0.748867 0.549783
vt 0.711480 0.641192
vt 0.670649 0.614614
vt 0.701552 0.540686
vt 0.550613 0.249299
vt 0.643409 0.287168
vt 0.616285 0.328466
vt 0.541464 0.297162
vt 0.248810 0.548081
vt 0.641371 0.712065
vt 0.613624 0.671531
vt 0.587067 0.632939
vt 0.529370 0.655820
vt 0.522524 0.618770
vt 0.566574 0.600928
vt 0.656000 0.532187
vt 0.656872 0.469925
vt 0.365824 0.587507
vt 0.634236 0.411569
vt 0.589773 0.367838
vt 0.409850 0.631235
vt 0.532771 0.343175
vt 0.466937 0.656474
vt 0.470284 0.342128
vt 0.411810 0.365360
vt 0.367761 0.409951
vt 0.631573 0.589349
vt 0.433280 0.397459
vt 0.399110 0.430880
vt 0.600437 0.567638
vt 0.380281 0.474614
vt 0.619014 0.524030
vt 0.379765 0.522447
vt 0.619536 0.476752
vt 0.397745 0.566732
vt 0.602053 0.432637
vt 0.568441 0.398721
vt 0.431285 0.600320
vt 0.524942 0.380161
vt 0.475018 0.618871
vt 0.477605 0.379596
s 1
f 7/1/7 6/2/6 22/3/22 23/4/23
f 24/5/24 23/4/23 39/6/39 40/7/40
f 12/8/12 11/9/11 27/10/27 28/11/28
f 1/12/1 16/13/16 32/14/32 18/15/18
f 5/16/5 4/17/4 20/18/20 21/19/21
f 10/20/10 9/21/9 25/22/25 26/23/26
f 15/24/15 14/25/14 30/26/30 31/27/31
f 3/28/3 2/29/2 17/30/17 19/31/19
f 8/32/8 7/1/7 23/4/23 24/5/24
f 13/33/13 12/8/12 28/11/28 29/34/29
f 6/2/6 5/16/5 21/19/21 22/3/22
f 11/9/11 10/20/10 26/23/26 27/10/27
f 16/13/16 15/24/15 31/27/31 32/14/32
f 4/17/4 3/28/3 19/31/19 20/18/20
f 9/21/9 8/32/8 24/5/24 25/22/25
f 2/29/2 1/12/1 18/15/18 17/30/17
f 14/25/14 13/33/13 29/34/29 30/26/30
f 45/35/45 44/36/44 60/37/60 61/38/61
f 32/14/32 31/27/31 47/39/47 48/40/48
f 25/22/25 24/5/24 40/7/40 41/41/41
f 17/30/17 18/15/18 34/42/34 33/43/33
f 18/15/18 32/14/32 48/40/48 34/42/34
f 26/23/26 25/22/25 41/41/41 42/44/42
f 19/31/19 17/30/17 33/43/33 35/45/35
f 27/10/27 26/23/26 42/44/42 43/46/43
f 20/18/20 19/31/19 35/45/35 36/47/36
f 28/11/28 27/10/27 43/46/43 44/36/44
f 21/19/21 20/18/20 36/47/36 37/48/37
f 29/34/29 28/11/28 44/36/44 45/35/45
f 22/3/22 21/19/21 37/48/37 38/49/38
f 30/26/30 29/34/29 45/35/45 46/50/46
f 23/4/23 22/3/22 38/49/38 39/6/39
f 31/27/31 30/26/30 46/50/46 47/39/47
f 38/49/38 37/48/37 53/51/53 54/52/54
f 46/50/46 45/35/45 61/38/61 62/53/62
f 39/6/39 38/49/38 54/52/54 55/54/55
f 47/39/47 46/50/46 62/53/62 63/55/63
f 40/7/40 39/6/39 55/54/55 56/56/56
f 48/40/48 47/39/47 63/55/63 64/57/64
f 41/41/41 40/7/40 56/56/56 57/58/57
f 33/43/33 34/42/34 50/59/50 49/60/49
f 34/42/34 48/40/48 64/57/64 50/59/50
f 42/44/42 41/41/41 57/58/57 58/61/58
f 35/45/35 33/43/33 49/60/49 51/62/51
f 43/46/43 42/44/42 58/61/58 59/63/59
f 36/47/36 35/45/35 51/62/51 52/64/52
f 44/36/44 43/46/43 59/63/59 60/37/60
f 37/48/37 36/47/36 52/64/52 53/51/53
