# Blender 4.1.0
# www.blender.org
o Circle_Button
v 0.789500 0.226083 -0.230399
v 0.789498 0.230126 -0.225663
v 0.815347 0.226083 -0.225245
v 0.813533 0.230126 -0.220871
v 0.837255 0.226083 -0.210592
v 0.833905 0.230126 -0.207245
v 0.851887 0.226083 -0.188671
v 0.847512 0.230126 -0.186861
v 0.857017 0.226083 -0.162819
v 0.852282 0.230126 -0.162821
v 0.851863 0.226083 -0.136972
v 0.847489 0.230126 -0.138786
v 0.837210 0.226083 -0.115065
v 0.833864 0.230126 -0.118415
v 0.815290 0.226083 -0.100432
v 0.813480 0.230126 -0.104808
v 0.789438 0.226083 -0.095303
v 0.789440 0.230126 -0.100038
v 0.763591 0.226083 -0.100456
v 0.765405 0.230126 -0.104830
v 0.741683 0.226083 -0.115109
v 0.745033 0.230126 -0.118456
v 0.727051 0.226083 -0.137030
v 0.731426 0.230126 -0.138840
v 0.721921 0.226083 -0.162882
v 0.726656 0.230126 -0.162880
v 0.727075 0.226083 -0.188729
v 0.731449 0.230126 -0.186915
v 0.741728 0.226083 -0.210636
v 0.745074 0.230126 -0.207287
v 0.763648 0.226083 -0.225269
v 0.765458 0.230126 -0.220893
v 0.809170 0.232887 -0.213869
v 0.788961 0.232887 -0.217899
v 0.826300 0.232887 -0.202413
v 0.837740 0.232887 -0.185273
v 0.841751 0.232887 -0.165060
v 0.837722 0.232887 -0.144850
v 0.826265 0.232887 -0.127721
v 0.809125 0.232887 -0.116280
v 0.788912 0.232887 -0.112269
v 0.768702 0.232887 -0.116299
v 0.751573 0.232887 -0.127756
v 0.740132 0.232887 -0.144895
v 0.736121 0.232887 -0.165109
v 0.740151 0.232887 -0.185318
v 0.751608 0.232887 -0.202447
v 0.768748 0.232887 -0.213888
v 0.801915 0.234771 -0.199308
v 0.788509 0.234771 -0.201982
v 0.813278 0.234771 -0.191708
v 0.820868 0.234771 -0.180338
v 0.823529 0.234771 -0.166929
v 0.820856 0.234771 -0.153522
v 0.813256 0.234771 -0.142159
v 0.801885 0.234771 -0.134570
v 0.788476 0.234771 -0.131909
v 0.775070 0.234771 -0.134582
v 0.763707 0.234771 -0.142182
v 0.756117 0.234771 -0.153552
v 0.753456 0.234771 -0.166962
v 0.756129 0.234771 -0.180368
v 0.763729 0.234771 -0.191731
v 0.775100 0.234771 -0.199321
v 0.788492 0.235432 -0.166945
v 0.789500 0.200375 -0.230399
v 0.815347 0.200375 -0.225245
v 0.837255 0.200375 -0.210592
v 0.851887 0.200375 -0.188671
v 0.857017 0.200375 -0.162819
v 0.851863 0.200375 -0.136972
v 0.837210 0.200375 -0.115065
v 0.815290 0.200375 -0.100432
v 0.789438 0.200375 -0.095303
v 0.763591 0.200375 -0.100456
v 0.741683 0.200375 -0.115109
v 0.727051 0.200375 -0.137030
v 0.721921 0.200375 -0.162882
v 0.727075 0.200375 -0.188729
v 0.741728 0.200375 -0.210636
v 0.763648 0.200375 -0.225269
vn 0.0004 0.4943 -0.8693
vn 0.0010 0.8856 -0.4644
vn 0.1757 0.8910 -0.4186
vn 0.3330 0.4943 -0.8030
vn 0.3111 0.8994 -0.3071
vn 0.6150 0.4943 -0.6144
vn 0.3874 0.9084 -0.1573
vn 0.8033 0.4943 -0.3323
vn 0.4004 0.9163 0.0026
vn 0.8693 0.4943 0.0004
vn 0.3562 0.9223 0.1498
vn 0.8030 0.4943 0.3330
vn 0.2656 0.9263 0.2674
vn 0.6144 0.4943 0.6150
vn 0.1420 0.9281 0.3442
vn 0.3323 0.4943 0.8033
vn 0.0003 0.9279 0.3728
vn -0.0004 0.4943 0.8693
vn -0.1438 0.9257 0.3500
vn -0.3330 0.4943 0.8030
vn -0.2736 0.9213 0.2762
vn -0.6150 0.4943 0.6144
vn -0.3720 0.9149 0.1567
vn -0.8033 0.4943 0.3323
vn -0.4218 0.9067 0.0026
vn -0.8693 0.4943 -0.0004
vn -0.4080 0.8977 -0.1665
vn -0.8030 0.4943 -0.3330
vn -0.3240 0.8897 -0.3218
vn -0.6144 0.4943 -0.6150
vn 0.1125 0.9874 0.1115
vn 0.0596 0.9879 0.1435
vn -0.1784 0.8851 -0.4299
vn -0.3323 0.4943 -0.8033
vn -0.1184 0.9861 0.1164
vn -0.0618 0.9872 0.1468
vn -0.0237 0.9981 0.0560
vn -0.0445 0.9981 0.0436
vn -0.1625 0.9845 0.0654
vn -0.1861 0.9825 -0.0019
vn 0.1733 0.9849 -0.0015
vn 0.1524 0.9864 0.0618
vn -0.1447 0.9786 -0.1464
vn -0.0802 0.9776 -0.1947
vn 0.1367 0.9808 -0.1389
vn 0.1693 0.9829 -0.0719
vn -0.0004 0.9878 0.1557
vn -0.0004 0.9777 -0.2101
vn 0.0772 0.9789 -0.1892
vn -0.1813 0.9804 -0.0769
vn -0.0270 0.9975 -0.0656
vn -0.0491 0.9975 -0.0499
vn -0.0000 1.0000 -0.0000
vn 0.0476 0.9977 -0.0486
vn 0.0606 0.9978 -0.0259
vn -0.0596 0.9979 0.0238
vn 0.0638 0.9980 -0.0007
vn -0.0663 0.9978 -0.0008
vn 0.0574 0.9981 0.0232
vn -0.0629 0.9977 -0.0269
vn 0.0431 0.9982 0.0426
vn 0.0230 0.9982 0.0554
vn -0.0002 0.9982 0.0601
vn -0.0002 0.9975 -0.0708
vn 0.0262 0.9976 -0.0646
vn 0.3831 -0.0000 -0.9237
vn 0.0005 -0.0000 -1.0000
vn -0.9237 -0.0000 -0.3831
vn -1.0000 -0.0000 -0.0005
vn 0.7068 -0.0000 0.7074
vn 0.9237 -0.0000 0.3831
vn -0.9241 -0.0000 0.3823
vn -0.7074 -0.0000 0.7068
vn -0.3823 -0.0000 -0.9241
vn 1.0000 -0.0000 0.0005
vn 0.9241 -0.0000 -0.3823
vn -0.3831 -0.0000 0.9237
vn -0.0005 -0.0000 1.0000
vn -0.7068 -0.0000 -0.7074
vn 0.7074 -0.0000 -0.7068
vn 0.3823 -0.0000 0.9241
vt 0.609879 0.634269
vt 0.583849 0.611713
vt 0.622601 0.569316
vt 0.653632 0.579412
vt 0.642442 0.515934
vt 0.672800 0.514465
vt 0.639606 0.459301
vt 0.668979 0.447184
vt 0.615719 0.408360
vt 0.639231 0.384384
vt 0.575539 0.368835
vt 0.586200 0.340707
vt 0.522686 0.348882
vt 0.523267 0.318146
vt 0.466571 0.349653
vt 0.455468 0.320329
vt 0.414611 0.372028
vt 0.392295 0.348419
vt 0.375197 0.413236
vt 0.343189 0.400022
vt 0.352820 0.466212
vt 0.321184 0.467230
vt 0.354934 0.523691
vt 0.323651 0.537372
vt 0.376747 0.576793
vt 0.355381 0.599666
vt 0.418589 0.616615
vt 0.405767 0.646747
vt 0.472550 0.637703
vt 0.472044 0.671986
vt 0.518738 0.388078
vt 0.475612 0.388310
vt 0.530831 0.635478
vt 0.545511 0.669242
vt 0.390746 0.477871
vt 0.406276 0.437502
vt 0.441678 0.462767
vt 0.432068 0.488386
vt 0.392357 0.520960
vt 0.409994 0.560063
vt 0.588780 0.433866
vt 0.558448 0.404006
vt 0.481369 0.603750
vt 0.523607 0.601474
vt 0.606743 0.514903
vt 0.605753 0.472688
vt 0.436035 0.406001
vt 0.562362 0.584774
vt 0.591473 0.554207
vt 0.441379 0.589088
vt 0.516019 0.566344
vt 0.489440 0.567579
vt 0.500751 0.499733
vt 0.568648 0.511777
vt 0.568226 0.485001
vt 0.433093 0.515600
vt 0.557591 0.460269
vt 0.444436 0.540202
vt 0.538257 0.441350
vt 0.464263 0.558430
vt 0.513006 0.431212
vt 0.485583 0.431513
vt 0.460476 0.442756
vt 0.540383 0.555759
vt 0.558863 0.536594
vt 0.937783 0.531366
vt 0.875283 0.531366
vt 0.875283 0.468634
vt 0.937783 0.468634
vt 0.187783 0.531366
vt 0.125283 0.531366
vt 0.125283 0.468634
vt 0.187783 0.468634
vt 0.625283 0.531366
vt 0.562783 0.531366
vt 0.562783 0.468634
vt 0.625283 0.468634
vt 0.312783 0.531366
vt 0.250283 0.531366
vt 0.250283 0.468634
vt 0.312783 0.468634
vt 1.000283 0.531366
vt 1.000283 0.468634
vt 0.750283 0.531366
vt 0.687783 0.531366
vt 0.687783 0.468634
vt 0.750283 0.468634
vt 0.437783 0.531366
vt 0.375283 0.531366
vt 0.375283 0.468634
vt 0.437783 0.468634
vt 0.062783 0.531366
vt 0.062783 0.468634
vt 0.812783 0.531366
vt 0.812783 0.468634
vt 0.500283 0.531366
vt 0.500283 0.468634
vt 0.000283 0.531366
vt 0.000283 0.468634
s 1
f 1/1/1 2/2/2 4/3/3 3/4/4
f 3/4/4 4/3/3 6/5/5 5/6/6
f 5/6/6 6/5/5 8/7/7 7/8/8
f 7/8/8 8/7/7 10/9/9 9/10/10
f 9/10/10 10/9/9 12/11/11 11/12/12
f 11/12/12 12/11/11 14/13/13 13/14/14
f 13/14/14 14/13/13 16/15/15 15/16/16
f 15/16/16 16/15/15 18/17/17 17/18/18
f 17/18/18 18/17/17 20/19/19 19/20/20
f 19/20/20 20/19/19 22/21/21 21/22/22
f 21/22/22 22/21/21 24/23/23 23/24/24
f 23/24/24 24/23/23 26/25/25 25/26/26
f 25/26/26 26/25/25 28/27/27 27/28/28
f 27/28/28 28/27/27 30/29/29 29/30/30
f 16/15/15 14/13/13 39/31/31 40/32/32
f 29/30/30 30/29/29 32/33/33 31/34/34
f 31/34/34 32/33/33 2/2/2 1/1/1
f 43/35/35 42/36/36 58/37/37 59/38/38
f 26/25/25 24/23/23 44/39/39 45/40/40
f 12/11/11 10/9/9 37/41/41 38/42/42
f 22/21/21 20/19/19 42/36/36 43/35/35
f 32/33/33 30/29/29 47/43/43 48/44/44
f 8/7/7 6/5/5 35/45/45 36/46/46
f 18/17/17 16/15/15 40/32/32 41/47/47
f 4/3/3 2/2/2 34/48/48 33/49/49
f 28/27/27 26/25/25 45/40/40 46/50/50
f 14/13/13 12/11/11 38/42/42 39/31/31
f 24/23/23 22/21/21 43/35/35 44/39/39
f 2/2/2 32/33/33 48/44/44 34/48/48
f 10/9/9 8/7/7 36/46/46 37/41/41
f 20/19/19 18/17/17 41/47/47 42/36/36
f 30/29/29 28/27/27 46/50/50 47/43/43
f 6/5/5 4/3/3 33/49/49 35/45/45
f 64/51/51 63/52/52 65/53/53
f 36/46/46 35/45/45 51/54/54 52/55/55
f 44/39/39 43/35/35 59/38/38 60/56/56
f 37/41/41 36/46/46 52/55/55 53/57/57
f 45/40/40 44/39/39 60/56/56 61/58/58
f 38/42/42 37/41/41 53/57/57 54/59/59
f 46/50/50 45/40/40 61/58/58 62/60/60
f 39/31/31 38/42/42 54/59/59 55/61/61
f 47/43/43 46/50/50 62/60/60 63/52/52
f 40/32/32 39/31/31 55/61/61 56/62/62
f 48/44/44 47/43/43 63/52/52 64/51/51
f 41/47/47 40/32/32 56/62/62 57/63/63
f 33/49/49 34/48/48 50/64/64 49/65/65
f 34/48/48 48/44/44 64/51/51 50/64/64
f 42/36/36 41/47/47 57/63/63 58/37/37
f 35/45/45 33/49/49 49/65/65 51/54/54
f 57/63/63 56/62/62 65/53/53
f 49/65/65 50/64/64 65/53/53
f 50/64/64 64/51/51 65/53/53
f 58/37/37 57/63/63 65/53/53
f 51/54/54 49/65/65 65/53/53
f 59/38/38 58/37/37 65/53/53
f 52/55/55 51/54/54 65/53/53
f 60/56/56 59/38/38 65/53/53
f 53/57/57 52/55/55 65/53/53
f 61/58/58 60/56/56 65/53/53
f 54/59/59 53/57/57 65/53/53
f 62/60/60 61/58/58 65/53/53
f 55/61/61 54/59/59 65/53/53
f 63/52/52 62/60/60 65/53/53
f 56/62/62 55/61/61 65/53/53
f 1/66/1 3/67/4 67/68/66 66/69/67
f 25/70/26 27/71/28 79/72/68 78/73/69
f 11/74/12 13/75/14 72/76/70 71/77/71
f 21/78/22 23/79/24 77/80/72 76/81/73
f 31/82/34 1/66/1 66/69/67 81/83/74
f 7/84/8 9/85/10 70/86/75 69/87/76
f 17/88/18 19/89/20 75/90/77 74/91/78
f 27/71/28 29/92/30 80/93/79 79/72/68
f 3/67/4 5/94/6 68/95/80 67/68/66
f 13/75/14 15/96/16 73/97/81 72/76/70
f 23/79/24 25/70/26 78/73/69 77/80/72
f 9/85/10 11/74/12 71/77/71 70/86/75
f 19/89/20 21/78/22 76/81/73 75/90/77
f 29/92/30 31/98/34 81/99/74 80/93/79
f 5/94/6 7/84/8 69/87/76 68/95/80
f 15/96/16 17/88/18 74/91/78 73/97/81
