# Blender 4.1.0
# www.blender.org
o Start_Button
v -0.394326 0.204682 -0.360236
v -0.420404 0.204682 -0.360249
v -0.394313 0.204682 -0.386315
v -0.420392 0.204682 -0.386327
v -0.448288 0.206104 -0.360261
v -0.447718 0.204682 -0.386340
v -0.394308 0.203915 -0.397697
v -0.420386 0.203915 -0.397709
v -0.447713 0.203915 -0.397722
v -0.400232 0.199711 -0.409205
v -0.420474 0.199711 -0.409214
v -0.441685 0.199711 -0.409224
v -0.406371 0.194873 -0.415707
v -0.420568 0.194873 -0.415713
v -0.435444 0.194873 -0.415720
v -0.420725 0.191653 -0.420520
v -0.420417 0.206252 -0.331489
v -0.394339 0.204682 -0.331476
v -0.447477 0.207065 -0.332353
v -0.420423 0.205968 -0.319082
v -0.399324 0.204682 -0.319072
v -0.442594 0.207269 -0.319944
v -0.420427 0.206396 -0.311145
v -0.431678 0.207300 -0.313702
v -0.410077 0.205250 -0.313133
v -0.412298 0.193134 -0.418888
v -0.428889 0.193040 -0.419036
v -0.389927 0.185956 -0.358307
v -0.389913 0.184211 -0.388701
v -0.452818 0.188668 -0.358337
v -0.452154 0.185956 -0.388729
v -0.389908 0.182618 -0.397523
v -0.452149 0.184364 -0.397552
v -0.396812 0.176334 -0.412369
v -0.445124 0.178079 -0.412392
v -0.403967 0.174185 -0.419947
v -0.437850 0.174524 -0.419963
v -0.420696 0.171797 -0.425557
v -0.389942 0.185956 -0.324789
v -0.451872 0.191912 -0.325811
v -0.395751 0.185956 -0.313808
v -0.446180 0.192625 -0.314825
v -0.420345 0.189727 -0.304570
v -0.433458 0.190828 -0.307549
v -0.408282 0.188274 -0.306887
v -0.410874 0.172497 -0.423654
v -0.430211 0.172387 -0.423827
vn 0.0150 0.9998 -0.0136
vn -0.0000 0.9994 -0.0336
vn 0.0065 0.9992 -0.0404
vn 0.0243 0.9994 -0.0248
vn 0.0130 0.9988 -0.0470
vn 0.0335 0.9988 -0.0361
vn 0.0001 0.9783 -0.2073
vn 0.0001 0.9830 -0.1835
vn 0.0001 0.9829 -0.1839
vn 0.0002 0.8799 -0.4751
vn 0.0002 0.9047 -0.4260
vn 0.0002 0.9044 -0.4266
vn -0.0000 0.8234 -0.5674
vn 0.0003 0.8173 -0.5763
vn 0.0003 0.8183 -0.5748
vn 0.0094 0.8653 -0.5011
vn -0.0088 0.8671 -0.4980
vn 0.0421 0.9987 -0.0285
vn 0.0437 0.9990 -0.0133
vn 0.0432 0.9991 -0.0053
vn 0.0687 0.9974 -0.0216
vn 0.0605 0.9979 0.0218
vn 0.0470 0.9985 -0.0267
vn 0.0959 0.9939 -0.0536
vn 0.0706 0.9975 -0.0025
vn 0.0696 0.9925 -0.1003
vn 0.0016 0.8308 -0.5566
vn -0.2849 0.2362 -0.9290
vn -0.2560 0.2369 -0.9372
vn -0.4904 0.2291 -0.8408
vn -0.5440 0.2264 -0.8079
vn 0.9747 0.2236 -0.0031
vn 0.9746 0.2241 -0.0028
vn 0.9770 0.2124 -0.0163
vn 0.9768 0.2138 -0.0142
vn -0.7782 0.2080 -0.5925
vn -0.7233 0.2137 -0.6566
vn -0.9283 0.2170 -0.3018
vn -0.9429 0.2203 -0.2498
vn -0.9673 0.2533 -0.0156
vn -0.9671 0.2539 -0.0145
vn -0.9162 0.3340 0.2214
vn -0.9354 0.3156 0.1592
vn -0.4397 0.3720 0.8175
vn -0.3008 0.3695 0.8792
vn -0.3177 0.3702 0.8729
vn 0.9490 0.2017 -0.2422
vn 0.9344 0.1987 -0.2955
vn 0.7432 0.2004 -0.6383
vn 0.7917 0.1938 -0.5794
vn 0.3513 0.3499 0.8684
vn 0.3648 0.3487 0.8633
vn 0.4871 0.3335 0.8072
vn -0.9719 0.2330 -0.0320
vn -0.9714 0.2349 -0.0336
vn 0.0072 0.3667 0.9303
vn 0.0330 0.3665 0.9298
vn 0.8630 0.3108 0.3983
vn 0.9287 0.2831 0.2394
vn 0.9484 0.2685 0.1687
vn 0.5685 0.2192 -0.7930
vn 0.5214 0.2235 -0.8235
vn 0.2740 0.2365 -0.9322
vn 0.3040 0.2356 -0.9231
vn -0.8510 0.3728 0.3700
vn 0.0043 0.2405 -0.9706
vn 0.0049 0.2405 -0.9706
vt 0.278206 0.510767
vt 0.288719 0.456547
vt 0.339999 0.464236
vt 0.334047 0.517522
vt 0.395697 0.467350
vt 0.394160 0.524275
vt 0.342333 0.441482
vt 0.393588 0.444558
vt 0.294930 0.436051
vt 0.344636 0.417295
vt 0.385246 0.421166
vt 0.306457 0.414974
vt 0.346043 0.401445
vt 0.375523 0.404136
vt 0.318166 0.399913
vt 0.363174 0.395375
vt 0.330220 0.393395
vt 0.381798 0.583262
vt 0.327151 0.576409
vt 0.274856 0.571540
vt 0.324006 0.601534
vt 0.283198 0.596895
vt 0.366673 0.605727
vt 0.322175 0.617165
vt 0.302236 0.611039
vt 0.344460 0.615162
vt 0.347193 0.389786
vt 0.374565 0.348332
vt 0.394199 0.360220
vt 0.230003 0.509253
vt 0.247128 0.430796
vt 0.414342 0.381495
vt 0.434584 0.425574
vt 0.439803 0.532358
vt 0.410800 0.614407
vt 0.385335 0.638663
vt 0.348634 0.655728
vt 0.256305 0.408723
vt 0.282162 0.369092
vt 0.281001 0.646479
vt 0.249468 0.625137
vt 0.439803 0.449929
vt 0.312051 0.656612
vt 0.234086 0.596079
vt 0.305330 0.354042
vt 0.324192 0.345900
vt 0.349995 0.343388
s 1
f 1/1/1 3/2/2 4/3/3 2/4/4
f 4/3/3 6/5/5 5/6/6 2/4/4
f 4/3/3 8/7/7 9/8/8 6/5/5
f 3/2/2 7/9/9 8/7/7 4/3/3
f 8/7/7 11/10/10 12/11/11 9/8/8
f 7/9/9 10/12/12 11/10/10 8/7/7
f 11/10/10 14/13/13 15/14/14 12/11/11
f 10/12/12 13/15/15 14/13/13 11/10/10
f 14/13/13 27/16/16 15/14/14
f 13/15/15 26/17/17 14/13/13
f 5/6/6 19/18/18 17/19/19 2/4/4
f 2/4/4 17/19/19 18/20/20 1/1/1
f 17/19/19 20/21/21 21/22/22 18/20/20
f 19/18/18 22/23/23 20/21/21 17/19/19
f 20/21/21 23/24/24 25/25/25
f 22/23/23 24/26/26 20/21/21
f 25/25/25 21/22/22 20/21/21
f 24/26/26 23/24/24 20/21/21
f 26/17/17 16/27/27 14/13/13
f 27/16/16 14/13/13 16/27/27
f 27/16/28 47/28/29 37/29/30 15/14/31
f 1/1/32 28/30/33 29/31/34 3/2/35
f 12/11/36 35/32/37 33/33/38 9/8/39
f 5/6/40 30/34/41 40/35/42 19/18/43
f 22/23/44 42/36/44 44/37/45 24/26/46
f 7/9/47 32/38/48 34/39/49 10/12/50
f 25/25/51 45/40/52 41/41/53 21/22/53
f 9/8/39 33/33/38 31/42/54 6/5/55
f 23/24/56 43/43/57 45/40/52 25/25/51
f 21/22/58 41/41/58 39/44/59 18/20/60
f 3/2/35 29/31/34 32/38/48 7/9/47
f 13/15/61 36/45/62 46/46/63 26/17/64
f 6/5/55 31/42/54 30/34/41 5/6/40
f 19/18/43 40/35/42 42/36/65 22/23/65
f 26/17/64 46/46/63 38/47/66 16/27/67
f 15/14/31 37/29/30 35/32/37 12/11/36
f 16/27/67 38/47/66 47/28/29 27/16/28
f 10/12/50 34/39/49 36/45/62 13/15/61
f 24/26/46 44/37/45 43/43/57 23/24/56
f 18/20/60 39/44/59 28/30/33 1/1/32
