# Blender 4.1.0
# www.blender.org
o Dpad_Up
v -0.640322 0.231450 -0.234670
v -0.640293 0.242863 -0.298723
v -0.678771 0.233644 -0.234688
v -0.683938 0.242863 -0.298743
v -0.640341 0.220785 -0.195645
v -0.645036 0.220785 -0.196798
v -0.640285 0.244625 -0.315028
v -0.675288 0.244625 -0.312153
v -0.684529 0.228205 -0.232708
v -0.689492 0.238163 -0.301893
v -0.640343 0.214317 -0.190058
v -0.646218 0.214317 -0.192534
v -0.640282 0.240066 -0.321976
v -0.678088 0.240066 -0.316376
v -0.690181 0.195554 -0.229227
v -0.695778 0.206785 -0.307256
v -0.640347 0.179891 -0.181182
v -0.646972 0.179891 -0.183917
v -0.640278 0.208932 -0.329906
v -0.682916 0.208932 -0.323591
v -0.681610 0.243654 -0.306319
v -0.690603 0.207908 -0.317359
v -0.685689 0.239057 -0.310254
v -0.685389 0.193034 -0.221937
v -0.674869 0.231333 -0.227850
v -0.679832 0.225719 -0.225517
v -0.677547 0.232535 -0.230975
v -0.688614 0.194389 -0.225425
v -0.682932 0.227016 -0.228838
v -0.642729 0.220785 -0.195928
v -0.643732 0.179891 -0.181925
v -0.643010 0.214317 -0.190553
v -0.640283 0.243001 -0.319206
v -0.678208 0.228938 -0.226560
v -0.645874 0.218555 -0.194433
v -0.640342 0.217456 -0.192226
v -0.680920 0.230325 -0.229841
v -0.642850 0.218161 -0.192878
v -0.683763 0.242166 -0.308226
v -0.676545 0.243301 -0.314649
v -0.687433 0.241052 -0.300285
v -0.682307 0.231310 -0.233640
v -0.601874 0.233644 -0.234652
v -0.596648 0.242863 -0.298703
v -0.635644 0.220785 -0.196794
v -0.605285 0.244625 -0.312121
v -0.596118 0.228205 -0.232666
v -0.591091 0.238163 -0.301847
v -0.634466 0.214317 -0.192528
v -0.602481 0.240066 -0.316341
v -0.590469 0.195554 -0.229180
v -0.584800 0.206785 -0.307205
v -0.633719 0.179891 -0.183911
v -0.597646 0.208932 -0.323551
v -0.598969 0.243654 -0.306281
v -0.589965 0.207908 -0.317313
v -0.594885 0.239057 -0.310211
v -0.595268 0.193034 -0.221895
v -0.605781 0.231333 -0.227818
v -0.600821 0.225719 -0.225481
v -0.603101 0.232535 -0.230941
v -0.592039 0.194389 -0.225380
v -0.597719 0.227016 -0.228798
v -0.637952 0.220785 -0.195926
v -0.636962 0.179891 -0.181922
v -0.637676 0.214317 -0.190551
v -0.602445 0.228938 -0.226525
v -0.634808 0.218555 -0.194427
v -0.599729 0.230325 -0.229804
v -0.637833 0.218161 -0.192876
v -0.596814 0.242166 -0.308185
v -0.604026 0.243301 -0.314615
v -0.593150 0.241052 -0.300241
v -0.598338 0.231310 -0.233601
vn -0.0001 0.9758 0.2187
vn -0.0001 0.9908 0.1353
vn -0.2778 0.9558 0.0960
vn -0.2410 0.9396 0.2429
vn -0.1418 0.8794 0.4545
vn -0.1920 0.8620 0.4691
vn -0.2590 0.9647 -0.0469
vn -0.5614 0.7686 -0.3067
vn -0.6719 0.7407 -0.0046
vn -0.4461 0.6192 0.6462
vn -0.4061 0.5909 0.6971
vn -0.6363 0.7186 0.2807
vn -0.1296 0.9802 -0.1495
vn 0.0001 0.9865 -0.1635
vn 0.0003 0.7766 -0.6300
vn -0.2795 0.7810 -0.5584
vn -0.0002 0.8675 0.4975
vn -0.1039 0.8697 0.4825
vn -0.2060 0.6244 0.7535
vn -0.0004 0.6221 0.7830
vn -0.8733 0.3964 0.2833
vn -0.8990 0.4190 -0.1276
vn -0.9632 0.2164 -0.1592
vn -0.9366 0.1933 0.2922
vn -0.7314 0.4479 -0.5142
vn -0.7743 0.2580 -0.5779
vn -0.0004 0.3946 0.9189
vn -0.3155 0.3663 0.8754
vn -0.3508 0.2353 0.9064
vn -0.0004 0.2483 0.9687
vn -0.5466 0.3132 0.7767
vn -0.6164 0.3310 0.7145
vn -0.6656 0.1937 0.7208
vn -0.5727 0.2096 0.7925
vn -0.3891 0.4541 -0.8015
vn 0.0004 0.4275 -0.9040
vn 0.0004 0.2468 -0.9691
vn -0.1421 0.2443 -0.9592
vn -0.6270 0.2664 -0.7321
vn -0.1858 0.8958 0.4038
vn -0.5140 0.6812 0.5212
vn -0.7282 0.3741 0.5742
vn -0.7756 0.1980 0.5993
vn 0.2408 0.9396 0.2431
vn 0.2777 0.9558 0.0963
vn 0.1916 0.8620 0.4692
vn 0.1413 0.8794 0.4546
vn 0.2590 0.9647 -0.0467
vn 0.6719 0.7407 -0.0040
vn 0.5617 0.7686 -0.3062
vn 0.4054 0.5909 0.6974
vn 0.4455 0.6192 0.6466
vn 0.6360 0.7186 0.2813
vn 0.1298 0.9802 -0.1494
vn 0.2800 0.7810 -0.5582
vn 0.2053 0.6244 0.7536
vn 0.1034 0.8697 0.4826
vn 0.8730 0.3964 0.2841
vn 0.9363 0.1933 0.2931
vn 0.9634 0.2164 -0.1583
vn 0.8991 0.4190 -0.1268
vn 0.7748 0.2580 -0.5772
vn 0.7319 0.4479 -0.5135
vn 0.3499 0.2353 0.9067
vn 0.3147 0.3663 0.8756
vn 0.5458 0.3132 0.7772
vn 0.5719 0.2096 0.7931
vn 0.6649 0.1937 0.7214
vn 0.6158 0.3310 0.7150
vn 0.3899 0.4541 -0.8011
vn 0.1430 0.2443 -0.9591
vn 0.6277 0.2664 -0.7315
vn 0.1854 0.8958 0.4040
vn 0.7277 0.3741 0.5749
vn 0.5135 0.6812 0.5217
vn 0.7751 0.1980 0.6001
vt 0.375014 0.457541
vt 0.384840 0.578751
vt 0.306587 0.583061
vt 0.302835 0.466530
vt 0.307472 0.451991
vt 0.359796 0.383575
vt 0.311833 0.596521
vt 0.307279 0.600617
vt 0.299263 0.585812
vt 0.299532 0.448577
vt 0.357248 0.377282
vt 0.294785 0.465012
vt 0.324111 0.606316
vt 0.387384 0.610142
vt 0.388087 0.618813
vt 0.321946 0.611608
vt 0.368790 0.380764
vt 0.364206 0.381643
vt 0.363189 0.373785
vt 0.368031 0.371398
vt 0.287079 0.462793
vt 0.292112 0.588912
vt 0.217671 0.631201
vt 0.217671 0.415975
vt 0.301094 0.606203
vt 0.238892 0.659619
vt 0.367405 0.363674
vt 0.361796 0.364691
vt 0.352143 0.281915
vt 0.360680 0.280713
vt 0.353990 0.367700
vt 0.293275 0.443628
vt 0.226819 0.393858
vt 0.342908 0.284031
vt 0.317686 0.618382
vt 0.388747 0.626958
vt 0.396247 0.719476
vt 0.261174 0.680015
vt 0.303667 0.459056
vt 0.296001 0.456938
vt 0.288843 0.453098
vt 0.221508 0.405520
vt 0.447698 0.454787
vt 0.462765 0.570401
vt 0.378120 0.382089
vt 0.440781 0.441184
vt 0.459756 0.584530
vt 0.470437 0.571937
vt 0.464909 0.587839
vt 0.379622 0.375468
vt 0.448067 0.436536
vt 0.455399 0.451992
vt 0.449216 0.596175
vt 0.452205 0.601049
vt 0.373195 0.372974
vt 0.373456 0.380893
vt 0.462647 0.448561
vt 0.523608 0.391175
vt 0.558274 0.603591
vt 0.477994 0.573844
vt 0.541906 0.635055
vt 0.471913 0.592356
vt 0.369299 0.280524
vt 0.373104 0.363774
vt 0.381294 0.365486
vt 0.378754 0.281125
vt 0.511018 0.370821
vt 0.453446 0.430644
vt 0.457500 0.607049
vt 0.523201 0.658774
vt 0.445674 0.447544
vt 0.459345 0.439276
vt 0.452899 0.444219
vt 0.518137 0.381475
s 1
f 1/1/1 2/2/2 4/3/3 3/4/4
f 1/1/1 25/5/5 6/6/6
f 4/3/3 2/2/2 21/7/7
f 4/3/3 21/7/7 39/8/8 41/9/9
f 6/6/6 25/5/5 34/10/10 35/11/11
f 3/4/4 4/3/3 41/9/9 42/12/12
f 8/13/13 7/14/14 33/15/15 40/16/16
f 5/17/17 30/18/18 38/19/19 36/20/20
f 9/21/21 10/22/22 16/23/23 15/24/24
f 10/22/22 23/25/25 22/26/26 16/23/23
f 11/27/27 32/28/28 31/29/29 17/30/30
f 12/31/31 26/32/32 24/33/33 18/34/34
f 14/35/35 13/36/36 19/37/37 20/38/38
f 22/26/26 23/25/25 14/35/35 20/38/39
f 23/25/25 39/8/8 40/16/16 14/35/35
f 25/5/5 1/1/1 27/39/40
f 26/32/32 34/10/10 37/40/41 29/41/42
f 24/33/33 26/32/32 29/41/42 28/42/43
f 27/39/40 1/1/1 3/4/4
f 29/41/42 37/40/41 42/12/12 9/21/21
f 28/42/43 29/41/42 9/21/21 15/24/24
f 21/7/7 2/2/2 8/13/13
f 8/13/13 2/2/2 7/14/14
f 32/28/28 38/19/19 35/11/11 12/31/31
f 30/18/18 5/17/17 1/1/1
f 31/29/29 32/28/28 12/31/31 18/34/34
f 6/6/6 30/18/18 1/1/1
f 36/20/20 38/19/19 32/28/28 11/27/27
f 40/16/16 39/8/8 21/7/7 8/13/13
f 35/11/11 34/10/10 26/32/32 12/31/31
f 35/11/11 38/19/19 30/18/18 6/6/6
f 42/12/12 41/9/9 10/22/22 9/21/21
f 42/12/12 37/40/41 27/39/40 3/4/4
f 37/40/41 34/10/10 25/5/5 27/39/40
f 40/16/16 33/15/15 13/36/36 14/35/35
f 41/9/9 39/8/8 23/25/25 10/22/22
f 1/1/1 43/43/44 44/44/45 2/2/2
f 1/1/1 45/45/46 59/46/47
f 44/44/45 55/47/48 2/2/2
f 44/44/45 73/48/49 71/49/50 55/47/48
f 45/45/46 68/50/51 67/51/52 59/46/47
f 43/43/44 74/52/53 73/48/49 44/44/45
f 46/53/54 72/54/55 33/15/15 7/14/14
f 5/17/17 36/20/20 70/55/56 64/56/57
f 47/57/58 51/58/59 52/59/60 48/60/61
f 48/60/61 52/59/60 56/61/62 57/62/63
f 11/27/27 17/30/30 65/63/64 66/64/65
f 49/65/66 53/66/67 58/67/68 60/68/69
f 50/69/70 54/70/71 19/37/37 13/36/36
f 56/61/62 54/70/72 50/69/70 57/62/63
f 57/62/63 50/69/70 72/54/55 71/49/50
f 59/46/47 61/71/73 1/1/1
f 60/68/69 63/72/74 69/73/75 67/51/52
f 58/67/68 62/74/76 63/72/74 60/68/69
f 61/71/73 43/43/44 1/1/1
f 63/72/74 47/57/58 74/52/53 69/73/75
f 62/74/76 51/58/59 47/57/58 63/72/74
f 55/47/48 46/53/54 2/2/2
f 46/53/54 7/14/14 2/2/2
f 66/64/65 49/65/66 68/50/51 70/55/56
f 64/56/57 1/1/1 5/17/17
f 65/63/64 53/66/67 49/65/66 66/64/65
f 45/45/46 1/1/1 64/56/57
f 36/20/20 11/27/27 66/64/65 70/55/56
f 72/54/55 46/53/54 55/47/48 71/49/50
f 68/50/51 49/65/66 60/68/69 67/51/52
f 68/50/51 45/45/46 64/56/57 70/55/56
f 74/52/53 47/57/58 48/60/61 73/48/49
f 74/52/53 43/43/44 61/71/73 69/73/75
f 69/73/75 61/71/73 59/46/47 67/51/52
f 72/54/55 50/69/70 13/36/36 33/15/15
f 73/48/49 48/60/61 57/62/63 71/49/50
