# Blender 4.1.0
# www.blender.org
o Dpad_Right
v -0.568687 0.231450 -0.162968
v -0.504634 0.242863 -0.162939
v -0.568669 0.233644 -0.201417
v -0.504614 0.242863 -0.206584
v -0.607713 0.220785 -0.162987
v -0.606559 0.220785 -0.167682
v -0.488329 0.244625 -0.162931
v -0.491204 0.244625 -0.197934
v -0.570650 0.228205 -0.207175
v -0.501464 0.238163 -0.212138
v -0.613299 0.214317 -0.162989
v -0.610824 0.214317 -0.168864
v -0.481382 0.240066 -0.162928
v -0.486982 0.240066 -0.200734
v -0.574131 0.195554 -0.212827
v -0.496101 0.206785 -0.218424
v -0.622175 0.179891 -0.162993
v -0.619440 0.179891 -0.169618
v -0.473451 0.208932 -0.162924
v -0.479767 0.208932 -0.205563
v -0.497038 0.243654 -0.204256
v -0.485998 0.207908 -0.213249
v -0.493104 0.239057 -0.208335
v -0.581421 0.193034 -0.208035
v -0.575507 0.231333 -0.197516
v -0.577840 0.225719 -0.202478
v -0.572382 0.232535 -0.200193
v -0.577932 0.194389 -0.211260
v -0.574520 0.227016 -0.205578
v -0.607430 0.220785 -0.165375
v -0.621432 0.179891 -0.166378
v -0.612804 0.214317 -0.165656
v -0.484152 0.243001 -0.162929
v -0.576797 0.228938 -0.200854
v -0.608925 0.218555 -0.168520
v -0.611132 0.217456 -0.162988
v -0.573516 0.230325 -0.203566
v -0.610479 0.218161 -0.165496
v -0.495132 0.242166 -0.206409
v -0.488708 0.243301 -0.199191
v -0.503072 0.241052 -0.210079
v -0.569717 0.231310 -0.204953
v -0.568705 0.233644 -0.124520
v -0.504655 0.242863 -0.119294
v -0.606564 0.220785 -0.158290
v -0.491237 0.244625 -0.127931
v -0.570691 0.228205 -0.118764
v -0.501510 0.238163 -0.113737
v -0.610829 0.214317 -0.157112
v -0.487017 0.240066 -0.125127
v -0.574177 0.195554 -0.113115
v -0.496153 0.206785 -0.107446
v -0.619447 0.179891 -0.156365
v -0.479806 0.208932 -0.120292
v -0.497076 0.243654 -0.121615
v -0.486045 0.207908 -0.112611
v -0.493146 0.239057 -0.117532
v -0.581463 0.193034 -0.117914
v -0.575539 0.231333 -0.128428
v -0.577877 0.225719 -0.123467
v -0.572417 0.232535 -0.125747
v -0.577977 0.194389 -0.114686
v -0.574559 0.227016 -0.120365
v -0.607432 0.220785 -0.160598
v -0.621435 0.179891 -0.159608
v -0.612807 0.214317 -0.160322
v -0.576832 0.228938 -0.125091
v -0.608930 0.218555 -0.157454
v -0.573554 0.230325 -0.122375
v -0.610481 0.218161 -0.160479
v -0.495172 0.242166 -0.119460
v -0.488742 0.243301 -0.126672
v -0.503116 0.241052 -0.115796
v -0.569756 0.231310 -0.120984
vn -0.2187 0.9758 -0.0001
vn -0.1353 0.9908 -0.0001
vn -0.0960 0.9558 -0.2778
vn -0.2429 0.9396 -0.2410
vn -0.4545 0.8794 -0.1418
vn -0.4691 0.8620 -0.1920
vn 0.0469 0.9647 -0.2590
vn 0.3067 0.7686 -0.5614
vn 0.0046 0.7407 -0.6719
vn -0.6462 0.6192 -0.4461
vn -0.6970 0.5909 -0.4061
vn -0.2807 0.7186 -0.6363
vn 0.1495 0.9802 -0.1296
vn 0.1635 0.9865 0.0001
vn 0.6300 0.7766 0.0003
vn 0.5584 0.7810 -0.2795
vn -0.4975 0.8675 -0.0002
vn -0.4825 0.8697 -0.1039
vn -0.7534 0.6244 -0.2060
vn -0.7830 0.6221 -0.0004
vn -0.2833 0.3964 -0.8733
vn 0.1276 0.4190 -0.8990
vn 0.1592 0.2164 -0.9632
vn -0.2922 0.1933 -0.9366
vn 0.5142 0.4479 -0.7314
vn 0.5779 0.2580 -0.7743
vn -0.9189 0.3946 -0.0004
vn -0.8754 0.3663 -0.3155
vn -0.9064 0.2353 -0.3508
vn -0.9687 0.2483 -0.0004
vn -0.7767 0.3132 -0.5466
vn -0.7145 0.3310 -0.6164
vn -0.7208 0.1937 -0.6656
vn -0.7925 0.2096 -0.5727
vn 0.8015 0.4541 -0.3891
vn 0.9040 0.4275 0.0004
vn 0.9691 0.2468 0.0004
vn 0.9592 0.2443 -0.1421
vn 0.7321 0.2664 -0.6270
vn -0.4038 0.8958 -0.1858
vn -0.5213 0.6812 -0.5140
vn -0.5742 0.3741 -0.7282
vn -0.5993 0.1980 -0.7756
vn -0.2431 0.9396 0.2408
vn -0.0963 0.9558 0.2777
vn -0.4692 0.8620 0.1916
vn -0.4546 0.8794 0.1413
vn 0.0467 0.9647 0.2590
vn 0.0040 0.7407 0.6719
vn 0.3062 0.7686 0.5617
vn -0.6974 0.5909 0.4055
vn -0.6466 0.6192 0.4455
vn -0.2813 0.7186 0.6360
vn 0.1494 0.9802 0.1298
vn 0.5582 0.7810 0.2800
vn -0.7536 0.6244 0.2053
vn -0.4826 0.8697 0.1034
vn -0.2841 0.3964 0.8730
vn -0.2931 0.1933 0.9363
vn 0.1583 0.2164 0.9634
vn 0.1268 0.4190 0.8991
vn 0.5772 0.2580 0.7748
vn 0.5135 0.4479 0.7319
vn -0.9067 0.2353 0.3500
vn -0.8756 0.3663 0.3147
vn -0.7772 0.3132 0.5458
vn -0.7931 0.2096 0.5719
vn -0.7214 0.1937 0.6649
vn -0.7150 0.3310 0.6158
vn 0.8011 0.4541 0.3899
vn 0.9591 0.2443 0.1430
vn 0.7315 0.2664 0.6277
vn -0.4040 0.8958 0.1854
vn -0.5749 0.3741 0.7277
vn -0.5217 0.6812 0.5135
vn -0.6001 0.1980 0.7751
vt 0.374861 0.457040
vt 0.384803 0.579680
vt 0.305627 0.584041
vt 0.301831 0.466135
vt 0.306523 0.451424
vt 0.359463 0.382202
vt 0.310935 0.597659
vt 0.306328 0.601804
vt 0.298216 0.586824
vt 0.298488 0.447971
vt 0.356885 0.375835
vt 0.293686 0.464599
vt 0.323358 0.607570
vt 0.387377 0.611441
vt 0.388089 0.620214
vt 0.321167 0.612924
vt 0.368564 0.379358
vt 0.363926 0.380247
vt 0.362897 0.372297
vt 0.367796 0.369881
vt 0.285889 0.462355
vt 0.290981 0.589961
vt 0.215663 0.632749
vt 0.215663 0.414984
vt 0.300070 0.607455
vt 0.237134 0.661501
vt 0.367162 0.362066
vt 0.361487 0.363095
vt 0.351721 0.279343
vt 0.360358 0.278127
vt 0.353589 0.366139
vt 0.292158 0.442963
vt 0.224918 0.392606
vt 0.342377 0.281484
vt 0.316857 0.619778
vt 0.388756 0.628455
vt 0.396345 0.722064
vt 0.259679 0.682138
vt 0.302672 0.458573
vt 0.294916 0.456430
vt 0.287673 0.452544
vt 0.219545 0.404406
vt 0.448403 0.454253
vt 0.463647 0.571231
vt 0.378004 0.380699
vt 0.441403 0.440490
vt 0.460602 0.585527
vt 0.471409 0.572785
vt 0.465817 0.588875
vt 0.379523 0.374000
vt 0.448776 0.435788
vt 0.456194 0.451426
vt 0.449938 0.597309
vt 0.452962 0.602240
vt 0.373020 0.371476
vt 0.373285 0.379488
vt 0.463528 0.447955
vt 0.525207 0.389891
vt 0.560282 0.604813
vt 0.479055 0.574715
vt 0.543722 0.636648
vt 0.472903 0.593445
vt 0.369078 0.277936
vt 0.372929 0.362167
vt 0.381215 0.363900
vt 0.378645 0.278544
vt 0.512469 0.369297
vt 0.454218 0.429826
vt 0.458320 0.608311
vt 0.524795 0.660647
vt 0.446354 0.446926
vt 0.460187 0.438560
vt 0.453665 0.443561
vt 0.519672 0.380077
s 1
f 1/1/1 2/2/2 4/3/3 3/4/4
f 1/1/1 25/5/5 6/6/6
f 4/3/3 2/2/2 21/7/7
f 4/3/3 21/7/7 39/8/8 41/9/9
f 6/6/6 25/5/5 34/10/10 35/11/11
f 3/4/4 4/3/3 41/9/9 42/12/12
f 8/13/13 7/14/14 33/15/15 40/16/16
f 5/17/17 30/18/18 38/19/19 36/20/20
f 9/21/21 10/22/22 16/23/23 15/24/24
f 10/22/22 23/25/25 22/26/26 16/23/23
f 11/27/27 32/28/28 31/29/29 17/30/30
f 12/31/31 26/32/32 24/33/33 18/34/34
f 14/35/35 13/36/36 19/37/37 20/38/38
f 22/26/26 23/25/25 14/35/35 20/38/39
f 23/25/25 39/8/8 40/16/16 14/35/35
f 25/5/5 1/1/1 27/39/40
f 26/32/32 34/10/10 37/40/41 29/41/42
f 24/33/33 26/32/32 29/41/42 28/42/43
f 27/39/40 1/1/1 3/4/4
f 29/41/42 37/40/41 42/12/12 9/21/21
f 28/42/43 29/41/42 9/21/21 15/24/24
f 21/7/7 2/2/2 8/13/13
f 8/13/13 2/2/2 7/14/14
f 32/28/28 38/19/19 35/11/11 12/31/31
f 30/18/18 5/17/17 1/1/1
f 31/29/29 32/28/28 12/31/31 18/34/34
f 6/6/6 30/18/18 1/1/1
f 36/20/20 38/19/19 32/28/28 11/27/27
f 40/16/16 39/8/8 21/7/7 8/13/13
f 35/11/11 34/10/10 26/32/32 12/31/31
f 35/11/11 38/19/19 30/18/18 6/6/6
f 42/12/12 41/9/9 10/22/22 9/21/21
f 42/12/12 37/40/41 27/39/40 3/4/4
f 37/40/41 34/10/10 25/5/5 27/39/40
f 40/16/16 33/15/15 13/36/36 14/35/35
f 41/9/9 39/8/8 23/25/25 10/22/22
f 1/1/1 43/43/44 44/44/45 2/2/2
f 1/1/1 45/45/46 59/46/47
f 44/44/45 55/47/48 2/2/2
f 44/44/45 73/48/49 71/49/50 55/47/48
f 45/45/46 68/50/51 67/51/52 59/46/47
f 43/43/44 74/52/53 73/48/49 44/44/45
f 46/53/54 72/54/55 33/15/15 7/14/14
f 5/17/17 36/20/20 70/55/56 64/56/57
f 47/57/58 51/58/59 52/59/60 48/60/61
f 48/60/61 52/59/60 56/61/62 57/62/63
f 11/27/27 17/30/30 65/63/64 66/64/65
f 49/65/66 53/66/67 58/67/68 60/68/69
f 50/69/70 54/70/71 19/37/37 13/36/36
f 56/61/62 54/70/72 50/69/70 57/62/63
f 57/62/63 50/69/70 72/54/55 71/49/50
f 59/46/47 61/71/73 1/1/1
f 60/68/69 63/72/74 69/73/75 67/51/52
f 58/67/68 62/74/76 63/72/74 60/68/69
f 61/71/73 43/43/44 1/1/1
f 63/72/74 47/57/58 74/52/53 69/73/75
f 62/74/76 51/58/59 47/57/58 63/72/74
f 55/47/48 46/53/54 2/2/2
f 46/53/54 7/14/14 2/2/2
f 66/64/65 49/65/66 68/50/51 70/55/56
f 64/56/57 1/1/1 5/17/17
f 65/63/64 53/66/67 49/65/66 66/64/65
f 45/45/46 1/1/1 64/56/57
f 36/20/20 11/27/27 66/64/65 70/55/56
f 72/54/55 46/53/54 55/47/48 71/49/50
f 68/50/51 49/65/66 60/68/69 67/51/52
f 68/50/51 45/45/46 64/56/57 70/55/56
f 74/52/53 47/57/58 48/60/61 73/48/49
f 74/52/53 43/43/44 61/71/73 69/73/75
f 69/73/75 61/71/73 59/46/47 67/51/52
f 72/54/55 50/69/70 13/36/36 33/15/15
f 73/48/49 48/60/61 57/62/63 71/49/50
