# Blender 4.1.0
# www.blender.org
o Left_Trigger
v -0.082277 -0.009121 -0.065422
v -0.115485 -0.011344 -0.052348
v -0.082969 0.018712 -0.050125
v -0.124255 0.019556 -0.033423
v -0.047585 0.018804 -0.058838
v -0.013358 0.019042 -0.061929
v 0.025370 0.018696 -0.060877
v 0.053774 0.018859 -0.057120
v 0.080547 0.019115 -0.050910
v 0.106364 0.019956 -0.039441
v 0.103537 -0.007872 -0.057927
v 0.078073 -0.007375 -0.066331
v 0.052748 -0.008337 -0.071780
v 0.023833 -0.008087 -0.076203
v -0.013444 -0.007948 -0.077001
v -0.050283 -0.007535 -0.072941
v -0.074093 -0.050713 -0.057914
v -0.104516 -0.052743 -0.045865
v 0.098698 -0.049406 -0.049839
v 0.072336 -0.049119 -0.058744
v 0.049209 -0.049091 -0.062594
v 0.022803 -0.048863 -0.064692
v -0.011238 -0.048706 -0.065420
v -0.044877 -0.049265 -0.064779
v -0.065887 -0.095949 -0.054011
v -0.092805 -0.097886 -0.046737
v 0.094704 -0.094701 -0.045440
v 0.069061 -0.094428 -0.052529
v 0.046995 -0.094401 -0.056758
v 0.021802 -0.094183 -0.059612
v -0.010677 -0.094033 -0.060307
v -0.039894 -0.094567 -0.057843
v -0.054019 -0.134641 -0.057835
v -0.078459 -0.136284 -0.053710
v 0.084215 -0.133582 -0.049971
v 0.063875 -0.133350 -0.055751
v 0.042796 -0.133328 -0.057695
v 0.020051 -0.133143 -0.059242
v -0.007723 -0.133016 -0.060296
v -0.033914 -0.133469 -0.059135
v -0.049672 -0.170348 -0.063551
v 0.056758 -0.169146 -0.061613
v 0.040197 -0.169125 -0.064499
v 0.019026 -0.168953 -0.065693
v -0.006828 -0.168835 -0.065841
v -0.031208 -0.169256 -0.064761
v 0.040198 -0.179943 -0.065149
v 0.019027 -0.187131 -0.068941
v -0.006827 -0.187013 -0.069088
v -0.031207 -0.181257 -0.066549
v -0.123494 -0.003541 -0.014834
v 0.108283 0.000240 -0.020912
v -0.111886 -0.048626 -0.007773
v 0.103162 -0.044991 -0.012104
v -0.099493 -0.097786 -0.008724
v 0.098936 -0.094318 -0.007314
v -0.084311 -0.139603 -0.016318
v 0.087836 -0.136660 -0.012248
v -0.053848 -0.176698 -0.027034
v 0.058780 -0.175390 -0.024926
v 0.041255 -0.187148 -0.028777
v 0.018852 -0.194975 -0.032905
v -0.008508 -0.194846 -0.033066
v -0.034308 -0.188578 -0.030300
v -0.120614 -0.003541 0.017567
v 0.106468 0.000240 0.013138
v -0.106512 -0.048626 0.016195
v 0.101351 -0.044991 0.013980
v -0.090854 -0.097309 0.013204
v 0.087120 -0.091429 0.014403
v -0.071658 -0.127206 0.006589
v 0.068623 -0.125651 0.008938
v -0.048550 -0.145946 0.001154
v 0.051547 -0.141288 0.004328
v 0.030302 -0.149809 -0.000187
v 0.008218 -0.153902 -0.002235
v -0.010628 -0.155451 -0.002994
v -0.028846 -0.152276 -0.002457
v 0.065237 -0.121506 0.038101
v -0.045274 -0.134945 0.030354
v 0.043023 -0.134922 0.033445
v 0.024947 -0.140991 0.031503
v 0.006778 -0.143762 0.029680
v -0.012777 -0.143544 0.029368
v -0.029021 -0.139797 0.028705
v -0.067032 -0.122858 0.032870
v -0.089301 -0.096909 0.038243
v -0.107449 -0.049497 0.040341
v 0.086118 -0.088669 0.045379
v 0.064149 -0.118526 0.074212
v -0.045293 -0.132979 0.071191
v 0.043005 -0.132957 0.072549
v 0.024929 -0.140056 0.070505
v 0.006759 -0.143162 0.069718
v -0.012795 -0.142944 0.069014
v -0.030299 -0.138862 0.069778
v -0.067051 -0.117667 0.072602
v -0.089318 -0.092030 0.075347
v 0.084772 -0.085788 0.077764
v 0.104747 0.003307 0.040832
v 0.099627 -0.043588 0.047554
v 0.099614 -0.041924 0.076827
v -0.120625 -0.003541 0.041975
v -0.102584 -0.048765 0.085371
v 0.060695 -0.101040 0.140201
v -0.043171 -0.111696 0.145585
v 0.040625 -0.111674 0.146874
v 0.023468 -0.117434 0.151480
v 0.006223 -0.120063 0.153799
v -0.012335 -0.119856 0.153132
v -0.028945 -0.116301 0.150222
v -0.063815 -0.100225 0.136424
v -0.084941 -0.080906 0.124087
v 0.084648 -0.074013 0.117749
v -0.082986 0.018712 -0.013325
v -0.124266 0.019556 -0.011383
v -0.047605 0.018804 -0.014421
v -0.013380 0.019042 -0.015229
v 0.025348 0.018696 -0.014178
v 0.053754 0.018859 -0.013970
v 0.080530 0.019115 -0.014110
v 0.106354 0.019956 -0.017401
v -0.083000 0.018712 0.018089
v -0.124280 0.019556 0.020030
v -0.047620 0.018804 0.016992
v -0.013395 0.019042 0.016184
v 0.025333 0.018696 0.017236
v 0.053740 0.018859 0.017444
v 0.080516 0.019115 0.017304
v 0.106339 0.019956 0.014012
v -0.083010 0.018712 0.038747
v -0.122412 0.019559 0.034294
v -0.047630 0.018804 0.039335
v -0.013406 0.019042 0.039784
v 0.025323 0.018696 0.039579
v 0.053730 0.018859 0.038904
v 0.080506 0.019115 0.037537
v 0.104454 0.019952 0.036405
vn -0.2756 0.4541 -0.8473
vn -0.3417 0.4314 -0.8349
vn -0.2871 0.4504 -0.8454
vn -0.1518 0.4778 -0.8653
vn -0.1535 0.4777 -0.8650
vn -0.0316 0.4872 -0.8727
vn -0.0303 0.4873 -0.8727
vn 0.0774 0.4846 -0.8713
vn 0.0718 0.4854 -0.8714
vn 0.1558 0.4744 -0.8664
vn 0.1511 0.4749 -0.8670
vn 0.2590 0.4779 -0.8394
vn 0.2395 0.4766 -0.8459
vn 0.3141 0.4805 -0.8188
vn -0.2824 -0.2244 -0.9327
vn -0.1428 -0.2261 -0.9636
vn -0.1266 -0.1843 -0.9747
vn -0.2640 -0.1730 -0.9489
vn -0.0236 -0.2548 -0.9667
vn 0.0652 -0.2616 -0.9630
vn 0.0616 -0.1902 -0.9798
vn -0.0172 -0.1906 -0.9815
vn -0.3437 -0.2327 -0.9098
vn -0.3300 -0.1734 -0.9279
vn 0.1511 -0.2328 -0.9607
vn 0.2513 -0.2151 -0.9437
vn 0.2394 -0.1769 -0.9547
vn 0.1418 -0.1831 -0.9728
vn 0.3066 -0.2135 -0.9276
vn 0.2988 -0.1750 -0.9381
vn -0.0166 -0.0610 -0.9980
vn -0.1018 -0.0578 -0.9931
vn 0.1262 -0.0561 -0.9904
vn 0.0591 -0.0599 -0.9965
vn 0.2821 -0.0563 -0.9577
vn 0.2225 -0.0498 -0.9737
vn -0.2103 -0.0362 -0.9770
vn -0.2747 -0.0330 -0.9610
vn 0.2709 0.0614 -0.9607
vn 0.2054 0.0824 -0.9752
vn -0.0740 0.0862 -0.9935
vn -0.1423 0.0956 -0.9852
vn 0.0515 0.0853 -0.9950
vn -0.0142 0.0801 -0.9967
vn 0.1057 0.0924 -0.9901
vn -0.2052 0.0856 -0.9750
vn 0.1131 0.1319 -0.9848
vn 0.0464 0.1631 -0.9855
vn -0.0616 0.1532 -0.9863
vn -0.0937 0.1460 -0.9848
vn -0.0178 0.1644 -0.9862
vn 0.1595 0.1281 -0.9789
vn -0.0217 0.1707 -0.9851
vn -0.0617 0.1581 -0.9855
vn 0.0449 0.1571 -0.9866
vn 0.1208 0.1076 -0.9868
vn -0.9539 -0.2558 -0.1573
vn -0.9452 -0.2807 -0.1664
vn -0.9327 -0.3375 0.1274
vn -0.9627 -0.2682 0.0352
vn 0.4560 -0.8704 -0.1855
vn 0.6883 -0.7084 -0.1565
vn 0.7100 -0.6874 -0.1529
vn 0.4716 -0.8624 -0.1839
vn -0.8597 -0.4781 -0.1796
vn -0.8787 -0.4430 -0.1778
vn -0.1218 -0.9689 -0.2152
vn 0.1712 -0.9632 -0.2073
vn 0.1821 -0.9613 -0.2068
vn -0.1323 -0.9675 -0.2153
vn -0.3823 -0.8990 -0.2138
vn -0.4041 -0.8895 -0.2132
vn 0.8943 -0.4299 -0.1239
vn 0.9791 -0.1721 -0.1082
vn 0.9518 -0.2323 0.2002
vn 0.9095 -0.3975 -0.1215
vn -0.9581 -0.2393 -0.1575
vn -0.9827 -0.1833 -0.0250
vn 0.9880 -0.1147 -0.1033
vn 0.9915 -0.1258 0.0324
vn -0.6517 -0.7317 -0.1998
vn -0.6763 -0.7097 -0.1975
vn 0.9896 -0.0961 -0.1071
vn 0.9991 -0.0338 -0.0253
vn -0.9885 -0.1133 -0.1003
vn 0.9967 0.0250 -0.0766
vn 0.0254 -0.5981 0.8010
vn 0.0879 -0.5972 0.7972
vn 0.0984 -0.5979 0.7955
vn 0.0243 -0.5983 0.8009
vn 0.9978 -0.0379 0.0552
vn 0.9786 -0.1692 0.1174
vn -0.0295 -0.6035 0.7968
vn -0.0354 -0.6036 0.7965
vn 0.8931 -0.3536 0.2782
vn -0.1036 -0.6109 0.7849
vn -0.1626 -0.7817 0.6021
vn -0.8676 -0.4365 0.2382
vn -0.9510 -0.2918 0.1024
vn -0.2437 -0.6217 0.7443
vn -0.3451 -0.7581 0.5534
vn 0.5417 -0.4831 0.6878
vn 0.5618 -0.4690 0.6815
vn 0.2238 -0.5951 0.7718
vn 0.3046 -0.5857 0.7511
vn -0.5680 -0.5575 0.6055
vn -0.6393 -0.6428 0.4221
vn -0.9800 -0.1921 0.0519
vn -0.0765 -0.9383 0.3373
vn -0.1053 -0.9780 0.1799
vn -0.2426 -0.9495 0.1991
vn 0.0762 -0.9471 0.3119
vn 0.2090 -0.9321 0.2959
vn 0.2298 -0.9593 0.1642
vn 0.0759 -0.9823 0.1711
vn 0.4112 -0.8683 0.2775
vn 0.6870 -0.6981 0.2016
vn 0.7053 -0.6971 0.1290
vn 0.4237 -0.8902 0.1675
vn -0.4046 -0.8936 0.1943
vn -0.8621 -0.5003 0.0806
vn -0.9503 -0.3085 0.0427
vn -0.6470 -0.7467 0.1544
vn 0.9053 -0.4183 0.0742
vn -0.1219 -0.9831 0.1369
vn -0.2830 -0.9487 0.1411
vn 0.8917 -0.4405 0.1044
vn 0.6898 -0.7092 0.1457
vn 0.4390 -0.8851 0.1549
vn -0.6442 -0.7487 0.1567
vn -0.8520 -0.5055 0.1362
vn -0.4401 -0.8844 0.1557
vn 0.2539 -0.9564 0.1441
vn 0.0733 -0.9872 0.1415
vn 0.9781 -0.2038 0.0423
vn 0.9967 -0.0562 0.0580
vn 0.9666 -0.2522 0.0464
vn -0.9419 -0.3170 0.1115
vn -0.9741 -0.2241 0.0299
vn 0.8661 -0.4759 0.1527
vn -0.2825 -0.9225 0.2631
vn -0.4379 -0.8616 0.2566
vn 0.4285 -0.8662 0.2571
vn 0.2494 -0.9313 0.2654
vn -0.6267 -0.7433 0.2341
vn -0.8080 -0.5544 0.1995
vn 0.6539 -0.7226 0.2242
vn 0.0707 -0.9614 0.2661
vn -0.1190 -0.9568 0.2652
vn -0.0325 0.9995 -0.0000
vn -0.0185 0.9998 -0.0000
vn -0.0211 0.9998 -0.0000
vn -0.0074 1.0000 -0.0000
vn 0.0020 1.0000 -0.0000
vn 0.0016 1.0000 -0.0000
vn -0.0077 1.0000 -0.0000
vn 0.0012 1.0000 -0.0000
vn -0.0050 1.0000 -0.0000
vn -0.0048 1.0000 -0.0000
vn 0.0010 1.0000 -0.0000
vn 0.0065 1.0000 -0.0000
vn 0.0204 0.9998 -0.0000
vn 0.0089 1.0000 -0.0000
vn 0.9974 0.0705 0.0157
vn -0.9972 -0.0705 0.0242
vn 0.0091 1.0000 -0.0003
vn 0.9982 0.0333 0.0499
vn -0.0214 0.9998 -0.0004
vn -0.9932 -0.1068 0.0462
vn -0.0331 0.9995 -0.0006
vn 0.0207 0.9998 -0.0006
vn 0.0017 1.0000 -0.0000
vn -0.0076 1.0000 -0.0000
vn 0.0087 1.0000 -0.0006
vn 0.9973 0.0185 0.0707
vn -0.0213 0.9998 -0.0007
vn -0.9926 -0.1118 0.0477
vn -0.0338 0.9994 -0.0014
vn 0.0210 0.9998 -0.0012
vt 0.278915 0.619537
vt 0.230750 0.602265
vt 0.196469 0.638161
vt 0.255967 0.664641
vt 0.316550 0.681409
vt 0.326069 0.633214
vt 0.376562 0.690552
vt 0.381269 0.639939
vt 0.444546 0.690788
vt 0.436712 0.641346
vt 0.493500 0.683282
vt 0.479355 0.636811
vt 0.536180 0.671172
vt 0.515675 0.631355
vt 0.573498 0.658134
vt 0.549964 0.623895
vt 0.343608 0.574644
vt 0.303136 0.561878
vt 0.434280 0.582475
vt 0.388838 0.581486
vt 0.256854 0.542527
vt 0.501357 0.574011
vt 0.469640 0.579267
vt 0.541119 0.564122
vt 0.394758 0.526076
vt 0.362130 0.519273
vt 0.459179 0.523049
vt 0.430848 0.526821
vt 0.516856 0.503921
vt 0.484771 0.516574
vt 0.332905 0.507639
vt 0.301210 0.488781
vt 0.483206 0.471311
vt 0.465090 0.479558
vt 0.379447 0.482792
vt 0.362435 0.475020
vt 0.426627 0.488275
vt 0.402204 0.488162
vt 0.446506 0.485254
vt 0.342425 0.461981
vt 0.437719 0.458636
vt 0.423562 0.460981
vt 0.390541 0.456221
vt 0.378723 0.450759
vt 0.406510 0.460063
vt 0.448816 0.455457
vt 0.408218 0.448671
vt 0.393040 0.448641
vt 0.422919 0.449556
vt 0.436104 0.451733
vt 0.259827 0.445782
vt 0.192093 0.510924
vt 0.459548 0.430534
vt 0.442973 0.428438
vt 0.322112 0.425913
vt 0.425974 0.427846
vt 0.407621 0.425908
vt 0.389091 0.424579
vt 0.560654 0.468220
vt 0.507129 0.439256
vt 0.167054 0.599075
vt 0.605640 0.546179
vt 0.371067 0.424151
vt 0.607880 0.630765
vt 0.456615 0.381029
vt 0.427919 0.376551
vt 0.693559 0.636146
vt 0.659583 0.519592
vt 0.404224 0.377073
vt 0.589784 0.433538
vt 0.380480 0.378543
vt 0.240776 0.406846
vt 0.149283 0.474937
vt 0.351589 0.380635
vt 0.525535 0.398479
vt 0.489182 0.387371
vt 0.304679 0.387572
vt 0.083530 0.585668
vt 0.398528 0.324380
vt 0.368728 0.327127
vt 0.465989 0.328139
vt 0.433006 0.324909
vt 0.553443 0.348510
vt 0.501096 0.335796
vt 0.337198 0.329841
vt 0.213315 0.357458
vt 0.100660 0.429614
vt 0.288073 0.339079
vt 0.640120 0.380462
vt 0.398189 0.245080
vt 0.357511 0.244538
vt 0.694689 0.303864
vt 0.589876 0.270690
vt 0.528649 0.256034
vt 0.255518 0.252184
vt 0.163157 0.269588
vt 0.319847 0.244868
vt 0.483320 0.251003
vt 0.441955 0.246181
vt 0.742042 0.470900
vt 0.803564 0.643297
vt 0.830266 0.403757
vt 0.000000 0.301550
vt 0.000000 0.563744
vt 0.782817 0.183386
vt 0.348928 0.005622
vt 0.299733 0.018622
vt 0.579032 0.035704
vt 0.521263 0.013961
vt 0.214647 0.048193
vt 0.106600 0.103458
vt 0.655696 0.067692
vt 0.465218 0.002651
vt 0.404704 -0.000000
vt 0.584446 0.723228
vt 0.607068 0.671379
vt 0.466673 0.792129
vt 0.534678 0.765792
vt 0.278052 0.771500
vt 0.364638 0.794832
vt 0.159319 0.646740
vt 0.204986 0.722184
vt 0.493378 0.889485
vt 0.586962 0.845381
vt 0.133835 0.782310
vt 0.231598 0.859452
vt 0.685696 0.697012
vt 0.657436 0.780622
vt 0.351520 0.896418
vt 0.077709 0.658357
vt 0.518794 0.977329
vt 0.636755 0.920814
vt 0.069747 0.829016
vt 0.184080 0.940332
vt 0.778521 0.724015
vt 0.727083 0.832746
vt 0.337893 1.000000
vt 0.021964 0.669235
s 1
f 1/1/1 2/2/2 4/3/2 3/4/3
f 3/4/3 5/5/4 16/6/5 1/1/1
f 5/5/4 6/7/6 15/8/7 16/6/5
f 6/7/6 7/9/8 14/10/9 15/8/7
f 7/9/8 8/11/10 13/12/11 14/10/9
f 8/11/10 9/13/12 12/14/13 13/12/11
f 10/15/14 11/16/14 12/14/13 9/13/12
f 1/1/15 16/6/16 24/17/17 17/18/18
f 15/8/19 14/10/20 22/19/21 23/20/22
f 2/2/23 1/1/15 17/18/18 18/21/24
f 13/12/25 12/14/26 20/22/27 21/23/28
f 16/6/16 15/8/19 23/20/22 24/17/17
f 14/10/20 13/12/25 21/23/28 22/19/21
f 12/14/26 11/16/29 19/24/30 20/22/27
f 24/17/17 23/20/22 31/25/31 32/26/32
f 22/19/21 21/23/28 29/27/33 30/28/34
f 20/22/27 19/24/30 27/29/35 28/30/36
f 17/18/18 24/17/17 32/26/32 25/31/37
f 23/20/22 22/19/21 30/28/34 31/25/31
f 21/23/28 20/22/27 28/30/36 29/27/33
f 18/21/24 17/18/18 25/31/37 26/32/38
f 28/30/36 27/29/35 35/33/39 36/34/40
f 25/31/37 32/26/32 40/35/41 33/36/42
f 31/25/31 30/28/34 38/37/43 39/38/44
f 29/27/33 28/30/36 36/34/40 37/39/45
f 26/32/38 25/31/37 33/36/42 34/40/46
f 32/26/32 31/25/31 39/38/44 40/35/41
f 30/28/34 29/27/33 37/39/45 38/37/43
f 38/37/43 37/39/45 43/41/47 44/42/48
f 33/36/42 40/35/41 46/43/49 41/44/50
f 39/38/44 38/37/43 44/42/48 45/45/51
f 37/39/45 36/34/40 42/46/52 43/41/47
f 40/35/41 39/38/44 45/45/51 46/43/49
f 36/34/40 35/33/39 42/46/52
f 33/36/42 41/44/50 34/40/46
f 46/43/49 45/45/51 49/47/53 50/48/54
f 45/45/51 44/42/48 48/49/55 49/47/53
f 44/42/48 43/41/47 47/50/56 48/49/55
f 46/43/49 50/48/54 41/44/50
f 43/41/47 42/46/52 47/50/56
f 18/21/57 26/32/58 55/51/59 53/52/60
f 47/50/61 42/46/62 60/53/63 61/54/64
f 26/32/58 34/40/65 57/55/66 55/51/59
f 49/47/67 48/49/68 62/56/69 63/57/70
f 50/48/71 49/47/67 63/57/70 64/58/72
f 35/33/73 27/29/74 56/59/75 58/60/76
f 2/2/77 18/21/57 53/52/60 51/61/78
f 42/46/62 35/33/73 58/60/76 60/53/63
f 27/29/74 19/24/79 54/62/80 56/59/75
f 34/40/65 41/44/81 59/63/82 57/55/66
f 41/44/81 50/48/71 64/58/72 59/63/82
f 48/49/68 47/50/61 61/54/64 62/56/69
f 19/24/79 11/16/83 52/64/84 54/62/80
f 2/2/77 51/61/78 4/3/85
f 11/16/83 10/15/86 52/64/84
f 62/56/87 61/54/88 75/65/89 76/66/90
f 54/62/80 52/64/84 66/67/91 68/68/92
f 63/57/93 62/56/87 76/66/90 77/69/94
f 56/59/75 54/62/80 68/68/92 70/70/95
f 64/58/96 63/57/93 77/69/94 78/71/97
f 53/52/60 55/51/59 69/72/98 67/73/99
f 59/63/100 64/58/96 78/71/97 73/74/101
f 58/60/102 56/59/75 70/70/95 72/75/103
f 61/54/88 60/53/104 74/76/105 75/65/89
f 55/51/59 57/55/106 71/77/107 69/72/98
f 60/53/104 58/60/102 72/75/103 74/76/105
f 57/55/106 59/63/100 73/74/101 71/77/107
f 51/61/78 53/52/60 67/73/99 65/78/108
f 78/71/97 77/69/109 84/79/110 85/80/111
f 76/66/112 75/65/113 82/81/114 83/82/115
f 74/76/116 72/75/117 79/83/118 81/84/119
f 73/74/101 78/71/97 85/80/111 80/85/120
f 77/69/109 76/66/112 83/82/115 84/79/110
f 75/65/113 74/76/116 81/84/119 82/81/114
f 67/73/99 69/72/98 87/86/121 88/87/122
f 87/86/121 69/72/98 71/77/107 86/88/123
f 71/77/107 73/74/101 80/85/120 86/88/123
f 89/89/124 79/83/118 72/75/117 70/70/95
f 85/80/111 84/79/110 95/90/125 96/91/126
f 79/83/118 89/89/124 99/92/127 90/93/128
f 81/84/119 79/83/118 90/93/128 92/94/129
f 87/86/121 86/88/123 97/95/130 98/96/131
f 80/85/120 85/80/111 96/91/126 91/97/132
f 83/82/115 82/81/114 93/98/133 94/99/134
f 86/88/123 80/85/120 91/97/132 97/95/130
f 82/81/114 81/84/119 92/94/129 93/98/133
f 84/79/110 83/82/115 94/99/134 95/90/125
f 70/70/95 68/68/92 101/100/135 89/89/124
f 68/68/92 66/67/91 100/101/136 101/100/135
f 89/89/124 101/100/135 102/102/137 99/92/127
f 101/100/135 100/101/136 102/102/137
f 88/87/122 87/86/121 98/96/131 104/103/138
f 65/78/108 67/73/99 88/87/122 103/104/139
f 103/104/139 88/87/122 104/103/138
f 99/92/127 102/102/137 114/105/140
f 91/97/132 96/91/126 111/106/141 106/107/142
f 93/98/133 92/94/129 107/108/143 108/109/144
f 98/96/131 97/95/130 112/110/145 113/111/146
f 97/95/130 91/97/132 106/107/142 112/110/145
f 92/94/129 90/93/128 105/112/147 107/108/143
f 104/103/138 98/96/131 113/111/146
f 90/93/128 99/92/127 114/105/140 105/112/147
f 94/99/134 93/98/133 108/109/144 109/113/148
f 95/90/125 94/99/134 109/113/148 110/114/149
f 96/91/126 95/90/125 110/114/149 111/106/141
f 10/15/150 9/13/151 121/115/152 122/116/150
f 8/11/153 7/9/154 119/117/155 120/118/156
f 6/7/157 5/5/158 117/119/159 118/120/160
f 3/4/161 4/3/162 116/121/162 115/122/163
f 9/13/151 8/11/153 120/118/156 121/115/152
f 7/9/154 6/7/157 118/120/160 119/117/155
f 5/5/158 3/4/161 115/122/163 117/119/159
f 10/15/86 122/116/164 52/64/84
f 51/61/78 116/121/165 4/3/85
f 120/118/156 119/117/155 127/123/155 128/124/156
f 117/119/159 115/122/163 123/125/166 125/126/159
f 52/64/84 122/116/164 130/127/167 66/67/91
f 121/115/152 120/118/156 128/124/156 129/128/168
f 118/120/160 117/119/159 125/126/159 126/129/160
f 116/121/165 51/61/78 65/78/108 124/130/169
f 122/116/150 121/115/152 129/128/168 130/127/170
f 119/117/155 118/120/160 126/129/160 127/123/155
f 115/122/163 116/121/162 124/130/171 123/125/166
f 128/124/156 127/123/155 135/131/172 136/132/173
f 125/126/159 123/125/166 131/133/174 133/134/159
f 66/67/91 130/127/167 138/135/175 100/101/136
f 129/128/168 128/124/156 136/132/173 137/136/176
f 126/129/160 125/126/159 133/134/159 134/137/160
f 124/130/169 65/78/108 103/104/139 132/138/177
f 130/127/170 129/128/168 137/136/176 138/135/178
f 127/123/155 126/129/160 134/137/160 135/131/172
f 123/125/166 124/130/171 132/138/179 131/133/174
