# Blender 4.1.0
# www.blender.org
o Left_Stick
v 0.000027 0.123671 -0.059260
v 0.000027 0.173569 -0.059260
v 0.022703 0.123671 -0.054739
v 0.022703 0.173569 -0.054739
v 0.041923 0.123671 -0.041884
v 0.041923 0.173569 -0.041884
v 0.054760 0.123671 -0.022652
v 0.054760 0.173569 -0.022652
v 0.059260 0.123671 0.000027
v 0.059260 0.173569 0.000027
v 0.054739 0.123671 0.022703
v 0.054739 0.173569 0.022703
v 0.041884 0.123671 0.041923
v 0.041884 0.173569 0.041923
v 0.022652 0.123671 0.054760
v 0.022652 0.173569 0.054760
v -0.000028 0.123671 0.059260
v -0.000028 0.173569 0.059260
v -0.022703 0.123671 0.054739
v -0.022703 0.173569 0.054739
v -0.041923 0.123671 0.041884
v -0.041923 0.173569 0.041884
v -0.054760 0.123671 0.022652
v -0.054760 0.173569 0.022652
v -0.059260 0.123671 -0.000028
v -0.059260 0.173569 -0.000028
v -0.054739 0.123671 -0.022703
v -0.054739 0.173569 -0.022703
v -0.041884 0.123671 -0.041923
v -0.041884 0.173569 -0.041923
v -0.022652 0.123671 -0.054760
v -0.022652 0.173569 -0.054760
v 0.000042 0.175949 -0.089572
v 0.034316 0.175949 -0.082738
v 0.063366 0.175949 -0.063308
v 0.082769 0.175949 -0.034239
v 0.089572 0.175949 0.000042
v 0.082738 0.175949 0.034316
v 0.063307 0.175949 0.063366
v 0.034239 0.175949 0.082769
v -0.000042 0.175949 0.089572
v -0.034316 0.175949 0.082738
v -0.063366 0.175949 0.063307
v -0.082770 0.175949 0.034239
v -0.089572 0.175949 -0.000042
v -0.082738 0.175949 -0.034316
v -0.063308 0.175949 -0.063366
v -0.034239 0.175949 -0.082770
v 0.000040 0.111679 -0.085785
v 0.032865 0.111679 -0.079240
v 0.060687 0.111679 -0.060631
v 0.079270 0.111679 -0.032792
v 0.085785 0.111679 0.000040
v 0.079240 0.111679 0.032865
v 0.060631 0.111679 0.060687
v 0.032792 0.111679 0.079270
v -0.000040 0.111679 0.085785
v -0.032865 0.111679 0.079240
v -0.060688 0.111679 0.060631
v -0.079271 0.111679 0.032792
v -0.085785 0.111679 -0.000040
v -0.079240 0.111679 -0.032865
v -0.060631 0.111679 -0.060688
v -0.032792 0.111679 -0.079271
v 0.000053 0.092759 -0.114210
v 0.043755 0.092759 -0.105496
v 0.080796 0.092759 -0.080721
v 0.105537 0.092759 -0.043657
v 0.114210 0.092759 0.000053
v 0.105496 0.092759 0.043755
v 0.080721 0.092759 0.080796
v 0.043657 0.092759 0.105537
v -0.000053 0.092759 0.114210
v -0.043755 0.092759 0.105496
v -0.080796 0.092759 0.080721
v -0.105537 0.092759 0.043657
v -0.114210 0.092759 -0.000053
v -0.105496 0.092759 -0.043755
v -0.080721 0.092759 -0.080796
v -0.043657 0.092759 -0.105537
v 0.000064 0.061266 -0.139006
v 0.053255 0.061266 -0.128400
v 0.098338 0.061266 -0.098247
v 0.128450 0.061266 -0.053136
v 0.139006 0.061266 0.000064
v 0.128400 0.061266 0.053255
v 0.098246 0.061266 0.098338
v 0.053136 0.061266 0.128450
v -0.000065 0.061266 0.139006
v -0.053255 0.061266 0.128400
v -0.098338 0.061266 0.098247
v -0.128450 0.061266 0.053136
v -0.139006 0.061266 -0.000065
v -0.128400 0.061266 -0.053255
v -0.098247 0.061266 -0.098338
v -0.053136 0.061266 -0.128450
v 0.000070 0.020940 -0.150530
v 0.057670 0.020940 -0.139045
v 0.106490 0.020940 -0.106392
v 0.139098 0.020940 -0.057541
v 0.150530 0.020940 0.000070
v 0.139045 0.020940 0.057670
v 0.106391 0.020940 0.106490
v 0.057541 0.020940 0.139098
v -0.000070 0.020940 0.150530
v -0.057670 0.020940 0.139045
v -0.106490 0.020940 0.106391
v -0.139098 0.020940 0.057541
v -0.150530 0.020940 -0.000070
v -0.139045 0.020940 -0.057670
v -0.106392 0.020940 -0.106490
v -0.057541 0.020940 -0.139098
vn 0.0005 -0.0000 -1.0000
vn 0.3831 -0.0000 -0.9237
vn 0.7074 -0.0000 -0.7068
vn 0.9241 -0.0000 -0.3823
vn 1.0000 -0.0000 0.0005
vn 0.9237 -0.0000 0.3831
vn 0.7068 -0.0000 0.7074
vn 0.3823 -0.0000 0.9241
vn -0.0005 -0.0000 1.0000
vn -0.3831 -0.0000 0.9237
vn -0.7074 -0.0000 0.7068
vn -0.9241 -0.0000 0.3823
vn -1.0000 -0.0000 -0.0005
vn -0.9237 -0.0000 -0.3831
vn -0.7068 -0.0000 -0.7074
vn -0.0553 -0.9969 -0.0554
vn -0.0723 -0.9969 -0.0300
vn -0.3823 -0.0000 -0.9241
vn 0.4119 0.9112 0.0002
vn 0.3805 0.9112 0.1578
vn 0.4489 0.8740 0.1862
vn 0.4860 0.8740 0.0002
vn 0.0554 -0.9969 -0.0553
vn 0.0300 -0.9969 -0.0723
vn 0.0299 -0.9969 0.0723
vn 0.0553 -0.9969 0.0554
vn -0.0783 -0.9969 -0.0000
vn -0.0723 -0.9969 0.0299
vn 0.0723 -0.9969 0.0300
vn 0.0783 -0.9969 -0.0000
vn -0.0554 -0.9969 0.0553
vn -0.0300 -0.9969 0.0723
vn -0.0299 -0.9969 -0.0723
vn 0.0723 -0.9969 -0.0299
vn -0.0000 -0.9969 0.0783
vn -0.0000 -0.9969 -0.0783
vn -0.3435 0.8740 -0.3438
vn -0.1858 0.8740 -0.4491
vn -0.2574 0.7394 -0.6222
vn -0.4759 0.7394 -0.4763
vn -0.1578 0.9112 0.3805
vn -0.2914 0.9112 0.2911
vn -0.3438 0.8740 0.3435
vn -0.1862 0.8740 0.4489
vn -0.2911 0.9112 -0.2914
vn -0.1575 0.9112 -0.3807
vn 0.2914 0.9112 -0.2911
vn 0.3807 0.9112 -0.1575
vn 0.4491 0.8740 -0.1858
vn 0.3438 0.8740 -0.3435
vn 0.1575 0.9112 0.3807
vn -0.0002 0.9112 0.4119
vn -0.0002 0.8740 0.4860
vn 0.1858 0.8740 0.4491
vn 0.0002 0.9112 -0.4119
vn 0.1578 0.9112 -0.3805
vn 0.1862 0.8740 -0.4489
vn 0.0002 0.8740 -0.4860
vn -0.4119 0.9112 -0.0002
vn -0.3805 0.9112 -0.1578
vn -0.4489 0.8740 -0.1862
vn -0.4860 0.8740 -0.0002
vn 0.2911 0.9112 0.2914
vn 0.3435 0.8740 0.3438
vn -0.3807 0.9112 0.1575
vn -0.4491 0.8740 0.1858
vn 0.6733 0.7394 0.0003
vn 0.6219 0.7394 0.2579
vn 0.8190 0.4624 0.3397
vn 0.8867 0.4624 0.0004
vn -0.0003 0.7394 0.6733
vn 0.2574 0.7394 0.6222
vn 0.2579 0.7394 -0.6219
vn 0.0003 0.7394 -0.6733
vn -0.2579 0.7394 0.6219
vn 0.4763 0.7394 -0.4759
vn -0.4763 0.7394 0.4759
vn 0.6222 0.7394 -0.2574
vn -0.6222 0.7394 0.2574
vn -0.6733 0.7394 -0.0003
vn -0.6219 0.7394 -0.2579
vn 0.4759 0.7394 0.4763
vn -0.3397 0.4624 0.8190
vn -0.6273 0.4624 0.6267
vn -0.6802 0.2748 0.6796
vn -0.3684 0.2748 0.8881
vn -0.8190 0.4624 -0.3397
vn -0.8867 0.4624 -0.0004
vn 0.6267 0.4624 0.6273
vn -0.6267 0.4624 -0.6273
vn 0.3389 0.4624 0.8193
vn -0.3389 0.4624 -0.8193
vn -0.0004 0.4624 0.8867
vn 0.3397 0.4624 -0.8190
vn 0.0004 0.4624 -0.8867
vn 0.6273 0.4624 -0.6267
vn 0.8193 0.4624 -0.3389
vn -0.8193 0.4624 0.3389
vn 0.8885 0.2748 -0.3675
vn 0.6802 0.2748 -0.6796
vn -0.8885 0.2748 0.3675
vn 0.9615 0.2748 0.0004
vn -0.9615 0.2748 -0.0004
vn 0.8881 0.2748 0.3684
vn -0.8881 0.2748 -0.3684
vn 0.6796 0.2748 0.6802
vn -0.6796 0.2748 -0.6802
vn 0.3675 0.2748 0.8885
vn -0.3675 0.2748 -0.8885
vn -0.0004 0.2748 0.9615
vn 0.3684 0.2748 -0.8881
vn 0.0004 0.2748 -0.9615
vt 0.772789 0.449630
vt 0.772303 0.551568
vt 0.726144 0.551295
vt 0.726780 0.449357
vt 0.680035 0.550972
vt 0.680724 0.449034
vt 0.633978 0.550648
vt 0.634616 0.448711
vt 0.587969 0.550373
vt 0.588458 0.448436
vt 0.541996 0.550190
vt 0.542262 0.448252
vt 0.496042 0.550124
vt 0.496044 0.448187
vt 0.450088 0.550187
vt 0.449827 0.448250
vt 0.404116 0.550369
vt 0.403630 0.448432
vt 0.358107 0.550643
vt 0.357471 0.448705
vt 0.312051 0.550965
vt 0.311362 0.449028
vt 0.265943 0.551289
vt 0.265305 0.449352
vt 0.219785 0.551564
vt 0.219296 0.449626
vt 0.173589 0.551748
vt 0.173323 0.449810
vt 0.127371 0.551813
vt 0.127369 0.449876
vt 0.617972 0.421262
vt 0.578820 0.382156
vt 0.619811 0.320975
vt 0.679217 0.380428
vt 0.864715 0.449876
vt 0.864717 0.551813
vt 0.818500 0.551750
vt 0.818761 0.449813
vt 0.548812 0.576731
vt 0.574274 0.553366
vt 0.619491 0.588112
vt 0.577349 0.625320
vt 0.578856 0.617917
vt 0.617987 0.578799
vt 0.679210 0.619628
vt 0.619829 0.679086
vt 0.360907 0.527633
vt 0.382082 0.578781
vt 0.320862 0.619792
vt 0.288625 0.542069
vt 0.527704 0.360929
vt 0.472377 0.360883
vt 0.458151 0.288636
vt 0.542203 0.288742
vt 0.421227 0.617921
vt 0.472372 0.639099
vt 0.458097 0.711364
vt 0.380378 0.679232
vt 0.421249 0.382027
vt 0.382110 0.421144
vt 0.320895 0.380121
vt 0.380436 0.320713
vt 0.639158 0.472366
vt 0.711337 0.458071
vt 0.527724 0.639094
vt 0.542183 0.711308
vt 0.360949 0.472273
vt 0.288625 0.457869
vt 0.639171 0.527694
vt 0.711314 0.542040
vt 0.358464 0.468146
vt 0.356873 0.525917
vt 0.288775 0.534584
vt 0.292653 0.452258
vt 0.556271 0.430652
vt 0.524856 0.416052
vt 0.537213 0.359890
vt 0.589375 0.384000
vt 0.415302 0.480518
vt 0.413503 0.515647
vt 0.481625 0.588365
vt 0.516399 0.589035
vt 0.524860 0.645436
vt 0.467994 0.644071
vt 0.590428 0.488056
vt 0.579301 0.455987
vt 0.627969 0.426132
vt 0.647268 0.479979
vt 0.425532 0.549020
vt 0.449716 0.574385
vt 0.415908 0.620641
vt 0.377031 0.579248
vt 0.455806 0.426286
vt 0.430225 0.449323
vt 0.383241 0.415970
vt 0.425459 0.376969
vt 0.588901 0.522233
vt 0.644159 0.537021
vt 0.489137 0.414861
vt 0.479660 0.357304
vt 0.611039 0.683306
vt 0.672902 0.626949
vt 0.747169 0.676366
vt 0.660817 0.757815
vt 0.682764 0.389473
vt 0.711865 0.467871
vt 0.373102 0.674391
vt 0.316983 0.612659
vt 0.625977 0.328094
vt 0.449315 0.710700
vt 0.549706 0.293335
vt 0.532767 0.710901
vt 0.465688 0.289906
vt 0.385973 0.318807
vt 0.327543 0.378421
vt 0.708274 0.551377
vt 0.676062 0.252276
vt 0.566223 0.207880
vt 0.582746 0.127953
vt 0.715690 0.195514
vt 0.254104 0.327359
vt 0.337729 0.243604
vt 0.795980 0.568460
vt 0.204948 0.434562
vt 0.800933 0.449615
vt 0.201590 0.552387
vt 0.755058 0.340351
vt 0.324357 0.747384
vt 0.243701 0.662194
vt 0.431160 0.795137
vt 0.549360 0.800349
vt 0.448942 0.202672
vt 0.563760 0.872047
vt 0.416822 0.868059
vt 0.432590 0.129346
vt 0.701401 0.818140
vt 0.299458 0.184452
vt 0.806595 0.715295
vt 0.185114 0.280014
vt 0.863010 0.581430
vt 0.126783 0.420610
vt 0.864074 0.439172
vt 0.126783 0.569150
vt 0.819970 0.299691
vt 0.283625 0.809293
vt 0.182077 0.704870
s 1
f 1/1/1 2/2/1 4/3/2 3/4/2
f 3/4/2 4/3/2 6/5/3 5/6/3
f 5/6/3 6/5/3 8/7/4 7/8/4
f 7/8/4 8/7/4 10/9/5 9/10/5
f 9/10/5 10/9/5 12/11/6 11/12/6
f 11/12/6 12/11/6 14/13/7 13/14/7
f 13/14/7 14/13/7 16/15/8 15/16/8
f 15/16/8 16/15/8 18/17/9 17/18/9
f 17/18/9 18/17/9 20/19/10 19/20/10
f 19/20/10 20/19/10 22/21/11 21/22/11
f 21/22/11 22/21/11 24/23/12 23/24/12
f 23/24/12 24/23/12 26/25/13 25/26/13
f 25/26/13 26/25/13 28/27/14 27/28/14
f 27/28/14 28/27/14 30/29/15 29/30/15
f 30/31/16 28/32/17 46/33/17 47/34/16
f 29/35/15 30/36/15 32/37/18 31/38/18
f 31/38/18 32/37/18 2/2/1 1/1/1
f 9/39/19 11/40/20 54/41/21 53/42/22
f 6/43/23 4/44/24 34/45/24 35/46/23
f 16/47/25 14/48/26 39/49/26 40/50/25
f 26/51/27 24/52/28 44/53/28 45/54/27
f 12/55/29 10/56/30 37/57/30 38/58/29
f 22/59/31 20/60/32 42/61/32 43/62/31
f 32/63/33 30/31/16 47/34/16 48/64/33
f 8/65/34 6/43/23 35/46/23 36/66/34
f 18/67/35 16/47/25 40/50/25 41/68/35
f 4/44/24 2/69/36 33/70/36 34/45/24
f 28/32/17 26/51/27 45/54/27 46/33/17
f 14/48/26 12/55/29 38/58/29 39/49/26
f 24/52/28 22/59/31 43/62/31 44/53/28
f 2/69/36 32/63/33 48/64/33 33/70/36
f 10/56/30 8/65/34 36/66/34 37/57/30
f 20/60/32 18/67/35 41/68/35 42/61/32
f 63/71/37 64/72/38 80/73/39 79/74/40
f 19/75/41 21/76/42 59/77/43 58/78/44
f 29/79/45 31/80/46 64/72/38 63/71/37
f 5/81/47 7/82/48 52/83/49 51/84/50
f 15/85/51 17/86/52 57/87/53 56/88/54
f 1/89/55 3/90/56 50/91/57 49/92/58
f 25/93/59 27/94/60 62/95/61 61/96/62
f 11/40/20 13/97/63 55/98/64 54/41/21
f 21/76/42 23/99/65 60/100/66 59/77/43
f 31/80/46 1/89/55 49/92/58 64/72/38
f 7/82/48 9/39/19 53/42/22 52/83/49
f 17/86/52 19/75/41 58/78/44 57/87/53
f 27/94/60 29/79/45 63/71/37 62/95/61
f 3/90/56 5/81/47 51/84/50 50/91/57
f 13/97/63 15/85/51 56/88/54 55/98/64
f 23/99/65 25/93/59 61/96/62 60/100/66
f 69/101/67 70/102/68 86/103/69 85/104/70
f 56/88/54 57/87/53 73/105/71 72/106/72
f 49/92/58 50/91/57 66/107/73 65/108/74
f 64/72/38 49/92/58 65/108/74 80/73/39
f 57/87/53 58/78/44 74/109/75 73/105/71
f 50/91/57 51/84/50 67/110/76 66/107/73
f 58/78/44 59/77/43 75/111/77 74/109/75
f 51/84/50 52/83/49 68/112/78 67/110/76
f 59/77/43 60/100/66 76/113/79 75/111/77
f 52/83/49 53/42/22 69/101/67 68/112/78
f 60/100/66 61/96/62 77/114/80 76/113/79
f 53/42/22 54/41/21 70/102/68 69/101/67
f 61/96/62 62/95/61 78/115/81 77/114/80
f 54/41/21 55/98/64 71/116/82 70/102/68
f 62/95/61 63/71/37 79/74/40 78/115/81
f 55/98/64 56/88/54 72/106/72 71/116/82
f 90/117/83 91/118/84 107/119/85 106/120/86
f 77/114/80 78/115/81 94/121/87 93/122/88
f 70/102/68 71/116/82 87/123/89 86/103/69
f 78/115/81 79/74/40 95/124/90 94/121/87
f 71/116/82 72/106/72 88/125/91 87/123/89
f 79/74/40 80/73/39 96/126/92 95/124/90
f 72/106/72 73/105/71 89/127/93 88/125/91
f 65/108/74 66/107/73 82/128/94 81/129/95
f 80/73/39 65/108/74 81/129/95 96/126/92
f 73/105/71 74/109/75 90/117/83 89/127/93
f 66/107/73 67/110/76 83/130/96 82/128/94
f 74/109/75 75/111/77 91/118/84 90/117/83
f 67/110/76 68/112/78 84/131/97 83/130/96
f 75/111/77 76/113/79 92/132/98 91/118/84
f 68/112/78 69/101/67 85/104/70 84/131/97
f 76/113/79 77/114/80 93/122/88 92/132/98
f 83/130/96 84/131/97 100/133/99 99/134/100
f 91/118/84 92/132/98 108/135/101 107/119/85
f 84/131/97 85/104/70 101/136/102 100/133/99
f 92/132/98 93/122/88 109/137/103 108/135/101
f 85/104/70 86/103/69 102/138/104 101/136/102
f 93/122/88 94/121/87 110/139/105 109/137/103
f 86/103/69 87/123/89 103/140/106 102/138/104
f 94/121/87 95/124/90 111/141/107 110/139/105
f 87/123/89 88/125/91 104/142/108 103/140/106
f 95/124/90 96/126/92 112/143/109 111/141/107
f 88/125/91 89/127/93 105/144/110 104/142/108
f 81/129/95 82/128/94 98/145/111 97/146/112
f 96/126/92 81/129/95 97/146/112 112/143/109
f 89/127/93 90/117/83 106/120/86 105/144/110
f 82/128/94 83/130/96 99/134/100 98/145/111
