# Blender 4.1.0
# www.blender.org
o Left_Ring
v 0.000042 0.175949 -0.089572
v 0.034316 0.175949 -0.082738
v 0.063366 0.175949 -0.063308
v 0.082769 0.175949 -0.034239
v 0.089572 0.175949 0.000042
v 0.082738 0.175949 0.034316
v 0.063307 0.175949 0.063366
v 0.034239 0.175949 0.082769
v -0.000042 0.175949 0.089572
v -0.034316 0.175949 0.082738
v -0.063366 0.175949 0.063307
v -0.082770 0.175949 0.034239
v -0.089572 0.175949 -0.000042
v -0.082738 0.175949 -0.034316
v -0.063308 0.175949 -0.063366
v -0.034239 0.175949 -0.082770
v 0.000050 0.177781 -0.107450
v 0.041165 0.177781 -0.099252
v 0.076014 0.177781 -0.075944
v 0.099290 0.177781 -0.041073
v 0.107450 0.177781 0.000050
v 0.099252 0.177781 0.041165
v 0.075944 0.177781 0.076014
v 0.041073 0.177781 0.099290
v -0.000050 0.177781 0.107450
v -0.041166 0.177781 0.099252
v -0.076014 0.177781 0.075944
v -0.099290 0.177781 0.041073
v -0.107450 0.177781 -0.000050
v -0.099252 0.177781 -0.041166
v -0.075944 0.177781 -0.076014
v -0.041073 0.177781 -0.099290
v 0.000053 0.184904 -0.113595
v 0.043519 0.184904 -0.104928
v 0.080361 0.184904 -0.080286
v 0.104968 0.184904 -0.043422
v 0.113595 0.184904 0.000053
v 0.104928 0.184904 0.043519
v 0.080286 0.184904 0.080361
v 0.043422 0.184904 0.104968
v -0.000053 0.184904 0.113595
v -0.043520 0.184904 0.104928
v -0.080361 0.184904 0.080286
v -0.104968 0.184904 0.043422
v -0.113595 0.184904 -0.000053
v -0.104928 0.184904 -0.043520
v -0.080286 0.184904 -0.080361
v -0.043422 0.184904 -0.104968
v 0.000052 0.197228 -0.113010
v 0.043296 0.197228 -0.104388
v 0.079947 0.197228 -0.079873
v 0.104428 0.197228 -0.043199
v 0.113010 0.197228 0.000052
v 0.104388 0.197228 0.043296
v 0.079873 0.197228 0.079947
v 0.043199 0.197228 0.104428
v -0.000052 0.197228 0.113010
v -0.043296 0.197228 0.104388
v -0.079948 0.197228 0.079873
v -0.104428 0.197228 0.043199
v -0.113010 0.197228 -0.000053
v -0.104388 0.197228 -0.043296
v -0.079873 0.197228 -0.079948
v -0.043199 0.197228 -0.104428
v 0.000049 0.209521 -0.104879
v 0.040180 0.209521 -0.096877
v 0.074195 0.209521 -0.074126
v 0.096914 0.209521 -0.040091
v 0.104879 0.209521 0.000049
v 0.096877 0.209521 0.040180
v 0.074126 0.209521 0.074195
v 0.040090 0.209521 0.096914
v -0.000049 0.209521 0.104879
v -0.040180 0.209521 0.096877
v -0.074195 0.209521 0.074126
v -0.096914 0.209521 0.040090
v -0.104879 0.209521 -0.000049
v -0.096877 0.209521 -0.040181
v -0.074126 0.209521 -0.074195
v -0.040091 0.209521 -0.096914
v 0.000044 0.216331 -0.095927
v 0.036751 0.216331 -0.088608
v 0.067862 0.216331 -0.067799
v 0.088642 0.216331 -0.036669
v 0.095927 0.216331 0.000044
v 0.088608 0.216331 0.036751
v 0.067799 0.216331 0.067862
v 0.036669 0.216331 0.088642
v -0.000045 0.216331 0.095927
v -0.036751 0.216331 0.088608
v -0.067862 0.216331 0.067799
v -0.088642 0.216331 0.036669
v -0.095927 0.216331 -0.000045
v -0.088608 0.216331 -0.036751
v -0.067799 0.216331 -0.067862
v -0.036669 0.216331 -0.088642
v 0.000040 0.219093 -0.087068
v 0.033357 0.219093 -0.080425
v 0.061595 0.219093 -0.061538
v 0.080455 0.219093 -0.033282
v 0.087068 0.219093 0.000040
v 0.080425 0.219093 0.033357
v 0.061538 0.219093 0.061595
v 0.033282 0.219093 0.080455
v -0.000040 0.219093 0.087068
v -0.033357 0.219093 0.080425
v -0.061595 0.219093 0.061538
v -0.080456 0.219093 0.033282
v -0.087068 0.219093 -0.000040
v -0.080425 0.219093 -0.033357
v -0.061538 0.219093 -0.061595
v -0.033282 0.219093 -0.080456
v 0.000037 0.218602 -0.079276
v 0.030372 0.218602 -0.073228
v 0.056083 0.218602 -0.056031
v 0.073256 0.218602 -0.030304
v 0.079276 0.218602 0.000037
v 0.073228 0.218602 0.030372
v 0.056031 0.218602 0.056083
v 0.030304 0.218602 0.073256
v -0.000037 0.218602 0.079276
v -0.030372 0.218602 0.073228
v -0.056083 0.218602 0.056031
v -0.073256 0.218602 0.030304
v -0.079276 0.218602 -0.000037
v -0.073228 0.218602 -0.030372
v -0.056031 0.218602 -0.056083
v -0.030304 0.218602 -0.073256
v 0.000032 0.213156 -0.069899
v 0.026779 0.213156 -0.064566
v 0.049449 0.213156 -0.049403
v 0.064590 0.213156 -0.026719
v 0.069899 0.213156 0.000032
v 0.064565 0.213156 0.026779
v 0.049403 0.213156 0.049449
v 0.026719 0.213156 0.064590
v -0.000032 0.213156 0.069899
v -0.026779 0.213156 0.064565
v -0.049449 0.213156 0.049403
v -0.064590 0.213156 0.026719
v -0.069899 0.213156 -0.000032
v -0.064565 0.213156 -0.026779
v -0.049403 0.213156 -0.049449
v -0.026719 0.213156 -0.064590
vn -0.0000 -0.9948 0.1019
vn 0.0390 -0.9948 0.0942
vn 0.0391 -0.9948 -0.0942
vn -0.0000 -0.9948 -0.1019
vn -0.0390 -0.9948 -0.0942
vn -0.0391 -0.9948 0.0942
vn 0.0721 -0.9948 -0.0720
vn -0.0721 -0.9948 0.0720
vn 0.0942 -0.9948 -0.0390
vn -0.0942 -0.9948 0.0390
vn 0.1019 -0.9948 -0.0000
vn -0.1019 -0.9948 -0.0000
vn 0.0942 -0.9948 0.0391
vn -0.0942 -0.9948 -0.0391
vn 0.0720 -0.9948 0.0721
vn -0.0720 -0.9948 -0.0721
vn -0.6997 -0.6532 0.2894
vn -0.5357 -0.6532 0.5352
vn -0.6615 -0.3545 0.6609
vn -0.8641 -0.3545 0.3574
vn 0.7572 -0.6532 0.0004
vn 0.6997 -0.6532 -0.2894
vn 0.8641 -0.3545 -0.3574
vn 0.9351 -0.3545 0.0004
vn -0.7572 -0.6532 -0.0004
vn -0.9351 -0.3545 -0.0004
vn 0.6994 -0.6532 0.2901
vn 0.8637 -0.3545 0.3582
vn -0.6994 -0.6532 -0.2901
vn -0.8637 -0.3545 -0.3582
vn 0.5352 -0.6532 0.5357
vn 0.6609 -0.3545 0.6615
vn -0.5352 -0.6532 -0.5357
vn -0.6609 -0.3545 -0.6615
vn 0.2894 -0.6532 0.6997
vn 0.3574 -0.3545 0.8641
vn -0.2894 -0.6532 -0.6997
vn -0.3574 -0.3545 -0.8641
vn -0.0004 -0.6532 0.7572
vn -0.0004 -0.3545 0.9351
vn 0.2901 -0.6532 -0.6994
vn 0.0004 -0.6532 -0.7572
vn 0.0004 -0.3545 -0.9351
vn 0.3582 -0.3545 -0.8637
vn -0.2901 -0.6532 0.6994
vn -0.3582 -0.3545 0.8637
vn 0.5357 -0.6532 -0.5352
vn 0.6615 -0.3545 -0.6609
vn 0.0004 0.3225 -0.9466
vn 0.3626 0.3225 -0.8743
vn -0.3618 0.3225 -0.8747
vn -0.0004 0.3225 0.9466
vn -0.3626 0.3225 0.8743
vn 0.6696 0.3225 -0.6690
vn -0.6696 0.3225 0.6690
vn 0.8747 0.3225 -0.3618
vn -0.8747 0.3225 0.3618
vn 0.9466 0.3225 0.0004
vn -0.9466 0.3225 -0.0004
vn 0.8743 0.3225 0.3626
vn -0.8743 0.3225 -0.3626
vn 0.6690 0.3225 0.6696
vn -0.6690 0.3225 -0.6696
vn 0.3618 0.3225 0.8747
vn 0.6693 0.6892 0.2776
vn 0.5121 0.6892 0.5126
vn -0.6693 0.6892 -0.2776
vn -0.5121 0.6892 -0.5126
vn 0.2770 0.6892 0.6696
vn -0.2770 0.6892 -0.6696
vn -0.0003 0.6892 0.7246
vn 0.0003 0.6892 -0.7246
vn 0.2776 0.6892 -0.6693
vn -0.2776 0.6892 0.6693
vn 0.5126 0.6892 -0.5121
vn -0.5126 0.6892 0.5121
vn 0.6696 0.6892 -0.2770
vn -0.6696 0.6892 0.2770
vn 0.7246 0.6892 0.0003
vn -0.7246 0.6892 -0.0003
vn -0.3191 0.8925 0.3188
vn -0.4168 0.8925 0.1724
vn 0.4169 0.8925 -0.1724
vn 0.4511 0.8925 0.0002
vn -0.4511 0.8925 -0.0002
vn 0.4167 0.8925 0.1728
vn -0.4167 0.8925 -0.1728
vn 0.3188 0.8925 0.3191
vn -0.3188 0.8925 -0.3191
vn 0.1724 0.8925 0.4168
vn -0.1724 0.8925 -0.4168
vn -0.0002 0.8925 0.4511
vn 0.0002 0.8925 -0.4511
vn 0.1728 0.8925 -0.4167
vn -0.1728 0.8925 0.4167
vn 0.3191 0.8925 -0.3188
vn 0.0001 0.9916 -0.1293
vn 0.0496 0.9916 -0.1195
vn -0.0494 0.9916 -0.1195
vn -0.0001 0.9916 0.1293
vn -0.0496 0.9916 0.1195
vn 0.0915 0.9916 -0.0914
vn -0.0915 0.9916 0.0914
vn 0.1195 0.9916 -0.0494
vn -0.1195 0.9916 0.0494
vn 0.1293 0.9916 0.0001
vn -0.1293 0.9916 -0.0001
vn 0.1195 0.9916 0.0496
vn -0.1195 0.9916 -0.0496
vn 0.0914 0.9916 0.0915
vn -0.0914 0.9916 -0.0915
vn 0.0494 0.9916 0.1195
vn 0.1660 0.9721 -0.1659
vn 0.2168 0.9721 -0.0897
vn -0.2168 0.9721 0.0897
vn -0.2347 0.9721 -0.0001
vn 0.2347 0.9721 0.0001
vn -0.2168 0.9721 -0.0899
vn 0.2168 0.9721 0.0899
vn -0.1659 0.9721 -0.1660
vn 0.1659 0.9721 0.1660
vn -0.0897 0.9721 -0.2168
vn 0.0897 0.9721 0.2168
vn 0.0001 0.9721 -0.2347
vn -0.0001 0.9721 0.2347
vn -0.0899 0.9721 0.2168
vn 0.0899 0.9721 -0.2168
vn -0.1660 0.9721 0.1659
vn -0.0002 0.8647 0.5022
vn -0.1924 0.8647 0.4639
vn 0.1920 0.8647 0.4641
vn 0.0002 0.8647 -0.5022
vn 0.1924 0.8647 -0.4639
vn -0.3553 0.8647 0.3550
vn 0.3553 0.8647 -0.3550
vn -0.4641 0.8647 0.1920
vn 0.4641 0.8647 -0.1920
vn -0.5022 0.8647 -0.0002
vn 0.5022 0.8647 0.0002
vn -0.4639 0.8647 -0.1924
vn 0.4639 0.8647 0.1924
vn -0.3550 0.8647 -0.3553
vn 0.3550 0.8647 0.3553
vn -0.1920 0.8647 -0.4641
vt 0.606569 -0.000000
vt 0.787879 0.073511
vt 0.742391 0.150983
vt 0.593606 0.090199
vt 0.660209 0.982288
vt 0.466586 1.000000
vt 0.479683 0.910419
vt 0.638645 0.895184
vt 0.277947 0.945166
vt 0.324517 0.866636
vt 0.408282 -0.000000
vt 0.430281 0.090571
vt 0.831418 0.890286
vt 0.778291 0.819465
vt 0.218105 0.074350
vt 0.274998 0.154485
vt 0.949542 0.741278
vt 0.875777 0.698255
vt 0.055295 0.223662
vt 0.150512 0.280597
vt 0.998076 0.565558
vt 0.921962 0.555099
vt 0.000000 0.438886
vt 0.098215 0.450654
vt 0.998834 0.383311
vt 0.916292 0.404767
vt 0.027422 0.643451
vt 0.118177 0.618746
vt 0.925479 0.208869
vt 0.855102 0.262125
vt 0.123875 0.818680
vt 0.197729 0.763203
vt 0.308163 0.204113
vt 0.206402 0.313739
vt 0.827428 0.672146
vt 0.868338 0.547591
vt 0.159905 0.456560
vt 0.862642 0.416497
vt 0.175308 0.600949
vt 0.808676 0.293649
vt 0.241428 0.726821
vt 0.710902 0.198541
vt 0.352023 0.814009
vt 0.582415 0.147027
vt 0.484811 0.854711
vt 0.621400 0.839208
vt 0.441643 0.148675
vt 0.742540 0.776150
vt 0.491441 0.781864
vt 0.600970 0.771886
vt 0.385890 0.748838
vt 0.569657 0.219016
vt 0.456791 0.220188
vt 0.696284 0.720030
vt 0.352242 0.267872
vt 0.765175 0.638862
vt 0.275178 0.354538
vt 0.799418 0.538930
vt 0.236922 0.464222
vt 0.794403 0.432872
vt 0.246326 0.578930
vt 0.750568 0.334918
vt 0.300210 0.677956
vt 0.672259 0.259570
vt 0.736089 0.447452
vt 0.701384 0.370605
vt 0.307490 0.560638
vt 0.349244 0.637841
vt 0.640021 0.311808
vt 0.414962 0.693707
vt 0.559699 0.280601
vt 0.497183 0.720281
vt 0.583502 0.713475
vt 0.471987 0.282799
vt 0.658263 0.672922
vt 0.391123 0.319945
vt 0.713482 0.609889
vt 0.330878 0.386328
vt 0.739348 0.530693
vt 0.301176 0.471147
vt 0.412422 0.348343
vt 0.361586 0.404126
vt 0.684432 0.592944
vt 0.706829 0.525782
vt 0.336477 0.475406
vt 0.703308 0.455217
vt 0.341444 0.550854
vt 0.674084 0.390368
vt 0.376079 0.616783
vt 0.622230 0.340682
vt 0.432020 0.663864
vt 0.554293 0.314616
vt 0.501532 0.686274
vt 0.574243 0.680320
vt 0.480409 0.316915
vt 0.638008 0.646785
vt 0.503778 0.665855
vt 0.568438 0.660638
vt 0.442055 0.645817
vt 0.550866 0.334961
vt 0.485363 0.337292
vt 0.625449 0.631126
vt 0.425075 0.365358
vt 0.666907 0.583076
vt 0.379919 0.414957
vt 0.687095 0.523186
vt 0.357619 0.478335
vt 0.683972 0.459967
vt 0.362005 0.545115
vt 0.657626 0.402131
vt 0.392242 0.603798
vt 0.611349 0.357926
vt 0.434192 0.377759
vt 0.393344 0.423005
vt 0.654234 0.575779
vt 0.672723 0.521174
vt 0.372770 0.480464
vt 0.669825 0.463346
vt 0.376846 0.541046
vt 0.645570 0.410613
vt 0.404185 0.594264
vt 0.603418 0.370600
vt 0.449254 0.632880
vt 0.548484 0.349502
vt 0.505518 0.651003
vt 0.564340 0.646308
vt 0.488896 0.352076
vt 0.616386 0.619585
vt 0.508296 0.623886
vt 0.556661 0.620336
vt 0.462113 0.608782
vt 0.544320 0.376772
vt 0.495814 0.378980
vt 0.599778 0.598769
vt 0.451052 0.400044
vt 0.631641 0.562870
vt 0.417515 0.437117
vt 0.646483 0.517457
vt 0.400571 0.484550
vt 0.643506 0.469587
vt 0.403256 0.533901
vt 0.624208 0.425716
vt 0.425201 0.577020
vt 0.589281 0.393272
s 1
f 9/1/1 8/2/2 24/3/2 25/4/1
f 2/5/3 1/6/4 17/7/4 18/8/3
f 1/6/4 16/9/5 32/10/5 17/7/4
f 10/11/6 9/1/1 25/4/1 26/12/6
f 3/13/7 2/5/3 18/8/3 19/14/7
f 11/15/8 10/11/6 26/12/6 27/16/8
f 4/17/9 3/13/7 19/14/7 20/18/9
f 12/19/10 11/15/8 27/16/8 28/20/10
f 5/21/11 4/17/9 20/18/9 21/22/11
f 13/23/12 12/19/10 28/20/10 29/24/12
f 6/25/13 5/21/11 21/22/11 22/26/13
f 14/27/14 13/23/12 29/24/12 30/28/14
f 7/29/15 6/25/13 22/26/13 23/30/15
f 15/31/16 14/27/14 30/28/14 31/32/16
f 8/2/2 7/29/15 23/30/15 24/3/2
f 16/9/5 15/31/16 31/32/16 32/10/5
f 28/20/17 27/16/18 43/33/19 44/34/20
f 21/22/21 20/18/22 36/35/23 37/36/24
f 29/24/25 28/20/17 44/34/20 45/37/26
f 22/26/27 21/22/21 37/36/24 38/38/28
f 30/28/29 29/24/25 45/37/26 46/39/30
f 23/30/31 22/26/27 38/38/28 39/40/32
f 31/32/33 30/28/29 46/39/30 47/41/34
f 24/3/35 23/30/31 39/40/32 40/42/36
f 32/10/37 31/32/33 47/41/34 48/43/38
f 25/4/39 24/3/35 40/42/36 41/44/40
f 18/8/41 17/7/42 33/45/43 34/46/44
f 17/7/42 32/10/37 48/43/38 33/45/43
f 26/12/45 25/4/39 41/44/40 42/47/46
f 19/14/47 18/8/41 34/46/44 35/48/48
f 27/16/18 26/12/45 42/47/46 43/33/19
f 20/18/22 19/14/47 35/48/48 36/35/23
f 34/46/44 33/45/43 49/49/49 50/50/50
f 33/45/43 48/43/38 64/51/51 49/49/49
f 42/47/46 41/44/40 57/52/52 58/53/53
f 35/48/48 34/46/44 50/50/50 51/54/54
f 43/33/19 42/47/46 58/53/53 59/55/55
f 36/35/23 35/48/48 51/54/54 52/56/56
f 44/34/20 43/33/19 59/55/55 60/57/57
f 37/36/24 36/35/23 52/56/56 53/58/58
f 45/37/26 44/34/20 60/57/57 61/59/59
f 38/38/28 37/36/24 53/58/58 54/60/60
f 46/39/30 45/37/26 61/59/59 62/61/61
f 39/40/32 38/38/28 54/60/60 55/62/62
f 47/41/34 46/39/30 62/61/61 63/63/63
f 40/42/36 39/40/32 55/62/62 56/64/64
f 48/43/38 47/41/34 63/63/63 64/51/51
f 41/44/40 40/42/36 56/64/64 57/52/52
f 55/62/62 54/60/60 70/65/65 71/66/66
f 63/63/63 62/61/61 78/67/67 79/68/68
f 56/64/64 55/62/62 71/66/66 72/69/69
f 64/51/51 63/63/63 79/68/68 80/70/70
f 57/52/52 56/64/64 72/69/69 73/71/71
f 50/50/50 49/49/49 65/72/72 66/73/73
f 49/49/49 64/51/51 80/70/70 65/72/72
f 58/53/53 57/52/52 73/71/71 74/74/74
f 51/54/54 50/50/50 66/73/73 67/75/75
f 59/55/55 58/53/53 74/74/74 75/76/76
f 52/56/56 51/54/54 67/75/75 68/77/77
f 60/57/57 59/55/55 75/76/76 76/78/78
f 53/58/58 52/56/56 68/77/77 69/79/79
f 61/59/59 60/57/57 76/78/78 77/80/80
f 54/60/60 53/58/58 69/79/79 70/65/65
f 62/61/61 61/59/59 77/80/80 78/67/67
f 76/78/78 75/76/76 91/81/81 92/82/82
f 69/79/79 68/77/77 84/83/83 85/84/84
f 77/80/80 76/78/78 92/82/82 93/85/85
f 70/65/65 69/79/79 85/84/84 86/86/86
f 78/67/67 77/80/80 93/85/85 94/87/87
f 71/66/66 70/65/65 86/86/86 87/88/88
f 79/68/68 78/67/67 94/87/87 95/89/89
f 72/69/69 71/66/66 87/88/88 88/90/90
f 80/70/70 79/68/68 95/89/89 96/91/91
f 73/71/71 72/69/69 88/90/90 89/92/92
f 66/73/73 65/72/72 81/93/93 82/94/94
f 65/72/72 80/70/70 96/91/91 81/93/93
f 74/74/74 73/71/71 89/92/92 90/95/95
f 67/75/75 66/73/73 82/94/94 83/96/96
f 75/76/76 74/74/74 90/95/95 91/81/81
f 68/77/77 67/75/75 83/96/96 84/83/83
f 82/94/94 81/93/93 97/97/97 98/98/98
f 81/93/93 96/91/91 112/99/99 97/97/97
f 90/95/95 89/92/92 105/100/100 106/101/101
f 83/96/96 82/94/94 98/98/98 99/102/102
f 91/81/81 90/95/95 106/101/101 107/103/103
f 84/83/83 83/96/96 99/102/102 100/104/104
f 92/82/82 91/81/81 107/103/103 108/105/105
f 85/84/84 84/83/83 100/104/104 101/106/106
f 93/85/85 92/82/82 108/105/105 109/107/107
f 86/86/86 85/84/84 101/106/106 102/108/108
f 94/87/87 93/85/85 109/107/107 110/109/109
f 87/88/88 86/86/86 102/108/108 103/110/110
f 95/89/89 94/87/87 110/109/109 111/111/111
f 88/90/90 87/88/88 103/110/110 104/112/112
f 96/91/91 95/89/89 111/111/111 112/99/99
f 89/92/92 88/90/90 104/112/112 105/100/100
f 108/105/105 107/103/103 123/113/113 124/114/114
f 101/106/106 100/104/104 116/115/115 117/116/116
f 109/107/107 108/105/105 124/114/114 125/117/117
f 102/108/108 101/106/106 117/116/116 118/118/118
f 110/109/109 109/107/107 125/117/117 126/119/119
f 103/110/110 102/108/108 118/118/118 119/120/120
f 111/111/111 110/109/109 126/119/119 127/121/121
f 104/112/112 103/110/110 119/120/120 120/122/122
f 112/99/99 111/111/111 127/121/121 128/123/123
f 105/100/100 104/112/112 120/122/122 121/124/124
f 98/98/98 97/97/97 113/125/125 114/126/126
f 97/97/97 112/99/99 128/123/123 113/125/125
f 106/101/101 105/100/100 121/124/124 122/127/127
f 99/102/102 98/98/98 114/126/126 115/128/128
f 107/103/103 106/101/101 122/127/127 123/113/113
f 100/104/104 99/102/102 115/128/128 116/115/115
f 114/126/126 113/125/125 129/129/129 130/130/130
f 113/125/125 128/123/123 144/131/131 129/129/129
f 122/127/127 121/124/124 137/132/132 138/133/133
f 115/128/128 114/126/126 130/130/130 131/134/134
f 123/113/113 122/127/127 138/133/133 139/135/135
f 116/115/115 115/128/128 131/134/134 132/136/136
f 124/114/114 123/113/113 139/135/135 140/137/137
f 117/116/116 116/115/115 132/136/136 133/138/138
f 125/117/117 124/114/114 140/137/137 141/139/139
f 118/118/118 117/116/116 133/138/138 134/140/140
f 126/119/119 125/117/117 141/139/139 142/141/141
f 119/120/120 118/118/118 134/140/140 135/142/142
f 127/121/121 126/119/119 142/141/141 143/143/143
f 120/122/122 119/120/120 135/142/142 136/144/144
f 128/123/123 127/121/121 143/143/143 144/131/131
f 121/124/124 120/122/122 136/144/144 137/132/132
