# Blender 4.1.0
# www.blender.org
o Right_Trigger
v 0.082337 -0.005885 -0.065346
v 0.115534 -0.008108 -0.052241
v 0.083015 0.021948 -0.050048
v 0.124286 0.022792 -0.033308
v 0.047639 0.022040 -0.058794
v 0.013416 0.022278 -0.061916
v -0.025313 0.021932 -0.060901
v -0.053721 0.022095 -0.057170
v -0.080500 0.022351 -0.050984
v -0.106327 0.023191 -0.039540
v -0.103483 -0.004636 -0.058023
v -0.078012 -0.004140 -0.066404
v -0.052681 -0.005102 -0.071829
v -0.023762 -0.004852 -0.076225
v 0.013516 -0.004712 -0.076988
v 0.050351 -0.004300 -0.072894
v 0.074147 -0.047478 -0.057845
v 0.104558 -0.049508 -0.045768
v -0.098652 -0.046170 -0.049930
v -0.072282 -0.045884 -0.058811
v -0.049151 -0.045856 -0.062640
v -0.022743 -0.045628 -0.064713
v 0.011299 -0.045470 -0.065410
v 0.044937 -0.046030 -0.064738
v 0.065938 -0.092713 -0.053950
v 0.092849 -0.094650 -0.046651
v -0.094662 -0.091466 -0.045528
v -0.069012 -0.091192 -0.052593
v -0.046943 -0.091165 -0.056801
v -0.021746 -0.090948 -0.059632
v 0.010733 -0.090798 -0.060297
v 0.039948 -0.091332 -0.057806
v 0.054073 -0.131405 -0.057785
v 0.078509 -0.133049 -0.053637
v -0.084169 -0.130347 -0.050050
v -0.063823 -0.130115 -0.055811
v -0.042742 -0.130092 -0.057734
v -0.019996 -0.129907 -0.059261
v 0.007779 -0.129780 -0.060288
v 0.033969 -0.130233 -0.059103
v 0.049731 -0.167112 -0.063505
v -0.056701 -0.165911 -0.061666
v -0.040137 -0.165890 -0.064537
v -0.018965 -0.165718 -0.065711
v 0.006889 -0.165599 -0.065835
v 0.031268 -0.166021 -0.064732
v -0.040137 -0.176708 -0.065187
v -0.018963 -0.183895 -0.068958
v 0.006891 -0.183777 -0.069082
v 0.031269 -0.178021 -0.066520
v 0.123507 -0.000306 -0.014719
v -0.108263 0.003475 -0.021012
v 0.111893 -0.045390 -0.007669
v -0.103151 -0.041756 -0.012200
v 0.099501 -0.094551 -0.008631
v -0.098929 -0.091083 -0.007405
v 0.084327 -0.136367 -0.016239
v -0.087824 -0.133425 -0.012330
v 0.053873 -0.173463 -0.026984
v -0.058756 -0.172155 -0.024980
v -0.041228 -0.183913 -0.028815
v -0.018822 -0.191740 -0.032923
v 0.008538 -0.191611 -0.033058
v 0.034336 -0.185343 -0.030268
v 0.120598 -0.000306 0.017679
v -0.106480 0.003475 0.013039
v 0.106497 -0.045390 0.016294
v -0.101363 -0.041756 0.013886
v 0.090842 -0.094073 0.013288
v -0.087133 -0.088193 0.014323
v 0.071652 -0.123970 0.006656
v -0.068632 -0.122415 0.008875
v 0.048549 -0.142711 0.001199
v -0.051551 -0.138053 0.004280
v -0.030302 -0.146573 -0.000215
v -0.008216 -0.150667 -0.002243
v 0.010631 -0.152215 -0.002984
v 0.028848 -0.149040 -0.002430
v -0.065272 -0.118270 0.038041
v 0.045246 -0.131709 0.030396
v -0.043054 -0.131687 0.033405
v -0.024976 -0.137756 0.031480
v -0.006805 -0.140526 0.029673
v 0.012750 -0.140308 0.029380
v 0.028995 -0.136562 0.028732
v 0.067002 -0.119622 0.032932
v 0.089265 -0.093674 0.038326
v 0.107412 -0.046262 0.040441
v -0.086160 -0.085434 0.045299
v -0.064218 -0.115290 0.074152
v 0.045227 -0.129744 0.071233
v -0.043072 -0.129722 0.072509
v -0.024995 -0.136820 0.070482
v -0.006824 -0.139926 0.069711
v 0.012731 -0.139709 0.069026
v 0.030234 -0.135626 0.069806
v 0.066984 -0.114432 0.072664
v 0.089248 -0.088794 0.075430
v -0.084844 -0.082552 0.077685
v -0.104785 0.006542 0.040735
v -0.099671 -0.040353 0.047461
v -0.099685 -0.038689 0.076735
v 0.120586 -0.000306 0.042087
v 0.102505 -0.045530 0.085466
v -0.060825 -0.097804 0.140144
v 0.043036 -0.108460 0.145625
v -0.040762 -0.108439 0.146836
v -0.023608 -0.114199 0.151458
v -0.006365 -0.116828 0.153793
v 0.012193 -0.116621 0.153143
v 0.028805 -0.113065 0.150248
v 0.063689 -0.096989 0.136483
v 0.084825 -0.077670 0.124166
v -0.084757 -0.070777 0.117670
v 0.082998 0.021948 -0.013248
v 0.124276 0.022792 -0.011268
v 0.047619 0.022040 -0.014377
v 0.013394 0.022278 -0.015217
v -0.025335 0.021932 -0.014201
v -0.053741 0.022095 -0.014020
v -0.080517 0.022351 -0.014185
v -0.106337 0.023191 -0.017500
v 0.082983 0.021948 0.018166
v 0.124262 0.022792 0.020146
v 0.047604 0.022040 0.017036
v 0.013380 0.022278 0.016197
v -0.025349 0.021932 0.017212
v -0.053756 0.022095 0.017394
v -0.080532 0.022351 0.017229
v -0.106352 0.023191 0.013914
v 0.082974 0.021948 0.038824
v 0.122380 0.022795 0.034407
v 0.047594 0.022040 0.039380
v 0.013369 0.022278 0.039796
v -0.025360 0.021932 0.039556
v -0.053766 0.022095 0.038854
v -0.080541 0.022351 0.037462
v -0.104488 0.023188 0.036308
vn 0.2764 0.4541 -0.8470
vn 0.2878 0.4504 -0.8452
vn 0.3425 0.4314 -0.8346
vn 0.1543 0.4777 -0.8649
vn 0.1526 0.4778 -0.8651
vn 0.0311 0.4873 -0.8727
vn 0.0325 0.4872 -0.8727
vn -0.0710 0.4854 -0.8714
vn -0.0766 0.4846 -0.8714
vn -0.1503 0.4749 -0.8671
vn -0.1550 0.4744 -0.8666
vn -0.2387 0.4766 -0.8461
vn -0.2583 0.4779 -0.8396
vn -0.3133 0.4805 -0.8191
vn 0.2833 -0.2244 -0.9324
vn 0.2649 -0.1730 -0.9486
vn 0.1275 -0.1843 -0.9746
vn 0.1437 -0.2261 -0.9635
vn 0.0245 -0.2548 -0.9667
vn 0.0181 -0.1906 -0.9815
vn -0.0607 -0.1902 -0.9799
vn -0.0644 -0.2616 -0.9630
vn 0.3445 -0.2327 -0.9095
vn 0.3308 -0.1734 -0.9276
vn -0.1503 -0.2328 -0.9609
vn -0.1409 -0.1831 -0.9729
vn -0.2385 -0.1769 -0.9549
vn -0.2505 -0.2151 -0.9439
vn -0.2979 -0.1750 -0.9384
vn -0.3057 -0.2135 -0.9279
vn 0.1028 -0.0578 -0.9930
vn 0.0175 -0.0610 -0.9980
vn -0.0582 -0.0599 -0.9965
vn -0.1253 -0.0561 -0.9905
vn -0.2216 -0.0498 -0.9739
vn -0.2812 -0.0563 -0.9580
vn 0.2112 -0.0362 -0.9768
vn 0.2755 -0.0330 -0.9607
vn -0.2045 0.0824 -0.9754
vn -0.2700 0.0614 -0.9609
vn 0.1432 0.0956 -0.9851
vn 0.0750 0.0862 -0.9935
vn 0.0152 0.0801 -0.9967
vn -0.0506 0.0853 -0.9951
vn -0.1048 0.0924 -0.9902
vn 0.2061 0.0856 -0.9748
vn -0.0455 0.1631 -0.9856
vn -0.1121 0.1319 -0.9849
vn 0.0946 0.1460 -0.9848
vn 0.0626 0.1532 -0.9862
vn 0.0187 0.1644 -0.9862
vn -0.1586 0.1281 -0.9790
vn 0.0626 0.1581 -0.9854
vn 0.0226 0.1707 -0.9851
vn -0.0440 0.1571 -0.9866
vn -0.1199 0.1076 -0.9869
vn 0.9540 -0.2558 -0.1564
vn 0.9627 -0.2682 0.0361
vn 0.9325 -0.3375 0.1282
vn 0.9454 -0.2807 -0.1655
vn -0.4558 -0.8704 -0.1859
vn -0.4714 -0.8624 -0.1843
vn -0.7098 -0.6874 -0.1536
vn -0.6881 -0.7084 -0.1571
vn 0.8789 -0.4430 -0.1769
vn 0.8599 -0.4781 -0.1788
vn 0.1220 -0.9689 -0.2151
vn 0.1325 -0.9675 -0.2152
vn -0.1819 -0.9613 -0.2069
vn -0.1710 -0.9632 -0.2075
vn 0.3825 -0.8990 -0.2134
vn 0.4043 -0.8895 -0.2128
vn -0.8942 -0.4299 -0.1247
vn -0.9094 -0.3975 -0.1223
vn -0.9520 -0.2323 0.1994
vn -0.9790 -0.1721 -0.1091
vn 0.9582 -0.2393 -0.1567
vn 0.9828 -0.1833 -0.0241
vn -0.9916 -0.1258 0.0315
vn -0.9879 -0.1147 -0.1042
vn 0.6765 -0.7097 -0.1969
vn 0.6519 -0.7317 -0.1992
vn -0.9991 -0.0338 -0.0262
vn -0.9895 -0.0961 -0.1080
vn 0.9886 -0.1133 -0.0994
vn -0.9967 0.0250 -0.0776
vn -0.0262 -0.5981 0.8010
vn -0.0250 -0.5983 0.8008
vn -0.0991 -0.5979 0.7954
vn -0.0886 -0.5972 0.7972
vn -0.9787 -0.1692 0.1165
vn -0.9978 -0.0379 0.0542
vn 0.0288 -0.6035 0.7969
vn 0.0346 -0.6036 0.7965
vn -0.8933 -0.3536 0.2773
vn 0.1029 -0.6109 0.7850
vn 0.1620 -0.7817 0.6022
vn 0.9509 -0.2918 0.1033
vn 0.8674 -0.4365 0.2390
vn 0.2430 -0.6217 0.7446
vn 0.3446 -0.7581 0.5538
vn -0.5424 -0.4831 0.6873
vn -0.5624 -0.4690 0.6810
vn -0.3053 -0.5857 0.7508
vn -0.2245 -0.5951 0.7716
vn 0.6389 -0.6428 0.4227
vn 0.5674 -0.5575 0.6060
vn 0.9799 -0.1921 0.0528
vn 0.2424 -0.9495 0.1993
vn 0.1051 -0.9780 0.1800
vn 0.0762 -0.9383 0.3373
vn -0.0765 -0.9471 0.3118
vn -0.0761 -0.9823 0.1710
vn -0.2299 -0.9593 0.1640
vn -0.2093 -0.9321 0.2957
vn -0.4115 -0.8683 0.2771
vn -0.4239 -0.8902 0.1671
vn -0.7054 -0.6971 0.1283
vn -0.6872 -0.6981 0.2010
vn 0.4044 -0.8936 0.1946
vn 0.9502 -0.3085 0.0436
vn 0.8620 -0.5003 0.0814
vn 0.6468 -0.7467 0.1550
vn -0.9053 -0.4183 0.0734
vn 0.2829 -0.9487 0.1414
vn 0.1217 -0.9831 0.1370
vn -0.6899 -0.7092 0.1451
vn -0.8918 -0.4405 0.1036
vn -0.4391 -0.8851 0.1545
vn 0.8519 -0.5055 0.1370
vn 0.6440 -0.7487 0.1573
vn 0.4400 -0.8844 0.1561
vn -0.0735 -0.9872 0.1414
vn -0.2540 -0.9564 0.1439
vn -0.9781 -0.2038 0.0414
vn -0.9968 -0.0562 0.0571
vn -0.9666 -0.2522 0.0455
vn 0.9418 -0.3170 0.1123
vn 0.9741 -0.2241 0.0308
vn -0.8663 -0.4759 0.1519
vn 0.4377 -0.8616 0.2570
vn 0.2823 -0.9225 0.2634
vn -0.2496 -0.9313 0.2651
vn -0.4287 -0.8662 0.2567
vn 0.8078 -0.5544 0.2003
vn 0.6265 -0.7433 0.2347
vn -0.6541 -0.7226 0.2236
vn -0.0710 -0.9614 0.2660
vn 0.1187 -0.9568 0.2653
vn 0.0325 0.9995 -0.0000
vn 0.0211 0.9998 -0.0000
vn 0.0185 0.9998 -0.0000
vn 0.0074 1.0000 -0.0000
vn 0.0077 1.0000 -0.0000
vn -0.0016 1.0000 -0.0000
vn -0.0020 1.0000 -0.0000
vn -0.0012 1.0000 -0.0000
vn -0.0010 1.0000 -0.0000
vn 0.0048 1.0000 -0.0000
vn 0.0050 1.0000 -0.0000
vn -0.0065 1.0000 -0.0000
vn -0.0089 1.0000 -0.0000
vn -0.0204 0.9998 -0.0000
vn -0.9974 0.0705 0.0148
vn 0.9972 -0.0705 0.0251
vn -0.0091 1.0000 -0.0003
vn -0.9982 0.0333 0.0490
vn 0.0214 0.9998 -0.0004
vn 0.9932 -0.1068 0.0472
vn 0.0331 0.9995 -0.0006
vn -0.0207 0.9998 -0.0006
vn 0.0076 1.0000 -0.0000
vn -0.0017 1.0000 -0.0000
vn -0.0087 1.0000 -0.0006
vn -0.9974 0.0185 0.0697
vn 0.0213 0.9998 -0.0007
vn 0.9925 -0.1118 0.0486
vn 0.0338 0.9994 -0.0014
vn -0.0210 0.9998 -0.0012
vt 0.551352 0.619537
vt 0.574299 0.664641
vt 0.633797 0.638161
vt 0.599516 0.602265
vt 0.504197 0.633214
vt 0.513716 0.681409
vt 0.448997 0.639939
vt 0.453704 0.690551
vt 0.393555 0.641346
vt 0.385720 0.690788
vt 0.350911 0.636811
vt 0.336766 0.683282
vt 0.314591 0.631355
vt 0.294087 0.671172
vt 0.256769 0.658134
vt 0.280303 0.623895
vt 0.527131 0.561878
vt 0.486659 0.574644
vt 0.441428 0.581486
vt 0.395986 0.582475
vt 0.573412 0.542527
vt 0.360626 0.579267
vt 0.328909 0.574011
vt 0.289147 0.564122
vt 0.468136 0.519273
vt 0.435508 0.526076
vt 0.399418 0.526821
vt 0.371087 0.523049
vt 0.345495 0.516574
vt 0.313410 0.503920
vt 0.497361 0.507639
vt 0.529056 0.488781
vt 0.365176 0.479558
vt 0.347060 0.471311
vt 0.467831 0.475020
vt 0.450819 0.482792
vt 0.428063 0.488162
vt 0.403639 0.488275
vt 0.383761 0.485254
vt 0.487841 0.461981
vt 0.406704 0.460981
vt 0.392548 0.458636
vt 0.451543 0.450759
vt 0.439725 0.456221
vt 0.423756 0.460063
vt 0.381450 0.455457
vt 0.437227 0.448641
vt 0.422048 0.448671
vt 0.407347 0.449556
vt 0.394162 0.451733
vt 0.638174 0.510923
vt 0.570439 0.445782
vt 0.387293 0.428438
vt 0.370718 0.430534
vt 0.508154 0.425913
vt 0.422645 0.425908
vt 0.404292 0.427846
vt 0.441175 0.424579
vt 0.323137 0.439256
vt 0.269612 0.468220
vt 0.663213 0.599075
vt 0.224626 0.546179
vt 0.459199 0.424151
vt 0.222387 0.630765
vt 0.402348 0.376551
vt 0.373652 0.381029
vt 0.170684 0.519592
vt 0.136707 0.636146
vt 0.426042 0.377073
vt 0.240482 0.433538
vt 0.449786 0.378543
vt 0.680983 0.474937
vt 0.589490 0.406846
vt 0.478677 0.380635
vt 0.304731 0.398479
vt 0.341084 0.387371
vt 0.525587 0.387572
vt 0.746736 0.585668
vt 0.461539 0.327127
vt 0.431739 0.324380
vt 0.397260 0.324909
vt 0.364278 0.328138
vt 0.329171 0.335796
vt 0.276824 0.348509
vt 0.493068 0.329841
vt 0.729607 0.429614
vt 0.616951 0.357458
vt 0.542193 0.339079
vt 0.190146 0.380462
vt 0.472755 0.244538
vt 0.432078 0.245080
vt 0.240391 0.270690
vt 0.135578 0.303864
vt 0.301618 0.256033
vt 0.667109 0.269588
vt 0.574748 0.252184
vt 0.510419 0.244868
vt 0.388311 0.246181
vt 0.346946 0.251002
vt 0.088224 0.470900
vt 0.026702 0.643297
vt -0.000000 0.403757
vt 0.830266 0.301550
vt 0.830266 0.563744
vt 0.047450 0.183386
vt 0.530533 0.018622
vt 0.481338 0.005622
vt 0.309004 0.013961
vt 0.251234 0.035704
vt 0.723666 0.103458
vt 0.615619 0.048193
vt 0.174570 0.067691
vt 0.365048 0.002651
vt 0.425563 0.000000
vt 0.223198 0.671378
vt 0.245820 0.723227
vt 0.295588 0.765792
vt 0.363593 0.792128
vt 0.465629 0.794832
vt 0.552214 0.771500
vt 0.625280 0.722184
vt 0.670947 0.646740
vt 0.243304 0.845380
vt 0.336888 0.889485
vt 0.598668 0.859452
vt 0.696432 0.782310
vt 0.144570 0.697012
vt 0.172830 0.780621
vt 0.478746 0.896418
vt 0.752557 0.658357
vt 0.193511 0.920814
vt 0.311472 0.977329
vt 0.646187 0.940332
vt 0.760519 0.829016
vt 0.051745 0.724015
vt 0.103183 0.832745
vt 0.492374 1.000000
vt 0.808302 0.669234
s 1
f 1/1/1 3/2/2 4/3/3 2/4/3
f 3/2/2 1/1/1 16/5/4 5/6/5
f 5/6/5 16/5/4 15/7/6 6/8/7
f 6/8/7 15/7/6 14/9/8 7/10/9
f 7/10/9 14/9/8 13/11/10 8/12/11
f 8/12/11 13/11/10 12/13/12 9/14/13
f 10/15/14 9/14/13 12/13/12 11/16/14
f 1/1/15 17/17/16 24/18/17 16/5/18
f 15/7/19 23/19/20 22/20/21 14/9/22
f 2/4/23 18/21/24 17/17/16 1/1/15
f 13/11/25 21/22/26 20/23/27 12/13/28
f 16/5/18 24/18/17 23/19/20 15/7/19
f 14/9/22 22/20/21 21/22/26 13/11/25
f 12/13/28 20/23/27 19/24/29 11/16/30
f 24/18/17 32/25/31 31/26/32 23/19/20
f 22/20/21 30/27/33 29/28/34 21/22/26
f 20/23/27 28/29/35 27/30/36 19/24/29
f 17/17/16 25/31/37 32/25/31 24/18/17
f 23/19/20 31/26/32 30/27/33 22/20/21
f 21/22/26 29/28/34 28/29/35 20/23/27
f 18/21/24 26/32/38 25/31/37 17/17/16
f 28/29/35 36/33/39 35/34/40 27/30/36
f 25/31/37 33/35/41 40/36/42 32/25/31
f 31/26/32 39/37/43 38/38/44 30/27/33
f 29/28/34 37/39/45 36/33/39 28/29/35
f 26/32/38 34/40/46 33/35/41 25/31/37
f 32/25/31 40/36/42 39/37/43 31/26/32
f 30/27/33 38/38/44 37/39/45 29/28/34
f 38/38/44 44/41/47 43/42/48 37/39/45
f 33/35/41 41/43/49 46/44/50 40/36/42
f 39/37/43 45/45/51 44/41/47 38/38/44
f 37/39/45 43/42/48 42/46/52 36/33/39
f 40/36/42 46/44/50 45/45/51 39/37/43
f 36/33/39 42/46/52 35/34/40
f 33/35/41 34/40/46 41/43/49
f 46/44/50 50/47/53 49/48/54 45/45/51
f 45/45/51 49/48/54 48/49/55 44/41/47
f 44/41/47 48/49/55 47/50/56 43/42/48
f 46/44/50 41/43/49 50/47/53
f 43/42/48 47/50/56 42/46/52
f 18/21/57 53/51/58 55/52/59 26/32/60
f 47/50/61 61/53/62 60/54/63 42/46/64
f 26/32/60 55/52/59 57/55/65 34/40/66
f 49/48/67 63/56/68 62/57/69 48/49/70
f 50/47/71 64/58/72 63/56/68 49/48/67
f 35/34/73 58/59/74 56/60/75 27/30/76
f 2/4/77 51/61/78 53/51/58 18/21/57
f 42/46/64 60/54/63 58/59/74 35/34/73
f 27/30/76 56/60/75 54/62/79 19/24/80
f 34/40/66 57/55/65 59/63/81 41/43/82
f 41/43/82 59/63/81 64/58/72 50/47/71
f 48/49/70 62/57/69 61/53/62 47/50/61
f 19/24/80 54/62/79 52/64/83 11/16/84
f 2/4/77 4/3/85 51/61/78
f 11/16/84 52/64/83 10/15/86
f 62/57/87 76/65/88 75/66/89 61/53/90
f 54/62/79 68/67/91 66/68/92 52/64/83
f 63/56/93 77/69/94 76/65/88 62/57/87
f 56/60/75 70/70/95 68/67/91 54/62/79
f 64/58/96 78/71/97 77/69/94 63/56/93
f 53/51/58 67/72/98 69/73/99 55/52/59
f 59/63/100 73/74/101 78/71/97 64/58/96
f 58/59/102 72/75/103 70/70/95 56/60/75
f 61/53/90 75/66/89 74/76/104 60/54/105
f 55/52/59 69/73/99 71/77/106 57/55/107
f 60/54/105 74/76/104 72/75/103 58/59/102
f 57/55/107 71/77/106 73/74/101 59/63/100
f 51/61/78 65/78/108 67/72/98 53/51/58
f 78/71/97 85/79/109 84/80/110 77/69/111
f 76/65/112 83/81/113 82/82/114 75/66/115
f 74/76/116 81/83/117 79/84/118 72/75/119
f 73/74/101 80/85/120 85/79/109 78/71/97
f 77/69/111 84/80/110 83/81/113 76/65/112
f 75/66/115 82/82/114 81/83/117 74/76/116
f 67/72/98 88/86/121 87/87/122 69/73/99
f 87/87/122 86/88/123 71/77/106 69/73/99
f 71/77/106 86/88/123 80/85/120 73/74/101
f 89/89/124 70/70/95 72/75/119 79/84/118
f 85/79/109 96/90/125 95/91/126 84/80/110
f 79/84/118 90/92/127 99/93/128 89/89/124
f 81/83/117 92/94/129 90/92/127 79/84/118
f 87/87/122 98/95/130 97/96/131 86/88/123
f 80/85/120 91/97/132 96/90/125 85/79/109
f 83/81/113 94/98/133 93/99/134 82/82/114
f 86/88/123 97/96/131 91/97/132 80/85/120
f 82/82/114 93/99/134 92/94/129 81/83/117
f 84/80/110 95/91/126 94/98/133 83/81/113
f 70/70/95 89/89/124 101/100/135 68/67/91
f 68/67/91 101/100/135 100/101/136 66/68/92
f 89/89/124 99/93/128 102/102/137 101/100/135
f 101/100/135 102/102/137 100/101/136
f 88/86/121 104/103/138 98/95/130 87/87/122
f 65/78/108 103/104/139 88/86/121 67/72/98
f 103/104/139 104/103/138 88/86/121
f 99/93/128 114/105/140 102/102/137
f 91/97/132 106/106/141 111/107/142 96/90/125
f 93/99/134 108/108/143 107/109/144 92/94/129
f 98/95/130 113/110/145 112/111/146 97/96/131
f 97/96/131 112/111/146 106/106/141 91/97/132
f 92/94/129 107/109/144 105/112/147 90/92/127
f 104/103/138 113/110/145 98/95/130
f 90/92/127 105/112/147 114/105/140 99/93/128
f 94/98/133 109/113/148 108/108/143 93/99/134
f 95/91/126 110/114/149 109/113/148 94/98/133
f 96/90/125 111/107/142 110/114/149 95/91/126
f 10/15/150 122/115/150 121/116/151 9/14/152
f 8/12/153 120/117/154 119/118/155 7/10/156
f 6/8/157 118/119/158 117/120/159 5/6/160
f 3/2/161 115/121/162 116/122/163 4/3/163
f 9/14/152 121/116/151 120/117/154 8/12/153
f 7/10/156 119/118/155 118/119/158 6/8/157
f 5/6/160 117/120/159 115/121/162 3/2/161
f 10/15/86 52/64/83 122/115/164
f 51/61/78 4/3/85 116/122/165
f 120/117/154 128/123/154 127/124/155 119/118/155
f 117/120/159 125/125/159 123/126/166 115/121/162
f 52/64/83 66/68/92 130/127/167 122/115/164
f 121/116/151 129/128/168 128/123/154 120/117/154
f 118/119/158 126/129/158 125/125/159 117/120/159
f 116/122/165 124/130/169 65/78/108 51/61/78
f 122/115/150 130/127/170 129/128/168 121/116/151
f 119/118/155 127/124/155 126/129/158 118/119/158
f 115/121/162 123/126/166 124/130/171 116/122/163
f 128/123/154 136/131/172 135/132/173 127/124/155
f 125/125/159 133/133/159 131/134/174 123/126/166
f 66/68/92 100/101/136 138/135/175 130/127/167
f 129/128/168 137/136/176 136/131/172 128/123/154
f 126/129/158 134/137/158 133/133/159 125/125/159
f 124/130/169 132/138/177 103/104/139 65/78/108
f 130/127/170 138/135/178 137/136/176 129/128/168
f 127/124/155 135/132/173 134/137/158 126/129/158
f 123/126/166 131/134/174 132/138/179 124/130/171
