# Blender 4.1.0
# www.blender.org
o Right_Cap
v 0.000032 0.213156 -0.069899
v 0.026779 0.213156 -0.064566
v 0.049449 0.213156 -0.049403
v 0.064590 0.213156 -0.026719
v 0.069899 0.213156 0.000032
v 0.064565 0.213156 0.026779
v 0.049403 0.213156 0.049449
v 0.026719 0.213156 0.064590
v -0.000032 0.213156 0.069899
v -0.026779 0.213156 0.064565
v -0.049449 0.213156 0.049403
v -0.064590 0.213156 0.026719
v -0.069899 0.213156 -0.000032
v -0.064565 0.213156 -0.026779
v -0.049403 0.213156 -0.049449
v -0.026719 0.213156 -0.064590
v 0.000016 0.216806 -0.035613
v 0.013644 0.216806 -0.032896
v 0.025194 0.216806 -0.025171
v 0.032908 0.216806 -0.013613
v 0.035613 0.216806 0.000016
v 0.032896 0.216806 0.013644
v 0.025171 0.216806 0.025194
v 0.013613 0.216806 0.032908
v -0.000017 0.216806 0.035613
v -0.013644 0.216806 0.032896
v -0.025194 0.216806 0.025170
v -0.032909 0.216806 0.013613
v -0.035613 0.216806 -0.000017
v -0.032896 0.216806 -0.013644
v -0.025171 0.216806 -0.025194
v -0.013613 0.216806 -0.032909
v -0.000000 0.218175 -0.000000
vn -0.0000 0.9944 -0.1059
vn 0.0406 0.9944 -0.0978
vn 0.0749 0.9944 -0.0748
vn 0.0978 0.9944 -0.0405
vn 0.1059 0.9944 -0.0000
vn 0.0978 0.9944 0.0406
vn 0.0748 0.9944 0.0749
vn 0.0405 0.9944 0.0978
vn -0.0000 0.9944 0.1059
vn -0.0406 0.9944 0.0978
vn -0.0749 0.9944 0.0748
vn -0.0978 0.9944 0.0405
vn -0.1059 0.9944 -0.0000
vn -0.0978 0.9944 -0.0406
vn -0.0748 0.9944 -0.0749
vn -0.0405 0.9944 -0.0978
vn -0.0000 0.9971 -0.0761
vn 0.0291 0.9971 -0.0703
vn 0.0538 0.9971 -0.0538
vn 0.0703 0.9971 -0.0291
vn 0.0761 0.9971 -0.0000
vn 0.0703 0.9971 0.0291
vn 0.0538 0.9971 0.0538
vn 0.0291 0.9971 0.0703
vn -0.0000 0.9971 0.0761
vn -0.0291 0.9971 0.0703
vn -0.0538 0.9971 0.0538
vn -0.0703 0.9971 0.0291
vn -0.0761 0.9971 -0.0000
vn -0.0703 0.9971 -0.0291
vn -0.0538 0.9971 -0.0538
vn -0.0291 0.9971 -0.0703
vn -0.0000 1.0000 -0.0000
vt 0.368643 0.587719
vt 0.345053 0.530789
vt 0.422046 0.515439
vt 0.433954 0.544011
vt 0.587777 0.368919
vt 0.631205 0.412503
vt 0.565885 0.455961
vt 0.544000 0.434074
vt 0.412265 0.631312
vt 0.455799 0.565919
vt 0.530920 0.345243
vt 0.515411 0.422232
vt 0.469221 0.654847
vt 0.484379 0.577784
vt 0.469259 0.345153
vt 0.484477 0.422248
vt 0.587676 0.631153
vt 0.530818 0.654779
vt 0.515326 0.577802
vt 0.543924 0.565975
vt 0.412283 0.368678
vt 0.455852 0.434002
vt 0.631149 0.587593
vt 0.565823 0.544106
vt 0.368668 0.412240
vt 0.434002 0.455918
vt 0.654650 0.530756
vt 0.577696 0.515523
vt 0.345053 0.469201
vt 0.422099 0.484480
vt 0.654657 0.469307
vt 0.577748 0.484561
vt 0.499901 0.500002
s 1
f 14/1/14 13/2/13 29/3/29 30/4/30
f 7/5/7 6/6/6 22/7/22 23/8/23
f 15/9/15 14/1/14 30/4/30 31/10/31
f 8/11/8 7/5/7 23/8/23 24/12/24
f 16/13/16 15/9/15 31/10/31 32/14/32
f 9/15/9 8/11/8 24/12/24 25/16/25
f 2/17/2 1/18/1 17/19/17 18/20/18
f 1/18/1 16/13/16 32/14/32 17/19/17
f 10/21/10 9/15/9 25/16/25 26/22/26
f 3/23/3 2/17/2 18/20/18 19/24/19
f 11/25/11 10/21/10 26/22/26 27/26/27
f 4/27/4 3/23/3 19/24/19 20/28/20
f 12/29/12 11/25/11 27/26/27 28/30/28
f 5/31/5 4/27/4 20/28/20 21/32/21
f 13/2/13 12/29/12 28/30/28 29/3/29
f 6/6/6 5/31/5 21/32/21 22/7/22
f 20/28/20 19/24/19 33/33/33
f 28/30/28 27/26/27 33/33/33
f 21/32/21 20/28/20 33/33/33
f 29/3/29 28/30/28 33/33/33
f 22/7/22 21/32/21 33/33/33
f 30/4/30 29/3/29 33/33/33
f 23/8/23 22/7/22 33/33/33
f 31/10/31 30/4/30 33/33/33
f 24/12/24 23/8/23 33/33/33
f 32/14/32 31/10/31 33/33/33
f 25/16/25 24/12/24 33/33/33
f 18/20/18 17/19/17 33/33/33
f 17/19/17 32/14/32 33/33/33
f 26/22/26 25/16/25 33/33/33
f 19/24/19 18/20/18 33/33/33
f 27/26/27 26/22/26 33/33/33
