# Blender 4.1.0
# www.blender.org
o Options_Button
v 0.394662 0.204682 -0.359870
v 0.420740 0.204682 -0.359858
v 0.394674 0.204682 -0.385949
v 0.420752 0.204682 -0.385937
v 0.448625 0.206104 -0.359845
v 0.448078 0.204682 -0.385924
v 0.394679 0.203915 -0.397331
v 0.420757 0.203915 -0.397319
v 0.448084 0.203915 -0.397306
v 0.400614 0.199711 -0.408833
v 0.420856 0.199711 -0.408824
v 0.442067 0.199711 -0.408814
v 0.406759 0.194873 -0.415329
v 0.420955 0.194873 -0.415323
v 0.435831 0.194873 -0.415316
v 0.421118 0.191653 -0.420129
v 0.420727 0.206252 -0.331098
v 0.394648 0.204682 -0.331110
v 0.447787 0.207065 -0.331938
v 0.420721 0.205968 -0.318692
v 0.399622 0.204682 -0.318701
v 0.442893 0.207269 -0.319533
v 0.420717 0.206396 -0.310755
v 0.431971 0.207300 -0.313301
v 0.410369 0.205250 -0.312752
v 0.412688 0.193134 -0.418505
v 0.429280 0.193040 -0.418638
v 0.390261 0.185956 -0.357945
v 0.390275 0.184211 -0.388339
v 0.453153 0.188668 -0.357916
v 0.452516 0.185956 -0.388310
v 0.390279 0.182618 -0.397161
v 0.452520 0.184364 -0.397132
v 0.397197 0.176334 -0.412001
v 0.445508 0.178079 -0.411979
v 0.404358 0.174185 -0.419572
v 0.438241 0.174524 -0.419556
v 0.421093 0.171797 -0.425166
v 0.390245 0.185956 -0.324427
v 0.452177 0.191912 -0.325391
v 0.396044 0.185956 -0.313441
v 0.446474 0.192625 -0.314410
v 0.420629 0.189727 -0.304180
v 0.433745 0.190828 -0.307147
v 0.408569 0.188274 -0.306508
v 0.411269 0.172497 -0.423273
v 0.430606 0.172387 -0.423428
vn -0.0150 0.9998 -0.0136
vn -0.0243 0.9994 -0.0249
vn -0.0064 0.9992 -0.0404
vn -0.0000 0.9994 -0.0336
vn -0.0335 0.9988 -0.0361
vn -0.0129 0.9988 -0.0470
vn 0.0001 0.9830 -0.1835
vn 0.0001 0.9783 -0.2073
vn 0.0001 0.9829 -0.1839
vn 0.0002 0.9047 -0.4260
vn 0.0002 0.8799 -0.4752
vn 0.0002 0.9044 -0.4266
vn 0.0003 0.8173 -0.5763
vn 0.0006 0.8234 -0.5674
vn 0.0003 0.8183 -0.5748
vn -0.0090 0.8653 -0.5011
vn 0.0093 0.8671 -0.4980
vn -0.0437 0.9990 -0.0134
vn -0.0420 0.9987 -0.0286
vn -0.0432 0.9991 -0.0054
vn -0.0605 0.9979 0.0217
vn -0.0687 0.9974 -0.0216
vn -0.0469 0.9985 -0.0267
vn -0.0706 0.9975 -0.0026
vn -0.0959 0.9939 -0.0537
vn -0.0695 0.9925 -0.1003
vn -0.0011 0.8308 -0.5566
vn 0.2858 0.2362 -0.9287
vn 0.5448 0.2264 -0.8074
vn 0.4912 0.2291 -0.8404
vn 0.2568 0.2369 -0.9370
vn -0.9747 0.2236 -0.0041
vn -0.9768 0.2138 -0.0151
vn -0.9770 0.2124 -0.0172
vn -0.9746 0.2241 -0.0037
vn 0.7788 0.2080 -0.5918
vn 0.9431 0.2203 -0.2489
vn 0.9286 0.2170 -0.3009
vn 0.7239 0.2137 -0.6559
vn 0.9673 0.2533 -0.0147
vn 0.9353 0.3156 0.1601
vn 0.9160 0.3340 0.2223
vn 0.9671 0.2539 -0.0136
vn 0.4389 0.3720 0.8179
vn 0.3169 0.3702 0.8732
vn 0.3000 0.3695 0.8795
vn -0.9488 0.2017 -0.2431
vn -0.7911 0.1938 -0.5802
vn -0.7426 0.2004 -0.6390
vn -0.9342 0.1987 -0.2964
vn -0.3521 0.3499 0.8681
vn -0.4879 0.3335 0.8067
vn -0.3656 0.3487 0.8630
vn 0.9715 0.2349 -0.0327
vn 0.9720 0.2330 -0.0311
vn -0.0081 0.3667 0.9303
vn -0.0338 0.3665 0.9298
vn -0.8634 0.3108 0.3975
vn -0.9485 0.2685 0.1679
vn -0.9290 0.2831 0.2386
vn -0.5677 0.2192 -0.7935
vn -0.3031 0.2356 -0.9234
vn -0.2731 0.2365 -0.9325
vn -0.5206 0.2235 -0.8240
vn 0.8506 0.3728 0.3708
vn -0.0040 0.2405 -0.9706
vn -0.0034 0.2405 -0.9706
vt 0.280206 0.489613
vt 0.334077 0.483096
vt 0.339820 0.534503
vt 0.290348 0.541921
vt 0.392070 0.476581
vt 0.393553 0.531499
vt 0.391518 0.553486
vt 0.342071 0.556454
vt 0.296339 0.561693
vt 0.383470 0.576054
vt 0.344293 0.579788
vt 0.307460 0.582027
vt 0.374091 0.592483
vt 0.345650 0.595079
vt 0.318757 0.596557
vt 0.362177 0.600935
vt 0.330386 0.602844
vt 0.327425 0.426287
vt 0.380144 0.419675
vt 0.276974 0.430983
vt 0.285022 0.406522
vt 0.324391 0.402048
vt 0.365552 0.398003
vt 0.303389 0.392877
vt 0.322624 0.386968
vt 0.344123 0.388901
vt 0.346759 0.606327
vt 0.392108 0.634849
vt 0.373166 0.646319
vt 0.250224 0.566763
vt 0.233704 0.491073
vt 0.431068 0.571801
vt 0.411540 0.614325
vt 0.408123 0.389629
vt 0.436103 0.468784
vt 0.348150 0.349765
vt 0.383557 0.366228
vt 0.284022 0.626291
vt 0.259078 0.588057
vt 0.252482 0.379277
vt 0.282902 0.358687
vt 0.436103 0.548305
vt 0.312857 0.348912
vt 0.237643 0.407310
vt 0.324570 0.648665
vt 0.306373 0.640809
vt 0.349462 0.651088
s 1
f 1/1/1 2/2/2 4/3/3 3/4/4
f 4/3/3 2/2/2 5/5/5 6/6/6
f 4/3/3 6/6/6 9/7/7 8/8/8
f 3/4/4 4/3/3 8/8/8 7/9/9
f 8/8/8 9/7/7 12/10/10 11/11/11
f 7/9/9 8/8/8 11/11/11 10/12/12
f 11/11/11 12/10/10 15/13/13 14/14/14
f 10/12/12 11/11/11 14/14/14 13/15/15
f 14/14/14 15/13/13 27/16/16
f 13/15/15 14/14/14 26/17/17
f 5/5/5 2/2/2 17/18/18 19/19/19
f 2/2/2 1/1/1 18/20/20 17/18/18
f 17/18/18 18/20/20 21/21/21 20/22/22
f 19/19/19 17/18/18 20/22/22 22/23/23
f 20/22/22 25/24/24 23/25/25
f 22/23/23 20/22/22 24/26/26
f 25/24/24 20/22/22 21/21/21
f 24/26/26 20/22/22 23/25/25
f 26/17/17 14/14/14 16/27/27
f 27/16/16 16/27/27 14/14/14
f 27/16/28 15/13/29 37/28/30 47/29/31
f 1/1/32 3/4/33 29/30/34 28/31/35
f 12/10/36 9/7/37 33/32/38 35/33/39
f 5/5/40 19/19/41 40/34/42 30/35/43
f 22/23/44 24/26/45 44/36/46 42/37/44
f 7/9/47 10/12/48 34/38/49 32/39/50
f 25/24/51 21/21/52 41/40/52 45/41/53
f 9/7/37 6/6/54 31/42/55 33/32/38
f 23/25/56 25/24/51 45/41/53 43/43/57
f 21/21/58 18/20/59 39/44/60 41/40/58
f 3/4/33 7/9/47 32/39/50 29/30/34
f 13/15/61 26/17/62 46/45/63 36/46/64
f 6/6/54 5/5/40 30/35/43 31/42/55
f 19/19/41 22/23/65 42/37/65 40/34/42
f 26/17/62 16/27/66 38/47/67 46/45/63
f 15/13/29 12/10/36 35/33/39 37/28/30
f 16/27/66 27/16/28 47/29/31 38/47/67
f 10/12/48 13/15/61 36/46/64 34/38/49
f 24/26/45 23/25/56 43/43/57 44/36/46
f 18/20/59 1/1/32 28/31/35 39/44/60
