# Blender 4.1.0
# www.blender.org
o Touch_Pad
v 0.345505 0.195155 -0.132264
v 0.337446 0.206672 -0.134654
v 0.342403 0.195155 -0.116709
v 0.334721 0.206672 -0.120988
v 0.333585 0.195155 -0.103524
v 0.326973 0.206672 -0.109404
v 0.320392 0.195155 -0.094718
v 0.315382 0.206672 -0.101667
v 0.304834 0.195155 -0.091631
v 0.301713 0.206672 -0.098954
v 0.301729 0.206672 -0.134671
v 0.000044 0.195155 -0.091773
v 0.000047 0.206672 -0.099094
v 0.000064 0.206672 -0.134811
v 0.345629 0.194628 -0.399636
v 0.337569 0.206672 -0.398936
v 0.301852 0.206672 -0.398953
v 0.000186 0.206672 -0.399093
v 0.345966 0.171915 -0.439615
v 0.337592 0.180437 -0.447918
v 0.301875 0.180437 -0.447935
v 0.000209 0.180437 -0.448075
v 0.345976 0.139573 -0.462054
v 0.337603 0.143926 -0.473059
v 0.301886 0.143926 -0.473076
v 0.000221 0.143926 -0.473216
v 0.345980 0.095050 -0.469547
v 0.337608 0.096159 -0.484389
v 0.301892 0.096159 -0.484406
v 0.000226 0.096159 -0.484546
v 0.000223 0.056711 -0.477572
v 0.301888 0.056711 -0.477432
v 0.000201 0.194297 -0.432063
v 0.345958 0.180989 -0.423976
v 0.337584 0.194226 -0.431955
v 0.301867 0.194296 -0.431924
v 0.301860 0.203374 -0.415425
v 0.337576 0.203348 -0.415399
v 0.000194 0.203374 -0.415565
v 0.345951 0.189643 -0.408092
v 0.311268 0.060352 -0.478071
v 0.320197 0.066274 -0.479114
v 0.328022 0.074077 -0.480490
v 0.333623 0.084162 -0.482270
v 0.303751 0.052255 -0.462187
v 0.315595 0.055640 -0.462780
v 0.326940 0.062609 -0.464007
v 0.335413 0.071059 -0.465497
v 0.341478 0.081978 -0.467424
v 0.000216 0.052255 -0.462328
v -0.345380 0.195155 -0.132584
v -0.337319 0.206672 -0.134968
v -0.342293 0.195155 -0.117026
v -0.334607 0.206672 -0.121298
v -0.333487 0.195155 -0.103834
v -0.326870 0.206672 -0.109707
v -0.320302 0.195155 -0.095016
v -0.315286 0.206672 -0.101959
v -0.304747 0.195155 -0.091914
v -0.301619 0.206672 -0.099234
v -0.301602 0.206672 -0.134951
v -0.345256 0.194628 -0.399956
v -0.337196 0.206672 -0.399249
v -0.301480 0.206672 -0.399233
v -0.345556 0.171915 -0.439936
v -0.337174 0.180437 -0.448231
v -0.301457 0.180437 -0.448215
v -0.345545 0.139573 -0.462375
v -0.337162 0.143926 -0.473372
v -0.301445 0.143926 -0.473356
v -0.345542 0.095050 -0.469868
v -0.337157 0.096159 -0.484702
v -0.301440 0.096159 -0.484686
v -0.301443 0.056711 -0.477712
v -0.345563 0.180989 -0.424297
v -0.337181 0.194226 -0.432268
v -0.301465 0.194296 -0.432203
v -0.301472 0.203374 -0.415705
v -0.337189 0.203348 -0.415712
v -0.345570 0.189643 -0.408413
v -0.310822 0.060352 -0.478360
v -0.319751 0.066274 -0.479411
v -0.327574 0.074077 -0.480794
v -0.333174 0.084162 -0.482580
v -0.303320 0.052255 -0.462469
v -0.315164 0.055640 -0.463073
v -0.326508 0.062609 -0.464310
v -0.334979 0.071059 -0.465808
v -0.341042 0.081978 -0.467741
vn 0.8119 0.5783 0.0801
vn 0.8120 0.5782 0.0795
vn 0.7363 0.6043 0.3046
vn 0.7357 0.6043 0.3059
vn 0.5606 0.6085 0.5616
vn 0.5611 0.6085 0.5611
vn 0.3083 0.5862 0.7492
vn 0.3110 0.5865 0.7479
vn 0.0805 0.5503 0.8311
vn 0.0824 0.5505 0.8307
vn -0.0000 1.0000 -0.0000
vn -0.0004 0.5365 0.8439
vn 0.8443 0.5261 -0.1019
vn 0.8321 0.5538 -0.0307
vn 0.0001 0.9805 -0.1963
vn 0.0003 0.9805 -0.1967
vn 0.0004 0.9582 -0.2862
vn 0.0001 0.9582 -0.2861
vn 0.0005 0.9804 -0.1971
vn 0.0007 0.9578 -0.2876
vn 0.8781 0.4231 -0.2236
vn 0.8526 0.4970 -0.1613
vn 0.0003 0.6777 -0.7354
vn 0.0004 0.6778 -0.7352
vn 0.0004 0.4199 -0.9076
vn 0.0005 0.6779 -0.7351
vn 0.8501 0.4210 -0.3165
vn 0.8153 0.3407 -0.4683
vn 0.8432 0.1308 -0.5214
vn 0.8155 0.3140 -0.4861
vn 0.0005 0.0302 -0.9995
vn 0.0005 0.0321 -0.9995
vn 0.8340 -0.2275 -0.5027
vn 0.8519 -0.0355 -0.5225
vn 0.0006 0.8299 -0.5579
vn 0.0009 0.8287 -0.5597
vn 0.8783 0.4178 -0.2324
vn 0.8534 0.4248 -0.3020
vn 0.0003 0.8295 -0.5585
vn 0.0005 -0.1741 -0.9847
vn 0.0002 -0.8591 -0.5118
vn 0.0002 -0.8701 -0.4928
vn 0.7923 -0.3814 -0.4763
vn 0.7508 -0.4679 -0.4663
vn 0.7166 -0.5252 -0.4590
vn 0.6176 -0.6545 -0.4362
vn 0.5780 -0.6965 -0.4251
vn 0.4785 -0.7850 -0.3935
vn 0.4351 -0.8164 -0.3797
vn 0.2952 -0.8954 -0.3332
vn 0.2797 -0.9024 -0.3277
vn 0.0001 -0.9598 -0.2806
vn -0.8119 0.5783 0.0793
vn -0.7359 0.6043 0.3052
vn -0.7366 0.6043 0.3039
vn -0.8121 0.5782 0.0787
vn -0.5616 0.6085 0.5606
vn -0.5611 0.6085 0.5611
vn -0.3117 0.5865 0.7476
vn -0.3090 0.5862 0.7490
vn -0.0831 0.5505 0.8307
vn -0.0813 0.5503 0.8310
vn -0.8321 0.5538 -0.0315
vn -0.8442 0.5261 -0.1027
vn -0.0001 0.9582 -0.2862
vn -0.0001 0.9805 -0.1967
vn -0.0004 0.9578 -0.2876
vn -0.0003 0.9804 -0.1971
vn -0.8525 0.4970 -0.1621
vn -0.8778 0.4231 -0.2245
vn 0.0003 0.6778 -0.7352
vn 0.0002 0.6779 -0.7351
vn -0.8498 0.4210 -0.3173
vn -0.8151 0.3140 -0.4869
vn -0.8428 0.1308 -0.5221
vn -0.8148 0.3407 -0.4691
vn -0.8514 -0.0355 -0.5233
vn -0.8335 -0.2275 -0.5035
vn -0.0001 0.8299 -0.5579
vn -0.0004 0.8287 -0.5597
vn -0.8781 0.4178 -0.2332
vn -0.8531 0.4248 -0.3028
vn -0.7918 -0.3814 -0.4770
vn -0.7503 -0.4679 -0.4670
vn -0.7161 -0.5252 -0.4596
vn -0.6172 -0.6545 -0.4368
vn -0.5776 -0.6965 -0.4256
vn -0.4781 -0.7850 -0.3939
vn -0.4347 -0.8164 -0.3801
vn -0.2949 -0.8954 -0.3335
vn -0.2794 -0.9024 -0.3279
vt 0.011902 0.806764
vt 0.023285 0.803387
vt 0.027134 0.822692
vt 0.016283 0.828735
vt 0.038078 0.839053
vt 0.028739 0.847358
vt 0.054450 0.849982
vt 0.047373 0.859796
vt 0.073758 0.853813
vt 0.069349 0.864157
vt 0.073734 0.803364
vt 0.499832 0.803166
vt 0.499855 0.853615
vt 0.499860 0.863957
vt 0.074622 0.391938
vt 0.500291 0.391839
vt 0.024224 0.391950
vt 0.012851 0.391191
vt 0.075673 0.349158
vt 0.500913 0.349158
vt 0.025325 0.349121
vt 0.013520 0.347555
vt 0.500892 0.297016
vt 0.075652 0.297016
vt 0.075635 0.253609
vt 0.500875 0.253609
vt 0.025304 0.297016
vt 0.025287 0.253609
vt 0.013499 0.295726
vt 0.013485 0.251729
vt 0.075628 0.198023
vt 0.500868 0.198023
vt 0.025280 0.198023
vt 0.013480 0.196460
vt 0.075662 0.318085
vt 0.025314 0.317987
vt 0.013510 0.316741
vt 0.500902 0.318086
vt 0.062411 0.147549
vt 0.075632 0.142416
vt 0.500872 0.142416
vt 0.049824 0.155896
vt 0.038793 0.166896
vt 0.030897 0.181112
vt 0.019825 0.174117
vt 0.028374 0.158725
vt 0.040318 0.146832
vt 0.056310 0.137008
vt 0.073007 0.129556
vt 0.500883 0.129556
vt 0.987765 0.806311
vt 0.983405 0.828286
vt 0.972548 0.822252
vt 0.976379 0.802944
vt 0.970966 0.846920
vt 0.961620 0.838624
vt 0.952344 0.859376
vt 0.945258 0.849568
vt 0.930372 0.863757
vt 0.925954 0.853417
vt 0.925930 0.802968
vt 0.925960 0.391740
vt 0.976359 0.391729
vt 0.987731 0.390964
vt 0.926153 0.349158
vt 0.976501 0.349120
vt 0.988316 0.347555
vt 0.926116 0.253609
vt 0.926132 0.297016
vt 0.976463 0.253609
vt 0.976480 0.297016
vt 0.988280 0.251729
vt 0.988295 0.295726
vt 0.926108 0.198023
vt 0.976456 0.198023
vt 0.988276 0.196460
vt 0.926143 0.318085
vt 0.976490 0.317987
vt 0.988305 0.316741
vt 0.926113 0.142416
vt 0.939333 0.147548
vt 0.951919 0.155896
vt 0.962948 0.166896
vt 0.970841 0.181112
vt 0.981933 0.174117
vt 0.973386 0.158725
vt 0.961444 0.146832
vt 0.945453 0.137008
vt 0.928758 0.129556
s 1
f 1/1/1 2/2/2 4/3/3 3/4/4
f 3/4/4 4/3/3 6/5/5 5/6/6
f 5/6/6 6/5/5 8/7/7 7/8/8
f 7/8/8 8/7/7 10/9/9 9/10/10
f 6/5/11 4/3/11 11/11/11
f 8/7/11 6/5/11 11/11/11
f 4/3/11 2/2/11 11/11/11
f 10/9/11 8/7/11 11/11/11
f 10/9/11 11/11/11 14/12/11 13/13/11
f 9/10/10 10/9/9 13/13/12 12/14/12
f 14/12/11 11/11/11 17/15/11 18/16/11
f 11/11/11 2/2/11 16/17/11 17/15/11
f 2/2/2 1/1/1 15/18/13 16/17/14
f 18/16/15 17/15/16 37/19/17 39/20/18
f 17/15/16 16/17/19 38/21/20 37/19/17
f 16/17/14 15/18/13 40/22/21 38/21/22
f 22/23/23 21/24/24 25/25/25 26/26/25
f 21/24/24 20/27/26 24/28/25 25/25/25
f 20/27/27 19/29/28 23/30/29 24/28/30
f 26/26/25 25/25/25 29/31/31 30/32/31
f 25/25/25 24/28/25 28/33/32 29/31/31
f 24/28/30 23/30/29 27/34/33 28/33/34
f 36/35/35 35/36/36 20/27/26 21/24/24
f 35/36/37 34/37/38 19/29/28 20/27/27
f 33/38/39 36/35/35 21/24/24 22/23/23
f 39/20/18 37/19/17 36/35/35 33/38/39
f 37/19/17 38/21/20 35/36/36 36/35/35
f 38/21/22 40/22/21 34/37/38 35/36/37
f 29/31/31 41/39/40 32/40/41
f 30/32/31 29/31/31 32/40/41 31/41/42
f 41/39/40 29/31/31 42/42/40
f 42/42/40 29/31/31 43/43/40
f 43/43/40 29/31/31 44/44/40
f 44/44/40 29/31/31 28/33/32
f 44/44/43 28/33/34 27/34/33 49/45/44
f 43/43/45 44/44/43 49/45/44 48/46/46
f 42/42/47 43/43/45 48/46/46 47/47/48
f 41/39/49 42/42/47 47/47/48 46/48/50
f 32/40/51 41/39/49 46/48/50 45/49/51
f 32/40/41 45/49/52 50/50/52 31/41/42
f 51/51/53 53/52/54 54/53/55 52/54/56
f 53/52/54 55/55/57 56/56/58 54/53/55
f 55/55/57 57/57/59 58/58/60 56/56/58
f 57/57/59 59/59/61 60/60/62 58/58/60
f 56/56/11 61/61/11 54/53/11
f 58/58/11 61/61/11 56/56/11
f 54/53/11 61/61/11 52/54/11
f 60/60/11 61/61/11 58/58/11
f 60/60/11 13/13/11 14/12/11 61/61/11
f 59/59/61 12/14/12 13/13/12 60/60/62
f 14/12/11 18/16/11 64/62/11 61/61/11
f 61/61/11 64/62/11 63/63/11 52/54/11
f 52/54/56 63/63/63 62/64/64 51/51/53
f 18/16/15 39/20/18 78/65/65 64/62/66
f 64/62/66 78/65/65 79/66/67 63/63/68
f 63/63/63 79/66/69 80/67/70 62/64/64
f 22/23/23 26/26/25 70/68/25 67/69/71
f 67/69/71 70/68/25 69/70/25 66/71/72
f 66/71/73 69/70/74 68/72/75 65/73/76
f 26/26/25 30/32/31 73/74/31 70/68/25
f 70/68/25 73/74/31 72/75/32 69/70/25
f 69/70/74 72/75/77 71/76/78 68/72/75
f 77/77/79 67/69/71 66/71/72 76/78/80
f 76/78/81 66/71/73 65/73/76 75/79/82
f 33/38/39 22/23/23 67/69/71 77/77/79
f 39/20/18 33/38/39 77/77/79 78/65/65
f 78/65/65 77/77/79 76/78/80 79/66/67
f 79/66/69 76/78/81 75/79/82 80/67/70
f 73/74/31 74/80/41 81/81/40
f 30/32/31 31/41/42 74/80/41 73/74/31
f 81/81/40 82/82/40 73/74/31
f 82/82/40 83/83/40 73/74/31
f 83/83/40 84/84/40 73/74/31
f 84/84/40 72/75/32 73/74/31
f 84/84/83 89/85/84 71/76/78 72/75/77
f 83/83/85 88/86/86 89/85/84 84/84/83
f 82/82/87 87/87/88 88/86/86 83/83/85
f 81/81/89 86/88/90 87/87/88 82/82/87
f 74/80/91 85/89/91 86/88/90 81/81/89
f 74/80/41 31/41/42 50/50/52 85/89/52
