# Blender 4.1.0
# www.blender.org
o plus_button
v -0.101209 0.101265 -0.575815
v -0.102817 0.098550 -0.575815
v -0.079362 0.098550 -0.575815
v -0.101395 0.098550 -0.578434
v -0.101410 0.084939 -0.578484
v -0.083181 0.098550 -0.579742
v -0.083181 0.102380 -0.575815
v -0.098291 0.098550 -0.579742
v -0.098291 0.102380 -0.575815
v -0.080734 0.098550 -0.578451
v -0.080757 0.084939 -0.578499
v -0.083181 0.100892 -0.578403
v -0.098291 0.100957 -0.578336
v -0.102817 0.084939 -0.575936
v -0.083092 0.084939 -0.579742
v -0.098297 0.084939 -0.579742
v -0.079362 0.084939 -0.575753
v -0.080502 0.101066 -0.575815
v -0.081691 0.100892 -0.577419
v -0.100221 0.101265 -0.577443
v -0.101209 0.101265 -0.510660
v -0.101395 0.098550 -0.508041
v -0.101410 0.084939 -0.507991
v -0.079362 0.098550 -0.510660
v -0.102817 0.098550 -0.510660
v -0.083181 0.098550 -0.506732
v -0.083181 0.102380 -0.510660
v -0.098291 0.098550 -0.506732
v -0.098291 0.102380 -0.510660
v -0.080734 0.098550 -0.508023
v -0.080757 0.084939 -0.507975
v -0.083181 0.100892 -0.508071
v -0.098291 0.100957 -0.508138
v -0.102817 0.084939 -0.510539
v -0.083092 0.084939 -0.506732
v -0.098297 0.084939 -0.506732
v -0.079362 0.084939 -0.510722
v -0.080502 0.101066 -0.510660
v -0.081691 0.100892 -0.509055
v -0.100221 0.101265 -0.509032
v -0.123595 0.101265 -0.533046
v -0.123595 0.098550 -0.531438
v -0.123595 0.098550 -0.554893
v -0.126214 0.098550 -0.532860
v -0.126264 0.084939 -0.532845
v -0.127523 0.098550 -0.551074
v -0.123595 0.102380 -0.551074
v -0.127523 0.098550 -0.535964
v -0.123595 0.102380 -0.535964
v -0.126232 0.098550 -0.553521
v -0.126280 0.084939 -0.553498
v -0.126184 0.100892 -0.551074
v -0.126117 0.100957 -0.535964
v -0.123716 0.084939 -0.531438
v -0.127523 0.084939 -0.551163
v -0.127523 0.084939 -0.535958
v -0.123533 0.084939 -0.554893
v -0.123595 0.101066 -0.553753
v -0.125200 0.100892 -0.552564
v -0.125223 0.101265 -0.534034
v -0.058440 0.101265 -0.533046
v -0.055822 0.098550 -0.532860
v -0.055771 0.084939 -0.532845
v -0.058440 0.098550 -0.554893
v -0.058440 0.098550 -0.531438
v -0.054513 0.098550 -0.551074
v -0.058440 0.102380 -0.551074
v -0.054513 0.098550 -0.535964
v -0.058440 0.102380 -0.535964
v -0.055804 0.098550 -0.553521
v -0.055756 0.084939 -0.553498
v -0.055852 0.100892 -0.551074
v -0.055919 0.100957 -0.535964
v -0.058319 0.084939 -0.531438
v -0.054513 0.084939 -0.551163
v -0.054513 0.084939 -0.535958
v -0.058502 0.084939 -0.554893
v -0.058440 0.101066 -0.553753
v -0.056836 0.100892 -0.552564
v -0.056812 0.101265 -0.534034
v -0.079362 0.098550 -0.554955
v -0.079362 0.084939 -0.554893
v -0.102817 0.098550 -0.554893
v -0.102817 0.084939 -0.555014
v -0.079362 0.098550 -0.531376
v -0.079362 0.084939 -0.531438
v -0.102817 0.098550 -0.531559
v -0.102817 0.084939 -0.531438
v -0.083181 0.102380 -0.535964
v -0.083181 0.102380 -0.551074
v -0.098291 0.102380 -0.535964
v -0.098291 0.102380 -0.551074
v -0.101327 0.101066 -0.553753
v -0.080502 0.101066 -0.553753
v -0.101209 0.101265 -0.533046
v -0.080502 0.101066 -0.532928
vn -0.6613 0.7279 -0.1814
vn -0.9387 0.2527 -0.2343
vn 0.9465 0.2158 -0.2398
vn -0.6486 0.2416 -0.7217
vn -0.6672 0.0029 -0.7449
vn 0.2323 0.2510 -0.9397
vn 0.2057 0.9497 -0.2361
vn -0.1824 0.2457 -0.9520
vn -0.1514 0.9637 -0.2199
vn 0.6850 0.2303 -0.6912
vn 0.7110 0.0009 -0.7032
vn 0.1998 0.6802 -0.7052
vn -0.1244 0.6803 -0.7223
vn -0.9685 0.0018 -0.2491
vn 0.2422 0.0014 -0.9702
vn -0.1946 0.0010 -0.9809
vn 0.9721 -0.0005 -0.2346
vn 0.7064 0.6705 -0.2265
vn 0.5164 0.6497 -0.5578
vn -0.4407 0.7141 -0.5439
vn -0.6573 0.7312 0.1825
vn -0.6486 0.2416 0.7217
vn -0.6671 0.0029 0.7449
vn 0.9465 0.2158 0.2398
vn -0.9387 0.2527 0.2343
vn 0.2323 0.2510 0.9397
vn 0.2057 0.9497 0.2361
vn -0.1824 0.2457 0.9520
vn -0.1453 0.9645 0.2204
vn 0.6850 0.2303 0.6912
vn 0.7110 0.0009 0.7032
vn 0.1998 0.6802 0.7052
vn -0.1244 0.6803 0.7223
vn -0.9685 0.0018 0.2491
vn 0.2422 0.0014 0.9702
vn -0.1946 0.0010 0.9809
vn 0.9721 -0.0005 0.2346
vn 0.7064 0.6705 0.2265
vn 0.5164 0.6497 0.5578
vn -0.4407 0.7141 0.5439
vn -0.1821 0.7281 0.6608
vn -0.2326 0.2494 0.9400
vn -0.2404 0.2169 -0.9461
vn -0.7217 0.2416 0.6486
vn -0.7449 0.0029 0.6671
vn -0.9397 0.2510 -0.2323
vn -0.2361 0.9497 -0.2057
vn -0.9520 0.2457 0.1824
vn -0.2204 0.9645 0.1453
vn -0.6912 0.2303 -0.6850
vn -0.7032 0.0009 -0.7110
vn -0.7052 0.6802 -0.1998
vn -0.7223 0.6803 0.1244
vn -0.2477 0.0041 0.9688
vn -0.9702 0.0014 -0.2422
vn -0.9809 0.0010 0.1946
vn -0.2360 0.0018 -0.9718
vn -0.2265 0.6705 -0.7064
vn -0.5578 0.6497 -0.5164
vn -0.5439 0.7141 0.4407
vn 0.1816 0.7295 0.6595
vn 0.7217 0.2416 0.6486
vn 0.7449 0.0029 0.6672
vn 0.2406 0.2179 -0.9458
vn 0.2351 0.2545 0.9381
vn 0.9397 0.2510 -0.2323
vn 0.2361 0.9497 -0.2056
vn 0.9520 0.2457 0.1824
vn 0.2199 0.9637 0.1514
vn 0.6912 0.2303 -0.6850
vn 0.7032 0.0009 -0.7110
vn 0.7052 0.6802 -0.1998
vn 0.7223 0.6803 0.1244
vn 0.2499 0.0006 0.9683
vn 0.9702 0.0014 -0.2422
vn 0.9809 0.0010 0.1946
vn 0.2353 -0.0017 -0.9719
vn 0.2267 0.6726 -0.7045
vn 0.5578 0.6497 -0.5164
vn 0.5439 0.7141 0.4407
vn 0.6724 0.3262 -0.6645
vn 0.7066 -0.0016 -0.7076
vn -0.6372 0.3641 -0.6793
vn -0.7101 0.0031 -0.7041
vn 0.6822 0.3648 0.6336
vn 0.7066 -0.0016 0.7076
vn -0.6411 0.3998 0.6551
vn -0.7081 0.0031 0.7061
vn 0.0543 0.9971 0.0540
vn 0.0592 0.9965 -0.0592
vn -0.0467 0.9978 0.0467
vn -0.0540 0.9971 -0.0543
vn -0.3182 0.8853 -0.3392
vn 0.3513 0.8669 -0.3537
vn -0.2992 0.9072 0.2957
vn 0.3369 0.8863 0.3179
vt 0.249394 0.834008
vt 0.173589 0.757168
vt 0.188888 0.740435
vt 0.265649 0.818585
vt 0.221689 0.984806
vt 0.257431 0.858334
vt 0.282812 0.861248
vt 0.256355 0.992673
vt 0.145217 0.747030
vt 0.140734 0.721005
vt 0.167244 0.727557
vt 0.168040 0.742229
vt 0.012382 0.801384
vt 0.000100 0.766564
vt 0.157413 0.771411
vt 0.236522 0.850157
vt 0.262000 0.838159
vt 0.277228 0.838641
vt 0.192551 0.975966
vt 0.030210 0.840066
vt 0.836058 0.251887
vt 0.820144 0.268223
vt 0.741526 0.189499
vt 0.758635 0.174152
vt 0.989895 0.224607
vt 0.997813 0.259977
vt 0.863468 0.286329
vt 0.860768 0.260341
vt 0.242161 0.503570
vt 0.285739 0.505966
vt 0.748680 0.145313
vt 0.743550 0.168367
vt 0.728663 0.167391
vt 0.722406 0.140436
vt 0.770180 0.000100
vt 0.804919 0.012716
vt 0.498200 0.719601
vt 0.497231 0.761184
vt 0.773209 0.157912
vt 0.852613 0.238945
vt 0.840149 0.264780
vt 0.840470 0.280350
vt 0.980989 0.194897
vt 0.336395 0.509837
vt 0.843559 0.030912
vt 0.494029 0.953038
vt 0.498904 0.672474
vt 0.164365 0.252435
vt 0.240764 0.175300
vt 0.257750 0.190449
vt 0.180101 0.268628
vt 0.013185 0.225564
vt 0.139949 0.260751
vt 0.137197 0.286359
vt 0.005452 0.260257
vt 0.250523 0.146711
vt 0.276518 0.141788
vt 0.270423 0.168504
vt 0.255682 0.169521
vt 0.194291 0.015710
vt 0.228599 0.003018
vt 0.226282 0.159272
vt 0.148001 0.239660
vt 0.160305 0.265172
vt 0.159952 0.280551
vt 0.021888 0.196399
vt 0.156182 0.033926
vt 0.739593 0.839589
vt 0.723682 0.823113
vt 0.806309 0.749520
vt 0.820843 0.766935
vt 0.761025 0.993509
vt 0.725738 0.999900
vt 0.704715 0.865653
vt 0.730376 0.863838
vt 0.755818 0.503956
vt 0.855713 0.731453
vt 0.828521 0.737278
vt 0.711012 0.506287
vt 0.850267 0.758035
vt 0.827141 0.752121
vt 0.997813 0.781539
vt 0.984224 0.816708
vt 0.836269 0.782110
vt 0.751835 0.856564
vt 0.726617 0.843244
vt 0.711175 0.843121
vt 0.790863 0.985935
vt 0.659402 0.509345
vt 0.965688 0.857472
vt 0.041932 0.491294
vt 0.960937 0.494617
vt 0.497899 0.242611
vt 0.498841 0.038276
vt 0.498939 0.341576
vt 0.498943 0.291448
s 1
f 12/1/12 13/2/13 9/3/9 7/4/7
f 11/5/11 10/6/10 3/7/3 17/8/17
f 4/9/4 2/10/2 1/11/1 20/12/20
f 4/9/4 5/13/5 14/14/14 2/10/2
f 8/15/8 13/2/13 12/1/12 6/16/6
f 6/16/6 12/1/12 19/17/19 10/6/10
f 10/6/10 19/17/19 18/18/18 3/7/3
f 9/3/9 13/2/13 20/12/20
f 6/16/6 10/6/10 11/5/11 15/19/15
f 16/20/16 5/13/5 4/9/4 8/15/8
f 15/19/15 16/20/16 8/15/8 6/16/6
f 19/17/19 12/1/12 7/4/7
f 18/18/18 19/17/19 7/4/7
f 20/12/20 13/2/13 8/15/8 4/9/4
f 20/12/20 1/11/1 9/3/9
f 32/21/32 27/22/27 29/23/29 33/24/33
f 31/25/31 37/26/37 24/27/24 30/28/30
f 1/11/1 2/10/2 83/29/83 93/30/93
f 22/31/22 40/32/40 21/33/21 25/34/25
f 22/31/22 25/34/25 34/35/34 23/36/23
f 3/7/3 18/18/18 94/37/94 81/38/81
f 28/39/28 26/40/26 32/21/32 33/24/33
f 26/40/26 30/28/30 39/41/39 32/21/32
f 30/28/30 24/27/24 38/42/38 39/41/39
f 29/23/29 40/32/40 33/24/33
f 26/40/26 35/43/35 31/25/31 30/28/30
f 93/30/93 92/44/92 9/3/9 1/11/1
f 36/45/36 28/39/28 22/31/22 23/36/23
f 35/43/35 26/40/26 28/39/28 36/45/36
f 17/8/17 3/7/3 81/38/81 82/46/82
f 7/4/7 90/47/90 94/37/94 18/18/18
f 39/41/39 27/22/27 32/21/32
f 38/42/38 27/22/27 39/41/39
f 40/32/40 22/31/22 28/39/28 33/24/33
f 40/32/40 29/23/29 21/33/21
f 52/48/52 53/49/53 49/50/49 47/51/47
f 51/52/51 50/53/50 43/54/43 57/55/57
f 44/56/44 42/57/42 41/58/41 60/59/60
f 44/56/44 45/60/45 54/61/54 42/57/42
f 48/62/48 53/49/53 52/48/52 46/63/46
f 46/63/46 52/48/52 59/64/59 50/53/50
f 50/53/50 59/64/59 58/65/58 43/54/43
f 49/50/49 53/49/53 60/59/60
f 46/63/46 50/53/50 51/52/51 55/66/55
f 56/67/56 45/60/45 44/56/44 48/62/48
f 55/66/55 56/67/56 48/62/48 46/63/46
f 59/64/59 52/48/52 47/51/47
f 58/65/58 59/64/59 47/51/47
f 60/59/60 53/49/53 48/62/48 44/56/44
f 60/59/60 41/58/41 49/50/49
f 72/68/72 67/69/67 69/70/69 73/71/73
f 71/72/71 77/73/77 64/74/64 70/75/70
f 85/76/85 65/77/65 61/78/61 96/79/96
f 62/80/62 80/81/80 61/78/61 65/77/65
f 62/80/62 65/77/65 74/82/74 63/83/63
f 92/44/92 93/30/93 58/65/58 47/51/47
f 68/84/68 66/85/66 72/68/72 73/71/73
f 66/85/66 70/75/70 79/86/79 72/68/72
f 70/75/70 64/74/64 78/87/78 79/86/79
f 69/70/69 80/81/80 73/71/73
f 66/85/66 75/88/75 71/72/71 70/75/70
f 61/78/61 69/70/69 89/89/89 96/79/96
f 76/90/76 68/84/68 62/80/62 63/83/63
f 75/88/75 66/85/66 68/84/68 76/90/76
f 83/29/83 84/91/84 57/55/57 43/54/43
f 82/46/82 81/38/81 64/74/64 77/73/77
f 58/65/58 93/30/93 83/29/83 43/54/43
f 79/86/79 67/69/67 72/68/72
f 78/87/78 67/69/67 79/86/79
f 80/81/80 62/80/62 68/84/68 73/71/73
f 80/81/80 69/70/69 61/78/61
f 2/10/2 14/14/14 84/91/84 83/29/83
f 24/27/24 37/26/37 86/92/86 85/76/85
f 34/35/34 25/34/25 87/93/87 88/94/88
f 85/76/85 86/92/86 74/82/74 65/77/65
f 88/94/88 87/93/87 42/57/42 54/61/54
f 47/51/47 49/50/49 91/95/91 92/44/92
f 69/70/69 67/69/67 90/47/90 89/89/89
f 7/4/7 9/3/9 92/44/92 90/47/90
f 29/23/29 27/22/27 89/89/89 91/95/91
f 94/37/94 78/87/78 64/74/64 81/38/81
f 94/37/94 90/47/90 67/69/67 78/87/78
f 96/79/96 38/42/38 24/27/24 85/76/85
f 27/22/27 38/42/38 96/79/96 89/89/89
f 21/33/21 29/23/29 91/95/91 95/96/95
f 21/33/21 95/96/95 87/93/87 25/34/25
f 95/96/95 91/95/91 49/50/49 41/58/41
f 41/58/41 42/57/42 87/93/87 95/96/95
f 89/89/89 90/47/90 92/44/92 91/95/91
