# Blender 4.1.0
# www.blender.org
o x_button
v 0.049262 0.082012 -0.484981
v 0.049262 0.107618 -0.484981
v 0.068499 0.082012 -0.481154
v 0.068499 0.107618 -0.481154
v 0.084807 0.082012 -0.470258
v 0.084807 0.107618 -0.470258
v 0.095704 0.082012 -0.453949
v 0.095704 0.107618 -0.453949
v 0.099530 0.082012 -0.434713
v 0.099530 0.107618 -0.434713
v 0.095704 0.082012 -0.415476
v 0.095704 0.107618 -0.415476
v 0.084807 0.082012 -0.399168
v 0.084807 0.107618 -0.399168
v 0.068499 0.082012 -0.388271
v 0.068499 0.107618 -0.388271
v 0.049262 0.082012 -0.384444
v 0.049262 0.107618 -0.384444
v 0.030025 0.082012 -0.388271
v 0.030025 0.107618 -0.388271
v 0.013717 0.082012 -0.399168
v 0.013717 0.107618 -0.399168
v 0.002820 0.082012 -0.415476
v 0.002820 0.107618 -0.415476
v -0.001006 0.082012 -0.434713
v -0.001006 0.107618 -0.434713
v 0.002820 0.082012 -0.453949
v 0.002820 0.107618 -0.453949
v 0.013717 0.082012 -0.470258
v 0.013717 0.107618 -0.470258
v 0.030025 0.082012 -0.481154
v 0.030025 0.107618 -0.481154
v 0.067231 0.111399 -0.478094
v 0.049262 0.111399 -0.481669
v 0.082465 0.111399 -0.467916
v 0.092644 0.111399 -0.452682
v 0.096218 0.111399 -0.434713
v 0.092644 0.111399 -0.416743
v 0.082465 0.111399 -0.401510
v 0.067231 0.111399 -0.391331
v 0.049262 0.111399 -0.387756
v 0.031293 0.111399 -0.391331
v 0.016059 0.111399 -0.401510
v 0.005880 0.111399 -0.416743
v 0.002306 0.111399 -0.434713
v 0.005880 0.111399 -0.452682
v 0.016059 0.111399 -0.467916
v 0.031293 0.111399 -0.478094
v 0.063999 0.114467 -0.470291
v 0.049262 0.114467 -0.473222
v 0.076492 0.114467 -0.461943
v 0.084840 0.114467 -0.449449
v 0.087771 0.114467 -0.434713
v 0.084840 0.114467 -0.419976
v 0.076492 0.114467 -0.407482
v 0.063999 0.114467 -0.399135
v 0.049262 0.114467 -0.396203
v 0.034525 0.114467 -0.399135
v 0.022032 0.114467 -0.407482
v 0.013684 0.114467 -0.419976
v 0.010753 0.114467 -0.434713
v 0.013684 0.114467 -0.449449
v 0.022032 0.114467 -0.461943
v 0.034525 0.114467 -0.470291
v 0.049262 0.116478 -0.434713
vn -0.0000 -0.0000 -1.0000
vn -0.0000 0.3383 -0.9410
vn 0.3827 -0.0000 -0.9239
vn 0.3601 0.3383 -0.8694
vn 0.7071 -0.0000 -0.7071
vn 0.6654 0.3383 -0.6654
vn 0.9239 -0.0000 -0.3827
vn 0.8694 0.3383 -0.3601
vn 1.0000 -0.0000 -0.0000
vn 0.9410 0.3383 -0.0000
vn 0.9239 -0.0000 0.3827
vn 0.8694 0.3383 0.3601
vn 0.7071 -0.0000 0.7071
vn 0.6654 0.3383 0.6654
vn 0.3827 -0.0000 0.9239
vn 0.3601 0.3383 0.8694
vn -0.0000 -0.0000 1.0000
vn -0.0000 0.3383 0.9410
vn -0.3827 -0.0000 0.9239
vn -0.3601 0.3383 0.8694
vn -0.7071 -0.0000 0.7071
vn -0.6654 0.3383 0.6654
vn -0.9239 -0.0000 0.3827
vn -0.8694 0.3383 0.3601
vn -1.0000 -0.0000 -0.0000
vn -0.9410 0.3383 -0.0000
vn -0.9239 -0.0000 -0.3827
vn -0.8694 0.3383 -0.3601
vn -0.7071 -0.0000 -0.7071
vn -0.6654 0.3383 -0.6654
vn -0.3827 -0.0000 -0.9239
vn -0.3601 0.3383 -0.8694
vn 0.2239 0.8110 -0.5405
vn -0.0000 0.8110 -0.5850
vn 0.4137 0.8110 -0.4137
vn 0.5405 0.8110 -0.2239
vn 0.5850 0.8110 -0.0000
vn 0.5405 0.8110 0.2239
vn 0.4137 0.8110 0.4137
vn 0.2239 0.8110 0.5405
vn -0.0000 0.8110 0.5850
vn -0.2239 0.8110 0.5405
vn -0.4137 0.8110 0.4137
vn -0.5405 0.8110 0.2239
vn -0.5850 0.8110 -0.0000
vn -0.5405 0.8110 -0.2239
vn -0.4137 0.8110 -0.4137
vn -0.2239 0.8110 -0.5405
vn 0.0829 0.9763 -0.2000
vn -0.0000 0.9763 -0.2165
vn 0.1531 0.9763 -0.1531
vn 0.2000 0.9763 -0.0829
vn 0.2165 0.9763 -0.0000
vn 0.2000 0.9763 0.0829
vn 0.1531 0.9763 0.1531
vn 0.0829 0.9763 0.2000
vn -0.0000 0.9763 0.2165
vn -0.0829 0.9763 0.2000
vn -0.1531 0.9763 0.1531
vn -0.2000 0.9763 0.0829
vn -0.2165 0.9763 -0.0000
vn -0.2000 0.9763 -0.0829
vn -0.1531 0.9763 -0.1531
vn -0.0829 0.9763 -0.2000
vn -0.0000 1.0000 -0.0000
vt 0.000229 0.400899
vt 0.204611 0.445856
vt 0.206012 0.563062
vt 0.000100 0.599515
vt 0.252311 0.670848
vt 0.076022 0.783360
vt 0.336507 0.752586
vt 0.216863 0.924144
vt 0.445891 0.795036
vt 0.400982 0.999900
vt 0.563235 0.793743
vt 0.599849 0.999900
vt 0.671192 0.747619
vt 0.783905 0.923749
vt 0.752422 0.662944
vt 0.924420 0.782374
vt 0.795085 0.553774
vt 0.999713 0.598299
vt 0.793461 0.436598
vt 0.999218 0.399770
vt 0.746854 0.329020
vt 0.923003 0.216360
vt 0.663007 0.247029
vt 0.782451 0.075796
vt 0.553759 0.204690
vt 0.598522 0.000100
vt 0.436560 0.205781
vt 0.399853 0.000257
vt 0.329377 0.253070
vt 0.216406 0.076797
vt 0.277245 0.653310
vt 0.353056 0.726817
vt 0.247303 0.336757
vt 0.076072 0.217254
vt 0.556642 0.763954
vt 0.451344 0.765109
vt 0.460581 0.714517
vt 0.545681 0.713473
vt 0.726916 0.646267
vt 0.765226 0.548344
vt 0.234474 0.451321
vt 0.235757 0.556451
vt 0.548308 0.234584
vt 0.443001 0.235633
vt 0.653779 0.722437
vt 0.721892 0.346553
vt 0.646456 0.272722
vt 0.272971 0.353362
vt 0.763754 0.443278
vt 0.346666 0.278053
vt 0.381301 0.683431
vt 0.319915 0.623952
vt 0.499870 0.499787
vt 0.539077 0.285180
vt 0.453908 0.286218
vt 0.624245 0.679723
vt 0.375893 0.320314
vt 0.683535 0.618134
vt 0.316488 0.381173
vt 0.714652 0.538865
vt 0.285141 0.460312
vt 0.286223 0.545468
vt 0.713322 0.453807
vt 0.679455 0.375771
vt 0.618407 0.316242
s 1
f 1/1/1 2/2/2 4/3/4 3/4/3
f 3/4/3 4/3/4 6/5/6 5/6/5
f 5/6/5 6/5/6 8/7/8 7/8/7
f 7/8/7 8/7/8 10/9/10 9/10/9
f 9/10/9 10/9/10 12/11/12 11/12/11
f 11/12/11 12/11/12 14/13/14 13/14/13
f 13/14/13 14/13/14 16/15/16 15/16/15
f 15/16/15 16/15/16 18/17/18 17/18/17
f 17/18/17 18/17/18 20/19/20 19/20/19
f 19/20/19 20/19/20 22/21/22 21/22/21
f 21/22/21 22/21/22 24/23/24 23/24/23
f 23/24/23 24/23/24 26/25/26 25/26/25
f 25/26/25 26/25/26 28/27/28 27/28/27
f 27/28/27 28/27/28 30/29/30 29/30/29
f 8/7/8 6/5/6 35/31/35 36/32/36
f 29/30/29 30/29/30 32/33/32 31/34/31
f 31/34/31 32/33/32 2/2/2 1/1/1
f 38/35/38 37/36/37 53/37/53 54/38/54
f 18/17/18 16/15/16 40/39/40 41/40/41
f 4/3/4 2/2/2 34/41/34 33/42/33
f 28/27/28 26/25/26 45/43/45 46/44/46
f 14/13/14 12/11/12 38/35/38 39/45/39
f 24/23/24 22/21/22 43/46/43 44/47/44
f 2/2/2 32/33/32 48/48/48 34/41/34
f 10/9/10 8/7/8 36/32/36 37/36/37
f 20/19/20 18/17/18 41/40/41 42/49/42
f 30/29/30 28/27/28 46/44/46 47/50/47
f 6/5/6 4/3/4 33/42/33 35/31/35
f 16/15/16 14/13/14 39/45/39 40/39/40
f 26/25/26 24/23/24 44/47/44 45/43/45
f 12/11/12 10/9/10 37/36/37 38/35/38
f 22/21/22 20/19/20 42/49/42 43/46/43
f 32/33/32 30/29/30 47/50/47 48/48/48
f 52/51/52 51/52/51 65/53/65
f 46/44/46 45/43/45 61/54/61 62/55/62
f 39/45/39 38/35/38 54/38/54 55/56/55
f 47/50/47 46/44/46 62/55/62 63/57/63
f 40/39/40 39/45/39 55/56/55 56/58/56
f 48/48/48 47/50/47 63/57/63 64/59/64
f 41/40/41 40/39/40 56/58/56 57/60/57
f 33/42/33 34/41/34 50/61/50 49/62/49
f 34/41/34 48/48/48 64/59/64 50/61/50
f 42/49/42 41/40/41 57/60/57 58/63/58
f 35/31/35 33/42/33 49/62/49 51/52/51
f 43/46/43 42/49/42 58/63/58 59/64/59
f 36/32/36 35/31/35 51/52/51 52/51/52
f 44/47/44 43/46/43 59/64/59 60/65/60
f 37/36/37 36/32/36 52/51/52 53/37/53
f 45/43/45 44/47/44 60/65/60 61/54/61
f 60/65/60 59/64/59 65/53/65
f 53/37/53 52/51/52 65/53/65
f 61/54/61 60/65/60 65/53/65
f 54/38/54 53/37/53 65/53/65
f 62/55/62 61/54/61 65/53/65
f 55/56/55 54/38/54 65/53/65
f 63/57/63 62/55/62 65/53/65
f 56/58/56 55/56/55 65/53/65
f 64/59/64 63/57/63 65/53/65
f 57/60/57 56/58/56 65/53/65
f 49/62/49 50/61/50 65/53/65
f 50/61/50 64/59/64 65/53/65
f 58/63/58 57/60/57 65/53/65
f 51/52/51 49/62/49 65/53/65
f 59/64/59 58/63/58 65/53/65
