# Blender 4.1.0
# www.blender.org
o y_button
v -0.060466 0.082013 -0.381077
v -0.060466 0.107618 -0.381077
v -0.041230 0.082013 -0.377250
v -0.041230 0.107618 -0.377250
v -0.024921 0.082013 -0.366353
v -0.024921 0.107618 -0.366353
v -0.014025 0.082013 -0.350045
v -0.014025 0.107618 -0.350045
v -0.010198 0.082013 -0.330808
v -0.010198 0.107618 -0.330808
v -0.014025 0.082013 -0.311572
v -0.014025 0.107618 -0.311572
v -0.024921 0.082013 -0.295263
v -0.024921 0.107618 -0.295263
v -0.041230 0.082013 -0.284367
v -0.041230 0.107618 -0.284367
v -0.060466 0.082013 -0.280540
v -0.060466 0.107618 -0.280540
v -0.079703 0.082013 -0.284367
v -0.079703 0.107618 -0.284367
v -0.096011 0.082013 -0.295263
v -0.096011 0.107618 -0.295263
v -0.106908 0.082013 -0.311572
v -0.106908 0.107618 -0.311572
v -0.110735 0.082013 -0.330808
v -0.110735 0.107618 -0.330808
v -0.106908 0.082013 -0.350045
v -0.106908 0.107618 -0.350045
v -0.096011 0.082013 -0.366353
v -0.096011 0.107618 -0.366353
v -0.079703 0.082013 -0.377250
v -0.079703 0.107618 -0.377250
v -0.042497 0.111399 -0.374190
v -0.060466 0.111399 -0.377764
v -0.027263 0.111399 -0.364011
v -0.017084 0.111399 -0.348778
v -0.013510 0.111399 -0.330808
v -0.017084 0.111399 -0.312839
v -0.027263 0.111399 -0.297605
v -0.042497 0.111399 -0.287427
v -0.060466 0.111399 -0.283852
v -0.078436 0.111399 -0.287427
v -0.093669 0.111399 -0.297605
v -0.103848 0.111399 -0.312839
v -0.107422 0.111399 -0.330808
v -0.103848 0.111399 -0.348778
v -0.093669 0.111399 -0.364011
v -0.078436 0.111399 -0.374190
v -0.045730 0.114467 -0.366386
v -0.060466 0.114467 -0.369318
v -0.033236 0.114467 -0.358039
v -0.024888 0.114467 -0.345545
v -0.021957 0.114467 -0.330808
v -0.024888 0.114467 -0.316071
v -0.033236 0.114467 -0.303578
v -0.045730 0.114467 -0.295230
v -0.060466 0.114467 -0.292299
v -0.075203 0.114467 -0.295230
v -0.087697 0.114467 -0.303578
v -0.096045 0.114467 -0.316071
v -0.098976 0.114467 -0.330808
v -0.096045 0.114467 -0.345545
v -0.087697 0.114467 -0.358039
v -0.075203 0.114467 -0.366386
v -0.060466 0.116478 -0.330808
vn -0.0000 -0.0000 -1.0000
vn -0.0000 0.3383 -0.9410
vn 0.3827 -0.0000 -0.9239
vn 0.3601 0.3383 -0.8694
vn 0.7071 -0.0000 -0.7071
vn 0.6654 0.3383 -0.6654
vn 0.9239 -0.0000 -0.3827
vn 0.8694 0.3383 -0.3601
vn 1.0000 -0.0000 -0.0000
vn 0.9410 0.3383 -0.0000
vn 0.9239 -0.0000 0.3827
vn 0.8694 0.3383 0.3601
vn 0.7071 -0.0000 0.7071
vn 0.6654 0.3383 0.6654
vn 0.3827 -0.0000 0.9239
vn 0.3601 0.3383 0.8694
vn -0.0000 -0.0000 1.0000
vn -0.0000 0.3383 0.9410
vn -0.3827 -0.0000 0.9239
vn -0.3601 0.3383 0.8694
vn -0.7071 -0.0000 0.7071
vn -0.6654 0.3383 0.6654
vn -0.9239 -0.0000 0.3827
vn -0.8694 0.3383 0.3601
vn -1.0000 -0.0000 -0.0000
vn -0.9410 0.3383 -0.0000
vn -0.9239 -0.0000 -0.3827
vn -0.8694 0.3383 -0.3601
vn -0.7071 -0.0000 -0.7071
vn -0.6654 0.3383 -0.6654
vn -0.3827 -0.0000 -0.9239
vn -0.3601 0.3383 -0.8694
vn 0.2239 0.8110 -0.5405
vn -0.0000 0.8110 -0.5850
vn 0.4137 0.8110 -0.4137
vn 0.5405 0.8110 -0.2239
vn 0.5850 0.8110 -0.0000
vn 0.5405 0.8110 0.2239
vn 0.4137 0.8110 0.4137
vn 0.2239 0.8110 0.5405
vn -0.0000 0.8110 0.5850
vn -0.2239 0.8110 0.5405
vn -0.4137 0.8110 0.4137
vn -0.5405 0.8110 0.2239
vn -0.5850 0.8110 -0.0000
vn -0.5405 0.8110 -0.2239
vn -0.4137 0.8110 -0.4137
vn -0.2239 0.8110 -0.5405
vn 0.0829 0.9763 -0.2000
vn -0.0000 0.9763 -0.2165
vn 0.1531 0.9763 -0.1531
vn 0.2000 0.9763 -0.0829
vn 0.2165 0.9763 -0.0000
vn 0.2000 0.9763 0.0829
vn 0.1531 0.9763 0.1531
vn 0.0829 0.9763 0.2000
vn -0.0000 0.9763 0.2165
vn -0.0829 0.9763 0.2000
vn -0.1531 0.9763 0.1531
vn -0.2000 0.9763 0.0829
vn -0.2165 0.9763 -0.0000
vn -0.2000 0.9763 -0.0829
vn -0.1531 0.9763 -0.1531
vn -0.0829 0.9763 -0.2000
vn -0.0000 1.0000 -0.0000
vt 0.000379 0.400271
vt 0.204572 0.445391
vt 0.205849 0.562525
vt 0.000100 0.598724
vt 0.252011 0.670276
vt 0.075774 0.782420
vt 0.336176 0.751884
vt 0.216207 0.923176
vt 0.445233 0.795110
vt 0.399854 0.999472
vt 0.562598 0.793719
vt 0.598825 0.999900
vt 0.670573 0.747678
vt 0.783042 0.924000
vt 0.751857 0.663027
vt 0.923752 0.782817
vt 0.794981 0.554039
vt 0.999469 0.598923
vt 0.793412 0.436864
vt 0.999285 0.400275
vt 0.746890 0.329208
vt 0.923220 0.216693
vt 0.663106 0.247113
vt 0.782744 0.075959
vt 0.553890 0.204660
vt 0.598848 0.000100
vt 0.436695 0.205635
vt 0.400179 0.000100
vt 0.329486 0.252810
vt 0.216706 0.076485
vt 0.276927 0.652777
vt 0.352482 0.726132
vt 0.247354 0.336389
vt 0.076316 0.216787
vt 0.556016 0.763916
vt 0.450505 0.765047
vt 0.459912 0.714374
vt 0.545093 0.713424
vt 0.726361 0.646281
vt 0.765147 0.548543
vt 0.234412 0.450885
vt 0.235578 0.555950
vt 0.548408 0.234549
vt 0.443105 0.235490
vt 0.653178 0.722485
vt 0.721902 0.346722
vt 0.646526 0.272793
vt 0.272995 0.353013
vt 0.763691 0.443524
vt 0.346744 0.277804
vt 0.380774 0.682971
vt 0.319576 0.623484
vt 0.499626 0.499682
vt 0.539123 0.285136
vt 0.453957 0.286081
vt 0.623695 0.679783
vt 0.375919 0.320086
vt 0.682943 0.618323
vt 0.316464 0.380860
vt 0.714417 0.539212
vt 0.285040 0.459929
vt 0.286016 0.545033
vt 0.713199 0.454021
vt 0.679414 0.375904
vt 0.618424 0.316290
s 1
f 1/1/1 2/2/2 4/3/4 3/4/3
f 3/4/3 4/3/4 6/5/6 5/6/5
f 5/6/5 6/5/6 8/7/8 7/8/7
f 7/8/7 8/7/8 10/9/10 9/10/9
f 9/10/9 10/9/10 12/11/12 11/12/11
f 11/12/11 12/11/12 14/13/14 13/14/13
f 13/14/13 14/13/14 16/15/16 15/16/15
f 15/16/15 16/15/16 18/17/18 17/18/17
f 17/18/17 18/17/18 20/19/20 19/20/19
f 19/20/19 20/19/20 22/21/22 21/22/21
f 21/22/21 22/21/22 24/23/24 23/24/23
f 23/24/23 24/23/24 26/25/26 25/26/25
f 25/26/25 26/25/26 28/27/28 27/28/27
f 27/28/27 28/27/28 30/29/30 29/30/29
f 8/7/8 6/5/6 35/31/35 36/32/36
f 29/30/29 30/29/30 32/33/32 31/34/31
f 31/34/31 32/33/32 2/2/2 1/1/1
f 38/35/38 37/36/37 53/37/53 54/38/54
f 18/17/18 16/15/16 40/39/40 41/40/41
f 4/3/4 2/2/2 34/41/34 33/42/33
f 28/27/28 26/25/26 45/43/45 46/44/46
f 14/13/14 12/11/12 38/35/38 39/45/39
f 24/23/24 22/21/22 43/46/43 44/47/44
f 2/2/2 32/33/32 48/48/48 34/41/34
f 10/9/10 8/7/8 36/32/36 37/36/37
f 20/19/20 18/17/18 41/40/41 42/49/42
f 30/29/30 28/27/28 46/44/46 47/50/47
f 6/5/6 4/3/4 33/42/33 35/31/35
f 16/15/16 14/13/14 39/45/39 40/39/40
f 26/25/26 24/23/24 44/47/44 45/43/45
f 12/11/12 10/9/10 37/36/37 38/35/38
f 22/21/22 20/19/20 42/49/42 43/46/43
f 32/33/32 30/29/30 47/50/47 48/48/48
f 52/51/52 51/52/51 65/53/65
f 46/44/46 45/43/45 61/54/61 62/55/62
f 39/45/39 38/35/38 54/38/54 55/56/55
f 47/50/47 46/44/46 62/55/62 63/57/63
f 40/39/40 39/45/39 55/56/55 56/58/56
f 48/48/48 47/50/47 63/57/63 64/59/64
f 41/40/41 40/39/40 56/58/56 57/60/57
f 33/42/33 34/41/34 50/61/50 49/62/49
f 34/41/34 48/48/48 64/59/64 50/61/50
f 42/49/42 41/40/41 57/60/57 58/63/58
f 35/31/35 33/42/33 49/62/49 51/52/51
f 43/46/43 42/49/42 58/63/58 59/64/59
f 36/32/36 35/31/35 51/52/51 52/51/52
f 44/47/44 43/46/43 59/64/59 60/65/60
f 37/36/37 36/32/36 52/51/52 53/37/53
f 45/43/45 44/47/44 60/65/60 61/54/61
f 60/65/60 59/64/59 65/53/65
f 53/37/53 52/51/52 65/53/65
f 61/54/61 60/65/60 65/53/65
f 54/38/54 53/37/53 65/53/65
f 62/55/62 61/54/61 65/53/65
f 55/56/55 54/38/54 65/53/65
f 63/57/63 62/55/62 65/53/65
f 56/58/56 55/56/55 65/53/65
f 64/59/64 63/57/63 65/53/65
f 57/60/57 56/58/56 65/53/65
f 49/62/49 50/61/50 65/53/65
f 50/61/50 64/59/64 65/53/65
f 58/63/58 57/60/57 65/53/65
f 51/52/51 49/62/49 65/53/65
f 59/64/59 58/63/58 65/53/65
