# Blender 3.6.5
# www.blender.org
mtllib dpad_left.mtl
o Dpad_Left
v -0.712024 0.231450 -0.163035
v -0.776077 0.242863 -0.163065
v -0.712006 0.233644 -0.201483
v -0.776057 0.242863 -0.206710
v -0.672998 0.220785 -0.163017
v -0.674148 0.220785 -0.167713
v -0.792382 0.244625 -0.163072
v -0.789474 0.244625 -0.198072
v -0.710020 0.228205 -0.207240
v -0.779201 0.238163 -0.212266
v -0.667412 0.214317 -0.163014
v -0.669882 0.214317 -0.168892
v -0.799329 0.240066 -0.163075
v -0.793694 0.240066 -0.200877
v -0.706534 0.195554 -0.212888
v -0.784559 0.206785 -0.218558
v -0.658536 0.179891 -0.163010
v -0.661265 0.179891 -0.169638
v -0.807260 0.208932 -0.163079
v -0.800905 0.208932 -0.205712
v -0.783635 0.243654 -0.204389
v -0.794667 0.207908 -0.213393
v -0.787565 0.239057 -0.208472
v -0.699249 0.193034 -0.208089
v -0.705172 0.231333 -0.197576
v -0.702835 0.225719 -0.202536
v -0.708294 0.232535 -0.200256
v -0.702734 0.194389 -0.211318
v -0.706152 0.227016 -0.205639
v -0.673280 0.220785 -0.165405
v -0.659276 0.179891 -0.166395
v -0.667905 0.214317 -0.165681
v -0.796559 0.243001 -0.163074
v -0.703879 0.228938 -0.200913
v -0.671781 0.218555 -0.168549
v -0.669580 0.217456 -0.163015
v -0.707158 0.230325 -0.203628
v -0.670230 0.218161 -0.165524
v -0.785539 0.242166 -0.206544
v -0.791969 0.243301 -0.199331
v -0.777595 0.241052 -0.210207
v -0.710955 0.231310 -0.205019
v -0.712042 0.233644 -0.124587
v -0.776097 0.242863 -0.119420
v -0.674152 0.220785 -0.158322
v -0.789507 0.244625 -0.128070
v -0.710061 0.228205 -0.118828
v -0.779247 0.238163 -0.113866
v -0.669888 0.214317 -0.157139
v -0.793729 0.240066 -0.125269
v -0.706580 0.195554 -0.113177
v -0.784610 0.206785 -0.107580
v -0.661271 0.179891 -0.156385
v -0.800944 0.208932 -0.120441
v -0.783673 0.243654 -0.121748
v -0.794713 0.207908 -0.112754
v -0.787607 0.239057 -0.117668
v -0.699291 0.193034 -0.117969
v -0.705204 0.231333 -0.128488
v -0.702871 0.225719 -0.123525
v -0.708329 0.232535 -0.125810
v -0.702779 0.194389 -0.114743
v -0.706192 0.227016 -0.120426
v -0.673282 0.220785 -0.160629
v -0.659279 0.179891 -0.159625
v -0.667907 0.214317 -0.160348
v -0.703914 0.228938 -0.125150
v -0.671786 0.218555 -0.157484
v -0.707195 0.230325 -0.122437
v -0.670232 0.218161 -0.160507
v -0.785579 0.242166 -0.119595
v -0.792003 0.243301 -0.126813
v -0.777639 0.241052 -0.115924
v -0.710994 0.231310 -0.121050
vn 0.2187 0.9758 0.0001
vn 0.2431 0.9396 -0.2408
vn 0.0963 0.9558 -0.2777
vn 0.1353 0.9908 0.0001
vn 0.4692 0.8620 -0.1916
vn 0.4546 0.8794 -0.1413
vn -0.0467 0.9647 -0.2590
vn -0.0040 0.7407 -0.6719
vn -0.3062 0.7686 -0.5617
vn 0.6974 0.5909 -0.4054
vn 0.6466 0.6192 -0.4455
vn 0.2813 0.7186 -0.6360
vn -0.1494 0.9802 -0.1298
vn -0.5582 0.7810 -0.2800
vn -0.6300 0.7766 -0.0003
vn -0.1635 0.9865 -0.0001
vn 0.4975 0.8675 0.0002
vn 0.7830 0.6221 0.0004
vn 0.7536 0.6244 -0.2053
vn 0.4826 0.8697 -0.1034
vn 0.2841 0.3964 -0.8730
vn 0.2931 0.1933 -0.9363
vn -0.1583 0.2164 -0.9634
vn -0.1268 0.4190 -0.8991
vn -0.5772 0.2580 -0.7748
vn -0.5135 0.4479 -0.7319
vn 0.9189 0.3946 0.0004
vn 0.9687 0.2483 0.0004
vn 0.9067 0.2353 -0.3499
vn 0.8756 0.3664 -0.3147
vn 0.7772 0.3132 -0.5458
vn 0.7931 0.2096 -0.5719
vn 0.7214 0.1937 -0.6649
vn 0.7150 0.3310 -0.6158
vn -0.8011 0.4541 -0.3899
vn -0.9591 0.2443 -0.1430
vn -0.9691 0.2468 -0.0004
vn -0.9040 0.4275 -0.0004
vn -0.7315 0.2664 -0.6276
vn 0.4040 0.8958 -0.1854
vn 0.5749 0.3741 -0.7277
vn 0.5217 0.6812 -0.5135
vn 0.6001 0.1980 -0.7751
vn 0.0960 0.9558 0.2778
vn 0.2429 0.9396 0.2410
vn 0.4545 0.8794 0.1418
vn 0.4691 0.8620 0.1920
vn -0.0469 0.9647 0.2590
vn -0.3067 0.7686 0.5614
vn -0.0046 0.7407 0.6719
vn 0.6462 0.6192 0.4461
vn 0.6971 0.5909 0.4061
vn 0.2807 0.7186 0.6363
vn -0.1495 0.9802 0.1296
vn -0.5584 0.7810 0.2795
vn 0.4825 0.8697 0.1039
vn 0.7535 0.6244 0.2060
vn 0.2833 0.3964 0.8733
vn -0.1276 0.4190 0.8990
vn -0.1592 0.2164 0.9632
vn 0.2922 0.1933 0.9366
vn -0.5142 0.4479 0.7314
vn -0.5779 0.2580 0.7743
vn 0.8754 0.3664 0.3155
vn 0.9064 0.2353 0.3508
vn 0.7767 0.3132 0.5466
vn 0.7145 0.3310 0.6164
vn 0.7208 0.1937 0.6656
vn 0.7925 0.2096 0.5727
vn -0.8015 0.4541 0.3891
vn -0.9592 0.2443 0.1421
vn -0.7321 0.2664 0.6270
vn 0.4038 0.8958 0.1858
vn 0.5212 0.6812 0.5140
vn 0.5742 0.3741 0.7282
vn 0.5994 0.1980 0.7756
vt 0.000000 0.000000
vt 0.000000 1.000000
vt 1.000000 1.000000
vt 1.000000 0.000000
vt 0.000000 0.473251
vt 0.000000 0.504203
vt 0.000000 0.507192
vt 0.000000 0.449676
s 1
f 1/1/1 3/2/2 4/3/3 2/4/4
f 1/1/1 6/2/5 25/2/6
f 4/3/3 21/3/7 2/4/4
f 4/3/3 41/3/8 39/3/9 21/3/7
f 6/2/5 35/2/10 34/2/11 25/2/6
f 3/2/2 42/2/12 41/3/8 4/3/3
f 8/3/13 40/3/14 33/4/15 7/4/16
f 5/1/17 36/1/18 38/5/19 30/6/20
f 9/2/21 15/2/22 16/3/23 10/3/24
f 10/3/24 16/3/23 22/3/25 23/3/26
f 11/1/27 17/1/28 31/7/29 32/8/30
f 12/2/31 18/2/32 24/2/33 26/2/34
f 14/3/35 20/3/36 19/4/37 13/4/38
f 22/3/25 20/3/39 14/3/35 23/3/26
f 23/3/26 14/3/35 40/3/14 39/3/9
f 25/2/6 27/2/40 1/1/1
f 26/2/34 29/2/41 37/2/42 34/2/11
f 24/2/33 28/2/43 29/2/41 26/2/34
f 27/2/40 3/2/2 1/1/1
f 29/2/41 9/2/21 42/2/12 37/2/42
f 28/2/43 15/2/22 9/2/21 29/2/41
f 21/3/7 8/3/13 2/4/4
f 8/3/13 7/4/16 2/4/4
f 32/8/30 12/2/31 35/2/10 38/5/19
f 30/6/20 1/1/1 5/1/17
f 31/7/29 18/2/32 12/2/31 32/8/30
f 6/2/5 1/1/1 30/6/20
f 36/1/18 11/1/27 32/8/30 38/5/19
f 40/3/14 8/3/13 21/3/7 39/3/9
f 35/2/10 12/2/31 26/2/34 34/2/11
f 35/2/10 6/2/5 30/6/20 38/5/19
f 42/2/12 9/2/21 10/3/24 41/3/8
f 42/2/12 3/2/2 27/2/40 37/2/42
f 37/2/42 27/2/40 25/2/6 34/2/11
f 40/3/14 14/3/35 13/4/38 33/4/15
f 41/3/8 10/3/24 23/3/26 39/3/9
f 1/1/1 2/4/4 44/3/44 43/2/45
f 1/1/1 59/2/46 45/2/47
f 44/3/44 2/4/4 55/3/48
f 44/3/44 55/3/48 71/3/49 73/3/50
f 45/2/47 59/2/46 67/2/51 68/2/52
f 43/2/45 44/3/44 73/3/50 74/2/53
f 46/3/54 7/4/16 33/4/15 72/3/55
f 5/1/17 64/6/56 70/5/57 36/1/18
f 47/2/58 48/3/59 52/3/60 51/2/61
f 48/3/59 57/3/62 56/3/63 52/3/60
f 11/1/27 66/8/64 65/7/65 17/1/28
f 49/2/66 60/2/67 58/2/68 53/2/69
f 50/3/70 13/4/38 19/4/37 54/3/71
f 56/3/63 57/3/62 50/3/70 54/3/72
f 57/3/62 71/3/49 72/3/55 50/3/70
f 59/2/46 1/1/1 61/2/73
f 60/2/67 67/2/51 69/2/74 63/2/75
f 58/2/68 60/2/67 63/2/75 62/2/76
f 61/2/73 1/1/1 43/2/45
f 63/2/75 69/2/74 74/2/53 47/2/58
f 62/2/76 63/2/75 47/2/58 51/2/61
f 55/3/48 2/4/4 46/3/54
f 46/3/54 2/4/4 7/4/16
f 66/8/64 70/5/57 68/2/52 49/2/66
f 64/6/56 5/1/17 1/1/1
f 65/7/65 66/8/64 49/2/66 53/2/69
f 45/2/47 64/6/56 1/1/1
f 36/1/18 70/5/57 66/8/64 11/1/27
f 72/3/55 71/3/49 55/3/48 46/3/54
f 68/2/52 67/2/51 60/2/67 49/2/66
f 68/2/52 70/5/57 64/6/56 45/2/47
f 74/2/53 73/3/50 48/3/59 47/2/58
f 74/2/53 69/2/74 61/2/73 43/2/45
f 69/2/74 67/2/51 59/2/46 61/2/73
f 72/3/55 33/4/15 13/4/38 50/3/70
f 73/3/50 71/3/49 57/3/62 48/3/59
