# Blender 3.6.5
# www.blender.org
mtllib extra.mtl
o Light_Bar
v 0.000203 -0.015662 -0.438185
v 0.320618 -0.016059 -0.435090
v 0.000172 -0.159590 -0.370407
v 0.094101 -0.152393 -0.373422
v 0.345618 -0.038214 -0.424350
v 0.352663 -0.066419 -0.411599
v 0.323112 -0.093896 -0.398307
v 0.222100 -0.079242 -0.407231
v -0.320214 -0.016059 -0.435387
v -0.093755 -0.152393 -0.373509
v -0.345224 -0.038214 -0.424671
v -0.352281 -0.066419 -0.411926
v -0.322742 -0.093896 -0.398607
v -0.221722 -0.079242 -0.407436
vn 0.0004 -0.4236 -0.9059
vn 0.0131 -0.4204 -0.9072
vn 0.0110 -0.4279 -0.9038
vn 0.0051 -0.4274 -0.9041
vn 0.0142 -0.4466 -0.8946
vn 0.0111 -0.4223 -0.9064
vn 0.0119 -0.4155 -0.9095
vn 0.0004 -0.4260 -0.9047
vn -0.0101 -0.4279 -0.9038
vn -0.0122 -0.4204 -0.9072
vn -0.0043 -0.4274 -0.9041
vn -0.0134 -0.4466 -0.8946
vn -0.0103 -0.4223 -0.9064
vn -0.0111 -0.4155 -0.9095
vt 0.000000 0.000000
vt 1.000000 0.000000
vt 1.000000 0.453768
vt 1.000000 1.000000
vt 0.000000 1.000000
s 1
f 1/1/1 2/2/2 8/3/3
f 4/4/4 8/3/3 7/1/5
f 8/3/3 4/4/4 1/1/1
f 7/1/5 8/3/3 6/1/6
f 6/1/6 8/3/3 5/1/7
f 5/1/7 8/3/3 2/2/2
f 1/1/1 4/4/4 3/5/8
f 1/1/1 14/3/9 9/2/10
f 10/4/11 13/1/12 14/3/9
f 14/3/9 1/1/1 10/4/11
f 13/1/12 12/1/13 14/3/9
f 12/1/13 11/1/14 14/3/9
f 11/1/14 9/2/10 14/3/9
f 1/1/1 3/5/8 10/4/11
