# Blender 3.6.5
# www.blender.org
o Right_Trigger
v 0.082337 -0.004336 -0.065346
v 0.115534 -0.006559 -0.052241
v 0.083015 0.023498 -0.050048
v 0.124286 0.024341 -0.033308
v 0.047639 0.023590 -0.058794
v 0.013416 0.023827 -0.061916
v -0.025313 0.023481 -0.060901
v -0.053721 0.023644 -0.057170
v -0.080500 0.023900 -0.050984
v -0.106327 0.024741 -0.039540
v -0.103483 -0.003087 -0.058023
v -0.078012 -0.002590 -0.066404
v -0.052681 -0.003552 -0.071829
v -0.023762 -0.003302 -0.076225
v 0.013516 -0.003163 -0.076988
v 0.050351 -0.002750 -0.072894
v 0.074147 -0.045928 -0.057845
v 0.104558 -0.047958 -0.045768
v -0.098652 -0.044621 -0.049930
v -0.072282 -0.044334 -0.058811
v -0.049151 -0.044306 -0.062640
v -0.022743 -0.044078 -0.064713
v 0.011299 -0.043921 -0.065410
v 0.044937 -0.044480 -0.064738
v 0.065938 -0.091163 -0.053950
v 0.092849 -0.093100 -0.046651
v -0.094662 -0.089916 -0.045528
v -0.069012 -0.089643 -0.052593
v -0.046943 -0.089616 -0.056801
v -0.021746 -0.089398 -0.059632
v 0.010733 -0.089248 -0.060297
v 0.039948 -0.089782 -0.057806
v 0.054073 -0.129855 -0.057785
v 0.078509 -0.131499 -0.053637
v -0.084169 -0.128797 -0.050050
v -0.063823 -0.128565 -0.055811
v -0.042742 -0.128542 -0.057734
v -0.019996 -0.128358 -0.059261
v 0.007779 -0.128231 -0.060288
v 0.033969 -0.128683 -0.059103
v 0.049731 -0.165562 -0.063505
v -0.056701 -0.164361 -0.061666
v -0.040137 -0.164340 -0.064537
v -0.018965 -0.164168 -0.065711
v 0.006889 -0.164050 -0.065835
v 0.031268 -0.164471 -0.064732
v -0.040137 -0.175158 -0.065187
v -0.018963 -0.182346 -0.068958
v 0.006891 -0.182227 -0.069082
v 0.031269 -0.176472 -0.066520
v 0.123507 0.001244 -0.014719
v -0.108263 0.005025 -0.021012
v 0.111893 -0.043841 -0.007669
v -0.103151 -0.040206 -0.012200
v 0.099501 -0.093001 -0.008631
v -0.098929 -0.089533 -0.007405
v 0.084327 -0.134818 -0.016239
v -0.087824 -0.131875 -0.012330
v 0.053873 -0.171913 -0.026984
v -0.058756 -0.170605 -0.024980
v -0.041228 -0.182363 -0.028815
v -0.018822 -0.190190 -0.032923
v 0.008538 -0.190061 -0.033058
v 0.034336 -0.183793 -0.030268
v 0.120598 0.001244 0.017679
v -0.106480 0.005025 0.013039
v 0.106497 -0.043841 0.016294
v -0.101363 -0.040206 0.013886
v 0.090842 -0.092524 0.013288
v -0.087133 -0.086644 0.014323
v 0.071652 -0.122421 0.006656
v -0.068631 -0.120865 0.008875
v 0.048549 -0.141161 0.001199
v -0.051551 -0.136503 0.004280
v -0.030302 -0.145024 -0.000215
v -0.008216 -0.149117 -0.002243
v 0.010631 -0.150666 -0.002984
v 0.028848 -0.147490 -0.002430
v -0.065272 -0.116721 0.038041
v 0.045246 -0.130159 0.030396
v -0.043054 -0.130137 0.033405
v -0.024976 -0.136206 0.031480
v -0.006805 -0.138977 0.029673
v 0.012750 -0.138759 0.029380
v 0.028995 -0.135012 0.028732
v 0.067002 -0.118073 0.032932
v 0.089265 -0.092124 0.038326
v 0.107412 -0.044712 0.040441
v -0.086160 -0.083884 0.045299
v -0.064218 -0.113741 0.074152
v 0.045227 -0.128194 0.071233
v -0.043072 -0.128172 0.072509
v -0.024995 -0.135271 0.070482
v -0.006824 -0.138377 0.069711
v 0.012731 -0.138159 0.069026
v 0.030234 -0.134076 0.069806
v 0.066984 -0.112882 0.072664
v 0.089248 -0.087245 0.075430
v -0.084844 -0.081003 0.077685
v -0.104785 0.008092 0.040735
v -0.099671 -0.038803 0.047461
v -0.099685 -0.037139 0.076735
v 0.120586 0.001244 0.042087
v 0.102505 -0.043980 0.085466
v -0.060825 -0.096254 0.140144
v 0.043036 -0.106910 0.145625
v -0.040762 -0.106889 0.146836
v -0.023608 -0.112649 0.151458
v -0.006365 -0.115278 0.153793
v 0.012193 -0.115071 0.153143
v 0.028805 -0.111516 0.150248
v 0.063689 -0.095440 0.136483
v 0.084825 -0.076121 0.124166
v -0.084757 -0.069228 0.117670
v 0.082998 0.023498 -0.013248
v 0.124276 0.024341 -0.011268
v 0.047619 0.023590 -0.014377
v 0.013394 0.023827 -0.015217
v -0.025335 0.023481 -0.014201
v -0.053741 0.023644 -0.014020
v -0.080517 0.023900 -0.014185
v -0.106337 0.024741 -0.017500
v 0.082983 0.023498 0.018166
v 0.124262 0.024341 0.020146
v 0.047604 0.023590 0.017036
v 0.013380 0.023827 0.016197
v -0.025349 0.023481 0.017212
v -0.053756 0.023644 0.017394
v -0.080532 0.023900 0.017229
v -0.106352 0.024741 0.013914
v 0.082974 0.023498 0.038824
v 0.122380 0.024344 0.034407
v 0.047594 0.023590 0.039380
v 0.013369 0.023827 0.039796
v -0.025360 0.023481 0.039556
v -0.053766 0.023644 0.038854
v -0.080541 0.023900 0.037462
v -0.104488 0.024738 0.036308
vn 0.2764 0.4541 -0.8470
vn 0.2879 0.4504 -0.8452
vn 0.3425 0.4314 -0.8346
vn 0.1543 0.4777 -0.8649
vn 0.1526 0.4778 -0.8651
vn 0.0311 0.4873 -0.8727
vn 0.0325 0.4872 -0.8727
vn -0.0710 0.4854 -0.8714
vn -0.0766 0.4846 -0.8714
vn -0.1503 0.4749 -0.8671
vn -0.1550 0.4744 -0.8666
vn -0.2387 0.4766 -0.8461
vn -0.2583 0.4779 -0.8396
vn -0.3133 0.4805 -0.8191
vn 0.2833 -0.2244 -0.9324
vn 0.2649 -0.1730 -0.9486
vn 0.1275 -0.1843 -0.9746
vn 0.1437 -0.2261 -0.9635
vn 0.0245 -0.2548 -0.9667
vn 0.0181 -0.1906 -0.9815
vn -0.0607 -0.1902 -0.9799
vn -0.0644 -0.2616 -0.9630
vn 0.3445 -0.2327 -0.9095
vn 0.3308 -0.1734 -0.9276
vn -0.1503 -0.2328 -0.9609
vn -0.1409 -0.1831 -0.9729
vn -0.2385 -0.1769 -0.9549
vn -0.2505 -0.2151 -0.9439
vn -0.2979 -0.1750 -0.9384
vn -0.3057 -0.2135 -0.9279
vn 0.1028 -0.0578 -0.9930
vn 0.0175 -0.0610 -0.9980
vn -0.0582 -0.0599 -0.9965
vn -0.1253 -0.0561 -0.9905
vn -0.2216 -0.0498 -0.9739
vn -0.2812 -0.0563 -0.9580
vn 0.2112 -0.0362 -0.9768
vn 0.2755 -0.0330 -0.9607
vn -0.2045 0.0824 -0.9754
vn -0.2700 0.0614 -0.9609
vn 0.1432 0.0956 -0.9851
vn 0.0750 0.0862 -0.9935
vn 0.0152 0.0801 -0.9967
vn -0.0506 0.0853 -0.9951
vn -0.1048 0.0924 -0.9902
vn 0.2061 0.0856 -0.9748
vn -0.0455 0.1631 -0.9856
vn -0.1121 0.1319 -0.9849
vn 0.0946 0.1460 -0.9848
vn 0.0626 0.1532 -0.9862
vn 0.0187 0.1644 -0.9862
vn -0.1586 0.1281 -0.9790
vn 0.0626 0.1581 -0.9854
vn 0.0226 0.1707 -0.9851
vn -0.0440 0.1571 -0.9866
vn -0.1199 0.1076 -0.9869
vn 0.9540 -0.2558 -0.1564
vn 0.9627 -0.2682 0.0361
vn 0.9325 -0.3375 0.1282
vn 0.9454 -0.2807 -0.1655
vn -0.4558 -0.8704 -0.1859
vn -0.4714 -0.8624 -0.1843
vn -0.7098 -0.6874 -0.1536
vn -0.6881 -0.7084 -0.1571
vn 0.8789 -0.4430 -0.1769
vn 0.8599 -0.4781 -0.1788
vn 0.1220 -0.9689 -0.2151
vn 0.1325 -0.9675 -0.2152
vn -0.1819 -0.9613 -0.2069
vn -0.1710 -0.9632 -0.2075
vn 0.3825 -0.8990 -0.2134
vn 0.4043 -0.8895 -0.2128
vn -0.8942 -0.4299 -0.1247
vn -0.9094 -0.3975 -0.1223
vn -0.9520 -0.2323 0.1994
vn -0.9790 -0.1721 -0.1091
vn 0.9582 -0.2393 -0.1567
vn 0.9828 -0.1833 -0.0241
vn -0.9916 -0.1258 0.0315
vn -0.9879 -0.1147 -0.1042
vn 0.6765 -0.7097 -0.1969
vn 0.6519 -0.7317 -0.1992
vn -0.9991 -0.0338 -0.0262
vn -0.9895 -0.0961 -0.1080
vn 0.9886 -0.1133 -0.0994
vn -0.9967 0.0250 -0.0776
vn -0.0262 -0.5981 0.8010
vn -0.0250 -0.5983 0.8008
vn -0.0991 -0.5979 0.7954
vn -0.0886 -0.5972 0.7972
vn -0.9787 -0.1692 0.1165
vn -0.9978 -0.0379 0.0542
vn 0.0288 -0.6035 0.7969
vn 0.0346 -0.6036 0.7965
vn -0.8933 -0.3536 0.2773
vn 0.1029 -0.6109 0.7850
vn 0.1620 -0.7817 0.6022
vn 0.9509 -0.2918 0.1033
vn 0.8674 -0.4365 0.2390
vn 0.2430 -0.6217 0.7446
vn 0.3446 -0.7581 0.5537
vn -0.5424 -0.4831 0.6873
vn -0.5624 -0.4690 0.6810
vn -0.3053 -0.5857 0.7508
vn -0.2245 -0.5951 0.7716
vn 0.6389 -0.6428 0.4227
vn 0.5674 -0.5575 0.6060
vn 0.9799 -0.1921 0.0528
vn 0.2424 -0.9495 0.1993
vn 0.1051 -0.9780 0.1800
vn 0.0762 -0.9383 0.3373
vn -0.0765 -0.9471 0.3118
vn -0.0761 -0.9823 0.1710
vn -0.2299 -0.9593 0.1640
vn -0.2093 -0.9321 0.2957
vn -0.4115 -0.8683 0.2771
vn -0.4239 -0.8902 0.1671
vn -0.7054 -0.6971 0.1283
vn -0.6872 -0.6981 0.2010
vn 0.4044 -0.8936 0.1946
vn 0.9502 -0.3085 0.0436
vn 0.8620 -0.5003 0.0814
vn 0.6468 -0.7467 0.1550
vn -0.9053 -0.4183 0.0734
vn 0.2829 -0.9487 0.1414
vn 0.1217 -0.9831 0.1370
vn -0.6899 -0.7092 0.1451
vn -0.8918 -0.4405 0.1036
vn -0.4391 -0.8851 0.1545
vn 0.8519 -0.5055 0.1370
vn 0.6440 -0.7487 0.1573
vn 0.4400 -0.8844 0.1561
vn -0.0735 -0.9872 0.1414
vn -0.2540 -0.9564 0.1439
vn -0.9781 -0.2038 0.0414
vn -0.9968 -0.0562 0.0571
vn -0.9666 -0.2522 0.0455
vn 0.9418 -0.3170 0.1123
vn 0.9741 -0.2241 0.0308
vn -0.8663 -0.4759 0.1519
vn 0.4377 -0.8616 0.2570
vn 0.2823 -0.9225 0.2634
vn -0.2496 -0.9313 0.2651
vn -0.4287 -0.8662 0.2567
vn 0.8078 -0.5544 0.2003
vn 0.6265 -0.7433 0.2347
vn -0.6541 -0.7226 0.2236
vn -0.0710 -0.9614 0.2660
vn 0.1187 -0.9568 0.2653
vn 0.0325 0.9995 -0.0000
vn 0.0211 0.9998 -0.0000
vn 0.0185 0.9998 -0.0000
vn 0.0074 1.0000 -0.0000
vn 0.0077 1.0000 -0.0000
vn -0.0016 1.0000 -0.0000
vn -0.0020 1.0000 -0.0000
vn -0.0012 1.0000 -0.0000
vn -0.0010 1.0000 -0.0000
vn 0.0048 1.0000 -0.0000
vn 0.0050 1.0000 -0.0000
vn -0.0065 1.0000 -0.0000
vn -0.0089 1.0000 -0.0000
vn -0.0204 0.9998 -0.0000
vn -0.9974 0.0705 0.0148
vn 0.9972 -0.0705 0.0252
vn -0.0091 1.0000 -0.0003
vn -0.9982 0.0333 0.0490
vn 0.0214 0.9998 -0.0004
vn 0.9932 -0.1068 0.0472
vn 0.0331 0.9995 -0.0006
vn -0.0207 0.9998 -0.0006
vn 0.0076 1.0000 -0.0000
vn -0.0017 1.0000 -0.0000
vn -0.0087 1.0000 -0.0006
vn -0.9974 0.0185 0.0697
vn 0.0213 0.9998 -0.0007
vn 0.9925 -0.1118 0.0486
vn 0.0338 0.9994 -0.0014
vn -0.0210 0.9998 -0.0012
vt 0.000000 0.000000
vt 0.000000 1.000000
vt 1.000000 1.000000
vt 1.000000 0.000000
s 1
f 1/1/1 3/2/2 4/3/3 2/4/3
f 3/2/2 1/1/1 16/1/4 5/1/5
f 5/1/5 16/1/4 15/1/6 6/1/7
f 6/1/7 15/1/6 14/1/8 7/1/9
f 7/1/9 14/1/8 13/1/10 8/1/11
f 8/1/11 13/1/10 12/1/12 9/1/13
f 10/1/14 9/1/13 12/1/12 11/1/14
f 1/1/15 17/1/16 24/1/17 16/1/18
f 15/1/19 23/1/20 22/1/21 14/1/22
f 2/4/23 18/4/24 17/1/16 1/1/15
f 13/1/25 21/1/26 20/1/27 12/1/28
f 16/1/18 24/1/17 23/1/20 15/1/19
f 14/1/22 22/1/21 21/1/26 13/1/25
f 12/1/28 20/1/27 19/1/29 11/1/30
f 24/1/17 32/1/31 31/1/32 23/1/20
f 22/1/21 30/1/33 29/1/34 21/1/26
f 20/1/27 28/1/35 27/1/36 19/1/29
f 17/1/16 25/1/37 32/1/31 24/1/17
f 23/1/20 31/1/32 30/1/33 22/1/21
f 21/1/26 29/1/34 28/1/35 20/1/27
f 18/4/24 26/4/38 25/1/37 17/1/16
f 28/1/35 36/1/39 35/1/40 27/1/36
f 25/1/37 33/1/41 40/1/42 32/1/31
f 31/1/32 39/1/43 38/1/44 30/1/33
f 29/1/34 37/1/45 36/1/39 28/1/35
f 26/4/38 34/4/46 33/1/41 25/1/37
f 32/1/31 40/1/42 39/1/43 31/1/32
f 30/1/33 38/1/44 37/1/45 29/1/34
f 38/1/44 44/1/47 43/1/48 37/1/45
f 33/1/41 41/1/49 46/1/50 40/1/42
f 39/1/43 45/1/51 44/1/47 38/1/44
f 37/1/45 43/1/48 42/1/52 36/1/39
f 40/1/42 46/1/50 45/1/51 39/1/43
f 36/1/39 42/1/52 35/1/40
f 33/1/41 34/4/46 41/1/49
f 46/1/50 50/1/53 49/1/54 45/1/51
f 45/1/51 49/1/54 48/1/55 44/1/47
f 44/1/47 48/1/55 47/1/56 43/1/48
f 46/1/50 41/1/49 50/1/53
f 43/1/48 47/1/56 42/1/52
f 18/4/57 53/4/58 55/4/59 26/4/60
f 47/1/61 61/1/62 60/1/63 42/1/64
f 26/4/60 55/4/59 57/4/65 34/4/66
f 49/1/67 63/1/68 62/1/69 48/1/70
f 50/1/71 64/1/72 63/1/68 49/1/67
f 35/1/73 58/1/74 56/1/75 27/1/76
f 2/4/77 51/4/78 53/4/58 18/4/57
f 42/1/64 60/1/63 58/1/74 35/1/73
f 27/1/76 56/1/75 54/1/79 19/1/80
f 34/4/66 57/4/65 59/1/81 41/1/82
f 41/1/82 59/1/81 64/1/72 50/1/71
f 48/1/70 62/1/69 61/1/62 47/1/61
f 19/1/80 54/1/79 52/1/83 11/1/84
f 2/4/77 4/3/85 51/4/78
f 11/1/84 52/1/83 10/1/86
f 62/1/87 76/1/88 75/1/89 61/1/90
f 54/1/79 68/1/91 66/1/92 52/1/83
f 63/1/93 77/1/94 76/1/88 62/1/87
f 56/1/75 70/1/95 68/1/91 54/1/79
f 64/1/96 78/1/97 77/1/94 63/1/93
f 53/4/58 67/4/98 69/4/99 55/4/59
f 59/1/100 73/1/101 78/1/97 64/1/96
f 58/1/102 72/1/103 70/1/95 56/1/75
f 61/1/90 75/1/89 74/1/104 60/1/105
f 55/4/59 69/4/99 71/4/106 57/4/107
f 60/1/105 74/1/104 72/1/103 58/1/102
f 57/4/107 71/4/106 73/1/101 59/1/100
f 51/4/78 65/4/108 67/4/98 53/4/58
f 78/1/97 85/1/109 84/1/110 77/1/111
f 76/1/112 83/1/113 82/1/114 75/1/115
f 74/1/116 81/1/117 79/1/118 72/1/119
f 73/1/101 80/1/120 85/1/109 78/1/97
f 77/1/111 84/1/110 83/1/113 76/1/112
f 75/1/115 82/1/114 81/1/117 74/1/116
f 67/4/98 88/1/121 87/1/122 69/4/99
f 87/1/122 86/1/123 71/4/106 69/4/99
f 71/4/106 86/1/123 80/1/120 73/1/101
f 89/1/124 70/1/95 72/1/119 79/1/118
f 85/1/109 96/1/125 95/1/126 84/1/110
f 79/1/118 90/1/127 99/1/128 89/1/124
f 81/1/117 92/1/129 90/1/127 79/1/118
f 87/1/122 98/1/130 97/1/131 86/1/123
f 80/1/120 91/1/132 96/1/125 85/1/109
f 83/1/113 94/1/133 93/1/134 82/1/114
f 86/1/123 97/1/131 91/1/132 80/1/120
f 82/1/114 93/1/134 92/1/129 81/1/117
f 84/1/110 95/1/126 94/1/133 83/1/113
f 70/1/95 89/1/124 101/1/135 68/1/91
f 68/1/91 101/1/135 100/1/136 66/1/92
f 89/1/124 99/1/128 102/1/137 101/1/135
f 101/1/135 102/1/137 100/1/136
f 88/1/121 104/1/138 98/1/130 87/1/122
f 65/4/108 103/4/139 88/4/121 67/4/98
f 103/4/139 104/4/138 88/4/121
f 99/1/128 114/1/140 102/1/137
f 91/1/132 106/1/141 111/1/142 96/1/125
f 93/1/134 108/1/143 107/1/144 92/1/129
f 98/1/130 113/1/145 112/1/146 97/1/131
f 97/1/131 112/1/146 106/1/141 91/1/132
f 92/1/129 107/1/144 105/1/147 90/1/127
f 104/1/138 113/1/145 98/1/130
f 90/1/127 105/1/147 114/1/140 99/1/128
f 94/1/133 109/1/148 108/1/143 93/1/134
f 95/1/126 110/1/149 109/1/148 94/1/133
f 96/1/125 111/1/142 110/1/149 95/1/126
f 10/1/150 122/1/150 121/1/151 9/1/152
f 8/1/153 120/1/154 119/1/155 7/1/156
f 6/1/157 118/1/158 117/1/159 5/1/160
f 3/2/161 115/2/162 116/3/163 4/3/163
f 9/1/152 121/1/151 120/1/154 8/1/153
f 7/1/156 119/1/155 118/1/158 6/1/157
f 5/1/160 117/1/159 115/2/162 3/2/161
f 10/1/86 52/1/83 122/1/164
f 51/4/78 4/3/85 116/3/165
f 120/1/154 128/1/154 127/1/155 119/1/155
f 117/1/159 125/1/159 123/2/166 115/2/162
f 52/1/83 66/1/92 130/1/167 122/1/164
f 121/1/151 129/1/168 128/1/154 120/1/154
f 118/1/158 126/1/158 125/1/159 117/1/159
f 116/3/165 124/3/169 65/4/108 51/4/78
f 122/1/150 130/1/170 129/1/168 121/1/151
f 119/1/155 127/1/155 126/1/158 118/1/158
f 115/2/162 123/2/166 124/3/171 116/3/163
f 128/1/154 136/1/172 135/1/173 127/1/155
f 125/1/159 133/1/159 131/2/174 123/2/166
f 66/1/92 100/1/136 138/1/175 130/1/167
f 129/1/168 137/1/176 136/1/172 128/1/154
f 126/1/158 134/1/158 133/1/159 125/1/159
f 124/3/169 132/3/177 103/4/139 65/4/108
f 130/1/170 138/1/178 137/1/176 129/1/168
f 127/1/155 135/1/173 134/1/158 126/1/158
f 123/2/166 131/2/174 132/3/179 124/3/171
