# Blender 3.6.5
# www.blender.org
o Right_Cap
v -0.069899 0.220093 -0.000032
v -0.064566 0.220093 -0.026779
v -0.049403 0.220093 -0.049449
v -0.026719 0.220093 -0.064590
v 0.000032 0.220093 -0.069899
v 0.026779 0.220093 -0.064565
v 0.049449 0.220093 -0.049403
v 0.064590 0.220093 -0.026719
v 0.069899 0.220093 0.000032
v 0.064565 0.220093 0.026779
v 0.049403 0.220093 0.049449
v 0.026719 0.220093 0.064590
v -0.000032 0.220093 0.069899
v -0.026779 0.220093 0.064565
v -0.049449 0.220093 0.049403
v -0.064590 0.220093 0.026719
v -0.035613 0.223743 -0.000016
v -0.032896 0.223743 -0.013644
v -0.025171 0.223743 -0.025194
v -0.013613 0.223743 -0.032908
v 0.000016 0.223743 -0.035613
v 0.013644 0.223743 -0.032896
v 0.025194 0.223743 -0.025171
v 0.032908 0.223743 -0.013613
v 0.035613 0.223743 0.000017
v 0.032896 0.223743 0.013644
v 0.025170 0.223743 0.025194
v 0.013613 0.223743 0.032909
v -0.000017 0.223743 0.035613
v -0.013644 0.223743 0.032896
v -0.025194 0.223743 0.025171
v -0.032909 0.223743 0.013613
v -0.000000 0.225112 0.000000
vn -0.0406 0.9944 0.0978
vn -0.0000 0.9944 0.1059
vn -0.0000 0.9971 0.0761
vn -0.0291 0.9971 0.0703
vn 0.0749 0.9944 -0.0748
vn 0.0406 0.9944 -0.0978
vn 0.0291 0.9971 -0.0703
vn 0.0538 0.9971 -0.0538
vn -0.0749 0.9944 0.0748
vn -0.0538 0.9971 0.0538
vn 0.0978 0.9944 -0.0405
vn 0.0703 0.9971 -0.0291
vn -0.0978 0.9944 0.0405
vn -0.0703 0.9971 0.0291
vn 0.1059 0.9944 -0.0000
vn 0.0761 0.9971 -0.0000
vn -0.0978 0.9944 -0.0406
vn -0.1059 0.9944 -0.0000
vn -0.0761 0.9971 -0.0000
vn -0.0703 0.9971 -0.0291
vn 0.0978 0.9944 0.0406
vn 0.0703 0.9971 0.0291
vn -0.0748 0.9944 -0.0749
vn -0.0538 0.9971 -0.0538
vn 0.0748 0.9944 0.0749
vn 0.0538 0.9971 0.0538
vn -0.0405 0.9944 -0.0978
vn -0.0291 0.9971 -0.0703
vn 0.0405 0.9944 0.0978
vn 0.0291 0.9971 0.0703
vn -0.0000 0.9944 -0.1059
vn -0.0000 0.9971 -0.0761
vn -0.0000 1.0000 -0.0000
vt 0.187500 1.000000
vt 0.250000 1.000000
vt 0.625000 1.000000
vt 0.687500 1.000000
vt 0.125000 1.000000
vt 0.562500 1.000000
vt 0.062500 1.000000
vt 0.500000 1.000000
vt 0.937500 1.000000
vt 1.000000 1.000000
vt 0.000000 1.000000
vt 0.437500 1.000000
vt 0.875000 1.000000
vt 0.375000 1.000000
vt 0.812500 1.000000
vt 0.312500 1.000000
vt 0.750000 1.000000
s 1
f 14/1/1 13/2/2 29/2/3 30/1/4
f 7/3/5 6/4/6 22/4/7 23/3/8
f 15/5/9 14/1/1 30/1/4 31/5/10
f 8/6/11 7/3/5 23/3/8 24/6/12
f 16/7/13 15/5/9 31/5/10 32/7/14
f 9/8/15 8/6/11 24/6/12 25/8/16
f 2/9/17 1/10/18 17/10/19 18/9/20
f 1/11/18 16/7/13 32/7/14 17/11/19
f 10/12/21 9/8/15 25/8/16 26/12/22
f 3/13/23 2/9/17 18/9/20 19/13/24
f 11/14/25 10/12/21 26/12/22 27/14/26
f 4/15/27 3/13/23 19/13/24 20/15/28
f 12/16/29 11/14/25 27/14/26 28/16/30
f 5/17/31 4/15/27 20/15/28 21/17/32
f 13/2/2 12/16/29 28/16/30 29/2/3
f 6/4/6 5/17/31 21/17/32 22/4/7
f 20/15/28 19/13/24 33/15/33
f 28/16/30 27/14/26 33/16/33
f 21/17/32 20/15/28 33/17/33
f 29/2/3 28/16/30 33/2/33
f 22/4/7 21/17/32 33/4/33
f 30/1/4 29/2/3 33/1/33
f 23/3/8 22/4/7 33/3/33
f 31/5/10 30/1/4 33/5/33
f 24/6/12 23/3/8 33/6/33
f 32/7/14 31/5/10 33/7/33
f 25/8/16 24/6/12 33/8/33
f 18/9/20 17/10/19 33/9/33
f 17/11/19 32/7/14 33/11/33
f 26/12/22 25/8/16 33/12/33
f 19/13/24 18/9/20 33/13/33
f 27/14/26 26/12/22 33/14/33
