# Blender 3.6.5
# www.blender.org
mtllib touch_point.mtl
o Touch_Point
v 0.000000 0.000000 -0.050000
v 0.019134 0.000000 -0.046194
v 0.035355 0.000000 -0.035355
v 0.046194 0.000000 -0.019134
v 0.050000 0.000000 0.000000
v 0.046194 0.000000 0.019134
v 0.035355 0.000000 0.035355
v 0.019134 0.000000 0.046194
v 0.000000 0.000000 0.050000
v -0.019134 0.000000 0.046194
v -0.035355 0.000000 0.035355
v -0.046194 0.000000 0.019134
v -0.050000 0.000000 0.000000
v -0.046194 0.000000 -0.019134
v -0.035355 0.000000 -0.035355
v 0.000000 0.000000 0.000000
v -0.019134 0.000000 -0.046194
vn -0.0000 1.0000 -0.0000
vt 0.250000 0.250000
vt 0.028269 0.341844
vt 0.010000 0.250000
vt 0.471731 0.158156
vt 0.419706 0.080294
vt 0.080294 0.419706
vt 0.341844 0.028269
vt 0.158156 0.471731
vt 0.250000 0.490000
vt 0.250000 0.010000
vt 0.028269 0.158156
vt 0.471731 0.341844
vt 0.490000 0.250000
vt 0.419706 0.419706
vt 0.080294 0.080294
vt 0.341844 0.471731
vt 0.158156 0.028269
s 0
f 16/1/1 14/2/1 13/3/1
f 6/4/1 16/1/1 7/5/1
f 15/6/1 14/2/1 16/1/1
f 7/5/1 16/1/1 8/7/1
f 17/8/1 16/1/1 1/9/1
f 8/7/1 16/1/1 9/10/1
f 12/11/1 16/1/1 13/3/1
f 4/12/1 16/1/1 5/13/1
f 3/14/1 16/1/1 4/12/1
f 11/15/1 16/1/1 12/11/1
f 16/1/1 2/16/1 1/9/1
f 10/17/1 16/1/1 11/15/1
f 16/1/1 17/8/1 15/6/1
f 2/16/1 16/1/1 3/14/1
f 9/10/1 16/1/1 10/17/1
f 5/13/1 16/1/1 6/4/1
