# Blender 4.1.0
# www.blender.org
o Dpad_Down
v -0.285910 0.282584 0.125602
v -0.302637 0.283054 0.131878
v -0.308539 0.284407 0.115901
v -0.291349 0.284900 0.098776
v -0.301725 0.282653 0.151404
v -0.285327 0.281888 0.149605
v -0.310892 0.281404 0.136098
v -0.309511 0.281107 0.152662
v -0.316156 0.282457 0.123425
v -0.301671 0.283913 0.187186
v -0.301674 0.282982 0.169594
v -0.285325 0.282147 0.169403
v -0.285325 0.283050 0.187225
v -0.309303 0.281431 0.169693
v -0.309294 0.282392 0.187106
v -0.231767 0.282702 0.151394
v -0.230871 0.283110 0.131853
v -0.222634 0.281468 0.136058
v -0.223987 0.281166 0.152648
v -0.247582 0.282616 0.125593
v -0.248160 0.281917 0.149601
v -0.224978 0.284464 0.115865
v -0.242143 0.284936 0.098767
v -0.217387 0.282521 0.123362
v -0.266742 0.287403 0.074001
v -0.266743 0.284483 0.096827
v -0.266743 0.282343 0.123351
v -0.266743 0.281555 0.148860
v -0.266743 0.282694 0.187239
v -0.266743 0.281793 0.169324
v -0.248160 0.282177 0.169401
v -0.248160 0.283070 0.187223
v -0.231813 0.283958 0.187183
v -0.231812 0.283034 0.169590
v -0.224182 0.281494 0.169689
v -0.224190 0.282448 0.187103
v -0.301539 0.284044 0.211306
v -0.301613 0.285287 0.203432
v -0.285321 0.284468 0.203530
v -0.285299 0.283282 0.211642
v -0.309004 0.283728 0.203310
v -0.308084 0.284367 0.210304
v -0.266742 0.282916 0.211664
v -0.266743 0.284111 0.203549
v -0.248164 0.284486 0.203528
v -0.248186 0.283301 0.211640
v -0.231946 0.284091 0.211303
v -0.231872 0.285333 0.203429
v -0.224480 0.283787 0.203306
v -0.225399 0.284421 0.210300
v -0.209797 0.231543 0.134491
v -0.209797 0.268834 0.132013
v -0.213428 0.230816 0.144619
v -0.213428 0.268107 0.142142
v -0.213913 0.230725 0.158037
v -0.213913 0.268012 0.155560
v -0.213913 0.231050 0.173479
v -0.213913 0.268339 0.171001
v -0.213913 0.232062 0.190603
v -0.213913 0.269353 0.188126
v -0.214547 0.233488 0.207767
v -0.214547 0.270779 0.205289
v -0.219226 0.234325 0.219976
v -0.219226 0.271615 0.217499
v -0.230999 0.234087 0.224875
v -0.230999 0.271378 0.222398
v -0.248231 0.233277 0.225587
v -0.248231 0.270567 0.223110
v -0.266742 0.232875 0.225614
v -0.266742 0.270165 0.223137
v -0.285254 0.233257 0.225589
v -0.285254 0.270546 0.223111
v -0.302486 0.234040 0.224879
v -0.302486 0.271331 0.222401
v -0.314259 0.234269 0.219980
v -0.314259 0.271559 0.217502
v -0.318938 0.233413 0.207772
v -0.318938 0.270704 0.205294
v -0.319572 0.231991 0.190608
v -0.319572 0.269282 0.188131
v -0.319574 0.230978 0.173484
v -0.319574 0.268270 0.171006
v -0.319587 0.230657 0.158052
v -0.319587 0.267948 0.155574
v -0.320102 0.230746 0.144662
v -0.320102 0.268037 0.142185
v -0.323750 0.231469 0.134559
v -0.323750 0.268761 0.132082
v -0.318556 0.276412 0.140303
v -0.317854 0.276285 0.154216
v -0.322499 0.277193 0.129786
v -0.317796 0.276606 0.169920
v -0.317793 0.277610 0.187094
v -0.215646 0.276355 0.154201
v -0.214974 0.276483 0.140260
v -0.211049 0.277264 0.129718
v -0.215692 0.277679 0.187090
v -0.215690 0.276678 0.169915
v -0.302300 0.279591 0.219639
v -0.285262 0.278815 0.220287
v -0.317215 0.279014 0.204070
v -0.313011 0.279800 0.215237
v -0.266742 0.278436 0.220312
v -0.248223 0.278835 0.220285
v -0.231185 0.279638 0.219636
v -0.220473 0.279856 0.215233
v -0.216269 0.279086 0.204066
vn 0.0341 0.9989 -0.0324
vn 0.0315 0.9995 0.0068
vn -0.0008 1.0000 0.0092
vn -0.0007 0.9995 -0.0313
vn 0.0321 0.9955 0.0891
vn 0.0327 0.9980 0.0538
vn -0.0428 0.9969 0.0666
vn -0.0140 0.9955 0.0939
vn -0.0746 0.9966 -0.0345
vn -0.0718 0.9974 0.0061
vn -0.0356 0.9988 -0.0323
vn -0.0367 0.9970 -0.0683
vn -0.0006 0.9977 -0.0684
vn -0.8113 0.5843 0.0209
vn -0.7733 0.6051 0.1894
vn -0.3084 0.9440 0.1170
vn -0.3508 0.9364 0.0123
vn -0.2506 0.9518 0.1772
vn 0.8102 0.5855 -0.0279
vn 0.9945 0.1042 0.0109
vn 0.9744 0.1188 0.1910
vn 0.8186 0.5649 0.1043
vn -0.0742 0.9949 -0.0680
vn -0.3516 0.9342 -0.0607
vn -0.3511 0.9358 -0.0334
vn 0.0353 0.9970 -0.0685
vn 0.8113 0.5843 0.0196
vn 0.8098 0.5863 -0.0217
vn 0.3501 0.9361 -0.0335
vn 0.3501 0.9366 0.0119
vn 0.0707 0.9975 0.0060
vn 0.0733 0.9967 -0.0344
vn -0.8102 0.5857 -0.0206
vn -0.9947 0.1026 -0.0034
vn -0.9946 0.1022 0.0200
vn -0.0329 0.9994 0.0069
vn -0.0008 0.9984 0.0572
vn -0.0341 0.9980 0.0537
vn 0.0420 0.9969 0.0666
vn -0.0482 0.9988 0.0078
vn -0.3504 0.9366 -0.0015
vn 0.0466 0.9989 0.0078
vn 0.0726 0.9950 -0.0678
vn 0.3504 0.9346 -0.0606
vn 0.3492 0.9370 -0.0014
vn -0.8098 0.5860 -0.0279
vn 0.7705 0.6081 0.1911
vn 0.3082 0.9442 0.1165
vn 0.2505 0.9519 0.1766
vn 0.6706 0.6725 0.3130
vn -0.0003 0.6501 0.7599
vn -0.0005 0.9516 0.3072
vn -0.0289 0.9501 0.3107
vn -0.0076 0.6474 0.7621
vn -0.0007 0.9945 0.1050
vn 0.0135 0.9955 0.0940
vn -0.0334 0.9955 0.0886
vn 0.6045 0.5941 0.5308
vn 0.2764 0.9318 0.2354
vn -0.0005 0.9996 0.0296
vn 0.0277 0.9501 0.3107
vn 0.0343 0.9989 0.0311
vn 0.1329 0.6177 0.7751
vn 0.0372 0.9493 0.3122
vn 0.7065 0.1683 0.6875
vn 0.2039 0.1902 0.9604
vn -0.0356 0.9989 0.0311
vn 0.9947 0.1025 -0.0039
vn 0.9270 0.1438 0.3464
vn 0.9750 0.1160 0.1895
vn 0.0068 0.6472 0.7623
vn -0.1377 0.6221 0.7707
vn -0.0385 0.9493 0.3121
vn -0.2774 0.9316 0.2351
vn -0.5831 0.5944 0.5538
vn -0.8135 0.5724 0.1032
vn 0.0140 0.1944 0.9808
vn -0.0001 0.1947 0.9809
vn 0.9946 0.1020 0.0184
vn 0.9817 0.0126 0.1898
vn 0.9998 0.0012 0.0181
vn 0.9241 0.0229 0.3815
vn 1.0000 -0.0000 -0.0000
vn 0.9998 0.0012 0.0183
vn 0.7167 0.0462 0.6959
vn 0.2136 0.0648 0.9748
vn 0.0186 0.0663 0.9976
vn -0.0000 0.0663 0.9978
vn -0.0141 0.1944 0.9808
vn -0.0186 0.0663 0.9976
vn -0.2136 0.0648 0.9748
vn -0.2040 0.1901 0.9603
vn -0.7167 0.0462 0.6959
vn -0.7065 0.1683 0.6874
vn -0.9799 0.0132 0.1992
vn -0.9744 0.1187 0.1909
vn -0.9998 0.0012 0.0184
vn -0.9945 0.1042 0.0109
vn -1.0000 -0.0000 0.0005
vn -0.9998 0.0013 0.0196
vn -0.9813 0.0128 0.1920
vn -0.9745 0.1163 0.1918
vn -0.9234 0.0230 0.3832
vn -0.9262 0.1441 0.3485
vn -0.6741 0.6640 0.3236
vn 0.9799 0.0132 0.1991
vn -0.0007 0.9919 0.1269
vt 0.578274 0.443044
vt 0.667966 0.511518
vt 0.597762 0.599136
vt 0.513653 0.519566
vt 0.951392 0.697866
vt 0.788378 0.605120
vt 0.825835 0.490723
vt 0.938051 0.526969
vt 0.627306 0.368522
vt 0.717951 0.423098
vt 0.440854 0.588336
vt 0.382856 0.518713
vt 0.447109 0.456632
vt 0.756271 0.318131
vt 0.843193 0.356271
vt 0.835324 0.427025
vt 0.736974 0.376724
vt 0.928257 0.451140
vt 0.248515 0.605747
vt 0.207800 0.616966
vt 0.192352 0.539973
vt 0.226686 0.537096
vt 0.548711 0.324385
vt 0.566295 0.292450
vt 0.647194 0.330681
vt 0.505510 0.389002
vt 0.326196 0.772873
vt 0.283916 0.687742
vt 0.332555 0.663356
vt 0.383547 0.750404
vt 0.428732 0.728870
vt 0.369202 0.641415
vt 0.668870 0.280692
vt 0.681296 0.233601
vt 0.768981 0.264734
vt 0.514189 0.674082
vt 0.713781 0.708926
vt 0.614314 0.789146
vt 0.502320 0.832863
vt 0.487905 0.289915
vt 0.503290 0.265092
vt 0.282977 0.506698
vt 0.320772 0.565446
vt 0.289890 0.584770
vt 0.259078 0.523435
vt 0.584955 0.249914
vt 0.369286 0.857591
vt 0.439423 0.845836
vt 0.468799 0.937330
vt 0.396520 0.932215
vt 0.331633 0.347446
vt 0.363668 0.377741
vt 0.308093 0.436611
vt 0.277795 0.408146
vt 0.844697 0.832835
vt 0.544771 0.942909
vt 0.715876 0.946815
vt 0.223084 0.496767
vt 0.249420 0.500717
vt 0.390656 0.403257
vt 0.419325 0.318939
vt 0.445829 0.342011
vt 0.238106 0.461188
vt 0.264057 0.483156
vt 0.194987 0.488818
vt 0.210697 0.443562
vt 0.332607 0.461775
vt 0.237619 0.702775
vt 0.336701 0.938034
vt 0.309241 0.869927
vt 0.389206 0.290269
vt 0.439931 0.247625
vt 0.463325 0.272330
vt 0.480045 0.256721
vt 0.474631 0.230624
vt 0.515134 0.231931
vt 0.248906 0.383883
vt 0.302625 0.320002
vt 0.273604 0.788567
vt 0.065296 0.932793
vt 0.037544 0.846904
vt 0.091959 0.999902
vt 0.012641 0.746826
vt 0.000098 0.634937
vt 0.011541 0.445155
vt 0.035296 0.369744
vt 0.085622 0.273293
vt 0.158532 0.183642
vt 0.363381 0.262763
vt 0.243941 0.105837
vt 0.337361 0.050139
vt 0.420807 0.221220
vt 0.411323 0.022187
vt 0.465134 0.202989
vt 0.490852 0.006181
vt 0.516095 0.197448
vt 0.600238 0.000099
vt 0.593892 0.208598
vt 0.712684 0.006370
vt 0.813956 0.025630
vt 0.901112 0.048435
vt 0.852120 0.295609
vt 0.969520 0.071215
vt 0.921581 0.319102
vt 0.919145 0.379171
vt 0.000098 0.525421
vt 0.961205 0.943126
s 1
f 12/1/1 30/4/4 28/3/3 6/2/2
f 4/5/5 3/8/8 2/7/7 1/6/6
f 11/9/9 12/1/1 6/2/2 5/10/10
f 30/4/4 29/13/13 32/12/12 31/11/11
f 90/14/14 8/17/17 7/16/16 89/15/15
f 6/2/2 1/6/6 2/7/7 5/10/10
f 5/10/10 2/7/7 7/16/16 8/17/17
f 9/18/18 7/16/16 2/7/7 3/8/8
f 97/19/19 107/22/22 62/21/21 60/20/20
f 10/23/23 11/9/9 14/25/25 15/24/24
f 12/1/1 11/9/9 10/23/23 13/26/26
f 94/27/27 19/30/30 35/29/29 98/28/28
f 16/31/31 34/32/32 35/29/29 19/30/30
f 92/33/33 90/14/14 84/35/35 82/34/34
f 21/36/36 20/38/38 27/37/37 28/3/3
f 16/31/31 17/39/39 20/38/38 21/36/36
f 10/23/23 15/24/24 41/41/41 38/40/40
f 48/42/42 49/45/45 36/44/44 33/43/43
f 93/46/46 15/24/24 14/25/25 92/33/33
f 95/47/47 96/50/50 24/49/49 18/48/48
f 18/48/48 17/39/39 16/31/31 19/30/30
f 103/51/51 104/54/54 46/53/53 43/52/52
f 26/55/55 4/5/5 1/6/6 27/37/37
f 22/56/56 23/57/57 20/38/38 17/39/39
f 106/58/58 107/22/22 49/45/45 50/59/59
f 17/39/39 18/48/48 24/49/49 22/56/56
f 44/60/60 39/62/62 40/61/61 43/52/52
f 105/63/63 47/64/64 46/53/53 104/54/54
f 106/58/58 105/63/63 66/66/66 64/65/65
f 27/37/37 20/38/38 23/57/57 26/55/55
f 29/13/13 13/26/26 39/62/62 44/60/60
f 12/1/1 13/26/26 29/13/13 30/4/4
f 27/37/37 1/6/6 6/2/2 28/3/3
f 19/30/30 94/27/27 95/47/47 18/48/48
f 106/58/58 50/59/59 47/64/64 105/63/63
f 33/43/43 34/32/32 31/11/11 32/12/12
f 38/40/40 39/62/62 13/26/26 10/23/23
f 32/12/12 45/67/67 48/42/42 33/43/43
f 46/53/53 47/64/64 48/42/42 45/67/67
f 33/43/43 36/44/44 35/29/29 34/32/32
f 34/32/32 16/31/31 21/36/36 31/11/11
f 48/42/42 47/64/64 50/59/59 49/45/45
f 98/28/28 35/29/29 36/44/44 97/19/19
f 58/68/68 98/28/28 97/19/19 60/20/20
f 96/50/50 95/47/47 54/70/70 52/69/69
f 40/61/61 37/73/73 99/72/72 100/71/71
f 38/40/40 41/41/41 42/74/74 37/73/73
f 99/72/72 37/73/73 42/74/74 102/75/75
f 42/74/74 41/41/41 101/76/76 102/75/75
f 38/40/40 37/73/73 40/61/61 39/62/62
f 93/46/46 101/76/76 41/41/41 15/24/24
f 44/60/60 45/67/67 32/12/12 29/13/13
f 46/53/53 45/67/67 44/60/60 43/52/52
f 68/77/77 104/54/54 103/51/51 70/78/78
f 107/22/22 97/19/19 36/44/44 49/45/45
f 56/79/79 55/81/81 53/80/80 54/70/70
f 94/27/27 98/28/28 58/68/68 56/79/79
f 53/80/80 51/82/82 52/69/69 54/70/70
f 56/79/79 54/70/70 95/47/47 94/27/27
f 57/83/83 55/81/81 56/79/79 58/68/68
f 57/83/83 58/68/68 60/20/20 59/84/84
f 66/66/66 65/86/86 63/85/85 64/65/65
f 67/87/87 65/86/86 66/66/66 68/77/77
f 68/77/77 70/78/78 69/88/88 67/87/87
f 72/89/89 74/92/92 73/91/91 71/90/90
f 70/78/78 103/51/51 100/71/71 72/89/89
f 75/93/93 73/91/91 74/92/92 76/94/94
f 77/95/95 75/93/93 76/94/94 78/96/96
f 100/71/71 99/72/72 74/92/92 72/89/89
f 78/96/96 80/98/98 79/97/97 77/95/95
f 102/75/75 101/76/76 78/96/96 76/94/94
f 82/34/34 81/99/99 79/97/97 80/98/98
f 83/100/100 81/99/99 82/34/34 84/35/35
f 84/35/35 86/102/102 85/101/101 83/100/100
f 80/98/98 93/46/46 92/33/33 82/34/34
f 87/103/103 85/101/101 86/102/102 88/104/104
f 89/15/15 91/105/105 88/104/104 86/102/102
f 89/15/15 86/102/102 84/35/35 90/14/14
f 101/76/76 93/46/46 80/98/98 78/96/96
f 30/4/4 31/11/11 21/36/36 28/3/3
f 14/25/25 11/9/9 5/10/10 8/17/17
f 7/16/16 9/18/18 91/105/105 89/15/15
f 62/21/21 64/65/65 63/85/85 61/106/106
f 99/72/72 102/75/75 76/94/94 74/92/92
f 107/22/22 106/58/58 64/65/65 62/21/21
f 70/78/78 72/89/89 71/90/90 69/88/88
f 92/33/33 14/25/25 8/17/17 90/14/14
f 43/52/52 40/61/61 100/71/71 103/51/51
f 62/21/21 61/106/106 59/84/84 60/20/20
f 105/63/63 104/54/54 68/77/77 66/66/66
f 25/107/107 4/5/5 26/55/55
f 23/57/57 25/107/107 26/55/55
