# Blender 4.1.0
# www.blender.org
o Home_Button
v -0.000000 0.266726 -0.553746
v -0.000000 0.310637 -0.556626
v 0.031157 0.267132 -0.547562
v 0.031157 0.311042 -0.550442
v 0.057571 0.268287 -0.529950
v 0.057571 0.312197 -0.532831
v 0.075220 0.270016 -0.503593
v 0.075220 0.313926 -0.506473
v 0.081418 0.272055 -0.472503
v 0.081418 0.315965 -0.475383
v 0.075220 0.274094 -0.441413
v 0.075220 0.318005 -0.444293
v 0.057571 0.275823 -0.415055
v 0.057571 0.319733 -0.417935
v 0.031157 0.276978 -0.397444
v 0.031157 0.320888 -0.400324
v -0.000000 0.277384 -0.391260
v -0.000000 0.321294 -0.394140
v -0.031157 0.276978 -0.397444
v -0.031157 0.320888 -0.400324
v -0.057571 0.275823 -0.415055
v -0.057571 0.319733 -0.417935
v -0.075220 0.274094 -0.441413
v -0.075220 0.318005 -0.444293
v -0.081418 0.272055 -0.472503
v -0.081418 0.315965 -0.475383
v -0.075220 0.270016 -0.503593
v -0.075220 0.313926 -0.506473
v -0.057571 0.268287 -0.529950
v -0.057571 0.312197 -0.532831
v -0.031157 0.267132 -0.547562
v -0.031157 0.311042 -0.550442
v -0.000000 0.317020 -0.548005
v 0.027705 0.317381 -0.542506
v 0.051193 0.318408 -0.526846
v 0.066887 0.319945 -0.503409
v 0.072398 0.321758 -0.475763
v 0.066887 0.323571 -0.448117
v 0.051193 0.325109 -0.424680
v 0.027705 0.326136 -0.409020
v -0.000000 0.326497 -0.403520
v -0.027705 0.326136 -0.409020
v -0.051193 0.325109 -0.424680
v -0.066887 0.323571 -0.448117
v -0.072398 0.321758 -0.475763
v -0.066887 0.319945 -0.503409
v -0.051193 0.318408 -0.526846
v -0.027705 0.317381 -0.542506
v -0.000000 0.321139 -0.521692
v 0.017554 0.321367 -0.518207
v 0.032435 0.322018 -0.508285
v 0.042379 0.322992 -0.493435
v 0.045871 0.324141 -0.475919
v 0.042379 0.325290 -0.458403
v 0.032435 0.326264 -0.443553
v 0.017554 0.326915 -0.433631
v -0.000000 0.327143 -0.430147
v -0.017554 0.326915 -0.433631
v -0.032436 0.326264 -0.443553
v -0.042379 0.325290 -0.458403
v -0.045871 0.324141 -0.475919
v -0.042379 0.322992 -0.493435
v -0.032436 0.322018 -0.508285
v -0.017554 0.321367 -0.518207
v -0.000000 0.325433 -0.476004
vn -0.0000 -0.0654 -0.9979
vn -0.0000 0.3963 -0.9181
vn 0.3827 -0.0605 -0.9219
vn 0.3407 0.4007 -0.8505
vn 0.7071 -0.0463 -0.7056
vn 0.6295 0.4134 -0.6579
vn 0.9239 -0.0250 -0.3819
vn 0.8224 0.4323 -0.3698
vn 1.0000 -0.0000 -0.0000
vn 0.8902 0.4546 -0.0298
vn 0.9239 0.0250 0.3819
vn 0.8224 0.4769 0.3101
vn 0.7071 0.0463 0.7056
vn 0.6295 0.4958 0.5983
vn 0.3827 0.0605 0.9219
vn 0.3407 0.5084 0.7909
vn -0.0000 0.0654 0.9979
vn -0.0000 0.5128 0.8585
vn -0.3827 0.0605 0.9219
vn -0.3407 0.5084 0.7909
vn -0.7071 0.0463 0.7056
vn -0.6295 0.4958 0.5983
vn -0.9239 0.0250 0.3819
vn -0.8224 0.4769 0.3101
vn -1.0000 -0.0000 -0.0000
vn -0.8902 0.4546 -0.0298
vn -0.9239 -0.0250 -0.3819
vn -0.8224 0.4323 -0.3698
vn -0.7071 -0.0463 -0.7056
vn -0.6295 0.4134 -0.6579
vn -0.3827 -0.0605 -0.9219
vn -0.3407 0.4007 -0.8505
vn -0.0000 0.9114 -0.4115
vn 0.1343 0.9132 -0.3848
vn 0.2482 0.9181 -0.3089
vn 0.3242 0.9256 -0.1953
vn 0.3510 0.9344 -0.0613
vn 0.3242 0.9432 0.0727
vn 0.2482 0.9506 0.1863
vn 0.1343 0.9556 0.2623
vn -0.0000 0.9574 0.2889
vn -0.1343 0.9556 0.2623
vn -0.2482 0.9506 0.1863
vn -0.3242 0.9432 0.0727
vn -0.3510 0.9344 -0.0613
vn -0.3242 0.9256 -0.1953
vn -0.2482 0.9181 -0.3089
vn -0.1343 0.9132 -0.3848
vn -0.0000 0.9918 -0.1280
vn 0.0240 0.9921 -0.1232
vn 0.0444 0.9930 -0.1096
vn 0.0580 0.9943 -0.0893
vn 0.0628 0.9959 -0.0653
vn 0.0580 0.9975 -0.0413
vn 0.0444 0.9988 -0.0210
vn 0.0240 0.9997 -0.0074
vn -0.0000 1.0000 -0.0027
vn -0.0240 0.9997 -0.0074
vn -0.0444 0.9988 -0.0210
vn -0.0580 0.9975 -0.0413
vn -0.0628 0.9959 -0.0653
vn -0.0580 0.9943 -0.0893
vn -0.0444 0.9930 -0.1096
vn -0.0240 0.9921 -0.1232
vn -0.0000 0.9979 -0.0654
vt 0.237489 0.945811
vt 0.350764 0.757705
vt 0.454439 0.799639
vt 0.422758 0.999900
vt 0.567391 0.794217
vt 0.609454 0.999900
vt 0.668929 0.747543
vt 0.789585 0.928193
vt 0.742988 0.665854
vt 0.933924 0.787039
vt 0.786269 0.562878
vt 0.989649 0.596756
vt 0.781711 0.449009
vt 0.989705 0.407943
vt 0.735926 0.345778
vt 0.918546 0.227328
vt 0.654049 0.267707
vt 0.780204 0.082682
vt 0.548679 0.229496
vt 0.589311 0.000099
vt 0.434831 0.229636
vt 0.386258 0.021653
vt 0.329801 0.278778
vt 0.204829 0.096158
vt 0.254792 0.362718
vt 0.057676 0.240205
vt 0.212046 0.468030
vt 0.000099 0.436392
vt 0.220298 0.581327
vt 0.001734 0.636565
vt 0.443289 0.268041
vt 0.353538 0.309718
vt 0.265728 0.684380
vt 0.098460 0.809834
vt 0.297488 0.661691
vt 0.370121 0.726095
vt 0.646041 0.716390
vt 0.711532 0.645202
vt 0.633463 0.301038
vt 0.541495 0.267014
vt 0.251584 0.474298
vt 0.257405 0.572729
vt 0.460418 0.761240
vt 0.557751 0.757101
vt 0.744717 0.457641
vt 0.704726 0.368562
vt 0.287559 0.382437
vt 0.747952 0.555307
vt 0.346222 0.550783
vt 0.372178 0.606951
vt 0.629696 0.421837
vt 0.584537 0.379231
vt 0.417618 0.648727
vt 0.475320 0.670281
vt 0.526383 0.357394
vt 0.536843 0.668030
vt 0.464331 0.359133
vt 0.592873 0.642383
vt 0.407729 0.384951
vt 0.634861 0.597333
vt 0.365523 0.430529
vt 0.656856 0.539911
vt 0.343698 0.488700
vt 0.655021 0.478221
vt 0.500606 0.514031
s 1
f 1/1/1 2/2/2 4/3/4 3/4/3
f 3/4/3 4/3/4 6/5/6 5/6/5
f 5/6/5 6/5/6 8/7/8 7/8/7
f 7/8/7 8/7/8 10/9/10 9/10/9
f 9/10/9 10/9/10 12/11/12 11/12/11
f 11/12/11 12/11/12 14/13/14 13/14/13
f 13/14/13 14/13/14 16/15/16 15/16/15
f 15/16/15 16/15/16 18/17/18 17/18/17
f 17/18/17 18/17/18 20/19/20 19/20/19
f 19/20/19 20/19/20 22/21/22 21/22/21
f 21/22/21 22/21/22 24/23/24 23/24/23
f 23/24/23 24/23/24 26/25/26 25/26/25
f 25/26/25 26/25/26 28/27/28 27/28/27
f 27/28/27 28/27/28 30/29/30 29/30/29
f 24/23/24 22/21/22 43/31/43 44/32/44
f 29/30/29 30/29/30 32/33/32 31/34/31
f 31/34/31 32/33/32 2/2/2 1/1/1
f 2/2/2 32/33/32 48/35/48 33/36/33
f 10/9/10 8/7/8 36/37/36 37/38/37
f 20/19/20 18/17/18 41/39/41 42/40/42
f 30/29/30 28/27/28 46/41/46 47/42/47
f 6/5/6 4/3/4 34/43/34 35/44/35
f 16/15/16 14/13/14 39/45/39 40/46/40
f 26/25/26 24/23/24 44/32/44 45/47/45
f 12/11/12 10/9/10 37/38/37 38/48/38
f 22/21/22 20/19/20 42/40/42 43/31/43
f 32/33/32 30/29/30 47/42/47 48/35/48
f 8/7/8 6/5/6 35/44/35 36/37/36
f 18/17/18 16/15/16 40/46/40 41/39/41
f 4/3/4 2/2/2 33/36/33 34/43/34
f 28/27/28 26/25/26 45/47/45 46/41/46
f 14/13/14 12/11/12 38/48/38 39/45/39
f 48/35/48 47/42/47 63/49/63 64/50/64
f 41/39/41 40/46/40 56/51/56 57/52/57
f 34/43/34 33/36/33 49/53/49 50/54/50
f 33/36/33 48/35/48 64/50/64 49/53/49
f 42/40/42 41/39/41 57/52/57 58/55/58
f 35/44/35 34/43/34 50/54/50 51/56/51
f 43/31/43 42/40/42 58/55/58 59/57/59
f 36/37/36 35/44/35 51/56/51 52/58/52
f 44/32/44 43/31/43 59/57/59 60/59/60
f 37/38/37 36/37/36 52/58/52 53/60/53
f 45/47/45 44/32/44 60/59/60 61/61/61
f 38/48/38 37/38/37 53/60/53 54/62/54
f 46/41/46 45/47/45 61/61/61 62/63/62
f 39/45/39 38/48/38 54/62/54 55/64/55
f 47/42/47 46/41/46 62/63/62 63/49/63
f 40/46/40 39/45/39 55/64/55 56/51/56
f 54/62/54 53/60/53 65/65/65
f 62/63/62 61/61/61 65/65/65
f 55/64/55 54/62/54 65/65/65
f 63/49/63 62/63/62 65/65/65
f 56/51/56 55/64/55 65/65/65
f 64/50/64 63/49/63 65/65/65
f 57/52/57 56/51/56 65/65/65
f 50/54/50 49/53/49 65/65/65
f 49/53/49 64/50/64 65/65/65
f 58/55/58 57/52/57 65/65/65
f 51/56/51 50/54/50 65/65/65
f 59/57/59 58/55/58 65/65/65
f 52/58/52 51/56/51 65/65/65
f 60/59/60 59/57/59 65/65/65
f 53/60/53 52/58/52 65/65/65
f 61/61/61 60/59/60 65/65/65
