# Blender 4.1.0
# www.blender.org
o Right_Stick
v 0.000000 0.074111 -0.121138
v 0.000000 0.101375 -0.097815
v 0.046357 0.074111 -0.111917
v 0.037432 0.101375 -0.090369
v 0.085657 0.074111 -0.085657
v 0.069165 0.101375 -0.069165
v 0.111917 0.074111 -0.046357
v 0.090369 0.101375 -0.037432
v 0.121138 0.074111 0.000000
v 0.097815 0.101375 0.000000
v 0.111917 0.074111 0.046357
v 0.090369 0.101375 0.037432
v 0.085657 0.074111 0.085657
v 0.069165 0.101375 0.069165
v 0.046357 0.074111 0.111917
v 0.037432 0.101375 0.090369
v 0.000000 0.074111 0.121138
v 0.000000 0.101375 0.097815
v -0.046357 0.074111 0.111917
v -0.037432 0.101375 0.090369
v -0.085657 0.074111 0.085657
v -0.069165 0.101375 0.069165
v -0.111917 0.074111 0.046357
v -0.090369 0.101375 0.037432
v -0.121138 0.074111 0.000000
v -0.097815 0.101375 0.000000
v -0.111917 0.074111 -0.046357
v -0.090369 0.101375 -0.037432
v -0.085657 0.074111 -0.085657
v -0.069165 0.101375 -0.069165
v -0.046357 0.074111 -0.111917
v -0.037432 0.101375 -0.090369
v 0.000000 0.116717 -0.079156
v 0.030292 0.116717 -0.073131
v 0.055972 0.116717 -0.055972
v 0.073131 0.116717 -0.030292
v 0.079156 0.116717 0.000000
v 0.073131 0.116717 0.030292
v 0.055972 0.116717 0.055972
v 0.030292 0.116717 0.073131
v 0.000000 0.116717 0.079156
v -0.030292 0.116717 0.073131
v -0.055972 0.116717 0.055972
v -0.073131 0.116717 0.030292
v -0.079156 0.116717 0.000000
v -0.073131 0.116717 -0.030292
v -0.055972 0.116717 -0.055972
v -0.030292 0.116717 -0.073131
v 0.000000 0.125444 -0.064522
v 0.024692 0.125444 -0.059611
v 0.045624 0.125444 -0.045624
v 0.059611 0.125444 -0.024692
v 0.064522 0.125444 0.000000
v 0.059611 0.125444 0.024692
v 0.045624 0.125444 0.045624
v 0.024692 0.125444 0.059611
v 0.000000 0.125444 0.064522
v -0.024692 0.125444 0.059611
v -0.045624 0.125444 0.045624
v -0.059611 0.125444 0.024692
v -0.064522 0.125444 0.000000
v -0.059611 0.125444 -0.024692
v -0.045624 0.125444 -0.045624
v -0.024692 0.125444 -0.059611
v 0.000000 0.174948 -0.064522
v 0.024692 0.174948 -0.059611
v 0.045624 0.174948 -0.045624
v 0.059611 0.174948 -0.024692
v 0.064522 0.174948 0.000000
v 0.059611 0.174948 0.024692
v 0.045624 0.174948 0.045624
v 0.024692 0.174948 0.059611
v 0.000000 0.174948 0.064522
v -0.024692 0.174948 0.059611
v -0.045624 0.174948 0.045624
v -0.059611 0.174948 0.024692
v -0.064522 0.174948 0.000000
v -0.059611 0.174948 -0.024692
v -0.045624 0.174948 -0.045624
v -0.024692 0.174948 -0.059611
v 0.000000 0.180476 -0.097735
v 0.037401 0.180476 -0.090295
v 0.069109 0.180476 -0.069109
v 0.090295 0.180476 -0.037401
v 0.097735 0.180476 0.000000
v 0.090295 0.180476 0.037401
v 0.069109 0.180476 0.069109
v 0.037401 0.180476 0.090295
v 0.000000 0.180476 0.097735
v -0.037401 0.180476 0.090295
v -0.069109 0.180476 0.069109
v -0.090295 0.180476 0.037401
v -0.097734 0.180476 0.000000
v -0.090295 0.180476 -0.037401
v -0.069109 0.180476 -0.069109
v -0.037401 0.180476 -0.090295
v 0.000000 0.039320 -0.137203
v 0.052506 0.039320 -0.126759
v 0.097017 0.039320 -0.097017
v 0.126759 0.039320 -0.052505
v 0.137203 0.039320 0.000000
v 0.126759 0.039320 0.052505
v 0.097017 0.039320 0.097017
v 0.052506 0.039320 0.126759
v 0.000000 0.039320 0.137203
v -0.052505 0.039320 0.126759
v -0.097017 0.039320 0.097017
v -0.126759 0.039320 0.052505
v -0.137203 0.039320 0.000000
v -0.126759 0.039320 -0.052505
v -0.097017 0.039320 -0.097017
v -0.052505 0.039320 -0.126759
v 0.000000 -0.000179 -0.142538
v 0.054547 -0.000179 -0.131688
v 0.100790 -0.000179 -0.100790
v 0.131688 -0.000179 -0.054547
v 0.142538 -0.000179 0.000000
v 0.131688 -0.000179 0.054547
v 0.100790 -0.000179 0.100790
v 0.054547 -0.000179 0.131688
v 0.000000 -0.000179 0.142538
v -0.054547 -0.000179 0.131688
v -0.100790 -0.000179 0.100790
v -0.131688 -0.000179 0.054547
v -0.142538 -0.000179 0.000000
v -0.131688 -0.000179 -0.054547
v -0.100790 -0.000179 -0.100790
v -0.054547 -0.000179 -0.131688
vn -0.0000 0.5321 -0.8467
vn -0.0000 0.7086 -0.7056
vn 0.2700 0.7086 -0.6519
vn 0.3240 0.5321 -0.7822
vn 0.4990 0.7086 -0.4990
vn 0.5987 0.5321 -0.5987
vn 0.6519 0.7086 -0.2700
vn 0.7822 0.5321 -0.3240
vn 0.7056 0.7086 -0.0000
vn 0.8467 0.5321 -0.0000
vn 0.6519 0.7086 0.2700
vn 0.7822 0.5321 0.3240
vn 0.4990 0.7086 0.4990
vn 0.5987 0.5321 0.5987
vn 0.2700 0.7086 0.6519
vn 0.3240 0.5321 0.7822
vn -0.0000 0.7086 0.7056
vn -0.0000 0.5321 0.8467
vn -0.2700 0.7086 0.6519
vn -0.3240 0.5321 0.7822
vn -0.4990 0.7086 0.4990
vn -0.5987 0.5321 0.5987
vn -0.6519 0.7086 0.2700
vn -0.7822 0.5321 0.3240
vn -0.7056 0.7086 -0.0000
vn -0.8467 0.5321 -0.0000
vn -0.6519 0.7086 -0.2700
vn -0.7822 0.5321 -0.3240
vn -0.4990 0.7086 -0.4990
vn -0.5987 0.5321 -0.5987
vn -0.2700 0.7086 -0.6519
vn -0.3240 0.5321 -0.7822
vn 0.4112 0.8136 -0.4112
vn 0.5372 0.8136 -0.2225
vn 0.2225 0.8136 0.5372
vn -0.0000 0.8136 0.5815
vn -0.0000 0.8136 -0.5815
vn 0.2225 0.8136 -0.5372
vn -0.5815 0.8136 -0.0000
vn -0.5372 0.8136 -0.2225
vn 0.5372 0.8136 0.2225
vn 0.4112 0.8136 0.4112
vn -0.4112 0.8136 0.4112
vn -0.5372 0.8136 0.2225
vn -0.2225 0.8136 -0.5372
vn 0.5815 0.8136 -0.0000
vn -0.2225 0.8136 0.5372
vn -0.4112 0.8136 -0.4112
vn -0.5122 0.8589 -0.0000
vn -0.4732 0.8589 -0.1960
vn 0.4732 0.8589 0.1960
vn 0.3622 0.8589 0.3622
vn -0.3622 0.8589 -0.3622
vn 0.1960 0.8589 0.4732
vn -0.1960 0.8589 -0.4732
vn -0.0000 0.8589 0.5122
vn -0.0000 0.8589 -0.5122
vn 0.1960 0.8589 -0.4732
vn -0.1960 0.8589 0.4732
vn 0.3622 0.8589 -0.3622
vn -0.3622 0.8589 0.3622
vn 0.4732 0.8589 -0.1960
vn -0.4732 0.8589 0.1960
vn 0.5122 0.8589 -0.0000
vn 0.9239 -0.0000 -0.3827
vn 0.7071 -0.0000 -0.7071
vn -0.9239 -0.0000 0.3827
vn -0.7071 -0.0000 0.7071
vn 1.0000 -0.0000 -0.0000
vn -1.0000 -0.0000 -0.0000
vn 0.9239 -0.0000 0.3827
vn -0.9239 -0.0000 -0.3827
vn 0.7071 -0.0000 0.7071
vn -0.7071 -0.0000 -0.7071
vn 0.3827 -0.0000 0.9239
vn -0.3827 -0.0000 -0.9239
vn -0.0000 -0.0000 1.0000
vn 0.3827 -0.0000 -0.9239
vn -0.0000 -0.0000 -1.0000
vn -0.3827 -0.0000 0.9239
vn -0.0000 -0.9864 0.1642
vn 0.0628 -0.9864 0.1517
vn 0.0628 -0.9864 -0.1517
vn -0.0000 -0.9864 -0.1642
vn -0.0628 -0.9864 -0.1517
vn -0.0628 -0.9864 0.1517
vn 0.1161 -0.9864 -0.1161
vn -0.1161 -0.9864 0.1161
vn 0.1517 -0.9864 -0.0628
vn -0.1517 -0.9864 0.0628
vn 0.1642 -0.9864 -0.0000
vn -0.1642 -0.9864 -0.0000
vn 0.1517 -0.9864 0.0628
vn -0.1517 -0.9864 -0.0628
vn 0.1161 -0.9864 0.1161
vn -0.1161 -0.9864 -0.1161
vn -0.6799 0.2748 -0.6799
vn -0.8883 0.2748 -0.3679
vn 0.6799 0.2748 -0.6799
vn 0.3679 0.2748 -0.8883
vn 0.3679 0.2748 0.8883
vn 0.6799 0.2748 0.6799
vn -0.9615 0.2748 -0.0000
vn -0.8883 0.2748 0.3679
vn 0.8883 0.2748 0.3679
vn 0.9615 0.2748 -0.0000
vn -0.6799 0.2748 0.6799
vn -0.3679 0.2748 0.8883
vn -0.3679 0.2748 -0.8883
vn 0.8883 0.2748 -0.3679
vn -0.0000 0.2748 0.9615
vn -0.0000 0.2748 -0.9615
vn -0.7007 0.1338 -0.7007
vn -0.9156 0.1338 -0.3792
vn 0.3792 0.1338 0.9156
vn 0.7007 0.1338 0.7007
vn -0.3792 0.1338 -0.9156
vn -0.0000 0.1338 0.9910
vn 0.3792 0.1338 -0.9156
vn -0.0000 0.1338 -0.9910
vn -0.3792 0.1338 0.9156
vn 0.7007 0.1338 -0.7007
vn -0.7007 0.1338 0.7007
vn 0.9156 0.1338 -0.3792
vn -0.9156 0.1338 0.3792
vn 0.9910 0.1338 -0.0000
vn -0.9910 0.1338 -0.0000
vn 0.9156 0.1338 0.3792
vt 0.661620 0.727204
vt 0.616530 0.664253
vt 0.669661 0.606784
vt 0.734893 0.648791
vt 0.697130 0.534307
vt 0.773397 0.548747
vt 0.695209 0.457231
vt 0.771319 0.441374
vt 0.665752 0.385522
vt 0.730227 0.341656
vt 0.609259 0.331120
vt 0.652790 0.266190
vt 0.536288 0.302371
vt 0.551885 0.225655
vt 0.457690 0.303607
vt 0.442483 0.226335
vt 0.385509 0.335004
vt 0.342421 0.270017
vt 0.330351 0.391602
vt 0.264833 0.347323
vt 0.301157 0.465524
vt 0.223340 0.449820
vt 0.302919 0.545201
vt 0.224035 0.561334
vt 0.335823 0.617375
vt 0.270737 0.662511
vt 0.393654 0.670312
vt 0.351777 0.738111
vt 0.466731 0.698222
vt 0.454993 0.775286
vt 0.544876 0.696055
vt 0.563296 0.771877
vt 0.649858 0.526583
vt 0.648983 0.467496
vt 0.468469 0.350773
vt 0.413538 0.374465
vt 0.588633 0.624446
vt 0.628599 0.581138
vt 0.375032 0.589177
vt 0.419232 0.629907
vt 0.583052 0.371960
vt 0.528153 0.350035
vt 0.349286 0.473528
vt 0.350531 0.533998
vt 0.534399 0.649191
vt 0.625934 0.412952
vt 0.371531 0.417435
vt 0.474959 0.650553
vt 0.401472 0.570512
vt 0.436252 0.602494
vt 0.565711 0.398553
vt 0.522251 0.381588
vt 0.480140 0.619150
vt 0.475307 0.382445
vt 0.527059 0.617870
vt 0.431664 0.400703
vt 0.569836 0.598480
vt 0.601975 0.564414
vt 0.398551 0.435025
vt 0.618498 0.520904
vt 0.381410 0.479274
vt 0.617672 0.474075
vt 0.381835 0.527100
vt 0.599694 0.431082
vt 0.548385 0.508286
vt 0.551408 0.488771
vt 0.450697 0.491563
vt 0.448236 0.512299
vt 0.541935 0.471394
vt 0.457790 0.530946
vt 0.529479 0.456176
vt 0.472888 0.544492
vt 0.510107 0.451388
vt 0.491640 0.551230
vt 0.490790 0.450464
vt 0.511377 0.550132
vt 0.471867 0.457449
vt 0.529042 0.541305
vt 0.541882 0.526449
vt 0.456148 0.471245
vt 0.495487 0.470149
vt 0.484489 0.475174
vt 0.517185 0.525099
vt 0.524776 0.515116
vt 0.506765 0.530519
vt 0.476001 0.484188
vt 0.530427 0.504218
vt 0.470987 0.495359
vt 0.530790 0.492654
vt 0.471487 0.507528
vt 0.526489 0.481872
vt 0.476075 0.518704
vt 0.518101 0.474112
vt 0.484478 0.526951
vt 0.507137 0.469553
vt 0.495278 0.531100
vt 0.438645 0.876130
vt 0.297555 0.821705
vt 0.868871 0.563075
vt 0.817803 0.697474
vt 0.424411 0.128537
vt 0.572738 0.130930
vt 0.189917 0.717626
vt 0.127986 0.582589
vt 0.708113 0.185873
vt 0.808501 0.288905
vt 0.126006 0.433924
vt 0.180358 0.294775
vt 0.587830 0.866273
vt 0.863099 0.420071
vt 0.285186 0.186289
vt 0.720513 0.804570
vt 0.418972 0.999901
vt 0.230919 0.933681
vt 0.396283 0.000099
vt 0.600030 0.000099
vt 0.620378 0.996518
vt 0.209049 0.079953
vt 0.924404 0.758978
vt 0.799006 0.904974
vt 0.069697 0.227064
vt 0.986156 0.583003
vt 0.000099 0.413981
vt 0.988106 0.393153
vt 0.006426 0.608697
vt 0.909728 0.218251
vt 0.079392 0.795559
vt 0.776786 0.086100
s 1
f 1/1/1 2/2/2 4/3/3 3/4/4
f 3/4/4 4/3/3 6/5/5 5/6/6
f 5/6/6 6/5/5 8/7/7 7/8/8
f 7/8/8 8/7/7 10/9/9 9/10/10
f 9/10/10 10/9/9 12/11/11 11/12/12
f 11/12/12 12/11/11 14/13/13 13/14/14
f 13/14/14 14/13/13 16/15/15 15/16/16
f 15/16/16 16/15/15 18/17/17 17/18/18
f 17/18/18 18/17/17 20/19/19 19/20/20
f 19/20/20 20/19/19 22/21/21 21/22/22
f 21/22/22 22/21/21 24/23/23 23/24/24
f 23/24/24 24/23/23 26/25/25 25/26/26
f 25/26/26 26/25/25 28/27/27 27/28/28
f 27/28/28 28/27/27 30/29/29 29/30/30
f 29/30/30 30/29/29 32/31/31 31/32/32
f 31/32/32 32/31/31 2/2/2 1/1/1
f 8/7/7 6/5/5 35/33/33 36/34/34
f 18/17/17 16/15/15 40/35/35 41/36/36
f 4/3/3 2/2/2 33/37/37 34/38/38
f 28/27/27 26/25/25 45/39/39 46/40/40
f 14/13/13 12/11/11 38/41/41 39/42/42
f 24/23/23 22/21/21 43/43/43 44/44/44
f 2/2/2 32/31/31 48/45/45 33/37/37
f 10/9/9 8/7/7 36/34/34 37/46/46
f 20/19/19 18/17/17 41/36/36 42/47/47
f 30/29/29 28/27/27 46/40/40 47/48/48
f 6/5/5 4/3/3 34/38/38 35/33/33
f 16/15/15 14/13/13 39/42/42 40/35/35
f 26/25/25 24/23/23 44/44/44 45/39/39
f 12/11/11 10/9/9 37/46/46 38/41/41
f 22/21/21 20/19/19 42/47/47 43/43/43
f 32/31/31 30/29/29 47/48/48 48/45/45
f 46/40/40 45/39/39 61/49/49 62/50/50
f 39/42/42 38/41/41 54/51/51 55/52/52
f 47/48/48 46/40/40 62/50/50 63/53/53
f 40/35/35 39/42/42 55/52/52 56/54/54
f 48/45/45 47/48/48 63/53/53 64/55/55
f 41/36/36 40/35/35 56/54/54 57/56/56
f 34/38/38 33/37/37 49/57/57 50/58/58
f 33/37/37 48/45/45 64/55/55 49/57/57
f 42/47/47 41/36/36 57/56/56 58/59/59
f 35/33/33 34/38/38 50/58/58 51/60/60
f 43/43/43 42/47/47 58/59/59 59/61/61
f 36/34/34 35/33/33 51/60/60 52/62/62
f 44/44/44 43/43/43 59/61/61 60/63/63
f 37/46/46 36/34/34 52/62/62 53/64/64
f 45/39/39 44/44/44 60/63/63 61/49/49
f 38/41/41 37/46/46 53/64/64 54/51/51
f 52/62/65 51/60/66 67/65/66 68/66/65
f 60/63/67 59/61/68 75/67/68 76/68/67
f 53/64/69 52/62/65 68/66/65 69/69/69
f 61/49/70 60/63/67 76/68/67 77/70/70
f 54/51/71 53/64/69 69/69/69 70/71/71
f 62/50/72 61/49/70 77/70/70 78/72/72
f 55/52/73 54/51/71 70/71/71 71/73/73
f 63/53/74 62/50/72 78/72/72 79/74/74
f 56/54/75 55/52/73 71/73/73 72/75/75
f 64/55/76 63/53/74 79/74/74 80/76/76
f 57/56/77 56/54/75 72/75/75 73/77/77
f 50/58/78 49/57/79 65/78/79 66/79/78
f 49/57/79 64/55/76 80/76/76 65/78/79
f 58/59/80 57/56/77 73/77/77 74/80/80
f 51/60/66 50/58/78 66/79/78 67/65/66
f 59/61/68 58/59/80 74/80/80 75/67/68
f 73/77/81 72/75/82 88/81/82 89/82/81
f 66/79/83 65/78/84 81/83/84 82/84/83
f 65/78/84 80/76/85 96/85/85 81/83/84
f 74/80/86 73/77/81 89/82/81 90/86/86
f 67/65/87 66/79/83 82/84/83 83/87/87
f 75/67/88 74/80/86 90/86/86 91/88/88
f 68/66/89 67/65/87 83/87/87 84/89/89
f 76/68/90 75/67/88 91/88/88 92/90/90
f 69/69/91 68/66/89 84/89/89 85/91/91
f 77/70/92 76/68/90 92/90/90 93/92/92
f 70/71/93 69/69/91 85/91/91 86/93/93
f 78/72/94 77/70/92 93/92/92 94/94/94
f 71/73/95 70/71/93 86/93/93 87/95/95
f 79/74/96 78/72/94 94/94/94 95/96/96
f 72/75/82 71/73/95 87/95/95 88/81/82
f 80/76/85 79/74/96 95/96/96 96/85/85
f 27/28/28 29/30/30 111/97/97 110/98/98
f 3/4/4 5/6/6 99/99/99 98/100/100
f 13/14/14 15/16/16 104/101/101 103/102/102
f 23/24/24 25/26/26 109/103/103 108/104/104
f 9/10/10 11/12/12 102/105/105 101/106/106
f 19/20/20 21/22/22 107/107/107 106/108/108
f 29/30/30 31/32/32 112/109/109 111/97/97
f 5/6/6 7/8/8 100/110/110 99/99/99
f 15/16/16 17/18/18 105/111/111 104/101/101
f 1/1/1 3/4/4 98/100/100 97/112/112
f 25/26/26 27/28/28 110/98/98 109/103/103
f 11/12/12 13/14/14 103/102/102 102/105/105
f 21/22/22 23/24/24 108/104/104 107/107/107
f 31/32/32 1/1/1 97/112/112 112/109/109
f 7/8/8 9/10/10 101/106/106 100/110/110
f 17/18/18 19/20/20 106/108/108 105/111/111
f 110/98/98 111/97/97 127/113/113 126/114/114
f 103/102/102 104/101/101 120/115/115 119/116/116
f 111/97/97 112/109/109 128/117/117 127/113/113
f 104/101/101 105/111/111 121/118/118 120/115/115
f 97/112/112 98/100/100 114/119/119 113/120/120
f 112/109/109 97/112/112 113/120/120 128/117/117
f 105/111/111 106/108/108 122/121/121 121/118/118
f 98/100/100 99/99/99 115/122/122 114/119/119
f 106/108/108 107/107/107 123/123/123 122/121/121
f 99/99/99 100/110/110 116/124/124 115/122/122
f 107/107/107 108/104/104 124/125/125 123/123/123
f 100/110/110 101/106/106 117/126/126 116/124/124
f 108/104/104 109/103/103 125/127/127 124/125/125
f 101/106/106 102/105/105 118/128/128 117/126/126
f 109/103/103 110/98/98 126/114/114 125/127/127
f 102/105/105 103/102/102 119/116/116 118/128/128
