# Blender 4.1.0
# www.blender.org
o Right_Cap
v 0.000000 0.229669 -0.067436
v 0.025807 0.229669 -0.062303
v 0.047685 0.229669 -0.047685
v 0.062303 0.229669 -0.025807
v 0.067436 0.229669 0.000000
v 0.062303 0.229669 0.025807
v 0.047685 0.229669 0.047685
v 0.025807 0.229669 0.062303
v 0.000000 0.229669 0.067436
v -0.025807 0.229669 0.062303
v -0.047685 0.229669 0.047685
v -0.062303 0.229669 0.025807
v -0.067436 0.229669 0.000000
v -0.062303 0.229669 -0.025807
v -0.047685 0.229669 -0.047685
v -0.025807 0.229669 -0.062303
v 0.000000 0.218956 0.000000
vn -0.0000 0.9876 0.1569
vn -0.0600 0.9876 0.1450
vn -0.1109 0.9876 0.1109
vn -0.1450 0.9876 0.0600
vn -0.1569 0.9876 -0.0000
vn -0.1450 0.9876 -0.0600
vn -0.1109 0.9876 -0.1109
vn -0.0600 0.9876 -0.1450
vn -0.0000 0.9876 -0.1569
vn 0.0600 0.9876 -0.1450
vn 0.1109 0.9876 -0.1109
vn 0.1450 0.9876 -0.0600
vn 0.1569 0.9876 -0.0000
vn 0.1450 0.9876 0.0600
vn 0.1109 0.9876 0.1109
vn 0.0600 0.9876 0.1450
vn -0.0000 1.0000 -0.0000
vt 0.392518 0.660858
vt 0.339142 0.607482
vt 0.500000 0.500000
vt 0.537743 0.310255
vt 0.607482 0.339142
vt 0.462258 0.689745
vt 0.462257 0.310255
vt 0.537743 0.689745
vt 0.392518 0.339142
vt 0.660858 0.607482
vt 0.607482 0.660858
vt 0.339142 0.392518
vt 0.689745 0.537742
vt 0.310255 0.462257
vt 0.689745 0.462257
vt 0.310255 0.537743
vt 0.660858 0.392518
s 1
f 14/1/14 13/2/13 17/3/17
f 7/4/7 6/5/6 17/3/17
f 15/6/15 14/1/14 17/3/17
f 8/7/8 7/4/7 17/3/17
f 16/8/16 15/6/15 17/3/17
f 9/9/9 8/7/8 17/3/17
f 2/10/2 1/11/1 17/3/17
f 1/11/1 16/8/16 17/3/17
f 10/12/10 9/9/9 17/3/17
f 3/13/3 2/10/2 17/3/17
f 11/14/11 10/12/10 17/3/17
f 4/15/4 3/13/3 17/3/17
f 12/16/12 11/14/11 17/3/17
f 5/17/5 4/15/4 17/3/17
f 13/2/13 12/16/12 17/3/17
f 6/5/6 5/17/5 17/3/17
