# Blender 4.1.0
# www.blender.org
o Right_Ring
v -0.000000 0.180479 -0.097735
v 0.037401 0.180479 -0.090295
v 0.069109 0.180479 -0.069109
v 0.090295 0.180479 -0.037401
v 0.097735 0.180479 -0.000000
v 0.090295 0.180479 0.037401
v 0.069109 0.180479 0.069109
v 0.037401 0.180479 0.090295
v -0.000000 0.180479 0.097735
v -0.037401 0.180479 0.090295
v -0.069109 0.180479 0.069109
v -0.090295 0.180479 0.037401
v -0.097735 0.180479 -0.000000
v -0.090295 0.180479 -0.037401
v -0.069109 0.180479 -0.069109
v -0.037401 0.180479 -0.090295
v -0.000000 0.189892 -0.109866
v 0.042044 0.189892 -0.101503
v 0.077687 0.189892 -0.077687
v 0.101503 0.189892 -0.042044
v 0.109866 0.189892 -0.000000
v 0.101503 0.189892 0.042044
v 0.077687 0.189892 0.077687
v 0.042044 0.189892 0.101503
v -0.000000 0.189892 0.109866
v -0.042044 0.189892 0.101503
v -0.077687 0.189892 0.077687
v -0.101503 0.189892 0.042044
v -0.109866 0.189892 -0.000000
v -0.101503 0.189892 -0.042044
v -0.077687 0.189892 -0.077687
v -0.042044 0.189892 -0.101503
v -0.000000 0.210856 -0.112411
v 0.043018 0.210856 -0.103855
v 0.079487 0.210856 -0.079487
v 0.103855 0.210856 -0.043018
v 0.112411 0.210856 -0.000000
v 0.103855 0.210856 0.043018
v 0.079487 0.210856 0.079487
v 0.043018 0.210856 0.103855
v -0.000000 0.210856 0.112411
v -0.043018 0.210856 0.103855
v -0.079487 0.210856 0.079487
v -0.103855 0.210856 0.043018
v -0.112411 0.210856 -0.000000
v -0.103855 0.210856 -0.043018
v -0.079487 0.210856 -0.079487
v -0.043018 0.210856 -0.103855
v -0.000000 0.228635 -0.103816
v 0.039729 0.228635 -0.095914
v 0.073409 0.228635 -0.073409
v 0.095914 0.228635 -0.039729
v 0.103816 0.228635 -0.000000
v 0.095914 0.228635 0.039729
v 0.073409 0.228635 0.073409
v 0.039729 0.228635 0.095914
v -0.000000 0.228635 0.103816
v -0.039729 0.228635 0.095914
v -0.073409 0.228635 0.073409
v -0.095914 0.228635 0.039729
v -0.103816 0.228635 -0.000000
v -0.095914 0.228635 -0.039729
v -0.073409 0.228635 -0.073409
v -0.039729 0.228635 -0.095914
v -0.000000 0.236842 -0.090297
v 0.034555 0.236842 -0.083424
v 0.063850 0.236842 -0.063850
v 0.083424 0.236842 -0.034555
v 0.090297 0.236842 -0.000000
v 0.083424 0.236842 0.034555
v 0.063850 0.236842 0.063850
v 0.034555 0.236842 0.083424
v -0.000000 0.236842 0.090297
v -0.034555 0.236842 0.083424
v -0.063850 0.236842 0.063850
v -0.083424 0.236842 0.034555
v -0.090297 0.236842 -0.000000
v -0.083424 0.236842 -0.034555
v -0.063850 0.236842 -0.063850
v -0.034555 0.236842 -0.083424
v 0.000000 0.235170 -0.077142
v 0.029521 0.235170 -0.071270
v 0.054548 0.235170 -0.054548
v 0.071270 0.235170 -0.029521
v 0.077142 0.235170 -0.000000
v 0.071270 0.235170 0.029521
v 0.054548 0.235170 0.054548
v 0.029521 0.235170 0.071270
v -0.000000 0.235170 0.077142
v -0.029521 0.235170 0.071270
v -0.054548 0.235170 0.054548
v -0.071270 0.235170 0.029521
v -0.077142 0.235170 -0.000000
v -0.071270 0.235170 -0.029521
v -0.054548 0.235170 -0.054548
v -0.029521 0.235170 -0.071270
v 0.000000 0.229640 -0.067436
v 0.025807 0.229640 -0.062303
v 0.047685 0.229640 -0.047685
v 0.062303 0.229640 -0.025807
v 0.067436 0.229640 -0.000000
v 0.062303 0.229640 0.025807
v 0.047685 0.229640 0.047685
v 0.025807 0.229640 0.062303
v 0.000000 0.229640 0.067436
v -0.025807 0.229640 0.062303
v -0.047685 0.229640 0.047685
v -0.062303 0.229640 0.025807
v -0.067436 0.229640 -0.000000
v -0.062303 0.229640 -0.025807
v -0.047685 0.229640 -0.047685
v -0.025807 0.229640 -0.062303
vn -0.0000 -0.7901 -0.6130
vn 0.2346 -0.7901 -0.5663
vn 0.4335 -0.7901 -0.4335
vn 0.5663 -0.7901 -0.2346
vn 0.6130 -0.7901 -0.0000
vn 0.5663 -0.7901 0.2346
vn 0.4335 -0.7901 0.4335
vn 0.2346 -0.7901 0.5663
vn -0.0000 -0.7901 0.6130
vn -0.2346 -0.7901 0.5663
vn -0.4335 -0.7901 0.4335
vn -0.5663 -0.7901 0.2346
vn -0.6130 -0.7901 -0.0000
vn -0.5663 -0.7901 -0.2346
vn -0.4335 -0.7901 -0.4335
vn -0.2346 -0.7901 -0.5663
vn -0.0000 -0.4738 -0.8806
vn 0.3370 -0.4738 -0.8136
vn 0.6227 -0.4738 -0.6227
vn 0.8136 -0.4738 -0.3370
vn 0.8806 -0.4738 -0.0000
vn 0.8136 -0.4738 0.3370
vn 0.6227 -0.4738 0.6227
vn 0.3370 -0.4738 0.8136
vn -0.0000 -0.4738 0.8806
vn -0.3370 -0.4738 0.8136
vn -0.6227 -0.4738 0.6227
vn -0.8136 -0.4738 0.3370
vn -0.8806 -0.4738 -0.0000
vn -0.8136 -0.4738 -0.3370
vn -0.6227 -0.4738 -0.6227
vn -0.3370 -0.4738 -0.8136
vn -0.0000 0.1586 -0.9873
vn 0.3778 0.1586 -0.9122
vn 0.6982 0.1586 -0.6982
vn 0.9122 0.1586 -0.3778
vn 0.9873 0.1586 -0.0000
vn 0.9122 0.1586 0.3778
vn 0.6982 0.1586 0.6982
vn 0.3778 0.1586 0.9122
vn -0.0000 0.1586 0.9873
vn -0.3778 0.1586 0.9122
vn -0.6982 0.1586 0.6982
vn -0.9122 0.1586 0.3778
vn -0.9873 0.1586 -0.0000
vn -0.9122 0.1586 -0.3778
vn -0.6982 0.1586 -0.6982
vn -0.3778 0.1586 -0.9122
vn -0.0000 0.6555 -0.7552
vn 0.2890 0.6555 -0.6977
vn 0.5340 0.6555 -0.5340
vn 0.6977 0.6555 -0.2890
vn 0.7552 0.6555 -0.0000
vn 0.6977 0.6555 0.2890
vn 0.5340 0.6555 0.5340
vn 0.2890 0.6555 0.6977
vn -0.0000 0.6555 0.7552
vn -0.2890 0.6555 0.6977
vn -0.5340 0.6555 0.5340
vn -0.6977 0.6555 0.2890
vn -0.7552 0.6555 -0.0000
vn -0.6977 0.6555 -0.2890
vn -0.5340 0.6555 -0.5340
vn -0.2890 0.6555 -0.6977
vn -0.0000 0.9691 -0.2468
vn 0.0944 0.9691 -0.2280
vn 0.1745 0.9691 -0.1745
vn 0.2280 0.9691 -0.0944
vn 0.2468 0.9691 -0.0000
vn 0.2280 0.9691 0.0944
vn 0.1745 0.9691 0.1745
vn 0.0944 0.9691 0.2280
vn -0.0000 0.9691 0.2468
vn -0.0944 0.9691 0.2280
vn -0.1745 0.9691 0.1745
vn -0.2280 0.9691 0.0944
vn -0.2468 0.9691 -0.0000
vn -0.2280 0.9691 -0.0944
vn -0.1745 0.9691 -0.1745
vn -0.0944 0.9691 -0.2280
vn -0.0000 0.9557 0.2944
vn -0.1127 0.9557 0.2720
vn -0.2082 0.9557 0.2082
vn -0.2720 0.9557 0.1127
vn -0.2944 0.9557 -0.0000
vn -0.2720 0.9557 -0.1127
vn -0.2082 0.9557 -0.2082
vn -0.1127 0.9557 -0.2720
vn -0.0000 0.9557 -0.2944
vn 0.1127 0.9557 -0.2720
vn 0.2082 0.9557 -0.2082
vn 0.2720 0.9557 -0.1127
vn 0.2944 0.9557 -0.0000
vn 0.2720 0.9557 0.1127
vn 0.2082 0.9557 0.2082
vn 0.1127 0.9557 0.2720
vn -0.0000 0.8689 0.4950
vn -0.1894 0.8689 0.4573
vn -0.3500 0.8689 0.3500
vn -0.4573 0.8689 0.1894
vn -0.4950 0.8689 -0.0000
vn -0.4573 0.8689 -0.1894
vn -0.3500 0.8689 -0.3500
vn -0.1894 0.8689 -0.4573
vn -0.0000 0.8689 -0.4950
vn 0.1894 0.8689 -0.4573
vn 0.3500 0.8689 -0.3500
vn 0.4573 0.8689 -0.1894
vn 0.4950 0.8689 -0.0000
vn 0.4573 0.8689 0.1894
vn 0.3500 0.8689 0.3500
vn 0.1894 0.8689 0.4573
vt 0.415661 0.001096
vt 0.609698 0.000099
vt 0.592910 0.071132
vt 0.426278 0.067440
vt 0.768010 0.921381
vt 0.576535 0.999901
vt 0.564257 0.919433
vt 0.728029 0.857876
vt 0.229230 0.060834
vt 0.269411 0.126190
vt 0.907288 0.778223
vt 0.847855 0.736896
vt 0.092271 0.199993
vt 0.146726 0.239512
vt 0.978837 0.599447
vt 0.910983 0.584094
vt 0.000099 0.570434
vt 0.002471 0.372714
vt 0.077534 0.391101
vt 0.071682 0.559610
vt 0.978837 0.414272
vt 0.914966 0.423714
vt 0.070458 0.750942
vt 0.131297 0.714842
vt 0.924517 0.233599
vt 0.862698 0.269720
vt 0.201581 0.888584
vt 0.241790 0.836049
vt 0.796238 0.079055
vt 0.748898 0.143046
vt 0.372097 0.981378
vt 0.390813 0.910370
vt 0.196763 0.674810
vt 0.288841 0.774764
vt 0.794738 0.309251
vt 0.703266 0.204950
vt 0.412029 0.832560
vt 0.575820 0.149451
vt 0.552248 0.841947
vt 0.439656 0.144306
vt 0.683325 0.789547
vt 0.310640 0.191810
vt 0.782837 0.694099
vt 0.209464 0.284384
vt 0.837001 0.569220
vt 0.150763 0.408747
vt 0.147752 0.546942
vt 0.841993 0.434936
vt 0.732792 0.660598
vt 0.778847 0.557212
vt 0.209672 0.422794
vt 0.207217 0.537593
vt 0.258540 0.319136
vt 0.783393 0.444356
vt 0.248090 0.642695
vt 0.743307 0.338717
vt 0.323471 0.725736
vt 0.666564 0.255358
vt 0.426056 0.773781
vt 0.562702 0.207607
vt 0.541351 0.780387
vt 0.449273 0.204548
vt 0.649623 0.739193
vt 0.342888 0.242831
vt 0.436920 0.730621
vt 0.533958 0.735653
vt 0.552188 0.251216
vt 0.455781 0.248102
vt 0.625540 0.701468
vt 0.365691 0.280790
vt 0.696379 0.635158
vt 0.294482 0.345703
vt 0.735797 0.547520
vt 0.253530 0.433548
vt 0.251007 0.530281
vt 0.739592 0.451839
vt 0.285100 0.619625
vt 0.705873 0.362180
vt 0.349757 0.690090
vt 0.640379 0.291444
vt 0.703761 0.457630
vt 0.675179 0.381098
vt 0.315677 0.600585
vt 0.371073 0.660918
vt 0.619110 0.320990
vt 0.445583 0.695600
vt 0.543954 0.286536
vt 0.528266 0.699392
vt 0.461471 0.284042
vt 0.606299 0.670415
vt 0.384282 0.311666
vt 0.666748 0.613869
vt 0.323644 0.367171
vt 0.700818 0.539198
vt 0.289282 0.441993
vt 0.286530 0.524154
vt 0.400011 0.337675
vt 0.348220 0.385097
vt 0.642172 0.596062
vt 0.671474 0.532228
vt 0.318677 0.448953
vt 0.316402 0.519168
vt 0.674071 0.462581
vt 0.341263 0.584738
vt 0.649592 0.397140
vt 0.389018 0.636255
vt 0.601488 0.345538
vt 0.452785 0.666349
vt 0.536902 0.316444
vt 0.523593 0.669166
vt 0.466094 0.313786
vt 0.590175 0.644153
s 1
f 14/1/14 13/2/13 29/3/29 30/4/30
f 7/5/7 6/6/6 22/7/22 23/8/23
f 15/9/15 14/1/14 30/4/30 31/10/31
f 8/11/8 7/5/7 23/8/23 24/12/24
f 16/13/16 15/9/15 31/10/31 32/14/32
f 9/15/9 8/11/8 24/12/24 25/16/25
f 2/17/2 1/18/1 17/19/17 18/20/18
f 1/18/1 16/13/16 32/14/32 17/19/17
f 10/21/10 9/15/9 25/16/25 26/22/26
f 3/23/3 2/17/2 18/20/18 19/24/19
f 11/25/11 10/21/10 26/22/26 27/26/27
f 4/27/4 3/23/3 19/24/19 20/28/20
f 12/29/12 11/25/11 27/26/27 28/30/28
f 5/31/5 4/27/4 20/28/20 21/32/21
f 13/2/13 12/29/12 28/30/28 29/3/29
f 6/6/6 5/31/5 21/32/21 22/7/22
f 20/28/20 19/24/19 35/33/35 36/34/36
f 28/30/28 27/26/27 43/35/43 44/36/44
f 21/32/21 20/28/20 36/34/36 37/37/37
f 29/3/29 28/30/28 44/36/44 45/38/45
f 22/7/22 21/32/21 37/37/37 38/39/38
f 30/4/30 29/3/29 45/38/45 46/40/46
f 23/8/23 22/7/22 38/39/38 39/41/39
f 31/10/31 30/4/30 46/40/46 47/42/47
f 24/12/24 23/8/23 39/41/39 40/43/40
f 32/14/32 31/10/31 47/42/47 48/44/48
f 25/16/25 24/12/24 40/43/40 41/45/41
f 18/20/18 17/19/17 33/46/33 34/47/34
f 17/19/17 32/14/32 48/44/48 33/46/33
f 26/22/26 25/16/25 41/45/41 42/48/42
f 19/24/19 18/20/18 34/47/34 35/33/35
f 27/26/27 26/22/26 42/48/42 43/35/43
f 41/45/41 40/43/40 56/49/56 57/50/57
f 34/47/34 33/46/33 49/51/49 50/52/50
f 33/46/33 48/44/48 64/53/64 49/51/49
f 42/48/42 41/45/41 57/50/57 58/54/58
f 35/33/35 34/47/34 50/52/50 51/55/51
f 43/35/43 42/48/42 58/54/58 59/56/59
f 36/34/36 35/33/35 51/55/51 52/57/52
f 44/36/44 43/35/43 59/56/59 60/58/60
f 37/37/37 36/34/36 52/57/52 53/59/53
f 45/38/45 44/36/44 60/58/60 61/60/61
f 38/39/38 37/37/37 53/59/53 54/61/54
f 46/40/46 45/38/45 61/60/61 62/62/62
f 39/41/39 38/39/38 54/61/54 55/63/55
f 47/42/47 46/40/46 62/62/62 63/64/63
f 40/43/40 39/41/39 55/63/55 56/49/56
f 48/44/48 47/42/47 63/64/63 64/53/64
f 54/61/54 53/59/53 69/65/69 70/66/70
f 62/62/62 61/60/61 77/67/77 78/68/78
f 55/63/55 54/61/54 70/66/70 71/69/71
f 63/64/63 62/62/62 78/68/78 79/70/79
f 56/49/56 55/63/55 71/69/71 72/71/72
f 64/53/64 63/64/63 79/70/79 80/72/80
f 57/50/57 56/49/56 72/71/72 73/73/73
f 50/52/50 49/51/49 65/74/65 66/75/66
f 49/51/49 64/53/64 80/72/80 65/74/65
f 58/54/58 57/50/57 73/73/73 74/76/74
f 51/55/51 50/52/50 66/75/66 67/77/67
f 59/56/59 58/54/58 74/76/74 75/78/75
f 52/57/52 51/55/51 67/77/67 68/79/68
f 60/58/60 59/56/59 75/78/75 76/80/76
f 53/59/53 52/57/52 68/79/68 69/65/69
f 61/60/61 60/58/60 76/80/76 77/67/77
f 75/78/75 74/76/74 90/81/90 91/82/91
f 68/79/68 67/77/67 83/83/83 84/84/84
f 76/80/76 75/78/75 91/82/91 92/85/92
f 69/65/69 68/79/68 84/84/84 85/86/85
f 77/67/77 76/80/76 92/85/92 93/87/93
f 70/66/70 69/65/69 85/86/85 86/88/86
f 78/68/78 77/67/77 93/87/93 94/89/94
f 71/69/71 70/66/70 86/88/86 87/90/87
f 79/70/79 78/68/78 94/89/94 95/91/95
f 72/71/72 71/69/71 87/90/87 88/92/88
f 80/72/80 79/70/79 95/91/95 96/93/96
f 73/73/73 72/71/72 88/92/88 89/94/89
f 66/75/66 65/74/65 81/95/81 82/96/82
f 65/74/65 80/72/80 96/93/96 81/95/81
f 74/76/74 73/73/73 89/94/89 90/81/90
f 67/77/67 66/75/66 82/96/82 83/83/83
f 96/93/96 95/91/95 111/97/111 112/98/112
f 89/94/89 88/92/88 104/99/104 105/100/105
f 82/96/82 81/95/81 97/101/97 98/102/98
f 81/95/81 96/93/96 112/98/112 97/101/97
f 90/81/90 89/94/89 105/100/105 106/103/106
f 83/83/83 82/96/82 98/102/98 99/104/99
f 91/82/91 90/81/90 106/103/106 107/105/107
f 84/84/84 83/83/83 99/104/99 100/106/100
f 92/85/92 91/82/91 107/105/107 108/107/108
f 85/86/85 84/84/84 100/106/100 101/108/101
f 93/87/93 92/85/92 108/107/108 109/109/109
f 86/88/86 85/86/85 101/108/101 102/110/102
f 94/89/94 93/87/93 109/109/109 110/111/110
f 87/90/87 86/88/86 102/110/102 103/112/103
f 95/91/95 94/89/94 110/111/110 111/97/111
f 88/92/88 87/90/87 103/112/103 104/99/104
