# Blender 4.1.0
# www.blender.org
o Circle_Button
v 0.783187 0.285993 -0.359000
v 0.807840 0.280942 -0.353701
v 0.828661 0.276838 -0.339177
v 0.842481 0.274304 -0.317638
v 0.847197 0.273726 -0.292364
v 0.842089 0.275193 -0.267202
v 0.827936 0.278481 -0.245984
v 0.806892 0.283089 -0.231939
v 0.782161 0.288316 -0.227205
v 0.757508 0.293366 -0.232504
v 0.736687 0.297471 -0.247029
v 0.722866 0.300005 -0.268567
v 0.718151 0.300583 -0.293841
v 0.723259 0.299116 -0.319003
v 0.737412 0.295828 -0.340221
v 0.758456 0.291220 -0.354267
v 0.787707 0.307695 -0.359347
v 0.812360 0.302644 -0.354048
v 0.833182 0.298540 -0.339524
v 0.847002 0.296006 -0.317985
v 0.851717 0.295428 -0.292711
v 0.846610 0.296895 -0.267550
v 0.832456 0.300182 -0.246331
v 0.811413 0.304791 -0.232286
v 0.786682 0.310018 -0.227553
v 0.762029 0.315068 -0.232852
v 0.741207 0.319173 -0.247376
v 0.727387 0.321707 -0.268915
v 0.722672 0.322285 -0.294189
v 0.727779 0.320818 -0.319350
v 0.741933 0.317530 -0.340569
v 0.762976 0.312922 -0.354614
v 0.788626 0.312358 -0.354795
v 0.811548 0.307662 -0.349868
v 0.830908 0.303845 -0.336363
v 0.843758 0.301489 -0.316336
v 0.848142 0.300952 -0.292836
v 0.843393 0.302316 -0.269441
v 0.830233 0.305373 -0.249712
v 0.810667 0.309658 -0.236653
v 0.787672 0.314518 -0.232252
v 0.764750 0.319214 -0.237179
v 0.745390 0.323030 -0.250684
v 0.732540 0.325386 -0.270710
v 0.728155 0.325924 -0.294210
v 0.732905 0.324560 -0.317606
v 0.746064 0.321503 -0.337335
v 0.765631 0.317218 -0.350394
v 0.789102 0.315064 -0.347240
v 0.809183 0.310950 -0.342924
v 0.826143 0.307607 -0.331094
v 0.837400 0.305542 -0.313549
v 0.841241 0.305072 -0.292963
v 0.837080 0.306267 -0.272468
v 0.825552 0.308945 -0.255184
v 0.808411 0.312698 -0.243744
v 0.788267 0.316956 -0.239889
v 0.768186 0.321070 -0.244205
v 0.751226 0.324413 -0.256035
v 0.739969 0.326477 -0.273580
v 0.736128 0.326948 -0.294166
v 0.740289 0.325753 -0.314661
v 0.751817 0.323075 -0.331945
v 0.768958 0.319322 -0.343385
v 0.789347 0.317012 -0.333167
v 0.804152 0.313979 -0.329985
v 0.816657 0.311514 -0.321262
v 0.824957 0.309992 -0.308327
v 0.827788 0.309645 -0.293148
v 0.824721 0.310526 -0.278037
v 0.816221 0.312500 -0.265294
v 0.803583 0.315268 -0.256859
v 0.788731 0.318407 -0.254017
v 0.773925 0.321440 -0.257199
v 0.761421 0.323905 -0.265922
v 0.753121 0.325427 -0.278857
v 0.750289 0.325774 -0.294035
v 0.753356 0.324893 -0.309146
v 0.761856 0.322919 -0.321889
v 0.774494 0.320151 -0.330324
v 0.789265 0.318796 -0.293609
vn 0.0078 -0.0176 -0.9998
vn 0.3818 -0.0943 -0.9194
vn 0.6977 -0.1565 -0.6990
vn 0.9074 -0.1950 -0.3723
vn 0.9790 -0.2037 0.0112
vn 0.9015 -0.1815 0.3930
vn 0.6867 -0.1316 0.7149
vn 0.3674 -0.0617 0.9280
vn -0.0078 0.0176 0.9998
vn -0.3818 0.0943 0.9194
vn -0.6977 0.1565 0.6990
vn -0.9074 0.1950 0.3723
vn -0.9790 0.2037 -0.0112
vn -0.9015 0.1815 -0.3930
vn -0.6867 0.1316 -0.7149
vn -0.3674 0.0617 -0.9280
vn 0.0752 0.3089 -0.9481
vn 0.4279 0.2367 -0.8723
vn 0.7258 0.1779 -0.6645
vn 0.9236 0.1417 -0.3563
vn 0.9910 0.1334 0.0054
vn 0.9180 0.1544 0.3654
vn 0.7155 0.2014 0.6690
vn 0.4143 0.2674 0.8700
vn 0.0605 0.3422 0.9377
vn -0.2923 0.4144 0.8619
vn -0.5902 0.4732 0.6540
vn -0.7879 0.5094 0.3459
vn -0.8554 0.5177 -0.0158
vn -0.7823 0.4967 -0.3758
vn -0.5798 0.4497 -0.6794
vn -0.2787 0.3837 -0.8804
vn 0.1728 0.7988 -0.5763
vn 0.3836 0.7556 -0.5310
vn 0.5616 0.7205 -0.4068
vn 0.6797 0.6988 -0.2227
vn 0.7200 0.6939 -0.0066
vn 0.6764 0.7064 0.2085
vn 0.5554 0.7346 0.3899
vn 0.3755 0.7739 0.5099
vn 0.1641 0.8186 0.5504
vn -0.0467 0.8618 0.5051
vn -0.2247 0.8969 0.3809
vn -0.3428 0.9186 0.1968
vn -0.3831 0.9235 -0.0193
vn -0.3395 0.9110 -0.2344
vn -0.2185 0.8829 -0.4157
vn -0.0386 0.8435 -0.5358
vn 0.1998 0.9462 -0.2545
vn 0.2894 0.9278 -0.2353
vn 0.3650 0.9129 -0.1825
vn 0.4152 0.9037 -0.1043
vn 0.4323 0.9016 -0.0125
vn 0.4138 0.9070 0.0789
vn 0.3624 0.9189 0.1559
vn 0.2859 0.9356 0.2069
vn 0.1961 0.9546 0.2241
vn 0.1066 0.9730 0.2049
vn 0.0310 0.9879 0.1521
vn -0.0192 0.9971 0.0739
vn -0.0364 0.9992 -0.0179
vn -0.0178 0.9939 -0.1093
vn 0.0336 0.9819 -0.1863
vn 0.1100 0.9652 -0.2373
vn 0.2039 0.9742 -0.0967
vn 0.2342 0.9680 -0.0902
vn 0.2598 0.9629 -0.0723
vn 0.2769 0.9598 -0.0458
vn 0.2827 0.9591 -0.0147
vn 0.2764 0.9609 0.0163
vn 0.2589 0.9650 0.0424
vn 0.2330 0.9706 0.0597
vn 0.2026 0.9771 0.0655
vn 0.1722 0.9833 0.0590
vn 0.1466 0.9883 0.0411
vn 0.1296 0.9915 0.0146
vn 0.1238 0.9922 -0.0165
vn 0.1301 0.9904 -0.0475
vn 0.1475 0.9863 -0.0736
vn 0.1734 0.9806 -0.0909
vn 0.2039 0.9789 -0.0157
vt 0.881659 0.575453
vt 0.847580 0.568699
vt 0.794945 0.696867
vt 0.824136 0.716587
vt 0.074719 0.218280
vt 0.173636 0.281887
vt 0.282101 0.174861
vt 0.214819 0.077800
vt 0.783967 0.922052
vt 0.716546 0.825044
vt 0.575019 0.882672
vt 0.600081 0.998488
vt 0.422426 0.115476
vt 0.397333 0.000427
vt 0.422231 0.883516
vt 0.401206 0.999900
vt 0.574921 0.116366
vt 0.595963 0.000100
vt 0.281075 0.824610
vt 0.216739 0.923959
vt 0.716031 0.174138
vt 0.779717 0.074552
vt 0.173224 0.716386
vt 0.075828 0.783243
vt 0.921592 0.214339
vt 0.824504 0.281695
vt 0.882381 0.423049
vt 0.997811 0.398425
vt 0.115381 0.575188
vt 0.000100 0.599558
vt 0.997811 0.596550
vt 0.116295 0.422928
vt 0.000301 0.401676
vt 0.923660 0.780145
vt 0.300522 0.795110
vt 0.326159 0.757103
vt 0.240659 0.671249
vt 0.202426 0.696645
vt 0.150354 0.429739
vt 0.203230 0.301663
vt 0.696697 0.795329
vt 0.301432 0.203784
vt 0.568233 0.848470
vt 0.429413 0.150407
vt 0.429188 0.848423
vt 0.568149 0.150470
vt 0.696289 0.203337
vt 0.794783 0.301562
vt 0.847870 0.430113
vt 0.149844 0.568191
vt 0.326755 0.241672
vt 0.372125 0.309567
vt 0.454369 0.275464
vt 0.438381 0.195305
vt 0.756771 0.327088
vt 0.803011 0.439069
vt 0.671054 0.241420
vt 0.194663 0.559313
vt 0.802920 0.559834
vt 0.194972 0.438664
vt 0.756819 0.671525
vt 0.241257 0.327088
vt 0.671171 0.757304
vt 0.559217 0.803606
vt 0.438109 0.803583
vt 0.559337 0.195288
vt 0.275024 0.454629
vt 0.498846 0.499338
vt 0.309157 0.372453
vt 0.543290 0.723327
vt 0.454156 0.723314
vt 0.543445 0.275469
vt 0.371778 0.689123
vt 0.625723 0.309520
vt 0.308819 0.625980
vt 0.688747 0.372580
vt 0.722802 0.454964
vt 0.274875 0.543603
vt 0.722782 0.543966
vt 0.688737 0.626226
vt 0.625670 0.689267
s 1
f 19/1/19 35/2/35 36/3/36 20/4/20
f 12/5/12 28/6/28 29/7/29 13/8/13
f 5/9/5 21/10/21 22/11/22 6/12/6
f 13/8/13 29/7/29 30/13/30 14/14/14
f 6/12/6 22/11/22 23/15/23 7/16/7
f 14/14/14 30/13/30 31/17/31 15/18/15
f 7/16/7 23/15/23 24/19/24 8/20/8
f 15/18/15 31/17/31 32/21/32 16/22/16
f 8/20/8 24/19/24 25/23/25 9/24/9
f 1/25/1 17/26/17 18/27/18 2/28/2
f 16/22/16 32/21/32 17/26/17 1/25/1
f 9/24/9 25/23/25 26/29/26 10/30/10
f 2/28/2 18/27/18 19/1/19 3/31/3
f 10/30/10 26/29/26 27/32/27 11/33/11
f 3/31/3 19/1/19 20/4/20 4/34/4
f 11/33/11 27/32/27 28/6/28 12/5/12
f 4/34/4 20/4/20 21/10/21 5/9/5
f 40/35/40 56/36/56 57/37/57 41/38/41
f 27/32/27 43/39/43 44/40/44 28/6/28
f 20/4/20 36/3/36 37/41/37 21/10/21
f 28/6/28 44/40/44 45/42/45 29/7/29
f 21/10/21 37/41/37 38/43/38 22/11/22
f 29/7/29 45/42/45 46/44/46 30/13/30
f 22/11/22 38/43/38 39/45/39 23/15/23
f 30/13/30 46/44/46 47/46/47 31/17/31
f 23/15/23 39/45/39 40/35/40 24/19/24
f 31/17/31 47/46/47 48/47/48 32/21/32
f 24/19/24 40/35/40 41/38/41 25/23/25
f 17/26/17 33/48/33 34/49/34 18/27/18
f 32/21/32 48/47/48 33/48/33 17/26/17
f 25/23/25 41/38/41 42/50/42 26/29/26
f 18/27/18 34/49/34 35/2/35 19/1/19
f 26/29/26 42/50/42 43/39/43 27/32/27
f 61/51/61 77/52/77 78/53/78 62/54/62
f 33/48/33 49/55/49 50/56/50 34/49/34
f 48/47/48 64/57/64 49/55/49 33/48/33
f 41/38/41 57/37/57 58/58/58 42/50/42
f 34/49/34 50/56/50 51/59/51 35/2/35
f 42/50/42 58/58/58 59/60/59 43/39/43
f 35/2/35 51/59/51 52/61/52 36/3/36
f 43/39/43 59/60/59 60/62/60 44/40/44
f 36/3/36 52/61/52 53/63/53 37/41/37
f 44/40/44 60/62/60 61/51/61 45/42/45
f 37/41/37 53/63/53 54/64/54 38/43/38
f 45/42/45 61/51/61 62/54/62 46/44/46
f 38/43/38 54/64/54 55/65/55 39/45/39
f 46/44/46 62/54/62 63/66/63 47/46/47
f 39/45/39 55/65/55 56/36/56 40/35/40
f 47/46/47 63/66/63 64/57/64 48/47/48
f 75/67/75 81/68/81 76/69/76
f 54/64/54 70/70/70 71/71/71 55/65/55
f 62/54/62 78/53/78 79/72/79 63/66/63
f 55/65/55 71/71/71 72/73/72 56/36/56
f 63/66/63 79/72/79 80/74/80 64/57/64
f 56/36/56 72/73/72 73/75/73 57/37/57
f 49/55/49 65/76/65 66/77/66 50/56/50
f 64/57/64 80/74/80 65/76/65 49/55/49
f 57/37/57 73/75/73 74/78/74 58/58/58
f 50/56/50 66/77/66 67/79/67 51/59/51
f 58/58/58 74/78/74 75/67/75 59/60/59
f 51/59/51 67/79/67 68/80/68 52/61/52
f 59/60/59 75/67/75 76/69/76 60/62/60
f 52/61/52 68/80/68 69/81/69 53/63/53
f 60/62/60 76/69/76 77/52/77 61/51/61
f 53/63/53 69/81/69 70/70/70 54/64/54
f 68/80/68 81/68/81 69/81/69
f 76/69/76 81/68/81 77/52/77
f 69/81/69 81/68/81 70/70/70
f 77/52/77 81/68/81 78/53/78
f 70/70/70 81/68/81 71/71/71
f 78/53/78 81/68/81 79/72/79
f 71/71/71 81/68/81 72/73/72
f 79/72/79 81/68/81 80/74/80
f 72/73/72 81/68/81 73/75/73
f 65/76/65 81/68/81 66/77/66
f 80/74/80 81/68/81 65/76/65
f 73/75/73 81/68/81 74/78/74
f 66/77/66 81/68/81 67/79/67
f 74/78/74 81/68/81 75/67/75
f 67/79/67 81/68/81 68/80/68
