# Blender 4.1.0
# www.blender.org
o Dpad_Down
v -0.638832 0.333873 -0.221307
v -0.639482 0.329993 -0.162479
v -0.673672 0.335897 -0.221209
v -0.679031 0.330099 -0.162909
v -0.638435 0.332973 -0.257956
v -0.642702 0.332734 -0.256989
v -0.639648 0.327999 -0.147753
v -0.671335 0.328713 -0.150641
v -0.678868 0.331557 -0.224193
v -0.684097 0.325294 -0.161218
v -0.638379 0.328496 -0.264276
v -0.643728 0.327973 -0.262159
v -0.639718 0.322478 -0.142632
v -0.673917 0.323791 -0.147946
v -0.683953 0.303603 -0.234410
v -0.689850 0.296539 -0.163384
v -0.638288 0.300139 -0.279567
v -0.644321 0.299561 -0.277229
v -0.639799 0.293364 -0.142423
v -0.678369 0.294845 -0.148416
v -0.677002 0.329142 -0.156049
v -0.685268 0.295318 -0.154199
v -0.680740 0.324253 -0.153629
v -0.679533 0.302958 -0.241322
v -0.670064 0.335340 -0.227687
v -0.674536 0.330921 -0.231010
v -0.672524 0.335725 -0.224704
v -0.682493 0.303401 -0.237991
v -0.677380 0.331348 -0.227839
v -0.640602 0.332917 -0.257731
v -0.641363 0.299986 -0.278948
v -0.640800 0.328395 -0.263868
v -0.639690 0.325662 -0.144431
v -0.673075 0.333522 -0.229377
v -0.643436 0.331288 -0.259564
v -0.638401 0.330787 -0.261687
v -0.675568 0.334036 -0.226216
v -0.640680 0.331272 -0.260985
v -0.678973 0.327424 -0.154718
v -0.672500 0.327009 -0.148746
v -0.682215 0.328179 -0.161983
v -0.676865 0.334081 -0.222675
v -0.603992 0.335709 -0.220451
v -0.599934 0.329886 -0.162049
v -0.634192 0.332711 -0.256897
v -0.607902 0.328542 -0.149951
v -0.598755 0.331342 -0.223321
v -0.594931 0.325054 -0.160247
v -0.633079 0.327945 -0.262043
v -0.605406 0.323607 -0.147201
v -0.593599 0.303361 -0.233427
v -0.589287 0.296269 -0.162290
v -0.632312 0.299529 -0.277099
v -0.601101 0.294637 -0.147576
v -0.602117 0.328941 -0.155234
v -0.594074 0.295073 -0.153207
v -0.598458 0.324032 -0.152734
v -0.597871 0.302739 -0.240433
v -0.607460 0.335172 -0.227006
v -0.602941 0.330728 -0.230231
v -0.605064 0.335544 -0.223970
v -0.594982 0.303165 -0.237039
v -0.600164 0.331141 -0.226999
v -0.636274 0.332906 -0.257684
v -0.635229 0.299970 -0.278881
v -0.635967 0.328382 -0.263816
v -0.604423 0.333337 -0.228629
v -0.633409 0.331261 -0.259455
v -0.601997 0.333838 -0.225416
v -0.636134 0.331260 -0.260936
v -0.600184 0.327212 -0.153861
v -0.606787 0.326832 -0.148031
v -0.596781 0.327949 -0.161053
v -0.600777 0.333876 -0.221847
vn 0.0025 0.9998 0.0217
vn -0.2382 0.9711 -0.0132
vn -0.2766 0.9517 0.1329
vn 0.0015 0.9943 0.1063
vn -0.1865 0.9499 -0.2507
vn -0.1364 0.9631 -0.2319
vn -0.2595 0.9260 0.2740
vn -0.6719 0.7198 0.1745
vn -0.5649 0.6742 0.4757
vn -0.3979 0.7420 -0.5395
vn -0.4385 0.7573 -0.4839
vn -0.6329 0.7667 -0.1074
vn -0.1314 0.9161 0.3788
vn -0.2860 0.6251 0.7263
vn -0.0071 0.6028 0.7979
vn -0.0018 0.9185 0.3953
vn 0.0056 0.9615 -0.2748
vn 0.0088 0.7917 -0.6109
vn -0.1972 0.7874 -0.5840
vn -0.0982 0.9603 -0.2609
vn -0.8699 0.4552 -0.1898
vn -0.9331 0.2604 -0.2479
vn -0.9650 0.1746 0.1955
vn -0.9004 0.3787 0.2142
vn -0.7810 0.1140 0.6141
vn -0.7374 0.3136 0.5983
vn 0.0103 0.6034 -0.7974
vn 0.0109 0.4734 -0.8808
vn -0.3402 0.4468 -0.8274
vn -0.3053 0.5665 -0.7655
vn -0.5375 0.4918 -0.6850
vn -0.5634 0.3952 -0.7255
vn -0.6571 0.3628 -0.6607
vn -0.6081 0.4944 -0.6212
vn -0.3985 0.2497 0.8825
vn -0.1533 0.0075 0.9882
vn -0.0109 0.0072 0.9999
vn -0.0101 0.1982 0.9801
vn -0.6355 0.0848 0.7675
vn -0.1811 0.9670 -0.1793
vn -0.7215 0.5029 -0.4760
vn -0.5079 0.7878 -0.3484
vn -0.7686 0.3381 -0.5431
vn 0.2788 0.9502 0.1390
vn 0.2436 0.9698 -0.0079
vn 0.1466 0.9624 -0.2288
vn 0.1970 0.9489 -0.2466
vn 0.2584 0.9247 0.2797
vn 0.5581 0.6711 0.4880
vn 0.6718 0.7162 0.1891
vn 0.4530 0.7549 -0.4742
vn 0.4136 0.7398 -0.5307
vn 0.6392 0.7633 -0.0935
vn 0.1280 0.9154 0.3816
vn 0.2735 0.6236 0.7324
vn 0.1090 0.9598 -0.2587
vn 0.2141 0.7863 -0.5795
vn 0.8763 0.4505 -0.1708
vn 0.8975 0.3739 0.2338
vn 0.9615 0.1695 0.2165
vn 0.9397 0.2553 -0.2275
vn 0.7259 0.3096 0.6142
vn 0.7680 0.1099 0.6309
vn 0.3249 0.5648 -0.7586
vn 0.3605 0.4449 -0.8198
vn 0.5549 0.4889 -0.6731
vn 0.6241 0.4911 -0.6078
vn 0.6733 0.3592 -0.6463
vn 0.5812 0.3921 -0.7131
vn 0.3805 0.2476 0.8910
vn 0.1318 0.0068 0.9913
vn 0.6191 0.0814 0.7811
vn 0.1901 0.9660 -0.1752
vn 0.5196 0.7850 -0.3373
vn 0.7344 0.4990 -0.4601
vn 0.7820 0.3339 -0.5262
vt 0.417509 0.596711
vt 0.251952 0.602985
vt 0.217634 0.339644
vt 0.395128 0.320624
vt 0.410434 0.768571
vt 0.267709 0.633968
vt 0.224488 0.307462
vt 0.200159 0.336146
vt 0.212749 0.299924
vt 0.407014 0.783652
vt 0.251111 0.644554
vt 0.234412 0.609350
vt 0.248496 0.280937
vt 0.241687 0.269836
vt 0.387731 0.229374
vt 0.389332 0.249124
vt 0.431685 0.771589
vt 0.433414 0.792925
vt 0.421653 0.789333
vt 0.421057 0.771296
vt 0.217902 0.617165
vt 0.079049 0.747877
vt 0.000088 0.264045
vt 0.182946 0.331802
vt 0.037369 0.192377
vt 0.196796 0.289637
vt 0.434840 0.810518
vt 0.450158 0.999481
vt 0.430527 0.999912
vt 0.421859 0.810289
vt 0.403205 0.806389
vt 0.408990 0.998542
vt 0.107726 0.794239
vt 0.238861 0.657976
vt 0.229626 0.256169
vt 0.079976 0.138351
vt 0.369144 0.000088
vt 0.386227 0.210821
vt 0.256563 0.619481
vt 0.225424 0.638314
vt 0.240106 0.627054
vt 0.091510 0.769972
vt 0.573368 0.310807
vt 0.581914 0.576237
vt 0.571353 0.609353
vt 0.452172 0.765187
vt 0.561420 0.280149
vt 0.571791 0.270819
vt 0.590051 0.304540
vt 0.589439 0.617128
vt 0.457976 0.779521
vt 0.600250 0.579694
vt 0.533453 0.257837
vt 0.538385 0.245785
vt 0.442127 0.769588
vt 0.444443 0.787486
vt 0.617803 0.584747
vt 0.606340 0.297480
vt 0.775897 0.201155
vt 0.775897 0.691388
vt 0.585879 0.258096
vt 0.727559 0.136428
vt 0.447616 0.808201
vt 0.469603 0.996744
vt 0.465397 0.801347
vt 0.603691 0.628402
vt 0.755062 0.741764
vt 0.490638 0.991924
vt 0.548087 0.230354
vt 0.676807 0.089970
vt 0.580020 0.593261
vt 0.597482 0.598084
vt 0.613786 0.606832
vt 0.767157 0.715201
s 1
f 1/1/1 3/2/2 4/3/3 2/4/4
f 1/1/1 6/5/5 25/6/6
f 4/3/3 21/7/7 2/4/4
f 4/3/3 41/8/8 39/9/9 21/7/7
f 6/5/5 35/10/10 34/11/11 25/6/6
f 3/2/2 42/12/12 41/8/8 4/3/3
f 8/13/13 40/14/14 33/15/15 7/16/16
f 5/17/17 36/18/18 38/19/19 30/20/20
f 9/21/21 15/22/22 16/23/23 10/24/24
f 10/24/24 16/23/23 22/25/25 23/26/26
f 11/27/27 17/28/28 31/29/29 32/30/30
f 12/31/31 18/32/32 24/33/33 26/34/34
f 14/35/35 20/36/36 19/37/37 13/38/38
f 22/25/25 20/36/39 14/35/35 23/26/26
f 23/26/26 14/35/35 40/14/14 39/9/9
f 25/6/6 27/39/40 1/1/1
f 26/34/34 29/40/41 37/41/42 34/11/11
f 24/33/33 28/42/43 29/40/41 26/34/34
f 27/39/40 3/2/2 1/1/1
f 29/40/41 9/21/21 42/12/12 37/41/42
f 28/42/43 15/22/22 9/21/21 29/40/41
f 21/7/7 8/13/13 2/4/4
f 8/13/13 7/16/16 2/4/4
f 32/30/30 12/31/31 35/10/10 38/19/19
f 30/20/20 1/1/1 5/17/17
f 31/29/29 18/32/32 12/31/31 32/30/30
f 6/5/5 1/1/1 30/20/20
f 36/18/18 11/27/27 32/30/30 38/19/19
f 40/14/14 8/13/13 21/7/7 39/9/9
f 35/10/10 12/31/31 26/34/34 34/11/11
f 35/10/10 6/5/5 30/20/20 38/19/19
f 42/12/12 9/21/21 10/24/24 41/8/8
f 42/12/12 3/2/2 27/39/40 37/41/42
f 37/41/42 27/39/40 25/6/6 34/11/11
f 40/14/14 14/35/35 13/38/38 33/15/15
f 41/8/8 10/24/24 23/26/26 39/9/9
f 1/1/1 2/4/4 44/43/44 43/44/45
f 1/1/1 59/45/46 45/46/47
f 44/43/44 2/4/4 55/47/48
f 44/43/44 55/47/48 71/48/49 73/49/50
f 45/46/47 59/45/46 67/50/51 68/51/52
f 43/44/45 44/43/44 73/49/50 74/52/53
f 46/53/54 7/16/16 33/15/15 72/54/55
f 5/17/17 64/55/56 70/56/57 36/18/18
f 47/57/58 48/58/59 52/59/60 51/60/61
f 48/58/59 57/61/62 56/62/63 52/59/60
f 11/27/27 66/63/64 65/64/65 17/28/28
f 49/65/66 60/66/67 58/67/68 53/68/69
f 50/69/70 13/38/38 19/37/37 54/70/71
f 56/62/63 57/61/62 50/69/70 54/70/72
f 57/61/62 71/48/49 72/54/55 50/69/70
f 59/45/46 1/1/1 61/71/73
f 60/66/67 67/50/51 69/72/74 63/73/75
f 58/67/68 60/66/67 63/73/75 62/74/76
f 61/71/73 1/1/1 43/44/45
f 63/73/75 69/72/74 74/52/53 47/57/58
f 62/74/76 63/73/75 47/57/58 51/60/61
f 55/47/48 2/4/4 46/53/54
f 46/53/54 2/4/4 7/16/16
f 66/63/64 70/56/57 68/51/52 49/65/66
f 64/55/56 5/17/17 1/1/1
f 65/64/65 66/63/64 49/65/66 53/68/69
f 45/46/47 64/55/56 1/1/1
f 36/18/18 70/56/57 66/63/64 11/27/27
f 72/54/55 71/48/49 55/47/48 46/53/54
f 68/51/52 67/50/51 60/66/67 49/65/66
f 68/51/52 70/56/57 64/55/56 45/46/47
f 74/52/53 73/49/50 48/58/59 47/57/58
f 74/52/53 69/72/74 61/71/73 43/44/45
f 69/72/74 67/50/51 59/45/46 61/71/73
f 72/54/55 33/15/15 13/38/38 50/69/70
f 73/49/50 71/48/49 57/61/62 48/58/59
