# Blender 4.1.0
# www.blender.org
o Dpad_Right
v -0.572367 0.335753 -0.287374
v -0.513624 0.340663 -0.286218
v -0.572730 0.336069 -0.252478
v -0.514243 0.338778 -0.246716
v -0.608467 0.329417 -0.288242
v -0.607495 0.329117 -0.283981
v -0.498766 0.340883 -0.285974
v -0.501871 0.339613 -0.254325
v -0.575054 0.331085 -0.247529
v -0.511875 0.334037 -0.241865
v -0.614047 0.324056 -0.288586
v -0.611899 0.323594 -0.283242
v -0.492877 0.336190 -0.286106
v -0.498482 0.335028 -0.251948
v -0.580999 0.301706 -0.243898
v -0.509743 0.305035 -0.237510
v -0.624924 0.293773 -0.290202
v -0.622553 0.293258 -0.284177
v -0.488317 0.307464 -0.287406
v -0.494638 0.306154 -0.248882
v -0.507308 0.338955 -0.248708
v -0.500458 0.305423 -0.242037
v -0.504201 0.334305 -0.245178
v -0.587716 0.300253 -0.248424
v -0.579035 0.334729 -0.256184
v -0.581680 0.329650 -0.251966
v -0.576155 0.335434 -0.253674
v -0.584503 0.301042 -0.245408
v -0.578622 0.330407 -0.249068
v -0.608246 0.329290 -0.286078
v -0.624303 0.293565 -0.287131
v -0.613639 0.323899 -0.286167
v -0.495132 0.339068 -0.286004
v -0.580447 0.332534 -0.253282
v -0.609827 0.327269 -0.283346
v -0.611829 0.326703 -0.288425
v -0.577411 0.333392 -0.250732
v -0.611218 0.327175 -0.286116
v -0.505744 0.337360 -0.246805
v -0.499748 0.338156 -0.253220
v -0.513055 0.336864 -0.243617
v -0.573922 0.333901 -0.249392
v -0.571638 0.339391 -0.322075
v -0.513004 0.342549 -0.325719
v -0.607361 0.329523 -0.292481
v -0.500877 0.342638 -0.317682
v -0.573799 0.334905 -0.327547
v -0.510478 0.338289 -0.330924
v -0.611732 0.324102 -0.293879
v -0.497409 0.338295 -0.320378
v -0.579584 0.306014 -0.334143
v -0.508167 0.309831 -0.337952
v -0.622365 0.293830 -0.296172
v -0.493428 0.309838 -0.326058
v -0.506135 0.342526 -0.323504
v -0.499029 0.309771 -0.333121
v -0.502912 0.338229 -0.327361
v -0.586437 0.304147 -0.329989
v -0.578054 0.337714 -0.318713
v -0.580558 0.333064 -0.323476
v -0.575098 0.338651 -0.321053
v -0.583132 0.305215 -0.332814
v -0.577412 0.334089 -0.326191
v -0.608178 0.329496 -0.290401
v -0.624207 0.293857 -0.293258
v -0.613563 0.324129 -0.290995
v -0.579372 0.335808 -0.321853
v -0.609670 0.327747 -0.293361
v -0.576258 0.336900 -0.324214
v -0.611147 0.327392 -0.290657
v -0.504509 0.341117 -0.325500
v -0.498718 0.341290 -0.318854
v -0.511716 0.340938 -0.328949
v -0.572730 0.337529 -0.325389
vn -0.1280 0.9907 0.0453
vn -0.1593 0.9455 0.2839
vn -0.0121 0.9463 0.3231
vn -0.0436 0.9979 0.0470
vn -0.3908 0.8917 0.2285
vn -0.3739 0.9100 0.1793
vn 0.1313 0.9428 0.3064
vn 0.0618 0.7042 0.7073
vn 0.3670 0.7093 0.6019
vn -0.6462 0.6330 0.4264
vn -0.5937 0.6544 0.4683
vn -0.2237 0.7104 0.6673
vn 0.2369 0.9549 0.1792
vn 0.6233 0.7117 0.3239
vn 0.6987 0.7140 0.0450
vn 0.2535 0.9660 0.0501
vn -0.4155 0.9088 0.0369
vn -0.7224 0.6912 0.0217
vn -0.6961 0.6810 0.2275
vn -0.4021 0.9048 0.1406
vn -0.2597 0.3788 0.8883
vn -0.2883 0.1747 0.9415
vn 0.1629 0.1546 0.9745
vn 0.1511 0.3621 0.9198
vn 0.5866 0.1662 0.7926
vn 0.5413 0.3630 0.7584
vn -0.8786 0.4775 0.0090
vn -0.9416 0.3367 0.0013
vn -0.8865 0.3013 0.3513
vn -0.8429 0.4304 0.3228
vn -0.7533 0.3574 0.5521
vn -0.7790 0.2546 0.5730
vn -0.7105 0.2277 0.6658
vn -0.6908 0.3660 0.6235
vn 0.8335 0.3589 0.4202
vn 0.9752 0.1474 0.1650
vn 0.9875 0.1557 0.0229
vn 0.9394 0.3415 0.0310
vn 0.7433 0.1673 0.6477
vn -0.3227 0.9195 0.2247
vn -0.5491 0.3905 0.7389
vn -0.4646 0.7013 0.5406
vn -0.5910 0.2155 0.7773
vn -0.0034 0.9728 -0.2317
vn -0.1518 0.9685 -0.1973
vn -0.3695 0.9235 -0.1034
vn -0.3848 0.9100 -0.1546
vn 0.1394 0.9675 -0.2109
vn 0.3846 0.7628 -0.5198
vn 0.0829 0.7683 -0.6347
vn -0.5797 0.6969 -0.4222
vn -0.6335 0.6717 -0.3842
vn -0.2037 0.7710 -0.6033
vn 0.2410 0.9672 -0.0799
vn 0.6321 0.7384 -0.2349
vn -0.3988 0.9146 -0.0663
vn -0.6896 0.7006 -0.1833
vn -0.2323 0.4621 -0.8559
vn 0.1793 0.4478 -0.8760
vn 0.1930 0.2465 -0.9497
vn -0.2589 0.2640 -0.9291
vn 0.5643 0.4328 -0.7031
vn 0.6109 0.2400 -0.7545
vn -0.8331 0.4605 -0.3066
vn -0.8755 0.3347 -0.3486
vn -0.7362 0.4095 -0.5389
vn -0.6715 0.4247 -0.6071
vn -0.6897 0.2912 -0.6630
vn -0.7611 0.3092 -0.5702
vn 0.8457 0.3960 -0.3578
vn 0.9797 0.1610 -0.1197
vn 0.7629 0.2271 -0.6053
vn -0.3169 0.9372 -0.1461
vn -0.4485 0.7503 -0.4856
vn -0.5262 0.4600 -0.7152
vn -0.5667 0.2894 -0.7714
vt 0.358477 0.403289
vt 0.524034 0.397015
vt 0.558352 0.660356
vt 0.380857 0.679376
vt 0.365552 0.231429
vt 0.508277 0.366032
vt 0.551498 0.692538
vt 0.575827 0.663854
vt 0.563236 0.700076
vt 0.368971 0.216348
vt 0.524875 0.355446
vt 0.541573 0.390650
vt 0.527490 0.719063
vt 0.534298 0.730164
vt 0.388254 0.770626
vt 0.386653 0.750877
vt 0.344301 0.228411
vt 0.342571 0.207076
vt 0.354332 0.210666
vt 0.354929 0.228704
vt 0.558084 0.382836
vt 0.696937 0.252123
vt 0.775897 0.735956
vt 0.593040 0.668199
vt 0.738617 0.807623
vt 0.579189 0.710364
vt 0.341145 0.189482
vt 0.325827 0.000519
vt 0.345458 0.000088
vt 0.354127 0.189711
vt 0.372780 0.193611
vt 0.366996 0.001458
vt 0.668259 0.205761
vt 0.537124 0.342024
vt 0.546360 0.743831
vt 0.696010 0.861649
vt 0.406841 0.999912
vt 0.389758 0.789179
vt 0.519423 0.380518
vt 0.550562 0.361686
vt 0.535879 0.372945
vt 0.684475 0.230028
vt 0.202617 0.689193
vt 0.194071 0.423763
vt 0.204633 0.390647
vt 0.323813 0.234812
vt 0.214565 0.719851
vt 0.204194 0.729181
vt 0.185934 0.695460
vt 0.186546 0.382872
vt 0.318010 0.220479
vt 0.175736 0.420306
vt 0.242532 0.742162
vt 0.237600 0.754215
vt 0.333859 0.230412
vt 0.331542 0.212514
vt 0.158182 0.415253
vt 0.169646 0.702520
vt 0.000089 0.798845
vt 0.000089 0.308612
vt 0.190106 0.741904
vt 0.048426 0.863572
vt 0.328370 0.191799
vt 0.306383 0.003255
vt 0.310588 0.198653
vt 0.172294 0.371598
vt 0.020924 0.258236
vt 0.285347 0.008076
vt 0.227898 0.769646
vt 0.099178 0.910030
vt 0.195966 0.406739
vt 0.178504 0.401916
vt 0.162200 0.393168
vt 0.008828 0.284798
s 1
f 1/1/1 3/2/2 4/3/3 2/4/4
f 1/1/1 6/5/5 25/6/6
f 4/3/3 21/7/7 2/4/4
f 4/3/3 41/8/8 39/9/9 21/7/7
f 6/5/5 35/10/10 34/11/11 25/6/6
f 3/2/2 42/12/12 41/8/8 4/3/3
f 8/13/13 40/14/14 33/15/15 7/16/16
f 5/17/17 36/18/18 38/19/19 30/20/20
f 9/21/21 15/22/22 16/23/23 10/24/24
f 10/24/24 16/23/23 22/25/25 23/26/26
f 11/27/27 17/28/28 31/29/29 32/30/30
f 12/31/31 18/32/32 24/33/33 26/34/34
f 14/35/35 20/36/36 19/37/37 13/38/38
f 22/25/25 20/36/39 14/35/35 23/26/26
f 23/26/26 14/35/35 40/14/14 39/9/9
f 25/6/6 27/39/40 1/1/1
f 26/34/34 29/40/41 37/41/42 34/11/11
f 24/33/33 28/42/43 29/40/41 26/34/34
f 27/39/40 3/2/2 1/1/1
f 29/40/41 9/21/21 42/12/12 37/41/42
f 28/42/43 15/22/22 9/21/21 29/40/41
f 21/7/7 8/13/13 2/4/4
f 8/13/13 7/16/16 2/4/4
f 32/30/30 12/31/31 35/10/10 38/19/19
f 30/20/20 1/1/1 5/17/17
f 31/29/29 18/32/32 12/31/31 32/30/30
f 6/5/5 1/1/1 30/20/20
f 36/18/18 11/27/27 32/30/30 38/19/19
f 40/14/14 8/13/13 21/7/7 39/9/9
f 35/10/10 12/31/31 26/34/34 34/11/11
f 35/10/10 6/5/5 30/20/20 38/19/19
f 42/12/12 9/21/21 10/24/24 41/8/8
f 42/12/12 3/2/2 27/39/40 37/41/42
f 37/41/42 27/39/40 25/6/6 34/11/11
f 40/14/14 14/35/35 13/38/38 33/15/15
f 41/8/8 10/24/24 23/26/26 39/9/9
f 1/1/1 2/4/4 44/43/44 43/44/45
f 1/1/1 59/45/46 45/46/47
f 44/43/44 2/4/4 55/47/48
f 44/43/44 55/47/48 71/48/49 73/49/50
f 45/46/47 59/45/46 67/50/51 68/51/52
f 43/44/45 44/43/44 73/49/50 74/52/53
f 46/53/54 7/16/16 33/15/15 72/54/55
f 5/17/17 64/55/56 70/56/57 36/18/18
f 47/57/58 48/58/59 52/59/60 51/60/61
f 48/58/59 57/61/62 56/62/63 52/59/60
f 11/27/27 66/63/64 65/64/65 17/28/28
f 49/65/66 60/66/67 58/67/68 53/68/69
f 50/69/70 13/38/38 19/37/37 54/70/71
f 56/62/63 57/61/62 50/69/70 54/70/72
f 57/61/62 71/48/49 72/54/55 50/69/70
f 59/45/46 1/1/1 61/71/73
f 60/66/67 67/50/51 69/72/74 63/73/75
f 58/67/68 60/66/67 63/73/75 62/74/76
f 61/71/73 1/1/1 43/44/45
f 63/73/75 69/72/74 74/52/53 47/57/58
f 62/74/76 63/73/75 47/57/58 51/60/61
f 55/47/48 2/4/4 46/53/54
f 46/53/54 2/4/4 7/16/16
f 66/63/64 70/56/57 68/51/52 49/65/66
f 64/55/56 5/17/17 1/1/1
f 65/64/65 66/63/64 49/65/66 53/68/69
f 45/46/47 64/55/56 1/1/1
f 36/18/18 70/56/57 66/63/64 11/27/27
f 72/54/55 71/48/49 55/47/48 46/53/54
f 68/51/52 67/50/51 60/66/67 49/65/66
f 68/51/52 70/56/57 64/55/56 45/46/47
f 74/52/53 73/49/50 48/58/59 47/57/58
f 74/52/53 69/72/74 61/71/73 43/44/45
f 69/72/74 67/50/51 59/45/46 61/71/73
f 72/54/55 33/15/15 13/38/38 50/69/70
f 73/49/50 71/48/49 57/61/62 48/58/59
