# Blender 4.1.0
# www.blender.org
o Dpad_Left
v -0.704708 0.331833 -0.288828
v -0.763667 0.331613 -0.288972
v -0.705142 0.332039 -0.253932
v -0.763756 0.329630 -0.249470
v -0.668183 0.328662 -0.288905
v -0.669219 0.328262 -0.284667
v -0.778489 0.330539 -0.289059
v -0.775983 0.329417 -0.257351
v -0.702503 0.327256 -0.248943
v -0.765809 0.324682 -0.244682
v -0.662152 0.323808 -0.289135
v -0.664369 0.323140 -0.283842
v -0.783943 0.325353 -0.289332
v -0.779012 0.324546 -0.255060
v -0.694106 0.298491 -0.245241
v -0.765506 0.295588 -0.240436
v -0.648648 0.294593 -0.290571
v -0.651097 0.293849 -0.284601
v -0.785957 0.296345 -0.290792
v -0.780396 0.295434 -0.252140
v -0.770635 0.329212 -0.251616
v -0.774687 0.295185 -0.245168
v -0.773402 0.324295 -0.248166
v -0.687190 0.297646 -0.249619
v -0.698665 0.331267 -0.257499
v -0.695681 0.326421 -0.253234
v -0.701650 0.331709 -0.255053
v -0.690525 0.298141 -0.246674
v -0.698857 0.326898 -0.250403
v -0.668440 0.328508 -0.286746
v -0.649316 0.294319 -0.287515
v -0.662598 0.323607 -0.286726
v -0.781950 0.328415 -0.289173
v -0.697131 0.329192 -0.254572
v -0.666750 0.326622 -0.283984
v -0.664595 0.326252 -0.289018
v -0.700286 0.329772 -0.252087
v -0.665295 0.326660 -0.286723
v -0.772096 0.327480 -0.249752
v -0.777995 0.327777 -0.256296
v -0.764842 0.327608 -0.246402
v -0.703835 0.329971 -0.250825
v -0.704986 0.335533 -0.323529
v -0.763578 0.333596 -0.328473
v -0.669200 0.328689 -0.293166
v -0.775840 0.332598 -0.320708
v -0.702323 0.331273 -0.328961
v -0.765609 0.329153 -0.333741
v -0.664345 0.323674 -0.294478
v -0.778858 0.327981 -0.323489
v -0.693903 0.303021 -0.335486
v -0.765279 0.300630 -0.340879
v -0.651070 0.294451 -0.296596
v -0.780222 0.299309 -0.329316
v -0.770466 0.332966 -0.326411
v -0.774482 0.299757 -0.336252
v -0.773217 0.328421 -0.330349
v -0.687006 0.301740 -0.331184
v -0.698524 0.334406 -0.320028
v -0.695520 0.330011 -0.324744
v -0.701499 0.335092 -0.322431
v -0.690328 0.302529 -0.334080
v -0.698684 0.330769 -0.327527
v -0.668430 0.328725 -0.291069
v -0.649303 0.294626 -0.293642
v -0.662587 0.323849 -0.291554
v -0.696977 0.332634 -0.323142
v -0.666727 0.327124 -0.293999
v -0.700121 0.333461 -0.325570
v -0.665285 0.326888 -0.291264
v -0.771919 0.331430 -0.328446
v -0.777848 0.331072 -0.321931
v -0.764649 0.331892 -0.331734
v -0.703664 0.333786 -0.326822
vn 0.0403 0.9979 0.0502
vn -0.0444 0.9978 0.0500
vn -0.0773 0.9425 0.3252
vn 0.0702 0.9547 0.2893
vn 0.2893 0.9383 0.1895
vn 0.3066 0.9213 0.2390
vn -0.2195 0.9266 0.3053
vn -0.4405 0.6722 0.5950
vn -0.1384 0.6933 0.7072
vn 0.5240 0.7017 0.4828
vn 0.5791 0.6850 0.4420
vn 0.1463 0.7245 0.6736
vn -0.3230 0.9299 0.1758
vn -0.3376 0.9401 0.0464
vn -0.7590 0.6504 0.0309
vn -0.6899 0.6536 0.3114
vn 0.3340 0.9414 0.0480
vn 0.3186 0.9357 0.1514
vn 0.6290 0.7380 0.2444
vn 0.6588 0.7513 0.0392
vn 0.2061 0.3964 0.8946
vn -0.2023 0.3439 0.9170
vn -0.1971 0.1360 0.9709
vn 0.2512 0.1953 0.9480
vn -0.5874 0.3115 0.7469
vn -0.6161 0.1114 0.7797
vn 0.8333 0.5520 0.0296
vn 0.7950 0.5008 0.3424
vn 0.8489 0.3758 0.3716
vn 0.9085 0.4173 0.0230
vn 0.7070 0.4193 0.5695
vn 0.6425 0.4222 0.6395
vn 0.6732 0.2860 0.6820
vn 0.7411 0.3191 0.5907
vn -0.8706 0.2834 0.4023
vn -0.9660 0.2584 0.0108
vn -0.9976 0.0692 0.0012
vn -0.9877 0.0614 0.1436
vn -0.7691 0.0994 0.6314
vn 0.2364 0.9431 0.2337
vn 0.3898 0.7369 0.5523
vn 0.4966 0.4338 0.7518
vn 0.5528 0.2629 0.7908
vn 0.0712 0.9788 -0.1919
vn -0.0761 0.9703 -0.2295
vn 0.3075 0.9406 -0.1441
vn 0.2899 0.9525 -0.0933
vn -0.2184 0.9526 -0.2120
vn -0.1354 0.7607 -0.6348
vn -0.4380 0.7286 -0.5267
vn 0.5810 0.7257 -0.3685
vn 0.5260 0.7464 -0.4077
vn 0.1491 0.7882 -0.5970
vn -0.3224 0.9429 -0.0833
vn -0.6886 0.6816 -0.2475
vn 0.6299 0.7586 -0.1664
vn 0.3191 0.9461 -0.0555
vn 0.2100 0.4840 -0.8495
vn 0.2554 0.2892 -0.9226
vn -0.1928 0.2326 -0.9533
vn -0.1982 0.4340 -0.8788
vn -0.6127 0.1891 -0.7674
vn -0.5841 0.3849 -0.7146
vn 0.8505 0.4109 -0.3283
vn 0.7964 0.5324 -0.2870
vn 0.7094 0.4741 -0.5215
vn 0.7437 0.3765 -0.5524
vn 0.6762 0.3527 -0.6469
vn 0.6453 0.4839 -0.5911
vn -0.8688 0.3224 -0.3758
vn -0.9871 0.0757 -0.1411
vn -0.7663 0.1623 -0.6217
vn 0.2373 0.9617 -0.1370
vn 0.4999 0.5068 -0.7023
vn 0.3921 0.7884 -0.4740
vn 0.5563 0.3407 -0.7580
vt 0.417507 0.403288
vt 0.395127 0.679375
vt 0.217633 0.660356
vt 0.251951 0.397015
vt 0.267708 0.366032
vt 0.410432 0.231429
vt 0.224487 0.692538
vt 0.212749 0.700076
vt 0.200158 0.663854
vt 0.251110 0.355446
vt 0.407013 0.216348
vt 0.234411 0.390651
vt 0.248495 0.719063
vt 0.389331 0.750876
vt 0.387730 0.770625
vt 0.241686 0.730164
vt 0.431683 0.228411
vt 0.421055 0.228704
vt 0.421652 0.210667
vt 0.433413 0.207076
vt 0.217900 0.382836
vt 0.182945 0.668198
vt 0.000088 0.735956
vt 0.079048 0.252124
vt 0.196795 0.710364
vt 0.037368 0.807623
vt 0.434838 0.189482
vt 0.421857 0.189711
vt 0.430525 0.000088
vt 0.450156 0.000519
vt 0.403204 0.193611
vt 0.238860 0.342024
vt 0.107725 0.205761
vt 0.408988 0.001458
vt 0.229625 0.743831
vt 0.386226 0.789178
vt 0.369144 0.999912
vt 0.079976 0.861649
vt 0.256562 0.380519
vt 0.240105 0.372946
vt 0.225423 0.361687
vt 0.091509 0.230029
vt 0.581913 0.423763
vt 0.573367 0.689192
vt 0.452171 0.234812
vt 0.571351 0.390646
vt 0.561419 0.719851
vt 0.590050 0.695460
vt 0.571790 0.729181
vt 0.457974 0.220479
vt 0.589438 0.382872
vt 0.600249 0.420306
vt 0.533452 0.742162
vt 0.538384 0.754215
vt 0.444442 0.212514
vt 0.442125 0.230412
vt 0.617802 0.415252
vt 0.775895 0.308611
vt 0.775895 0.798844
vt 0.606339 0.702520
vt 0.727558 0.863571
vt 0.585878 0.741903
vt 0.469600 0.003256
vt 0.447614 0.191799
vt 0.465395 0.198653
vt 0.490636 0.008077
vt 0.755060 0.258236
vt 0.603689 0.371598
vt 0.548087 0.769646
vt 0.676806 0.910029
vt 0.580019 0.406739
vt 0.613785 0.393168
vt 0.597480 0.401915
vt 0.767155 0.284798
s 1
f 1/1/1 2/2/2 4/3/3 3/4/4
f 1/1/1 25/5/5 6/6/6
f 4/3/3 2/2/2 21/7/7
f 4/3/3 21/7/7 39/8/8 41/9/9
f 6/6/6 25/5/5 34/10/10 35/11/11
f 3/4/4 4/3/3 41/9/9 42/12/12
f 8/13/13 7/14/14 33/15/15 40/16/16
f 5/17/17 30/18/18 38/19/19 36/20/20
f 9/21/21 10/22/22 16/23/23 15/24/24
f 10/22/22 23/25/25 22/26/26 16/23/23
f 11/27/27 32/28/28 31/29/29 17/30/30
f 12/31/31 26/32/32 24/33/33 18/34/34
f 14/35/35 13/36/36 19/37/37 20/38/38
f 22/26/26 23/25/25 14/35/35 20/38/39
f 23/25/25 39/8/8 40/16/16 14/35/35
f 25/5/5 1/1/1 27/39/40
f 26/32/32 34/10/10 37/40/41 29/41/42
f 24/33/33 26/32/32 29/41/42 28/42/43
f 27/39/40 1/1/1 3/4/4
f 29/41/42 37/40/41 42/12/12 9/21/21
f 28/42/43 29/41/42 9/21/21 15/24/24
f 21/7/7 2/2/2 8/13/13
f 8/13/13 2/2/2 7/14/14
f 32/28/28 38/19/19 35/11/11 12/31/31
f 30/18/18 5/17/17 1/1/1
f 31/29/29 32/28/28 12/31/31 18/34/34
f 6/6/6 30/18/18 1/1/1
f 36/20/20 38/19/19 32/28/28 11/27/27
f 40/16/16 39/8/8 21/7/7 8/13/13
f 35/11/11 34/10/10 26/32/32 12/31/31
f 35/11/11 38/19/19 30/18/18 6/6/6
f 42/12/12 41/9/9 10/22/22 9/21/21
f 42/12/12 37/40/41 27/39/40 3/4/4
f 37/40/41 34/10/10 25/5/5 27/39/40
f 40/16/16 33/15/15 13/36/36 14/35/35
f 41/9/9 39/8/8 23/25/25 10/22/22
f 1/1/1 43/43/44 44/44/45 2/2/2
f 1/1/1 45/45/46 59/46/47
f 44/44/45 55/47/48 2/2/2
f 44/44/45 73/48/49 71/49/50 55/47/48
f 45/45/46 68/50/51 67/51/52 59/46/47
f 43/43/44 74/52/53 73/48/49 44/44/45
f 46/53/54 72/54/55 33/15/15 7/14/14
f 5/17/17 36/20/20 70/55/56 64/56/57
f 47/57/58 51/58/59 52/59/60 48/60/61
f 48/60/61 52/59/60 56/61/62 57/62/63
f 11/27/27 17/30/30 65/63/64 66/64/65
f 49/65/66 53/66/67 58/67/68 60/68/69
f 50/69/70 54/70/71 19/37/37 13/36/36
f 56/61/62 54/70/72 50/69/70 57/62/63
f 57/62/63 50/69/70 72/54/55 71/49/50
f 59/46/47 61/71/73 1/1/1
f 60/68/69 63/72/74 69/73/75 67/51/52
f 58/67/68 62/74/76 63/72/74 60/68/69
f 61/71/73 43/43/44 1/1/1
f 63/72/74 47/57/58 74/52/53 69/73/75
f 62/74/76 51/58/59 47/57/58 63/72/74
f 55/47/48 46/53/54 2/2/2
f 46/53/54 7/14/14 2/2/2
f 66/64/65 49/65/66 68/50/51 70/55/56
f 64/56/57 1/1/1 5/17/17
f 65/63/64 53/66/67 49/65/66 66/64/65
f 45/45/46 1/1/1 64/56/57
f 36/20/20 11/27/27 66/64/65 70/55/56
f 72/54/55 46/53/54 55/47/48 71/49/50
f 68/50/51 49/65/66 60/68/69 67/51/52
f 68/50/51 45/45/46 64/56/57 70/55/56
f 74/52/53 47/57/58 48/60/61 73/48/49
f 74/52/53 43/43/44 61/71/73 69/73/75
f 69/73/75 61/71/73 59/46/47 67/51/52
f 72/54/55 50/69/70 13/36/36 33/15/15
f 73/48/49 48/60/61 57/62/63 71/49/50
