# Blender 4.1.0
# www.blender.org
o Extra
v 0.000001 0.296842 -0.223286
v 0.064175 0.296842 -0.223286
v 0.128325 0.296842 -0.223286
v 0.162117 0.296842 -0.223286
v 0.256142 0.296842 -0.223286
v 0.287054 0.298533 -0.231058
v 0.318363 0.300315 -0.250055
v 0.339858 0.302634 -0.279050
v 0.351699 0.305421 -0.338548
v 0.372727 0.305421 -0.331819
v 0.366712 0.307568 -0.414003
v 0.386923 0.307568 -0.410004
v 0.385508 0.307568 -0.501633
v 0.405719 0.307568 -0.497633
v 0.399153 0.299642 -0.564330
v 0.419364 0.299642 -0.560330
v 0.403402 0.293677 -0.583174
v 0.423613 0.293677 -0.579175
v 0.405023 0.286348 -0.592238
v 0.424683 0.281414 -0.591480
v 0.404064 0.275275 -0.602235
v 0.423844 0.265220 -0.605633
v 0.391874 0.253833 -0.621263
v 0.408878 0.239270 -0.622873
v 0.371387 0.233606 -0.632755
v 0.382745 0.214630 -0.633473
v 0.349946 0.225039 -0.641176
v 0.349946 0.200468 -0.641176
v 0.000001 0.225039 -0.653137
v 0.000001 0.200468 -0.653137
v 0.364350 0.301406 -0.274203
v 0.256142 0.297623 -0.196820
v 0.305547 0.298543 -0.209601
v 0.358980 0.299338 -0.259833
v 0.336773 0.298207 -0.232127
v 0.128325 0.294749 -0.196820
v 0.064175 0.294749 -0.196820
v 0.162117 0.295964 -0.196820
v 0.000001 0.294749 -0.196820
v 0.222184 0.200468 -0.650217
v 0.222183 0.225039 -0.650217
v -0.064173 0.296842 -0.223286
v -0.128322 0.296842 -0.223286
v -0.162115 0.296842 -0.223286
v -0.256139 0.296842 -0.223286
v -0.287052 0.298533 -0.231058
v -0.318361 0.300315 -0.250055
v -0.339855 0.302634 -0.279050
v -0.351696 0.305421 -0.338548
v -0.372725 0.305421 -0.331819
v -0.366710 0.307568 -0.414003
v -0.386921 0.307568 -0.410004
v -0.385506 0.307568 -0.501633
v -0.405717 0.307568 -0.497633
v -0.399150 0.299642 -0.564330
v -0.419362 0.299642 -0.560330
v -0.403399 0.293677 -0.583174
v -0.423611 0.293677 -0.579175
v -0.405021 0.286348 -0.592238
v -0.424680 0.281414 -0.591480
v -0.404062 0.275275 -0.602235
v -0.423842 0.265220 -0.605633
v -0.391872 0.253833 -0.621263
v -0.408876 0.239270 -0.622873
v -0.371385 0.233606 -0.632755
v -0.382742 0.214630 -0.633473
v -0.349944 0.225039 -0.641176
v -0.349944 0.200468 -0.641176
v -0.364347 0.301406 -0.274203
v -0.256139 0.297623 -0.196820
v -0.305544 0.298543 -0.209601
v -0.358977 0.299338 -0.259833
v -0.336770 0.298207 -0.232127
v -0.128322 0.294749 -0.196820
v -0.064173 0.294749 -0.196820
v -0.162115 0.295964 -0.196820
v -0.222181 0.200468 -0.650217
v -0.222180 0.225039 -0.650217
vn -0.0000 0.9969 0.0789
vn -0.0090 0.9977 0.0675
vn -0.0134 0.9995 0.0290
vn -0.0220 0.9998 -0.0011
vn -0.0167 0.9997 0.0168
vn 0.0268 0.9971 0.0708
vn 0.0271 0.9956 0.0895
vn 0.0017 0.9991 0.0421
vn 0.0032 0.9990 0.0449
vn -0.0035 0.9999 0.0134
vn -0.0035 0.9999 0.0133
vn 0.0118 0.9982 -0.0596
vn 0.0120 0.9981 -0.0609
vn 0.0405 0.9780 -0.2046
vn 0.0409 0.9775 -0.2068
vn 0.1160 0.8677 -0.4834
vn 0.1151 0.8694 -0.4806
vn 0.1811 0.6965 -0.6944
vn 0.1838 0.6865 -0.7036
vn 0.2092 0.5857 -0.7831
vn 0.2137 0.5660 -0.7962
vn 0.2217 0.3856 -0.8956
vn 0.2212 0.3747 -0.9004
vn 0.2326 0.1663 -0.9582
vn 0.2339 0.1613 -0.9588
vn 0.1716 0.0453 -0.9841
vn 0.1490 0.0351 -0.9882
vn -0.0000 -0.0000 -1.0000
vn 0.0157 0.9945 0.1035
vn -0.0200 0.9998 -0.0006
vn -0.0089 0.9996 0.0261
vn 0.0363 0.9923 0.1181
vn 0.0279 0.9970 0.0722
vn 0.0419 -0.0000 -0.9991
vn 0.0090 0.9977 0.0675
vn 0.0134 0.9995 0.0290
vn 0.0220 0.9998 -0.0011
vn 0.0167 0.9997 0.0168
vn -0.0268 0.9971 0.0708
vn -0.0271 0.9956 0.0895
vn -0.0017 0.9991 0.0421
vn -0.0032 0.9990 0.0449
vn 0.0035 0.9999 0.0134
vn 0.0035 0.9999 0.0133
vn -0.0118 0.9982 -0.0596
vn -0.0120 0.9981 -0.0609
vn -0.0405 0.9780 -0.2046
vn -0.0409 0.9775 -0.2068
vn -0.1160 0.8677 -0.4834
vn -0.1151 0.8694 -0.4806
vn -0.1811 0.6965 -0.6944
vn -0.1838 0.6865 -0.7036
vn -0.2092 0.5857 -0.7831
vn -0.2137 0.5660 -0.7962
vn -0.2217 0.3856 -0.8956
vn -0.2212 0.3747 -0.9004
vn -0.2326 0.1663 -0.9582
vn -0.2339 0.1613 -0.9588
vn -0.1716 0.0453 -0.9841
vn -0.1490 0.0351 -0.9882
vn -0.0157 0.9945 0.1035
vn 0.0200 0.9998 -0.0006
vn 0.0089 0.9996 0.0261
vn -0.0363 0.9923 0.1181
vn -0.0279 0.9970 0.0722
vn -0.0419 -0.0000 -0.9991
vt 0.412887 0.750332
vt 0.413235 0.780846
vt 0.339760 0.781716
vt 0.339381 0.751227
vt 0.301066 0.782092
vt 0.300695 0.751700
vt 0.157671 0.744526
vt 0.136813 0.769384
vt 0.100723 0.744075
vt 0.121549 0.723104
vt 0.074865 0.712630
vt 0.096506 0.690039
vt 0.068543 0.696039
vt 0.058129 0.629885
vt 0.082114 0.621863
vt 0.040732 0.540220
vt 0.063890 0.535366
vt 0.018149 0.439426
vt 0.041504 0.434870
vt 0.003329 0.365617
vt 0.027052 0.362651
vt 0.000574 0.341527
vt 0.023835 0.340722
vt 0.001944 0.320768
vt 0.024086 0.327541
vt 0.007088 0.295922
vt 0.028190 0.311010
vt 0.029747 0.263158
vt 0.047214 0.281409
vt 0.062545 0.236605
vt 0.074668 0.259017
vt 0.100724 0.220347
vt 0.101068 0.248445
vt 0.246734 0.216604
vt 0.247072 0.244496
vt 0.193486 0.783396
vt 0.193159 0.753036
vt 0.486816 0.780104
vt 0.486561 0.749495
vt 0.498688 0.217789
vt 0.498305 0.245828
vt 0.560656 0.748982
vt 0.634654 0.749921
vt 0.634196 0.780427
vt 0.560608 0.779668
vt 0.673464 0.750596
vt 0.672875 0.781018
vt 0.817273 0.745163
vt 0.854190 0.724609
vt 0.874368 0.746390
vt 0.837532 0.770592
vt 0.880739 0.692288
vt 0.901458 0.715974
vt 0.899330 0.624533
vt 0.922882 0.633955
vt 0.908569 0.699711
vt 0.922447 0.538938
vt 0.945377 0.545052
vt 0.950040 0.438170
vt 0.973489 0.444598
vt 0.971785 0.365431
vt 0.995680 0.370855
vt 0.978133 0.344882
vt 1.000423 0.346303
vt 0.977445 0.332255
vt 0.999182 0.325585
vt 0.972869 0.316022
vt 0.994058 0.300989
vt 0.954405 0.286431
vt 0.971783 0.268022
vt 0.926141 0.264004
vt 0.938234 0.241273
vt 0.899567 0.253581
vt 0.899597 0.225313
vt 0.752246 0.251564
vt 0.752742 0.223442
vt 0.780557 0.783395
vt 0.781409 0.752982
s 1
f 2/1/1 37/2/1 36/3/2 3/4/2
f 3/4/2 36/3/2 38/5/3 4/6/3
f 6/7/5 33/8/31 35/9/33 7/10/6
f 7/10/6 35/9/33 34/11/32 8/12/7
f 8/12/7 31/13/29 10/14/9 9/15/8
f 9/15/8 10/14/9 12/16/11 11/17/10
f 11/17/10 12/16/11 14/18/13 13/19/12
f 13/19/12 14/18/13 16/20/15 15/21/14
f 15/21/14 16/20/15 18/22/17 17/23/16
f 17/23/16 18/22/17 20/24/19 19/25/18
f 19/25/18 20/24/19 22/26/21 21/27/20
f 21/27/20 22/26/21 24/28/23 23/29/22
f 23/29/22 24/28/23 26/30/25 25/31/24
f 25/31/24 26/30/25 28/32/27 27/33/26
f 27/33/26 28/32/27 40/34/34 41/35/34
f 32/36/30 33/8/31 6/7/5 5/37/4
f 38/5/3 32/36/30 5/37/4 4/6/3
f 39/38/1 37/2/1 2/1/1 1/39/1
f 41/35/34 40/34/34 30/40/28 29/41/28
f 8/12/7 34/11/32 31/13/29
f 42/42/1 43/43/35 74/44/35 75/45/1
f 43/43/35 44/46/36 76/47/36 74/44/35
f 46/48/38 47/49/39 73/50/65 71/51/63
f 47/49/39 48/52/40 72/53/64 73/50/65
f 48/52/40 49/54/41 50/55/42 69/56/61
f 49/54/41 51/57/43 52/58/44 50/55/42
f 51/57/43 53/59/45 54/60/46 52/58/44
f 53/59/45 55/61/47 56/62/48 54/60/46
f 55/61/47 57/63/49 58/64/50 56/62/48
f 57/63/49 59/65/51 60/66/52 58/64/50
f 59/65/51 61/67/53 62/68/54 60/66/52
f 61/67/53 63/69/55 64/70/56 62/68/54
f 63/69/55 65/71/57 66/72/58 64/70/56
f 65/71/57 67/73/59 68/74/60 66/72/58
f 67/73/59 78/75/66 77/76/66 68/74/60
f 70/77/62 45/78/37 46/48/38 71/51/63
f 76/47/36 44/46/36 45/78/37 70/77/62
f 39/38/1 1/39/1 42/42/1 75/45/1
f 78/75/66 29/41/28 30/40/28 77/76/66
f 48/52/40 69/56/61 72/53/64
