# Blender 4.1.0
# www.blender.org
o Home_Button
v -0.058307 0.262013 -0.006396
v -0.058268 0.274195 -0.003417
v -0.053801 0.267368 -0.028351
v -0.053762 0.279550 -0.025372
v -0.040991 0.271879 -0.046967
v -0.040952 0.284061 -0.043988
v -0.021825 0.274860 -0.059408
v -0.021787 0.287042 -0.056429
v 0.000777 0.275858 -0.063782
v 0.000816 0.288040 -0.060803
v 0.023375 0.274720 -0.059422
v 0.023414 0.286902 -0.056443
v 0.042529 0.271619 -0.046992
v 0.042568 0.283801 -0.044013
v 0.055323 0.267028 -0.028385
v 0.055362 0.279211 -0.025406
v 0.059808 0.261646 -0.006432
v 0.059847 0.273828 -0.003453
v 0.055303 0.256292 0.015523
v 0.055342 0.268474 0.018502
v 0.042492 0.251781 0.034138
v 0.042531 0.263963 0.037117
v 0.023327 0.248799 0.046579
v 0.023366 0.260981 0.049558
v 0.000725 0.247802 0.050953
v 0.000763 0.259984 0.053932
v -0.021874 0.248940 0.046593
v -0.021835 0.261122 0.049572
v -0.041028 0.252040 0.034163
v -0.040989 0.264222 0.037142
v -0.053821 0.256631 0.015556
v -0.053782 0.268813 0.018535
v -0.052048 0.282129 -0.024013
v -0.056412 0.276942 -0.002745
v -0.039638 0.286499 -0.042046
v -0.021072 0.289388 -0.054099
v 0.000824 0.290354 -0.058336
v 0.022715 0.289251 -0.054112
v 0.041270 0.286248 -0.042071
v 0.053664 0.281801 -0.024046
v 0.058009 0.276587 -0.002780
v 0.053644 0.271400 0.018489
v 0.041235 0.267030 0.036522
v 0.022669 0.264142 0.048574
v 0.000773 0.263175 0.052811
v -0.021119 0.264278 0.048588
v -0.039674 0.267281 0.036546
v -0.052067 0.271728 0.018521
v -0.048628 0.284095 -0.022075
v -0.052710 0.279243 -0.002181
v -0.037019 0.288183 -0.038944
v -0.019652 0.290885 -0.050218
v 0.000829 0.291789 -0.054181
v 0.021307 0.290758 -0.050230
v 0.038664 0.287948 -0.038967
v 0.050257 0.283788 -0.022106
v 0.054322 0.278911 -0.002213
v 0.050239 0.274059 0.017682
v 0.038630 0.269971 0.034550
v 0.021264 0.267269 0.045824
v 0.000782 0.266365 0.049788
v -0.019696 0.267397 0.045837
v -0.037052 0.270206 0.034573
v -0.048646 0.274366 0.017712
v -0.039258 0.285678 -0.017692
v -0.042568 0.281745 -0.001564
v -0.029848 0.288992 -0.031366
v -0.015770 0.291182 -0.040505
v 0.000833 0.291915 -0.043717
v 0.017433 0.291079 -0.040515
v 0.031503 0.288801 -0.031384
v 0.040900 0.285429 -0.017716
v 0.044195 0.281475 -0.001591
v 0.040886 0.277542 0.014537
v 0.031475 0.274228 0.028211
v 0.017397 0.272038 0.037350
v 0.000795 0.271306 0.040563
v -0.015805 0.272142 0.037360
v -0.029875 0.274419 0.028229
v -0.039273 0.277791 0.014561
v -0.025099 0.285756 -0.011629
v -0.027239 0.283212 -0.001199
v -0.019013 0.287899 -0.020473
v -0.009907 0.289315 -0.026384
v 0.000831 0.289789 -0.028462
v 0.011567 0.289249 -0.026391
v 0.020667 0.287776 -0.020485
v 0.026745 0.285595 -0.011645
v 0.028877 0.283037 -0.001216
v 0.026736 0.280494 0.009215
v 0.020650 0.278350 0.018059
v 0.011544 0.276934 0.023970
v 0.000806 0.276460 0.026048
v -0.009930 0.277001 0.023977
v -0.019030 0.278474 0.018071
v -0.025108 0.280655 0.009231
v 0.000821 0.283957 -0.001004
vn -1.0000 0.0031 0.0003
vn -0.9237 0.0938 -0.3715
vn -0.7068 0.1702 -0.6867
vn -0.3823 0.2206 -0.8973
vn 0.0004 0.2375 -0.9714
vn 0.3831 0.2183 -0.8976
vn 0.7074 0.1658 -0.6871
vn 0.9240 0.0880 -0.3720
vn 1.0000 -0.0031 -0.0003
vn 0.9237 -0.0938 0.3714
vn 0.7068 -0.1702 0.6867
vn 0.3823 -0.2206 0.8973
vn -0.0004 -0.2375 0.9714
vn -0.3831 -0.2183 0.8976
vn -0.7074 -0.1658 0.6871
vn -0.3186 0.7152 -0.6221
vn -0.5904 0.6729 -0.4456
vn -0.5052 0.7984 -0.3276
vn -0.2723 0.8346 -0.4788
vn -0.9240 -0.0880 0.3720
vn 0.2772 0.8329 -0.4790
vn 0.0025 0.8468 -0.5320
vn 0.0030 0.9819 -0.1892
vn 0.1626 0.9739 -0.1584
vn 0.8395 0.5278 0.1294
vn 0.7758 0.6041 -0.1820
vn 0.6655 0.7394 -0.1017
vn 0.7200 0.6740 0.1651
vn -0.7722 0.6089 -0.1815
vn -0.8361 0.5330 0.1300
vn -0.7157 0.6785 0.1656
vn -0.6610 0.7436 -0.1013
vn -0.3193 0.3475 0.8816
vn 0.0013 0.3314 0.9435
vn 0.0018 0.5057 0.8627
vn -0.2729 0.5196 0.8097
vn 0.5943 0.6693 -0.4459
vn 0.3226 0.7132 -0.6223
vn 0.5100 0.7952 -0.3279
vn 0.3220 0.3455 0.8815
vn 0.5938 0.3878 0.7050
vn 0.5095 0.5541 0.6583
vn 0.2766 0.5178 0.8095
vn -0.7725 0.4566 0.4414
vn -0.6612 0.6130 0.4324
vn 0.0021 0.7294 -0.6841
vn 0.7756 0.4518 0.4409
vn 0.6653 0.6089 0.4320
vn -0.5910 0.3915 0.7053
vn -0.5057 0.5572 0.6586
vn 0.2976 0.8119 0.5022
vn 0.3880 0.8438 0.3708
vn 0.1737 0.9373 0.3021
vn 0.1336 0.9232 0.3603
vn 0.0026 0.7838 0.6210
vn -0.1569 0.7919 0.5902
vn 0.2978 0.9520 -0.0706
vn -0.2922 0.8138 0.5024
vn 0.3881 0.9196 0.0608
vn -0.3825 0.8462 0.3710
vn 0.4198 0.8816 0.2158
vn -0.4142 0.8842 0.2160
vn -0.3824 0.9220 0.0610
vn -0.2919 0.9538 -0.0705
vn -0.1566 0.9749 -0.1583
vn 0.1622 0.7909 0.5901
vn -0.1677 0.9384 0.3022
vn -0.1277 0.9240 0.3604
vn -0.0467 0.9573 0.2853
vn -0.0619 0.9628 0.2631
vn -0.1276 0.9861 0.1066
vn -0.0676 0.9954 0.0676
vn 0.0737 0.9139 0.3992
vn 0.0031 0.9985 0.0540
vn 0.0030 0.9108 0.4129
vn 0.0738 0.9950 0.0676
vn -0.0677 0.9143 0.3993
vn 0.1337 0.9853 0.1065
vn 0.1738 0.9709 0.1647
vn 0.1878 0.9541 0.2334
vn -0.1817 0.9552 0.2335
vn -0.1676 0.9720 0.1648
vn -0.0239 0.9536 0.3001
vn 0.0031 0.9523 0.3053
vn 0.0031 0.9714 0.2375
vn 0.0681 0.9752 0.2108
vn 0.0734 0.9688 0.2369
vn -0.0672 0.9692 0.2370
vn -0.0619 0.9756 0.2108
vn 0.0680 0.9624 0.2631
vn -0.0466 0.9809 0.1887
vn 0.0528 0.9570 0.2852
vn -0.0238 0.9845 0.1738
vn 0.0300 0.9535 0.3000
vn 0.0031 0.9857 0.1686
vn 0.0300 0.9843 0.1738
vn 0.0528 0.9806 0.1886
vt 0.066261 0.230732
vt 0.153238 0.282207
vt 0.095784 0.432551
vt 0.000799 0.416305
vt 0.101660 0.592113
vt 0.000100 0.615369
vt 0.166122 0.738152
vt 0.087176 0.794424
vt 0.283157 0.846693
vt 0.227959 0.934956
vt 0.431786 0.904392
vt 0.415727 0.999793
vt 0.591025 0.898578
vt 0.614066 0.999900
vt 0.737011 0.835148
vt 0.792823 0.913874
vt 0.845235 0.718700
vt 0.932957 0.773796
vt 0.903423 0.571110
vt 0.997587 0.586978
vt 0.899083 0.411804
vt 0.996793 0.392240
vt 0.834614 0.266864
vt 0.920425 0.206527
vt 0.720561 0.155570
vt 0.771633 0.074298
vt 0.571392 0.097597
vt 0.590849 0.000100
vt 0.411009 0.100308
vt 0.391331 0.000100
vt 0.124949 0.586744
vt 0.185849 0.724269
vt 0.263974 0.165729
vt 0.201734 0.077789
vt 0.435784 0.880697
vt 0.295903 0.826606
vt 0.311744 0.801505
vt 0.440875 0.851203
vt 0.723103 0.815495
vt 0.825249 0.706092
vt 0.173502 0.295294
vt 0.119571 0.436452
vt 0.707511 0.175734
vt 0.567368 0.121216
vt 0.585622 0.875439
vt 0.875770 0.417172
vt 0.814990 0.280319
vt 0.277902 0.185484
vt 0.879813 0.567062
vt 0.416458 0.123836
vt 0.846780 0.423785
vt 0.850433 0.561781
vt 0.782067 0.549762
vt 0.779235 0.438660
vt 0.691266 0.200965
vt 0.562032 0.150630
vt 0.579080 0.846592
vt 0.422924 0.153215
vt 0.705716 0.791106
vt 0.295150 0.210147
vt 0.800185 0.690280
vt 0.198825 0.311371
vt 0.149230 0.441249
vt 0.154046 0.580046
vt 0.210385 0.706932
vt 0.790703 0.297384
vt 0.335382 0.267142
vt 0.438000 0.221422
vt 0.460095 0.320815
vt 0.394019 0.350217
vt 0.221567 0.564737
vt 0.267171 0.666526
vt 0.734096 0.336783
vt 0.348419 0.742930
vt 0.653795 0.259609
vt 0.452467 0.782704
vt 0.549964 0.219134
vt 0.563629 0.779452
vt 0.665423 0.734413
vt 0.741892 0.653502
vt 0.257954 0.348441
vt 0.218083 0.453007
vt 0.532287 0.319197
vt 0.599415 0.345233
vt 0.500582 0.501163
vt 0.606954 0.651729
vt 0.656449 0.599602
vt 0.344178 0.402589
vt 0.318418 0.470021
vt 0.682287 0.532546
vt 0.320430 0.542084
vt 0.680509 0.460735
vt 0.349892 0.607819
vt 0.651427 0.394943
vt 0.402237 0.657222
vt 0.469423 0.682918
vt 0.541285 0.680931
s 1
f 1/1/1 2/2/1 4/3/2 3/4/2
f 3/4/2 4/3/2 6/5/3 5/6/3
f 5/6/3 6/5/3 8/7/4 7/8/4
f 7/8/4 8/7/4 10/9/5 9/10/5
f 9/10/5 10/9/5 12/11/6 11/12/6
f 11/12/6 12/11/6 14/13/7 13/14/7
f 13/14/7 14/13/7 16/15/8 15/16/8
f 15/16/8 16/15/8 18/17/9 17/18/9
f 17/18/9 18/17/9 20/19/10 19/20/10
f 19/20/10 20/19/10 22/21/11 21/22/11
f 21/22/11 22/21/11 24/23/12 23/24/12
f 23/24/12 24/23/12 26/25/13 25/26/13
f 25/26/13 26/25/13 28/27/14 27/28/14
f 27/28/14 28/27/14 30/29/15 29/30/15
f 8/7/16 6/5/17 35/31/18 36/32/19
f 29/30/15 30/29/15 32/33/20 31/34/20
f 31/34/20 32/33/20 2/2/1 1/1/1
f 38/35/21 37/36/22 53/37/23 54/38/24
f 18/17/25 16/15/26 40/39/27 41/40/28
f 4/3/29 2/2/30 34/41/31 33/42/32
f 28/27/33 26/25/34 45/43/35 46/44/36
f 14/13/37 12/11/38 38/35/21 39/45/39
f 24/23/40 22/21/41 43/46/42 44/47/43
f 2/2/30 32/33/44 48/48/45 34/41/31
f 10/9/46 8/7/16 36/32/19 37/36/22
f 20/19/47 18/17/25 41/40/28 42/49/48
f 30/29/49 28/27/33 46/44/36 47/50/50
f 6/5/17 4/3/29 33/42/32 35/31/18
f 16/15/26 14/13/37 39/45/39 40/39/27
f 26/25/34 24/23/40 44/47/43 45/43/35
f 12/11/38 10/9/46 37/36/22 38/35/21
f 22/21/41 20/19/47 42/49/48 43/46/42
f 32/33/44 30/29/49 47/50/50 48/48/45
f 59/51/51 58/52/52 74/53/53 75/54/54
f 46/44/36 45/43/35 61/55/55 62/56/56
f 39/45/39 38/35/21 54/38/24 55/57/57
f 47/50/50 46/44/36 62/56/56 63/58/58
f 40/39/27 39/45/39 55/57/57 56/59/59
f 48/48/45 47/50/50 63/58/58 64/60/60
f 41/40/28 40/39/27 56/59/59 57/61/61
f 33/42/32 34/41/31 50/62/62 49/63/63
f 34/41/31 48/48/45 64/60/60 50/62/62
f 42/49/48 41/40/28 57/61/61 58/52/52
f 35/31/18 33/42/32 49/63/63 51/64/64
f 43/46/42 42/49/48 58/52/52 59/51/51
f 36/32/19 35/31/18 51/64/64 52/65/65
f 44/47/43 43/46/42 59/51/51 60/66/66
f 37/36/22 36/32/19 52/65/65 53/37/23
f 45/43/35 44/47/43 60/66/66 61/55/55
f 80/67/67 79/68/68 95/69/69 96/70/70
f 52/65/65 51/64/64 67/71/71 68/72/72
f 60/66/66 59/51/51 75/54/54 76/73/73
f 53/37/23 52/65/65 68/72/72 69/74/74
f 61/55/55 60/66/66 76/73/73 77/75/75
f 54/38/24 53/37/23 69/74/74 70/76/76
f 62/56/56 61/55/55 77/75/75 78/77/77
f 55/57/57 54/38/24 70/76/76 71/78/78
f 63/58/58 62/56/56 78/77/77 79/68/68
f 56/59/59 55/57/57 71/78/78 72/79/79
f 64/60/60 63/58/58 79/68/68 80/67/67
f 57/61/61 56/59/59 72/79/79 73/80/80
f 49/63/63 50/62/62 66/81/81 65/82/82
f 50/62/62 64/60/60 80/67/67 66/81/81
f 58/52/52 57/61/61 73/80/80 74/53/53
f 51/64/64 49/63/63 65/82/82 67/71/71
f 94/83/83 93/84/84 97/85/85
f 73/80/80 72/79/79 88/86/86 89/87/87
f 65/82/82 66/81/81 82/88/88 81/89/89
f 66/81/81 80/67/67 96/70/70 82/88/88
f 74/53/53 73/80/80 89/87/87 90/90/90
f 67/71/71 65/82/82 81/89/89 83/91/91
f 75/54/54 74/53/53 90/90/90 91/92/92
f 68/72/72 67/71/71 83/91/91 84/93/93
f 76/73/73 75/54/54 91/92/92 92/94/94
f 69/74/74 68/72/72 84/93/93 85/95/95
f 77/75/75 76/73/73 92/94/94 93/84/84
f 70/76/76 69/74/74 85/95/95 86/96/96
f 78/77/77 77/75/75 93/84/84 94/83/83
f 71/78/78 70/76/76 86/96/96 87/97/97
f 79/68/68 78/77/77 94/83/83 95/69/69
f 72/79/79 71/78/78 87/97/97 88/86/86
f 87/97/97 86/96/96 97/85/85
f 95/69/69 94/83/83 97/85/85
f 88/86/86 87/97/97 97/85/85
f 96/70/70 95/69/69 97/85/85
f 89/87/87 88/86/86 97/85/85
f 81/89/89 82/88/88 97/85/85
f 82/88/88 96/70/70 97/85/85
f 90/90/90 89/87/87 97/85/85
f 83/91/91 81/89/89 97/85/85
f 91/92/92 90/90/90 97/85/85
f 84/93/93 83/91/91 97/85/85
f 92/94/94 91/92/92 97/85/85
f 85/95/95 84/93/93 97/85/85
f 93/84/84 92/94/94 97/85/85
f 86/96/96 85/95/95 97/85/85
