# Blender 4.1.0
# www.blender.org
o Left_Bumper
v 0.132274 -0.166763 0.084605
v 0.135640 -0.244648 0.100216
v -0.139710 -0.244648 0.136996
v -0.145533 -0.208195 0.128161
v -0.148741 -0.170601 0.124976
v -0.149801 -0.131665 0.123151
v -0.145171 -0.103767 0.121333
v 0.108049 -0.044236 0.084154
v 0.090454 -0.027980 0.088440
v 0.073105 -0.022070 0.091144
v -0.000832 -0.019872 0.098234
v -0.054482 -0.022986 0.104524
v -0.088225 -0.033042 0.111245
v -0.115858 -0.053768 0.115858
v -0.132883 -0.075480 0.119076
v 0.121071 -0.073378 0.079674
v 0.128144 -0.107589 0.079793
v 0.120550 -0.210450 -0.014469
v 0.122817 -0.244648 0.014608
v -0.137089 -0.244648 0.068455
v -0.138753 -0.208990 0.026885
v -0.142495 -0.170876 0.022182
v -0.143307 -0.129132 0.023638
v -0.135734 -0.101944 0.022162
v 0.095969 -0.055868 -0.021513
v 0.074790 -0.043077 -0.017788
v 0.050074 -0.036531 -0.012984
v 0.002012 -0.035098 -0.004336
v -0.044715 -0.036117 0.006989
v -0.081515 -0.046103 0.014168
v -0.102697 -0.058509 0.017397
v -0.119101 -0.073657 0.021141
v 0.111634 -0.077463 -0.022705
v 0.118314 -0.112409 -0.025262
v 0.119570 -0.175249 -0.026374
v 0.118422 -0.208425 -0.021610
v 0.119934 -0.244648 0.011054
v -0.133063 -0.244648 0.059003
v -0.134875 -0.205056 0.019511
v -0.139095 -0.172165 0.017283
v -0.140276 -0.130665 0.019019
v -0.132867 -0.103276 0.017285
v 0.094210 -0.058157 -0.026302
v 0.073706 -0.045100 -0.022089
v 0.049873 -0.038078 -0.016605
v 0.002366 -0.036790 -0.008251
v -0.044525 -0.037454 0.003123
v -0.081414 -0.047907 0.009317
v -0.101019 -0.060204 0.013228
v -0.117337 -0.075528 0.016508
v 0.109884 -0.078814 -0.027412
v 0.116390 -0.112788 -0.030935
v 0.116393 -0.175825 -0.029997
v 0.114962 -0.208623 -0.024947
v 0.115344 -0.244648 0.007894
v -0.128524 -0.244648 0.054496
v -0.131391 -0.204764 0.016691
v -0.135383 -0.172838 0.014178
v -0.136376 -0.132390 0.015307
v -0.128424 -0.105144 0.013987
v 0.090965 -0.062179 -0.028854
v 0.072283 -0.049249 -0.024910
v 0.050215 -0.041931 -0.020531
v 0.002734 -0.040976 -0.012563
v -0.043813 -0.040874 -0.001705
v -0.080048 -0.051507 0.005380
v -0.099399 -0.064100 0.009378
v -0.114246 -0.078192 0.012298
v 0.106903 -0.081749 -0.031602
v 0.112266 -0.113950 -0.033631
v 0.113447 -0.175682 -0.030219
v 0.091582 -0.207682 -0.030579
v 0.089463 -0.244648 0.004385
v -0.091303 -0.244648 0.036212
v -0.106057 -0.205295 0.001523
v -0.109167 -0.172297 -0.001909
v -0.108109 -0.134624 -0.000565
v -0.104813 -0.113288 0.000629
v 0.073379 -0.088379 -0.033650
v 0.063526 -0.080438 -0.032352
v 0.042809 -0.073152 -0.029825
v 0.000616 -0.072919 -0.024030
v -0.042637 -0.074239 -0.014584
v -0.072493 -0.079944 -0.005933
v -0.086976 -0.086995 -0.002030
v -0.097295 -0.096510 0.000152
v 0.086263 -0.102310 -0.035203
v 0.089132 -0.119816 -0.036511
v 0.089091 -0.173909 -0.036218
v -0.130785 -0.213281 0.021505
v -0.135172 -0.212852 0.023104
v -0.104209 -0.214003 0.006868
v 0.118477 -0.214569 -0.017799
v 0.090733 -0.215626 -0.024963
v 0.114478 -0.215656 -0.020247
v 0.059670 -0.205252 -0.034517
v 0.063799 -0.244648 0.001538
v -0.054966 -0.244648 0.021859
v -0.059613 -0.205085 -0.018089
v -0.062079 -0.171570 -0.022326
v -0.059450 -0.119490 -0.019152
v 0.055780 -0.117298 -0.037542
v -0.001539 -0.117719 -0.033342
v 0.059705 -0.172687 -0.038911
v -0.059621 -0.215052 -0.010147
v 0.060310 -0.213875 -0.029231
v 0.000244 -0.244648 0.006888
v -0.001151 -0.213826 -0.025027
v -0.000891 -0.204240 -0.031331
v -0.002068 -0.170366 -0.037336
vn -0.9910 -0.1210 -0.0581
vn -0.9961 -0.0620 -0.0630
vn -0.9436 -0.0633 -0.3251
vn -0.9214 -0.2306 -0.3127
vn -0.4541 0.8795 -0.1425
vn -0.1996 0.9684 -0.1497
vn -0.1919 0.9499 -0.2467
vn -0.4268 0.8680 -0.2539
vn -0.9937 0.0882 -0.0685
vn -0.9439 0.1063 -0.3128
vn -0.6738 0.7288 -0.1216
vn -0.6343 0.7164 -0.2906
vn -0.8324 0.5443 -0.1042
vn -0.7810 0.5494 -0.2969
vn 0.7114 0.6849 -0.1574
vn 0.9258 0.3601 -0.1149
vn 0.8865 0.3784 -0.2663
vn 0.6525 0.6842 -0.3257
vn 0.1366 0.9771 -0.1634
vn 0.4032 0.8971 -0.1806
vn 0.3516 0.8788 -0.3227
vn 0.0898 0.9537 -0.2869
vn 0.9875 0.1190 -0.1029
vn 0.9572 0.1157 -0.2654
vn 0.9929 0.0173 -0.1173
vn 0.9503 -0.0167 -0.3109
vn -0.9422 0.3241 -0.0848
vn -0.8887 0.3317 -0.3165
vn -0.0307 0.9891 -0.1438
vn -0.0518 0.9628 -0.2651
vn -0.9886 -0.1404 -0.0541
vn -0.9666 -0.2208 -0.1299
vn 0.9506 -0.1289 -0.2823
vn 0.7265 -0.4223 -0.5421
vn 0.8996 -0.1232 -0.4190
vn -0.2247 0.8383 -0.4967
vn -0.4203 0.7419 -0.5225
vn -0.6491 -0.4764 -0.5931
vn -0.7261 -0.5319 -0.4358
vn -0.5605 0.6001 -0.5707
vn -0.7516 -0.0701 -0.6559
vn -0.6833 -0.2423 -0.6888
vn -0.6533 0.4453 -0.6123
vn -0.7432 0.0818 -0.6641
vn 0.8833 -0.0430 -0.4668
vn 0.7467 0.0995 -0.6577
vn 0.7088 0.3572 -0.6083
vn 0.4430 0.5837 -0.6805
vn 0.1951 0.7343 -0.6501
vn 0.0138 0.8183 -0.5746
vn -0.7053 0.2609 -0.6592
vn -0.1037 0.8383 -0.5352
vn -0.5745 0.0632 -0.8160
vn -0.5830 -0.0621 -0.8101
vn 0.3487 0.2197 -0.9111
vn 0.1628 0.3360 -0.9277
vn 0.0320 0.4226 -0.9058
vn -0.0589 0.5128 -0.8565
vn 0.3313 0.0501 -0.9422
vn -0.5086 0.2974 -0.8080
vn -0.5334 0.1756 -0.8274
vn -0.1558 0.5452 -0.8237
vn -0.2466 0.5620 -0.7896
vn 0.5560 -0.3308 -0.7625
vn 0.3440 -0.5968 -0.7249
vn 0.3704 -0.3412 -0.8639
vn -0.3722 0.4793 -0.7948
vn -0.4148 -0.5879 -0.6945
vn -0.3969 -0.6897 -0.6056
vn 0.4370 -0.0950 -0.8944
vn 0.3207 -0.0904 -0.9429
vn -0.4612 0.3785 -0.8026
vn -0.5204 -0.2996 -0.7997
vn -0.4230 0.1336 -0.8962
vn -0.4395 0.0739 -0.8952
vn -0.1700 0.2622 -0.9499
vn -0.2552 0.2677 -0.9291
vn 0.1056 -0.6346 -0.7656
vn 0.1469 -0.3607 -0.9211
vn -0.3261 0.2471 -0.9125
vn -0.3392 -0.6291 -0.6994
vn -0.2938 -0.7173 -0.6319
vn 0.1410 -0.0766 -0.9870
vn 0.1006 0.0312 -0.9944
vn -0.3656 0.2169 -0.9051
vn -0.4520 -0.0455 -0.8909
vn -0.4222 -0.3441 -0.8386
vn -0.3979 0.1824 -0.8991
vn 0.0518 0.1079 -0.9928
vn 0.0028 0.1594 -0.9872
vn -0.0419 0.2003 -0.9788
vn -0.0954 0.2420 -0.9656
vn 0.3395 -0.6515 -0.6785
vn 0.0928 -0.7029 -0.7052
vn 0.7470 -0.4307 -0.5064
vn 0.9914 -0.0025 -0.1312
vn 0.9691 -0.1040 -0.2236
vn -0.3059 0.1292 -0.9433
vn 0.0175 -0.3478 -0.9374
vn 0.0179 -0.0609 -0.9980
vn -0.3146 -0.0405 -0.9484
vn -0.2808 -0.3685 -0.8862
vn -0.0206 0.0892 -0.9958
vn 0.0076 -0.6273 -0.7788
vn -0.1552 0.1238 -0.9801
vn -0.2331 -0.6526 -0.7209
vn -0.2162 -0.7257 -0.6532
vn 0.0102 -0.7113 -0.7028
vn -0.1142 -0.7209 -0.6836
vn -0.1162 -0.6404 -0.7592
vn -0.1276 -0.3602 -0.9241
vn -0.1413 -0.0462 -0.9889
vn -0.0000 -1.0000 -0.0000
vt 0.118657 0.922029
vt 0.235212 0.974040
vt 0.314992 0.724750
vt 0.249203 0.707231
vt 0.735325 0.835527
vt 0.801328 0.729574
vt 0.583394 0.576798
vt 0.558237 0.647359
vt 0.366966 0.999907
vt 0.387572 0.740266
vt 0.645353 0.916305
vt 0.528355 0.685139
vt 0.564692 0.963936
vt 0.495346 0.713307
vt 0.713975 0.161521
vt 0.626437 0.101448
vt 0.487142 0.304675
vt 0.521616 0.327447
vt 0.795993 0.260430
vt 0.767090 0.214510
vt 0.547607 0.357813
vt 0.567366 0.397553
vt 0.522949 0.044534
vt 0.432870 0.293827
vt 0.301530 0.000092
vt 0.334266 0.298610
vt 0.462240 0.992769
vt 0.438855 0.733900
vt 0.856586 0.533316
vt 0.583556 0.484819
vt 0.000092 0.846468
vt 0.147698 0.714663
vt 0.272606 0.296668
vt 0.269652 0.306662
vt 0.281488 0.307115
vt 0.575936 0.573946
vt 0.549642 0.642172
vt 0.247182 0.695794
vt 0.163557 0.699927
vt 0.523050 0.677562
vt 0.315343 0.714001
vt 0.261671 0.696169
vt 0.490505 0.704596
vt 0.386051 0.729980
vt 0.334442 0.306392
vt 0.431525 0.303225
vt 0.482924 0.311624
vt 0.515018 0.333190
vt 0.540450 0.361483
vt 0.560464 0.398576
vt 0.436463 0.723512
vt 0.575620 0.483339
vt 0.384364 0.720104
vt 0.316042 0.705607
vt 0.477403 0.318582
vt 0.508609 0.339078
vt 0.532782 0.364905
vt 0.550928 0.398810
vt 0.429695 0.310886
vt 0.485462 0.695087
vt 0.434151 0.713311
vt 0.564535 0.481957
vt 0.565390 0.569831
vt 0.270523 0.314560
vt 0.283466 0.314383
vt 0.541014 0.636485
vt 0.248084 0.687894
vt 0.170266 0.690041
vt 0.335012 0.311046
vt 0.514633 0.670815
vt 0.264367 0.689097
vt 0.425360 0.664873
vt 0.388646 0.664918
vt 0.503465 0.484578
vt 0.501674 0.560048
vt 0.275324 0.350850
vt 0.289797 0.349285
vt 0.489140 0.614003
vt 0.260214 0.640556
vt 0.193231 0.624445
vt 0.340796 0.349766
vt 0.421763 0.346751
vt 0.474513 0.639245
vt 0.327123 0.655710
vt 0.276155 0.643131
vt 0.455927 0.655799
vt 0.448522 0.350144
vt 0.470898 0.368642
vt 0.484265 0.382984
vt 0.498736 0.415111
vt 0.203435 0.313413
vt 0.212775 0.355156
vt 0.197812 0.304808
vt 0.000092 0.131633
vt 0.191710 0.298232
vt 0.422753 0.580977
vt 0.297458 0.395472
vt 0.344978 0.393698
vt 0.340880 0.576659
vt 0.291181 0.568562
vt 0.427729 0.397580
vt 0.282804 0.395154
vt 0.429080 0.486473
vt 0.272434 0.569438
vt 0.208937 0.566904
vt 0.220785 0.393097
vt 0.222241 0.485105
vt 0.283693 0.483276
vt 0.300143 0.482279
vt 0.349782 0.484849
s 1
f 4/1/1 5/2/2 22/3/3 21/4/4
f 13/5/5 12/6/6 29/7/7 30/8/8
f 5/2/2 6/9/9 23/10/10 22/3/3
f 14/11/11 13/5/5 30/8/8 31/12/12
f 15/13/13 14/11/11 31/12/12 32/14/14
f 8/15/15 16/16/16 33/17/17 25/18/18
f 10/19/19 9/20/20 26/21/21 27/22/22
f 16/16/16 17/23/23 34/24/24 33/17/17
f 9/20/20 8/15/15 25/18/18 26/21/21
f 17/23/23 1/25/25 35/26/26 34/24/24
f 7/27/27 15/13/13 32/14/14 24/28/28
f 11/29/29 10/19/19 27/22/22 28/30/30
f 3/31/31 4/1/1 21/4/4 20/32/32
f 12/6/6 11/29/29 28/30/30 29/7/7
f 6/9/9 7/27/27 24/28/28 23/10/10
f 18/33/33 93/34/34 36/35/35
f 30/8/8 29/7/7 47/36/36 48/37/37
f 20/32/32 21/4/4 91/38/38 38/39/39
f 31/12/12 30/8/8 48/37/37 49/40/40
f 21/4/4 22/3/3 40/41/41 39/42/42
f 32/14/14 31/12/12 49/40/40 50/43/43
f 22/3/3 23/10/10 41/44/44 40/41/41
f 34/24/24 35/26/26 53/45/45 52/46/46
f 25/18/18 33/17/17 51/47/47 43/48/48
f 27/22/22 26/21/21 44/49/49 45/50/50
f 33/17/17 34/24/24 52/46/46 51/47/47
f 26/21/21 25/18/18 43/48/48 44/49/49
f 24/28/28 32/14/14 50/43/43 42/51/51
f 28/30/30 27/22/22 45/50/50 46/52/52
f 23/10/10 24/28/28 42/51/51 41/44/44
f 29/7/7 28/30/30 46/52/52 47/36/36
f 40/41/41 41/44/44 59/53/53 58/54/54
f 43/48/48 51/47/47 69/55/55 61/56/56
f 45/50/50 44/49/49 62/57/57 63/58/58
f 51/47/47 52/46/46 70/59/59 69/55/55
f 44/49/49 43/48/48 61/56/56 62/57/57
f 42/51/51 50/43/43 68/60/60 60/61/61
f 46/52/52 45/50/50 63/58/58 64/62/62
f 41/44/44 42/51/51 60/61/61 59/53/53
f 47/36/36 46/52/52 64/62/62 65/63/63
f 36/35/64 93/34/34 95/64/65 54/65/66
f 48/37/37 47/36/36 65/63/63 66/66/67
f 38/39/39 91/38/38 90/67/68 56/68/69
f 52/46/46 53/45/70 71/69/71 70/59/59
f 49/40/40 48/37/37 66/66/67 67/70/72
f 39/42/42 40/41/41 58/54/54 57/71/73
f 50/43/43 49/40/40 67/70/72 68/60/60
f 59/53/53 60/61/61 78/72/74 77/73/75
f 65/63/63 64/62/62 82/74/76 83/75/77
f 54/65/66 95/64/65 94/76/78 72/77/79
f 66/66/67 65/63/63 83/75/77 84/78/80
f 56/68/69 90/67/68 92/79/81 74/80/82
f 70/59/59 71/69/71 89/81/83 88/82/84
f 67/70/72 66/66/67 84/78/80 85/83/85
f 57/71/73 58/54/54 76/84/86 75/85/87
f 68/60/60 67/70/72 85/83/85 86/86/88
f 58/54/54 59/53/53 77/73/75 76/84/86
f 61/56/56 69/55/55 87/87/89 79/88/90
f 63/58/58 62/57/57 80/89/91 81/90/92
f 69/55/55 70/59/59 88/82/84 87/87/89
f 62/57/57 61/56/56 79/88/90 80/89/91
f 60/61/61 68/60/60 86/86/88 78/72/74
f 64/62/62 63/58/58 81/90/92 82/74/76
f 91/38/38 21/4/4 39/42/42
f 92/79/81 90/67/68 57/71/73 75/85/87
f 90/67/68 91/38/38 39/42/42 57/71/73
f 89/81/83 71/69/71 54/65/66 72/77/79
f 71/69/71 53/45/70 36/35/64 54/65/66
f 53/45/45 35/26/26 18/33/33 36/35/35
f 94/76/78 95/64/65 55/91/93 73/92/94
f 95/64/65 93/34/34 37/93/95 55/91/93
f 18/33/33 1/25/25 2/94/96 19/95/97
f 93/34/34 18/33/33 19/95/97 37/93/95
f 35/26/26 1/25/25 18/33/33
f 85/83/85 84/78/80 101/96/98
f 89/81/83 72/77/79 96/97/99 104/98/100
f 75/85/87 76/84/86 100/99/101 99/100/102
f 86/86/88 85/83/85 101/96/98
f 76/84/86 77/73/75 101/96/98 100/99/101
f 79/88/90 87/87/89 102/101/103
f 72/77/79 94/76/78 106/102/104 96/97/99
f 81/90/92 80/89/91 102/101/103
f 87/87/89 88/82/84 102/101/103
f 80/89/91 79/88/90 102/101/103
f 78/72/74 86/86/88 101/96/98
f 82/74/76 81/90/92 102/101/103 103/103/105
f 74/80/82 92/79/81 105/104/106 98/105/107
f 77/73/75 78/72/74 101/96/98
f 83/75/77 82/74/76 103/103/105 101/96/98
f 94/76/78 73/92/94 97/106/108 106/102/104
f 88/82/84 89/81/83 104/98/100 102/101/103
f 84/78/80 83/75/77 101/96/98
f 92/79/81 75/85/87 99/100/102 105/104/106
f 106/102/104 97/106/108 107/107/109 108/108/110
f 105/104/106 99/100/102 109/109/111 108/108/110
f 99/100/102 100/99/101 110/110/112 109/109/111
f 101/96/98 103/103/105 110/110/112 100/99/101
f 108/108/110 109/109/111 96/97/99 106/102/104
f 19/95/113 20/32/113 38/39/113 37/93/113
f 37/93/113 38/39/113 56/68/113 55/91/113
f 55/91/113 56/68/113 74/80/113 73/92/113
f 98/105/113 107/107/113 97/106/113 73/92/113 74/80/113
f 2/94/113 3/31/113 20/32/113 19/95/113
f 109/109/111 110/110/112 104/98/100 96/97/99
f 108/108/110 107/107/109 98/105/107 105/104/106
f 102/101/103 104/98/100 110/110/112 103/103/105
