# Blender 4.1.0
# www.blender.org
o stick
v -0.000001 0.176291 -0.105489
v 0.027300 0.176291 -0.101895
v 0.052741 0.176291 -0.091357
v 0.074588 0.176291 -0.074593
v 0.091352 0.176291 -0.052747
v 0.101890 0.176291 -0.027306
v 0.105484 0.176291 -0.000004
v 0.101890 0.176291 0.027298
v 0.091352 0.176291 0.052739
v 0.074588 0.176291 0.074585
v 0.052741 0.176291 0.091349
v 0.027300 0.176291 0.101887
v -0.000001 0.176291 0.105481
v -0.027303 0.176291 0.101887
v -0.052744 0.176291 0.091349
v -0.074591 0.176291 0.074585
v -0.091354 0.176291 0.052739
v -0.101892 0.176291 0.027298
v -0.105486 0.176291 -0.000004
v -0.101892 0.176291 -0.027306
v -0.091354 0.176291 -0.052747
v -0.074591 0.176291 -0.074593
v -0.052744 0.176291 -0.091357
v -0.027303 0.176291 -0.101895
v -0.000001 0.183477 -0.114005
v 0.029504 0.183477 -0.110120
v 0.056999 0.183477 -0.098731
v 0.080609 0.183477 -0.080615
v 0.098726 0.183477 -0.057004
v 0.110115 0.183477 -0.029510
v 0.113999 0.183477 -0.000004
v 0.110115 0.183477 0.029502
v 0.098726 0.183477 0.056996
v 0.080609 0.183477 0.080607
v 0.056999 0.183477 0.098723
v 0.029504 0.183477 0.110112
v -0.000001 0.183477 0.113997
v -0.029507 0.183477 0.110112
v -0.057002 0.183477 0.098723
v -0.080612 0.183477 0.080607
v -0.098729 0.183477 0.056996
v -0.110117 0.183477 0.029502
v -0.114002 0.183477 -0.000004
v -0.110117 0.183477 -0.029510
v -0.098729 0.183477 -0.057004
v -0.080612 0.183477 -0.080615
v -0.057002 0.183477 -0.098731
v -0.029507 0.183477 -0.110120
v -0.000001 0.197839 -0.116051
v 0.030034 0.197839 -0.112097
v 0.058022 0.197839 -0.100504
v 0.082056 0.197839 -0.082061
v 0.100498 0.197839 -0.058027
v 0.112091 0.197839 -0.030039
v 0.116046 0.197839 -0.000004
v 0.112091 0.197839 0.030031
v 0.100498 0.197839 0.058019
v 0.082056 0.197839 0.082053
v 0.058022 0.197839 0.100495
v 0.030034 0.197839 0.112089
v -0.000001 0.197839 0.116043
v -0.030036 0.197839 0.112089
v -0.058025 0.197839 0.100495
v -0.082059 0.197839 0.082053
v -0.100501 0.197839 0.058019
v -0.112094 0.197839 0.030031
v -0.116048 0.197839 -0.000004
v -0.112094 0.197839 -0.030039
v -0.100501 0.197839 -0.058027
v -0.082059 0.197839 -0.082061
v -0.058025 0.197839 -0.100504
v -0.030036 0.197839 -0.112097
v -0.000001 0.211520 -0.110733
v 0.028658 0.211520 -0.106960
v 0.055363 0.211520 -0.095898
v 0.078296 0.211520 -0.078301
v 0.095893 0.211520 -0.055369
v 0.106955 0.211520 -0.028663
v 0.110728 0.211520 -0.000004
v 0.106955 0.211520 0.028655
v 0.095893 0.211520 0.055361
v 0.078296 0.211520 0.078293
v 0.055363 0.211520 0.095890
v 0.028658 0.211520 0.106952
v -0.000001 0.211520 0.110725
v -0.028660 0.211520 0.106952
v -0.055366 0.211520 0.095890
v -0.078298 0.211520 0.078293
v -0.095895 0.211520 0.055361
v -0.106957 0.211520 0.028655
v -0.110730 0.211520 -0.000004
v -0.106957 0.211520 -0.028663
v -0.095895 0.211520 -0.055369
v -0.078299 0.211520 -0.078301
v -0.055366 0.211520 -0.095898
v -0.028660 0.211520 -0.106960
v -0.000001 0.221198 -0.101540
v 0.026278 0.221198 -0.098081
v 0.050767 0.221198 -0.087937
v 0.071796 0.221198 -0.071801
v 0.087932 0.221198 -0.050772
v 0.098075 0.221198 -0.026284
v 0.101535 0.221198 -0.000004
v 0.098075 0.221198 0.026276
v 0.087932 0.221198 0.050764
v 0.071796 0.221198 0.071793
v 0.050767 0.221198 0.087929
v 0.026278 0.221198 0.098073
v -0.000001 0.221198 0.101532
v -0.026281 0.221198 0.098073
v -0.050769 0.221198 0.087929
v -0.071798 0.221198 0.071793
v -0.087934 0.221198 0.050764
v -0.098078 0.221198 0.026276
v -0.101538 0.221198 -0.000004
v -0.098078 0.221198 -0.026284
v -0.087934 0.221198 -0.050772
v -0.071798 0.221198 -0.071801
v -0.050769 0.221198 -0.087937
v -0.026281 0.221198 -0.098081
v -0.000001 0.223723 -0.088656
v 0.022944 0.223723 -0.085635
v 0.044325 0.223723 -0.076779
v 0.062685 0.223723 -0.062690
v 0.076773 0.223723 -0.044330
v 0.085630 0.223723 -0.022949
v 0.088650 0.223723 -0.000004
v 0.085630 0.223723 0.022941
v 0.076773 0.223723 0.044322
v 0.062685 0.223723 0.062682
v 0.044325 0.223723 0.076771
v 0.022944 0.223723 0.085627
v -0.000001 0.223723 0.088648
v -0.022946 0.223723 0.085627
v -0.044327 0.223723 0.076771
v -0.062687 0.223723 0.062682
v -0.076776 0.223723 0.044322
v -0.085632 0.223723 0.022941
v -0.088653 0.223723 -0.000004
v -0.085632 0.223723 -0.022949
v -0.076776 0.223723 -0.044330
v -0.062687 0.223723 -0.062690
v -0.044327 0.223723 -0.076779
v -0.022946 0.223723 -0.085635
v -0.000001 0.216129 -0.075716
v 0.019595 0.216129 -0.073136
v 0.037855 0.216129 -0.065573
v 0.053535 0.216129 -0.053541
v 0.065568 0.216129 -0.037860
v 0.073131 0.216129 -0.019600
v 0.075711 0.216129 -0.000004
v 0.073131 0.216129 0.019592
v 0.065568 0.216129 0.037852
v 0.053535 0.216129 0.053533
v 0.037855 0.216129 0.065565
v 0.019595 0.216129 0.073128
v -0.000001 0.216129 0.075708
v -0.019597 0.216129 0.073128
v -0.037857 0.216129 0.065565
v -0.053538 0.216129 0.053533
v -0.065570 0.216129 0.037852
v -0.073134 0.216129 0.019592
v -0.075713 0.216129 -0.000004
v -0.073134 0.216129 -0.019600
v -0.065570 0.216129 -0.037860
v -0.053538 0.216129 -0.053541
v -0.037857 0.216129 -0.065573
v -0.019597 0.216129 -0.073136
vn -0.0000 -0.7642 -0.6449
vn 0.1669 -0.7642 -0.6229
vn 0.3225 -0.7642 -0.5585
vn 0.4560 -0.7642 -0.4560
vn 0.5585 -0.7642 -0.3225
vn 0.6229 -0.7642 -0.1669
vn 0.6449 -0.7642 -0.0000
vn 0.6229 -0.7642 0.1669
vn 0.5585 -0.7642 0.3225
vn 0.4560 -0.7642 0.4560
vn 0.3225 -0.7642 0.5585
vn 0.1669 -0.7642 0.6229
vn -0.0000 -0.7642 0.6449
vn -0.1669 -0.7642 0.6229
vn -0.3225 -0.7642 0.5585
vn -0.4560 -0.7642 0.4560
vn -0.5585 -0.7642 0.3225
vn -0.6229 -0.7642 0.1669
vn -0.6449 -0.7642 -0.0000
vn -0.6229 -0.7643 -0.1669
vn -0.5585 -0.7642 -0.3225
vn -0.4560 -0.7642 -0.4560
vn -0.3225 -0.7642 -0.5585
vn -0.1669 -0.7642 -0.6229
vn -0.0000 -0.4723 -0.8814
vn 0.2281 -0.4723 -0.8514
vn 0.4407 -0.4723 -0.7634
vn 0.6233 -0.4723 -0.6233
vn 0.7634 -0.4723 -0.4407
vn 0.8514 -0.4723 -0.2281
vn 0.8814 -0.4723 -0.0000
vn 0.8514 -0.4723 0.2281
vn 0.7634 -0.4723 0.4407
vn 0.6233 -0.4723 0.6233
vn 0.4407 -0.4723 0.7634
vn 0.2281 -0.4723 0.8514
vn -0.0000 -0.4723 0.8814
vn -0.2281 -0.4723 0.8514
vn -0.4407 -0.4723 0.7634
vn -0.6233 -0.4723 0.6233
vn -0.7634 -0.4723 0.4407
vn -0.8514 -0.4723 0.2281
vn -0.8814 -0.4723 -0.0000
vn -0.8514 -0.4723 -0.2281
vn -0.7634 -0.4723 -0.4407
vn -0.6233 -0.4723 -0.6233
vn -0.4407 -0.4723 -0.7634
vn -0.2281 -0.4723 -0.8514
vn -0.0000 0.1120 -0.9937
vn 0.2572 0.1120 -0.9598
vn 0.4969 0.1120 -0.8606
vn 0.7027 0.1120 -0.7027
vn 0.8606 0.1120 -0.4969
vn 0.9598 0.1120 -0.2572
vn 0.9937 0.1120 -0.0000
vn 0.9598 0.1120 0.2572
vn 0.8606 0.1120 0.4969
vn 0.7027 0.1120 0.7027
vn 0.4969 0.1120 0.8606
vn 0.2572 0.1120 0.9598
vn -0.0000 0.1120 0.9937
vn -0.2572 0.1120 0.9598
vn -0.4969 0.1120 0.8606
vn -0.7027 0.1120 0.7027
vn -0.8606 0.1120 0.4969
vn -0.9598 0.1120 0.2572
vn -0.9937 0.1120 -0.0000
vn -0.9598 0.1120 -0.2572
vn -0.8606 0.1120 -0.4969
vn -0.7027 0.1120 -0.7027
vn -0.4969 0.1120 -0.8606
vn -0.2572 0.1120 -0.9598
vn -0.0000 0.5284 -0.8490
vn 0.2197 0.5284 -0.8200
vn 0.4245 0.5284 -0.7352
vn 0.6003 0.5284 -0.6003
vn 0.7352 0.5284 -0.4245
vn 0.8200 0.5284 -0.2197
vn 0.8490 0.5284 -0.0000
vn 0.8200 0.5284 0.2197
vn 0.7352 0.5284 0.4245
vn 0.6003 0.5284 0.6003
vn 0.4245 0.5284 0.7352
vn 0.2197 0.5284 0.8200
vn -0.0000 0.5284 0.8490
vn -0.2197 0.5284 0.8200
vn -0.4245 0.5284 0.7352
vn -0.6003 0.5284 0.6003
vn -0.7352 0.5284 0.4245
vn -0.8200 0.5284 0.2197
vn -0.8490 0.5284 -0.0000
vn -0.8200 0.5284 -0.2197
vn -0.7352 0.5284 -0.4245
vn -0.6003 0.5284 -0.6003
vn -0.4245 0.5284 -0.7352
vn -0.2197 0.5284 -0.8200
vn -0.0000 0.8658 -0.5004
vn 0.1295 0.8658 -0.4834
vn 0.2502 0.8658 -0.4334
vn 0.3538 0.8658 -0.3538
vn 0.4334 0.8658 -0.2502
vn 0.4834 0.8658 -0.1295
vn 0.5004 0.8658 -0.0000
vn 0.4834 0.8658 0.1295
vn 0.4334 0.8658 0.2502
vn 0.3538 0.8658 0.3538
vn 0.2502 0.8658 0.4334
vn 0.1295 0.8658 0.4834
vn -0.0000 0.8658 0.5004
vn -0.1295 0.8658 0.4834
vn -0.2502 0.8658 0.4334
vn -0.3538 0.8658 0.3538
vn -0.4334 0.8658 0.2502
vn -0.4834 0.8658 0.1295
vn -0.5004 0.8658 -0.0000
vn -0.4834 0.8658 -0.1295
vn -0.4334 0.8658 -0.2502
vn -0.3538 0.8658 -0.3538
vn -0.2502 0.8658 -0.4334
vn -0.1295 0.8658 -0.4834
vn -0.0000 0.9903 0.1389
vn -0.0359 0.9903 0.1342
vn -0.0694 0.9903 0.1203
vn -0.0982 0.9903 0.0982
vn -0.1203 0.9903 0.0694
vn -0.1342 0.9903 0.0359
vn -0.1389 0.9903 -0.0000
vn -0.1342 0.9903 -0.0359
vn -0.1203 0.9903 -0.0694
vn -0.0982 0.9903 -0.0982
vn -0.0694 0.9903 -0.1203
vn -0.0359 0.9903 -0.1342
vn -0.0000 0.9903 -0.1389
vn 0.0359 0.9903 -0.1342
vn 0.0694 0.9903 -0.1203
vn 0.0982 0.9903 -0.0982
vn 0.1203 0.9903 -0.0694
vn 0.1342 0.9903 -0.0359
vn 0.1389 0.9903 -0.0000
vn 0.1342 0.9903 0.0359
vn 0.1203 0.9903 0.0694
vn 0.0982 0.9903 0.0982
vn 0.0694 0.9903 0.1203
vn 0.0359 0.9903 0.1342
vn -0.0000 0.8624 0.5062
vn -0.1310 0.8624 0.4889
vn -0.2531 0.8624 0.4383
vn -0.3579 0.8624 0.3579
vn -0.4383 0.8624 0.2531
vn -0.4889 0.8624 0.1310
vn -0.5062 0.8624 -0.0000
vn -0.4889 0.8624 -0.1310
vn -0.4383 0.8624 -0.2531
vn -0.3579 0.8624 -0.3579
vn -0.2531 0.8624 -0.4383
vn -0.1310 0.8624 -0.4889
vn -0.0000 0.8624 -0.5062
vn 0.1310 0.8624 -0.4889
vn 0.2531 0.8624 -0.4383
vn 0.3579 0.8624 -0.3579
vn 0.4383 0.8624 -0.2531
vn 0.4889 0.8624 -0.1310
vn 0.5062 0.8624 -0.0000
vn 0.4889 0.8624 0.1310
vn 0.4383 0.8624 0.2531
vn 0.3579 0.8624 0.3579
vn 0.2531 0.8624 0.4383
vn 0.1310 0.8624 0.4889
vt 0.952093 0.701307
vt 0.889967 0.814390
vt 0.849683 0.782745
vt 0.909437 0.683210
vt 0.189705 0.896287
vt 0.098593 0.803214
vt 0.138253 0.773842
vt 0.220541 0.857684
vt 0.443846 0.001455
vt 0.577628 0.000100
vt 0.569517 0.052104
vt 0.449353 0.049573
vt 0.988878 0.580864
vt 0.941520 0.573317
vt 0.302497 0.962516
vt 0.321832 0.917479
vt 0.314199 0.030243
vt 0.333309 0.078902
vt 0.994534 0.453537
vt 0.946082 0.458008
vt 0.427383 0.994878
vt 0.434189 0.948383
vt 0.199869 0.097352
vt 0.228508 0.136328
vt 0.968391 0.327056
vt 0.921907 0.343807
vt 0.557279 0.999900
vt 0.551112 0.949198
vt 0.100902 0.186899
vt 0.142325 0.219928
vt 0.909746 0.209126
vt 0.868493 0.238035
vt 0.681712 0.963809
vt 0.664134 0.920524
vt 0.033991 0.304287
vt 0.080666 0.324114
vt 0.819677 0.109081
vt 0.786235 0.150008
vt 0.794245 0.903565
vt 0.765237 0.864221
vt 0.000100 0.432488
vt 0.049633 0.439523
vt 0.033868 0.690379
vt 0.000100 0.564001
vt 0.049420 0.558095
vt 0.079764 0.672057
vt 0.704560 0.042122
vt 0.684644 0.086342
vt 0.262006 0.181016
vt 0.186333 0.254345
vt 0.870344 0.361829
vt 0.822207 0.270220
vt 0.544243 0.895516
vt 0.643649 0.870338
vt 0.132209 0.345299
vt 0.751581 0.192298
vt 0.732989 0.820713
vt 0.104517 0.446520
vt 0.103807 0.550711
vt 0.130118 0.651067
vt 0.661477 0.137217
vt 0.807090 0.749518
vt 0.180918 0.741494
vt 0.560791 0.108196
vt 0.859951 0.662089
vt 0.254269 0.814836
vt 0.455923 0.105165
vt 0.888781 0.564858
vt 0.343305 0.866384
vt 0.353952 0.130412
vt 0.893282 0.462521
vt 0.441632 0.894288
vt 0.769075 0.719803
vt 0.815727 0.643131
vt 0.220402 0.711498
vt 0.283782 0.776063
vt 0.553297 0.156432
vt 0.461357 0.154950
vt 0.841618 0.557042
vt 0.361604 0.821838
vt 0.371827 0.176202
vt 0.844330 0.467056
vt 0.448129 0.846245
vt 0.291172 0.221194
vt 0.824613 0.378953
vt 0.538060 0.847591
vt 0.225023 0.285623
vt 0.782522 0.298096
vt 0.625317 0.825525
vt 0.178326 0.364950
vt 0.719682 0.231322
vt 0.704032 0.782002
vt 0.153125 0.453230
vt 0.152832 0.544604
vt 0.175102 0.632754
vt 0.641623 0.182772
vt 0.785785 0.393498
vt 0.748571 0.322199
vt 0.533295 0.806935
vt 0.610098 0.787036
vt 0.258346 0.311509
vt 0.216943 0.381074
vt 0.692953 0.263587
vt 0.679519 0.749010
vt 0.194881 0.458852
vt 0.193794 0.539553
vt 0.213868 0.617356
vt 0.624298 0.221328
vt 0.737140 0.694184
vt 0.253598 0.686783
vt 0.546861 0.197869
vt 0.778275 0.626229
vt 0.309357 0.743379
vt 0.465939 0.196796
vt 0.800692 0.550384
vt 0.377436 0.783943
vt 0.387154 0.215430
vt 0.803372 0.471229
vt 0.453781 0.805451
vt 0.316485 0.255179
vt 0.284969 0.663101
vt 0.333513 0.712458
vt 0.540648 0.237760
vt 0.470291 0.236339
vt 0.742323 0.610376
vt 0.761944 0.544143
vt 0.392997 0.747678
vt 0.401955 0.253174
vt 0.764160 0.475010
vt 0.459456 0.766694
vt 0.340275 0.287339
vt 0.748614 0.407298
vt 0.528715 0.767635
vt 0.289842 0.336499
vt 0.715887 0.345519
vt 0.595793 0.750736
vt 0.253677 0.396927
vt 0.667842 0.294447
vt 0.656278 0.717356
vt 0.234415 0.464550
vt 0.233524 0.534736
vt 0.250675 0.602556
vt 0.608071 0.257769
vt 0.706371 0.669516
vt 0.706832 0.423019
vt 0.679495 0.371754
vt 0.523522 0.723552
vt 0.579465 0.709558
vt 0.325118 0.364437
vt 0.295059 0.414798
vt 0.639588 0.329363
vt 0.629958 0.681675
vt 0.279113 0.471109
vt 0.278103 0.529569
vt 0.292295 0.585888
vt 0.589891 0.298857
vt 0.671700 0.641761
vt 0.320503 0.636292
vt 0.533831 0.282334
vt 0.701740 0.592479
vt 0.360764 0.677578
vt 0.475329 0.281072
vt 0.718150 0.537169
vt 0.410369 0.707143
vt 0.418465 0.295098
vt 0.719927 0.479432
vt 0.465850 0.722623
vt 0.367200 0.323667
s 1
f 11/1/11 10/2/10 34/3/34 35/4/35
f 4/5/4 3/6/3 27/7/27 28/8/28
f 19/9/19 18/10/18 42/11/42 43/12/43
f 12/13/12 11/1/11 35/4/35 36/14/36
f 5/15/5 4/5/4 28/8/28 29/16/29
f 20/17/20 19/9/19 43/12/43 44/18/44
f 13/19/13 12/13/12 36/14/36 37/20/37
f 6/21/6 5/15/5 29/16/29 30/22/30
f 21/23/21 20/17/20 44/18/44 45/24/45
f 14/25/14 13/19/13 37/20/37 38/26/38
f 7/27/7 6/21/6 30/22/30 31/28/31
f 22/29/22 21/23/21 45/24/45 46/30/46
f 15/31/15 14/25/14 38/26/38 39/32/39
f 8/33/8 7/27/7 31/28/31 32/34/32
f 23/35/23 22/29/22 46/30/46 47/36/47
f 16/37/16 15/31/15 39/32/39 40/38/40
f 9/39/9 8/33/8 32/34/32 33/40/33
f 24/41/24 23/35/23 47/36/47 48/42/48
f 2/43/2 1/44/1 25/45/25 26/46/26
f 17/47/17 16/37/16 40/38/40 41/48/41
f 10/2/10 9/39/9 33/40/33 34/3/34
f 1/44/1 24/41/24 48/42/48 25/45/25
f 3/6/3 2/43/2 26/46/26 27/7/27
f 18/10/18 17/47/17 41/48/41 42/11/42
f 46/30/46 45/24/45 69/49/69 70/50/70
f 39/32/39 38/26/38 62/51/62 63/52/63
f 32/34/32 31/28/31 55/53/55 56/54/56
f 47/36/47 46/30/46 70/50/70 71/55/71
f 40/38/40 39/32/39 63/52/63 64/56/64
f 33/40/33 32/34/32 56/54/56 57/57/57
f 48/42/48 47/36/47 71/55/71 72/58/72
f 26/46/26 25/45/25 49/59/49 50/60/50
f 41/48/41 40/38/40 64/56/64 65/61/65
f 34/3/34 33/40/33 57/57/57 58/62/58
f 25/45/25 48/42/48 72/58/72 49/59/49
f 27/7/27 26/46/26 50/60/50 51/63/51
f 42/11/42 41/48/41 65/61/65 66/64/66
f 35/4/35 34/3/34 58/62/58 59/65/59
f 28/8/28 27/7/27 51/63/51 52/66/52
f 43/12/43 42/11/42 66/64/66 67/67/67
f 36/14/36 35/4/35 59/65/59 60/68/60
f 29/16/29 28/8/28 52/66/52 53/69/53
f 44/18/44 43/12/43 67/67/67 68/70/68
f 37/20/37 36/14/36 60/68/60 61/71/61
f 30/22/30 29/16/29 53/69/53 54/72/54
f 45/24/45 44/18/44 68/70/68 69/49/69
f 38/26/38 37/20/37 61/71/61 62/51/62
f 31/28/31 30/22/30 54/72/54 55/53/55
f 59/65/59 58/62/58 82/73/82 83/74/83
f 52/66/52 51/63/51 75/75/75 76/76/76
f 67/67/67 66/64/66 90/77/90 91/78/91
f 60/68/60 59/65/59 83/74/83 84/79/84
f 53/69/53 52/66/52 76/76/76 77/80/77
f 68/70/68 67/67/67 91/78/91 92/81/92
f 61/71/61 60/68/60 84/79/84 85/82/85
f 54/72/54 53/69/53 77/80/77 78/83/78
f 69/49/69 68/70/68 92/81/92 93/84/93
f 62/51/62 61/71/61 85/82/85 86/85/86
f 55/53/55 54/72/54 78/83/78 79/86/79
f 70/50/70 69/49/69 93/84/93 94/87/94
f 63/52/63 62/51/62 86/85/86 87/88/87
f 56/54/56 55/53/55 79/86/79 80/89/80
f 71/55/71 70/50/70 94/87/94 95/90/95
f 64/56/64 63/52/63 87/88/87 88/91/88
f 57/57/57 56/54/56 80/89/80 81/92/81
f 72/58/72 71/55/71 95/90/95 96/93/96
f 50/60/50 49/59/49 73/94/73 74/95/74
f 65/61/65 64/56/64 88/91/88 89/96/89
f 58/62/58 57/57/57 81/92/81 82/73/82
f 49/59/49 72/58/72 96/93/96 73/94/73
f 51/63/51 50/60/50 74/95/74 75/75/75
f 66/64/66 65/61/65 89/96/89 90/77/90
f 87/88/87 86/85/86 110/97/110 111/98/111
f 80/89/80 79/86/79 103/99/103 104/100/104
f 95/90/95 94/87/94 118/101/118 119/102/119
f 88/91/88 87/88/87 111/98/111 112/103/112
f 81/92/81 80/89/80 104/100/104 105/104/105
f 96/93/96 95/90/95 119/102/119 120/105/120
f 74/95/74 73/94/73 97/106/97 98/107/98
f 89/96/89 88/91/88 112/103/112 113/108/113
f 82/73/82 81/92/81 105/104/105 106/109/106
f 73/94/73 96/93/96 120/105/120 97/106/97
f 75/75/75 74/95/74 98/107/98 99/110/99
f 90/77/90 89/96/89 113/108/113 114/111/114
f 83/74/83 82/73/82 106/109/106 107/112/107
f 76/76/76 75/75/75 99/110/99 100/113/100
f 91/78/91 90/77/90 114/111/114 115/114/115
f 84/79/84 83/74/83 107/112/107 108/115/108
f 77/80/77 76/76/76 100/113/100 101/116/101
f 92/81/92 91/78/91 115/114/115 116/117/116
f 85/82/85 84/79/84 108/115/108 109/118/109
f 78/83/78 77/80/77 101/116/101 102/119/102
f 93/84/93 92/81/92 116/117/116 117/120/117
f 86/85/86 85/82/85 109/118/109 110/97/110
f 79/86/79 78/83/78 102/119/102 103/99/103
f 94/87/94 93/84/93 117/120/117 118/101/118
f 100/113/100 99/110/99 123/121/123 124/122/124
f 115/114/115 114/111/114 138/123/138 139/124/139
f 108/115/108 107/112/107 131/125/131 132/126/132
f 101/116/101 100/113/100 124/122/124 125/127/125
f 116/117/116 115/114/115 139/124/139 140/128/140
f 109/118/109 108/115/108 132/126/132 133/129/133
f 102/119/102 101/116/101 125/127/125 126/130/126
f 117/120/117 116/117/116 140/128/140 141/131/141
f 110/97/110 109/118/109 133/129/133 134/132/134
f 103/99/103 102/119/102 126/130/126 127/133/127
f 118/101/118 117/120/117 141/131/141 142/134/142
f 111/98/111 110/97/110 134/132/134 135/135/135
f 104/100/104 103/99/103 127/133/127 128/136/128
f 119/102/119 118/101/118 142/134/142 143/137/143
f 112/103/112 111/98/111 135/135/135 136/138/136
f 105/104/105 104/100/104 128/136/128 129/139/129
f 120/105/120 119/102/119 143/137/143 144/140/144
f 98/107/98 97/106/97 121/141/121 122/142/122
f 113/108/113 112/103/112 136/138/136 137/143/137
f 106/109/106 105/104/105 129/139/129 130/144/130
f 97/106/97 120/105/120 144/140/144 121/141/121
f 99/110/99 98/107/98 122/142/122 123/121/123
f 114/111/114 113/108/113 137/143/137 138/123/138
f 107/112/107 106/109/106 130/144/130 131/125/131
f 135/135/135 134/132/134 158/145/158 159/146/159
f 128/136/128 127/133/127 151/147/151 152/148/152
f 143/137/143 142/134/142 166/149/166 167/150/167
f 136/138/136 135/135/135 159/146/159 160/151/160
f 129/139/129 128/136/128 152/148/152 153/152/153
f 144/140/144 143/137/143 167/150/167 168/153/168
f 122/142/122 121/141/121 145/154/145 146/155/146
f 137/143/137 136/138/136 160/151/160 161/156/161
f 130/144/130 129/139/129 153/152/153 154/157/154
f 121/141/121 144/140/144 168/153/168 145/154/145
f 123/121/123 122/142/122 146/155/146 147/158/147
f 138/123/138 137/143/137 161/156/161 162/159/162
f 131/125/131 130/144/130 154/157/154 155/160/155
f 124/122/124 123/121/123 147/158/147 148/161/148
f 139/124/139 138/123/138 162/159/162 163/162/163
f 132/126/132 131/125/131 155/160/155 156/163/156
f 125/127/125 124/122/124 148/161/148 149/164/149
f 140/128/140 139/124/139 163/162/163 164/165/164
f 133/129/133 132/126/132 156/163/156 157/166/157
f 126/130/126 125/127/125 149/164/149 150/167/150
f 141/131/141 140/128/140 164/165/164 165/168/165
f 134/132/134 133/129/133 157/166/157 158/145/158
f 127/133/127 126/130/126 150/167/150 151/147/151
f 142/134/142 141/131/141 165/168/165 166/149/166
