# Blender 4.1.0
# www.blender.org
o Start_Button
v 0.491374 0.302176 -0.482325
v 0.491374 0.319534 -0.483562
v 0.481371 0.303185 -0.468176
v 0.481371 0.320542 -0.469413
v 0.463517 0.303405 -0.465079
v 0.463517 0.320763 -0.466316
v 0.448269 0.302709 -0.474848
v 0.448269 0.320067 -0.476085
v 0.444560 0.301503 -0.491761
v 0.444560 0.318861 -0.492999
v 0.482853 0.296602 -0.560522
v 0.498101 0.297298 -0.550753
v 0.498101 0.314656 -0.551991
v 0.482853 0.313959 -0.561760
v 0.501810 0.298504 -0.533840
v 0.501810 0.315862 -0.535077
v 0.454996 0.315189 -0.544513
v 0.454996 0.297831 -0.543276
v 0.464998 0.296823 -0.557425
v 0.464998 0.314180 -0.558663
v 0.489933 0.321878 -0.486156
v 0.480723 0.322807 -0.473128
v 0.464283 0.323010 -0.470276
v 0.450243 0.322369 -0.479272
v 0.446828 0.321259 -0.494845
v 0.496127 0.317386 -0.549163
v 0.482087 0.316745 -0.558159
v 0.499542 0.318497 -0.533590
v 0.456437 0.317877 -0.542278
v 0.465647 0.316949 -0.555307
v 0.488175 0.322699 -0.489174
v 0.479932 0.323530 -0.477513
v 0.465217 0.323712 -0.474961
v 0.452650 0.323138 -0.483012
v 0.449594 0.322144 -0.496951
v 0.493719 0.318679 -0.545569
v 0.481153 0.318105 -0.553621
v 0.496776 0.319672 -0.531630
v 0.458195 0.319118 -0.539407
v 0.466438 0.318287 -0.551068
v 0.477485 0.320168 -0.535574
v 0.468884 0.323195 -0.493118
vn 0.9184 0.0281 0.3946
vn 0.8515 0.3791 0.3623
vn 0.5349 0.0601 0.8428
vn 0.4722 0.4660 0.7482
vn -0.1981 0.0697 0.9777
vn -0.1783 0.4969 0.8493
vn -0.8210 0.0406 0.5694
vn -0.7378 0.4486 0.5043
vn -1.0000 0.0006 0.0080
vn -0.9355 0.3534 0.0021
vn 0.1981 -0.0697 -0.9777
vn 0.8210 -0.0406 -0.5694
vn 0.7378 0.3725 -0.5629
vn 0.1783 0.3714 -0.9112
vn 1.0000 -0.0006 -0.0080
vn 0.9355 0.3495 -0.0522
vn -0.8515 0.3239 -0.4124
vn -0.9184 -0.0281 -0.3946
vn -0.5349 -0.0601 -0.8428
vn -0.4722 0.3551 -0.8068
vn 0.5467 0.8225 0.1568
vn 0.2851 0.9022 0.3235
vn -0.0835 0.9339 0.3476
vn -0.4130 0.8922 0.1828
vn -0.5873 0.8062 -0.0718
vn 0.4130 0.8573 -0.3075
vn 0.0835 0.8752 -0.4765
vn 0.5873 0.8082 -0.0433
vn -0.5467 0.7919 -0.2719
vn -0.2851 0.8472 -0.4482
vn 0.2186 0.9758 0.0026
vn 0.1141 0.9912 0.0676
vn -0.0294 0.9968 0.0749
vn -0.1587 0.9872 0.0126
vn -0.2294 0.9694 -0.0877
vn 0.1587 0.9755 -0.1526
vn 0.0294 0.9761 -0.2155
vn 0.2294 0.9720 -0.0506
vn -0.2186 0.9656 -0.1410
vn -0.1141 0.9715 -0.2075
vn 0.0030 0.9963 -0.0858
vn -0.0030 0.9984 -0.0564
vt 0.660130 0.257010
vt 0.505962 0.316871
vt 0.444386 0.210698
vt 0.553454 0.089000
vt 0.332658 0.169026
vt 0.349335 0.000081
vt 0.220301 0.208772
vt 0.129830 0.062762
vt 0.156895 0.313276
vt 0.000081 0.234136
vt 0.309317 0.999919
vt 0.325926 0.831906
vt 0.437731 0.792387
vt 0.527628 0.937750
vt 0.500726 0.688452
vt 0.657042 0.767489
vt 0.000081 0.744766
vt 0.153599 0.684852
vt 0.214770 0.790440
vt 0.106369 0.911564
vt 0.432169 0.238030
vt 0.332357 0.201356
vt 0.175796 0.667699
vt 0.226918 0.763252
vt 0.483481 0.334308
vt 0.478951 0.670883
vt 0.326230 0.799741
vt 0.426140 0.765065
vt 0.178949 0.331137
vt 0.231958 0.236234
vt 0.461941 0.652494
vt 0.465848 0.352535
vt 0.193310 0.649494
vt 0.236996 0.735658
vt 0.241550 0.264119
vt 0.196078 0.349552
vt 0.422005 0.265793
vt 0.326525 0.768820
vt 0.416634 0.737346
vt 0.332065 0.232434
vt 0.330741 0.354071
vt 0.327851 0.647759
s 1
f 1/1/1 2/2/2 4/3/4 3/4/3
f 3/4/3 4/3/4 6/5/6 5/6/5
f 5/6/5 6/5/6 8/7/8 7/8/7
f 7/8/7 8/7/8 10/9/10 9/10/9
f 11/11/11 14/12/14 13/13/13 12/14/12
f 12/14/12 13/13/13 16/15/16 15/16/15
f 18/17/18 17/18/17 20/19/20 19/20/19
f 19/20/19 20/19/20 14/12/14 11/11/11
f 2/2/2 1/1/1 15/16/15 16/15/16
f 9/10/9 10/9/10 17/18/17 18/17/18
f 6/5/6 4/3/4 22/21/22 23/22/23
f 20/19/20 17/18/17 29/23/29 30/24/30
f 4/3/4 2/2/2 21/25/21 22/21/22
f 2/2/2 16/15/16 28/26/28 21/25/21
f 13/13/13 14/12/14 27/27/27 26/28/26
f 17/18/17 10/9/10 25/29/25 29/23/29
f 10/9/10 8/7/8 24/30/24 25/29/25
f 16/15/16 13/13/13 26/28/26 28/26/28
f 8/7/8 6/5/6 23/22/23 24/30/24
f 14/12/14 20/19/20 30/24/30 27/27/27
f 21/25/21 28/26/28 38/31/38 31/32/31
f 30/24/30 29/23/29 39/33/39 40/34/40
f 25/29/25 24/30/24 34/35/34 35/36/35
f 22/21/22 21/25/21 31/32/31 32/37/32
f 27/27/27 30/24/30 40/34/40 37/38/37
f 26/28/26 27/27/27 37/38/37 36/39/36
f 23/22/23 22/21/22 32/37/32 33/40/33
f 29/23/29 25/29/25 35/36/35 39/33/39
f 28/26/28 26/28/26 36/39/36 38/31/38
f 24/30/24 23/22/23 33/40/33 34/35/34
f 32/37/32 42/41/42 33/40/33
f 31/32/31 38/31/38 41/42/41 42/41/42
f 36/39/36 41/42/41 38/31/38
f 33/40/33 42/41/42 34/35/34
f 42/41/42 41/42/41 39/33/39 35/36/35
f 41/42/41 40/34/40 39/33/39
f 41/42/41 36/39/36 37/38/37
f 40/34/40 41/42/41 37/38/37
f 42/41/42 32/37/32 31/32/31
f 34/35/34 42/41/42 35/36/35
