# Blender 4.1.0
# www.blender.org
o Pad
v 0.000001 0.296842 -0.223286
v 0.064175 0.296842 -0.223286
v 0.128325 0.296842 -0.223286
v 0.162117 0.296842 -0.223286
v 0.256142 0.296842 -0.223286
v 0.287054 0.298533 -0.231058
v 0.318363 0.300315 -0.250055
v 0.339858 0.302634 -0.279050
v 0.351699 0.305421 -0.338548
v 0.366712 0.307568 -0.414003
v 0.385508 0.307568 -0.501633
v 0.399153 0.299642 -0.564330
v 0.403402 0.293677 -0.583174
v 0.405023 0.286348 -0.592238
v 0.404064 0.275275 -0.602235
v 0.391874 0.253833 -0.621263
v 0.371387 0.233606 -0.632755
v 0.349946 0.225039 -0.641176
v 0.000001 0.225039 -0.653137
v 0.222183 0.225039 -0.650217
v 0.000001 0.310500 -0.228889
v 0.162117 0.310523 -0.228889
v 0.253932 0.311160 -0.228889
v 0.284142 0.310821 -0.236806
v 0.314519 0.310615 -0.254832
v 0.334085 0.311276 -0.280785
v 0.346375 0.313667 -0.338548
v 0.361274 0.314870 -0.413316
v 0.379453 0.313249 -0.502903
v 0.391376 0.307805 -0.565708
v 0.394894 0.303425 -0.585685
v 0.396923 0.297744 -0.600079
v 0.396970 0.290590 -0.612393
v 0.387677 0.269703 -0.632649
v 0.370278 0.249196 -0.643842
v 0.348761 0.238548 -0.648823
v 0.000001 0.236490 -0.663696
v 0.224206 0.235928 -0.658008
v 0.348761 0.255299 -0.643974
v 0.000001 0.257043 -0.658847
v 0.224206 0.256482 -0.653158
v 0.348761 0.272468 -0.633477
v 0.000001 0.274212 -0.648465
v 0.224206 0.273651 -0.642661
v 0.348761 0.290637 -0.616310
v 0.000001 0.289735 -0.628205
v 0.224206 0.289173 -0.624908
v 0.348761 0.297541 -0.604612
v 0.000001 0.295234 -0.616507
v 0.224206 0.295634 -0.612853
v 0.348761 0.303044 -0.589514
v 0.000001 0.300317 -0.601409
v 0.224206 0.301136 -0.597755
v 0.348761 0.306826 -0.571508
v 0.000001 0.304731 -0.581794
v 0.224206 0.305549 -0.578140
v 0.348761 0.312584 -0.504012
v 0.000001 0.311736 -0.514298
v 0.224206 0.312152 -0.510644
v 0.348761 0.314175 -0.413970
v 0.000001 0.313327 -0.422562
v 0.224206 0.313744 -0.418909
v 0.000001 0.313327 -0.338548
v 0.224206 0.313744 -0.338548
v 0.000001 0.311486 -0.253906
v 0.000001 0.311486 -0.280588
v 0.224206 0.311902 -0.280588
v 0.224206 0.311902 -0.253906
v -0.064173 0.296842 -0.223286
v -0.128322 0.296842 -0.223286
v -0.162115 0.296842 -0.223286
v -0.256139 0.296842 -0.223286
v -0.287052 0.298533 -0.231058
v -0.318361 0.300315 -0.250055
v -0.339855 0.302634 -0.279050
v -0.351696 0.305421 -0.338548
v -0.366710 0.307568 -0.414003
v -0.385506 0.307568 -0.501633
v -0.399150 0.299642 -0.564330
v -0.403399 0.293677 -0.583174
v -0.405021 0.286348 -0.592238
v -0.404062 0.275275 -0.602235
v -0.391872 0.253833 -0.621263
v -0.371385 0.233606 -0.632755
v -0.349944 0.225039 -0.641176
v -0.222180 0.225039 -0.650217
v -0.162115 0.310523 -0.228889
v -0.253930 0.311160 -0.228889
v -0.284139 0.310821 -0.236806
v -0.314517 0.310615 -0.254832
v -0.334082 0.311276 -0.280785
v -0.346372 0.313667 -0.338548
v -0.361271 0.314870 -0.413316
v -0.379450 0.313249 -0.502903
v -0.391374 0.307805 -0.565708
v -0.394892 0.303425 -0.585685
v -0.396921 0.297744 -0.600079
v -0.396967 0.290590 -0.612393
v -0.387674 0.269703 -0.632649
v -0.370276 0.249196 -0.643842
v -0.348758 0.238548 -0.648823
v -0.224204 0.235928 -0.658008
v -0.348758 0.255299 -0.643974
v -0.224204 0.256482 -0.653158
v -0.348758 0.272468 -0.633477
v -0.224204 0.273651 -0.642661
v -0.348758 0.290637 -0.616310
v -0.224204 0.289173 -0.624908
v -0.348758 0.297541 -0.604612
v -0.224204 0.295634 -0.612853
v -0.348758 0.303044 -0.589514
v -0.224204 0.301136 -0.597755
v -0.348758 0.306826 -0.571508
v -0.224204 0.305549 -0.578140
v -0.348758 0.312584 -0.504012
v -0.224204 0.312152 -0.510644
v -0.348758 0.314175 -0.413970
v -0.224204 0.313744 -0.418909
v -0.224204 0.313744 -0.338548
v -0.224204 0.311902 -0.280588
v -0.224204 0.311902 -0.253906
vn -0.0000 0.3793 0.9253
vn -0.0000 0.3792 0.9253
vn -0.0006 0.3753 0.9269
vn -0.0000 0.3795 0.9252
vn 0.3312 0.4549 0.8267
vn 0.5565 0.5086 0.6570
vn 0.5651 0.5100 0.6485
vn 0.3293 0.4543 0.8278
vn 0.7246 0.6890 0.0132
vn 0.7888 0.6032 -0.1182
vn 0.7795 0.6186 -0.0986
vn 0.7207 0.6929 0.0220
vn 0.5742 -0.4039 -0.7121
vn 0.2637 -0.5067 -0.8208
vn 0.2675 -0.5059 -0.8200
vn 0.6105 -0.3853 -0.6920
vn -0.0006 0.3752 0.9269
vn 0.0383 -0.5905 -0.8061
vn -0.0000 -0.6355 -0.7721
vn 0.0425 -0.5824 -0.8118
vn 0.7725 0.6146 0.1598
vn 0.7187 0.6871 0.1062
vn 0.7196 0.6859 0.1080
vn 0.7816 0.6021 0.1630
vn 0.9061 0.1405 -0.3991
vn 0.8061 -0.1821 -0.5631
vn 0.8224 -0.1510 -0.5486
vn 0.9074 0.1576 -0.3897
vn 0.7544 0.5467 0.3633
vn 0.7510 0.5460 0.3714
vn 0.1139 0.3985 0.9101
vn 0.1021 0.3960 0.9126
vn 0.8709 0.4262 -0.2446
vn 0.8695 0.4302 -0.2427
vn 0.8123 0.5540 0.1824
vn 0.8122 0.5539 0.1833
vn 0.0472 0.2402 -0.9696
vn -0.0000 0.2296 -0.9733
vn -0.0000 0.3786 -0.9256
vn 0.0469 0.3841 -0.9221
vn 0.0756 0.2615 -0.9622
vn 0.0766 0.3908 -0.9173
vn 0.0835 0.4169 -0.9051
vn -0.0000 0.6552 -0.7554
vn 0.0391 0.6401 -0.7673
vn 0.0655 0.6056 -0.7930
vn 0.0695 0.6130 -0.7870
vn -0.0000 0.8384 -0.5450
vn 0.0235 0.8195 -0.5726
vn 0.0440 0.7911 -0.6101
vn 0.0514 0.7941 -0.6056
vn -0.0000 0.9201 -0.3917
vn 0.0101 0.9139 -0.4057
vn 0.0247 0.9050 -0.4246
vn 0.0342 0.9025 -0.4294
vn -0.0000 0.9611 -0.2762
vn 0.0029 0.9606 -0.2780
vn 0.0106 0.9598 -0.2806
vn 0.0171 0.9583 -0.2852
vn -0.0000 0.9870 -0.1608
vn -0.0007 0.9876 -0.1570
vn -0.0016 0.9884 -0.1520
vn -0.0029 0.9887 -0.1501
vn -0.0000 0.9982 -0.0593
vn -0.0018 0.9984 -0.0570
vn -0.0123 0.9985 -0.0539
vn -0.0216 0.9981 -0.0573
vn -0.0000 1.0000 -0.0088
vn -0.0019 1.0000 -0.0080
vn -0.0227 0.9997 -0.0076
vn -0.0420 0.9991 -0.0092
vn -0.0000 0.9999 0.0159
vn -0.0005 0.9998 0.0180
vn -0.0024 0.9998 0.0180
vn 0.0023 0.9998 0.0212
vn 0.0053 0.9995 0.0298
vn -0.0000 0.9997 0.0229
vn 0.0012 0.9998 0.0206
vn 0.0106 0.9998 0.0155
vn 0.0144 0.9998 0.0128
vn 0.0093 0.9998 0.0186
vn -0.0018 0.9990 0.0449
vn -0.0000 0.9989 0.0458
vn 0.0006 0.3753 0.9269
vn -0.3312 0.4549 0.8267
vn -0.3293 0.4543 0.8278
vn -0.5651 0.5100 0.6485
vn -0.5565 0.5086 0.6570
vn -0.7246 0.6890 0.0132
vn -0.7207 0.6929 0.0220
vn -0.7795 0.6186 -0.0986
vn -0.7888 0.6032 -0.1182
vn -0.5742 -0.4039 -0.7121
vn -0.6105 -0.3853 -0.6920
vn -0.2675 -0.5059 -0.8200
vn -0.2637 -0.5067 -0.8208
vn 0.0006 0.3752 0.9269
vn -0.0383 -0.5905 -0.8061
vn -0.0425 -0.5824 -0.8118
vn -0.7725 0.6146 0.1598
vn -0.7816 0.6021 0.1630
vn -0.7196 0.6859 0.1080
vn -0.7187 0.6871 0.1062
vn -0.9061 0.1405 -0.3991
vn -0.9074 0.1576 -0.3897
vn -0.8224 -0.1510 -0.5486
vn -0.8061 -0.1821 -0.5631
vn -0.7510 0.5460 0.3714
vn -0.7544 0.5467 0.3633
vn -0.1021 0.3960 0.9126
vn -0.1139 0.3985 0.9101
vn -0.8695 0.4302 -0.2427
vn -0.8709 0.4262 -0.2446
vn -0.8122 0.5539 0.1833
vn -0.8123 0.5540 0.1824
vn -0.0472 0.2402 -0.9696
vn -0.0469 0.3841 -0.9221
vn -0.0756 0.2615 -0.9622
vn -0.0766 0.3908 -0.9173
vn -0.0835 0.4169 -0.9051
vn -0.0391 0.6401 -0.7673
vn -0.0655 0.6056 -0.7930
vn -0.0695 0.6130 -0.7870
vn -0.0235 0.8195 -0.5726
vn -0.0440 0.7911 -0.6101
vn -0.0514 0.7941 -0.6056
vn -0.0101 0.9139 -0.4057
vn -0.0247 0.9050 -0.4246
vn -0.0342 0.9025 -0.4294
vn -0.0029 0.9606 -0.2780
vn -0.0106 0.9598 -0.2806
vn -0.0171 0.9583 -0.2852
vn 0.0007 0.9876 -0.1570
vn 0.0016 0.9884 -0.1520
vn 0.0029 0.9887 -0.1501
vn 0.0018 0.9984 -0.0570
vn 0.0123 0.9985 -0.0539
vn 0.0216 0.9981 -0.0573
vn 0.0019 1.0000 -0.0080
vn 0.0227 0.9997 -0.0076
vn 0.0420 0.9991 -0.0092
vn 0.0005 0.9998 0.0180
vn 0.0024 0.9998 0.0180
vn -0.0053 0.9995 0.0298
vn -0.0023 0.9998 0.0212
vn -0.0012 0.9998 0.0206
vn -0.0106 0.9998 0.0155
vn -0.0144 0.9998 0.0128
vn -0.0093 0.9998 0.0186
vn 0.0018 0.9990 0.0449
vt 0.427239 0.809193
vt 0.346824 0.809140
vt 0.304171 0.790456
vt 0.507304 0.790815
vt 0.148332 0.794617
vt 0.110336 0.769261
vt 0.119717 0.757758
vt 0.155560 0.779347
vt 0.010180 0.369554
vt 0.006416 0.342673
vt 0.023314 0.344935
vt 0.024810 0.369984
vt 0.038681 0.232435
vt 0.067878 0.217407
vt 0.074154 0.235897
vt 0.051244 0.252805
vt 0.304081 0.809210
vt 0.225482 0.202125
vt 0.500229 0.190790
vt 0.500455 0.209999
vt 0.224546 0.218838
vt 0.044662 0.563074
vt 0.024273 0.450910
vt 0.034891 0.449530
vt 0.056271 0.563000
vt 0.001592 0.305627
vt 0.014951 0.266288
vt 0.034934 0.280196
vt 0.025214 0.311290
vt 0.083902 0.732481
vt 0.095954 0.726999
vt 0.186659 0.807582
vt 0.191475 0.788786
vt 0.003160 0.326660
vt 0.023494 0.326899
vt 0.507521 0.809210
vt 0.064279 0.658881
vt 0.076649 0.656918
vt 0.500763 0.236118
vt 0.225896 0.244968
vt 0.076472 0.256546
vt 0.501054 0.260773
vt 0.226739 0.269549
vt 0.077923 0.280055
vt 0.501423 0.292109
vt 0.227256 0.298292
vt 0.078494 0.309308
vt 0.501610 0.307945
vt 0.227410 0.314912
vt 0.078222 0.325450
vt 0.501840 0.327464
vt 0.227521 0.334464
vt 0.077601 0.344487
vt 0.502131 0.352117
vt 0.227592 0.358971
vt 0.076692 0.366593
vt 0.503117 0.435744
vt 0.227412 0.442213
vt 0.073393 0.449259
vt 0.504457 0.549344
vt 0.227076 0.555300
vt 0.072098 0.562126
vt 0.505689 0.653877
vt 0.227241 0.654190
vt 0.227499 0.725772
vt 0.506543 0.726241
vt 0.506936 0.759590
vt 0.227409 0.758640
vt 0.587780 0.807299
vt 0.710373 0.785666
vt 0.668172 0.805350
vt 0.866266 0.786151
vt 0.858680 0.771055
vt 0.894004 0.748627
vt 0.903653 0.759906
vt 0.994357 0.357948
vt 0.979741 0.358723
vt 0.980646 0.333646
vt 0.997486 0.330986
vt 0.962630 0.221539
vt 0.950550 0.242200
vt 0.927248 0.225837
vt 0.933086 0.207205
vt 0.710905 0.804413
vt 0.775166 0.195643
vt 0.776495 0.212330
vt 0.964447 0.552227
vt 0.952839 0.552427
vt 0.971538 0.438485
vt 0.982185 0.439614
vt 1.001435 0.293836
vt 0.977952 0.300055
vt 0.967502 0.269199
vt 0.987151 0.254824
vt 0.917035 0.717317
vt 0.929213 0.722512
vt 0.822997 0.781339
vt 0.828255 0.800017
vt 0.980040 0.315619
vt 1.000363 0.314901
vt 0.934682 0.646799
vt 0.947095 0.648470
vt 0.775762 0.238484
vt 0.925418 0.246535
vt 0.775499 0.263077
vt 0.924522 0.270072
vt 0.775661 0.291825
vt 0.924641 0.299330
vt 0.775898 0.308444
vt 0.925293 0.315461
vt 0.776248 0.327993
vt 0.926363 0.334479
vt 0.776755 0.352495
vt 0.927793 0.356557
vt 0.778898 0.435710
vt 0.933040 0.439122
vt 0.781900 0.548758
vt 0.936996 0.551927
vt 0.784068 0.647623
vt 0.785497 0.719192
vt 0.786363 0.752049
s 1
f 2/1/1 3/2/2 22/3/3 21/4/4
f 6/5/5 7/6/6 25/7/7 24/8/8
f 12/9/9 13/10/10 31/11/11 30/12/12
f 17/13/13 18/14/14 36/15/15 35/16/16
f 3/2/2 4/17/17 22/3/3
f 20/18/18 19/19/19 37/20/19 38/21/20
f 10/22/21 11/23/22 29/24/23 28/25/24
f 15/26/25 16/27/26 34/28/27 33/29/28
f 7/6/6 8/30/29 26/31/30 25/7/7
f 4/17/17 5/32/31 23/33/32 22/3/3
f 13/10/10 14/34/33 32/35/34 31/11/11
f 18/14/14 20/18/18 38/21/20 36/15/15
f 1/36/4 2/1/1 21/4/4
f 8/30/29 9/37/35 27/38/36 26/31/30
f 11/23/22 12/9/9 30/12/12 29/24/23
f 16/27/26 17/13/13 35/16/16 34/28/27
f 5/32/31 6/5/5 24/8/8 23/33/32
f 9/37/35 10/22/21 28/25/24 27/38/36
f 14/34/33 15/26/25 33/29/28 32/35/34
f 38/21/37 37/20/38 40/39/39 41/40/40
f 36/15/41 38/21/37 41/40/40 39/41/42
f 36/15/41 39/41/42 35/16/43
f 41/40/40 40/39/39 43/42/44 44/43/45
f 39/41/42 41/40/40 44/43/45 42/44/46
f 35/16/43 39/41/42 42/44/46 34/28/47
f 44/43/45 43/42/44 46/45/48 47/46/49
f 42/44/46 44/43/45 47/46/49 45/47/50
f 34/28/47 42/44/46 45/47/50 33/29/51
f 47/46/49 46/45/48 49/48/52 50/49/53
f 45/47/50 47/46/49 50/49/53 48/50/54
f 33/29/51 45/47/50 48/50/54 32/35/55
f 50/49/53 49/48/52 52/51/56 53/52/57
f 48/50/54 50/49/53 53/52/57 51/53/58
f 32/35/55 48/50/54 51/53/58 31/11/59
f 53/52/57 52/51/56 55/54/60 56/55/61
f 51/53/58 53/52/57 56/55/61 54/56/62
f 31/11/59 51/53/58 54/56/62 30/12/63
f 56/55/61 55/54/60 58/57/64 59/58/65
f 54/56/62 56/55/61 59/58/65 57/59/66
f 30/12/63 54/56/62 57/59/66 29/24/67
f 59/58/65 58/57/64 61/60/68 62/61/69
f 57/59/66 59/58/65 62/61/69 60/62/70
f 29/24/67 57/59/66 60/62/70 28/25/71
f 62/61/69 61/60/68 63/63/72 64/64/73
f 60/62/70 62/61/69 64/64/73 27/38/74
f 27/38/74 28/25/71 60/62/70
f 27/38/74 64/64/73 67/65/75 26/31/76
f 64/64/73 63/63/72 66/66/72 67/65/75
f 67/65/75 66/66/72 65/67/77 68/68/78
f 26/31/76 67/65/75 68/68/78 25/7/79
f 24/8/80 25/7/79 68/68/78
f 24/8/80 68/68/78 23/33/81
f 23/33/81 68/68/78 22/3/82
f 65/67/77 21/4/83 22/3/82 68/68/78
f 69/69/1 21/4/4 87/70/84 70/71/2
f 73/72/85 89/73/86 90/74/87 74/75/88
f 79/76/89 95/77/90 96/78/91 80/79/92
f 84/80/93 100/81/94 101/82/95 85/83/96
f 70/71/2 87/70/84 71/84/97
f 86/85/98 102/86/99 37/20/19 19/19/19
f 77/87/100 93/88/101 94/89/102 78/90/103
f 82/91/104 98/92/105 99/93/106 83/94/107
f 74/75/88 90/74/87 91/95/108 75/96/109
f 71/84/97 87/70/84 88/97/110 72/98/111
f 80/79/92 96/78/91 97/99/112 81/100/113
f 85/83/96 101/82/95 102/86/99 86/85/98
f 1/36/4 21/4/4 69/69/1
f 75/96/109 91/95/108 92/101/114 76/102/115
f 78/90/103 94/89/102 95/77/90 79/76/89
f 83/94/107 99/93/106 100/81/94 84/80/93
f 72/98/111 88/97/110 89/73/86 73/72/85
f 76/102/115 92/101/114 93/88/101 77/87/100
f 81/100/113 97/99/112 98/92/105 82/91/104
f 102/86/116 104/103/117 40/39/39 37/20/38
f 101/82/118 103/104/119 104/103/117 102/86/116
f 101/82/118 100/81/120 103/104/119
f 104/103/117 106/105/121 43/42/44 40/39/39
f 103/104/119 105/106/122 106/105/121 104/103/117
f 100/81/120 99/93/123 105/106/122 103/104/119
f 106/105/121 108/107/124 46/45/48 43/42/44
f 105/106/122 107/108/125 108/107/124 106/105/121
f 99/93/123 98/92/126 107/108/125 105/106/122
f 108/107/124 110/109/127 49/48/52 46/45/48
f 107/108/125 109/110/128 110/109/127 108/107/124
f 98/92/126 97/99/129 109/110/128 107/108/125
f 110/109/127 112/111/130 52/51/56 49/48/52
f 109/110/128 111/112/131 112/111/130 110/109/127
f 97/99/129 96/78/132 111/112/131 109/110/128
f 112/111/130 114/113/133 55/54/60 52/51/56
f 111/112/131 113/114/134 114/113/133 112/111/130
f 96/78/132 95/77/135 113/114/134 111/112/131
f 114/113/133 116/115/136 58/57/64 55/54/60
f 113/114/134 115/116/137 116/115/136 114/113/133
f 95/77/135 94/89/138 115/116/137 113/114/134
f 116/115/136 118/117/139 61/60/68 58/57/64
f 115/116/137 117/118/140 118/117/139 116/115/136
f 94/89/138 93/88/141 117/118/140 115/116/137
f 118/117/139 119/119/142 63/63/72 61/60/68
f 117/118/140 92/101/143 119/119/142 118/117/139
f 92/101/143 117/118/140 93/88/141
f 92/101/143 91/95/144 120/120/145 119/119/142
f 119/119/142 120/120/145 66/66/72 63/63/72
f 120/120/145 121/121/146 65/67/77 66/66/72
f 91/95/144 90/74/147 121/121/146 120/120/145
f 89/73/148 121/121/146 90/74/147
f 89/73/148 88/97/149 121/121/146
f 88/97/149 87/70/150 121/121/146
f 65/67/77 121/121/146 87/70/150 21/4/83
