# Blender 4.1.0
# www.blender.org
o Square_Button
v 0.484773 0.303540 -0.358563
v 0.509986 0.303338 -0.353502
v 0.531342 0.302811 -0.339185
v 0.545589 0.302040 -0.317789
v 0.550559 0.301141 -0.292573
v 0.545495 0.300251 -0.267376
v 0.531167 0.299507 -0.246033
v 0.509758 0.299021 -0.231794
v 0.484526 0.298867 -0.226827
v 0.459313 0.299068 -0.231887
v 0.437957 0.299595 -0.246205
v 0.423710 0.300367 -0.267601
v 0.418740 0.301266 -0.292817
v 0.423805 0.302155 -0.318014
v 0.438132 0.302900 -0.339357
v 0.459542 0.303386 -0.353596
v 0.484793 0.325696 -0.357777
v 0.510006 0.325495 -0.352716
v 0.531362 0.324968 -0.338399
v 0.545609 0.324196 -0.317003
v 0.550579 0.323297 -0.291787
v 0.545514 0.322408 -0.266590
v 0.531187 0.321663 -0.245247
v 0.509777 0.321177 -0.231008
v 0.484546 0.321023 -0.226041
v 0.459333 0.321225 -0.231101
v 0.437977 0.321752 -0.245419
v 0.423730 0.322523 -0.266815
v 0.418760 0.323422 -0.292030
v 0.423824 0.324312 -0.317228
v 0.438152 0.325056 -0.338571
v 0.459561 0.325543 -0.352809
v 0.484789 0.330210 -0.352987
v 0.508232 0.330022 -0.348282
v 0.528088 0.329532 -0.334969
v 0.541335 0.328815 -0.315076
v 0.545956 0.327979 -0.291630
v 0.541247 0.327152 -0.268201
v 0.527925 0.326460 -0.248357
v 0.508019 0.326008 -0.235117
v 0.484558 0.325865 -0.230499
v 0.461115 0.326052 -0.235204
v 0.441259 0.326542 -0.248517
v 0.428012 0.327260 -0.268410
v 0.423391 0.328096 -0.291856
v 0.428100 0.328923 -0.315285
v 0.441421 0.329615 -0.335129
v 0.461328 0.330067 -0.348368
v 0.484777 0.332567 -0.345302
v 0.505314 0.332402 -0.341180
v 0.522708 0.331973 -0.329517
v 0.534313 0.331344 -0.312090
v 0.538361 0.330612 -0.291551
v 0.534236 0.329888 -0.271026
v 0.522566 0.329281 -0.253642
v 0.505127 0.328885 -0.242044
v 0.484575 0.328760 -0.237998
v 0.464038 0.328924 -0.242120
v 0.446643 0.329353 -0.253782
v 0.435038 0.329982 -0.271210
v 0.430990 0.330714 -0.291749
v 0.435115 0.331439 -0.312273
v 0.446785 0.332045 -0.329657
v 0.464224 0.332441 -0.341256
v 0.484752 0.333802 -0.331146
v 0.499893 0.333681 -0.328107
v 0.512719 0.333364 -0.319508
v 0.521275 0.332901 -0.306659
v 0.524260 0.332361 -0.291515
v 0.521218 0.331827 -0.276383
v 0.512614 0.331380 -0.263565
v 0.499756 0.331088 -0.255014
v 0.484603 0.330995 -0.252031
v 0.469461 0.331116 -0.255070
v 0.456636 0.331433 -0.263668
v 0.448079 0.331896 -0.276518
v 0.445095 0.332436 -0.291661
v 0.448136 0.332970 -0.306794
v 0.456741 0.333417 -0.319611
v 0.469598 0.333709 -0.328163
v 0.484678 0.333508 -0.291549
vn 0.0019 0.0355 -0.9994
vn 0.3844 0.0324 -0.9226
vn 0.7084 0.0244 -0.7054
vn 0.9246 0.0127 -0.3807
vn 1.0000 -0.0009 0.0018
vn 0.9232 -0.0144 0.3841
vn 0.7058 -0.0257 0.7080
vn 0.3809 -0.0331 0.9240
vn -0.0019 -0.0355 0.9994
vn -0.3844 -0.0324 0.9226
vn -0.7084 -0.0244 0.7054
vn -0.9246 -0.0127 0.3807
vn -1.0000 0.0009 -0.0018
vn -0.9232 0.0144 -0.3841
vn -0.7058 0.0257 -0.7080
vn -0.3809 0.0331 -0.9240
vn 0.0021 0.3658 -0.9307
vn 0.3628 0.3629 -0.8583
vn 0.6684 0.3554 -0.6534
vn 0.8723 0.3443 -0.3473
vn 0.9434 0.3315 0.0135
vn 0.8709 0.3188 0.3741
vn 0.6659 0.3081 0.6795
vn 0.3596 0.3011 0.8832
vn -0.0015 0.2989 0.9543
vn -0.3622 0.3018 0.8819
vn -0.6678 0.3094 0.6770
vn -0.8717 0.3204 0.3709
vn -0.9428 0.3333 0.0101
vn -0.8703 0.3460 -0.3505
vn -0.6653 0.3566 -0.6559
vn -0.3590 0.3636 -0.8596
vn 0.0018 0.8456 -0.5338
vn 0.2173 0.8439 -0.4905
vn 0.3999 0.8394 -0.3681
vn 0.5217 0.8328 -0.1852
vn 0.5642 0.8251 0.0303
vn 0.5209 0.8175 0.2457
vn 0.3984 0.8111 0.4282
vn 0.2154 0.8070 0.5499
vn -0.0003 0.8057 0.5924
vn -0.2159 0.8074 0.5491
vn -0.3984 0.8119 0.4267
vn -0.5202 0.8185 0.2438
vn -0.5627 0.8262 0.0283
vn -0.5194 0.8338 -0.1871
vn -0.3969 0.8401 -0.3696
vn -0.2139 0.8443 -0.4913
vn 0.0013 0.9788 -0.2048
vn 0.0929 0.9781 -0.1864
vn 0.1704 0.9762 -0.1344
vn 0.2222 0.9734 -0.0567
vn 0.2402 0.9701 0.0349
vn 0.2218 0.9669 0.1264
vn 0.1698 0.9642 0.2039
vn 0.0920 0.9624 0.2556
vn 0.0004 0.9618 0.2736
vn -0.0912 0.9626 0.2553
vn -0.1687 0.9645 0.2033
vn -0.2205 0.9673 0.1256
vn -0.2385 0.9705 0.0340
vn -0.2201 0.9738 -0.0575
vn -0.1681 0.9765 -0.1350
vn -0.0903 0.9782 -0.1868
vn 0.0010 0.9990 -0.0458
vn 0.0321 0.9987 -0.0395
vn 0.0584 0.9981 -0.0219
vn 0.0759 0.9971 0.0044
vn 0.0820 0.9960 0.0355
vn 0.0758 0.9949 0.0665
vn 0.0581 0.9940 0.0928
vn 0.0318 0.9934 0.1103
vn 0.0007 0.9932 0.1164
vn -0.0303 0.9934 0.1102
vn -0.0566 0.9941 0.0926
vn -0.0741 0.9950 0.0662
vn -0.0803 0.9962 0.0352
vn -0.0740 0.9972 0.0042
vn -0.0564 0.9982 -0.0221
vn -0.0300 0.9988 -0.0396
vn 0.0009 0.9994 0.0355
vt 0.883466 0.577533
vt 0.849322 0.570713
vt 0.796101 0.699082
vt 0.825830 0.718954
vt 0.074918 0.219003
vt 0.174342 0.282874
vt 0.282976 0.175253
vt 0.215379 0.077794
vt 0.784228 0.924120
vt 0.717277 0.826660
vt 0.575934 0.884469
vt 0.600374 0.999900
vt 0.423944 0.115796
vt 0.398896 0.000100
vt 0.423529 0.883834
vt 0.402264 0.999900
vt 0.577094 0.116584
vt 0.598701 0.000195
vt 0.282480 0.826086
vt 0.218732 0.925123
vt 0.717940 0.175887
vt 0.782310 0.076498
vt 0.175201 0.717672
vt 0.078074 0.785040
vt 0.923575 0.216307
vt 0.826424 0.283432
vt 0.884123 0.424955
vt 0.999653 0.400363
vt 0.115859 0.577091
vt 0.000589 0.602247
vt 0.999829 0.598749
vt 0.116601 0.424334
vt 0.000100 0.403236
vt 0.925179 0.782919
vt 0.302309 0.796444
vt 0.327666 0.758543
vt 0.242191 0.673005
vt 0.204151 0.698319
vt 0.150789 0.431134
vt 0.204077 0.302726
vt 0.697525 0.797402
vt 0.302382 0.204282
vt 0.568910 0.849954
vt 0.430930 0.150905
vt 0.430345 0.849763
vt 0.570347 0.151256
vt 0.698532 0.204822
vt 0.796690 0.303249
vt 0.849556 0.431988
vt 0.150869 0.570094
vt 0.327745 0.242428
vt 0.373274 0.310559
vt 0.455810 0.276475
vt 0.439887 0.196027
vt 0.758646 0.328712
vt 0.804722 0.440782
vt 0.673135 0.242878
vt 0.195768 0.561243
vt 0.804532 0.561658
vt 0.195781 0.440080
vt 0.758086 0.673504
vt 0.242098 0.328113
vt 0.672118 0.759121
vt 0.560123 0.805146
vt 0.439317 0.804920
vt 0.561367 0.196254
vt 0.276058 0.456061
vt 0.500182 0.500775
vt 0.310171 0.373653
vt 0.544404 0.724914
vt 0.455351 0.724775
vt 0.545122 0.276570
vt 0.373093 0.690597
vt 0.627469 0.310851
vt 0.310150 0.627585
vt 0.690443 0.374031
vt 0.724434 0.456499
vt 0.276022 0.545244
vt 0.724289 0.545623
vt 0.690036 0.627978
vt 0.626801 0.690945
s 1
f 19/1/19 35/2/35 36/3/36 20/4/20
f 12/5/12 28/6/28 29/7/29 13/8/13
f 5/9/5 21/10/21 22/11/22 6/12/6
f 13/8/13 29/7/29 30/13/30 14/14/14
f 6/12/6 22/11/22 23/15/23 7/16/7
f 14/14/14 30/13/30 31/17/31 15/18/15
f 7/16/7 23/15/23 24/19/24 8/20/8
f 15/18/15 31/17/31 32/21/32 16/22/16
f 8/20/8 24/19/24 25/23/25 9/24/9
f 1/25/1 17/26/17 18/27/18 2/28/2
f 16/22/16 32/21/32 17/26/17 1/25/1
f 9/24/9 25/23/25 26/29/26 10/30/10
f 2/28/2 18/27/18 19/1/19 3/31/3
f 10/30/10 26/29/26 27/32/27 11/33/11
f 3/31/3 19/1/19 20/4/20 4/34/4
f 11/33/11 27/32/27 28/6/28 12/5/12
f 4/34/4 20/4/20 21/10/21 5/9/5
f 40/35/40 56/36/56 57/37/57 41/38/41
f 27/32/27 43/39/43 44/40/44 28/6/28
f 20/4/20 36/3/36 37/41/37 21/10/21
f 28/6/28 44/40/44 45/42/45 29/7/29
f 21/10/21 37/41/37 38/43/38 22/11/22
f 29/7/29 45/42/45 46/44/46 30/13/30
f 22/11/22 38/43/38 39/45/39 23/15/23
f 30/13/30 46/44/46 47/46/47 31/17/31
f 23/15/23 39/45/39 40/35/40 24/19/24
f 31/17/31 47/46/47 48/47/48 32/21/32
f 24/19/24 40/35/40 41/38/41 25/23/25
f 17/26/17 33/48/33 34/49/34 18/27/18
f 32/21/32 48/47/48 33/48/33 17/26/17
f 25/23/25 41/38/41 42/50/42 26/29/26
f 18/27/18 34/49/34 35/2/35 19/1/19
f 26/29/26 42/50/42 43/39/43 27/32/27
f 61/51/61 77/52/77 78/53/78 62/54/62
f 33/48/33 49/55/49 50/56/50 34/49/34
f 48/47/48 64/57/64 49/55/49 33/48/33
f 41/38/41 57/37/57 58/58/58 42/50/42
f 34/49/34 50/56/50 51/59/51 35/2/35
f 42/50/42 58/58/58 59/60/59 43/39/43
f 35/2/35 51/59/51 52/61/52 36/3/36
f 43/39/43 59/60/59 60/62/60 44/40/44
f 36/3/36 52/61/52 53/63/53 37/41/37
f 44/40/44 60/62/60 61/51/61 45/42/45
f 37/41/37 53/63/53 54/64/54 38/43/38
f 45/42/45 61/51/61 62/54/62 46/44/46
f 38/43/38 54/64/54 55/65/55 39/45/39
f 46/44/46 62/54/62 63/66/63 47/46/47
f 39/45/39 55/65/55 56/36/56 40/35/40
f 47/46/47 63/66/63 64/57/64 48/47/48
f 75/67/75 81/68/81 76/69/76
f 54/64/54 70/70/70 71/71/71 55/65/55
f 62/54/62 78/53/78 79/72/79 63/66/63
f 55/65/55 71/71/71 72/73/72 56/36/56
f 63/66/63 79/72/79 80/74/80 64/57/64
f 56/36/56 72/73/72 73/75/73 57/37/57
f 49/55/49 65/76/65 66/77/66 50/56/50
f 64/57/64 80/74/80 65/76/65 49/55/49
f 57/37/57 73/75/73 74/78/74 58/58/58
f 50/56/50 66/77/66 67/79/67 51/59/51
f 58/58/58 74/78/74 75/67/75 59/60/59
f 51/59/51 67/79/67 68/80/68 52/61/52
f 59/60/59 75/67/75 76/69/76 60/62/60
f 52/61/52 68/80/68 69/81/69 53/63/53
f 60/62/60 76/69/76 77/52/77 61/51/61
f 53/63/53 69/81/69 70/70/70 54/64/54
f 68/80/68 81/68/81 69/81/69
f 76/69/76 81/68/81 77/52/77
f 69/81/69 81/68/81 70/70/70
f 77/52/77 81/68/81 78/53/78
f 70/70/70 81/68/81 71/71/71
f 78/53/78 81/68/81 79/72/79
f 71/71/71 81/68/81 72/73/72
f 79/72/79 81/68/81 80/74/80
f 72/73/72 81/68/81 73/75/73
f 65/76/65 81/68/81 66/77/66
f 80/74/80 81/68/81 65/76/65
f 73/75/73 81/68/81 74/78/74
f 66/77/66 81/68/81 67/79/67
f 74/78/74 81/68/81 75/67/75
f 67/79/67 81/68/81 68/80/68
