# Blender 4.1.0
# www.blender.org
o Back_Button
v -0.204696 0.251437 -0.356329
v -0.204696 0.259097 -0.353183
v -0.224590 0.251437 -0.352926
v -0.223190 0.259097 -0.350021
v -0.241456 0.251437 -0.343238
v -0.238869 0.259097 -0.341014
v -0.252726 0.251437 -0.328739
v -0.249346 0.259097 -0.327535
v -0.256683 0.251437 -0.311636
v -0.253024 0.259097 -0.311636
v -0.252726 0.251437 -0.294533
v -0.249346 0.259097 -0.295737
v -0.241456 0.251437 -0.280034
v -0.238869 0.259097 -0.282258
v -0.224590 0.251437 -0.270346
v -0.223190 0.259097 -0.273252
v -0.204696 0.251437 -0.266944
v -0.204696 0.259097 -0.270089
v -0.184801 0.251437 -0.270346
v -0.186201 0.259097 -0.273252
v -0.167935 0.251437 -0.280034
v -0.170522 0.259097 -0.282258
v -0.156666 0.251437 -0.294533
v -0.160046 0.259097 -0.295737
v -0.152708 0.251437 -0.311636
v -0.156367 0.259097 -0.311636
v -0.156666 0.251437 -0.328739
v -0.160046 0.259097 -0.327535
v -0.167935 0.251437 -0.343238
v -0.170522 0.259097 -0.341014
v -0.184801 0.251437 -0.352926
v -0.186201 0.259097 -0.350021
v -0.218037 0.269174 -0.339326
v -0.204696 0.269174 -0.341607
v -0.229348 0.269174 -0.332829
v -0.236905 0.269174 -0.323106
v -0.239559 0.269174 -0.311636
v -0.236905 0.269174 -0.300167
v -0.229348 0.269174 -0.290443
v -0.218037 0.269174 -0.283946
v -0.204696 0.269174 -0.281665
v -0.191354 0.269174 -0.283946
v -0.180044 0.269174 -0.290443
v -0.172486 0.269174 -0.300167
v -0.169832 0.269174 -0.311636
v -0.172486 0.269174 -0.323106
v -0.180044 0.269174 -0.332829
v -0.191354 0.269174 -0.339326
v -0.204696 0.274094 -0.311636
vn -0.0000 0.3798 -0.9251
vn -0.0000 0.5716 -0.8205
vn -0.3094 0.3862 -0.8690
vn -0.2735 0.5791 -0.7680
vn -0.5966 0.4030 -0.6940
vn -0.5222 0.5985 -0.6075
vn -0.8167 0.4222 -0.3935
vn -0.7068 0.6200 -0.3406
vn -0.9024 0.4310 -0.0000
vn -0.7769 0.6296 -0.0000
vn -0.8167 0.4222 0.3935
vn -0.7068 0.6200 0.3406
vn -0.5966 0.4030 0.6940
vn -0.5222 0.5985 0.6075
vn -0.3094 0.3862 0.8690
vn -0.2735 0.5791 0.7680
vn -0.0000 0.3798 0.9251
vn -0.0000 0.5716 0.8205
vn 0.3094 0.3862 0.8690
vn 0.2735 0.5791 0.7680
vn 0.5966 0.4030 0.6940
vn 0.5222 0.5985 0.6075
vn 0.8167 0.4222 0.3935
vn 0.7068 0.6200 0.3406
vn 0.9024 0.4310 -0.0000
vn 0.7769 0.6296 -0.0000
vn 0.8167 0.4222 -0.3935
vn 0.7068 0.6200 -0.3406
vn 0.5966 0.4030 -0.6940
vn 0.5222 0.5985 -0.6075
vn 0.3094 0.3862 -0.8690
vn 0.2735 0.5791 -0.7680
vn -0.1486 0.8965 -0.4174
vn -0.0000 0.8930 -0.4501
vn -0.2773 0.9050 -0.3225
vn -0.3658 0.9139 -0.1762
vn -0.3975 0.9176 -0.0000
vn -0.3658 0.9139 0.1762
vn -0.2773 0.9050 0.3225
vn -0.1486 0.8965 0.4174
vn -0.0000 0.8930 0.4501
vn 0.1486 0.8965 0.4174
vn 0.2773 0.9050 0.3225
vn 0.3658 0.9139 0.1762
vn 0.3975 0.9176 -0.0000
vn 0.3658 0.9139 -0.1762
vn 0.2773 0.9050 -0.3225
vn 0.1486 0.8965 -0.4174
vn -0.0000 1.0000 -0.0000
vt 0.500827 0.094524
vt 0.691943 0.127206
vt 0.678492 0.155121
vt 0.500827 0.124739
vt 0.853963 0.220273
vt 0.829110 0.241638
vt 0.962221 0.359559
vt 0.929749 0.371121
vt 1.000236 0.523857
vt 0.965089 0.523857
vt 0.962221 0.688155
vt 0.929749 0.676592
vt 0.853963 0.827441
vt 0.829110 0.806075
vt 0.691943 0.920508
vt 0.678492 0.892593
vt 0.500827 0.953189
vt 0.500827 0.922974
vt 0.309711 0.920508
vt 0.323161 0.892593
vt 0.147691 0.827441
vt 0.172544 0.806075
vt 0.039433 0.688155
vt 0.071904 0.676592
vt 0.001417 0.523857
vt 0.036565 0.523857
vt 0.039433 0.359558
vt 0.071904 0.371122
vt 0.147691 0.220273
vt 0.172544 0.241638
vt 0.810243 0.634037
vt 0.835737 0.523857
vt 0.309711 0.127206
vt 0.323161 0.155121
vt 0.264010 0.727444
vt 0.372662 0.789856
vt 0.372662 0.257857
vt 0.264010 0.320270
vt 0.810243 0.413676
vt 0.737644 0.320270
vt 0.500827 0.811772
vt 0.628991 0.789856
vt 0.628991 0.257857
vt 0.500827 0.235941
vt 0.191410 0.413676
vt 0.165917 0.523857
vt 0.737644 0.727444
vt 0.191410 0.634037
vt 0.500827 0.523857
s 1
f 1/1/1 3/2/3 4/3/4 2/4/2
f 3/2/3 5/5/5 6/6/6 4/3/4
f 5/5/5 7/7/7 8/8/8 6/6/6
f 7/7/7 9/9/9 10/10/10 8/8/8
f 9/9/9 11/11/11 12/12/12 10/10/10
f 11/11/11 13/13/13 14/14/14 12/12/12
f 13/13/13 15/15/15 16/16/16 14/14/14
f 15/15/15 17/17/17 18/18/18 16/16/16
f 17/17/17 19/19/19 20/20/20 18/18/18
f 19/19/19 21/21/21 22/22/22 20/20/20
f 21/21/21 23/23/23 24/24/24 22/22/22
f 23/23/23 25/25/25 26/26/26 24/24/24
f 25/25/25 27/27/27 28/28/28 26/26/26
f 27/27/27 29/29/29 30/30/30 28/28/28
f 12/12/12 38/31/38 37/32/37 10/10/10
f 29/29/29 31/33/31 32/34/32 30/30/30
f 31/33/31 1/1/1 2/4/2 32/34/32
f 22/22/22 43/35/43 42/36/42 20/20/20
f 32/34/32 48/37/48 47/38/47 30/30/30
f 8/8/8 36/39/36 35/40/35 6/6/6
f 18/18/18 41/41/41 40/42/40 16/16/16
f 4/3/4 33/43/33 34/44/34 2/4/2
f 28/28/28 46/45/46 45/46/45 26/26/26
f 14/14/14 39/47/39 38/31/38 12/12/12
f 24/24/24 44/48/44 43/35/43 22/22/22
f 2/4/2 34/44/34 48/37/48 32/34/32
f 10/10/10 37/32/37 36/39/36 8/8/8
f 20/20/20 42/36/42 41/41/41 18/18/18
f 30/30/30 47/38/47 46/45/46 28/28/28
f 6/6/6 35/40/35 33/43/33 4/3/4
f 16/16/16 40/42/40 39/47/39 14/14/14
f 26/26/26 45/46/45 44/48/44 24/24/24
f 45/46/45 49/49/49 44/48/44
f 38/31/38 49/49/49 37/32/37
f 46/45/46 49/49/49 45/46/45
f 39/47/39 49/49/49 38/31/38
f 47/38/47 49/49/49 46/45/46
f 40/42/40 49/49/49 39/47/39
f 48/37/48 49/49/49 47/38/47
f 41/41/41 49/49/49 40/42/40
f 33/43/33 49/49/49 34/44/34
f 34/44/34 49/49/49 48/37/48
f 42/36/42 49/49/49 41/41/41
f 35/40/35 49/49/49 33/43/33
f 43/35/43 49/49/49 42/36/42
f 36/39/36 49/49/49 35/40/35
f 44/48/44 49/49/49 43/35/43
f 37/32/37 49/49/49 36/39/36
