# Blender 4.1.0
# www.blender.org
o Dpad_Up
v -0.291490 0.336474 0.008743
v -0.355593 0.319884 -0.055360
v -0.355593 0.333442 -0.055360
v -0.352817 0.339202 -0.052585
v -0.349583 0.340900 -0.049350
v -0.317019 0.337804 -0.016787
v -0.291490 0.317956 -0.140217
v -0.291490 0.334968 -0.140217
v -0.320550 0.317956 -0.137355
v -0.320550 0.334968 -0.137355
v -0.341164 0.318480 -0.111182
v -0.341164 0.334443 -0.111182
v -0.345849 0.319356 -0.072611
v -0.345849 0.333567 -0.072611
v -0.334085 0.318185 -0.129790
v -0.334104 0.334738 -0.129766
v -0.318888 0.339378 -0.133446
v -0.291490 0.339378 -0.135950
v -0.331117 0.339378 -0.126820
v -0.343186 0.339378 -0.070004
v -0.338252 0.339378 -0.108853
v -0.317019 0.341127 -0.129420
v -0.291490 0.341127 -0.131171
v -0.328175 0.341127 -0.123590
v -0.339506 0.341127 -0.067118
v -0.334315 0.341127 -0.106388
v -0.291490 0.339797 -0.106388
v -0.312678 0.340462 -0.106388
v -0.291490 0.338468 -0.067118
v -0.317019 0.339797 -0.067118
v -0.291490 0.337139 -0.016856
v -0.334717 0.339133 -0.034484
v -0.227387 0.319884 -0.055360
v -0.227387 0.333442 -0.055360
v -0.230162 0.339202 -0.052585
v -0.233397 0.340900 -0.049350
v -0.265960 0.337804 -0.016787
v -0.262429 0.317956 -0.137355
v -0.262429 0.334968 -0.137355
v -0.241815 0.318480 -0.111182
v -0.241815 0.334443 -0.111182
v -0.237131 0.319356 -0.072611
v -0.237131 0.333567 -0.072611
v -0.248894 0.318185 -0.129790
v -0.248875 0.334738 -0.129766
v -0.264091 0.339378 -0.133446
v -0.251863 0.339378 -0.126820
v -0.239794 0.339378 -0.070004
v -0.244728 0.339378 -0.108853
v -0.265961 0.341127 -0.129420
v -0.254804 0.341127 -0.123590
v -0.243473 0.341127 -0.067118
v -0.248664 0.341127 -0.106388
v -0.270301 0.340462 -0.106388
v -0.265960 0.339797 -0.067118
v -0.248263 0.339133 -0.034484
vn -0.0000 0.9997 0.0260
vn -0.8707 -0.0000 -0.4918
vn -0.8350 0.2915 -0.4667
vn -0.5276 0.7997 -0.2866
vn -0.0990 0.9943 -0.0407
vn 0.0349 0.9989 0.0329
vn -0.0000 -0.0000 -1.0000
vn -0.0000 0.3618 -0.9323
vn -0.2985 0.0002 -0.9544
vn -0.2833 0.3557 -0.8907
vn -0.9705 -0.0001 -0.2411
vn -0.9275 0.2905 -0.2354
vn -0.9510 -0.0000 -0.3092
vn -0.9179 0.2777 -0.2835
vn -0.7545 -0.0000 -0.6563
vn -0.7135 0.3332 -0.6163
vn -0.1697 0.8168 -0.5514
vn -0.0000 0.8233 -0.5675
vn -0.4571 0.7993 -0.3901
vn -0.5900 0.7844 -0.1917
vn -0.6343 0.7585 -0.1492
vn -0.0490 0.9814 -0.1857
vn -0.0000 0.9848 -0.1740
vn -0.1630 0.9773 -0.1356
vn -0.1242 0.9917 -0.0343
vn -0.1861 0.9817 -0.0403
vn -0.0000 0.9994 0.0340
vn 0.0316 0.9992 0.0257
vn -0.0000 0.9995 0.0304
vn 0.0452 0.9985 0.0304
vn -0.0000 0.9996 0.0295
vn 0.0463 0.9979 0.0446
vn 0.8707 -0.0000 -0.4918
vn 0.8350 0.2915 -0.4667
vn 0.5276 0.7997 -0.2866
vn 0.0990 0.9943 -0.0407
vn -0.0349 0.9989 0.0329
vn 0.2985 0.0002 -0.9544
vn 0.2833 0.3557 -0.8907
vn 0.9705 -0.0001 -0.2411
vn 0.9275 0.2905 -0.2354
vn 0.9510 -0.0000 -0.3092
vn 0.9179 0.2777 -0.2835
vn 0.7545 -0.0000 -0.6563
vn 0.7135 0.3332 -0.6163
vn 0.1697 0.8168 -0.5514
vn 0.4571 0.7993 -0.3901
vn 0.5900 0.7844 -0.1917
vn 0.6343 0.7585 -0.1492
vn 0.0490 0.9814 -0.1857
vn 0.1630 0.9773 -0.1356
vn 0.1242 0.9917 -0.0343
vn 0.1861 0.9817 -0.0403
vn -0.0316 0.9992 0.0257
vn -0.0452 0.9985 0.0304
vn -0.0463 0.9979 0.0446
vt 0.499007 0.026217
vt 0.584170 0.036452
vt 0.569175 0.080197
vt 0.499098 0.071840
vt 0.628077 0.059129
vt 0.601394 0.095951
vt 0.669782 0.109163
vt 0.710871 0.220900
vt 0.670819 0.239036
vt 0.629686 0.135055
vt 0.730793 0.268220
vt 0.704299 0.294804
vt 0.592374 0.107236
vt 0.586062 0.116004
vt 0.559637 0.104104
vt 0.563952 0.093864
vt 0.654024 0.252269
vt 0.617505 0.145833
vt 0.689966 0.309179
vt 0.499128 0.087199
vt 0.643204 0.262556
vt 0.607908 0.154332
vt 0.679601 0.319574
vt 0.499153 0.099557
vt 0.552960 0.160747
vt 0.499277 0.161804
vt 0.574853 0.268024
vt 0.499494 0.270359
vt 0.578919 0.420540
vt 0.499794 0.420746
vt 0.499952 0.499978
vt 0.633642 0.365676
vt 0.429054 0.080476
vt 0.413884 0.036792
vt 0.396899 0.096359
vt 0.370068 0.059643
vt 0.328563 0.109844
vt 0.368762 0.135576
vt 0.328045 0.239720
vt 0.287921 0.221744
vt 0.295306 0.295774
vt 0.268872 0.269461
vt 0.405963 0.107608
vt 0.434332 0.094123
vt 0.438687 0.104345
vt 0.412310 0.116350
vt 0.380986 0.146305
vt 0.344893 0.252886
vt 0.309609 0.310038
vt 0.390617 0.154766
vt 0.355754 0.263129
vt 0.319954 0.320366
vt 0.445590 0.160961
vt 0.424126 0.268325
vt 0.420747 0.420858
vt 0.365898 0.366198
s 1
f 7/1/7 9/2/9 10/3/10 8/4/8
f 9/2/9 15/5/15 16/6/16 10/3/10
f 11/7/11 13/8/13 14/9/14 12/10/12
f 13/8/13 2/11/2 3/12/3 14/9/14
f 15/5/15 11/7/11 12/10/12 16/6/16
f 19/13/19 24/14/24 22/15/22 17/16/17
f 16/6/16 19/13/19 17/16/17 10/3/10
f 14/9/14 20/17/20 21/18/21 12/10/12
f 3/12/3 4/19/4 20/17/20 14/9/14
f 12/10/12 21/18/21 19/13/19 16/6/16
f 10/3/10 17/16/17 18/20/18 8/4/8
f 20/17/20 25/21/25 26/22/26 21/18/21
f 4/19/4 5/23/5 25/21/25 20/17/20
f 21/18/21 26/22/26 24/14/24 19/13/19
f 17/16/17 22/15/22 23/24/23 18/20/18
f 22/15/22 28/25/28 27/26/27 23/24/23
f 28/25/28 30/27/30 29/28/29 27/26/27
f 26/22/26 25/21/25 30/27/30 28/25/28
f 30/27/30 6/29/6 31/30/31 29/28/29
f 6/29/6 1/31/1 31/30/31
f 25/21/25 5/23/5 32/32/32 30/27/30
f 22/15/22 24/14/24 28/25/28
f 32/32/32 6/29/6 30/27/30
f 24/14/24 26/22/26 28/25/28
f 7/1/7 8/4/8 39/33/39 38/34/38
f 38/34/38 39/33/39 45/35/45 44/36/44
f 40/37/40 41/38/41 43/39/43 42/40/42
f 42/40/42 43/39/43 34/41/34 33/42/33
f 44/36/44 45/35/45 41/38/41 40/37/40
f 47/43/47 46/44/46 50/45/50 51/46/51
f 45/35/45 39/33/39 46/44/46 47/43/47
f 43/39/43 41/38/41 49/47/49 48/48/48
f 34/41/34 43/39/43 48/48/48 35/49/35
f 41/38/41 45/35/45 47/43/47 49/47/49
f 39/33/39 8/4/8 18/20/18 46/44/46
f 48/48/48 49/47/49 53/50/53 52/51/52
f 35/49/35 48/48/48 52/51/52 36/52/36
f 49/47/49 47/43/47 51/46/51 53/50/53
f 46/44/46 18/20/18 23/24/23 50/45/50
f 50/45/50 23/24/23 27/26/27 54/53/54
f 54/53/54 27/26/27 29/28/29 55/54/55
f 53/50/53 54/53/54 55/54/55 52/51/52
f 55/54/55 29/28/29 31/30/31 37/55/37
f 37/55/37 31/30/31 1/31/1
f 52/51/52 55/54/55 56/56/56 36/52/36
f 50/45/50 54/53/54 51/46/51
f 56/56/56 55/54/55 37/55/37
f 51/46/51 54/53/54 53/50/53
