# Blender 4.1.0
# www.blender.org
o Left_Bumper
v 0.109036 -0.111544 0.054199
v 0.095080 -0.112964 0.045026
v 0.106021 -0.142626 0.068616
v 0.089422 -0.135862 0.059176
v 0.109888 -0.086379 0.050781
v 0.096305 -0.085463 0.041533
v 0.110254 -0.053668 0.050903
v 0.093661 -0.053342 0.039350
v 0.107054 -0.025360 0.057801
v 0.088108 -0.024637 0.044434
v 0.097974 -0.003656 0.070672
v 0.074107 -0.009308 0.049011
v 0.059401 -0.003284 0.055931
v 0.006991 -0.009237 0.044062
v 0.007170 -0.004713 0.053096
v -0.066774 -0.012941 0.052422
v -0.065345 -0.007859 0.061920
v -0.135331 -0.018257 0.076095
v -0.134009 -0.013414 0.084397
v -0.195686 -0.030140 0.101600
v -0.193890 -0.023539 0.112486
v -0.229084 -0.057461 0.092432
v -0.232736 -0.040677 0.134820
v -0.236488 -0.069692 0.094686
v -0.249971 -0.079357 0.148836
v -0.235975 -0.102640 0.095681
v -0.237698 -0.122031 0.143674
v -0.229095 -0.116256 0.092610
v -0.225178 -0.130008 0.140088
v -0.216541 -0.124662 0.087362
v -0.212708 -0.136129 0.128931
v -0.196011 -0.129184 0.076307
v -0.193819 -0.140235 0.111316
v -0.171912 -0.131335 0.063702
v -0.170464 -0.142004 0.097395
v -0.124636 -0.131822 0.041458
v -0.121722 -0.143649 0.077510
v -0.087302 -0.132275 0.029613
v -0.086720 -0.143745 0.071524
v -0.028632 -0.132298 0.019020
v -0.027791 -0.143560 0.050721
v 0.044515 -0.130941 0.018126
v 0.047301 -0.144294 0.057210
v 0.076611 -0.108413 0.018300
v 0.106021 -0.142626 0.068616
v 0.066868 -0.126264 0.020398
v 0.078996 -0.083902 0.018076
v 0.066123 -0.042668 0.017394
v 0.074441 -0.051920 0.017507
v 0.007786 -0.038649 0.013747
v -0.068177 -0.037694 0.022646
v -0.138125 -0.040366 0.045016
v -0.198712 -0.047960 0.073271
v -0.224226 -0.060124 0.084856
v -0.231301 -0.070684 0.088533
v -0.230919 -0.102175 0.089117
v -0.224156 -0.114263 0.086525
v -0.213360 -0.122029 0.082077
v -0.193782 -0.125342 0.071238
v -0.172154 -0.126577 0.059463
v -0.125166 -0.126146 0.038236
v -0.088035 -0.127516 0.026672
v -0.028570 -0.126914 0.015622
v 0.043037 -0.125571 0.014570
v 0.068811 -0.107866 0.015118
v 0.061793 -0.121370 0.016196
v 0.071024 -0.084728 0.014433
v 0.061753 -0.049264 0.014074
v 0.067122 -0.057013 0.014318
v 0.007330 -0.045637 0.011398
v -0.068293 -0.046241 0.019328
v -0.138243 -0.048230 0.040828
v -0.198225 -0.054569 0.069485
v -0.210617 -0.075147 0.075498
v -0.211832 -0.097584 0.076801
v -0.196477 -0.105272 0.068527
v -0.170599 -0.109215 0.055386
v -0.125119 -0.110604 0.035790
v -0.085400 -0.111378 0.023250
v -0.029066 -0.112322 0.013431
v 0.041827 -0.110971 0.012432
v 0.050115 -0.086781 0.011803
v 0.048577 -0.066620 0.011873
v 0.008110 -0.065659 0.010389
v -0.068855 -0.065436 0.018312
v -0.141758 -0.066357 0.041164
v -0.195355 -0.070140 0.067090
v 0.089340 -0.110582 0.083788
v 0.090124 -0.135431 0.082640
v 0.088628 -0.088058 0.084829
v 0.087778 -0.061151 0.086072
v 0.087038 -0.037699 0.087155
v 0.086326 -0.015172 0.088196
v 0.050157 -0.014800 0.073455
v 0.001181 -0.016229 0.070620
v -0.066815 -0.019375 0.079443
v -0.131199 -0.024930 0.101921
v -0.187348 -0.035055 0.130010
v -0.223774 -0.052193 0.152344
v -0.230329 -0.079873 0.164320
v -0.219294 -0.113800 0.159157
v -0.208035 -0.121778 0.155572
v -0.196823 -0.127899 0.144414
v -0.179838 -0.132005 0.126799
v -0.158837 -0.133774 0.112879
v -0.115009 -0.135419 0.092993
v -0.083535 -0.135515 0.087008
v -0.030547 -0.135330 0.066205
v 0.036976 -0.136064 0.072694
v 0.105522 -0.115826 0.047155
v 0.106602 -0.086084 0.042694
v 0.106335 -0.053541 0.042182
v 0.104217 -0.023339 0.047672
vn 0.9211 -0.1508 -0.3590
vn 0.9193 -0.2355 -0.3154
vn 0.9214 -0.1695 -0.3498
vn 0.4827 -0.3637 -0.7967
vn 0.5028 -0.0604 -0.8623
vn 0.1505 -0.0896 -0.9846
vn 0.1365 -0.4169 -0.8987
vn 0.5061 0.1304 -0.8526
vn 0.1835 0.0802 -0.9798
vn 0.3881 0.4942 -0.7779
vn 0.2554 0.4680 -0.8460
vn 0.2100 0.7627 -0.6118
vn 0.2615 0.7542 -0.6024
vn 0.0619 0.8595 -0.5073
vn -0.0224 0.7982 -0.6020
vn -0.0346 0.8682 -0.4949
vn -0.1638 0.8221 -0.5452
vn -0.1587 0.8782 -0.4512
vn -0.2901 0.8208 -0.4921
vn -0.2892 0.8480 -0.4441
vn -0.4406 0.7920 -0.4225
vn -0.4519 0.7997 -0.3954
vn -0.7239 0.5244 -0.4482
vn -0.7770 0.5681 -0.2712
vn -0.9029 0.1531 -0.4017
vn -0.9792 0.0562 -0.1952
vn -0.8747 -0.2656 -0.4055
vn -0.8867 -0.4169 -0.2001
vn -0.7140 -0.5705 -0.4059
vn -0.6898 -0.6985 -0.1902
vn -0.5294 -0.7379 -0.4186
vn -0.5121 -0.8362 -0.1965
vn -0.3776 -0.8005 -0.4653
vn -0.1110 -0.9931 0.0378
vn -0.2924 -0.8040 -0.5177
vn -0.0381 -0.9987 0.0335
vn -0.2250 -0.7858 -0.5762
vn -0.0115 -0.9988 0.0467
vn -0.1549 -0.7826 -0.6030
vn 0.0330 -0.9933 0.1111
vn -0.0578 -0.7819 -0.6207
vn -0.0327 -0.9500 -0.3104
vn 0.1137 -0.7754 -0.6211
vn 0.1191 -0.9244 -0.3624
vn 0.2584 -0.6743 -0.6918
vn 0.4092 -0.6438 -0.6465
vn 0.6133 -0.2384 -0.7530
vn 0.6266 -0.0096 -0.7793
vn 0.5406 0.2323 -0.8085
vn 0.2520 0.4988 -0.8293
vn -0.0094 0.5476 -0.8367
vn -0.1845 0.5804 -0.7931
vn -0.3343 0.6181 -0.7115
vn -0.4640 0.6416 -0.6107
vn -0.6790 0.0998 -0.7273
vn -0.6711 -0.1157 -0.7322
vn -0.4163 -0.3906 -0.8210
vn -0.3365 -0.3486 -0.8748
vn -0.3609 0.2413 -0.9008
vn -0.4898 0.2721 -0.8283
vn 0.2712 -0.1391 -0.9524
vn 0.2729 -0.0100 -0.9620
vn 0.2531 0.0835 -0.9638
vn -0.5901 0.2969 -0.7508
vn -0.5166 -0.4223 -0.7448
vn -0.4668 -0.4202 -0.7782
vn -0.0848 -0.3523 -0.9321
vn 0.0710 -0.3533 -0.9328
vn -0.0233 0.2113 -0.9771
vn -0.1987 0.2142 -0.9564
vn -0.6037 -0.2930 -0.7414
vn -0.2325 -0.3466 -0.9088
vn 0.2231 -0.3052 -0.9258
vn 0.1482 0.2102 -0.9664
vn 0.1636 -0.6429 -0.7483
vn -0.2412 -0.0865 -0.9666
vn -0.0958 -0.0891 -0.9914
vn -0.5095 0.0112 -0.8604
vn -0.5125 -0.0582 -0.8567
vn 0.0728 0.0334 -0.9968
vn -0.0265 0.0196 -0.9995
vn 0.0461 -0.0976 -0.9942
vn -0.4809 -0.1001 -0.8711
vn -0.3743 0.0231 -0.9270
vn -0.4663 0.0242 -0.8843
vn 0.0790 -0.0257 -0.9965
vn -0.2027 0.0210 -0.9790
vn -0.4327 -0.0952 -0.8965
vn -0.3437 -0.0831 -0.9354
vn 0.8171 0.0621 0.5731
vn 0.8136 0.0674 0.5775
vn 0.7800 0.1148 0.6151
vn 0.8434 0.0085 0.5372
vn 0.8432 0.0094 0.5375
vn 0.8417 -0.0131 0.5398
vn 0.8421 -0.0123 0.5392
vn 0.8330 -0.0080 0.5532
vn 0.8335 -0.0094 0.5524
vn 0.8271 0.0064 0.5620
vn -0.1249 0.8602 0.4944
vn -0.1065 0.8568 0.5045
vn -0.1750 0.8675 0.4657
vn -0.0201 0.8408 0.5410
vn -0.0022 0.8381 0.5455
vn 0.0652 0.8328 0.5497
vn 0.0804 0.8329 0.5476
vn 0.1111 0.8371 0.5356
vn 0.1101 0.8390 0.5329
vn 0.0443 0.8388 0.5426
vn 0.0204 0.8360 0.5483
vn -0.2479 0.7337 0.6326
vn -0.4019 0.6306 0.6639
vn -0.6195 0.1132 0.7768
vn -0.6190 0.0699 0.7823
vn 0.1463 -0.9217 0.3593
vn 0.0623 -0.9048 0.4213
vn 0.0680 -0.9065 0.4167
vn -0.1314 -0.8050 0.5785
vn -0.1463 -0.7942 0.5898
vn -0.4297 -0.5078 0.7467
vn -0.4390 -0.4952 0.7497
vn -0.0613 -0.9059 0.4190
vn -0.0544 -0.8964 0.4398
vn -0.0573 -0.9004 0.4312
vn 0.0799 -0.8845 0.4597
vn 0.0405 -0.8879 0.4582
vn 0.1240 -0.8820 0.4546
vn 0.1073 -0.8987 0.4253
vn 0.1461 -0.9127 0.3817
vn 0.9257 0.2778 -0.2567
vn 0.9179 0.3203 -0.2342
vn 0.9313 0.0782 -0.3557
vn 0.9307 0.0722 -0.3586
vn 0.1331 -0.5864 -0.7990
vn 0.8757 0.4577 -0.1540
vn 0.9190 -0.0431 -0.3920
vn 0.9188 -0.0482 -0.3917
vt 0.178439 0.905102
vt 0.089243 0.930492
vt 0.168658 0.885663
vt 0.170269 0.859151
vt 0.233841 0.854162
vt 0.235722 0.876005
vt 0.296764 0.839880
vt 0.299304 0.864423
vt 0.349290 0.830323
vt 0.348646 0.856622
vt 0.382017 0.813929
vt 0.389838 0.858929
vt 0.411955 0.795235
vt 0.421679 0.676390
vt 0.444323 0.680505
vt 0.434457 0.508124
vt 0.459912 0.508461
vt 0.438252 0.340883
vt 0.460279 0.336009
vt 0.406503 0.198596
vt 0.431670 0.185197
vt 0.333871 0.163765
vt 0.381807 0.101968
vt 0.313467 0.150132
vt 0.311070 0.058171
vt 0.262468 0.141862
vt 0.233907 0.062602
vt 0.237587 0.148661
vt 0.205529 0.067759
vt 0.216397 0.165816
vt 0.179483 0.093129
vt 0.195472 0.204115
vt 0.149102 0.142786
vt 0.177073 0.255703
vt 0.117794 0.200563
vt 0.157383 0.365349
vt 0.074544 0.327053
vt 0.146859 0.451022
vt 0.047562 0.414824
vt 0.139439 0.581207
vt 0.059384 0.575067
vt 0.142752 0.733485
vt 0.057528 0.762339
vt 0.095433 0.867666
vt 0.157293 0.777384
vt 0.191535 0.792681
vt 0.236387 0.796680
vt 0.293033 0.787894
vt 0.309963 0.774801
vt 0.329358 0.666613
vt 0.347308 0.511337
vt 0.355120 0.358593
vt 0.346984 0.227147
vt 0.310356 0.163107
vt 0.260674 0.155372
vt 0.188928 0.261851
vt 0.171184 0.368763
vt 0.336940 0.360325
vt 0.333138 0.230728
vt 0.192657 0.777013
vt 0.234801 0.780574
vt 0.284129 0.773957
vt 0.326351 0.177858
vt 0.219806 0.177281
vt 0.202529 0.215043
vt 0.153089 0.582299
vt 0.156007 0.729324
vt 0.314856 0.664419
vt 0.328124 0.510822
vt 0.238288 0.162072
vt 0.159252 0.452036
vt 0.167187 0.765491
vt 0.298050 0.765221
vt 0.075938 0.917369
vt 0.193969 0.462255
vt 0.184188 0.582782
vt 0.298336 0.202740
vt 0.260396 0.194192
vt 0.268467 0.739880
vt 0.275001 0.662958
vt 0.185458 0.725817
vt 0.240498 0.221973
vt 0.300676 0.350402
vt 0.303564 0.234895
vt 0.231285 0.741708
vt 0.288269 0.506665
vt 0.222644 0.275261
vt 0.204123 0.375035
vt 0.183776 0.999928
vt 0.108897 0.994367
vt 0.237200 0.894857
vt 0.250240 0.998195
vt 0.303695 0.882561
vt 0.328617 0.982640
vt 0.354259 0.872200
vt 0.390262 0.951203
vt 0.434373 0.899661
vt 0.467233 0.799554
vt 0.497408 0.672146
vt 0.510662 0.495331
vt 0.510662 0.317538
vt 0.477215 0.150413
vt 0.398761 0.047600
vt 0.319426 0.002394
vt 0.093576 0.112929
vt 0.135186 0.048411
vt 0.173254 0.013427
vt 0.216390 0.000071
vt 0.022392 0.888210
vt 0.008965 0.743707
vt 0.015010 0.563590
vt 0.000071 0.406705
vt 0.024141 0.317296
vt 0.062521 0.184206
s 1
f 1/1/1 3/2/2 110/3/3
f 2/4/4 6/5/5 111/6/6 110/3/7
f 6/5/5 8/7/8 112/8/9 111/6/6
f 8/7/8 10/9/10 113/10/11 112/8/9
f 10/9/10 12/11/12 11/12/13 113/10/11
f 12/11/12 13/13/14 11/12/13
f 12/11/12 14/14/15 15/15/16 13/13/14
f 14/14/15 16/16/17 17/17/18 15/15/16
f 16/16/17 18/18/19 19/19/20 17/17/18
f 18/18/19 20/20/21 21/21/22 19/19/20
f 20/20/21 22/22/23 23/23/24 21/21/22
f 22/22/23 24/24/25 25/25/26 23/23/24
f 24/24/25 26/26/27 27/27/28 25/25/26
f 26/26/27 28/28/29 29/29/30 27/27/28
f 28/28/29 30/30/31 31/31/32 29/29/30
f 30/30/31 32/32/33 33/33/34 31/31/32
f 32/32/33 34/34/35 35/35/36 33/33/34
f 34/34/35 36/36/37 37/37/38 35/35/36
f 36/36/37 38/38/39 39/39/40 37/37/38
f 38/38/39 40/40/41 41/41/42 39/39/40
f 40/40/41 42/42/43 43/43/44 41/41/42
f 42/42/43 4/44/45 43/43/44
f 42/42/43 46/45/46 4/44/45
f 4/44/45 46/45/46 44/46/47 2/4/4
f 2/4/4 44/46/47 47/47/48 6/5/5
f 6/5/5 47/47/48 49/48/49 8/7/8
f 8/7/8 49/48/49 10/9/10
f 49/48/49 48/49/50 12/11/12 10/9/10
f 12/11/12 48/49/50 50/50/51 14/14/15
f 14/14/15 50/50/51 51/51/52 16/16/17
f 16/16/17 51/51/52 52/52/53 18/18/19
f 18/18/19 52/52/53 53/53/54 20/20/21
f 20/20/21 53/53/54 22/22/23
f 24/24/25 55/54/55 56/55/56 26/26/27
f 34/34/35 60/56/57 61/57/58 36/36/37
f 52/52/53 72/58/59 73/59/60 53/53/54
f 44/46/47 65/60/61 67/61/62 47/47/48
f 47/47/48 67/61/62 69/62/63 49/48/49
f 53/53/54 73/59/60 54/63/64 22/22/23
f 30/30/31 58/64/65 59/65/66 32/32/33
f 40/40/41 63/66/67 64/67/68 42/42/43
f 50/50/51 70/68/69 71/69/70 51/51/52
f 26/26/27 56/55/56 57/70/71 28/28/29
f 36/36/37 61/57/58 62/71/72 38/38/39
f 51/51/52 71/69/70 72/58/59 52/52/53
f 42/42/43 64/67/68 66/72/73 46/45/46
f 49/48/49 69/62/63 68/73/74 48/49/50
f 22/22/23 54/63/64 55/54/55 24/24/25
f 46/45/46 66/72/73 65/60/61 44/46/47
f 32/32/33 59/65/66 60/56/57 34/34/35
f 48/49/50 68/73/74 70/68/69 50/50/51
f 28/28/29 57/70/71 58/64/65 30/30/31
f 38/38/39 62/71/72 63/66/67 40/40/41
f 4/44/45 45/74/75 43/43/44
f 62/71/72 79/75/76 80/76/77 63/66/67
f 55/54/55 74/77/78 75/78/79 56/55/56
f 68/73/74 83/79/80 84/80/81 70/68/69
f 63/66/67 80/76/77 81/81/82 64/67/68
f 56/55/56 75/78/79 76/82/83 57/70/71
f 72/58/59 86/83/84 87/84/85 73/59/60
f 64/67/68 81/81/82 66/72/73
f 57/70/71 76/82/83 58/64/65
f 73/59/60 87/84/85 74/77/78 54/63/64
f 67/61/62 82/85/86 83/79/80 69/62/63
f 58/64/65 76/82/83 59/65/66
f 71/69/70 85/86/87 86/83/84 72/58/59
f 66/72/73 81/81/82 82/85/86 65/60/61
f 59/65/66 76/82/83 77/87/88 60/56/57
f 65/60/61 82/85/86 67/61/62
f 60/56/57 77/87/88 78/88/89 61/57/58
f 70/68/69 84/80/81 85/86/87 71/69/70
f 61/57/58 78/88/89 79/75/76 62/71/72
f 54/63/64 74/77/78 55/54/55
f 69/62/63 83/79/80 68/73/74
f 76/82/83 75/78/79 74/77/78 87/84/85
f 86/83/84 77/87/88 87/84/85
f 87/84/85 77/87/88 76/82/83
f 86/83/84 78/88/89 77/87/88
f 85/86/87 79/75/76 78/88/89 86/83/84
f 79/75/76 85/86/87 80/76/77
f 84/80/81 80/76/77 85/86/87
f 80/76/77 84/80/81 81/81/82
f 84/80/81 82/85/86 81/81/82
f 82/85/86 84/80/81 83/79/80
f 1/1/90 88/89/91 89/90/92 3/2/92
f 5/91/93 90/92/94 88/89/91 1/1/90
f 7/93/95 91/94/96 90/92/94 5/91/93
f 9/95/97 92/96/98 91/94/96 7/93/95
f 11/12/99 93/97/99 92/96/98 9/95/97
f 13/13/100 94/98/101 93/97/102 11/12/102
f 15/15/103 95/99/104 94/98/101 13/13/100
f 17/17/105 96/100/106 95/99/104 15/15/103
f 19/19/107 97/101/108 96/100/106 17/17/105
f 21/21/109 98/102/110 97/101/108 19/19/107
f 23/23/111 99/103/112 98/102/110 21/21/109
f 25/25/113 100/104/114 99/103/112 23/23/111
f 33/33/34 104/105/115 103/106/116 31/31/117
f 31/31/117 103/106/116 102/107/118 29/29/119
f 29/29/119 102/107/118 101/108/120 27/27/121
f 45/74/122 89/109/122 109/110/123 43/43/124
f 27/27/121 101/108/120 100/104/114 25/25/113
f 43/43/124 109/110/123 108/111/125 41/41/126
f 41/41/126 108/111/125 107/112/127 39/39/40
f 39/39/40 107/112/127 106/113/128 37/37/38
f 37/37/38 106/113/128 105/114/129 35/35/36
f 35/35/36 105/114/129 104/105/115 33/33/34
f 113/10/130 9/95/131 7/93/132 112/8/133
f 3/2/134 4/44/45 2/4/4 110/3/7
f 11/12/135 9/95/131 113/10/130
f 111/6/136 5/91/137 1/1/1 110/3/3
f 112/8/133 7/93/132 5/91/137 111/6/136
