# Blender 4.1.0
# www.blender.org
o Right_Stick
v -0.000000 0.154125 -0.061107
v 0.000000 0.198831 -0.061107
v 0.015816 0.154125 -0.059025
v 0.015816 0.198831 -0.059025
v 0.030554 0.154125 -0.052920
v 0.030554 0.198831 -0.052920
v 0.043209 0.154125 -0.043209
v 0.043209 0.198831 -0.043209
v 0.052920 0.154125 -0.030553
v 0.052920 0.198831 -0.030553
v 0.059025 0.154125 -0.015816
v 0.059025 0.198831 -0.015816
v 0.061107 0.154125 0.000000
v 0.061107 0.198831 0.000000
v 0.059025 0.154125 0.015816
v 0.059025 0.198831 0.015816
v 0.052920 0.154125 0.030554
v 0.052920 0.198831 0.030554
v 0.043209 0.154125 0.043209
v 0.043209 0.198831 0.043209
v 0.030554 0.154125 0.052920
v 0.030554 0.198831 0.052920
v 0.015816 0.154125 0.059025
v 0.015816 0.198831 0.059025
v -0.000000 0.154125 0.061107
v -0.000000 0.198831 0.061107
v -0.015816 0.154125 0.059025
v -0.015816 0.198831 0.059025
v -0.030554 0.154125 0.052920
v -0.030554 0.198831 0.052920
v -0.043209 0.154125 0.043209
v -0.043209 0.198831 0.043209
v -0.052920 0.154125 0.030554
v -0.052920 0.198831 0.030554
v -0.059025 0.154125 0.015816
v -0.059025 0.198831 0.015816
v -0.061107 0.154125 0.000000
v -0.061107 0.198831 0.000000
v -0.059025 0.154125 -0.015816
v -0.059025 0.198831 -0.015816
v -0.052920 0.154125 -0.030553
v -0.052920 0.198831 -0.030553
v -0.043209 0.154125 -0.043209
v -0.043209 0.198831 -0.043209
v -0.030554 0.154125 -0.052920
v -0.030554 0.198831 -0.052920
v -0.015816 0.154125 -0.059025
v -0.015816 0.198831 -0.059025
v 0.000000 0.201757 -0.106484
v 0.027560 0.201757 -0.102856
v 0.053242 0.201757 -0.092218
v 0.075296 0.201757 -0.075295
v 0.092218 0.201757 -0.053242
v 0.102856 0.201757 -0.027560
v 0.106484 0.201757 0.000000
v 0.102856 0.201757 0.027560
v 0.092218 0.201757 0.053242
v 0.075296 0.201757 0.075296
v 0.053242 0.201757 0.092218
v 0.027560 0.201757 0.102856
v 0.000000 0.201757 0.106484
v -0.027560 0.201757 0.102856
v -0.053242 0.201757 0.092218
v -0.075295 0.201757 0.075296
v -0.092218 0.201757 0.053242
v -0.102856 0.201757 0.027560
v -0.106484 0.201757 0.000000
v -0.102856 0.201757 -0.027560
v -0.092218 0.201757 -0.053242
v -0.075295 0.201757 -0.075295
v -0.053242 0.201757 -0.092218
v -0.027560 0.201757 -0.102856
v 0.047726 0.075808 0.145944
v -0.122832 0.075808 0.090526
v -0.122832 0.075808 -0.088808
v 0.047726 0.075808 -0.144227
v 0.153138 0.075807 0.000859
v 0.000585 0.170089 0.000859
v 0.163746 0.042366 0.026036
v 0.162797 -0.000469 0.053563
v 0.162797 -0.000469 -0.051846
v 0.163746 0.042366 -0.024319
v 0.027059 0.042367 0.163814
v 0.000585 -0.000469 0.171417
v 0.100837 -0.000469 0.138843
v 0.074950 0.042367 0.148253
v -0.146214 0.042367 0.076392
v -0.161626 -0.000469 0.053563
v -0.099667 -0.000469 0.138843
v -0.116616 0.042367 0.117131
v -0.116616 0.042367 -0.115414
v -0.099667 -0.000469 -0.137126
v -0.161626 -0.000469 -0.051846
v -0.146214 0.042367 -0.074675
v 0.074950 0.042367 -0.146536
v 0.100837 -0.000469 -0.137126
v 0.000585 -0.000469 -0.169700
v 0.027059 0.042367 -0.162097
v 0.142328 0.085202 0.041597
v 0.117962 0.089199 0.086137
v 0.083131 0.085203 0.123075
v 0.005641 0.085203 0.148253
v -0.044249 0.089200 0.138843
v -0.090142 0.085203 0.117131
v -0.138033 0.085202 0.051214
v -0.144500 0.089199 0.000859
v -0.138033 0.085202 -0.049497
v -0.090142 0.085203 -0.115413
v -0.044249 0.089200 -0.137125
v 0.005641 0.085203 -0.146536
v 0.083131 0.085203 -0.121358
v 0.117962 0.089199 -0.084420
v 0.142328 0.085202 -0.039880
v 0.013822 0.164623 0.041597
v 0.028294 0.144617 0.086137
v 0.040295 0.111676 0.123075
v 0.129091 0.111675 0.000859
v 0.090253 0.144617 0.000859
v 0.043421 0.164623 0.000859
v -0.034069 0.164623 0.026036
v -0.071957 0.144617 0.053563
v -0.103378 0.111676 0.076392
v -0.034069 0.164623 -0.024319
v -0.071957 0.144617 -0.051846
v -0.103378 0.111676 -0.074674
v 0.013822 0.164623 -0.039880
v 0.028294 0.144617 -0.084420
v 0.040295 0.111676 -0.121358
v 0.062294 0.152083 -0.043975
v 0.109435 0.122949 -0.043975
v 0.076861 0.122949 -0.088809
v -0.022985 0.152083 -0.071683
v -0.008418 0.122949 -0.116517
v -0.061123 0.122949 -0.099392
v -0.075690 0.152083 0.000859
v -0.113828 0.122949 -0.026850
v -0.113828 0.122949 0.028567
v -0.022985 0.152083 0.073401
v -0.061123 0.122949 0.101109
v -0.008418 0.122949 0.118235
v 0.062294 0.152083 0.045692
v 0.076861 0.122949 0.090526
v 0.109435 0.122949 0.045692
v 0.147574 0.046672 -0.071684
v 0.138571 -0.000469 -0.099393
v 0.115000 0.046673 -0.116518
v -0.022986 0.046673 -0.161352
v -0.052120 -0.000470 -0.161352
v -0.075691 0.046673 -0.144227
v -0.160970 0.046672 -0.026850
v -0.169973 -0.000469 0.000859
v -0.160970 0.046672 0.028567
v -0.075691 0.046672 0.145944
v -0.052120 -0.000470 0.163070
v -0.022986 0.046672 0.163069
v 0.115000 0.046672 0.118235
v 0.138571 -0.000470 0.101110
v 0.147574 0.046672 0.073401
v 0.053291 -0.000469 -0.161352
v -0.137400 -0.000469 -0.099393
v -0.137400 -0.000469 0.101110
v 0.053291 -0.000469 0.163070
v 0.171144 -0.000469 0.000859
vn -0.0000 -0.0000 -1.0000
vn 0.2588 -0.0000 -0.9659
vn 0.5000 -0.0000 -0.8660
vn 0.7071 -0.0000 -0.7071
vn 0.8660 -0.0000 -0.5000
vn 0.9659 -0.0000 -0.2588
vn 1.0000 -0.0000 -0.0000
vn 0.9659 -0.0000 0.2588
vn 0.8660 -0.0000 0.5000
vn 0.7071 -0.0000 0.7071
vn 0.5000 -0.0000 0.8660
vn 0.2588 -0.0000 0.9659
vn -0.0000 -0.0000 1.0000
vn -0.2588 -0.0000 0.9659
vn -0.5000 -0.0000 0.8660
vn -0.7071 -0.0000 0.7071
vn -0.8660 -0.0000 0.5000
vn -0.9659 -0.0000 0.2588
vn -1.0000 -0.0000 -0.0000
vn -0.9659 -0.0000 -0.2588
vn -0.8660 -0.0000 -0.5000
vn -0.7071 -0.0000 -0.7071
vn -0.5000 -0.0000 -0.8660
vn 0.0455 -0.9979 0.0455
vn 0.0557 -0.9979 0.0322
vn -0.2588 -0.0000 -0.9659
vn -0.0322 -0.9979 0.0557
vn -0.0167 -0.9979 0.0622
vn -0.0622 -0.9979 -0.0167
vn -0.0644 -0.9979 -0.0000
vn -0.0000 -0.9979 -0.0644
vn -0.0167 -0.9979 -0.0622
vn 0.0322 -0.9979 -0.0557
vn 0.0167 -0.9979 -0.0622
vn 0.0622 -0.9979 0.0167
vn 0.0644 -0.9979 -0.0000
vn -0.0000 -0.9979 0.0644
vn 0.0167 -0.9979 0.0622
vn -0.0622 -0.9979 0.0167
vn -0.0557 -0.9979 0.0322
vn -0.0322 -0.9979 -0.0557
vn -0.0455 -0.9979 -0.0455
vn 0.0622 -0.9979 -0.0167
vn 0.0557 -0.9979 -0.0322
vn 0.0322 -0.9979 0.0557
vn -0.0455 -0.9979 0.0455
vn -0.0557 -0.9979 -0.0322
vn 0.0455 -0.9979 -0.0455
vn 0.2764 0.4472 0.8506
vn 0.4915 0.5038 0.7103
vn 0.2308 0.6650 0.7103
vn -0.7236 0.4472 0.5257
vn -0.5237 0.5038 0.6870
vn -0.6042 0.6650 0.4390
vn -0.7236 0.4472 -0.5257
vn -0.8152 0.5038 -0.2857
vn -0.6042 0.6650 -0.4390
vn 0.2764 0.4472 -0.8506
vn 0.0198 0.5038 -0.8636
vn 0.2308 0.6650 -0.7103
vn 0.8944 0.4472 -0.0000
vn 0.8274 0.5038 -0.2480
vn 0.7469 0.6650 -0.0000
vn 0.2608 0.9654 -0.0000
vn 0.0806 0.9654 -0.2480
vn -0.0000 1.0000 -0.0000
vn 0.5257 0.8507 -0.0000
vn 0.3682 0.8904 -0.2675
vn 0.6317 0.7275 -0.2675
vn 0.1625 0.8507 -0.5000
vn 0.4496 0.7276 -0.5182
vn 0.6882 0.5257 -0.5000
vn 0.4915 0.5038 -0.7103
vn -0.2110 0.9654 -0.1533
vn -0.1406 0.8904 -0.4329
vn -0.0592 0.7276 -0.6835
vn -0.4253 0.8507 -0.3090
vn -0.3539 0.7276 -0.5878
vn -0.2629 0.5257 -0.8090
vn -0.5237 0.5038 -0.6870
vn -0.2110 0.9654 0.1533
vn -0.4551 0.8904 -0.0000
vn -0.6683 0.7276 -0.1549
vn -0.4253 0.8507 0.3090
vn -0.6683 0.7276 0.1549
vn -0.8506 0.5257 -0.0000
vn -0.8152 0.5038 0.2857
vn 0.0806 0.9654 0.2480
vn -0.1406 0.8904 0.4329
vn -0.3539 0.7276 0.5878
vn 0.1625 0.8507 0.5000
vn -0.0592 0.7276 0.6835
vn -0.2629 0.5257 0.8090
vn 0.0198 0.5038 0.8636
vn 0.3682 0.8904 0.2675
vn 0.4496 0.7276 0.5182
vn 0.6317 0.7275 0.2675
vn 0.6882 0.5257 0.5000
vn 0.8274 0.5038 0.2480
vn 0.9578 0.2431 -0.1533
vn 0.9432 0.1169 -0.3109
vn 0.8593 0.2724 -0.4329
vn 0.8023 0.1283 -0.5829
vn 0.6772 0.2724 -0.6835
vn 0.5872 0.1169 -0.8010
vn 0.4417 0.2431 -0.8636
vn 0.1502 0.2431 -0.9583
vn -0.0042 0.1169 -0.9931
vn -0.1461 0.2724 -0.9510
vn -0.3065 0.1283 -0.9432
vn -0.4408 0.2724 -0.8553
vn -0.5803 0.1169 -0.8060
vn -0.6848 0.2431 -0.6870
vn -0.8650 0.2431 -0.4390
vn -0.9458 0.1169 -0.3029
vn -0.9496 0.2724 -0.1549
vn -0.9917 0.1283 -0.0000
vn -0.9496 0.2724 0.1549
vn -0.9458 0.1169 0.3029
vn -0.8650 0.2431 0.4390
vn -0.6848 0.2431 0.6870
vn -0.5803 0.1169 0.8060
vn -0.4408 0.2724 0.8553
vn -0.3065 0.1283 0.9432
vn -0.1461 0.2724 0.9510
vn -0.0042 0.1169 0.9931
vn 0.1502 0.2431 0.9583
vn 0.4417 0.2431 0.8636
vn 0.5872 0.1169 0.8010
vn 0.6772 0.2724 0.6835
vn 0.8023 0.1283 0.5829
vn 0.8593 0.2724 0.4329
vn 0.9432 0.1169 0.3109
vn 0.9578 0.2431 0.1533
vn 0.3071 0.1105 -0.9452
vn -0.8041 0.1105 -0.5842
vn -0.8041 0.1105 0.5842
vn 0.3071 0.1105 0.9452
vn 0.9939 0.1105 -0.0000
vt 0.671987 0.455453
vt 0.671987 0.544547
vt 0.643322 0.544547
vt 0.643322 0.455453
vt 0.614658 0.544547
vt 0.614658 0.455453
vt 0.585993 0.544547
vt 0.585993 0.455453
vt 0.557329 0.544547
vt 0.557329 0.455453
vt 0.528664 0.544547
vt 0.528664 0.455453
vt 0.500000 0.544547
vt 0.500000 0.455453
vt 0.471336 0.544547
vt 0.471336 0.455453
vt 0.442671 0.544547
vt 0.442671 0.455453
vt 0.414007 0.544547
vt 0.414007 0.455453
vt 0.385342 0.544547
vt 0.385342 0.455453
vt 0.356678 0.544547
vt 0.356678 0.455453
vt 0.328013 0.544547
vt 0.328013 0.455453
vt 0.299349 0.544547
vt 0.299349 0.455453
vt 0.270684 0.544547
vt 0.270684 0.455453
vt 0.242020 0.544547
vt 0.242020 0.455453
vt 0.213355 0.544547
vt 0.213355 0.455453
vt 0.184691 0.544547
vt 0.184691 0.455453
vt 0.156027 0.544547
vt 0.156027 0.455453
vt 0.843974 0.455453
vt 0.843974 0.544547
vt 0.815309 0.544547
vt 0.815309 0.455453
vt 0.786645 0.544547
vt 0.786645 0.455453
vt 0.757980 0.544547
vt 0.757980 0.455453
vt 0.729316 0.544547
vt 0.729316 0.455453
vt 0.359657 0.518460
vt 0.369214 0.554148
vt 0.271887 0.594441
vt 0.255219 0.532202
vt 0.700651 0.544547
vt 0.700651 0.455453
vt 0.445812 0.369241
vt 0.413816 0.387712
vt 0.349675 0.304143
vt 0.405485 0.271917
vt 0.612249 0.413848
vt 0.586125 0.387721
vt 0.650253 0.304131
vt 0.695829 0.349703
vt 0.612236 0.586164
vt 0.630710 0.554169
vt 0.728046 0.594504
vt 0.695809 0.650320
vt 0.554112 0.630757
vt 0.586109 0.612287
vt 0.650226 0.695887
vt 0.594405 0.728101
vt 0.387682 0.586146
vt 0.413802 0.612272
vt 0.349651 0.695830
vt 0.304094 0.650252
vt 0.387692 0.413835
vt 0.369219 0.445829
vt 0.271893 0.405527
vt 0.304109 0.349716
vt 0.554130 0.369246
vt 0.518444 0.359683
vt 0.532183 0.255230
vt 0.594437 0.271908
vt 0.640271 0.518481
vt 0.640278 0.481534
vt 0.744739 0.467781
vt 0.744736 0.532242
vt 0.445795 0.630747
vt 0.481480 0.640313
vt 0.467701 0.744757
vt 0.405455 0.728064
vt 0.359657 0.481514
vt 0.255219 0.467770
vt 0.481498 0.359681
vt 0.467735 0.255233
vt 0.630719 0.445846
vt 0.728056 0.405521
vt 0.518425 0.640316
vt 0.532149 0.744770
vt 0.451653 0.192818
vt 0.535771 0.212325
vt 0.464436 0.274057
vt 0.193076 0.450874
vt 0.237622 0.376902
vt 0.274290 0.463821
vt 0.358594 0.776538
vt 0.302008 0.711313
vt 0.396004 0.703300
vt 0.719470 0.719758
vt 0.639951 0.753418
vt 0.661377 0.661546
vt 0.776986 0.358996
vt 0.784427 0.445024
vt 0.703673 0.396258
vt 0.361452 0.305472
vt 0.353760 0.353716
vt 0.324405 0.324301
vt 0.627172 0.435139
vt 0.617069 0.518467
vt 0.557057 0.470775
vt 0.700613 0.483839
vt 0.545202 0.545134
vt 0.600759 0.600805
vt 0.685703 0.577356
vt 0.777072 0.543975
vt 0.753293 0.640307
vt 0.305501 0.361309
vt 0.518389 0.616946
vt 0.577138 0.685701
vt 0.470819 0.556838
vt 0.435041 0.626879
vt 0.483591 0.700419
vt 0.543571 0.777000
vt 0.444606 0.784154
vt 0.436703 0.489712
vt 0.499956 0.499796
vt 0.394236 0.553529
vt 0.347001 0.630648
vt 0.359034 0.477331
vt 0.304095 0.546229
vt 0.249798 0.626939
vt 0.212412 0.535029
vt 0.490000 0.436523
vt 0.416184 0.415855
vt 0.328242 0.394764
vt 0.477775 0.358828
vt 0.395271 0.327871
vt 0.301733 0.301172
vt 0.377591 0.237214
vt 0.317945 0.283249
vt 0.553903 0.394185
vt 0.546786 0.304030
vt 0.631119 0.347107
vt 0.627607 0.249896
vt 0.711877 0.302279
vt 0.870503 0.378139
vt 0.999791 0.421077
vt 0.879636 0.495389
vt 0.999900 0.579498
vt 0.859444 0.622043
vt 0.950537 0.730033
vt 0.814304 0.730642
vt 0.730162 0.814613
vt 0.729278 0.950843
vt 0.621473 0.859531
vt 0.578645 0.999900
vt 0.494779 0.879465
vt 0.420225 0.999470
vt 0.377548 0.870094
vt 0.271684 0.816018
vt 0.141849 0.857274
vt 0.195379 0.726530
vt 0.048646 0.729174
vt 0.137270 0.612198
vt 0.000100 0.578377
vt 0.109956 0.497810
vt 0.128671 0.380418
vt 0.049313 0.269684
vt 0.190199 0.280192
vt 0.142342 0.141456
vt 0.280979 0.189595
vt 0.270759 0.048687
vt 0.381329 0.128270
vt 0.498758 0.109793
vt 0.579549 0.000100
vt 0.613093 0.137338
vt 0.730251 0.048952
vt 0.727310 0.195680
vt 0.858163 0.142417
vt 0.816643 0.272168
vt 0.857279 0.857845
vt 0.269850 0.950273
vt 0.000421 0.420159
vt 0.421332 0.000100
vt 0.950900 0.270605
s 1
f 1/1/1 2/2/1 4/3/2 3/4/2
f 3/4/2 4/3/2 6/5/3 5/6/3
f 5/6/3 6/5/3 8/7/4 7/8/4
f 7/8/4 8/7/4 10/9/5 9/10/5
f 9/10/5 10/9/5 12/11/6 11/12/6
f 11/12/6 12/11/6 14/13/7 13/14/7
f 13/14/7 14/13/7 16/15/8 15/16/8
f 15/16/8 16/15/8 18/17/9 17/18/9
f 17/18/9 18/17/9 20/19/10 19/20/10
f 19/20/10 20/19/10 22/21/11 21/22/11
f 21/22/11 22/21/11 24/23/12 23/24/12
f 23/24/12 24/23/12 26/25/13 25/26/13
f 25/26/13 26/25/13 28/27/14 27/28/14
f 27/28/14 28/27/14 30/29/15 29/30/15
f 29/30/15 30/29/15 32/31/16 31/32/16
f 31/32/16 32/31/16 34/33/17 33/34/17
f 33/34/17 34/33/17 36/35/18 35/36/18
f 35/36/18 36/35/18 38/37/19 37/38/19
f 37/39/19 38/40/19 40/41/20 39/42/20
f 39/42/20 40/41/20 42/43/21 41/44/21
f 41/44/21 42/43/21 44/45/22 43/46/22
f 43/46/22 44/45/22 46/47/23 45/48/23
f 20/49/24 18/50/25 57/51/25 58/52/24
f 45/48/23 46/47/23 48/53/26 47/54/26
f 47/54/26 48/53/26 2/2/1 1/1/1
f 30/55/27 28/56/28 62/57/28 63/58/27
f 40/59/29 38/60/30 67/61/30 68/62/29
f 2/63/31 48/64/32 72/65/32 49/66/31
f 6/67/33 4/68/34 50/69/34 51/70/33
f 16/71/35 14/72/36 55/73/36 56/74/35
f 26/75/37 24/76/38 60/77/38 61/78/37
f 36/79/39 34/80/40 65/81/40 66/82/39
f 46/83/41 44/84/42 70/85/42 71/86/41
f 12/87/43 10/88/44 53/89/44 54/90/43
f 22/91/45 20/49/24 58/52/24 59/92/45
f 32/93/46 30/55/27 63/58/27 64/94/46
f 42/95/47 40/59/29 68/62/29 69/96/47
f 8/97/48 6/67/33 51/70/33 52/98/48
f 18/50/25 16/71/35 56/74/35 57/51/25
f 4/68/34 2/63/31 49/66/31 50/69/34
f 28/56/28 26/75/37 61/78/37 62/57/28
f 38/60/30 36/79/39 66/82/39 67/61/30
f 48/64/32 46/83/41 71/86/41 72/65/32
f 14/72/36 12/87/43 54/90/43 55/73/36
f 24/76/38 22/91/45 59/92/45 60/77/38
f 34/80/40 32/93/46 64/94/46 65/81/40
f 44/84/42 42/95/47 69/96/47 70/85/42
f 10/88/44 8/97/48 52/98/48 53/89/44
f 73/99/49 101/100/50 116/101/51
f 74/102/52 104/103/53 122/104/54
f 75/105/55 107/106/56 125/107/57
f 76/108/58 110/109/59 128/110/60
f 77/111/61 113/112/62 117/113/63
f 119/114/64 126/115/65 78/116/66
f 118/117/67 129/118/68 119/119/64
f 117/113/63 130/120/69 118/117/67
f 119/119/64 129/118/68 126/121/65
f 129/118/68 127/122/70 126/121/65
f 118/117/67 130/120/69 129/118/68
f 130/120/69 131/123/71 129/118/68
f 129/118/68 131/123/71 127/122/70
f 131/123/71 128/110/60 127/122/70
f 117/113/63 113/112/62 130/120/69
f 113/112/62 112/124/72 130/120/69
f 130/120/69 112/124/72 131/123/71
f 112/124/72 111/125/73 131/123/71
f 131/123/71 111/125/73 128/110/60
f 111/125/73 76/108/58 128/110/60
f 126/115/65 123/126/74 78/116/66
f 127/122/70 132/127/75 126/121/65
f 128/110/60 133/128/76 127/122/70
f 126/121/65 132/127/75 123/129/74
f 132/127/75 124/130/77 123/129/74
f 127/122/70 133/128/76 132/127/75
f 133/128/76 134/131/78 132/127/75
f 132/127/75 134/131/78 124/130/77
f 134/131/78 125/107/57 124/130/77
f 128/110/60 110/109/59 133/128/76
f 110/109/59 109/132/79 133/128/76
f 133/128/76 109/132/79 134/131/78
f 109/132/79 108/133/80 134/131/78
f 134/131/78 108/133/80 125/107/57
f 108/133/80 75/105/55 125/107/57
f 123/129/74 120/134/81 78/135/66
f 124/130/77 135/136/82 123/129/74
f 125/107/57 136/137/83 124/130/77
f 123/129/74 135/136/82 120/134/81
f 135/136/82 121/138/84 120/134/81
f 124/130/77 136/137/83 135/136/82
f 136/137/83 137/139/85 135/136/82
f 135/136/82 137/139/85 121/138/84
f 137/139/85 122/104/54 121/138/84
f 125/107/57 107/106/56 136/137/83
f 107/106/56 106/140/86 136/137/83
f 136/137/83 106/140/86 137/139/85
f 106/140/86 105/141/87 137/139/85
f 137/139/85 105/141/87 122/104/54
f 105/141/87 74/102/52 122/104/54
f 120/134/81 114/142/88 78/135/66
f 121/138/84 138/143/89 120/134/81
f 122/104/54 139/144/90 121/138/84
f 120/134/81 138/143/89 114/142/88
f 138/143/89 115/145/91 114/142/88
f 121/138/84 139/144/90 138/143/89
f 139/144/90 140/146/92 138/143/89
f 138/143/89 140/146/92 115/145/91
f 140/146/92 116/101/51 115/145/91
f 122/104/54 104/103/53 139/144/90
f 104/103/53 103/147/93 139/144/90
f 139/144/90 103/147/93 140/146/92
f 103/147/93 102/148/94 140/146/92
f 140/146/92 102/148/94 116/101/51
f 102/148/94 73/99/49 116/101/51
f 114/149/88 119/114/64 78/116/66
f 115/145/91 141/150/95 114/142/88
f 116/101/51 142/151/96 115/145/91
f 114/142/88 141/150/95 119/119/64
f 141/150/95 118/117/67 119/119/64
f 115/145/91 142/151/96 141/150/95
f 142/151/96 143/152/97 141/150/95
f 141/150/95 143/152/97 118/117/67
f 143/152/97 117/113/63 118/117/67
f 116/101/51 101/100/50 142/151/96
f 101/100/50 100/153/98 142/151/96
f 142/151/96 100/153/98 143/152/97
f 100/153/98 99/154/99 143/152/97
f 143/152/97 99/154/99 117/113/63
f 99/154/99 77/111/61 117/113/63
f 82/155/100 113/112/62 77/111/61
f 81/156/101 144/157/102 82/155/100
f 82/155/100 144/157/102 113/112/62
f 144/157/102 112/124/72 113/112/62
f 81/156/101 145/158/103 144/157/102
f 145/158/103 146/159/104 144/157/102
f 144/157/102 146/159/104 112/124/72
f 146/159/104 111/125/73 112/124/72
f 145/158/103 96/160/105 146/159/104
f 96/160/105 95/161/106 146/159/104
f 146/159/104 95/161/106 111/125/73
f 95/161/106 76/108/58 111/125/73
f 98/162/107 110/109/59 76/108/58
f 97/163/108 147/164/109 98/162/107
f 98/162/107 147/164/109 110/109/59
f 147/164/109 109/132/79 110/109/59
f 97/163/108 148/165/110 147/164/109
f 148/165/110 149/166/111 147/164/109
f 147/164/109 149/166/111 109/132/79
f 149/166/111 108/133/80 109/132/79
f 148/165/110 92/167/112 149/166/111
f 92/167/112 91/168/113 149/166/111
f 149/166/111 91/168/113 108/133/80
f 91/168/113 75/105/55 108/133/80
f 94/169/114 107/106/56 75/105/55
f 93/170/115 150/171/116 94/169/114
f 94/169/114 150/171/116 107/106/56
f 150/171/116 106/140/86 107/106/56
f 93/170/115 151/172/117 150/171/116
f 151/172/117 152/173/118 150/171/116
f 150/171/116 152/173/118 106/140/86
f 152/173/118 105/141/87 106/140/86
f 151/172/117 88/174/119 152/173/118
f 88/174/119 87/175/120 152/173/118
f 152/173/118 87/175/120 105/141/87
f 87/175/120 74/102/52 105/141/87
f 90/176/121 104/103/53 74/102/52
f 89/177/122 153/178/123 90/176/121
f 90/176/121 153/178/123 104/103/53
f 153/178/123 103/147/93 104/103/53
f 89/177/122 154/179/124 153/178/123
f 154/179/124 155/180/125 153/178/123
f 153/178/123 155/180/125 103/147/93
f 155/180/125 102/148/94 103/147/93
f 154/179/124 84/181/126 155/180/125
f 84/181/126 83/182/127 155/180/125
f 155/180/125 83/182/127 102/148/94
f 83/182/127 73/99/49 102/148/94
f 86/183/128 101/100/50 73/99/49
f 85/184/129 156/185/130 86/183/128
f 86/183/128 156/185/130 101/100/50
f 156/185/130 100/153/98 101/100/50
f 85/184/129 157/186/131 156/185/130
f 157/186/131 158/187/132 156/185/130
f 156/185/130 158/187/132 100/153/98
f 158/187/132 99/154/99 100/153/98
f 157/186/131 80/188/133 158/187/132
f 80/188/133 79/189/134 158/187/132
f 158/187/132 79/189/134 99/154/99
f 79/189/134 77/111/61 99/154/99
f 95/161/106 98/162/107 76/108/58
f 96/160/105 159/190/135 95/161/106
f 95/161/106 159/190/135 98/162/107
f 159/190/135 97/163/108 98/162/107
f 91/168/113 94/169/114 75/105/55
f 92/167/112 160/191/136 91/168/113
f 91/168/113 160/191/136 94/169/114
f 160/191/136 93/170/115 94/169/114
f 87/175/120 90/176/121 74/102/52
f 88/174/119 161/192/137 87/175/120
f 87/175/120 161/192/137 90/176/121
f 161/192/137 89/177/122 90/176/121
f 83/182/127 86/183/128 73/99/49
f 84/181/126 162/193/138 83/182/127
f 83/182/127 162/193/138 86/183/128
f 162/193/138 85/184/129 86/183/128
f 79/189/134 82/155/100 77/111/61
f 80/188/133 163/194/139 79/189/134
f 79/189/134 163/194/139 82/155/100
f 163/194/139 81/156/101 82/155/100
