# Blender 4.1.0
# www.blender.org
o Right_Cap
v 0.000000 0.246490 -0.080681
v 0.020882 0.246490 -0.077932
v 0.040340 0.246490 -0.069871
v 0.057050 0.246490 -0.057050
v 0.069872 0.246490 -0.040340
v 0.077932 0.246490 -0.020882
v 0.080681 0.246490 0.000000
v 0.077932 0.246490 0.020882
v 0.069872 0.246490 0.040340
v 0.057050 0.246490 0.057050
v 0.040340 0.246490 0.069872
v 0.020882 0.246490 0.077932
v 0.000000 0.246490 0.080681
v -0.020882 0.246490 0.077932
v -0.040340 0.246490 0.069872
v -0.057050 0.246490 0.057050
v -0.069871 0.246490 0.040340
v -0.077931 0.246490 0.020882
v -0.080681 0.246490 0.000000
v -0.077931 0.246490 -0.020882
v -0.069871 0.246490 -0.040340
v -0.057050 0.246490 -0.057050
v -0.040340 0.246490 -0.069871
v -0.020882 0.246490 -0.077932
v -0.000000 0.235565 0.000000
vn -0.0000 0.9910 0.1342
vn -0.0347 0.9910 0.1296
vn -0.0671 0.9910 0.1162
vn -0.0949 0.9910 0.0949
vn -0.1162 0.9910 0.0671
vn -0.1296 0.9910 0.0347
vn -0.1342 0.9910 -0.0000
vn -0.1296 0.9910 -0.0347
vn -0.1162 0.9910 -0.0671
vn -0.0949 0.9910 -0.0949
vn -0.0671 0.9910 -0.1162
vn -0.0347 0.9910 -0.1296
vn -0.0000 0.9910 -0.1342
vn 0.0347 0.9910 -0.1296
vn 0.0671 0.9910 -0.1162
vn 0.0949 0.9910 -0.0949
vn 0.1162 0.9910 -0.0671
vn 0.1296 0.9910 -0.0347
vn 0.1342 0.9910 -0.0000
vn 0.1296 0.9910 0.0347
vn 0.1162 0.9910 0.0671
vn 0.0949 0.9910 0.0949
vn 0.0671 0.9910 0.1162
vn 0.0347 0.9910 0.1296
vn -0.0000 1.0000 -0.0000
vt 0.433343 0.725255
vt 0.375340 0.699184
vt 0.501405 0.492504
vt 0.297370 0.365027
vt 0.337435 0.316588
vt 0.735379 0.436037
vt 0.742158 0.498457
vt 0.495965 0.735112
vt 0.271223 0.422383
vt 0.712936 0.377519
vt 0.558810 0.728185
vt 0.260807 0.484706
vt 0.676222 0.326776
vt 0.617554 0.705106
vt 0.266914 0.547714
vt 0.627793 0.287188
vt 0.668225 0.667587
vt 0.289193 0.607131
vt 0.570877 0.261585
vt 0.447260 0.257864
vt 0.509368 0.251616
vt 0.707443 0.618281
vt 0.326130 0.658832
vt 0.388635 0.279990
vt 0.732629 0.560594
s 1
f 12/1/12 11/2/11 25/3/25
f 5/4/5 4/5/4 25/3/25
f 20/6/20 19/7/19 25/3/25
f 13/8/13 12/1/12 25/3/25
f 6/9/6 5/4/5 25/3/25
f 21/10/21 20/6/20 25/3/25
f 14/11/14 13/8/13 25/3/25
f 7/12/7 6/9/6 25/3/25
f 22/13/22 21/10/21 25/3/25
f 15/14/15 14/11/14 25/3/25
f 8/15/8 7/12/7 25/3/25
f 23/16/23 22/13/22 25/3/25
f 16/17/16 15/14/15 25/3/25
f 9/18/9 8/15/8 25/3/25
f 24/19/24 23/16/23 25/3/25
f 2/20/2 1/21/1 25/3/25
f 17/22/17 16/17/16 25/3/25
f 10/23/10 9/18/9 25/3/25
f 1/21/1 24/19/24 25/3/25
f 3/24/3 2/20/2 25/3/25
f 18/25/18 17/22/17 25/3/25
f 11/2/11 10/23/10 25/3/25
f 4/5/4 3/24/3 25/3/25
f 19/7/19 18/25/18 25/3/25
