# Blender 4.1.0
# www.blender.org
o Right_Ring
v 0.000000 0.201757 -0.106484
v 0.027560 0.201757 -0.102855
v 0.053242 0.201757 -0.092218
v 0.075296 0.201757 -0.075295
v 0.092218 0.201757 -0.053242
v 0.102856 0.201757 -0.027560
v 0.106484 0.201757 0.000000
v 0.102856 0.201757 0.027560
v 0.092218 0.201757 0.053242
v 0.075296 0.201757 0.075296
v 0.053242 0.201757 0.092218
v 0.027560 0.201757 0.102856
v 0.000000 0.201757 0.106484
v -0.027560 0.201757 0.102856
v -0.053242 0.201757 0.092218
v -0.075295 0.201757 0.075296
v -0.092218 0.201757 0.053242
v -0.102856 0.201757 0.027560
v -0.106484 0.201757 0.000000
v -0.102856 0.201757 -0.027560
v -0.092218 0.201757 -0.053242
v -0.075295 0.201757 -0.075295
v -0.053242 0.201757 -0.092218
v -0.027560 0.201757 -0.102856
v 0.000000 0.211079 -0.114890
v 0.029736 0.211079 -0.110975
v 0.057445 0.211079 -0.099497
v 0.081239 0.211079 -0.081239
v 0.099497 0.211079 -0.057445
v 0.110975 0.211079 -0.029736
v 0.110975 0.211079 0.029736
v 0.099497 0.211079 0.057445
v 0.081239 0.211079 0.081239
v 0.029736 0.211079 0.110975
v 0.000000 0.211079 0.114890
v -0.029736 0.211079 0.110975
v -0.057445 0.211079 0.099497
v -0.081239 0.211079 0.081239
v -0.110975 0.211079 0.029736
v -0.110975 0.211079 -0.029736
v -0.099497 0.211079 -0.057445
v -0.057445 0.211079 -0.099497
v -0.029736 0.211079 -0.110975
v 0.114890 0.211079 0.000000
v 0.057445 0.211079 0.099497
v -0.099497 0.211079 0.057445
v -0.114890 0.211079 0.000000
v -0.081239 0.211079 -0.081239
v 0.000000 0.231516 -0.117306
v 0.030361 0.231516 -0.113309
v 0.058653 0.231516 -0.101590
v 0.082948 0.231516 -0.082948
v 0.101590 0.231516 -0.058653
v 0.113309 0.231516 -0.030361
v 0.117307 0.231516 0.000000
v 0.113309 0.231516 0.030361
v 0.101590 0.231516 0.058653
v 0.082948 0.231516 0.082948
v 0.058653 0.231516 0.101590
v 0.030361 0.231516 0.113309
v 0.000000 0.231516 0.117307
v -0.030361 0.231516 0.113309
v -0.058653 0.231516 0.101590
v -0.082948 0.231516 0.082948
v -0.101590 0.231516 0.058653
v -0.113309 0.231516 0.030361
v -0.117306 0.231516 0.000000
v -0.113309 0.231516 -0.030361
v -0.101590 0.231516 -0.058653
v -0.082948 0.231516 -0.082948
v -0.058653 0.231516 -0.101590
v -0.030361 0.231516 -0.113309
v 0.000000 0.245423 -0.110425
v 0.028580 0.245423 -0.106662
v 0.055213 0.245423 -0.095631
v 0.078082 0.245423 -0.078082
v 0.095631 0.245423 -0.055212
v 0.106662 0.245423 -0.028580
v 0.110425 0.245423 0.000000
v 0.106662 0.245423 0.028580
v 0.095631 0.245423 0.055213
v 0.078082 0.245423 0.078082
v 0.055213 0.245423 0.095631
v 0.028580 0.245423 0.106662
v 0.000000 0.245423 0.110425
v -0.028580 0.245423 0.106662
v -0.055212 0.245423 0.095631
v -0.078082 0.245423 0.078082
v -0.095631 0.245423 0.055213
v -0.106662 0.245423 0.028580
v -0.110425 0.245423 0.000000
v -0.106662 0.245423 -0.028580
v -0.095631 0.245423 -0.055212
v -0.078082 0.245423 -0.078082
v -0.055212 0.245423 -0.095631
v -0.028580 0.245423 -0.106662
v 0.000000 0.251659 -0.095017
v 0.024592 0.251659 -0.091779
v 0.047509 0.251659 -0.082287
v 0.067187 0.251659 -0.067187
v 0.082287 0.251659 -0.047508
v 0.091779 0.251659 -0.024592
v 0.095017 0.251659 0.000000
v 0.091779 0.251659 0.024592
v 0.082287 0.251659 0.047509
v 0.067187 0.251659 0.067187
v 0.047509 0.251659 0.082287
v 0.024592 0.251659 0.091779
v 0.000000 0.251659 0.095017
v -0.024592 0.251659 0.091779
v -0.047508 0.251659 0.082287
v -0.067187 0.251659 0.067187
v -0.082287 0.251659 0.047509
v -0.091779 0.251659 0.024592
v -0.095017 0.251659 0.000000
v -0.091779 0.251659 -0.024592
v -0.082287 0.251659 -0.047508
v -0.067187 0.251659 -0.067187
v -0.047508 0.251659 -0.082287
v -0.024592 0.251659 -0.091779
v 0.000000 0.246490 -0.080681
v 0.020882 0.246490 -0.077932
v 0.040340 0.246490 -0.069871
v 0.057050 0.246490 -0.057050
v 0.069872 0.246490 -0.040340
v 0.077932 0.246490 -0.020882
v 0.080681 0.246490 0.000000
v 0.077932 0.246490 0.020882
v 0.069872 0.246490 0.040340
v 0.057050 0.246490 0.057050
v 0.040340 0.246490 0.069872
v 0.020882 0.246490 0.077932
v 0.000000 0.246490 0.080681
v -0.020882 0.246490 0.077932
v -0.040340 0.246490 0.069872
v -0.057050 0.246490 0.057050
v -0.069871 0.246490 0.040340
v -0.077932 0.246490 0.020882
v -0.080681 0.246490 0.000000
v -0.077932 0.246490 -0.020882
v -0.069871 0.246490 -0.040340
v -0.057050 0.246490 -0.057050
v -0.040340 0.246490 -0.069871
v -0.020882 0.246490 -0.077932
vn -0.0000 -0.6696 -0.7427
vn 0.1922 -0.6696 -0.7174
vn 0.3713 -0.6696 -0.6432
vn 0.5252 -0.6696 -0.5252
vn 0.6432 -0.6696 -0.3713
vn 0.7174 -0.6696 -0.1922
vn 0.7427 -0.6696 -0.0000
vn 0.7174 -0.6696 0.1922
vn 0.6432 -0.6696 0.3713
vn 0.5252 -0.6696 0.5252
vn 0.3713 -0.6696 0.6432
vn 0.1922 -0.6696 0.7174
vn -0.0000 -0.6696 0.7427
vn -0.1922 -0.6696 0.7174
vn -0.3713 -0.6696 0.6432
vn -0.5252 -0.6696 0.5252
vn -0.6432 -0.6696 0.3713
vn -0.7174 -0.6696 0.1922
vn -0.7427 -0.6696 -0.0000
vn -0.7174 -0.6696 -0.1922
vn -0.6432 -0.6696 -0.3713
vn -0.5252 -0.6696 -0.5252
vn -0.3713 -0.6696 -0.6432
vn -0.1922 -0.6696 -0.7174
vn -0.0000 -0.3962 -0.9182
vn 0.2376 -0.3962 -0.8869
vn 0.4591 -0.3962 -0.7952
vn 0.6493 -0.3962 -0.6493
vn 0.7952 -0.3962 -0.4591
vn 0.8869 -0.3962 -0.2376
vn 0.8869 -0.3962 0.2376
vn 0.7952 -0.3962 0.4591
vn 0.6493 -0.3962 0.6492
vn 0.2376 -0.3962 0.8869
vn -0.0000 -0.3962 0.9182
vn -0.2376 -0.3962 0.8869
vn -0.4591 -0.3962 0.7952
vn -0.6493 -0.3962 0.6493
vn -0.8869 -0.3962 0.2376
vn -0.8869 -0.3962 -0.2376
vn -0.7952 -0.3962 -0.4591
vn -0.4591 -0.3962 -0.7952
vn -0.2376 -0.3962 -0.8869
vn 0.9182 -0.3962 -0.0000
vn 0.4591 -0.3962 0.7952
vn -0.7952 -0.3962 0.4591
vn -0.9182 -0.3962 -0.0000
vn -0.6493 -0.3962 -0.6493
vn -0.0000 0.1629 -0.9866
vn 0.2554 0.1629 -0.9530
vn 0.4933 0.1629 -0.8545
vn 0.6977 0.1629 -0.6977
vn 0.8545 0.1629 -0.4933
vn 0.9530 0.1629 -0.2554
vn 0.9866 0.1629 -0.0000
vn 0.9530 0.1629 0.2554
vn 0.8545 0.1629 0.4933
vn 0.6977 0.1629 0.6977
vn 0.4933 0.1629 0.8545
vn 0.2554 0.1629 0.9530
vn -0.0000 0.1629 0.9866
vn -0.2554 0.1629 0.9530
vn -0.4933 0.1629 0.8545
vn -0.6977 0.1629 0.6977
vn -0.8545 0.1629 0.4933
vn -0.9530 0.1629 0.2554
vn -0.9866 0.1629 -0.0000
vn -0.9530 0.1629 -0.2554
vn -0.8545 0.1629 -0.4933
vn -0.6977 0.1629 -0.6977
vn -0.4933 0.1629 -0.8545
vn -0.2554 0.1629 -0.9530
vn -0.0000 0.7089 -0.7053
vn 0.1825 0.7089 -0.6813
vn 0.3527 0.7089 -0.6108
vn 0.4987 0.7089 -0.4987
vn 0.6108 0.7089 -0.3527
vn 0.6813 0.7089 -0.1825
vn 0.7053 0.7089 -0.0000
vn 0.6813 0.7089 0.1825
vn 0.6108 0.7089 0.3527
vn 0.4987 0.7089 0.4987
vn 0.3527 0.7089 0.6108
vn 0.1825 0.7089 0.6813
vn -0.0000 0.7089 0.7053
vn -0.1825 0.7089 0.6813
vn -0.3527 0.7089 0.6108
vn -0.4987 0.7089 0.4987
vn -0.6108 0.7089 0.3527
vn -0.6813 0.7089 0.1825
vn -0.7053 0.7089 -0.0000
vn -0.6813 0.7089 -0.1825
vn -0.6108 0.7089 -0.3527
vn -0.4987 0.7089 -0.4987
vn -0.3527 0.7089 -0.6108
vn -0.1825 0.7089 -0.6813
vn -0.0000 0.9988 -0.0498
vn 0.0129 0.9988 -0.0481
vn 0.0249 0.9988 -0.0431
vn 0.0352 0.9988 -0.0352
vn 0.0431 0.9988 -0.0249
vn 0.0481 0.9988 -0.0129
vn 0.0498 0.9988 -0.0000
vn 0.0481 0.9988 0.0129
vn 0.0431 0.9988 0.0249
vn 0.0352 0.9988 0.0352
vn 0.0249 0.9988 0.0431
vn 0.0129 0.9988 0.0481
vn -0.0000 0.9988 0.0498
vn -0.0129 0.9988 0.0481
vn -0.0249 0.9988 0.0431
vn -0.0352 0.9988 0.0352
vn -0.0431 0.9988 0.0249
vn -0.0481 0.9988 0.0129
vn -0.0498 0.9988 -0.0000
vn -0.0481 0.9988 -0.0129
vn -0.0431 0.9988 -0.0249
vn -0.0352 0.9988 -0.0352
vn -0.0249 0.9988 -0.0431
vn -0.0129 0.9988 -0.0481
vn -0.0000 0.9407 0.3392
vn -0.0878 0.9407 0.3276
vn -0.1696 0.9407 0.2937
vn -0.2398 0.9407 0.2398
vn -0.2937 0.9407 0.1696
vn -0.3276 0.9407 0.0878
vn -0.3392 0.9407 -0.0000
vn -0.3276 0.9407 -0.0878
vn -0.2937 0.9407 -0.1696
vn -0.2398 0.9407 -0.2398
vn -0.1696 0.9407 -0.2937
vn -0.0878 0.9407 -0.3276
vn -0.0000 0.9407 -0.3392
vn 0.0878 0.9407 -0.3276
vn 0.1696 0.9407 -0.2937
vn 0.2398 0.9407 -0.2398
vn 0.2937 0.9407 -0.1696
vn 0.3276 0.9407 -0.0878
vn 0.3392 0.9407 -0.0000
vn 0.3276 0.9407 0.0878
vn 0.2937 0.9407 0.1696
vn 0.2398 0.9407 0.2398
vn 0.1696 0.9407 0.2937
vn 0.0878 0.9407 0.3276
vt 0.009575 0.604261
vt -0.006445 0.471265
vt 0.049438 0.473752
vt 0.059242 0.593110
vt 0.760681 0.069087
vt 0.864389 0.148504
vt 0.825113 0.185301
vt 0.734093 0.113164
vt 0.855409 0.850666
vt 0.752253 0.931929
vt 0.725817 0.886432
vt 0.818450 0.813760
vt 0.051621 0.729002
vt 0.099145 0.705048
vt 0.643817 0.019239
vt 0.629606 0.067319
vt 0.395672 0.009195
vt 0.520392 0.001213
vt 0.518459 0.048995
vt 0.406088 0.058426
vt 0.933744 0.746358
vt 0.888854 0.720336
vt 0.125790 0.842341
vt 0.166974 0.805667
vt 0.274508 0.050030
vt 0.297659 0.095835
vt 0.982404 0.626250
vt 0.932707 0.612682
vt 0.231123 0.936343
vt 0.261987 0.886392
vt 0.166630 0.121739
vt 0.201199 0.160519
vt 0.998575 0.498688
vt 0.947526 0.498262
vt 0.362578 0.988750
vt 0.376936 0.935218
vt 0.079903 0.219735
vt 0.123818 0.248620
vt 0.981832 0.372466
vt 0.932986 0.384704
vt 0.498211 1.004152
vt 0.497968 0.950200
vt 0.020650 0.338384
vt 0.071465 0.355143
vt 0.934990 0.256333
vt 0.891812 0.279045
vt 0.630703 0.984422
vt 0.616730 0.933150
vt 0.867826 0.595995
vt 0.881128 0.498682
vt 0.300522 0.823928
vt 0.395052 0.866252
vt 0.245436 0.211520
vt 0.180259 0.286782
vt 0.869362 0.401547
vt 0.496952 0.880312
vt 0.136700 0.377414
vt 0.834360 0.309918
vt 0.597725 0.866843
vt 0.118551 0.477519
vt 0.775958 0.231612
vt 0.690614 0.827850
vt 0.127231 0.578792
vt 0.700608 0.168977
vt 0.769690 0.766556
vt 0.161517 0.674320
vt 0.610884 0.130014
vt 0.515317 0.114643
vt 0.418946 0.122908
vt 0.829989 0.687424
vt 0.220262 0.758523
vt 0.327029 0.155739
vt 0.165405 0.479602
vt 0.172777 0.568240
vt 0.743775 0.262052
vt 0.676568 0.207346
vt 0.667001 0.788314
vt 0.736864 0.734655
vt 0.202861 0.652287
vt 0.597858 0.172550
vt 0.513641 0.159430
vt 0.428330 0.166292
vt 0.790292 0.665134
vt 0.254760 0.725906
vt 0.347104 0.196084
vt 0.824028 0.584601
vt 0.324722 0.783544
vt 0.275451 0.245858
vt 0.836305 0.498379
vt 0.407466 0.820579
vt 0.218327 0.312331
vt 0.825547 0.412539
vt 0.496579 0.833452
vt 0.180629 0.392171
vt 0.794761 0.332031
vt 0.585128 0.822181
vt 0.351428 0.739904
vt 0.421410 0.771288
vt 0.308711 0.282604
vt 0.260451 0.339570
vt 0.786796 0.498094
vt 0.778154 0.424620
vt 0.496817 0.782583
vt 0.228531 0.407665
vt 0.751577 0.355768
vt 0.572010 0.773430
vt 0.215596 0.482041
vt 0.708229 0.296002
vt 0.641757 0.744956
vt 0.222226 0.557326
vt 0.651103 0.249354
vt 0.701433 0.699482
vt 0.248257 0.628731
vt 0.584051 0.219378
vt 0.511953 0.207668
vt 0.438963 0.214399
vt 0.747205 0.640346
vt 0.292323 0.691115
vt 0.369596 0.239945
vt 0.776232 0.571673
vt 0.676222 0.326776
vt 0.627793 0.287188
vt 0.617554 0.705106
vt 0.668225 0.667587
vt 0.266914 0.547714
vt 0.289193 0.607131
vt 0.570877 0.261585
vt 0.509368 0.251616
vt 0.447260 0.257864
vt 0.707443 0.618281
vt 0.326130 0.658832
vt 0.388635 0.279990
vt 0.732629 0.560594
vt 0.375340 0.699184
vt 0.337435 0.316588
vt 0.742158 0.498457
vt 0.433343 0.725255
vt 0.297370 0.365027
vt 0.735379 0.436037
vt 0.495965 0.735112
vt 0.271223 0.422383
vt 0.712936 0.377519
vt 0.558810 0.728185
vt 0.260807 0.484706
s 1
f 8/1/8 7/2/7 44/3/44 31/4/31
f 23/5/23 22/6/22 48/7/48 42/8/42
f 16/9/16 15/10/15 37/11/37 38/12/38
f 9/13/9 8/1/8 31/4/31 32/14/32
f 24/15/24 23/5/23 42/8/42 43/16/43
f 2/17/2 1/18/1 25/19/25 26/20/26
f 17/21/17 16/9/16 38/12/38 46/22/46
f 10/23/10 9/13/9 32/14/32 33/24/33
f 1/18/1 24/15/24 43/16/43 25/19/25
f 3/25/3 2/17/2 26/20/26 27/26/27
f 18/27/18 17/21/17 46/22/46 39/28/39
f 11/29/11 10/23/10 33/24/33 45/30/45
f 4/31/4 3/25/3 27/26/27 28/32/28
f 19/33/19 18/27/18 39/28/39 47/34/47
f 12/35/12 11/29/11 45/30/45 34/36/34
f 5/37/5 4/31/4 28/32/28 29/38/29
f 20/39/20 19/33/19 47/34/47 40/40/40
f 13/41/13 12/35/12 34/36/34 35/42/35
f 6/43/6 5/37/5 29/38/29 30/44/30
f 21/45/21 20/39/20 40/40/40 41/46/41
f 14/47/14 13/41/13 35/42/35 36/48/36
f 7/2/7 6/43/6 30/44/30 44/3/44
f 22/6/22 21/45/21 41/46/41 48/7/48
f 15/10/15 14/47/14 36/48/36 37/11/37
f 47/34/47 39/28/39 66/49/66 67/50/67
f 34/36/34 45/30/45 59/51/59 60/52/60
f 29/38/29 28/32/28 52/53/52 53/54/53
f 40/40/40 47/34/47 67/50/67 68/55/68
f 35/42/35 34/36/34 60/52/60 61/56/61
f 30/44/30 29/38/29 53/54/53 54/57/54
f 41/46/41 40/40/40 68/55/68 69/58/69
f 36/48/36 35/42/35 61/56/61 62/59/62
f 44/3/44 30/44/30 54/57/54 55/60/55
f 48/7/48 41/46/41 69/58/69 70/61/70
f 37/11/37 36/48/36 62/59/62 63/62/63
f 31/4/31 44/3/44 55/60/55 56/63/56
f 42/8/42 48/7/48 70/61/70 71/64/71
f 38/12/38 37/11/37 63/62/63 64/65/64
f 32/14/32 31/4/31 56/63/56 57/66/57
f 43/16/43 42/8/42 71/64/71 72/67/72
f 26/20/26 25/19/25 49/68/49 50/69/50
f 46/22/46 38/12/38 64/65/64 65/70/65
f 33/24/33 32/14/32 57/66/57 58/71/58
f 25/19/25 43/16/43 72/67/72 49/68/49
f 27/26/27 26/20/26 50/69/50 51/72/51
f 39/28/39 46/22/46 65/70/65 66/49/66
f 45/30/45 33/24/33 58/71/58 59/51/59
f 28/32/28 27/26/27 51/72/51 52/53/52
f 56/63/56 55/60/55 79/73/79 80/74/80
f 71/64/71 70/61/70 94/75/94 95/76/95
f 64/65/64 63/62/63 87/77/87 88/78/88
f 57/66/57 56/63/56 80/74/80 81/79/81
f 72/67/72 71/64/71 95/76/95 96/80/96
f 50/69/50 49/68/49 73/81/73 74/82/74
f 65/70/65 64/65/64 88/78/88 89/83/89
f 58/71/58 57/66/57 81/79/81 82/84/82
f 49/68/49 72/67/72 96/80/96 73/81/73
f 51/72/51 50/69/50 74/82/74 75/85/75
f 66/49/66 65/70/65 89/83/89 90/86/90
f 59/51/59 58/71/58 82/84/82 83/87/83
f 52/53/52 51/72/51 75/85/75 76/88/76
f 67/50/67 66/49/66 90/86/90 91/89/91
f 60/52/60 59/51/59 83/87/83 84/90/84
f 53/54/53 52/53/52 76/88/76 77/91/77
f 68/55/68 67/50/67 91/89/91 92/92/92
f 61/56/61 60/52/60 84/90/84 85/93/85
f 54/57/54 53/54/53 77/91/77 78/94/78
f 69/58/69 68/55/68 92/92/92 93/95/93
f 62/59/62 61/56/61 85/93/85 86/96/86
f 55/60/55 54/57/54 78/94/78 79/73/79
f 70/61/70 69/58/69 93/95/93 94/75/94
f 63/62/63 62/59/62 86/96/86 87/77/87
f 84/90/84 83/87/83 107/97/107 108/98/108
f 77/91/77 76/88/76 100/99/100 101/100/101
f 92/92/92 91/89/91 115/101/115 116/102/116
f 85/93/85 84/90/84 108/98/108 109/103/109
f 78/94/78 77/91/77 101/100/101 102/104/102
f 93/95/93 92/92/92 116/102/116 117/105/117
f 86/96/86 85/93/85 109/103/109 110/106/110
f 79/73/79 78/94/78 102/104/102 103/107/103
f 94/75/94 93/95/93 117/105/117 118/108/118
f 87/77/87 86/96/86 110/106/110 111/109/111
f 80/74/80 79/73/79 103/107/103 104/110/104
f 95/76/95 94/75/94 118/108/118 119/111/119
f 88/78/88 87/77/87 111/109/111 112/112/112
f 81/79/81 80/74/80 104/110/104 105/113/105
f 96/80/96 95/76/95 119/111/119 120/114/120
f 74/82/74 73/81/73 97/115/97 98/116/98
f 89/83/89 88/78/88 112/112/112 113/117/113
f 82/84/82 81/79/81 105/113/105 106/118/106
f 73/81/73 96/80/96 120/114/120 97/115/97
f 75/85/75 74/82/74 98/116/98 99/119/99
f 90/86/90 89/83/89 113/117/113 114/120/114
f 83/87/83 82/84/82 106/118/106 107/97/107
f 76/88/76 75/85/75 99/119/99 100/99/100
f 91/89/91 90/86/90 114/120/114 115/101/115
f 119/111/119 118/108/118 142/121/142 143/122/143
f 112/112/112 111/109/111 135/123/135 136/124/136
f 105/113/105 104/110/104 128/125/128 129/126/129
f 120/114/120 119/111/119 143/122/143 144/127/144
f 98/116/98 97/115/97 121/128/121 122/129/122
f 113/117/113 112/112/112 136/124/136 137/130/137
f 106/118/106 105/113/105 129/126/129 130/131/130
f 97/115/97 120/114/120 144/127/144 121/128/121
f 99/119/99 98/116/98 122/129/122 123/132/123
f 114/120/114 113/117/113 137/130/137 138/133/138
f 107/97/107 106/118/106 130/131/130 131/134/131
f 100/99/100 99/119/99 123/132/123 124/135/124
f 115/101/115 114/120/114 138/133/138 139/136/139
f 108/98/108 107/97/107 131/134/131 132/137/132
f 101/100/101 100/99/100 124/135/124 125/138/125
f 116/102/116 115/101/115 139/136/139 140/139/140
f 109/103/109 108/98/108 132/137/132 133/140/133
f 102/104/102 101/100/101 125/138/125 126/141/126
f 117/105/117 116/102/116 140/139/140 141/142/141
f 110/106/110 109/103/109 133/140/133 134/143/134
f 103/107/103 102/104/102 126/141/126 127/144/127
f 118/108/118 117/105/117 141/142/141 142/121/142
f 111/109/111 110/106/110 134/143/134 135/123/135
f 104/110/104 103/107/103 127/144/127 128/125/128
