# Blender 4.1.0
# www.blender.org
o Start_Button
v 0.204696 0.251437 -0.356329
v 0.204696 0.259097 -0.353183
v 0.224590 0.251437 -0.352926
v 0.223190 0.259097 -0.350021
v 0.241456 0.251437 -0.343238
v 0.238869 0.259097 -0.341014
v 0.252726 0.251437 -0.328739
v 0.249346 0.259097 -0.327535
v 0.256683 0.251437 -0.311636
v 0.253024 0.259097 -0.311636
v 0.252726 0.251437 -0.294533
v 0.249346 0.259097 -0.295737
v 0.241456 0.251437 -0.280034
v 0.238869 0.259097 -0.282258
v 0.224590 0.251437 -0.270346
v 0.223190 0.259097 -0.273252
v 0.204696 0.251437 -0.266944
v 0.204696 0.259097 -0.270089
v 0.184801 0.251437 -0.270346
v 0.186201 0.259097 -0.273252
v 0.167935 0.251437 -0.280034
v 0.170522 0.259097 -0.282258
v 0.156666 0.251437 -0.294533
v 0.160046 0.259097 -0.295737
v 0.152708 0.251437 -0.311636
v 0.156367 0.259097 -0.311636
v 0.156666 0.251437 -0.328739
v 0.160046 0.259097 -0.327535
v 0.167935 0.251437 -0.343238
v 0.170522 0.259097 -0.341014
v 0.184801 0.251437 -0.352926
v 0.186201 0.259097 -0.350021
v 0.218037 0.269174 -0.339326
v 0.204696 0.269174 -0.341607
v 0.229348 0.269174 -0.332829
v 0.236905 0.269174 -0.323106
v 0.239559 0.269174 -0.311636
v 0.236905 0.269174 -0.300167
v 0.229348 0.269174 -0.290443
v 0.218037 0.269174 -0.283946
v 0.204696 0.269174 -0.281665
v 0.191354 0.269174 -0.283946
v 0.180044 0.269174 -0.290443
v 0.172486 0.269174 -0.300167
v 0.169832 0.269174 -0.311636
v 0.172486 0.269174 -0.323106
v 0.180044 0.269174 -0.332829
v 0.191354 0.269174 -0.339326
v 0.204696 0.274094 -0.311636
vn -0.0000 0.3798 -0.9251
vn -0.0000 0.5716 -0.8205
vn 0.3094 0.3862 -0.8690
vn 0.2735 0.5791 -0.7680
vn 0.5966 0.4030 -0.6940
vn 0.5222 0.5985 -0.6075
vn 0.8167 0.4222 -0.3935
vn 0.7068 0.6200 -0.3406
vn 0.9024 0.4310 -0.0000
vn 0.7769 0.6296 -0.0000
vn 0.8167 0.4222 0.3935
vn 0.7068 0.6200 0.3406
vn 0.5966 0.4030 0.6940
vn 0.5222 0.5985 0.6075
vn 0.3094 0.3862 0.8690
vn 0.2735 0.5791 0.7680
vn -0.0000 0.3798 0.9251
vn -0.0000 0.5716 0.8205
vn -0.3094 0.3862 0.8690
vn -0.2735 0.5791 0.7680
vn -0.5966 0.4030 0.6940
vn -0.5222 0.5985 0.6075
vn -0.8167 0.4222 0.3935
vn -0.7068 0.6200 0.3406
vn -0.9024 0.4310 -0.0000
vn -0.7769 0.6296 -0.0000
vn -0.8167 0.4222 -0.3935
vn -0.7068 0.6200 -0.3406
vn -0.5966 0.4030 -0.6940
vn -0.5222 0.5985 -0.6075
vn -0.3094 0.3862 -0.8690
vn -0.2735 0.5791 -0.7680
vn 0.1486 0.8965 -0.4174
vn -0.0000 0.8930 -0.4501
vn 0.2773 0.9050 -0.3225
vn 0.3658 0.9139 -0.1762
vn 0.3975 0.9176 -0.0000
vn 0.3658 0.9139 0.1762
vn 0.2773 0.9050 0.3225
vn 0.1486 0.8965 0.4174
vn -0.0000 0.8930 0.4501
vn -0.1486 0.8965 0.4174
vn -0.2773 0.9050 0.3225
vn -0.3658 0.9139 0.1762
vn -0.3975 0.9176 -0.0000
vn -0.3658 0.9139 -0.1762
vn -0.2773 0.9050 -0.3225
vn -0.1486 0.8965 -0.4174
vn -0.0000 1.0000 -0.0000
vt 0.500000 0.070746
vt 0.500000 0.100956
vt 0.322367 0.131331
vt 0.308919 0.103421
vt 0.171777 0.217833
vt 0.146929 0.196471
vt 0.071156 0.347293
vt 0.038690 0.335732
vt 0.035822 0.500000
vt 0.000681 0.500000
vt 0.071156 0.652708
vt 0.038690 0.664269
vt 0.171777 0.782167
vt 0.146929 0.803529
vt 0.322367 0.868669
vt 0.308919 0.896579
vt 0.500000 0.899044
vt 0.500000 0.929254
vt 0.677633 0.868669
vt 0.691081 0.896579
vt 0.828223 0.782167
vt 0.853072 0.803529
vt 0.928844 0.652708
vt 0.961310 0.664269
vt 0.964178 0.500000
vt 0.999319 0.500000
vt 0.928844 0.347292
vt 0.961310 0.335731
vt 0.828223 0.217833
vt 0.853072 0.196472
vt 0.165151 0.500000
vt 0.190640 0.610160
vt 0.677633 0.131331
vt 0.691081 0.103421
vt 0.628141 0.765951
vt 0.736774 0.703550
vt 0.736774 0.296450
vt 0.628141 0.234049
vt 0.263226 0.296450
vt 0.190640 0.389840
vt 0.371859 0.765951
vt 0.500000 0.787863
vt 0.500000 0.212137
vt 0.371859 0.234049
vt 0.834849 0.500000
vt 0.809360 0.389840
vt 0.263226 0.703550
vt 0.809360 0.610161
vt 0.500000 0.500000
s 1
f 1/1/1 2/2/2 4/3/4 3/4/3
f 3/4/3 4/3/4 6/5/6 5/6/5
f 5/6/5 6/5/6 8/7/8 7/8/7
f 7/8/7 8/7/8 10/9/10 9/10/9
f 9/10/9 10/9/10 12/11/12 11/12/11
f 11/12/11 12/11/12 14/13/14 13/14/13
f 13/14/13 14/13/14 16/15/16 15/16/15
f 15/16/15 16/15/16 18/17/18 17/18/17
f 17/18/17 18/17/18 20/19/20 19/20/19
f 19/20/19 20/19/20 22/21/22 21/22/21
f 21/22/21 22/21/22 24/23/24 23/24/23
f 23/24/23 24/23/24 26/25/26 25/26/25
f 25/26/25 26/25/26 28/27/28 27/28/27
f 27/28/27 28/27/28 30/29/30 29/30/29
f 12/11/12 10/9/10 37/31/37 38/32/38
f 29/30/29 30/29/30 32/33/32 31/34/31
f 31/34/31 32/33/32 2/2/2 1/1/1
f 22/21/22 20/19/20 42/35/42 43/36/43
f 32/33/32 30/29/30 47/37/47 48/38/48
f 8/7/8 6/5/6 35/39/35 36/40/36
f 18/17/18 16/15/16 40/41/40 41/42/41
f 4/3/4 2/2/2 34/43/34 33/44/33
f 28/27/28 26/25/26 45/45/45 46/46/46
f 14/13/14 12/11/12 38/32/38 39/47/39
f 24/23/24 22/21/22 43/36/43 44/48/44
f 2/2/2 32/33/32 48/38/48 34/43/34
f 10/9/10 8/7/8 36/40/36 37/31/37
f 20/19/20 18/17/18 41/42/41 42/35/42
f 30/29/30 28/27/28 46/46/46 47/37/47
f 6/5/6 4/3/4 33/44/33 35/39/35
f 16/15/16 14/13/14 39/47/39 40/41/40
f 26/25/26 24/23/24 44/48/44 45/45/45
f 45/45/45 44/48/44 49/49/49
f 38/32/38 37/31/37 49/49/49
f 46/46/46 45/45/45 49/49/49
f 39/47/39 38/32/38 49/49/49
f 47/37/47 46/46/46 49/49/49
f 40/41/40 39/47/39 49/49/49
f 48/38/48 47/37/47 49/49/49
f 41/42/41 40/41/40 49/49/49
f 33/44/33 34/43/34 49/49/49
f 34/43/34 48/38/48 49/49/49
f 42/35/42 41/42/41 49/49/49
f 35/39/35 33/44/33 49/49/49
f 43/36/43 42/35/42 49/49/49
f 36/40/36 35/39/35 49/49/49
f 44/48/44 43/36/43 49/49/49
f 37/31/37 36/40/36 49/49/49
