# Blender 4.1.0
# www.blender.org
o X_Button
v 0.410451 0.250554 -0.392441
v 0.410451 0.271951 -0.385325
v 0.437156 0.250554 -0.387129
v 0.434432 0.271951 -0.380555
v 0.459795 0.250554 -0.372002
v 0.454763 0.271951 -0.366971
v 0.474922 0.250554 -0.349363
v 0.468347 0.271951 -0.346640
v 0.480233 0.250554 -0.322659
v 0.473117 0.271951 -0.322659
v 0.474922 0.250554 -0.295954
v 0.468347 0.271951 -0.298677
v 0.459795 0.250554 -0.273315
v 0.454763 0.271951 -0.278347
v 0.437156 0.250554 -0.258188
v 0.434432 0.271951 -0.264763
v 0.410451 0.250554 -0.252876
v 0.410451 0.271951 -0.259992
v 0.383746 0.250554 -0.258188
v 0.386470 0.271951 -0.264763
v 0.361107 0.250554 -0.273315
v 0.366139 0.271951 -0.278347
v 0.345980 0.250554 -0.295954
v 0.352555 0.271951 -0.298677
v 0.340669 0.250554 -0.322659
v 0.347785 0.271951 -0.322659
v 0.345980 0.250554 -0.349363
v 0.352555 0.271951 -0.346640
v 0.361107 0.250554 -0.372002
v 0.366139 0.271951 -0.366971
v 0.383746 0.250554 -0.387129
v 0.386470 0.271951 -0.380555
v 0.429263 0.284654 -0.368076
v 0.410451 0.284654 -0.371818
v 0.445212 0.284654 -0.357419
v 0.455868 0.284654 -0.341471
v 0.459610 0.284654 -0.322659
v 0.455868 0.284654 -0.303846
v 0.445212 0.284654 -0.287898
v 0.429263 0.284654 -0.277242
v 0.410451 0.284654 -0.273500
v 0.391639 0.284654 -0.277242
v 0.375690 0.284654 -0.287898
v 0.365034 0.284654 -0.303846
v 0.361292 0.284654 -0.322659
v 0.365034 0.284654 -0.341471
v 0.375690 0.284654 -0.357419
v 0.391639 0.284654 -0.368076
v 0.420609 0.292913 -0.347183
v 0.410451 0.292913 -0.349203
v 0.429221 0.292913 -0.341429
v 0.434975 0.292913 -0.332817
v 0.436996 0.292913 -0.322659
v 0.434975 0.292913 -0.312501
v 0.429221 0.292913 -0.303889
v 0.420609 0.292913 -0.298135
v 0.410451 0.292913 -0.296114
v 0.400293 0.292913 -0.298135
v 0.391681 0.292913 -0.303889
v 0.385927 0.292913 -0.312501
v 0.383906 0.292913 -0.322659
v 0.385927 0.292913 -0.332817
v 0.391681 0.292913 -0.341429
v 0.400293 0.292913 -0.347183
v 0.410451 0.295342 -0.322659
vn -0.0000 0.3156 -0.9489
vn -0.0000 0.5225 -0.8527
vn 0.3631 0.3156 -0.8767
vn 0.3263 0.5225 -0.7877
vn 0.6710 0.3156 -0.6710
vn 0.6029 0.5225 -0.6029
vn 0.8767 0.3156 -0.3631
vn 0.7877 0.5225 -0.3263
vn 0.9489 0.3156 -0.0000
vn 0.8527 0.5225 -0.0000
vn 0.8767 0.3156 0.3631
vn 0.7877 0.5225 0.3263
vn 0.6710 0.3156 0.6710
vn 0.6029 0.5225 0.6029
vn 0.3631 0.3156 0.8767
vn 0.3263 0.5225 0.7877
vn -0.0000 0.3156 0.9489
vn -0.0000 0.5225 0.8527
vn -0.3631 0.3156 0.8767
vn -0.3263 0.5225 0.7877
vn -0.6710 0.3156 0.6710
vn -0.6029 0.5225 0.6029
vn -0.8767 0.3156 0.3631
vn -0.7877 0.5225 0.3263
vn -0.9489 0.3156 -0.0000
vn -0.8527 0.5225 -0.0000
vn -0.8767 0.3156 -0.3631
vn -0.7877 0.5225 -0.3263
vn -0.6710 0.3156 -0.6710
vn -0.6029 0.5225 -0.6029
vn -0.3631 0.3156 -0.8767
vn -0.3263 0.5225 -0.7877
vn 0.2082 0.8390 -0.5027
vn -0.0000 0.8390 -0.5441
vn 0.3847 0.8390 -0.3847
vn 0.5027 0.8390 -0.2082
vn 0.5441 0.8390 -0.0000
vn 0.5027 0.8390 0.2082
vn 0.3847 0.8390 0.3847
vn 0.2082 0.8390 0.5027
vn -0.0000 0.8390 0.5441
vn -0.2082 0.8390 0.5027
vn -0.3847 0.8390 0.3847
vn -0.5027 0.8390 0.2082
vn -0.5441 0.8390 -0.0000
vn -0.5027 0.8390 -0.2082
vn -0.3847 0.8390 -0.3847
vn -0.2082 0.8390 -0.5027
vn 0.0897 0.9721 -0.2167
vn -0.0000 0.9721 -0.2345
vn 0.1658 0.9721 -0.1658
vn 0.2167 0.9721 -0.0897
vn 0.2345 0.9721 -0.0000
vn 0.2167 0.9721 0.0897
vn 0.1658 0.9721 0.1658
vn 0.0897 0.9721 0.2167
vn -0.0000 0.9721 0.2345
vn -0.0897 0.9721 0.2167
vn -0.1658 0.9721 0.1658
vn -0.2167 0.9721 0.0897
vn -0.2345 0.9721 -0.0000
vn -0.2167 0.9721 -0.0897
vn -0.1658 0.9721 -0.1658
vn -0.0897 0.9721 -0.2167
vn -0.0000 1.0000 -0.0000
vt 0.986954 0.385786
vt 0.852681 0.415966
vt 0.793380 0.286878
vt 0.911067 0.207729
vt 0.690529 0.190155
vt 0.769860 0.067411
vt 0.560463 0.135492
vt 0.584970 0.000100
vt 0.419099 0.138726
vt 0.392728 0.000902
vt 0.289511 0.195451
vt 0.211201 0.075440
vt 0.191480 0.297405
vt 0.068847 0.216466
vt 0.135509 0.426813
vt 0.000100 0.401477
vt 0.138336 0.568561
vt 0.000100 0.594043
vt 0.193368 0.699363
vt 0.072953 0.775913
vt 0.294807 0.800081
vt 0.211571 0.918680
vt 0.428782 0.854142
vt 0.397595 0.998560
vt 0.572427 0.850863
vt 0.604937 0.999900
vt 0.704275 0.794518
vt 0.790925 0.911277
vt 0.804951 0.690931
vt 0.923279 0.764639
vt 0.637935 0.274701
vt 0.543381 0.236213
vt 0.852981 0.557079
vt 0.996077 0.581615
vt 0.347237 0.278848
vt 0.440601 0.237247
vt 0.466487 0.360019
vt 0.417000 0.381008
vt 0.235863 0.445991
vt 0.237945 0.549251
vt 0.753086 0.438314
vt 0.710588 0.345415
vt 0.551005 0.752158
vt 0.645241 0.710007
vt 0.275619 0.351055
vt 0.352292 0.715326
vt 0.447826 0.752662
vt 0.754010 0.541369
vt 0.278422 0.643753
vt 0.717004 0.637121
vt 0.420416 0.610141
vt 0.381610 0.572844
vt 0.495327 0.494500
vt 0.524287 0.629157
vt 0.573799 0.607965
vt 0.379557 0.419601
vt 0.611380 0.569402
vt 0.359691 0.469624
vt 0.630825 0.519219
vt 0.360645 0.523313
vt 0.630170 0.465495
vt 0.608831 0.416024
vt 0.570072 0.378754
vt 0.520111 0.359057
vt 0.470372 0.630319
s 1
f 1/1/1 2/2/2 4/3/4 3/4/3
f 3/4/3 4/3/4 6/5/6 5/6/5
f 5/6/5 6/5/6 8/7/8 7/8/7
f 7/8/7 8/7/8 10/9/10 9/10/9
f 9/10/9 10/9/10 12/11/12 11/12/11
f 11/12/11 12/11/12 14/13/14 13/14/13
f 13/14/13 14/13/14 16/15/16 15/16/15
f 15/16/15 16/15/16 18/17/18 17/18/17
f 17/18/17 18/17/18 20/19/20 19/20/19
f 19/20/19 20/19/20 22/21/22 21/22/21
f 21/22/21 22/21/22 24/23/24 23/24/23
f 23/24/23 24/23/24 26/25/26 25/26/25
f 25/26/25 26/25/26 28/27/28 27/28/27
f 27/28/27 28/27/28 30/29/30 29/30/29
f 8/7/8 6/5/6 35/31/35 36/32/36
f 29/30/29 30/29/30 32/33/32 31/34/31
f 31/34/31 32/33/32 2/2/2 1/1/1
f 38/35/38 37/36/37 53/37/53 54/38/54
f 18/17/18 16/15/16 40/39/40 41/40/41
f 4/3/4 2/2/2 34/41/34 33/42/33
f 28/27/28 26/25/26 45/43/45 46/44/46
f 14/13/14 12/11/12 38/35/38 39/45/39
f 24/23/24 22/21/22 43/46/43 44/47/44
f 2/2/2 32/33/32 48/48/48 34/41/34
f 10/9/10 8/7/8 36/32/36 37/36/37
f 20/19/20 18/17/18 41/40/41 42/49/42
f 30/29/30 28/27/28 46/44/46 47/50/47
f 6/5/6 4/3/4 33/42/33 35/31/35
f 16/15/16 14/13/14 39/45/39 40/39/40
f 26/25/26 24/23/24 44/47/44 45/43/45
f 12/11/12 10/9/10 37/36/37 38/35/38
f 22/21/22 20/19/20 42/49/42 43/46/43
f 32/33/32 30/29/30 47/50/47 48/48/48
f 59/51/59 58/52/58 65/53/65
f 46/44/46 45/43/45 61/54/61 62/55/62
f 39/45/39 38/35/38 54/38/54 55/56/55
f 47/50/47 46/44/46 62/55/62 63/57/63
f 40/39/40 39/45/39 55/56/55 56/58/56
f 48/48/48 47/50/47 63/57/63 64/59/64
f 41/40/41 40/39/40 56/58/56 57/60/57
f 33/42/33 34/41/34 50/61/50 49/62/49
f 34/41/34 48/48/48 64/59/64 50/61/50
f 42/49/42 41/40/41 57/60/57 58/52/58
f 35/31/35 33/42/33 49/62/49 51/63/51
f 43/46/43 42/49/42 58/52/58 59/51/59
f 36/32/36 35/31/35 51/63/51 52/64/52
f 44/47/44 43/46/43 59/51/59 60/65/60
f 37/36/37 36/32/36 52/64/52 53/37/53
f 45/43/45 44/47/44 60/65/60 61/54/61
f 52/64/52 51/63/51 65/53/65
f 60/65/60 59/51/59 65/53/65
f 53/37/53 52/64/52 65/53/65
f 61/54/61 60/65/60 65/53/65
f 54/38/54 53/37/53 65/53/65
f 62/55/62 61/54/61 65/53/65
f 55/56/55 54/38/54 65/53/65
f 63/57/63 62/55/62 65/53/65
f 56/58/56 55/56/55 65/53/65
f 64/59/64 63/57/63 65/53/65
f 57/60/57 56/58/56 65/53/65
f 49/62/49 50/61/50 65/53/65
f 50/61/50 64/59/64 65/53/65
f 58/52/58 57/60/57 65/53/65
f 51/63/51 49/62/49 65/53/65
