# Blender 4.1.0
# www.blender.org
o Y_Button
v 0.558648 0.242305 -0.540960
v 0.559706 0.264035 -0.535029
v 0.585320 0.241279 -0.535584
v 0.583658 0.263114 -0.530201
v 0.607932 0.240993 -0.520419
v 0.603963 0.262857 -0.516582
v 0.623040 0.241490 -0.497773
v 0.617531 0.263303 -0.496245
v 0.628345 0.242694 -0.471094
v 0.622295 0.264385 -0.472287
v 0.623040 0.244423 -0.444444
v 0.617531 0.265937 -0.448355
v 0.607932 0.246413 -0.421880
v 0.603963 0.267724 -0.428092
v 0.585320 0.248360 -0.406838
v 0.583658 0.269473 -0.414583
v 0.558648 0.249970 -0.401606
v 0.559706 0.270918 -0.409885
v 0.531976 0.250995 -0.406983
v 0.535754 0.271839 -0.414713
v 0.509365 0.251282 -0.422148
v 0.515448 0.272096 -0.428332
v 0.494257 0.250785 -0.444794
v 0.501880 0.271650 -0.448669
v 0.488951 0.249580 -0.471473
v 0.497116 0.270568 -0.472627
v 0.494257 0.247852 -0.498123
v 0.501880 0.269016 -0.496559
v 0.509365 0.245862 -0.520686
v 0.515448 0.267229 -0.516822
v 0.531976 0.243914 -0.535729
v 0.535754 0.265480 -0.530331
v 0.579123 0.276722 -0.518451
v 0.560333 0.277445 -0.522239
v 0.595052 0.276521 -0.507768
v 0.605695 0.276871 -0.491814
v 0.609432 0.277719 -0.473020
v 0.605695 0.278937 -0.454246
v 0.595052 0.280338 -0.438351
v 0.579123 0.281711 -0.427754
v 0.560333 0.282844 -0.424069
v 0.541544 0.283567 -0.427856
v 0.525615 0.283769 -0.438540
v 0.514972 0.283418 -0.454493
v 0.511234 0.282570 -0.473287
v 0.514972 0.281352 -0.492061
v 0.525615 0.279951 -0.507956
v 0.541544 0.278579 -0.518553
v 0.570887 0.286534 -0.498066
v 0.560741 0.286924 -0.500111
v 0.579488 0.286425 -0.492297
v 0.585235 0.286614 -0.483683
v 0.587254 0.287072 -0.473535
v 0.585235 0.287730 -0.463397
v 0.579488 0.288486 -0.454814
v 0.570887 0.289227 -0.449092
v 0.560741 0.289839 -0.447102
v 0.550596 0.290230 -0.449147
v 0.541994 0.290338 -0.454916
v 0.536247 0.290149 -0.463530
v 0.534229 0.289691 -0.473679
v 0.536247 0.289034 -0.483816
v 0.541994 0.288277 -0.492399
v 0.550596 0.287536 -0.498121
v 0.560861 0.290803 -0.473740
vn 0.0156 0.2626 -0.9648
vn 0.0258 0.4742 -0.8800
vn 0.3783 0.2487 -0.8917
vn 0.3517 0.4617 -0.8143
vn 0.6857 0.2448 -0.6855
vn 0.6280 0.4582 -0.6290
vn 0.8912 0.2515 -0.3775
vn 0.8126 0.4643 -0.3523
vn 0.9633 0.2679 -0.0147
vn 0.8774 0.4790 -0.0263
vn 0.8912 0.2914 0.3477
vn 0.8126 0.5001 0.2993
vn 0.6857 0.3185 0.6545
vn 0.6280 0.5244 0.5750
vn 0.3783 0.3449 0.8590
vn 0.3517 0.5482 0.7588
vn 0.0156 0.3668 0.9302
vn 0.0258 0.5679 0.8227
vn -0.3471 0.3808 0.8571
vn -0.3001 0.5804 0.7570
vn -0.6546 0.3847 0.6508
vn -0.5764 0.5839 0.5717
vn -0.8600 0.3779 0.3429
vn -0.7610 0.5778 0.2950
vn -0.9321 0.3615 -0.0199
vn -0.8258 0.5631 -0.0310
vn -0.8600 0.3380 -0.3823
vn -0.7610 0.5420 -0.3566
vn -0.6546 0.3110 -0.6891
vn -0.5764 0.5177 -0.6323
vn -0.3471 0.2845 -0.8936
vn -0.3001 0.4939 -0.8161
vn 0.2494 0.7989 -0.5474
vn 0.0415 0.8069 -0.5893
vn 0.4257 0.7966 -0.4291
vn 0.5435 0.8005 -0.2526
vn 0.5849 0.8099 -0.0445
vn 0.5435 0.8234 0.1632
vn 0.4257 0.8389 0.3392
vn 0.2494 0.8541 0.4564
vn 0.0415 0.8666 0.4972
vn -0.1665 0.8746 0.4553
vn -0.3428 0.8769 0.3371
vn -0.4606 0.8730 0.1605
vn -0.5019 0.8636 -0.0475
vn -0.4606 0.8501 -0.2553
vn -0.3428 0.8346 -0.4312
vn -0.1665 0.8194 -0.5485
vn 0.1377 0.9531 -0.2694
vn 0.0480 0.9566 -0.2875
vn 0.2137 0.9522 -0.2185
vn 0.2644 0.9538 -0.1423
vn 0.2823 0.9579 -0.0527
vn 0.2644 0.9637 0.0369
vn 0.2137 0.9704 0.1127
vn 0.1377 0.9769 0.1633
vn 0.0480 0.9823 0.1808
vn -0.0416 0.9858 0.1628
vn -0.1176 0.9867 0.1118
vn -0.1684 0.9851 0.0357
vn -0.1862 0.9810 -0.0540
vn -0.1684 0.9752 -0.1435
vn -0.1176 0.9685 -0.2194
vn -0.0416 0.9620 -0.2699
vn 0.0494 0.9973 -0.0549
vt 0.908999 0.198221
vt 0.794194 0.283298
vt 0.693027 0.185516
vt 0.764766 0.066177
vt 0.562360 0.134096
vt 0.585839 0.000384
vt 0.422575 0.139000
vt 0.393145 0.000100
vt 0.293534 0.190776
vt 0.217976 0.078980
vt 0.195905 0.290422
vt 0.082888 0.211214
vt 0.142572 0.420027
vt 0.005594 0.388047
vt 0.140662 0.561201
vt 0.000100 0.583453
vt 0.193874 0.692972
vt 0.070579 0.768987
vt 0.295451 0.795130
vt 0.209772 0.916263
vt 0.430372 0.847869
vt 0.401813 0.999901
vt 0.575272 0.847722
vt 0.610998 0.991533
vt 0.707155 0.789590
vt 0.793776 0.905101
vt 0.805399 0.686555
vt 0.926630 0.758967
vt 0.857234 0.554242
vt 0.993533 0.577661
vt 0.544764 0.234022
vt 0.444351 0.234845
vt 0.850276 0.412883
vt 0.993533 0.379883
vt 0.279095 0.345400
vt 0.351090 0.273499
vt 0.420222 0.376539
vt 0.382840 0.414688
vt 0.240083 0.542501
vt 0.279838 0.637764
vt 0.711140 0.340864
vt 0.639278 0.269620
vt 0.647221 0.706596
vt 0.719596 0.632137
vt 0.241543 0.439913
vt 0.449282 0.747155
vt 0.552144 0.747277
vt 0.752636 0.433437
vt 0.353481 0.709994
vt 0.756459 0.535562
vt 0.472871 0.625081
vt 0.422729 0.605223
vt 0.497783 0.489590
vt 0.576213 0.602758
vt 0.613357 0.563933
vt 0.362867 0.464215
vt 0.633184 0.514040
vt 0.363361 0.517803
vt 0.631654 0.460563
vt 0.383999 0.567575
vt 0.610417 0.411616
vt 0.572164 0.374441
vt 0.522528 0.355103
vt 0.469281 0.355532
vt 0.526823 0.624254
s 1
f 1/1/1 2/2/2 4/3/4 3/4/3
f 3/4/3 4/3/4 6/5/6 5/6/5
f 5/6/5 6/5/6 8/7/8 7/8/7
f 7/8/7 8/7/8 10/9/10 9/10/9
f 9/10/9 10/9/10 12/11/12 11/12/11
f 11/12/11 12/11/12 14/13/14 13/14/13
f 13/14/13 14/13/14 16/15/16 15/16/15
f 15/16/15 16/15/16 18/17/18 17/18/17
f 17/18/17 18/17/18 20/19/20 19/20/19
f 19/20/19 20/19/20 22/21/22 21/22/21
f 21/22/21 22/21/22 24/23/24 23/24/23
f 23/24/23 24/23/24 26/25/26 25/26/25
f 25/26/25 26/25/26 28/27/28 27/28/27
f 27/28/27 28/27/28 30/29/30 29/30/29
f 8/7/8 6/5/6 35/31/35 36/32/36
f 29/30/29 30/29/30 32/33/32 31/34/31
f 31/34/31 32/33/32 2/2/2 1/1/1
f 38/35/38 37/36/37 53/37/53 54/38/54
f 18/17/18 16/15/16 40/39/40 41/40/41
f 4/3/4 2/2/2 34/41/34 33/42/33
f 28/27/28 26/25/26 45/43/45 46/44/46
f 14/13/14 12/11/12 38/35/38 39/45/39
f 24/23/24 22/21/22 43/46/43 44/47/44
f 2/2/2 32/33/32 48/48/48 34/41/34
f 10/9/10 8/7/8 36/32/36 37/36/37
f 20/19/20 18/17/18 41/40/41 42/49/42
f 30/29/30 28/27/28 46/44/46 47/50/47
f 6/5/6 4/3/4 33/42/33 35/31/35
f 16/15/16 14/13/14 39/45/39 40/39/40
f 26/25/26 24/23/24 44/47/44 45/43/45
f 12/11/12 10/9/10 37/36/37 38/35/38
f 22/21/22 20/19/20 42/49/42 43/46/43
f 32/33/32 30/29/30 47/50/47 48/48/48
f 59/51/59 58/52/58 65/53/65
f 46/44/46 45/43/45 61/54/61 62/55/62
f 39/45/39 38/35/38 54/38/54 55/56/55
f 47/50/47 46/44/46 62/55/62 63/57/63
f 40/39/40 39/45/39 55/56/55 56/58/56
f 48/48/48 47/50/47 63/57/63 64/59/64
f 41/40/41 40/39/40 56/58/56 57/60/57
f 33/42/33 34/41/34 50/61/50 49/62/49
f 34/41/34 48/48/48 64/59/64 50/61/50
f 42/49/42 41/40/41 57/60/57 58/52/58
f 35/31/35 33/42/33 49/62/49 51/63/51
f 43/46/43 42/49/42 58/52/58 59/51/59
f 36/32/36 35/31/35 51/63/51 52/64/52
f 44/47/44 43/46/43 59/51/59 60/65/60
f 37/36/37 36/32/36 52/64/52 53/37/53
f 45/43/45 44/47/44 60/65/60 61/54/61
f 52/64/52 51/63/51 65/53/65
f 60/65/60 59/51/59 65/53/65
f 53/37/53 52/64/52 65/53/65
f 61/54/61 60/65/60 65/53/65
f 54/38/54 53/37/53 65/53/65
f 62/55/62 61/54/61 65/53/65
f 55/56/55 54/38/54 65/53/65
f 63/57/63 62/55/62 65/53/65
f 56/58/56 55/56/55 65/53/65
f 64/59/64 63/57/63 65/53/65
f 57/60/57 56/58/56 65/53/65
f 49/62/49 50/61/50 65/53/65
f 50/61/50 64/59/64 65/53/65
f 58/52/58 57/60/57 65/53/65
f 51/63/51 49/62/49 65/53/65
